<?xml version="1.0" standalone="no"?>
<!DOCTYPE svg PUBLIC "-//W3C//DTD SVG 20010904//EN" "http://www.w3.org/TR/2001/REC-SVG-20010904/DTD/svg10.dtd">
<svg xmlns="http://www.w3.org/2000/svg" version="1.0" width="360.000000pt" height="360.000000pt" viewBox="0 0 360.000000 360.000000" preserveAspectRatio="xMidYMid meet">

<g transform="translate(0.000000,360.000000) scale(0.100000,-0.100000)" fill="#000000" stroke="none">
<path d="M1712 3103 c-77 -82 -108 -205 -79 -311 9 -32 19 -70 22 -85 8 -38 48 -77 79 -77 23 0 24 -2 14 -33 -10 -32 -12 -33 -57 -31 -58 4 -156 -10 -291 -41 -58 -13 -123 -27 -145 -31 -22 -4 -44 -10 -50 -14 -5 -4 -35 -13 -65 -20 -30 -7 -60 -14 -66 -15 -17 -5 -23 -42 -10 -59 20 -27 126 -45 336 -56 113 -7 219 -14 235 -16 17 -3 46 -7 67 -10 30 -5 38 -2 47 15 12 21 51 30 51 11 0 -18 41 -33 64 -22 11 6 44 13 71 16 28 3 95 13 150 21 55 8 153 17 217 19 95 3 125 8 162 26 49 23 58 46 29 72 -21 17 -117 45 -183 52 -25 3 -94 15 -155 27 -60 11 -144 26 -185 33 -41 6 -80 15 -86 18 -5 4 -16 3 -24 -2 -15 -9 -50 4 -50 19 0 5 13 13 28 19 39 13 105 85 119 130 17 54 15 141 -4 198 -19 56 -51 114 -63 114 -5 0 -11 8 -14 18 -8 25 -58 52 -96 52 -25 0 -41 -9 -68 -37z m131 -83 c32 -25 67 -116 67 -174 0 -109 -88 -191 -153 -143 -22 15 -67 139 -69 188 -1 41 28 97 69 129 32 25 54 25 86 0z m-183 -495 c0 -7 7 -18 16 -23 10 -6 17 -29 21 -70 l6 -62 -159 6 c-88 3 -175 10 -194 15 -19 5 -69 9 -109 9 -120 0 -75 21 149 70 80 17 170 39 200 49 71 24 70 24 70 6z m480 -44 c58 -12 118 -21 133 -21 39 0 117 -21 117 -31 0 -5 -39 -9 -87 -8 -49 0 -146 -7 -218 -16 -217 -29 -239 -28 -228 15 5 21 -21 70 -37 70 -4 0 -16 -8 -25 -17 -13 -13 -16 -27 -11 -60 4 -28 2 -42 -4 -38 -6 3 -10 33 -10 65 l0 59 58 6 c31 4 61 7 65 9 18 4 146 -13 247 -33z"/>
<path d="M1741 2243 c-5 -11 -6 -46 -1 -88 5 -38 6 -212 3 -385 -4 -173 -6 -330 -5 -347 2 -27 -2 -33 -18 -33 -23 0 -36 -37 -26 -76 8 -29 8 -336 1 -403 -3 -24 -7 -122 -10 -216 -2 -95 -7 -181 -11 -191 -15 -50 -39 -95 -55 -110 -24 -22 -24 -29 1 -54 26 -26 34 -21 65 40 13 26 32 56 42 66 16 15 18 42 20 242 1 124 5 232 8 240 3 8 5 96 6 196 0 134 3 176 11 162 7 -13 8 -94 4 -255 -5 -152 -3 -283 4 -369 10 -118 10 -136 -4 -151 -21 -23 -20 -28 6 -82 29 -58 63 -86 83 -69 19 15 19 34 0 87 -12 36 -30 232 -36 393 -2 61 10 381 17 454 6 54 4 61 -17 77 -23 17 -23 22 -24 176 0 87 2 196 3 243 6 127 -9 443 -20 458 -15 17 -36 15 -47 -5z"/>
</g>
</svg>
