<?xml version="1.0" standalone="no"?>
<!DOCTYPE svg PUBLIC "-//W3C//DTD SVG 20010904//EN" "http://www.w3.org/TR/2001/REC-SVG-20010904/DTD/svg10.dtd">
<svg xmlns="http://www.w3.org/2000/svg" version="1.0" width="360.000000pt" height="360.000000pt" viewBox="0 0 360.000000 360.000000" preserveAspectRatio="xMidYMid meet">

<g transform="translate(0.000000,360.000000) scale(0.100000,-0.100000)" fill="#000000" stroke="none">
<path d="M2277 3353 c-4 -3 -7 -17 -7 -30 0 -13 -16 -63 -35 -111 -20 -48 -55 -134 -77 -192 -23 -57 -62 -141 -87 -185 -54 -97 -81 -151 -81 -163 0 -4 -19 -19 -42 -32 -52 -28 -79 -57 -120 -129 -26 -45 -32 -68 -36 -135 -4 -69 -9 -87 -37 -130 -18 -28 -48 -80 -67 -116 -34 -66 -143 -220 -341 -487 -119 -160 -140 -195 -135 -225 3 -21 97 -80 273 -173 93 -49 139 -75 192 -108 21 -13 48 -27 60 -31 32 -10 123 -84 123 -99 0 -6 -23 -39 -51 -72 -95 -113 -198 -251 -286 -385 -24 -36 -48 -70 -53 -77 -6 -7 -15 -24 -22 -38 -10 -23 -9 -29 14 -51 25 -25 29 -26 153 -25 144 1 165 5 165 31 0 31 -33 41 -134 38 -54 -2 -99 1 -105 7 -11 11 -4 23 107 193 35 53 69 102 76 107 7 6 21 23 32 40 10 16 48 60 83 98 36 37 75 83 88 102 22 33 23 36 8 65 -14 27 -124 110 -146 110 -5 0 -32 15 -61 34 -29 18 -87 50 -128 70 -98 50 -275 153 -289 170 -18 21 11 87 77 174 32 42 98 135 146 206 49 71 104 150 124 176 21 26 43 56 50 66 12 18 13 18 6 -1 -4 -11 -6 -47 -6 -80 1 -62 -12 -232 -29 -395 -5 -52 -11 -117 -14 -145 -2 -27 -7 -71 -11 -98 -8 -55 1 -69 82 -123 37 -25 62 -34 93 -34 58 0 53 20 -18 72 -33 24 -65 53 -71 64 -9 17 -9 58 0 185 18 242 18 243 25 389 3 74 10 165 16 202 5 37 9 85 9 107 0 33 3 39 16 34 10 -4 22 1 30 11 11 16 17 16 49 5 32 -12 43 -11 103 10 37 13 73 28 79 34 7 5 32 11 55 12 24 1 49 3 56 4 20 2 14 29 -10 42 -32 17 -32 16 -11 39 11 11 26 39 33 61 25 75 -27 177 -113 221 l-27 14 67 135 c103 204 213 465 213 502 0 35 -33 60 -53 40z m-185 -785 c31 -35 44 -89 27 -120 -23 -45 -73 -100 -110 -124 -36 -22 -107 -33 -121 -18 -3 3 10 40 29 82 19 42 42 93 50 112 9 19 27 52 40 72 26 43 42 42 85 -4z m-202 -103 c-11 -26 -23 -45 -26 -43 -3 3 5 27 17 52 28 61 36 53 9 -9z"/>
</g>
</svg>
