<?xml version="1.0" standalone="no"?>
<!DOCTYPE svg PUBLIC "-//W3C//DTD SVG 20010904//EN" "http://www.w3.org/TR/2001/REC-SVG-20010904/DTD/svg10.dtd">
<svg xmlns="http://www.w3.org/2000/svg" version="1.0" width="360.000000pt" height="360.000000pt" viewBox="0 0 360.000000 360.000000" preserveAspectRatio="xMidYMid meet">

<g transform="translate(0.000000,360.000000) scale(0.100000,-0.100000)" fill="#000000" stroke="none">
<path d="M2318 3193 c-23 -43 -60 -115 -80 -161 -37 -81 -58 -117 -205 -344 -40 -61 -73 -114 -73 -118 0 -4 -15 -17 -32 -30 -31 -20 -80 -84 -107 -137 -6 -13 -13 -42 -14 -66 -2 -32 -16 -64 -56 -127 -30 -47 -64 -96 -76 -110 -12 -14 -39 -54 -60 -90 -67 -113 -222 -342 -280 -415 -68 -85 -92 -133 -73 -151 7 -6 65 -37 128 -68 63 -31 129 -64 145 -73 17 -8 53 -27 80 -41 28 -14 73 -42 100 -62 28 -20 82 -55 121 -78 40 -23 74 -48 77 -56 4 -9 -18 -53 -48 -102 -30 -48 -55 -91 -55 -96 0 -5 -16 -37 -37 -71 -65 -111 -183 -347 -183 -367 0 -11 9 -29 19 -39 17 -17 30 -19 103 -15 46 3 106 0 133 -5 54 -10 70 -4 61 26 -11 33 -45 46 -128 45 -129 -2 -127 -7 -54 138 100 199 156 300 208 376 56 82 72 125 55 148 -10 13 -62 44 -206 122 -19 11 -44 27 -55 38 -12 10 -36 25 -55 33 -18 8 -50 25 -70 37 -20 13 -46 26 -59 30 -29 9 -160 84 -184 104 -10 8 -18 22 -18 29 0 8 26 52 58 96 33 45 103 150 156 232 54 83 121 184 149 225 28 41 67 98 86 127 27 40 37 49 45 39 23 -28 62 -46 100 -46 43 0 114 30 140 59 16 18 20 18 62 4 36 -12 47 -13 60 -2 13 11 11 16 -17 41 -29 27 -31 32 -24 71 19 107 21 138 9 166 -15 35 -73 81 -102 81 -12 0 -22 4 -22 8 0 5 24 44 53 88 80 120 151 242 183 314 29 69 77 146 119 194 29 33 28 31 15 57 -21 39 -47 22 -92 -58z m-222 -705 c32 -61 -17 -191 -88 -232 -56 -34 -128 -11 -128 41 0 13 18 51 40 83 22 33 43 68 47 77 13 37 46 63 79 63 27 0 36 -6 50 -32z"/>
</g>
</svg>
