<?xml version="1.0" standalone="no"?>
<!DOCTYPE svg PUBLIC "-//W3C//DTD SVG 20010904//EN" "http://www.w3.org/TR/2001/REC-SVG-20010904/DTD/svg10.dtd">
<svg xmlns="http://www.w3.org/2000/svg" version="1.0" width="360.000000pt" height="360.000000pt" viewBox="0 0 360.000000 360.000000" preserveAspectRatio="xMidYMid meet">

<g transform="translate(0.000000,360.000000) scale(0.100000,-0.100000)" fill="#000000" stroke="none">
<path d="M2666 3145 c-11 -8 -16 -15 -11 -15 4 0 -8 -16 -28 -37 -20 -20 -37 -40 -37 -45 0 -4 -19 -20 -42 -34 -22 -14 -51 -38 -63 -53 -13 -14 -49 -44 -81 -66 -65 -44 -102 -74 -151 -121 -19 -18 -49 -35 -70 -39 -50 -9 -114 -48 -156 -94 -81 -90 -113 -183 -96 -278 10 -51 10 -52 -41 -127 -28 -41 -55 -78 -61 -82 -6 -3 -45 -50 -87 -103 -43 -53 -108 -133 -146 -179 -81 -98 -218 -284 -243 -329 -27 -50 -8 -79 56 -88 28 -4 53 -10 56 -15 2 -4 26 -13 52 -20 27 -7 53 -16 58 -20 6 -3 30 -12 55 -19 25 -8 70 -22 100 -31 30 -10 87 -26 125 -35 95 -23 165 -45 165 -53 0 -4 -32 -41 -70 -82 -38 -41 -70 -77 -70 -80 0 -3 -21 -28 -46 -55 -40 -44 -156 -180 -192 -227 -11 -14 -10 -24 7 -64 25 -55 27 -98 6 -138 -29 -55 3 -86 89 -86 46 0 70 17 60 43 -6 18 -61 40 -76 31 -6 -4 -8 1 -5 12 17 56 17 76 1 128 l-18 56 25 27 c13 16 34 39 45 53 12 14 40 45 62 70 22 25 67 77 99 115 33 39 81 93 107 120 65 69 78 95 60 119 -8 11 -17 17 -20 13 -3 -3 -32 5 -63 19 -31 14 -108 38 -171 54 -158 40 -269 74 -348 106 -18 8 -44 14 -57 14 -14 0 -25 3 -25 6 0 6 104 155 130 188 20 24 105 132 112 141 4 6 24 30 46 55 33 39 66 80 193 245 30 39 82 85 97 85 5 0 15 7 22 15 7 8 29 15 49 15 20 1 54 8 76 16 22 9 51 18 63 21 13 3 34 16 47 29 21 20 27 22 59 12 60 -19 75 20 20 53 -25 15 -25 15 -6 40 10 13 22 36 25 50 4 15 23 47 43 70 20 24 58 87 84 139 48 97 64 125 113 199 15 23 33 53 39 66 6 14 18 27 27 30 9 3 25 22 36 42 10 21 25 45 33 55 7 9 12 29 10 45 -2 22 -9 29 -28 30 -14 2 -34 -4 -44 -12z m-142 -248 c-11 -12 -35 -51 -54 -87 -18 -36 -37 -66 -42 -68 -4 -2 -8 -10 -8 -18 0 -13 -58 -114 -65 -114 -2 0 -18 26 -35 57 l-32 57 38 34 c22 19 71 58 109 87 39 28 76 59 84 69 8 9 16 14 19 11 3 -3 -4 -15 -14 -28z m-245 -279 c36 -62 38 -57 -74 -141 -44 -33 -94 -72 -111 -86 -81 -67 -75 -64 -91 -48 -30 30 -16 126 29 198 47 77 119 127 185 128 29 1 36 -5 62 -51z m-45 -219 c-21 -24 -74 -54 -73 -42 0 10 82 71 88 67 2 -2 -4 -13 -15 -25z"/>
</g>
</svg>
