<?xml version="1.0" standalone="no"?>
<!DOCTYPE svg PUBLIC "-//W3C//DTD SVG 20010904//EN" "http://www.w3.org/TR/2001/REC-SVG-20010904/DTD/svg10.dtd">
<svg xmlns="http://www.w3.org/2000/svg" version="1.0" width="360.000000pt" height="360.000000pt" viewBox="0 0 360.000000 360.000000" preserveAspectRatio="xMidYMid meet">

<g transform="translate(0.000000,360.000000) scale(0.100000,-0.100000)" fill="#000000" stroke="none">
<path d="M2484 3042 c-6 -4 -17 -18 -26 -31 -40 -58 -239 -249 -353 -338 -98 -76 -281 -190 -290 -181 -3 3 -7 18 -11 34 -5 24 3 39 45 92 47 58 51 68 51 116 0 46 -13 106 -34 157 -5 11 -1 18 12 21 31 8 45 43 26 62 -20 21 -30 20 -53 -3 -20 -20 -20 -20 -51 9 -54 50 -142 64 -196 31 -128 -78 -61 -398 90 -426 40 -8 76 -52 76 -94 0 -24 -9 -35 -52 -64 -29 -19 -87 -45 -128 -57 -41 -13 -111 -38 -156 -56 -75 -31 -150 -54 -304 -94 -36 -9 -82 -15 -103 -12 -41 5 -67 -10 -67 -39 0 -10 9 -23 20 -29 20 -11 60 -4 215 39 129 36 442 145 529 185 32 15 60 25 62 23 10 -9 37 -171 58 -342 29 -233 31 -360 12 -535 -8 -74 -17 -171 -21 -215 -3 -44 -12 -107 -20 -140 -7 -33 -18 -96 -25 -140 -44 -304 -134 -649 -184 -704 -17 -19 -22 -66 -7 -75 4 -3 71 -7 147 -8 138 -3 139 -3 142 20 5 30 -47 52 -135 57 -35 1 -66 5 -68 7 -2 2 15 57 37 123 22 66 49 162 60 215 11 52 24 111 28 130 18 81 31 154 40 222 6 40 14 96 19 123 19 112 30 194 35 260 3 39 10 106 16 150 11 89 15 305 6 375 -3 25 -10 86 -15 135 -6 50 -25 154 -42 233 l-31 143 23 20 c13 12 44 33 69 47 76 45 171 112 265 188 91 73 327 314 333 339 4 16 -30 37 -44 27z m-750 -96 c53 -27 106 -128 106 -200 0 -35 -25 -82 -49 -96 -23 -12 -75 -3 -112 18 -75 42 -108 213 -53 273 20 23 70 25 108 5z"/>
</g>
</svg>
