<?xml version="1.0" standalone="no"?>
<!DOCTYPE svg PUBLIC "-//W3C//DTD SVG 20010904//EN" "http://www.w3.org/TR/2001/REC-SVG-20010904/DTD/svg10.dtd">
<svg xmlns="http://www.w3.org/2000/svg" version="1.0" width="360.000000pt" height="360.000000pt" viewBox="0 0 360.000000 360.000000" preserveAspectRatio="xMidYMid meet">

<g transform="translate(0.000000,360.000000) scale(0.100000,-0.100000)" fill="#000000" stroke="none">
<path d="M1530 3440 c-16 -10 -14 -14 47 -126 29 -52 69 -139 96 -209 9 -22 35 -83 57 -135 61 -138 73 -179 71 -236 -3 -84 17 -142 64 -188 40 -39 43 -47 68 -162 15 -66 31 -154 37 -195 16 -110 26 -408 19 -534 -4 -60 -10 -182 -14 -270 -8 -194 -24 -344 -74 -660 -41 -261 -74 -369 -118 -386 -28 -11 -29 -17 -2 -80 19 -43 20 -55 10 -88 -20 -70 -4 -83 94 -74 52 5 66 10 71 26 8 27 -16 48 -58 50 -35 2 -36 3 -41 49 -4 33 0 62 14 100 38 103 57 163 63 208 3 25 11 77 16 115 6 39 12 86 14 106 2 19 9 60 15 90 27 134 48 335 57 544 3 77 9 198 13 268 14 252 -3 485 -52 715 l-24 112 36 0 c22 0 50 10 71 24 43 29 84 106 77 144 -3 15 -10 54 -17 87 l-12 60 37 30 c24 21 34 36 30 47 -12 30 -37 30 -69 -1 l-31 -30 -22 34 c-15 23 -36 38 -64 46 -37 12 -45 10 -87 -12 -26 -13 -54 -30 -63 -37 -14 -11 -23 5 -79 135 -34 82 -76 177 -93 213 -29 65 -103 176 -132 200 -8 7 -12 16 -9 21 7 11 3 11 -16 -1z m482 -591 c29 -16 70 -115 75 -186 5 -58 4 -63 -22 -87 -15 -14 -36 -26 -46 -26 -25 0 -69 21 -69 33 0 5 -16 50 -36 100 -41 102 -39 122 18 157 38 23 51 24 80 9z"/>
</g>
</svg>
