<?xml version="1.0" standalone="no"?>
<!DOCTYPE svg PUBLIC "-//W3C//DTD SVG 20010904//EN" "http://www.w3.org/TR/2001/REC-SVG-20010904/DTD/svg10.dtd">
<svg xmlns="http://www.w3.org/2000/svg" version="1.0" width="360.000000pt" height="360.000000pt" viewBox="0 0 360.000000 360.000000" preserveAspectRatio="xMidYMid meet">

<g transform="translate(0.000000,360.000000) scale(0.100000,-0.100000)" fill="#000000" stroke="none">
<path d="M1197 2145 c-25 -52 -21 -121 13 -225 45 -136 62 -267 57 -445 -2 -82 -11 -197 -20 -255 -9 -58 -22 -139 -28 -180 -33 -225 -44 -282 -70 -345 -4 -11 -11 -39 -14 -62 -6 -38 -4 -44 15 -51 13 -5 50 -4 84 1 33 4 88 6 120 3 65 -7 86 3 86 39 0 28 -19 37 -90 42 -81 4 -121 13 -115 23 10 16 75 383 75 423 0 24 4 36 11 32 6 -5 8 -26 4 -60 -8 -63 0 -95 24 -95 29 0 38 20 43 88 2 35 9 67 15 70 6 4 13 17 17 28 4 12 32 41 63 65 54 42 121 98 173 143 75 64 152 126 158 126 4 0 23 15 42 33 19 18 53 44 75 58 22 14 65 48 95 76 84 76 97 83 130 71 27 -9 27 -11 14 -36 -28 -53 -5 -194 37 -230 14 -12 19 -29 19 -63 0 -72 34 -87 54 -24 5 17 15 20 65 21 74 0 164 42 186 85 24 45 19 118 -12 179 -26 49 -34 56 -93 81 -47 19 -90 29 -154 33 -49 3 -110 12 -135 20 -25 7 -64 18 -86 24 -207 56 -314 100 -475 196 -30 19 -104 53 -165 76 -60 23 -123 48 -138 56 -44 22 -62 17 -80 -21z m135 -44 c3 -8 189 -101 202 -101 3 0 38 -21 78 -47 111 -72 328 -162 393 -163 29 0 65 -15 55 -22 -3 -2 -36 -28 -75 -58 -93 -73 -122 -95 -170 -127 -38 -26 -130 -101 -185 -151 -14 -12 -43 -35 -65 -50 -48 -32 -225 -179 -243 -201 -11 -14 -12 -12 -8 14 19 115 28 278 22 427 -7 172 -9 191 -26 268 -18 80 -19 120 -5 165 7 24 10 46 7 49 -3 4 0 6 6 6 5 0 12 -4 14 -9z m1038 -394 c8 -4 28 -9 44 -11 33 -6 52 -27 65 -75 12 -41 4 -85 -19 -106 -10 -9 -44 -22 -76 -30 l-58 -13 -37 37 c-70 70 -78 188 -14 202 33 8 72 6 95 -4z"/>
</g>
</svg>
