<?xml version="1.0" standalone="no"?>
<!DOCTYPE svg PUBLIC "-//W3C//DTD SVG 20010904//EN" "http://www.w3.org/TR/2001/REC-SVG-20010904/DTD/svg10.dtd">
<svg xmlns="http://www.w3.org/2000/svg" version="1.0" width="360.000000pt" height="360.000000pt" viewBox="0 0 360.000000 360.000000" preserveAspectRatio="xMidYMid meet">

<g transform="translate(0.000000,360.000000) scale(0.100000,-0.100000)" fill="#000000" stroke="none">
<path d="M1527 2443 c-4 -3 -7 -19 -7 -34 0 -15 -4 -30 -9 -33 -12 -8 -21 -47 -31 -146 -11 -100 -26 -196 -40 -265 -6 -27 -14 -75 -20 -105 -15 -87 -28 -160 -40 -225 -7 -33 -16 -80 -20 -105 -4 -25 -24 -99 -45 -165 -43 -140 -49 -161 -75 -275 -17 -79 -50 -205 -66 -258 -4 -13 -1 -28 6 -37 15 -18 81 -20 98 -3 8 8 33 8 102 -2 82 -12 93 -11 108 3 12 13 14 23 6 44 l-9 28 -113 3 c-88 2 -112 6 -112 17 0 7 5 17 10 20 6 3 10 21 10 40 0 19 5 37 10 40 6 3 10 18 10 32 0 15 4 40 9 57 5 17 17 60 26 96 9 36 26 97 37 135 50 169 77 281 72 298 -3 11 1 49 9 85 9 37 20 94 26 127 31 192 34 206 45 195 14 -14 11 -331 -4 -425 -6 -38 -13 -104 -15 -145 -1 -41 -4 -107 -6 -146 -5 -90 7 -104 85 -104 30 0 58 5 61 10 3 6 14 10 25 10 10 0 21 7 24 16 5 13 9 14 21 4 8 -7 15 -21 15 -31 0 -26 57 -87 98 -104 42 -18 121 -19 153 -2 50 26 91 60 100 84 15 39 19 153 8 203 -6 25 -20 55 -31 67 -30 32 -4 29 41 -4 84 -64 99 -75 168 -123 40 -28 77 -50 83 -50 6 0 38 -18 70 -40 32 -22 61 -40 64 -40 9 0 93 -59 106 -75 7 -8 16 -15 20 -15 4 0 22 -12 39 -27 17 -16 48 -37 69 -49 20 -11 43 -34 51 -52 9 -19 22 -32 33 -32 30 0 66 29 73 58 3 15 17 43 31 63 49 72 39 139 -22 139 -13 0 -32 4 -42 9 -9 5 -66 32 -127 61 -60 28 -119 56 -130 62 -11 7 -42 23 -70 38 -68 36 -99 54 -105 61 -3 3 -21 12 -40 21 -19 9 -53 29 -74 43 -22 15 -69 42 -105 61 -36 19 -84 46 -106 60 -41 25 -47 28 -78 38 -9 3 -21 16 -26 29 -5 14 -16 27 -24 30 -8 3 -16 25 -20 54 -3 27 -12 66 -20 88 -24 63 -53 149 -103 300 -45 139 -46 141 -112 208 -42 43 -74 67 -89 67 -12 0 -25 5 -28 10 -7 11 -48 14 -58 3z m101 -98 c30 -16 63 -50 80 -81 17 -31 42 -107 42 -126 0 -9 22 -83 48 -165 55 -167 72 -245 72 -324 0 -30 5 -60 10 -65 7 -7 -2 -18 -27 -35 -27 -17 -49 -46 -79 -104 -38 -74 -44 -80 -75 -83 -31 -3 -48 -16 -49 -35 0 -4 14 -21 32 -37 17 -16 29 -33 24 -37 -4 -4 -10 -3 -14 3 -4 6 -28 11 -53 11 -25 0 -51 3 -57 7 -21 13 -15 91 26 371 9 60 -3 284 -23 450 -8 66 -15 138 -15 160 0 22 -4 47 -9 54 -12 19 4 51 25 51 8 0 27 -7 42 -15z m547 -851 c44 -24 87 -49 95 -54 17 -11 138 -81 228 -131 20 -12 49 -30 64 -40 14 -11 30 -19 35 -19 5 0 51 -22 103 -50 52 -27 101 -50 110 -50 8 0 22 -5 30 -10 13 -8 13 -13 0 -37 -27 -48 -63 -42 -149 22 -88 67 -187 135 -196 135 -4 0 -25 13 -48 29 -23 15 -64 40 -92 55 -27 15 -68 40 -90 56 -22 16 -65 46 -95 66 -136 91 -134 105 5 28z m-198 -41 c45 -58 59 -119 42 -194 -17 -76 -50 -109 -110 -109 -50 0 -104 38 -119 85 -9 27 -8 43 4 79 26 77 75 154 104 165 42 15 47 13 79 -26z"/>
</g>
</svg>
