<?xml version="1.0" standalone="no"?>
<!DOCTYPE svg PUBLIC "-//W3C//DTD SVG 20010904//EN" "http://www.w3.org/TR/2001/REC-SVG-20010904/DTD/svg10.dtd">
<svg xmlns="http://www.w3.org/2000/svg" version="1.0" width="360.000000pt" height="360.000000pt" viewBox="0 0 360.000000 360.000000" preserveAspectRatio="xMidYMid meet">

<g transform="translate(0.000000,360.000000) scale(0.100000,-0.100000)" fill="#000000" stroke="none">
<path d="M2045 3128 c-10 -28 -24 -102 -20 -108 2 -4 0 -60 -6 -126 -21 -258 -6 -506 37 -626 9 -24 24 -72 34 -108 9 -36 21 -73 25 -82 5 -14 2 -18 -13 -18 -21 0 -122 -32 -237 -75 -38 -15 -88 -32 -110 -40 -111 -36 -273 -111 -340 -158 -71 -49 -92 -103 -55 -142 12 -13 28 -21 36 -18 7 2 19 1 26 -3 7 -5 22 -10 33 -11 11 -2 31 -7 45 -12 33 -13 102 -25 119 -22 7 1 57 -13 110 -33 53 -19 141 -44 196 -56 187 -41 209 -58 133 -106 -57 -36 -188 -148 -327 -281 -110 -105 -113 -109 -101 -135 15 -32 43 -38 162 -37 76 1 88 3 93 20 3 10 1 28 -5 39 -10 20 -17 21 -86 15 -49 -4 -74 -2 -74 4 0 6 3 11 8 11 4 0 52 43 107 96 100 95 238 214 250 214 3 0 5 -55 4 -123 -2 -130 14 -256 34 -269 7 -5 44 -7 82 -6 63 3 70 5 73 25 4 25 -40 53 -83 53 -39 0 -45 32 -40 206 3 141 6 159 24 178 26 28 27 72 3 85 -20 10 -20 29 -7 306 9 203 14 235 37 235 11 0 30 -13 44 -29 29 -35 65 -45 154 -43 127 3 222 45 273 120 57 83 55 177 -3 237 -17 17 -36 32 -43 33 -22 2 -112 1 -146 -1 -30 -2 -36 2 -41 23 -6 26 -35 39 -52 22 -6 -6 -6 -22 0 -46 10 -34 9 -37 -16 -50 -52 -27 -130 -121 -143 -170 -9 -35 -16 -46 -31 -46 -10 0 -20 6 -22 13 -2 6 -22 68 -44 137 -22 69 -45 154 -51 190 -18 97 -20 311 -6 515 7 107 8 187 3 198 -10 20 -37 23 -43 5z m583 -857 c1 -1 2 -6 2 -12 0 -7 7 -17 16 -24 23 -16 10 -101 -20 -135 -48 -54 -83 -71 -173 -81 -116 -13 -153 -2 -153 47 0 36 34 98 67 124 87 68 143 90 213 85 25 -2 46 -4 48 -4z m-513 -408 c-13 -238 -15 -277 -15 -315 0 -35 -2 -37 -22 -28 -13 5 -57 17 -98 25 -41 9 -93 20 -115 25 -22 5 -60 17 -85 28 -25 10 -79 27 -120 36 -150 35 -234 57 -239 62 -10 10 46 53 119 91 74 39 280 123 300 123 6 0 18 5 28 10 30 18 210 76 246 79 5 1 6 -56 1 -136z"/>
</g>
</svg>
