<?xml version="1.0" standalone="no"?>
<!DOCTYPE svg PUBLIC "-//W3C//DTD SVG 20010904//EN" "http://www.w3.org/TR/2001/REC-SVG-20010904/DTD/svg10.dtd">
<svg xmlns="http://www.w3.org/2000/svg" version="1.0" width="360.000000pt" height="360.000000pt" viewBox="0 0 360.000000 360.000000" preserveAspectRatio="xMidYMid meet">

<g transform="translate(0.000000,360.000000) scale(0.100000,-0.100000)" fill="#000000" stroke="none">
<path d="M798 1897 c-7 -8 -23 -19 -36 -26 -14 -7 -22 -21 -22 -36 0 -35 70 -118 158 -190 40 -33 90 -74 112 -91 21 -17 59 -37 85 -45 25 -8 51 -19 57 -26 14 -18 2 -43 -20 -43 -11 0 -25 -6 -31 -14 -7 -8 -51 -31 -99 -51 -48 -20 -115 -50 -148 -66 -34 -16 -66 -29 -71 -29 -4 0 -32 -16 -61 -35 -57 -39 -65 -62 -32 -95 11 -11 20 -25 20 -31 0 -7 32 -10 93 -8 50 1 113 1 139 0 77 -3 105 21 73 63 -12 16 -31 20 -121 24 l-107 5 84 41 c166 81 289 136 318 142 22 4 71 56 71 75 0 17 -67 89 -83 89 -4 0 -27 9 -49 20 -23 11 -47 20 -54 20 -7 0 -14 4 -16 8 -1 4 -30 28 -63 54 -76 58 -171 155 -162 165 4 3 33 -5 65 -20 31 -14 68 -29 82 -33 14 -4 75 -31 135 -61 61 -30 146 -68 190 -85 44 -17 85 -34 90 -38 13 -9 101 -36 145 -45 19 -3 49 -13 65 -20 17 -8 42 -17 58 -20 25 -5 27 -8 27 -61 0 -60 18 -104 52 -128 22 -16 22 -16 4 -46 -14 -25 -15 -34 -5 -46 10 -13 15 -12 33 4 35 33 65 44 98 37 17 -4 59 -4 94 0 55 6 68 11 98 42 l34 35 78 -25 c44 -14 102 -28 129 -32 28 -4 75 -13 105 -20 101 -25 308 -64 365 -70 42 -3 199 -15 266 -19 31 -2 62 -7 68 -11 14 -8 41 12 41 31 0 7 -12 21 -26 30 -20 13 -55 18 -162 21 -125 3 -238 18 -332 43 -20 5 -70 14 -110 19 -93 13 -214 36 -227 44 -6 4 -28 9 -49 13 -22 3 -48 11 -59 17 -11 6 -21 9 -23 8 -1 -1 -15 6 -31 15 -17 10 -33 31 -40 53 -21 69 -103 126 -192 134 -38 3 -132 -13 -146 -25 -14 -11 -45 -7 -113 15 -25 8 -74 24 -110 36 -133 42 -179 60 -271 104 -109 53 -234 107 -246 107 -4 0 -48 21 -98 45 -101 51 -99 50 -117 32z m1169 -404 c33 -15 59 -40 51 -48 -2 -2 -41 9 -87 25 -46 17 -86 30 -90 31 -3 1 5 4 19 8 31 10 65 5 107 -16z m-137 -62 c14 -6 63 -20 109 -30 46 -11 86 -22 89 -25 10 -11 -28 -54 -52 -58 -69 -13 -204 39 -208 80 0 9 -2 24 -3 32 -2 24 5 30 23 21 9 -5 28 -14 42 -20z"/>
</g>
</svg>
