<?xml version="1.0" standalone="no"?>
<!DOCTYPE svg PUBLIC "-//W3C//DTD SVG 20010904//EN" "http://www.w3.org/TR/2001/REC-SVG-20010904/DTD/svg10.dtd">
<svg xmlns="http://www.w3.org/2000/svg" version="1.0" width="360.000000pt" height="360.000000pt" viewBox="0 0 360.000000 360.000000" preserveAspectRatio="xMidYMid meet">

<g transform="translate(0.000000,360.000000) scale(0.100000,-0.100000)" fill="#000000" stroke="none">
<path d="M1581 3571 c-9 -6 -12 -18 -7 -37 4 -16 11 -58 15 -94 7 -61 6 -67 -18 -90 -14 -14 -61 -75 -104 -135 -43 -61 -101 -139 -129 -174 -47 -57 -52 -68 -51 -111 1 -65 18 -114 64 -182 22 -32 39 -60 39 -62 0 -3 13 -24 29 -48 16 -24 57 -96 91 -161 35 -65 69 -121 78 -124 12 -5 13 -22 7 -102 -6 -90 -6 -318 1 -566 10 -366 15 -513 20 -539 2 -16 0 -88 -6 -160 -5 -72 -11 -233 -13 -357 -3 -214 -4 -227 -26 -263 -19 -29 -21 -39 -11 -51 13 -16 50 -21 50 -7 0 5 9 19 20 32 11 13 20 32 20 44 7 409 12 580 19 616 7 38 9 40 10 14 0 -17 8 -37 17 -44 13 -11 19 -10 36 8 18 17 20 26 11 59 -11 47 -2 107 21 132 27 30 79 51 190 79 98 24 220 76 244 104 17 21 -7 59 -43 71 -43 14 -139 60 -220 107 -71 41 -118 66 -199 109 -30 16 -46 31 -46 44 0 10 -9 21 -19 24 -25 6 -28 28 -30 275 -3 239 6 368 24 368 6 0 26 21 43 48 17 26 46 64 64 84 77 86 94 107 148 188 73 109 79 120 90 178 11 62 -7 147 -43 200 -15 20 -56 73 -93 117 -36 44 -82 113 -101 153 -31 67 -34 80 -32 158 2 94 -5 110 -47 100 l-27 -7 7 -116 c7 -109 19 -163 37 -163 4 0 11 -9 14 -20 8 -24 107 -160 158 -215 54 -58 78 -157 57 -235 -13 -49 -115 -192 -225 -315 -16 -18 -38 -44 -48 -57 -18 -23 -18 -23 -11 27 10 66 10 116 0 137 -6 13 -1 18 23 23 44 9 117 88 140 151 25 66 16 146 -27 230 -41 79 -83 107 -162 108 -52 1 -62 -3 -90 -29 -56 -54 -73 -106 -72 -230 1 -136 15 -170 80 -210 l47 -28 3 -86 2 -86 -33 60 c-42 76 -122 207 -165 271 -18 26 -37 64 -42 84 -19 70 -13 92 45 166 31 38 86 111 123 162 37 51 79 109 95 130 25 34 27 43 25 127 0 50 -5 98 -10 108 -9 18 -35 22 -57 8z m98 -529 c21 -11 46 -39 64 -70 60 -107 25 -233 -77 -272 -23 -9 -36 -7 -71 10 -52 25 -65 52 -72 155 -4 66 -1 89 12 116 40 79 79 96 144 61z m106 -1499 c175 -105 219 -128 268 -147 26 -10 47 -22 47 -27 0 -14 -49 -33 -185 -69 -66 -18 -132 -38 -146 -46 -32 -16 -89 -80 -89 -99 0 -8 -4 -15 -10 -15 -6 0 -10 48 -10 123 0 68 -3 180 -6 248 -7 121 -7 124 12 108 10 -10 64 -44 119 -76z"/>
</g>
</svg>
