<?xml version="1.0" standalone="no"?>
<!DOCTYPE svg PUBLIC "-//W3C//DTD SVG 20010904//EN" "http://www.w3.org/TR/2001/REC-SVG-20010904/DTD/svg10.dtd">
<svg xmlns="http://www.w3.org/2000/svg" version="1.0" width="360.000000pt" height="360.000000pt" viewBox="0 0 360.000000 360.000000" preserveAspectRatio="xMidYMid meet">

<g transform="translate(0.000000,360.000000) scale(0.100000,-0.100000)" fill="#000000" stroke="none">
<path d="M1771 2105 c-71 -39 -114 -127 -110 -225 4 -85 -3 -90 -122 -90 -54 0 -101 -4 -104 -10 -4 -6 -98 -10 -250 -10 -152 0 -246 4 -250 10 -3 6 -35 10 -71 10 -62 0 -65 -1 -62 -22 2 -16 11 -24 28 -26 14 -2 29 -8 35 -13 5 -5 31 -9 57 -9 26 0 48 -4 48 -10 0 -13 442 -14 455 -1 6 5 48 12 95 15 47 2 104 8 127 11 36 6 42 4 48 -14 9 -28 57 -78 80 -83 34 -7 22 -57 -23 -98 -76 -67 -128 -100 -160 -100 -18 0 -32 -4 -32 -10 0 -5 -6 -10 -13 -10 -7 0 -22 -8 -33 -18 -10 -10 -35 -29 -54 -42 -43 -31 -100 -86 -100 -98 0 -5 6 -15 14 -21 14 -12 64 7 86 34 18 22 24 19 68 -25 21 -22 42 -40 46 -40 10 0 144 -89 211 -141 33 -25 70 -51 82 -58 33 -17 47 -49 34 -75 -6 -11 -12 -37 -13 -56 -2 -23 -8 -34 -17 -32 -7 1 -24 -4 -38 -13 -19 -13 -27 -14 -39 -4 -17 14 -44 -4 -44 -31 0 -30 26 -43 77 -36 27 3 62 6 78 6 51 0 58 11 56 88 -1 39 3 73 9 77 36 22 -26 125 -95 156 -11 5 -40 25 -65 44 -25 19 -55 39 -67 44 -11 6 -24 15 -28 21 -3 6 -27 21 -53 35 -26 13 -58 33 -72 44 l-25 20 34 35 c31 32 40 36 87 36 29 0 56 -4 59 -10 4 -6 60 -10 135 -10 75 0 131 -4 135 -10 4 -6 59 -10 133 -10 122 1 128 2 156 26 23 21 27 30 19 43 -5 9 -73 48 -149 87 -196 99 -219 112 -239 134 -16 18 -15 20 22 44 38 25 83 92 83 122 0 18 -1 19 65 -16 34 -18 72 -30 94 -30 20 0 42 -5 48 -11 7 -7 45 -8 109 -5 55 4 146 9 204 12 57 3 109 9 115 14 5 4 70 8 144 9 73 1 137 4 142 7 5 3 9 19 9 35 l0 30 -122 -5 c-68 -3 -170 -11 -228 -16 -162 -17 -411 -23 -423 -11 -6 6 -22 11 -35 11 -13 0 -45 7 -71 16 l-47 15 0 49 c0 45 -36 139 -56 148 -5 2 -8 10 -8 18 0 8 -8 17 -17 21 -10 3 -30 15 -45 25 -31 21 -110 23 -147 3z m124 -73 c27 -20 55 -49 61 -62 39 -82 38 -74 18 -172 -9 -40 -79 -108 -113 -108 -43 0 -87 27 -111 67 -26 45 -44 133 -30 147 5 5 10 21 10 34 0 13 5 33 12 45 14 28 59 67 76 67 6 0 12 5 12 10 0 17 13 11 65 -28z m20 -462 c10 -15 150 -107 176 -115 36 -12 82 -40 87 -53 4 -13 -120 -7 -153 9 -11 5 -80 10 -154 11 -87 2 -136 7 -138 14 -2 6 20 29 49 52 29 22 64 52 78 65 27 28 45 33 55 17z"/>
</g>
</svg>
