<?xml version="1.0" standalone="no"?>
<!DOCTYPE svg PUBLIC "-//W3C//DTD SVG 20010904//EN" "http://www.w3.org/TR/2001/REC-SVG-20010904/DTD/svg10.dtd">
<svg xmlns="http://www.w3.org/2000/svg" version="1.0" width="360.000000pt" height="360.000000pt" viewBox="0 0 360.000000 360.000000" preserveAspectRatio="xMidYMid meet">

<g transform="translate(0.000000,360.000000) scale(0.100000,-0.100000)" fill="#000000" stroke="none">
<path d="M2550 2043 c-57 -29 -107 -78 -125 -120 -12 -29 -19 -33 -52 -34 -93 -3 -305 -19 -313 -24 -15 -9 -228 -24 -418 -30 -69 -2 -129 -8 -136 -14 -10 -8 -22 -8 -40 -1 -14 5 -63 12 -109 15 -45 3 -102 12 -127 20 -111 33 -209 49 -415 65 -153 12 -167 14 -265 35 -88 18 -157 41 -187 60 -19 13 -24 13 -38 -2 -13 -13 -15 -26 -10 -62 4 -25 8 -76 10 -114 1 -37 5 -70 8 -73 3 -4 18 -4 32 0 24 6 25 9 25 86 0 44 3 80 8 80 4 0 36 -9 72 -20 36 -11 103 -25 150 -30 47 -6 101 -13 120 -15 19 -3 75 -7 124 -9 49 -3 91 -8 94 -11 3 -3 20 -5 37 -5 18 0 77 -11 131 -25 55 -14 135 -30 179 -35 44 -6 110 -18 146 -27 l67 -16 -1 -36 c0 -20 8 -115 17 -211 9 -96 19 -251 22 -345 6 -164 5 -175 -26 -320 -37 -177 -44 -203 -78 -272 -21 -44 -23 -57 -14 -78 13 -28 10 -27 147 -25 102 1 140 11 159 43 8 13 8 20 -4 27 -8 5 -18 6 -23 3 -14 -9 -120 -14 -163 -8 l-41 6 17 72 c94 379 96 397 74 681 -10 127 -18 265 -19 306 -1 41 -7 91 -13 110 -22 64 -19 68 56 75 37 4 78 9 92 11 14 3 52 7 85 10 33 3 139 12 235 20 242 20 380 9 413 -33 25 -31 64 -50 112 -55 36 -4 40 -7 48 -42 16 -64 57 -58 57 9 0 28 4 32 44 43 24 6 57 22 72 35 23 19 46 26 103 31 41 3 174 31 295 62 124 31 252 57 291 59 59 4 71 7 79 25 16 35 -13 52 -97 58 -66 4 -76 2 -88 -15 -14 -20 -21 -20 -254 -12 -132 5 -247 9 -257 9 -9 1 -28 19 -42 41 -28 42 -26 41 -151 44 -55 1 -80 -4 -115 -22z m195 -61 c20 -13 33 -31 42 -62 7 -25 11 -50 9 -57 -6 -14 -303 -16 -312 -2 -12 21 9 70 42 95 72 55 152 65 219 26z m417 -73 c-4 -4 -43 -14 -87 -24 -44 -9 -93 -21 -109 -26 -16 -5 -49 -9 -73 -9 -41 0 -44 2 -37 23 3 12 7 23 8 23 0 1 26 6 56 11 61 10 253 12 242 2z m-482 -118 c-16 -11 -130 -13 -130 -2 0 3 33 7 73 9 50 2 68 0 57 -7z"/>
</g>
</svg>
