<?xml version="1.0" standalone="no"?>
<!DOCTYPE svg PUBLIC "-//W3C//DTD SVG 20010904//EN" "http://www.w3.org/TR/2001/REC-SVG-20010904/DTD/svg10.dtd">
<svg xmlns="http://www.w3.org/2000/svg" version="1.0" width="360.000000pt" height="360.000000pt" viewBox="0 0 360.000000 360.000000" preserveAspectRatio="xMidYMid meet">

<g transform="translate(0.000000,360.000000) scale(0.100000,-0.100000)" fill="#000000" stroke="none">
<path d="M2744 2157 c-66 -29 -83 -44 -104 -91 -18 -38 -62 -76 -90 -76 -8 0 -44 -8 -80 -19 -139 -41 -228 -61 -300 -67 -41 -3 -79 -9 -84 -11 -4 -3 -125 -7 -268 -8 -153 -2 -263 -7 -267 -13 -16 -24 -207 -8 -381 32 -36 8 -162 33 -280 56 -210 39 -263 51 -385 90 -43 13 -63 16 -72 8 -10 -8 -13 -6 -13 5 0 24 -27 42 -43 28 -10 -8 -13 -31 -10 -83 3 -47 -1 -90 -10 -120 -12 -37 -12 -51 -3 -64 10 -13 17 -14 33 -6 28 15 46 87 40 161 -3 33 -3 61 -1 61 3 0 14 -9 26 -20 32 -29 257 -94 398 -115 25 -3 59 -10 75 -15 17 -4 64 -13 105 -20 41 -7 120 -23 175 -36 57 -14 150 -27 217 -31 l118 -6 -1 -86 c0 -47 9 -171 21 -276 25 -211 23 -382 -5 -510 -9 -38 -27 -128 -40 -200 -14 -71 -35 -154 -46 -183 -38 -95 -11 -112 178 -112 65 0 73 2 92 26 11 15 18 30 15 35 -3 5 -51 9 -108 9 -56 0 -105 3 -108 6 -3 3 0 29 7 57 7 29 20 99 30 157 9 58 21 119 26 135 18 61 39 232 39 315 0 74 -11 199 -25 295 -3 17 -9 80 -14 141 -10 119 -18 162 -34 182 -7 9 -4 12 12 12 12 0 32 6 44 14 17 11 83 15 277 19 188 4 280 11 351 24 l96 19 -38 -51 c-22 -27 -43 -55 -48 -61 -5 -6 -27 -40 -50 -77 -72 -113 -40 -162 51 -80 23 21 53 51 67 67 53 58 96 77 185 81 96 5 116 11 116 35 0 27 -20 36 -72 35 -27 -1 -48 2 -48 8 0 5 32 8 75 5 56 -2 75 0 75 9 0 15 22 17 36 3 5 -5 30 -11 54 -12 39 -3 48 -8 69 -38 43 -62 61 -62 61 1 0 34 3 39 23 39 27 0 127 58 137 80 30 63 40 97 40 140 0 46 -3 51 -44 82 -42 33 -47 34 -142 36 -83 1 -107 -2 -150 -21z m241 -58 c16 -8 31 -22 33 -31 6 -31 -19 -100 -46 -125 -40 -37 -68 -45 -162 -44 -103 1 -126 16 -124 85 1 53 22 84 77 114 35 19 54 22 117 19 41 -2 88 -10 105 -18z m-345 -213 c0 -6 -5 -5 -12 2 -7 7 -21 12 -32 12 -20 0 -20 0 0 15 17 12 20 12 32 -2 6 -9 12 -21 12 -27z m-140 27 c-20 -8 -30 -23 -30 -48 -1 -13 -18 -31 -47 -50 -26 -16 -62 -42 -80 -58 -43 -38 -42 -27 5 36 20 28 46 65 57 81 20 29 49 44 90 44 14 0 16 -1 5 -5z"/>
</g>
</svg>
