<?xml version="1.0" standalone="no"?>
<!DOCTYPE svg PUBLIC "-//W3C//DTD SVG 20010904//EN" "http://www.w3.org/TR/2001/REC-SVG-20010904/DTD/svg10.dtd">
<svg xmlns="http://www.w3.org/2000/svg" version="1.0" width="360.000000pt" height="360.000000pt" viewBox="0 0 360.000000 360.000000" preserveAspectRatio="xMidYMid meet">

<g transform="translate(0.000000,360.000000) scale(0.100000,-0.100000)" fill="#000000" stroke="none">
<path d="M1790 2009 c-41 -3 -86 -11 -100 -16 -31 -13 -80 -58 -80 -74 0 -18 -87 -158 -130 -210 -21 -25 -84 -118 -140 -205 -56 -87 -113 -172 -126 -189 -69 -85 -143 -187 -174 -240 -52 -87 -110 -169 -126 -178 -17 -10 -18 -61 -1 -75 11 -9 118 -28 297 -52 102 -14 110 -13 110 14 0 33 -17 44 -80 50 -110 10 -235 29 -244 37 -6 5 -3 16 7 27 9 10 17 22 17 25 0 15 106 177 184 282 46 60 115 162 155 225 40 63 84 125 98 136 14 12 49 58 77 101 89 139 140 213 148 213 4 0 23 -24 42 -52 51 -79 114 -168 151 -213 17 -22 38 -51 45 -65 7 -14 27 -47 45 -75 17 -27 59 -93 92 -146 l61 -96 -35 -44 c-19 -24 -39 -54 -44 -67 -16 -42 1 -101 48 -161 24 -31 67 -91 96 -134 33 -49 61 -80 75 -84 13 -3 81 -1 151 5 77 7 140 8 159 3 17 -5 33 -7 36 -3 12 12 5 40 -14 57 -18 16 -35 18 -113 16 -51 -1 -111 -4 -134 -6 -40 -3 -44 -1 -85 47 -24 28 -49 60 -57 72 -8 12 -27 35 -43 52 -37 40 -47 98 -24 142 17 32 36 43 36 19 0 -13 77 -111 165 -210 71 -79 89 -84 283 -82 165 2 188 7 176 40 -9 22 -100 36 -215 34 -77 -1 -123 2 -139 11 -40 20 -223 220 -202 220 5 0 15 -6 21 -14 29 -35 172 -23 209 18 39 43 55 109 48 198 -4 45 -14 97 -23 115 -19 41 -80 93 -109 93 -17 0 -30 17 -61 83 -74 153 -238 303 -368 336 -27 7 -59 16 -70 20 -11 3 -54 4 -95 0z m187 -101 c46 -16 75 -38 138 -102 88 -88 135 -152 153 -205 12 -34 11 -35 -47 -96 -65 -68 -77 -100 -67 -181 6 -56 0 -51 -44 31 -18 33 -45 78 -59 100 -15 22 -43 67 -61 100 -19 33 -59 95 -90 137 -100 139 -165 232 -168 240 -5 11 76 14 135 5 29 -4 79 -17 110 -29z m441 -435 c28 -40 33 -63 34 -144 0 -55 -3 -75 -17 -87 -13 -13 -19 -14 -22 -4 -3 6 -9 12 -15 12 -7 0 -7 -4 0 -13 15 -18 2 -33 -34 -40 -38 -7 -82 18 -106 60 -17 29 -16 29 23 78 21 28 39 55 39 61 0 16 58 104 69 104 5 0 18 -12 29 -27z m-150 -49 c-34 -48 -48 -61 -48 -46 0 15 59 92 71 92 5 0 -5 -21 -23 -46z"/>
</g>
</svg>
