<?xml version="1.0" standalone="no"?>
<!DOCTYPE svg PUBLIC "-//W3C//DTD SVG 20010904//EN" "http://www.w3.org/TR/2001/REC-SVG-20010904/DTD/svg10.dtd">
<svg xmlns="http://www.w3.org/2000/svg" version="1.0" width="360.000000pt" height="360.000000pt" viewBox="0 0 360.000000 360.000000" preserveAspectRatio="xMidYMid meet">

<g transform="translate(0.000000,360.000000) scale(0.100000,-0.100000)" fill="#000000" stroke="none">
<path d="M917 2199 c-26 -17 -50 -35 -53 -40 -3 -6 3 -49 14 -97 38 -162 51 -227 67 -342 15 -109 44 -271 66 -370 17 -81 19 -94 30 -175 10 -79 10 -82 -25 -175 -49 -134 -104 -271 -120 -300 -8 -14 -22 -54 -31 -90 -10 -36 -24 -74 -31 -86 -11 -18 -10 -26 7 -53 17 -28 23 -31 76 -33 59 -2 115 -2 144 1 23 2 59 39 53 56 -8 20 -36 27 -97 25 -72 -2 -89 -2 -93 2 -10 11 33 152 86 278 116 275 126 318 94 435 -27 101 -64 276 -75 354 -10 75 -32 189 -44 226 -13 42 38 -60 66 -133 17 -42 34 -86 39 -97 6 -11 19 -47 30 -80 10 -33 33 -98 51 -145 51 -140 53 -158 29 -247 -22 -79 -88 -223 -102 -223 -13 0 -9 -57 5 -67 20 -17 175 7 188 29 13 21 -10 47 -46 54 -19 3 -35 11 -35 17 0 10 38 119 60 172 32 78 36 148 12 204 -37 84 -92 218 -92 225 0 3 -8 25 -19 49 -10 23 -24 58 -31 77 -7 19 -37 84 -66 143 -30 60 -53 111 -52 115 5 16 -46 149 -64 168 -23 25 -15 52 19 65 28 10 79 -8 129 -46 18 -14 37 -25 42 -25 5 0 17 -9 27 -20 10 -11 22 -20 27 -20 5 0 53 -27 107 -60 54 -32 145 -81 202 -108 172 -82 180 -84 390 -146 31 -9 71 -16 90 -16 19 0 78 -5 132 -12 l97 -12 -1 -35 c0 -20 -4 -72 -9 -116 -9 -71 -15 -135 -35 -375 -9 -103 -7 -207 6 -330 15 -136 15 -135 -5 -225 -12 -59 -13 -72 -1 -84 21 -21 40 -7 54 40 l13 44 30 -37 c29 -37 58 -42 58 -9 0 9 -13 43 -29 77 -16 34 -32 83 -36 110 -3 28 -8 61 -10 74 -16 116 -22 183 -19 230 1 30 3 78 4 105 l2 50 13 -60 c8 -33 17 -89 20 -125 4 -36 13 -88 21 -116 8 -29 13 -81 12 -119 -3 -73 11 -96 48 -80 11 4 32 8 48 9 45 2 56 29 25 63 -46 50 -64 105 -95 283 -22 129 -32 205 -39 315 -4 55 -12 103 -17 106 -9 6 -5 82 8 167 4 29 8 32 38 32 27 0 36 -5 45 -27 17 -41 41 -67 91 -98 35 -22 57 -28 112 -29 55 -2 72 -7 92 -25 30 -28 49 -19 44 19 -4 25 1 31 38 49 26 14 55 40 74 69 30 44 31 52 26 109 -3 43 -13 74 -30 100 -46 69 -46 69 -129 76 -110 8 -238 -26 -280 -74 -33 -40 -60 -96 -52 -109 3 -5 -9 -3 -28 5 -18 7 -69 16 -113 19 -214 15 -281 26 -409 67 -124 40 -377 156 -414 191 -10 9 -45 28 -77 43 -32 15 -93 51 -135 81 -88 62 -152 93 -190 94 -14 0 -47 -14 -72 -31z m1747 -358 c3 -5 21 -12 41 -15 46 -9 65 -39 65 -101 0 -74 -26 -100 -123 -121 -78 -16 -128 -9 -165 25 -47 42 -63 80 -47 117 14 34 59 74 84 75 9 0 32 6 51 13 42 16 87 19 94 7z"/>
</g>
</svg>
