<?xml version="1.0" standalone="no"?>
<!DOCTYPE svg PUBLIC "-//W3C//DTD SVG 20010904//EN" "http://www.w3.org/TR/2001/REC-SVG-20010904/DTD/svg10.dtd">
<svg xmlns="http://www.w3.org/2000/svg" version="1.0" width="360.000000pt" height="360.000000pt" viewBox="0 0 360.000000 360.000000" preserveAspectRatio="xMidYMid meet">

<g transform="translate(0.000000,360.000000) scale(0.100000,-0.100000)" fill="#000000" stroke="none">
<path d="M901 2934 c0 -11 3 -14 6 -6 3 7 2 16 -1 19 -3 4 -6 -2 -5 -13z"/>
<path d="M1015 2238 l-24 -19 7 -147 c10 -216 7 -356 -12 -547 -27 -275 -44 -409 -54 -436 -6 -14 -13 -52 -17 -85 -9 -75 -37 -218 -82 -413 -44 -192 -45 -190 79 -171 102 16 118 23 118 57 l0 26 -76 -6 -76 -7 7 48 c4 26 10 54 15 62 4 8 21 94 39 190 17 96 38 211 47 255 18 95 32 195 39 285 3 36 10 110 16 165 11 102 13 126 19 193 l3 37 7 -40 c23 -121 46 -267 55 -355 13 -122 28 -217 40 -246 7 -17 16 -50 20 -73 4 -22 14 -45 23 -50 9 -5 49 -7 89 -4 49 4 77 2 87 -6 22 -18 52 29 37 57 -15 28 -30 31 -102 22 -44 -5 -67 -4 -75 4 -15 15 -43 153 -60 301 -13 112 -20 161 -57 375 -24 139 -39 269 -32 279 3 6 -1 27 -10 47 -8 20 -15 61 -15 90 0 49 2 54 23 54 12 0 54 -21 93 -48 216 -143 356 -211 469 -227 6 -1 17 -5 25 -8 72 -29 202 -49 374 -57 104 -4 194 -6 200 -5 6 2 44 6 85 10 l74 6 -6 -38 c-7 -45 -14 -172 -23 -408 -3 -93 -7 -172 -10 -176 -2 -4 -6 -141 -10 -306 -3 -164 -6 -309 -7 -323 -2 -22 2 -25 33 -24 19 0 39 -6 43 -13 11 -18 44 -16 56 4 5 10 5 26 0 40 -6 15 -5 23 2 23 21 0 -19 116 -46 137 -17 12 -18 33 -12 314 3 194 9 305 16 312 8 8 11 -1 11 -30 0 -35 16 -150 48 -350 5 -29 6 -74 2 -100 -10 -64 10 -91 44 -58 8 8 22 12 30 9 26 -10 29 20 7 67 -11 24 -27 89 -35 144 -38 257 -46 318 -57 435 -7 69 -13 171 -13 226 -1 65 -6 107 -14 116 -10 13 -8 18 12 31 23 16 26 15 60 -18 43 -40 78 -49 155 -40 47 5 70 15 111 46 47 35 55 38 96 32 50 -7 58 8 26 47 -18 22 -18 25 1 76 17 47 18 59 8 96 -14 49 -32 73 -80 107 -53 37 -120 26 -240 -39 -75 -42 -114 -100 -126 -192 -3 -25 -13 -52 -22 -60 -41 -34 -523 -48 -628 -18 -22 6 -60 16 -85 21 -135 30 -181 44 -249 78 -120 59 -202 108 -287 171 -90 66 -164 83 -209 48z m1831 -79 c14 -15 19 -36 19 -73 -1 -46 -6 -60 -40 -104 -68 -88 -175 -120 -224 -68 -44 47 -44 132 0 172 12 10 49 35 83 56 74 44 132 50 162 17z"/>
</g>
</svg>
