<?xml version="1.0" standalone="no"?>
<!DOCTYPE svg PUBLIC "-//W3C//DTD SVG 20010904//EN" "http://www.w3.org/TR/2001/REC-SVG-20010904/DTD/svg10.dtd">
<svg xmlns="http://www.w3.org/2000/svg" version="1.0" width="360.000000pt" height="360.000000pt" viewBox="0 0 360.000000 360.000000" preserveAspectRatio="xMidYMid meet">

<g transform="translate(0.000000,360.000000) scale(0.100000,-0.100000)" fill="#000000" stroke="none">
<path d="M1364 2533 c-5 -1 -28 -7 -51 -13 -61 -15 -115 -83 -118 -148 -3 -50 -33 -293 -66 -532 -47 -338 -70 -480 -89 -565 -11 -49 -29 -142 -40 -205 -11 -63 -24 -131 -30 -150 -16 -52 -48 -225 -55 -290 -1 -14 -5 -41 -9 -62 -7 -32 -5 -38 18 -53 21 -14 31 -15 54 -6 15 6 62 15 106 20 86 10 119 29 97 55 -9 11 -33 14 -102 12 l-89 -2 0 40 c0 34 73 419 124 661 15 68 53 314 82 525 7 58 14 130 14 160 0 84 12 190 20 185 10 -6 20 -95 25 -225 2 -58 6 -116 9 -129 6 -25 8 -44 26 -231 6 -58 15 -134 20 -170 10 -63 32 -280 31 -310 0 -59 29 -80 107 -79 52 1 114 19 119 36 6 18 -60 52 -105 54 -24 2 -46 7 -49 12 -3 4 -11 63 -19 130 -8 67 -16 136 -19 152 -3 17 -7 68 -10 115 -3 47 -7 99 -10 115 -17 106 -35 283 -35 355 0 47 -4 100 -10 119 -5 18 -12 63 -15 99 -3 36 -10 71 -16 78 -9 11 -7 44 6 109 3 11 20 31 40 44 32 22 41 23 118 16 69 -6 91 -12 135 -40 144 -90 316 -303 348 -430 4 -17 23 -68 41 -115 19 -46 41 -112 49 -147 l14 -63 -37 -112 c-31 -94 -45 -121 -80 -157 -23 -25 -47 -57 -53 -73 -5 -15 -15 -41 -21 -57 -6 -17 -23 -34 -40 -42 -26 -10 -30 -17 -27 -43 2 -25 8 -32 31 -34 15 -2 27 -7 27 -11 0 -11 -96 -241 -119 -286 -25 -47 -26 -63 -5 -93 16 -24 19 -24 94 -6 14 4 165 6 337 6 327 0 349 3 320 42 -26 36 -160 44 -494 31 -141 -5 -173 -4 -173 7 0 11 57 153 67 167 2 3 10 -5 19 -18 9 -12 33 -33 55 -46 47 -30 142 -35 191 -9 34 17 67 52 68 69 0 7 43 11 120 10 115 0 120 1 120 21 0 30 -58 54 -130 54 -32 0 -62 5 -66 11 -4 6 -7 48 -8 93 -2 100 -28 162 -85 199 l-38 26 5 126 c5 142 -6 214 -49 315 -15 36 -41 101 -58 145 -49 125 -112 233 -182 310 -65 71 -199 180 -250 202 -25 12 -185 32 -205 26z m704 -1190 c71 -46 90 -86 86 -178 -7 -124 -50 -185 -133 -185 -52 0 -93 36 -112 99 -12 39 -11 46 19 109 17 37 38 87 47 112 24 64 44 74 93 43z"/>
</g>
</svg>
