<?xml version="1.0" standalone="no"?>
<!DOCTYPE svg PUBLIC "-//W3C//DTD SVG 20010904//EN" "http://www.w3.org/TR/2001/REC-SVG-20010904/DTD/svg10.dtd">
<svg xmlns="http://www.w3.org/2000/svg" version="1.0" width="360.000000pt" height="360.000000pt" viewBox="0 0 360.000000 360.000000" preserveAspectRatio="xMidYMid meet">

<g transform="translate(0.000000,360.000000) scale(0.100000,-0.100000)" fill="#000000" stroke="none">
<path d="M3315 2235 c-192 -30 -199 -32 -345 -83 -83 -29 -120 -37 -177 -37 -68 0 -72 1 -67 21 5 20 -17 54 -36 54 -28 0 -40 -15 -40 -51 0 -35 -3 -39 -42 -57 -24 -11 -55 -31 -70 -44 -33 -32 -71 -105 -64 -125 5 -11 1 -13 -17 -8 -12 4 -30 9 -39 11 -22 6 -181 -48 -287 -97 -186 -87 -314 -188 -438 -346 -35 -46 -68 -83 -74 -83 -5 0 -9 -9 -9 -20 0 -13 -7 -20 -19 -20 -10 0 -24 -6 -30 -14 -7 -8 -23 -17 -36 -20 -14 -4 -78 -32 -143 -62 -64 -31 -144 -69 -177 -84 -191 -89 -589 -284 -745 -366 -152 -79 -244 -117 -287 -116 -33 1 -61 -27 -48 -48 3 -6 -1 -10 -10 -10 -9 0 -22 -13 -28 -30 -6 -16 -15 -30 -19 -30 -4 0 -10 -16 -14 -35 -7 -37 7 -65 31 -65 23 0 70 56 84 98 11 33 21 43 55 57 22 9 118 55 211 102 391 198 478 241 620 309 83 38 188 87 235 108 47 20 110 49 140 63 30 14 69 31 85 38 17 7 64 29 105 48 88 41 148 49 345 47 129 -1 169 -6 137 -17 -50 -18 -82 -85 -51 -106 13 -8 25 -4 55 21 21 18 42 32 46 32 4 0 27 14 51 30 38 26 54 30 110 30 85 0 125 -9 132 -29 2 -9 1 -45 -4 -81 -12 -96 -98 -509 -116 -559 -13 -39 -13 -46 1 -77 9 -18 25 -36 37 -40 11 -4 73 -8 136 -9 64 -1 125 -4 136 -6 14 -3 21 2 23 17 6 42 -68 75 -153 69 -65 -5 -102 3 -109 21 -3 8 1 41 9 72 8 31 23 109 35 172 12 63 34 168 51 234 30 120 37 213 19 246 -11 20 -59 40 -99 40 -21 0 -16 5 25 24 62 29 84 65 57 96 -7 9 -29 72 -48 140 -20 68 -42 135 -50 150 -13 25 -12 27 19 38 48 18 70 15 96 -13 38 -41 124 -68 198 -62 71 5 157 50 196 102 35 46 42 107 18 149 l-21 35 23 14 c23 15 189 65 281 85 92 20 233 35 284 30 47 -5 51 -3 51 17 0 45 -72 55 -225 30z m-476 -214 c35 -33 39 -56 14 -91 -47 -67 -106 -95 -188 -88 -109 9 -148 75 -81 138 48 46 102 68 167 69 50 1 61 -3 88 -28z m-487 -313 c16 -62 35 -134 43 -160 16 -56 15 -57 -97 -118 l-78 -42 -92 9 c-51 4 -166 8 -254 8 l-161 0 81 89 c92 102 182 171 309 241 84 45 208 96 216 89 2 -2 17 -54 33 -116z"/>
</g>
</svg>
