<?xml version="1.0" standalone="no"?>
<!DOCTYPE svg PUBLIC "-//W3C//DTD SVG 20010904//EN" "http://www.w3.org/TR/2001/REC-SVG-20010904/DTD/svg10.dtd">
<svg xmlns="http://www.w3.org/2000/svg" version="1.0" width="360.000000pt" height="360.000000pt" viewBox="0 0 360.000000 360.000000" preserveAspectRatio="xMidYMid meet">

<g transform="translate(0.000000,360.000000) scale(0.100000,-0.100000)" fill="#000000" stroke="none">
<path d="M2496 2805 c-3 -8 -6 -84 -6 -168 -1 -143 1 -161 35 -297 40 -160 101 -354 146 -463 27 -65 28 -72 12 -81 -9 -5 -44 -34 -77 -65 -65 -60 -240 -210 -293 -251 -17 -14 -64 -53 -105 -86 -62 -52 -187 -124 -215 -124 -4 0 -26 -9 -48 -20 -22 -11 -83 -36 -135 -56 -52 -20 -117 -46 -145 -59 -27 -12 -66 -28 -85 -35 -19 -7 -42 -19 -50 -26 -25 -21 -90 -44 -209 -75 -63 -17 -117 -32 -121 -34 -3 -2 -29 -7 -56 -10 -27 -3 -62 -10 -79 -15 -16 -5 -66 -11 -110 -15 -142 -11 -193 -22 -331 -69 -40 -14 -75 -22 -78 -19 -3 4 -15 -2 -27 -12 -14 -14 -18 -26 -14 -43 3 -13 8 -47 11 -76 3 -28 7 -57 10 -65 2 -7 7 -41 10 -75 7 -71 23 -90 69 -79 16 4 46 8 65 9 63 2 68 4 74 27 9 33 -19 49 -84 46 l-54 -3 -8 35 c-5 19 -11 66 -14 106 l-6 71 54 15 c101 29 173 45 258 56 173 24 396 70 525 108 28 8 109 43 180 78 194 94 241 115 277 122 18 3 50 14 70 25 33 16 82 35 211 84 21 8 43 12 48 8 6 -3 97 -5 203 -5 108 1 205 -3 220 -9 23 -8 26 -15 26 -57 0 -27 -7 -102 -15 -168 -8 -66 -15 -155 -15 -197 0 -67 -3 -79 -20 -88 -25 -13 -26 -29 -2 -37 9 -4 24 -14 32 -23 14 -15 41 -17 94 -8 15 3 19 -4 20 -44 2 -26 4 -49 7 -50 38 -23 63 -30 124 -33 80 -4 99 5 93 47 -3 21 -8 23 -71 23 -46 0 -70 4 -76 14 -11 18 -23 321 -17 441 6 119 -7 195 -41 226 -13 12 -31 20 -39 17 -13 -5 -14 8 -9 88 6 92 26 210 47 277 7 23 6 37 -1 46 -17 20 -4 42 50 85 48 38 51 39 109 34 93 -9 177 37 231 124 26 42 30 155 6 199 -29 56 -79 91 -141 98 -30 4 -60 4 -66 1 -23 -14 -40 17 -40 72 0 58 -16 77 -46 52 -21 -17 -13 -82 15 -119 l20 -27 -67 -71 c-71 -74 -115 -163 -93 -185 6 -6 11 -23 11 -38 0 -14 9 -38 21 -53 22 -28 20 -41 -10 -49 -16 -4 -23 6 -39 52 -11 31 -37 101 -56 156 -53 147 -119 410 -120 480 -1 81 6 184 14 216 4 14 3 33 -2 42 -11 21 -54 22 -62 2z m540 -610 c51 -21 73 -52 74 -103 0 -55 -19 -91 -72 -137 -43 -37 -44 -37 -116 -32 -79 4 -91 11 -108 60 -9 25 -8 40 4 72 16 41 34 58 105 108 22 15 36 27 31 27 -14 0 19 20 34 20 7 0 29 -7 48 -15z m-338 -502 c-5 -27 -13 -68 -19 -93 -6 -25 -12 -81 -15 -125 -3 -44 -7 -94 -10 -112 l-5 -32 -112 6 c-131 6 -111 7 -213 -5 -45 -5 -88 -13 -95 -17 -18 -10 118 115 146 135 31 22 146 123 239 212 45 43 84 78 87 78 3 0 2 -21 -3 -47z m42 -740 c0 -123 -4 -223 -8 -223 -5 0 -18 9 -31 21 -20 19 -22 29 -20 107 1 48 8 139 15 202 8 63 13 122 13 130 -3 37 4 43 16 15 11 -22 14 -86 15 -252z"/>
</g>
</svg>
