<?xml version="1.0" standalone="no"?>
<!DOCTYPE svg PUBLIC "-//W3C//DTD SVG 20010904//EN" "http://www.w3.org/TR/2001/REC-SVG-20010904/DTD/svg10.dtd">
<svg xmlns="http://www.w3.org/2000/svg" version="1.0" width="360.000000pt" height="360.000000pt" viewBox="0 0 360.000000 360.000000" preserveAspectRatio="xMidYMid meet">

<g transform="translate(0.000000,360.000000) scale(0.100000,-0.100000)" fill="#000000" stroke="none">
<path d="M2239 2440 c-3 -19 -5 -25 -19 -50 -19 -34 -18 -118 2 -160 23 -50 83 -244 98 -318 7 -35 20 -68 29 -75 9 -7 18 -23 18 -37 2 -17 0 -21 -6 -11 -7 11 -18 7 -54 -18 -25 -17 -51 -37 -59 -44 -7 -7 -49 -35 -93 -62 -44 -27 -94 -59 -111 -72 -17 -13 -35 -23 -40 -23 -6 0 -28 -16 -50 -36 -21 -20 -54 -48 -72 -61 -34 -27 -55 -80 -39 -100 6 -9 1 -16 -19 -23 -40 -16 -164 -79 -194 -100 -14 -9 -56 -27 -95 -40 -38 -13 -74 -27 -80 -31 -5 -4 -30 -12 -55 -19 -25 -6 -66 -22 -93 -36 -26 -13 -77 -32 -115 -44 -37 -11 -76 -24 -87 -29 -28 -13 -160 -60 -220 -78 -27 -9 -85 -26 -128 -39 -43 -13 -97 -27 -120 -30 -23 -4 -52 -13 -64 -20 -12 -8 -37 -16 -55 -18 -18 -2 -46 -9 -63 -16 -54 -21 -122 -30 -155 -20 -27 8 -35 6 -56 -15 -27 -28 -30 -42 -10 -70 20 -30 31 -84 27 -147 -1 -31 2 -59 7 -62 22 -14 183 3 189 19 7 22 -24 47 -63 52 -21 2 -42 7 -46 11 -3 4 -8 34 -10 66 l-3 59 105 29 c58 15 146 41 195 57 50 16 126 39 170 51 44 12 94 27 110 33 17 7 36 12 42 13 14 2 94 31 138 49 38 16 95 34 125 40 30 6 172 64 185 76 5 5 18 9 30 9 11 0 30 7 42 15 11 8 42 22 69 31 27 9 123 53 214 98 l165 81 217 3 217 3 4 27 4 27 2 -27 c1 -30 9 -34 98 -43 42 -5 63 -12 67 -22 5 -12 16 -14 46 -10 28 4 40 1 44 -10 11 -28 6 -110 -9 -153 -8 -23 -33 -117 -55 -208 -22 -92 -47 -190 -55 -218 -8 -28 -15 -58 -15 -66 0 -44 114 -71 258 -61 93 6 93 6 90 32 -4 37 -46 55 -95 42 -34 -10 -77 -8 -140 5 -28 5 -29 31 -7 124 9 36 17 74 19 85 7 37 45 179 65 240 11 33 23 95 28 138 l8 78 -30 30 c-16 16 -40 29 -53 29 -13 0 -23 2 -23 4 0 2 7 40 15 83 8 43 15 98 15 123 0 25 11 90 24 145 29 117 35 181 18 178 -24 -5 2 24 63 68 l63 46 33 -26 c87 -68 337 -12 426 96 31 38 38 53 36 87 -2 53 -42 130 -90 172 -62 55 -151 62 -220 17 -22 -15 -23 -14 -23 17 0 67 -48 97 -72 44 -10 -22 -9 -32 8 -63 l20 -37 -23 -18 c-38 -29 -100 -118 -110 -161 -5 -22 -6 -52 -2 -68 7 -25 4 -29 -39 -48 -26 -12 -50 -23 -53 -25 -11 -6 -130 118 -172 181 -23 34 -67 90 -99 123 l-56 61 -4 -45 c-2 -34 2 -50 17 -69 11 -13 43 -54 70 -90 28 -37 62 -82 78 -100 15 -18 27 -37 27 -41 0 -5 16 -20 36 -33 34 -24 35 -25 14 -33 -17 -6 -26 -3 -40 14 l-18 22 -57 -28 c-31 -15 -69 -28 -83 -29 -25 -2 -27 2 -53 103 -14 58 -38 139 -53 181 -41 117 -32 148 26 92 l28 -27 0 51 c0 44 -4 53 -35 81 -33 31 -84 43 -86 22z m909 -136 c48 -23 98 -106 85 -141 -28 -82 -199 -157 -293 -130 -57 16 -85 53 -76 100 14 75 150 187 227 187 14 0 40 -7 57 -16z m-781 -376 c-3 -7 -5 -2 -5 12 0 14 2 19 5 13 2 -7 2 -19 0 -25z m133 -33 c0 -2 -10 -10 -22 -16 -21 -11 -22 -11 -9 4 13 16 31 23 31 12z m136 -10 c-14 -37 -66 -276 -67 -306 0 -19 -4 -43 -8 -54 -7 -16 -12 -9 -26 39 -9 32 -25 73 -35 90 -33 58 -34 73 -3 81 15 5 32 7 36 7 4 -1 17 2 27 8 29 16 26 56 -6 73 l-26 14 48 31 c56 35 69 39 60 17z m-274 -167 c-13 -13 1 -38 22 -38 21 0 80 -113 92 -176 4 -21 13 -56 20 -76 l13 -37 -282 5 c-173 4 -286 10 -292 16 -7 7 -6 12 3 15 7 3 38 26 70 52 31 27 104 79 162 118 58 38 125 83 149 101 44 32 65 42 43 20z"/>
</g>
</svg>
