<?xml version="1.0" standalone="no"?>
<!DOCTYPE svg PUBLIC "-//W3C//DTD SVG 20010904//EN" "http://www.w3.org/TR/2001/REC-SVG-20010904/DTD/svg10.dtd">
<svg xmlns="http://www.w3.org/2000/svg" version="1.0" width="360.000000pt" height="360.000000pt" viewBox="0 0 360.000000 360.000000" preserveAspectRatio="xMidYMid meet">

<g transform="translate(0.000000,360.000000) scale(0.100000,-0.100000)" fill="#000000" stroke="none">
<path d="M1970 2845 c-8 -10 -10 -25 -5 -42 14 -46 9 -212 -8 -316 -9 -54 -19 -102 -22 -107 -3 -5 -8 -39 -10 -77 -6 -84 -20 -120 -54 -137 -22 -12 -34 -11 -86 5 -33 10 -80 21 -105 24 -92 12 -100 15 -100 38 0 55 9 65 51 60 66 -9 128 25 181 99 37 51 46 58 76 58 32 0 30 36 -4 44 -24 6 -25 10 -21 49 6 41 -17 107 -50 147 -7 8 -23 31 -35 50 -29 44 -75 55 -132 33 -80 -31 -126 -96 -146 -206 -19 -102 -9 -182 28 -221 32 -35 33 -25 -18 -166 -15 -41 -53 -151 -84 -245 -30 -93 -76 -231 -101 -305 -60 -175 -65 -192 -65 -217 0 -20 26 -50 35 -41 3 2 31 -20 62 -50 71 -66 143 -114 231 -153 37 -16 86 -39 109 -51 l42 -22 -73 -76 c-83 -87 -196 -235 -197 -259 -1 -9 0 -30 1 -47 1 -24 -14 -48 -69 -118 -96 -118 -95 -138 9 -156 60 -10 148 -18 260 -23 38 -2 45 1 45 17 0 38 -43 54 -158 60 -136 7 -143 11 -115 56 21 34 22 35 27 11 4 -13 15 -29 24 -35 31 -19 57 25 57 96 l0 59 103 101 c56 55 117 112 136 126 45 35 101 110 101 135 0 12 -11 32 -24 46 -23 24 -24 29 -14 73 18 78 6 91 -92 107 -45 8 -99 22 -120 32 -22 11 -47 19 -58 19 -10 0 -22 4 -28 9 -5 5 -27 14 -49 21 -22 7 -49 19 -60 26 -11 8 -25 14 -33 14 -7 0 -27 10 -45 22 -18 13 -34 24 -36 25 -6 3 40 154 79 263 22 58 48 138 59 177 28 104 42 129 69 125 12 -2 35 6 51 17 16 12 35 21 43 21 7 0 58 11 112 25 54 13 102 22 106 20 4 -2 45 -11 91 -19 75 -13 87 -13 117 1 20 10 38 29 47 51 17 39 20 144 5 172 -5 10 -12 75 -14 144 -3 81 -10 143 -21 177 -18 54 -16 122 6 157 17 28 7 46 -40 71 -49 25 -55 26 -71 6z m-290 -149 c0 -15 21 -26 51 -26 28 0 73 -73 71 -116 -4 -92 -43 -162 -108 -190 -38 -16 -71 -9 -106 24 -36 33 -41 65 -28 158 12 87 26 116 73 144 38 24 47 25 47 6z m356 -282 c2 -65 8 -144 14 -176 14 -90 -8 -121 -78 -109 -18 3 -20 6 -11 17 6 8 15 51 20 96 5 46 13 110 19 143 5 33 12 82 16 108 3 27 8 46 11 43 3 -3 7 -58 9 -122z m-373 -281 c47 -6 66 -23 25 -23 -12 0 -48 -7 -80 -16 -32 -9 -61 -14 -64 -11 -3 3 -3 20 1 37 7 30 9 32 39 26 17 -4 52 -10 79 -13z m-73 -876 c40 -21 92 -38 130 -44 36 -5 79 -36 63 -46 -5 -3 -21 0 -36 8 -14 7 -62 28 -107 45 -44 18 -83 37 -86 41 -8 13 7 11 36 -4z m221 -223 c12 -14 5 -23 -51 -72 -36 -31 -98 -89 -137 -129 -40 -40 -75 -73 -77 -73 -3 0 6 19 19 42 24 43 210 248 224 248 5 0 15 -7 22 -16z"/>
</g>
</svg>
