<?xml version="1.0" standalone="no"?>
<!DOCTYPE svg PUBLIC "-//W3C//DTD SVG 20010904//EN" "http://www.w3.org/TR/2001/REC-SVG-20010904/DTD/svg10.dtd">
<svg xmlns="http://www.w3.org/2000/svg" version="1.0" width="360.000000pt" height="360.000000pt" viewBox="0 0 360.000000 360.000000" preserveAspectRatio="xMidYMid meet">

<g transform="translate(0.000000,360.000000) scale(0.100000,-0.100000)" fill="#000000" stroke="none">
<path d="M1390 2715 c-8 -9 -12 -38 -12 -68 2 -61 -5 -75 -37 -73 -32 1 -50 -27 -33 -54 20 -33 -24 -104 -141 -226 -162 -171 -218 -231 -244 -266 -13 -18 -37 -44 -52 -58 -41 -35 -58 -97 -38 -137 16 -31 114 -85 212 -117 28 -9 69 -26 93 -37 69 -32 191 -79 205 -79 6 0 26 -7 42 -16 17 -8 57 -21 90 -28 l60 -12 17 -79 c29 -136 47 -286 43 -364 -3 -42 -7 -123 -10 -180 -7 -130 -44 -280 -97 -388 -23 -45 -38 -88 -35 -96 4 -12 32 -14 154 -13 153 2 197 12 191 43 -4 23 -37 29 -154 28 l-102 0 18 35 c18 34 44 117 54 170 2 14 11 54 19 90 9 36 18 137 22 225 8 182 -4 316 -40 439 -13 44 -21 85 -18 92 3 8 21 16 41 19 21 4 78 17 127 29 228 59 332 101 377 155 30 35 178 332 178 357 0 5 5 25 10 45 9 31 14 36 34 32 37 -7 133 25 165 55 34 32 61 98 61 147 0 35 0 35 44 35 44 0 74 19 61 40 -3 5 -27 10 -54 10 l-47 0 -12 44 c-25 94 -69 136 -145 136 -39 0 -115 -50 -149 -97 -32 -47 -33 -50 -32 -154 0 -84 4 -113 20 -146 11 -22 18 -45 16 -52 -6 -18 -137 254 -161 335 -11 39 -34 89 -50 111 l-29 40 -73 -1 c-77 -1 -79 -2 -219 -77 -30 -16 -59 -29 -63 -29 -5 0 -23 -7 -40 -15 -71 -33 -182 -63 -189 -52 -4 7 -8 8 -8 4 0 -4 -9 -3 -19 3 -18 9 -18 13 -6 60 7 28 19 57 25 65 8 10 7 22 -4 49 -16 39 -44 48 -66 21z m623 -113 c9 -10 22 -33 28 -50 6 -18 17 -32 24 -32 7 0 18 -21 25 -47 7 -27 21 -64 31 -83 10 -19 30 -64 44 -100 15 -36 32 -78 40 -95 47 -107 47 -103 21 -154 -13 -25 -33 -64 -44 -86 -75 -148 -103 -184 -169 -215 -26 -12 -49 -22 -50 -22 -2 1 -47 -14 -100 -32 -114 -39 -177 -53 -323 -72 -32 -3 -54 1 -115 26 -11 4 -49 18 -85 30 -36 13 -96 37 -135 55 -38 18 -95 41 -125 50 -88 28 -165 65 -178 86 -10 16 -8 26 12 57 13 20 31 44 41 52 10 8 35 37 55 65 21 27 92 106 159 175 67 69 144 149 171 178 47 50 50 52 89 46 40 -6 100 8 186 46 22 9 56 21 75 25 19 4 50 16 69 28 56 34 184 87 212 87 14 0 33 -8 42 -18z m479 -39 c64 -76 45 -258 -31 -297 -45 -24 -97 -21 -115 7 -17 25 -31 96 -29 147 1 34 48 120 75 136 9 6 53 18 79 23 3 1 13 -7 21 -16z"/>
</g>
</svg>
