<?xml version="1.0" standalone="no"?>
<!DOCTYPE svg PUBLIC "-//W3C//DTD SVG 20010904//EN" "http://www.w3.org/TR/2001/REC-SVG-20010904/DTD/svg10.dtd">
<svg xmlns="http://www.w3.org/2000/svg" version="1.0" width="360.000000pt" height="360.000000pt" viewBox="0 0 360.000000 360.000000" preserveAspectRatio="xMidYMid meet">

<g transform="translate(0.000000,360.000000) scale(0.100000,-0.100000)" fill="#000000" stroke="none">
<path d="M2378 3141 c-30 -9 -66 -25 -81 -37 -33 -26 -88 -114 -80 -127 4 -6 -7 -8 -28 -5 -63 10 -88 -23 -49 -62 15 -15 27 -19 47 -14 20 6 25 4 21 -7 -5 -14 20 -131 38 -174 13 -31 57 -64 86 -65 30 0 44 -16 40 -43 -2 -10 2 -25 8 -33 11 -12 5 -14 -33 -14 -30 0 -47 -5 -50 -14 -3 -8 -14 -15 -24 -16 -10 0 -202 -3 -428 -5 -225 -2 -423 -7 -440 -9 -16 -3 -72 -8 -122 -12 -102 -7 -134 -24 -98 -51 16 -11 46 -13 165 -7 80 4 300 8 490 9 349 2 516 10 526 26 12 21 42 8 53 -23 31 -88 43 -232 37 -422 -7 -221 -25 -349 -63 -464 -27 -81 -30 -85 -88 -124 -75 -52 -297 -159 -390 -189 -38 -12 -74 -25 -80 -29 -39 -26 -346 -114 -435 -125 -25 -3 -56 -7 -70 -10 -14 -3 -79 -14 -145 -24 -66 -11 -142 -27 -170 -35 -27 -8 -99 -22 -160 -31 -60 -9 -137 -21 -170 -26 -33 -5 -98 -11 -145 -14 -120 -8 -229 -27 -242 -42 -8 -10 -8 -24 1 -51 30 -97 32 -127 15 -263 -6 -52 -5 -58 16 -69 14 -8 35 -9 59 -4 20 4 40 6 45 5 40 -9 72 52 40 76 -11 8 -31 11 -49 7 l-30 -5 -2 68 c-1 37 -4 93 -8 124 -6 55 -5 57 22 67 27 10 62 16 188 28 33 3 101 11 150 19 50 8 123 19 164 25 41 6 78 13 82 16 19 11 221 47 309 54 105 9 149 18 229 49 29 11 74 23 100 27 25 4 91 24 146 45 55 22 104 39 109 39 5 0 36 13 70 29 34 15 79 34 101 41 55 17 183 81 269 134 l71 45 345 -3 c190 -1 352 -6 359 -10 10 -7 12 -26 8 -75 -3 -36 -11 -122 -16 -191 -15 -167 -40 -361 -56 -435 -36 -157 -37 -156 108 -163 115 -5 197 9 197 35 0 23 -51 35 -147 35 -51 0 -95 3 -98 9 -6 8 -2 44 30 274 8 55 17 141 20 191 3 50 12 116 19 146 7 30 12 91 12 135 -1 87 -14 115 -59 127 -12 3 -28 19 -36 37 -8 17 -26 46 -41 63 -57 66 -188 275 -267 426 -34 63 -95 166 -137 228 -41 62 -90 140 -108 173 -18 32 -38 59 -45 59 -14 0 -32 51 -38 112 -4 45 -4 47 29 58 49 16 83 58 111 138 34 97 34 180 0 255 -31 67 -39 74 -102 90 -42 11 -58 11 -105 -2z m114 -75 c26 -12 36 -57 32 -137 -8 -135 -49 -209 -113 -209 -36 0 -65 28 -101 101 -50 101 -37 162 48 224 47 34 88 41 134 21z m113 -856 c34 -52 87 -146 118 -207 31 -62 81 -152 110 -200 29 -49 72 -119 94 -158 23 -38 56 -86 74 -105 l34 -35 -60 -7 c-104 -11 -535 -5 -535 8 0 6 9 36 19 67 11 32 25 90 30 130 6 39 13 86 17 102 9 45 10 484 1 530 l-8 40 22 -35 c12 -19 50 -78 84 -130z"/>
</g>
</svg>
