<?xml version="1.0" standalone="no"?>
<!DOCTYPE svg PUBLIC "-//W3C//DTD SVG 20010904//EN" "http://www.w3.org/TR/2001/REC-SVG-20010904/DTD/svg10.dtd">
<svg xmlns="http://www.w3.org/2000/svg" version="1.0" width="360.000000pt" height="360.000000pt" viewBox="0 0 360.000000 360.000000" preserveAspectRatio="xMidYMid meet">

<g transform="translate(0.000000,360.000000) scale(0.100000,-0.100000)" fill="#000000" stroke="none">
<path d="M1830 2516 c-35 -17 -54 -38 -88 -93 -24 -38 -44 -83 -45 -99 -2 -54 15 -129 40 -171 26 -45 88 -103 110 -103 9 0 14 -18 15 -52 1 -29 2 -73 3 -98 6 -180 -82 -582 -135 -615 -5 -3 -10 -14 -10 -24 0 -17 -86 -141 -98 -141 -4 0 -33 -25 -64 -54 -78 -74 -198 -157 -288 -199 -41 -20 -95 -47 -120 -60 -106 -56 -188 -95 -230 -106 -25 -8 -70 -24 -100 -36 -30 -13 -68 -27 -85 -31 -16 -4 -46 -15 -66 -25 -19 -10 -65 -27 -102 -39 -59 -19 -66 -25 -73 -52 -9 -42 10 -54 88 -57 35 -1 74 -3 88 -5 114 -15 199 -29 220 -37 76 -29 117 -12 86 36 -17 26 -31 31 -106 39 -167 18 -227 36 -179 54 13 5 58 24 99 42 41 17 93 36 114 41 77 19 438 199 536 267 106 75 205 158 262 222 l54 60 84 0 c47 0 122 -3 166 -8 45 -4 117 -6 160 -5 112 3 212 -15 226 -41 11 -20 4 -459 -9 -539 -3 -23 -1 -48 7 -62 18 -34 99 -50 188 -37 37 6 87 11 112 11 82 2 120 11 120 30 0 33 -38 39 -184 29 -103 -7 -141 -6 -152 3 -12 10 -13 44 -8 203 8 267 8 283 0 358 -7 66 -8 67 -50 87 -37 19 -66 21 -252 25 -188 4 -354 14 -362 21 -2 1 9 31 23 66 37 91 63 195 82 335 17 121 17 121 48 133 17 6 82 13 145 16 63 4 138 10 165 15 28 5 72 12 98 15 62 8 383 8 396 0 6 -3 19 3 31 15 21 21 26 45 12 54 -5 3 -112 7 -238 10 -314 7 -628 18 -635 22 -4 2 -9 18 -11 36 -3 18 -8 41 -13 51 -6 13 -2 17 16 17 25 0 54 22 102 76 28 31 34 47 36 89 1 14 16 27 51 42 30 13 50 28 50 38 0 9 -6 15 -12 14 -7 -1 -30 1 -50 5 -29 6 -38 13 -38 28 0 60 -52 143 -121 193 -24 18 -62 15 -109 -9z m98 -72 c81 -56 96 -245 25 -316 -57 -57 -157 15 -182 130 -6 29 -11 59 -11 65 0 16 65 118 82 129 21 13 62 9 86 -8z m47 -584 c-3 -5 -18 -10 -33 -9 -24 0 -25 1 -7 9 28 12 47 12 40 0z m88 3 c-13 -2 -35 -2 -50 0 -16 2 -5 4 22 4 28 0 40 -2 28 -4z"/>
</g>
</svg>
