<?xml version="1.0" standalone="no"?>
<!DOCTYPE svg PUBLIC "-//W3C//DTD SVG 20010904//EN" "http://www.w3.org/TR/2001/REC-SVG-20010904/DTD/svg10.dtd">
<svg xmlns="http://www.w3.org/2000/svg" version="1.0" width="360.000000pt" height="360.000000pt" viewBox="0 0 360.000000 360.000000" preserveAspectRatio="xMidYMid meet">

<g transform="translate(0.000000,360.000000) scale(0.100000,-0.100000)" fill="#000000" stroke="none">
<path d="M3511 2035 c-24 -14 -81 -38 -125 -54 -45 -16 -108 -39 -141 -51 -33 -12 -89 -29 -125 -36 -55 -12 -65 -12 -72 0 -21 38 -144 49 -231 20 -57 -19 -136 -80 -166 -127 -14 -22 -31 -37 -50 -40 -17 -4 -32 -14 -36 -26 -8 -27 -78 -52 -139 -51 -130 3 -906 -20 -950 -28 -43 -8 -65 -23 -66 -44 0 -16 34 -39 49 -33 73 28 153 34 504 37 202 2 367 1 367 -2 0 -5 -479 -246 -570 -287 -25 -11 -61 -28 -80 -38 -113 -57 -131 -65 -141 -65 -6 0 -37 -11 -68 -24 -31 -13 -83 -34 -116 -46 -33 -13 -69 -27 -80 -31 -73 -31 -597 -214 -660 -230 -16 -4 -75 -19 -130 -34 -271 -71 -332 -85 -358 -79 -16 3 -34 1 -42 -6 -19 -16 -19 -49 -1 -56 11 -4 11 -14 0 -62 -35 -150 -1 -193 123 -156 73 22 82 30 60 51 -14 15 -22 15 -50 5 -51 -19 -76 -15 -81 11 -11 51 -13 84 -7 111 7 31 0 29 296 105 145 38 376 111 495 156 52 20 156 57 230 81 146 47 172 56 240 84 206 83 250 98 260 85 8 -9 22 -10 58 -3 26 5 81 8 122 8 41 -1 142 3 224 8 83 5 159 8 170 6 12 -2 45 -6 74 -10 62 -8 68 -21 58 -112 -4 -31 -8 -73 -11 -92 -2 -19 -6 -96 -10 -170 -4 -74 -11 -170 -15 -213 -5 -43 -7 -84 -4 -91 9 -23 75 -45 102 -35 13 5 56 9 97 9 85 0 105 6 105 30 0 35 -24 41 -124 35 -84 -4 -97 -3 -103 12 -8 21 13 420 29 541 l12 92 -26 26 c-20 20 -38 27 -80 30 -111 9 -198 9 -383 1 -121 -5 -185 -4 -176 2 8 5 20 7 27 4 7 -3 34 11 60 31 54 41 601 316 630 316 10 0 29 6 40 13 12 6 39 22 62 34 l40 22 12 -29 c9 -21 29 -38 66 -56 48 -23 62 -26 117 -20 60 6 63 5 87 -24 14 -16 33 -30 44 -30 16 0 18 5 12 41 -6 40 -5 43 46 91 50 46 52 52 63 121 l11 72 49 8 c28 5 82 20 120 34 39 13 113 39 166 58 130 44 136 48 141 90 2 19 2 35 -2 35 -3 0 -25 -12 -49 -25z m-546 -177 c6 -5 -151 -53 -205 -63 l-35 -6 48 32 c26 17 62 35 80 39 34 7 104 6 112 -2z m42 -95 c-8 -69 -60 -116 -148 -132 -102 -17 -159 7 -159 68 0 15 10 23 43 31 23 6 89 26 147 44 58 19 109 34 114 35 5 1 6 -20 3 -46z"/>
</g>
</svg>
