<?xml version="1.0" standalone="no"?>
<!DOCTYPE svg PUBLIC "-//W3C//DTD SVG 20010904//EN" "http://www.w3.org/TR/2001/REC-SVG-20010904/DTD/svg10.dtd">
<svg xmlns="http://www.w3.org/2000/svg" version="1.0" width="360.000000pt" height="360.000000pt" viewBox="0 0 360.000000 360.000000" preserveAspectRatio="xMidYMid meet">

<g transform="translate(0.000000,360.000000) scale(0.100000,-0.100000)" fill="#000000" stroke="none">
<path d="M1587 3423 c-11 -10 -8 -43 3 -43 6 0 10 -7 10 -15 0 -8 3 -15 8 -15 4 0 13 -15 20 -32 7 -18 18 -41 23 -50 5 -10 9 -25 9 -33 0 -8 5 -15 10 -15 6 0 10 -11 10 -25 0 -14 5 -25 10 -25 6 0 10 -11 10 -25 0 -14 5 -35 12 -48 25 -49 28 -58 28 -86 0 -17 5 -33 10 -36 6 -3 10 -26 10 -50 0 -24 5 -47 10 -50 18 -11 11 -35 -10 -35 -11 0 -20 6 -20 13 0 18 -24 67 -32 67 -5 0 -8 8 -8 18 0 9 -9 28 -20 42 -11 14 -20 31 -20 38 0 12 -19 51 -30 62 -3 3 -11 17 -19 33 -8 15 -18 27 -23 27 -4 0 -8 9 -8 20 0 11 -4 20 -10 20 -5 0 -10 6 -10 13 0 14 -42 69 -80 105 -52 49 -59 54 -69 47 -14 -8 -14 -65 -1 -65 6 0 10 -5 10 -11 0 -7 8 -19 18 -28 19 -18 51 -67 59 -93 3 -10 9 -18 14 -18 5 0 9 -9 9 -20 0 -11 3 -20 8 -20 8 0 32 -49 32 -67 0 -7 5 -13 10 -13 6 0 10 -9 10 -19 0 -11 3 -21 8 -23 10 -4 52 -87 52 -104 0 -8 3 -14 8 -14 11 0 32 -51 32 -77 0 -13 -4 -23 -10 -23 -5 0 -10 -9 -10 -19 0 -11 -4 -23 -10 -26 -5 -3 -10 -37 -10 -75 0 -38 5 -72 10 -75 6 -3 10 -19 10 -35 0 -16 5 -32 10 -35 6 -3 10 -15 10 -26 0 -11 26 -46 59 -79 47 -48 65 -60 90 -60 18 0 31 -5 31 -12 0 -7 11 -22 24 -33 25 -21 33 -53 56 -225 6 -41 14 -88 18 -105 9 -38 -3 -295 -16 -355 -5 -25 -22 -89 -37 -144 -14 -54 -24 -105 -21 -113 7 -16 -41 -123 -54 -123 -4 0 -24 -24 -43 -53 -20 -30 -43 -59 -51 -66 -9 -8 -16 -20 -16 -27 0 -8 -4 -14 -9 -14 -5 0 -15 -13 -22 -28 -17 -35 -67 -98 -136 -172 -29 -31 -53 -61 -53 -66 0 -5 -24 -33 -53 -62 -48 -48 -56 -52 -100 -52 -26 0 -47 5 -47 10 0 6 -16 10 -35 10 -19 0 -35 5 -35 10 0 6 -11 10 -25 10 -14 0 -34 5 -45 10 -11 6 -29 15 -40 20 -11 6 -33 10 -50 10 -16 0 -30 5 -30 10 0 6 -13 10 -29 10 -17 0 -33 5 -36 10 -3 6 -24 10 -45 10 -21 0 -42 5 -45 10 -3 6 -22 10 -41 10 -19 0 -34 5 -34 10 0 6 -15 10 -34 10 -19 0 -38 5 -41 10 -3 6 -19 10 -35 10 -16 0 -32 5 -35 10 -3 6 -24 10 -45 10 -21 0 -42 5 -45 10 -3 6 -24 10 -45 10 -43 0 -57 -20 -46 -67 4 -13 7 -68 7 -121 0 -53 2 -105 5 -114 6 -19 54 -26 54 -8 0 5 28 10 63 12 59 3 62 4 65 31 2 19 -1 27 -12 27 -9 0 -16 5 -16 10 0 6 -18 10 -40 10 -35 0 -40 3 -47 27 -4 16 -7 48 -7 73 -1 40 1 45 19 42 11 -2 22 -8 23 -13 2 -5 17 -9 32 -9 16 0 32 -4 35 -10 3 -5 19 -10 35 -10 16 0 32 -4 35 -10 3 -5 21 -10 40 -10 19 0 37 -5 40 -10 3 -6 19 -10 35 -10 16 0 32 -4 35 -10 3 -5 19 -10 35 -10 16 0 32 -4 35 -10 3 -5 21 -10 40 -10 19 0 37 -4 40 -10 3 -5 15 -10 26 -10 10 0 28 -5 39 -10 11 -6 29 -14 40 -20 11 -5 31 -10 44 -10 14 0 28 -4 31 -10 3 -5 17 -10 30 -10 13 0 27 -4 30 -10 3 -5 23 -10 44 -10 20 0 42 -5 49 -12 9 -9 18 -9 37 0 14 7 35 12 46 12 25 0 49 23 49 47 0 10 14 32 30 50 17 18 30 35 30 39 0 4 15 23 33 44 35 40 44 51 97 120 19 25 38 47 41 50 14 12 69 100 69 109 0 6 4 11 8 11 4 0 15 12 25 28 9 15 32 45 52 67 19 22 35 45 35 52 0 7 6 13 13 13 8 0 19 11 25 24 15 34 64 38 362 34 195 -2 251 -6 275 -18 37 -19 38 -4 -6 -252 -6 -35 -15 -108 -19 -163 -4 -55 -11 -110 -14 -121 -11 -31 32 -74 72 -74 17 0 34 -5 37 -10 8 -13 145 -13 145 -1 0 6 17 11 38 13 32 3 37 7 40 30 3 26 2 26 -70 32 -40 3 -97 8 -127 12 l-53 6 7 102 c4 55 10 106 15 111 4 6 10 35 13 65 8 86 18 151 28 177 14 39 10 96 -9 121 -12 16 -35 27 -68 33 -70 13 -499 13 -558 -1 -27 -6 -55 -9 -63 -6 -14 6 -18 62 -4 70 4 3 11 25 15 48 3 24 11 66 17 93 27 118 17 573 -12 591 -5 3 -9 20 -9 38 0 19 -7 39 -15 46 -8 7 -15 19 -15 26 0 8 -3 14 -7 14 -5 0 -13 12 -20 26 -10 21 -10 29 2 40 7 8 21 14 29 14 9 0 16 3 16 8 0 4 13 21 28 37 33 35 42 64 49 153 4 53 8 62 24 62 10 0 19 5 19 10 0 6 9 10 20 10 16 0 20 7 20 30 0 29 -1 30 -48 30 -26 0 -53 -5 -60 -12 -9 -9 -12 -8 -12 5 0 28 -78 112 -127 137 -52 27 -73 60 -73 115 0 28 -9 75 -20 105 -11 30 -20 65 -20 77 0 12 -4 25 -10 28 -5 3 -10 15 -10 26 0 10 -4 19 -10 19 -5 0 -10 9 -10 20 0 11 -4 28 -9 38 -5 9 -16 32 -23 50 -7 17 -16 32 -20 32 -5 0 -8 9 -8 20 0 11 -4 20 -10 20 -5 0 -10 6 -10 13 0 33 -72 72 -93 50z m251 -669 c18 -8 32 -20 32 -26 0 -5 6 -8 14 -5 16 7 56 -32 56 -55 0 -9 7 -18 14 -21 20 -8 35 -71 31 -124 -3 -37 -21 -77 -50 -109 -11 -13 -35 26 -35 57 0 10 -4 21 -10 24 -5 3 -10 21 -10 40 0 19 -4 37 -10 40 -5 3 -10 15 -10 26 0 10 -4 19 -10 19 -5 0 -10 11 -10 24 0 14 -4 28 -10 31 -5 3 -10 13 -10 21 0 8 -9 24 -20 36 -18 20 -19 38 -1 38 4 0 22 -7 39 -16z m-78 -134 c0 -10 5 -22 10 -25 6 -3 10 -17 10 -30 0 -13 5 -27 10 -30 6 -3 10 -19 10 -35 0 -16 4 -31 9 -34 14 -9 20 -46 8 -46 -11 0 -27 22 -62 86 -14 25 -28 121 -20 134 9 15 25 2 25 -20z"/>
</g>
</svg>
