<?xml version="1.0" standalone="no"?>
<!DOCTYPE svg PUBLIC "-//W3C//DTD SVG 20010904//EN" "http://www.w3.org/TR/2001/REC-SVG-20010904/DTD/svg10.dtd">
<svg xmlns="http://www.w3.org/2000/svg" version="1.0" width="360.000000pt" height="360.000000pt" viewBox="0 0 360.000000 360.000000" preserveAspectRatio="xMidYMid meet">

<g transform="translate(0.000000,360.000000) scale(0.100000,-0.100000)" fill="#000000" stroke="none">
<path d="M2030 3425 c-9 -11 -9 -22 0 -47 20 -58 41 -219 45 -363 3 -77 7 -160 9 -184 8 -76 -1 -98 -43 -104 -58 -7 -127 -43 -161 -84 -31 -38 -31 -39 -28 -133 3 -82 8 -103 34 -155 25 -48 44 -69 93 -102 34 -24 73 -43 86 -43 18 0 24 -7 28 -32 40 -230 35 -339 -27 -581 -25 -99 -56 -197 -70 -220 -31 -54 -191 -217 -212 -217 -9 0 -34 -14 -55 -31 -22 -17 -67 -41 -102 -54 -78 -29 -131 -54 -182 -85 -41 -26 -237 -124 -310 -155 -22 -10 -90 -42 -151 -71 -61 -30 -114 -54 -118 -54 -5 0 -22 -6 -39 -14 -18 -8 -68 -26 -112 -40 -44 -13 -107 -34 -140 -47 -33 -12 -73 -22 -90 -23 -24 -1 -31 -7 -39 -33 -13 -48 1 -59 81 -61 45 -1 107 -14 186 -38 86 -27 126 -34 152 -30 35 7 45 26 22 43 -13 10 -182 67 -229 77 -16 4 -28 11 -28 16 0 6 2 10 5 10 21 0 183 54 237 79 36 17 72 31 78 31 7 0 24 7 38 15 36 19 325 157 382 181 25 10 70 35 100 56 30 20 100 55 155 77 55 23 111 49 125 59 14 11 40 27 59 37 19 9 62 39 97 66 35 28 65 45 69 40 3 -6 23 -10 43 -10 20 1 78 -2 127 -5 50 -3 142 -7 205 -10 169 -8 303 -33 320 -60 19 -29 30 -302 18 -434 -5 -57 -7 -114 -4 -125 13 -49 74 -69 246 -82 47 -3 88 -10 93 -14 4 -4 21 -5 38 -3 36 5 53 32 36 56 -9 13 -36 17 -127 21 -63 3 -122 7 -130 9 -49 13 -61 21 -75 49 -12 23 -13 43 -6 91 5 34 8 142 6 241 -2 182 -9 220 -46 267 -19 23 -137 36 -494 52 -33 2 -92 8 -132 15 l-72 13 33 62 c19 35 41 99 51 142 10 43 29 126 43 184 36 155 41 272 17 414 l-20 117 51 54 c42 44 52 62 58 101 9 72 7 139 -5 151 -9 9 -4 18 20 38 45 38 41 55 -11 50 -38 -4 -45 -1 -68 27 -26 31 -26 33 -13 87 10 40 13 120 11 286 -3 307 -5 323 -31 327 -13 2 -23 13 -28 30 -11 40 -48 88 -68 88 -10 0 -24 -7 -31 -15z m107 -447 c-3 -7 -5 -2 -5 12 0 14 2 19 5 13 2 -7 2 -19 0 -25z m0 -55 c-3 -10 -5 -4 -5 12 0 17 2 24 5 18 2 -7 2 -21 0 -30z m-92 -299 c31 6 33 5 39 -33 3 -21 1 -62 -4 -91 -6 -29 -10 -89 -10 -132 l0 -80 -27 7 c-71 17 -121 103 -125 214 l-3 72 39 36 c35 32 40 34 48 18 8 -13 18 -15 43 -11z m149 -214 c-7 -65 -35 -120 -60 -120 -13 0 -15 8 -10 38 3 20 8 69 11 107 3 39 8 83 12 100 l6 29 24 -47 c20 -41 23 -56 17 -107z"/>
</g>
</svg>
