<?xml version="1.0" standalone="no"?>
<!DOCTYPE svg PUBLIC "-//W3C//DTD SVG 20010904//EN" "http://www.w3.org/TR/2001/REC-SVG-20010904/DTD/svg10.dtd">
<svg xmlns="http://www.w3.org/2000/svg" version="1.0" width="360.000000pt" height="360.000000pt" viewBox="0 0 360.000000 360.000000" preserveAspectRatio="xMidYMid meet">

<g transform="translate(0.000000,360.000000) scale(0.100000,-0.100000)" fill="#000000" stroke="none">
<path d="M1885 3020 c-4 -13 2 -50 13 -88 48 -162 75 -322 54 -322 -6 0 -14 5 -17 10 -3 6 -24 10 -45 10 -33 0 -46 -7 -81 -42 -62 -64 -83 -117 -84 -213 0 -63 4 -87 20 -115 29 -49 117 -118 162 -126 72 -13 71 -51 -4 -139 -101 -119 -298 -246 -435 -280 -72 -18 -104 -46 -88 -76 6 -10 18 -19 28 -19 26 0 120 33 175 62 143 73 235 137 326 225 36 34 66 61 67 60 1 -1 5 -32 8 -68 5 -43 2 -98 -8 -155 -8 -49 -17 -105 -20 -124 -16 -108 -105 -330 -132 -330 -7 0 -25 -11 -41 -24 -50 -42 -388 -213 -557 -282 -60 -25 -137 -58 -172 -74 -35 -17 -66 -30 -69 -30 -7 0 -70 -28 -148 -66 -26 -12 -61 -25 -77 -29 -16 -3 -64 -20 -107 -37 -43 -17 -88 -30 -99 -30 -33 2 -46 -21 -42 -74 l3 -48 70 -12 c72 -12 112 -25 202 -65 43 -19 54 -20 67 -10 21 18 20 47 -3 70 -21 21 -163 71 -203 71 -52 0 -38 18 34 45 128 48 301 117 363 146 78 35 274 119 281 119 7 0 274 128 304 146 14 8 58 31 99 50 41 19 85 44 99 54 13 11 29 17 34 14 6 -4 167 -7 358 -8 192 0 351 -4 354 -7 4 -4 9 -17 12 -30 6 -31 5 -536 -1 -610 -4 -39 -1 -60 8 -67 8 -7 75 -12 172 -13 149 -1 160 0 160 18 0 11 -16 25 -44 39 -38 18 -57 21 -133 16 l-89 -5 3 341 c3 337 3 342 -18 363 -21 21 -29 21 -375 23 -195 0 -353 4 -352 9 1 4 16 36 33 71 33 66 57 162 84 335 21 128 19 225 -6 350 l-19 96 35 31 c52 45 70 103 56 179 -6 33 -13 68 -15 77 -3 19 22 44 84 83 41 25 43 29 27 41 -15 11 -28 9 -82 -10 -76 -28 -75 -29 -79 92 -1 46 -7 88 -14 95 -6 6 -11 22 -11 36 0 24 -13 78 -48 204 -9 31 -21 57 -28 57 -7 0 -19 3 -27 6 -10 3 -18 -2 -22 -16z m50 -482 c33 -15 62 -63 80 -133 28 -106 16 -163 -41 -190 -30 -14 -37 -14 -66 -1 -43 20 -82 56 -103 97 -34 65 -2 197 56 226 30 16 42 16 74 1z"/>
</g>
</svg>
