<?xml version="1.0" standalone="no"?>
<!DOCTYPE svg PUBLIC "-//W3C//DTD SVG 20010904//EN" "http://www.w3.org/TR/2001/REC-SVG-20010904/DTD/svg10.dtd">
<svg xmlns="http://www.w3.org/2000/svg" version="1.0" width="360.000000pt" height="360.000000pt" viewBox="0 0 360.000000 360.000000" preserveAspectRatio="xMidYMid meet">

<g transform="translate(0.000000,360.000000) scale(0.100000,-0.100000)" fill="#000000" stroke="none">
<path d="M2601 3101 c-6 -11 -11 -38 -11 -60 0 -22 -7 -78 -15 -123 -8 -46 -19 -106 -24 -133 -5 -28 -20 -75 -34 -105 -13 -30 -30 -71 -37 -90 -17 -45 -34 -64 -25 -28 4 15 2 42 -4 60 -5 18 -13 54 -16 79 -6 39 -3 49 19 76 32 38 32 49 4 64 -18 10 -24 8 -39 -10 -10 -12 -19 -27 -22 -34 -3 -8 -9 -9 -19 -2 -96 66 -114 75 -155 75 -51 0 -102 -39 -135 -103 -18 -35 -19 -52 -14 -120 4 -44 15 -99 25 -122 25 -57 76 -112 117 -127 25 -9 34 -18 34 -35 0 -13 -4 -23 -10 -23 -5 0 -10 -6 -10 -14 0 -60 -152 -265 -247 -333 -65 -47 -150 -90 -263 -133 -85 -32 -95 -39 -98 -63 -6 -46 22 -43 133 12 58 28 107 51 110 51 12 0 141 79 170 104 17 14 33 26 37 26 7 0 119 142 161 204 30 45 33 41 41 -49 26 -288 25 -403 -3 -525 l-22 -95 -52 -34 c-29 -19 -63 -42 -77 -51 -14 -9 -52 -27 -85 -40 -33 -13 -85 -34 -115 -48 -30 -13 -71 -30 -90 -38 -55 -21 -389 -114 -434 -120 -23 -3 -74 -15 -115 -26 -41 -11 -120 -29 -175 -39 -56 -10 -153 -30 -216 -44 -149 -34 -212 -43 -343 -51 -124 -8 -132 -13 -115 -85 5 -24 8 -88 5 -142 -3 -66 0 -100 8 -107 7 -6 32 -4 70 5 33 8 75 14 93 15 17 0 32 4 32 10 0 17 -51 44 -94 50 l-41 5 -6 85 c-4 47 -5 88 -3 92 2 3 39 9 82 13 88 7 287 41 329 55 15 6 75 19 133 29 58 11 137 27 175 35 39 9 104 23 145 32 87 18 185 44 320 84 52 15 109 31 125 35 31 7 59 19 177 74 36 17 69 31 72 31 12 0 162 73 178 87 11 10 22 12 35 5 10 -5 143 -9 301 -9 155 0 285 -3 288 -6 11 -11 6 -260 -12 -537 -3 -47 -2 -93 1 -102 7 -18 46 -24 187 -32 87 -4 108 6 88 43 -12 23 -8 23 -108 25 -105 2 -104 -1 -97 221 3 99 9 227 14 285 4 60 3 117 -2 133 -8 25 -14 27 -60 28 -29 1 -72 3 -97 4 -114 6 -224 5 -331 -1 l-116 -7 -5 25 c-2 14 4 58 14 99 27 112 26 361 -3 565 -9 65 -8 73 11 95 11 13 32 38 46 54 86 101 200 344 231 490 19 96 24 296 6 302 -6 2 -16 -5 -22 -16z m-282 -335 c33 -30 61 -100 67 -171 4 -50 1 -66 -18 -100 -22 -37 -27 -40 -71 -43 -28 -2 -47 1 -47 7 0 6 -6 11 -14 11 -21 0 -72 63 -87 107 -21 61 -17 147 7 180 41 55 105 59 163 9z m19 -406 c-25 -34 -35 -37 -40 -12 -2 11 6 21 22 29 39 18 42 15 18 -17z"/>
</g>
</svg>
