<?xml version="1.0" standalone="no"?>
<!DOCTYPE svg PUBLIC "-//W3C//DTD SVG 20010904//EN" "http://www.w3.org/TR/2001/REC-SVG-20010904/DTD/svg10.dtd">
<svg xmlns="http://www.w3.org/2000/svg" version="1.0" width="360.000000pt" height="360.000000pt" viewBox="0 0 360.000000 360.000000" preserveAspectRatio="xMidYMid meet">

<g transform="translate(0.000000,360.000000) scale(0.100000,-0.100000)" fill="#000000" stroke="none">
<path d="M1614 3195 c-3 -8 -11 -12 -18 -8 -19 11 2 -9 28 -26 104 -70 135 -93 164 -123 l33 -35 -28 -6 c-40 -8 -94 -47 -120 -86 -47 -69 -23 -138 80 -234 63 -59 80 -66 164 -71 48 -3 76 1 107 14 42 19 108 81 119 112 13 36 -21 113 -73 165 -43 44 -50 56 -50 91 0 43 -20 68 -46 58 -13 -5 -15 -15 -11 -41 4 -26 2 -35 -9 -35 -8 0 -14 8 -14 19 0 31 -89 111 -160 142 -36 17 -86 41 -113 55 -40 20 -48 22 -53 9z m345 -302 c56 -28 95 -72 108 -122 5 -20 -1 -31 -32 -58 -33 -28 -46 -33 -92 -33 -67 0 -135 33 -187 90 -45 50 -43 76 7 128 30 30 35 32 86 28 31 -3 78 -17 110 -33z"/>
<path d="M2144 2688 c-4 -6 2 -22 13 -36 19 -26 19 -26 -14 -141 -19 -64 -40 -130 -48 -148 -8 -17 -15 -36 -15 -41 0 -46 -161 -321 -211 -361 -27 -20 -79 -91 -79 -106 0 -15 32 0 92 43 55 38 78 64 124 137 89 141 159 300 199 453 15 56 30 102 34 102 26 0 151 -126 190 -190 87 -147 104 -266 71 -515 -18 -140 -28 -184 -56 -250 -36 -84 -44 -91 -160 -156 -17 -9 -58 -35 -92 -57 -92 -60 -227 -123 -332 -157 -76 -25 -131 -45 -154 -57 -23 -12 -120 -47 -161 -58 -65 -17 -144 -40 -223 -64 -46 -14 -106 -28 -135 -31 -29 -3 -72 -12 -97 -20 -99 -31 -155 -45 -233 -60 -45 -9 -108 -22 -139 -30 -32 -8 -77 -15 -101 -15 -74 0 -77 -6 -79 -160 l-2 -135 40 1 c87 1 139 53 65 64 -38 5 -43 16 -56 108 -6 48 -6 50 22 55 15 3 60 12 98 21 39 9 104 23 145 31 41 8 131 28 200 45 69 17 157 37 195 46 39 9 104 26 145 39 41 12 105 29 142 38 37 9 87 25 111 36 23 11 56 22 72 26 17 4 39 11 50 16 24 10 93 35 154 55 24 7 85 34 136 59 51 25 97 45 103 45 5 0 32 18 58 40 27 22 55 40 62 40 7 0 28 11 46 25 18 14 36 25 40 25 5 0 20 9 35 19 26 19 44 20 312 17 156 -2 299 -7 317 -11 31 -7 33 -10 28 -37 -3 -16 -21 -64 -40 -106 -33 -75 -57 -147 -110 -321 -14 -46 -46 -135 -71 -197 -61 -152 -63 -150 124 -146 75 2 140 7 144 12 5 4 4 17 -2 29 -10 18 -22 21 -114 23 -84 2 -102 6 -100 18 1 8 24 85 53 170 28 85 64 196 80 247 16 50 50 133 75 184 49 102 56 146 25 174 -17 16 -48 17 -330 19 -271 1 -309 3 -304 16 45 106 66 180 80 290 22 161 22 306 0 389 -37 145 -157 313 -280 395 -63 41 -133 68 -142 54z"/>
</g>
</svg>
