<?xml version="1.0" standalone="no"?>
<!DOCTYPE svg PUBLIC "-//W3C//DTD SVG 20010904//EN" "http://www.w3.org/TR/2001/REC-SVG-20010904/DTD/svg10.dtd">
<svg xmlns="http://www.w3.org/2000/svg" version="1.0" width="360.000000pt" height="360.000000pt" viewBox="0 0 360.000000 360.000000" preserveAspectRatio="xMidYMid meet">

<g transform="translate(0.000000,360.000000) scale(0.100000,-0.100000)" fill="#000000" stroke="none">
<path d="M3235 2400 c-3 -5 -13 -10 -22 -10 -8 0 -43 -20 -77 -44 -81 -58 -110 -111 -109 -202 0 -49 -3 -64 -14 -64 -8 0 -34 -13 -58 -30 -24 -16 -48 -30 -54 -30 -6 0 -11 -4 -11 -10 0 -5 -9 -10 -19 -10 -11 0 -39 -10 -63 -21 -23 -12 -52 -25 -63 -29 -46 -17 -115 -54 -115 -62 0 -4 -7 -8 -16 -8 -9 0 -28 -8 -42 -18 -15 -10 -38 -23 -52 -29 -54 -23 -126 -56 -142 -64 -10 -5 -26 -9 -35 -9 -10 0 -29 -9 -43 -20 -14 -11 -30 -20 -37 -20 -7 0 -28 -9 -48 -20 -20 -11 -40 -20 -46 -20 -5 0 -29 -9 -51 -20 -23 -11 -53 -20 -67 -20 -13 0 -31 -7 -40 -15 -27 -26 -91 -65 -106 -65 -8 0 -30 -9 -50 -20 -20 -11 -40 -20 -46 -20 -5 0 -29 -9 -51 -20 -23 -11 -45 -20 -49 -20 -3 0 -24 -8 -45 -17 -22 -9 -43 -16 -48 -14 -4 1 -18 -5 -31 -13 -12 -8 -40 -18 -61 -22 -21 -4 -58 -15 -82 -26 -24 -10 -57 -18 -72 -18 -16 0 -31 -4 -34 -9 -3 -5 -20 -11 -38 -14 -18 -4 -49 -9 -68 -12 -19 -4 -44 -10 -55 -15 -24 -10 -67 -20 -120 -27 -22 -3 -44 -9 -49 -14 -6 -5 -22 -9 -37 -9 -15 0 -31 -4 -34 -10 -3 -5 -26 -10 -50 -10 -24 0 -47 -4 -50 -10 -3 -5 -17 -10 -30 -10 -13 0 -27 -4 -30 -10 -3 -5 -20 -10 -37 -10 -31 0 -87 -15 -120 -31 -10 -5 -36 -9 -57 -9 -22 0 -43 -5 -46 -10 -3 -5 -19 -10 -35 -10 -16 0 -32 -5 -35 -10 -3 -6 -24 -10 -45 -10 -21 0 -42 -4 -45 -10 -3 -5 -20 -10 -36 -10 -44 0 -64 -23 -50 -58 6 -15 12 -66 13 -114 l1 -88 56 -1 c139 -2 136 -3 125 24 -4 12 -22 17 -72 19 l-67 3 0 80 0 80 30 3 c17 2 34 8 39 13 6 5 27 9 47 9 21 0 41 5 44 10 3 6 21 10 40 10 19 0 37 5 40 10 3 6 24 10 45 10 21 0 42 5 45 10 3 6 19 10 35 10 16 0 32 5 35 10 3 6 24 10 45 10 21 0 42 5 45 10 3 5 19 10 34 10 15 0 31 4 37 9 5 5 28 12 52 15 23 3 61 9 85 12 23 3 46 10 51 15 6 5 22 9 37 9 15 0 31 5 34 10 3 6 24 10 45 10 21 0 42 5 45 10 3 6 19 10 35 10 16 0 32 5 35 10 3 5 21 10 40 10 19 0 37 5 40 10 3 6 15 10 26 10 10 0 28 5 39 10 11 6 29 15 40 20 11 6 31 10 44 10 14 0 28 5 31 10 3 6 17 10 30 10 13 0 27 5 30 10 3 6 15 10 25 10 11 0 35 9 55 20 20 11 41 20 48 20 7 0 32 9 55 20 22 11 45 20 49 20 5 0 44 18 88 40 l80 39 167 1 c100 0 169 4 173 10 10 17 296 13 338 -5 40 -16 47 -30 47 -89 0 -23 5 -47 10 -52 16 -16 17 -443 1 -472 -18 -34 2 -82 35 -82 12 0 26 -4 29 -10 4 -6 63 -10 144 -10 141 0 161 5 161 42 0 16 -11 18 -119 18 -69 0 -122 4 -126 10 -3 6 -17 10 -30 10 l-23 0 -1 253 c-1 139 -6 268 -11 287 -6 19 -10 51 -10 71 0 20 -7 50 -16 68 l-16 33 -232 -6 c-127 -3 -257 -8 -288 -12 -33 -3 -58 -2 -58 3 0 13 77 53 101 53 10 0 19 4 19 8 0 5 23 15 50 22 28 7 50 17 50 22 0 4 7 8 15 8 8 0 23 4 33 9 35 19 289 141 355 170 66 30 140 41 151 22 4 -5 54 -35 114 -67 59 -31 126 -70 149 -85 23 -16 45 -29 48 -29 4 0 18 -9 32 -20 14 -11 34 -20 44 -20 11 0 19 -5 19 -11 0 -6 14 -9 33 -7 25 2 33 8 35 27 4 25 -12 90 -29 123 -5 10 -9 25 -9 35 0 9 -8 25 -17 36 -17 18 -17 20 12 43 17 13 35 24 41 24 20 0 65 56 58 73 -9 24 -60 22 -95 -4 -16 -11 -37 -19 -46 -17 -13 2 -8 9 19 25 56 33 108 109 107 158 0 66 -23 136 -53 162 -24 20 -37 23 -111 23 -46 0 -87 -4 -90 -10z m157 -67 c9 -10 23 -34 31 -54 14 -33 13 -40 -3 -76 -34 -76 -143 -143 -233 -143 -72 0 -97 23 -97 89 0 79 31 122 130 179 47 27 150 30 172 5z m-205 -343 c40 0 82 5 93 12 25 16 37 4 16 -17 -22 -23 -20 -32 14 -72 17 -18 30 -39 30 -45 0 -6 7 -19 16 -29 27 -30 7 -40 -34 -18 -20 12 -42 25 -47 29 -10 8 -54 33 -183 102 -29 15 -64 28 -78 28 -29 0 -31 20 -4 45 11 10 20 24 20 32 0 8 19 -4 42 -27 41 -39 43 -40 115 -40z"/>
</g>
</svg>
