<?xml version="1.0" standalone="no"?>
<!DOCTYPE svg PUBLIC "-//W3C//DTD SVG 20010904//EN" "http://www.w3.org/TR/2001/REC-SVG-20010904/DTD/svg10.dtd">
<svg xmlns="http://www.w3.org/2000/svg" version="1.0" width="360.000000pt" height="360.000000pt" viewBox="0 0 360.000000 360.000000" preserveAspectRatio="xMidYMid meet">

<g transform="translate(0.000000,360.000000) scale(0.100000,-0.100000)" fill="#000000" stroke="none">
<path d="M2536 2999 c-15 -12 -52 -55 -82 -96 -30 -41 -112 -132 -182 -202 -99 -99 -156 -147 -257 -214 -137 -90 -268 -160 -322 -170 -28 -5 -33 -3 -33 12 0 10 -7 24 -15 31 -14 12 -13 16 10 40 32 33 55 106 55 172 0 26 5 48 10 48 6 0 23 12 39 26 39 34 31 54 -19 49 -38 -3 -39 -2 -65 50 -21 44 -36 60 -79 85 l-53 30 -48 -18 c-65 -24 -110 -76 -125 -145 -10 -50 -9 -60 9 -101 12 -25 21 -49 21 -54 0 -5 13 -39 30 -74 33 -75 78 -118 121 -118 16 0 29 -6 30 -12 0 -7 2 -23 3 -35 2 -19 -2 -23 -23 -23 -14 -1 -132 -2 -261 -4 -261 -4 -332 -11 -353 -35 -15 -17 -32 -78 -43 -151 -3 -25 -10 -49 -14 -55 -4 -5 -10 -30 -14 -55 -8 -53 -32 -135 -50 -170 -20 -37 -27 -89 -16 -110 5 -10 26 -21 46 -24 27 -6 34 -11 30 -23 -4 -8 -13 -47 -22 -85 -13 -57 -14 -79 -4 -126 6 -31 13 -70 14 -87 2 -16 5 -37 9 -45 24 -63 31 -138 27 -300 -8 -391 -7 -413 35 -432 20 -9 28 -8 43 5 10 10 23 17 28 17 11 0 97 64 135 100 14 14 125 123 245 242 l220 217 79 2 c43 1 95 6 115 10 56 13 351 49 398 49 40 0 42 -2 42 -28 0 -39 -29 -172 -84 -386 -25 -98 -46 -187 -46 -196 0 -32 26 -40 136 -45 60 -3 118 -7 129 -10 30 -6 80 9 82 26 7 37 -8 41 -177 54 -47 4 -87 9 -89 11 -2 2 6 50 19 106 12 57 26 122 31 146 5 23 13 50 18 60 16 31 49 166 57 229 5 51 3 68 -11 89 -14 23 -22 25 -53 20 -21 -3 -93 -12 -162 -20 -69 -8 -165 -21 -215 -29 -49 -8 -117 -17 -150 -21 -94 -8 -98 10 -37 184 9 25 15 59 13 77 -1 17 5 52 13 77 23 68 25 246 3 395 -10 68 -22 132 -27 141 -5 9 -9 25 -9 36 0 10 -2 38 -5 62 -2 23 0 42 5 42 18 0 164 76 239 124 172 111 271 180 298 210 16 17 73 74 126 126 54 52 117 124 141 160 24 36 55 80 69 99 44 58 26 83 -28 40z m-972 -231 c47 -21 68 -73 74 -179 4 -80 2 -100 -13 -123 -44 -67 -90 -58 -137 27 -29 54 -33 71 -32 132 0 73 19 125 51 144 23 13 27 13 57 -1z m70 -648 c46 -289 49 -331 37 -471 -6 -74 -18 -165 -26 -203 -16 -76 -55 -208 -64 -216 -4 -3 -31 -36 -62 -75 -119 -149 -516 -511 -538 -490 -2 3 -6 144 -7 313 -3 325 -5 348 -29 405 -25 61 -28 136 -8 197 l18 55 54 0 c30 0 55 5 57 10 4 13 -111 85 -135 85 -42 0 -44 23 -12 137 17 59 40 151 52 203 12 52 29 103 38 113 20 21 80 26 379 32 112 2 207 6 210 9 12 13 21 -13 36 -104z"/>
</g>
</svg>
