<?xml version="1.0" standalone="no"?>
<!DOCTYPE svg PUBLIC "-//W3C//DTD SVG 20010904//EN" "http://www.w3.org/TR/2001/REC-SVG-20010904/DTD/svg10.dtd">
<svg xmlns="http://www.w3.org/2000/svg" version="1.0" width="360.000000pt" height="360.000000pt" viewBox="0 0 360.000000 360.000000" preserveAspectRatio="xMidYMid meet">

<g transform="translate(0.000000,360.000000) scale(0.100000,-0.100000)" fill="#000000" stroke="none">
<path d="M1775 3310 c-3 -5 -20 -10 -36 -10 -17 0 -32 -6 -35 -15 -4 -9 -12 -14 -18 -13 -15 4 -53 -35 -88 -89 -24 -37 -28 -53 -28 -117 0 -41 5 -78 10 -81 6 -3 10 -21 10 -40 0 -41 66 -145 93 -145 9 0 17 -4 17 -10 0 -5 23 -10 50 -10 l50 0 0 -65 0 -65 -35 0 c-19 0 -35 -4 -35 -10 0 -6 -33 -10 -79 -10 -44 0 -83 -4 -86 -10 -4 -6 -108 -10 -281 -10 -176 0 -274 -4 -274 -10 0 -6 -68 -10 -185 -10 l-185 0 0 -28 c0 -49 24 -53 230 -48 102 3 201 6 220 6 19 0 85 1 145 0 61 0 178 5 260 11 83 6 184 12 225 13 l75 1 -2 -465 c-1 -522 -2 -530 -12 -530 -4 0 -25 -24 -46 -52 -22 -29 -52 -66 -67 -82 -16 -16 -28 -33 -28 -37 0 -5 -18 -28 -40 -51 -23 -22 -48 -54 -58 -70 -9 -15 -20 -28 -24 -28 -4 0 -8 -6 -8 -13 0 -7 -9 -18 -20 -25 -11 -7 -20 -17 -20 -22 0 -5 -23 -33 -51 -62 -28 -29 -57 -65 -64 -79 -8 -14 -32 -42 -54 -62 -23 -20 -41 -41 -41 -47 0 -5 -4 -10 -10 -10 -5 0 -10 -6 -10 -13 0 -7 -9 -19 -20 -27 -11 -8 -20 -17 -20 -21 0 -9 -66 -85 -142 -163 -38 -38 -68 -71 -68 -73 0 -3 -13 -16 -30 -30 -16 -13 -30 -31 -30 -38 0 -7 -4 -15 -9 -17 -9 -3 -125 -130 -176 -191 -16 -20 -35 -37 -41 -37 -21 0 -44 -37 -44 -68 0 -43 42 -116 69 -120 36 -6 51 16 50 68 -2 41 2 53 29 81 18 19 32 38 32 42 0 5 6 14 13 21 6 7 35 39 62 70 28 32 66 75 85 95 19 21 51 58 70 82 19 24 70 79 113 123 42 44 77 84 77 89 0 5 6 14 13 21 6 7 23 28 37 46 22 30 145 174 178 208 7 8 25 30 40 50 15 21 32 42 37 48 6 6 21 26 35 44 23 31 43 56 92 114 67 80 107 137 123 174 10 23 22 42 26 42 4 0 23 -25 41 -55 18 -30 36 -55 40 -55 5 0 8 -6 8 -12 0 -7 18 -33 40 -58 22 -24 40 -50 40 -57 0 -7 5 -13 10 -13 6 0 10 -7 10 -15 0 -8 5 -15 10 -15 6 0 10 -6 10 -14 0 -8 6 -16 14 -19 8 -3 33 -34 55 -69 22 -35 49 -73 60 -85 12 -12 21 -28 21 -34 0 -7 14 -25 30 -41 17 -15 30 -35 30 -42 0 -8 4 -16 8 -18 11 -4 72 -94 72 -106 0 -5 11 -18 25 -28 14 -10 25 -24 25 -30 0 -6 17 -29 38 -51 20 -21 44 -52 52 -68 8 -16 27 -43 43 -59 15 -16 27 -34 27 -40 0 -6 9 -18 20 -26 11 -8 20 -21 20 -30 0 -8 9 -21 20 -28 11 -6 28 -29 39 -49 11 -21 30 -50 43 -65 13 -14 32 -39 43 -54 11 -15 26 -33 33 -40 6 -7 12 -15 12 -19 0 -9 20 -28 51 -49 22 -14 48 -17 145 -16 66 1 131 -3 146 -9 22 -8 31 -7 43 5 22 22 19 37 -15 67 -28 25 -36 27 -125 27 -57 0 -95 4 -95 10 0 6 -12 10 -27 10 -28 0 -83 38 -83 58 0 5 -22 33 -50 61 -27 28 -50 55 -50 60 0 5 -16 26 -35 47 -19 20 -35 41 -35 46 0 6 -13 23 -30 38 -16 15 -30 34 -30 42 0 7 -9 20 -20 28 -11 8 -20 20 -20 27 0 7 -4 13 -10 13 -5 0 -10 6 -10 13 0 7 -9 19 -20 27 -11 8 -20 19 -20 25 0 5 -20 31 -45 57 -25 27 -45 55 -45 63 0 8 -4 15 -10 15 -5 0 -10 4 -10 10 0 5 -18 33 -40 62 -22 29 -40 58 -40 63 0 6 -9 17 -20 25 -11 8 -20 21 -20 29 0 7 -8 21 -19 30 -10 9 -34 41 -54 71 -20 30 -49 71 -66 90 -17 19 -31 40 -31 45 0 6 -9 17 -20 25 -11 8 -20 21 -20 28 0 8 -14 27 -30 42 -17 15 -30 32 -30 37 0 4 -25 34 -55 67 l-54 58 -5 432 c-2 237 -7 456 -11 487 -6 51 -4 59 19 84 14 15 26 23 26 16 0 -7 25 -11 74 -11 41 0 78 -4 81 -10 3 -5 44 -10 91 -10 49 0 84 -4 84 -10 0 -14 327 -14 335 0 4 6 90 10 226 10 239 0 249 2 249 54 0 31 23 29 -285 26 -126 -1 -234 -6 -239 -11 -13 -12 -269 -12 -281 0 -6 6 -66 12 -135 15 -69 2 -148 8 -177 11 l-52 7 1 54 c1 49 5 56 39 84 21 17 46 47 54 68 9 20 21 45 26 54 5 10 9 31 9 46 0 40 37 72 82 72 28 0 38 5 43 20 8 24 -1 40 -21 40 -8 0 -14 5 -14 10 0 6 -20 10 -45 10 -38 0 -45 3 -45 19 0 11 -4 23 -10 26 -5 3 -10 15 -10 26 0 26 -29 69 -45 69 -8 0 -22 11 -33 25 -17 21 -28 25 -75 25 -31 0 -59 -4 -62 -10z m123 -146 c7 -14 12 -33 12 -42 0 -10 5 -23 11 -29 24 -24 -15 -167 -58 -210 -35 -36 -103 -29 -150 14 -7 6 -13 16 -13 22 0 6 -4 19 -9 29 -5 9 -14 35 -20 57 -6 22 -13 49 -16 61 -3 13 1 26 10 34 8 7 15 21 15 31 0 26 60 79 90 79 14 0 31 4 39 9 19 12 75 -22 89 -55z"/>
</g>
</svg>
