<?xml version="1.0" standalone="no"?>
<!DOCTYPE svg PUBLIC "-//W3C//DTD SVG 20010904//EN" "http://www.w3.org/TR/2001/REC-SVG-20010904/DTD/svg10.dtd">
<svg xmlns="http://www.w3.org/2000/svg" version="1.0" width="360.000000pt" height="360.000000pt" viewBox="0 0 360.000000 360.000000" preserveAspectRatio="xMidYMid meet">

<g transform="translate(0.000000,360.000000) scale(0.100000,-0.100000)" fill="#000000" stroke="none">
<path d="M633 3524 c-8 -21 194 -419 275 -542 38 -59 145 -159 242 -227 73 -52 282 -158 324 -165 24 -4 38 -19 72 -75 62 -100 191 -403 209 -491 3 -12 14 -42 25 -67 11 -24 24 -73 29 -108 20 -145 9 -498 -24 -744 -30 -230 -47 -347 -51 -368 -3 -12 -9 -67 -14 -122 -14 -149 -28 -257 -41 -324 -10 -48 -10 -62 0 -75 26 -32 62 -9 66 42 2 15 10 101 20 192 9 91 19 185 21 210 2 25 8 74 14 110 5 36 21 148 35 250 33 249 34 254 29 110 -2 -69 -9 -152 -15 -185 -6 -33 -14 -89 -19 -125 -4 -36 -10 -76 -14 -90 -10 -40 -26 -265 -29 -390 -2 -114 -2 -115 22 -118 13 -2 28 1 33 6 6 6 10 61 10 123 0 115 16 291 43 474 25 168 43 414 39 530 -4 116 -20 303 -30 345 -3 14 -9 54 -13 90 -8 61 -35 145 -129 405 -70 193 -125 308 -203 422 -16 23 -29 51 -29 62 0 11 -4 23 -10 26 -5 3 -18 35 -29 70 -11 35 -27 77 -34 92 -8 15 -18 47 -22 70 -9 57 -38 93 -199 243 -97 91 -164 144 -220 176 -45 25 -88 50 -96 55 -43 25 -196 99 -206 99 -7 0 -14 7 -18 15 -7 20 -55 19 -63 -1z m175 -125 c31 -17 88 -48 125 -68 82 -43 202 -133 202 -150 0 -7 -15 -21 -34 -30 -76 -36 -96 -110 -55 -200 l25 -55 -23 20 c-69 58 -106 110 -182 259 -31 61 -72 139 -91 175 -50 94 -50 94 33 49z m430 -333 c21 -13 55 -49 75 -79 69 -103 71 -123 17 -156 -24 -14 -39 -17 -67 -11 -74 17 -162 115 -170 192 -5 40 -2 47 23 67 34 27 65 23 122 -13z m152 -320 c5 -13 14 -27 19 -31 19 -11 12 -26 -6 -15 -10 5 -36 17 -58 26 l-40 16 30 13 c42 19 44 18 55 -9z m481 -1429 c-10 -9 -11 -8 -5 6 3 10 9 15 12 12 3 -3 0 -11 -7 -18z m9 -27 c0 -5 -2 -10 -4 -10 -3 0 -8 5 -11 10 -3 6 -1 10 4 10 6 0 11 -4 11 -10z"/>
</g>
</svg>
