<?xml version="1.0" standalone="no"?>
<!DOCTYPE svg PUBLIC "-//W3C//DTD SVG 20010904//EN" "http://www.w3.org/TR/2001/REC-SVG-20010904/DTD/svg10.dtd">
<svg xmlns="http://www.w3.org/2000/svg" version="1.0" width="360.000000pt" height="360.000000pt" viewBox="0 0 360.000000 360.000000" preserveAspectRatio="xMidYMid meet">

<g transform="translate(0.000000,360.000000) scale(0.100000,-0.100000)" fill="#000000" stroke="none">
<path d="M846 3572 c-14 -23 103 -141 233 -237 78 -58 122 -105 202 -217 72 -100 85 -126 47 -91 -17 16 -42 23 -93 28 -62 6 -77 4 -127 -18 -54 -24 -58 -28 -72 -78 -20 -68 -20 -74 5 -127 15 -30 42 -59 83 -89 73 -54 92 -62 175 -74 64 -9 65 -9 104 22 l39 32 31 -31 c26 -26 30 -38 29 -76 -1 -25 7 -101 17 -168 21 -136 25 -168 46 -373 21 -206 53 -492 70 -619 18 -140 19 -173 10 -267 -9 -88 4 -110 38 -68 l20 24 -7 -30 c-5 -16 -12 -55 -16 -85 -11 -67 -18 -94 -80 -290 -27 -85 -63 -204 -80 -265 -72 -259 -92 -306 -155 -365 -31 -29 -32 -48 -2 -59 28 -11 46 2 91 60 36 48 65 131 131 379 20 74 53 187 74 250 21 63 48 160 61 215 12 55 33 145 46 200 12 55 35 165 50 245 23 118 29 140 36 115 11 -42 68 -400 74 -460 2 -27 9 -72 14 -100 5 -27 14 -93 20 -146 5 -54 21 -173 35 -265 14 -93 33 -221 41 -284 13 -96 20 -122 43 -155 31 -43 76 -59 87 -31 3 8 -11 48 -31 89 -24 48 -38 92 -40 123 -2 27 -8 69 -13 94 -15 61 -48 290 -72 485 -22 179 -25 202 -45 330 -8 50 -23 149 -35 220 -11 72 -28 159 -37 195 -11 47 -17 117 -18 250 -3 238 -18 314 -109 525 -22 51 -105 180 -162 250 -18 22 -37 60 -44 85 -37 142 -90 249 -196 400 -89 126 -136 179 -204 233 -69 55 -93 75 -144 119 -17 15 -55 40 -85 55 -29 15 -56 33 -58 40 -6 15 -19 17 -27 5z m404 -596 c58 -10 140 -100 140 -154 0 -36 -27 -79 -54 -86 -38 -9 -100 8 -156 44 -110 71 -120 147 -25 198 11 6 29 9 40 7 11 -2 36 -6 55 -9z m224 -211 c3 -9 0 -15 -9 -15 -9 0 -12 6 -9 15 4 8 7 15 9 15 2 0 5 -7 9 -15z m155 -263 c128 -190 181 -376 181 -642 0 -176 -6 -227 -46 -442 -24 -126 -37 -166 -41 -120 -1 9 -13 96 -27 192 -14 96 -28 200 -31 230 -3 30 -8 62 -10 70 -2 8 -11 92 -20 185 -8 94 -19 199 -25 235 -33 237 -44 364 -30 355 5 -3 27 -32 49 -63z"/>
</g>
</svg>
