<?xml version="1.0" standalone="no"?>
<!DOCTYPE svg PUBLIC "-//W3C//DTD SVG 20010904//EN" "http://www.w3.org/TR/2001/REC-SVG-20010904/DTD/svg10.dtd">
<svg xmlns="http://www.w3.org/2000/svg" version="1.0" width="360.000000pt" height="360.000000pt" viewBox="0 0 360.000000 360.000000" preserveAspectRatio="xMidYMid meet">

<g transform="translate(0.000000,360.000000) scale(0.100000,-0.100000)" fill="#000000" stroke="none">
<path d="M1550 3426 c-105 -58 -136 -270 -56 -393 18 -29 57 -50 122 -68 6 -2 15 -30 18 -62 4 -32 9 -72 12 -89 l6 -31 -101 -7 c-276 -20 -445 -29 -536 -29 -104 -1 -402 19 -442 29 -18 5 -25 1 -32 -17 -14 -39 3 -47 117 -54 59 -3 136 -10 172 -15 92 -13 205 -13 355 -1 72 6 182 11 245 12 63 2 133 8 155 15 68 20 69 20 73 -6 3 -14 5 -126 5 -250 -1 -337 -31 -638 -69 -681 -8 -8 -14 -22 -14 -29 0 -19 -123 -251 -178 -335 -25 -38 -67 -106 -93 -151 -27 -45 -70 -108 -97 -140 -27 -32 -79 -102 -115 -154 -37 -52 -92 -129 -122 -170 -30 -41 -54 -79 -55 -84 0 -10 -58 -83 -108 -136 -23 -25 -30 -40 -26 -55 10 -30 23 -35 79 -29 56 6 165 -10 206 -31 24 -13 28 -12 50 11 36 38 17 55 -82 76 -46 9 -96 17 -111 18 -33 0 -34 4 -9 38 10 15 40 63 66 107 54 88 107 164 235 335 47 63 103 144 125 180 21 36 62 101 90 145 29 44 72 116 95 160 23 44 58 104 77 134 l35 54 46 -80 c51 -88 105 -165 197 -282 61 -77 148 -200 296 -416 45 -66 85 -122 88 -125 4 -3 21 -29 39 -58 18 -29 55 -82 83 -118 28 -35 49 -70 46 -78 -15 -37 59 -61 203 -65 85 -2 98 0 114 17 9 11 16 30 14 42 -3 21 -8 22 -113 24 -61 1 -118 7 -127 12 -26 15 -124 131 -184 219 -56 84 -102 148 -184 255 -27 36 -66 91 -87 123 -21 32 -59 84 -85 116 -135 169 -267 358 -308 442 -18 39 -19 45 -5 87 17 49 19 68 36 407 6 132 9 293 6 359 l-5 119 116 -7 c170 -10 404 -8 502 4 47 6 153 15 235 20 178 11 330 39 330 61 0 19 -164 16 -415 -8 -254 -25 -684 -24 -717 0 -7 5 -24 6 -38 3 -21 -5 -25 -2 -33 26 -5 19 -4 53 0 78 5 25 10 55 12 67 1 13 11 32 20 42 22 24 45 87 46 123 0 33 24 58 54 58 26 0 56 28 56 53 0 10 -11 19 -27 23 -21 6 -31 2 -49 -20 l-23 -26 -7 37 c-12 70 -49 117 -124 162 -40 24 -65 26 -100 7z m64 -71 c3 -8 14 -15 24 -15 27 0 68 -57 76 -106 8 -44 -8 -123 -33 -166 -13 -24 -22 -28 -58 -28 -36 0 -46 5 -67 33 -42 55 -56 108 -46 173 9 56 18 74 54 107 23 21 42 22 50 2z"/>
</g>
</svg>
