<?xml version="1.0" standalone="no"?>
<!DOCTYPE svg PUBLIC "-//W3C//DTD SVG 20010904//EN" "http://www.w3.org/TR/2001/REC-SVG-20010904/DTD/svg10.dtd">
<svg xmlns="http://www.w3.org/2000/svg" version="1.0" width="360.000000pt" height="360.000000pt" viewBox="0 0 360.000000 360.000000" preserveAspectRatio="xMidYMid meet">

<g transform="translate(0.000000,360.000000) scale(0.100000,-0.100000)" fill="#000000" stroke="none">
<path d="M2056 1998 c-122 -122 -168 -159 -266 -210 -17 -9 -65 -13 -152 -12 -121 1 -127 0 -132 -20 -10 -38 20 -53 121 -60 104 -6 144 4 228 56 57 36 235 177 235 187 0 3 10 12 22 20 20 12 24 10 59 -29 21 -23 51 -52 67 -64 129 -94 192 -150 192 -171 0 -8 -18 -16 -42 -20 -43 -8 -641 -9 -821 -2 -99 4 -137 -7 -137 -36 0 -17 -77 -164 -105 -202 -13 -16 -37 -59 -55 -95 -18 -36 -42 -78 -54 -95 -24 -31 -85 -134 -215 -363 -89 -156 -94 -164 -129 -219 -15 -22 -49 -76 -77 -118 -27 -43 -62 -92 -77 -110 -32 -37 -36 -69 -10 -80 9 -4 49 -9 87 -11 86 -3 212 -42 219 -66 6 -26 25 -22 32 8 16 62 -44 104 -179 125 -40 6 -74 13 -75 14 -2 2 14 30 36 62 93 138 134 206 197 328 38 72 76 144 85 160 68 119 124 212 148 248 16 23 37 58 47 77 10 19 21 37 24 40 3 3 32 43 64 90 85 126 85 126 99 112 15 -15 115 -173 219 -347 40 -66 104 -163 143 -215 39 -52 84 -115 101 -140 54 -81 190 -263 270 -360 42 -52 84 -110 92 -128 7 -18 19 -35 26 -37 28 -8 283 -14 295 -6 20 12 11 54 -13 57 -11 2 -63 8 -116 13 -117 12 -135 20 -179 79 -19 26 -56 70 -82 98 -49 52 -69 78 -135 174 -20 30 -40 57 -43 60 -3 3 -30 40 -60 84 -30 43 -73 101 -96 130 -22 28 -66 94 -98 146 -89 147 -177 280 -209 315 -30 33 -54 78 -61 113 l-6 33 58 -7 c68 -8 646 -9 747 0 39 3 93 9 121 14 49 8 52 8 52 -13 0 -33 51 -115 84 -135 15 -9 53 -22 83 -29 49 -11 56 -16 63 -44 11 -43 28 -44 47 -3 12 26 28 39 61 52 25 10 63 37 89 65 l45 48 0 75 c0 73 -1 76 -35 111 -24 24 -46 36 -68 37 -71 4 -83 6 -98 12 -19 8 -191 -56 -228 -86 -22 -16 -27 -17 -36 -5 -37 52 -103 113 -199 187 -56 43 -105 94 -116 119 -6 15 -25 38 -41 50 l-30 22 -83 -83z m844 -304 c20 -20 21 -89 3 -123 -26 -50 -66 -69 -144 -70 -76 -1 -119 21 -153 78 l-20 34 23 18 c13 11 29 19 37 19 8 0 14 4 14 8 0 12 65 40 115 50 42 9 110 1 125 -14z"/>
</g>
</svg>
