<?xml version="1.0" standalone="no"?>
<!DOCTYPE svg PUBLIC "-//W3C//DTD SVG 20010904//EN" "http://www.w3.org/TR/2001/REC-SVG-20010904/DTD/svg10.dtd">
<svg xmlns="http://www.w3.org/2000/svg" version="1.0" width="360.000000pt" height="360.000000pt" viewBox="0 0 360.000000 360.000000" preserveAspectRatio="xMidYMid meet">

<g transform="translate(0.000000,360.000000) scale(0.100000,-0.100000)" fill="#000000" stroke="none">
<path d="M1785 3514 c-69 -36 -106 -91 -125 -191 -21 -105 9 -193 89 -266 46 -42 51 -54 35 -86 -7 -14 -10 -29 -7 -35 10 -15 3 -309 -8 -391 -16 -114 -30 -348 -33 -532 l-2 -173 -83 -162 c-46 -90 -89 -170 -96 -178 -14 -17 -125 -198 -125 -205 0 -2 -14 -26 -32 -52 -72 -109 -143 -220 -163 -253 -12 -19 -33 -53 -47 -75 -22 -35 -71 -121 -102 -180 -6 -11 -25 -40 -41 -65 -17 -25 -43 -70 -59 -100 -16 -30 -41 -71 -56 -90 -69 -89 -59 -107 75 -134 50 -10 106 -27 126 -38 41 -23 67 -21 83 4 8 14 7 21 -6 34 -18 18 -182 83 -211 84 -16 0 -12 11 24 78 23 42 57 100 74 127 18 28 71 118 119 200 48 83 92 159 99 170 22 36 113 179 160 252 26 40 47 75 47 77 0 3 14 25 30 49 17 25 30 48 30 51 0 4 11 19 24 33 26 28 25 27 82 151 31 68 39 80 45 63 9 -22 45 -45 53 -33 3 5 9 52 15 105 5 53 15 104 21 114 11 17 11 17 6 0 -7 -21 6 -52 58 -137 21 -36 59 -110 83 -164 25 -55 57 -118 72 -140 59 -87 126 -200 201 -341 55 -103 131 -233 185 -315 70 -107 144 -235 175 -304 37 -81 73 -106 155 -106 31 0 81 -7 111 -16 69 -20 108 -16 112 12 3 20 -37 57 -63 59 -5 1 -37 4 -70 9 -33 4 -75 10 -94 12 -50 5 -81 40 -167 188 -42 72 -89 149 -105 171 -16 22 -46 69 -66 105 -20 36 -44 76 -53 90 -10 14 -32 54 -51 90 -18 36 -48 88 -65 116 -18 28 -49 82 -70 120 -20 38 -47 83 -60 99 -12 17 -58 102 -103 190 -44 88 -88 169 -98 180 -24 27 -55 73 -72 107 -11 22 -12 36 -3 65 14 49 31 154 36 223 2 30 9 75 14 100 6 25 13 92 17 150 17 284 13 350 -36 481 -37 102 -44 126 -34 117 10 -10 57 15 100 53 26 23 40 48 56 101 18 62 24 71 54 84 62 26 58 50 -10 56 -38 4 -40 6 -47 45 -8 48 -29 85 -75 131 -37 37 -79 42 -128 16z m100 -88 c90 -119 48 -331 -65 -323 -29 2 -39 9 -65 51 -27 44 -30 58 -30 125 1 82 12 113 53 146 55 44 74 44 107 1z m-38 -758 c-3 -8 -6 -5 -6 6 -1 11 2 17 5 13 3 -3 4 -12 1 -19z m-7 -206 c-6 -92 -18 -201 -25 -242 l-13 -75 5 105 c2 58 11 163 19 233 8 71 14 139 15 150 0 12 3 16 6 9 3 -7 0 -88 -7 -180z"/>
</g>
</svg>
