<?xml version="1.0" standalone="no"?>
<!DOCTYPE svg PUBLIC "-//W3C//DTD SVG 20010904//EN" "http://www.w3.org/TR/2001/REC-SVG-20010904/DTD/svg10.dtd">
<svg xmlns="http://www.w3.org/2000/svg" version="1.0" width="360.000000pt" height="360.000000pt" viewBox="0 0 360.000000 360.000000" preserveAspectRatio="xMidYMid meet">

<g transform="translate(0.000000,360.000000) scale(0.100000,-0.100000)" fill="#000000" stroke="none">
<path d="M1680 2125 c-25 -7 -58 -19 -75 -26 -16 -7 -32 -13 -35 -14 -115 -40 -153 -94 -338 -485 -46 -95 -114 -218 -175 -312 -29 -46 -97 -162 -152 -258 -54 -96 -124 -215 -156 -263 -33 -49 -59 -95 -59 -102 0 -26 34 -40 102 -42 81 -2 131 -17 159 -46 l20 -22 19 25 c33 43 25 58 -43 84 -26 10 -75 20 -107 23 -67 6 -73 16 -37 60 13 15 39 57 59 93 19 36 54 99 77 140 24 41 59 104 78 140 20 36 64 110 98 165 93 150 113 186 193 354 91 192 162 299 162 245 0 -21 52 -95 123 -177 33 -37 81 -94 106 -127 25 -32 84 -105 130 -162 46 -57 101 -128 120 -159 20 -30 54 -76 75 -102 l38 -46 -42 -93 c-24 -51 -57 -128 -75 -171 -42 -104 -54 -115 -137 -119 -38 -2 -68 0 -68 4 0 4 -13 2 -30 -3 -32 -12 -42 -48 -17 -66 18 -13 235 -8 252 7 8 6 17 22 20 33 8 27 54 155 65 182 26 61 72 155 75 155 22 0 181 -214 231 -310 14 -27 31 -53 37 -59 38 -31 302 -41 302 -11 0 16 -63 62 -75 55 -4 -3 -38 -5 -74 -6 -64 -2 -69 0 -103 32 -19 19 -60 72 -91 119 -31 47 -79 110 -107 140 -28 30 -60 69 -72 85 l-21 30 23 44 c13 27 25 40 29 33 4 -7 16 -12 26 -12 14 0 21 -10 26 -36 10 -54 70 -94 140 -94 70 0 92 10 145 65 66 69 89 116 89 180 0 88 -59 195 -119 216 -22 8 -29 19 -40 67 -35 156 -95 260 -215 376 -49 48 -162 125 -189 130 -7 1 -34 9 -62 18 -94 31 -238 41 -305 23z m268 -84 c123 -38 277 -160 354 -280 34 -55 34 -62 4 -126 -55 -114 -116 -247 -116 -252 0 -5 -90 -194 -97 -202 -6 -8 -45 34 -61 64 -19 37 -148 209 -207 275 -24 28 -62 73 -83 102 -22 29 -50 64 -63 78 -39 40 -129 154 -129 164 0 4 -14 25 -30 46 -24 30 -28 41 -17 47 7 4 23 23 36 40 15 22 35 36 64 43 23 6 53 15 67 20 39 14 208 3 278 -19z m440 -506 c-21 -12 -80 -45 -82 -45 -2 0 11 27 28 60 l31 59 13 -36 c6 -20 11 -37 10 -38z m93 -110 c66 -35 78 -138 26 -225 -42 -69 -77 -90 -133 -78 -32 7 -45 16 -60 43 -15 29 -17 39 -6 55 16 26 15 30 -4 30 -14 0 -16 10 -12 71 5 66 8 74 39 101 30 25 40 29 77 24 23 -3 56 -13 73 -21z"/>
</g>
</svg>
