<?xml version="1.0" standalone="no"?>
<!DOCTYPE svg PUBLIC "-//W3C//DTD SVG 20010904//EN" "http://www.w3.org/TR/2001/REC-SVG-20010904/DTD/svg10.dtd">
<svg xmlns="http://www.w3.org/2000/svg" version="1.0" width="360.000000pt" height="360.000000pt" viewBox="0 0 360.000000 360.000000" preserveAspectRatio="xMidYMid meet">

<g transform="translate(0.000000,360.000000) scale(0.100000,-0.100000)" fill="#000000" stroke="none">
<path d="M1744 2365 c-4 -8 -1 -22 6 -31 12 -14 130 -73 278 -139 34 -15 60 -30 58 -32 -8 -8 -380 -2 -424 6 -68 13 -102 -2 -142 -65 -72 -112 -230 -369 -330 -534 -35 -58 -92 -152 -127 -208 -35 -57 -63 -105 -63 -107 0 -4 -117 -185 -161 -248 -19 -27 -62 -85 -96 -128 -87 -110 -85 -139 12 -138 78 0 124 -6 216 -33 81 -22 113 -20 107 9 -4 24 -91 66 -153 75 -125 17 -145 21 -145 25 0 3 33 53 73 111 92 134 206 313 238 372 13 25 29 52 35 60 7 8 23 33 35 56 13 22 50 83 82 135 142 229 227 370 227 376 0 4 8 16 19 27 10 12 39 57 65 101 25 44 46 74 46 67 0 -6 31 -58 68 -114 38 -57 95 -150 126 -208 73 -132 142 -249 219 -368 33 -50 71 -113 86 -140 14 -26 39 -65 54 -87 60 -84 248 -377 270 -420 26 -52 37 -56 163 -56 49 0 115 -5 147 -11 50 -9 61 -9 75 6 13 12 14 20 6 33 -14 22 -52 32 -138 34 -167 4 -181 11 -251 120 -16 26 -79 120 -139 210 -59 90 -128 199 -153 244 -24 44 -55 91 -68 105 -13 14 -40 57 -60 95 -21 39 -49 86 -64 105 -47 63 -71 101 -85 134 -17 42 -159 257 -180 275 -9 8 -16 16 -16 20 0 7 547 5 600 -2 131 -18 252 -40 290 -53 25 -8 58 -14 73 -14 16 0 37 -5 48 -10 14 -8 27 -7 49 5 16 9 30 19 30 24 0 4 10 12 23 18 20 9 26 6 51 -28 29 -38 116 -85 140 -76 6 2 22 -13 36 -34 38 -61 69 -47 61 27 0 5 27 16 61 23 51 10 70 20 104 55 77 77 70 159 -22 246 -51 48 -55 50 -112 50 -33 0 -90 -9 -128 -21 -70 -22 -98 -44 -154 -121 -15 -21 -30 -35 -33 -31 -4 3 -17 7 -29 9 -13 2 -43 8 -68 14 -25 7 -69 16 -97 21 -130 23 -171 29 -213 35 -25 4 -55 10 -68 15 -19 8 -54 14 -182 34 -125 20 -195 38 -217 55 -17 13 -33 17 -53 13 -17 -3 -42 1 -61 11 -39 20 -38 20 -45 1z m1359 -107 c12 -6 29 -15 37 -20 8 -5 22 -11 31 -14 22 -8 39 -47 39 -90 0 -25 -8 -42 -26 -59 -41 -38 -178 -60 -234 -37 -39 15 -90 67 -90 91 0 81 165 169 243 129z m-852 -53 c21 -8 76 -19 121 -25 46 -7 85 -14 87 -16 2 -2 -34 -4 -80 -4 -68 0 -100 6 -168 30 -47 17 -87 33 -90 37 -9 9 87 -7 130 -22z"/>
</g>
</svg>
