<?xml version="1.0" standalone="no"?>
<!DOCTYPE svg PUBLIC "-//W3C//DTD SVG 20010904//EN" "http://www.w3.org/TR/2001/REC-SVG-20010904/DTD/svg10.dtd">
<svg xmlns="http://www.w3.org/2000/svg" version="1.0" width="360.000000pt" height="360.000000pt" viewBox="0 0 360.000000 360.000000" preserveAspectRatio="xMidYMid meet">

<g transform="translate(0.000000,360.000000) scale(0.100000,-0.100000)" fill="#000000" stroke="none">
<path d="M1299 3512 c-54 -17 -89 -88 -92 -189 l-2 -72 -55 52 c-108 103 -117 109 -139 102 -30 -9 -29 -60 2 -76 25 -13 190 -149 195 -161 2 -5 9 -8 16 -8 7 0 32 -27 56 -59 45 -63 92 -91 151 -91 26 0 32 -6 50 -47 32 -75 34 -104 9 -154 -36 -69 -73 -118 -146 -195 -96 -98 -170 -151 -250 -178 -38 -13 -106 -37 -151 -54 -45 -16 -83 -28 -86 -26 -2 2 -11 -4 -21 -15 -13 -14 -14 -24 -7 -45 13 -32 28 -33 85 -2 24 13 78 36 118 51 125 47 153 62 236 125 93 70 201 183 242 253 15 27 31 44 34 38 9 -14 24 -198 31 -386 7 -183 -24 -457 -58 -509 -8 -11 -49 -95 -91 -186 -124 -263 -140 -293 -289 -532 -78 -126 -155 -250 -172 -278 -103 -171 -147 -240 -159 -252 -26 -26 -37 -58 -27 -75 6 -11 48 -28 113 -46 56 -16 127 -35 157 -44 57 -16 70 -10 71 29 0 18 -63 64 -90 66 -48 4 -160 37 -160 47 0 7 8 23 18 36 10 13 42 67 72 119 30 52 85 145 124 205 182 289 242 391 305 520 81 167 97 197 148 293 l40 74 20 -34 c10 -18 30 -53 43 -78 12 -25 51 -88 85 -140 35 -52 75 -117 90 -145 15 -27 39 -66 54 -85 14 -19 40 -55 56 -80 16 -25 43 -63 61 -85 18 -23 43 -59 56 -81 56 -96 98 -163 176 -274 45 -65 82 -122 82 -126 0 -4 11 -22 25 -40 14 -18 25 -37 25 -42 0 -5 9 -17 20 -27 11 -10 20 -23 20 -29 0 -6 11 -23 25 -38 24 -26 30 -27 108 -26 45 0 112 -3 150 -7 65 -8 67 -7 67 14 0 47 -37 62 -170 68 -82 4 -86 6 -122 41 -21 20 -64 77 -95 126 -31 50 -72 111 -90 136 -19 25 -79 113 -134 195 -54 83 -126 188 -159 235 -34 47 -80 117 -103 155 -23 39 -44 72 -47 75 -3 3 -31 43 -61 90 -51 79 -65 107 -100 199 -7 18 -24 47 -37 63 -23 27 -24 33 -14 81 31 147 33 193 22 422 -9 198 -16 275 -34 380 -11 58 -31 116 -61 172 -33 60 -33 62 -14 75 25 17 68 123 69 168 0 19 -4 50 -9 67 -8 29 -6 36 25 70 40 43 33 57 -25 51 -36 -3 -42 -1 -52 24 -6 14 -18 33 -27 42 -33 29 -169 68 -203 58z m113 -97 c41 -15 51 -24 73 -69 48 -99 43 -230 -10 -254 -57 -26 -108 -5 -153 64 -50 74 -66 134 -52 196 19 92 38 100 142 63z"/>
</g>
</svg>
