<?xml version="1.0" standalone="no"?>
<!DOCTYPE svg PUBLIC "-//W3C//DTD SVG 20010904//EN" "http://www.w3.org/TR/2001/REC-SVG-20010904/DTD/svg10.dtd">
<svg xmlns="http://www.w3.org/2000/svg" version="1.0" width="360.000000pt" height="360.000000pt" viewBox="0 0 360.000000 360.000000" preserveAspectRatio="xMidYMid meet">

<g transform="translate(0.000000,360.000000) scale(0.100000,-0.100000)" fill="#000000" stroke="none">
<path d="M1216 3533 c-14 -15 -4 -47 28 -86 95 -118 174 -279 268 -546 38 -109 39 -116 27 -160 -32 -114 0 -233 90 -333 20 -23 33 -28 69 -28 37 0 43 -3 38 -18 -4 -10 5 -64 19 -120 32 -128 32 -196 0 -414 -28 -197 -49 -299 -75 -379 -28 -84 -103 -235 -158 -319 -101 -153 -142 -218 -142 -223 0 -3 -15 -27 -32 -54 -18 -27 -44 -68 -58 -91 -86 -145 -269 -411 -306 -447 -66 -65 -46 -80 115 -89 80 -4 135 -11 155 -21 28 -15 32 -14 43 2 32 42 6 67 -89 82 -40 6 -90 12 -111 14 l-37 2 23 35 c82 121 167 257 167 266 0 6 8 18 19 28 10 9 28 37 41 61 13 25 27 45 32 45 4 0 8 9 8 19 0 11 4 23 10 26 13 8 80 110 80 122 0 5 9 18 20 28 11 10 19 23 17 28 -2 6 6 20 18 33 11 12 27 35 35 51 8 15 23 39 33 53 25 33 157 263 157 272 0 5 4 8 8 8 8 0 41 -47 172 -245 73 -110 167 -269 175 -297 4 -13 21 -48 37 -78 32 -57 230 -358 277 -420 15 -19 32 -47 38 -62 13 -28 20 -30 128 -43 28 -3 71 -11 96 -17 47 -11 99 -5 99 12 0 28 -42 48 -136 65 -55 9 -108 21 -119 27 -11 5 -33 32 -50 60 -16 28 -35 56 -41 62 -5 6 -39 54 -74 106 -35 52 -81 120 -102 151 -20 31 -56 94 -79 140 -23 46 -57 108 -75 137 -19 29 -34 54 -34 57 0 2 -28 47 -63 98 -82 120 -187 292 -187 306 0 5 -9 16 -20 24 -17 12 -18 19 -10 47 8 29 44 247 65 395 17 119 19 257 7 390 -13 141 -13 144 7 172 28 37 37 120 21 178 -12 43 -11 47 10 70 13 14 20 31 17 39 -8 20 -46 21 -61 1 -9 -12 -19 -7 -62 35 -40 38 -55 62 -68 107 -24 80 -48 147 -55 153 -4 3 -17 28 -31 55 -24 51 -139 213 -165 235 -8 7 -15 25 -15 41 0 16 -4 29 -8 29 -5 0 -19 9 -32 20 -13 11 -33 20 -46 20 -15 0 -32 12 -46 31 -24 33 -71 63 -82 52z m278 -361 c54 -81 103 -179 129 -259 l24 -71 -29 -4 c-23 -4 -28 -1 -28 16 0 24 -21 85 -55 166 -103 245 -103 243 -41 152z m176 -424 c17 -39 70 -280 64 -289 -10 -17 -50 -9 -71 14 -39 42 -72 120 -74 172 -3 92 54 165 81 103z m119 -114 c21 -55 28 -114 13 -114 -5 0 -16 30 -25 68 -9 37 -20 78 -23 91 -13 46 14 12 35 -45z"/>
</g>
</svg>
