<?xml version="1.0" standalone="no"?>
<!DOCTYPE svg PUBLIC "-//W3C//DTD SVG 20010904//EN" "http://www.w3.org/TR/2001/REC-SVG-20010904/DTD/svg10.dtd">
<svg xmlns="http://www.w3.org/2000/svg" version="1.0" width="360.000000pt" height="360.000000pt" viewBox="0 0 360.000000 360.000000" preserveAspectRatio="xMidYMid meet">

<g transform="translate(0.000000,360.000000) scale(0.100000,-0.100000)" fill="#000000" stroke="none">
<path d="M1649 3010 c-61 -17 -89 -40 -121 -101 -20 -38 -23 -59 -23 -151 0 -124 11 -148 86 -185 l44 -23 -3 -69 -4 -70 -48 1 c-27 0 -54 -3 -59 -7 -37 -22 -179 -35 -441 -40 -270 -4 -356 3 -504 41 -81 22 -100 24 -107 13 -5 -8 -9 -16 -9 -19 2 -49 295 -112 485 -105 50 2 149 5 220 6 72 1 168 8 215 15 47 8 112 15 145 17 33 2 71 7 84 12 l24 8 -7 -259 c-13 -495 -12 -488 -49 -528 -18 -19 -61 -69 -97 -111 -36 -42 -93 -99 -127 -126 -33 -27 -89 -81 -123 -119 -34 -38 -105 -104 -158 -147 -105 -84 -352 -305 -417 -373 -22 -23 -57 -50 -77 -61 -74 -38 -115 -140 -60 -147 18 -3 35 9 67 44 24 26 43 50 42 54 -5 16 322 311 553 500 259 211 270 220 270 229 0 5 19 21 42 37 41 28 162 146 177 172 6 10 29 -8 84 -62 41 -41 93 -86 114 -99 21 -14 80 -69 132 -123 52 -55 180 -187 285 -294 105 -108 216 -222 247 -255 31 -33 87 -89 125 -124 38 -36 71 -73 74 -84 7 -27 84 -51 101 -31 6 7 8 23 4 36 -9 28 -65 89 -76 82 -7 -4 -514 495 -716 706 -55 58 -155 157 -221 221 -67 64 -126 129 -132 145 -7 17 -10 91 -9 184 1 85 2 240 2 343 l0 189 26 -6 c74 -16 281 -25 562 -24 355 1 449 8 568 38 54 14 95 20 118 15 30 -5 34 -4 31 12 -2 9 -15 24 -30 32 -24 14 -35 14 -110 -2 -124 -25 -238 -31 -623 -31 -302 0 -525 11 -540 26 -2 2 -6 29 -8 60 -3 31 -7 60 -11 66 -3 5 7 12 22 15 56 11 105 63 132 138 23 62 25 79 19 150 -4 45 -14 90 -23 104 -24 37 -125 76 -167 65z m92 -85 c57 -19 35 -243 -29 -291 -29 -23 -79 -17 -112 14 -60 55 -51 203 17 262 34 30 65 34 124 15z"/>
</g>
</svg>
