<?xml version="1.0" standalone="no"?>
<!DOCTYPE svg PUBLIC "-//W3C//DTD SVG 20010904//EN" "http://www.w3.org/TR/2001/REC-SVG-20010904/DTD/svg10.dtd">
<svg xmlns="http://www.w3.org/2000/svg" version="1.0" width="360.000000pt" height="360.000000pt" viewBox="0 0 360.000000 360.000000" preserveAspectRatio="xMidYMid meet">

<g transform="translate(0.000000,360.000000) scale(0.100000,-0.100000)" fill="#000000" stroke="none">
<path d="M1820 2883 c-8 -3 -38 -25 -65 -48 l-51 -43 -23 24 c-28 29 -33 29 -56 4 -15 -17 -16 -24 -7 -45 7 -15 20 -25 32 -25 18 0 20 -4 14 -42 -4 -24 -7 -44 -8 -45 -3 -4 -169 57 -181 67 -8 6 -24 10 -37 8 -28 -4 -37 -50 -16 -76 8 -10 22 -35 31 -56 10 -21 33 -57 51 -80 18 -23 56 -82 84 -132 l51 -90 -40 -105 c-22 -57 -45 -113 -50 -123 -29 -50 -123 -269 -144 -331 -42 -130 -48 -153 -41 -182 4 -15 11 -47 16 -70 5 -23 21 -69 35 -103 31 -75 95 -268 120 -365 l18 -71 -35 -124 c-19 -69 -48 -177 -63 -240 -15 -63 -35 -136 -44 -161 -28 -72 -2 -112 54 -83 33 17 79 18 107 3 17 -9 24 -7 40 9 43 43 1 72 -103 72 l-36 0 12 43 c7 23 18 62 24 87 42 169 63 242 81 295 38 108 38 112 -40 335 -39 113 -79 221 -88 240 -8 19 -19 53 -23 74 -7 39 -5 41 54 101 53 52 240 187 288 206 8 4 42 25 74 48 32 23 60 39 62 38 6 -6 -44 -248 -78 -380 -25 -98 -31 -132 -22 -145 14 -22 45 -18 91 13 20 14 44 25 53 25 22 0 53 36 46 55 -8 20 -66 20 -95 -1 -28 -19 -28 -13 -1 91 20 79 61 279 74 363 7 41 6 44 -23 54 l-30 12 5 245 c5 228 4 245 -13 258 -17 12 -17 14 3 35 34 38 80 120 93 166 17 65 -8 131 -61 167 -40 26 -109 40 -139 28z m76 -73 c54 0 77 -58 52 -130 -26 -75 -109 -170 -148 -170 -36 0 -69 23 -80 55 -12 36 -4 106 16 145 24 48 125 131 132 109 2 -5 15 -9 28 -9z m-270 -195 c21 -5 40 -47 30 -64 -3 -5 10 -26 28 -47 l34 -39 -25 -47 -26 -47 -34 67 c-19 37 -52 90 -72 117 -60 80 -59 77 -5 70 27 -3 59 -8 70 -10z m250 -360 c0 -124 -2 -225 -5 -225 -3 0 -40 70 -82 155 l-77 156 12 52 11 52 40 -3 c27 -2 50 4 70 18 17 11 30 20 30 20 0 0 0 -101 1 -225z m-168 -32 c11 -36 86 -190 128 -261 l19 -33 -27 -22 c-15 -12 -44 -31 -65 -42 -21 -11 -40 -23 -43 -26 -3 -3 -50 -36 -105 -72 -55 -36 -118 -81 -139 -99 -32 -26 -38 -29 -33 -13 18 60 41 124 52 150 7 17 16 40 20 53 4 13 29 70 56 127 27 57 49 107 49 110 0 4 6 21 14 38 8 18 22 53 32 79 11 27 22 48 25 48 3 0 11 -17 17 -37z"/>
</g>
</svg>
