<?xml version="1.0" standalone="no"?>
<!DOCTYPE svg PUBLIC "-//W3C//DTD SVG 20010904//EN" "http://www.w3.org/TR/2001/REC-SVG-20010904/DTD/svg10.dtd">
<svg xmlns="http://www.w3.org/2000/svg" version="1.0" width="360.000000pt" height="360.000000pt" viewBox="0 0 360.000000 360.000000" preserveAspectRatio="xMidYMid meet">

<g transform="translate(0.000000,360.000000) scale(0.100000,-0.100000)" fill="#000000" stroke="none">
<path d="M1755 2851 c-29 -6 -30 -9 -41 -86 -9 -69 -18 -93 -68 -179 -32 -54 -63 -110 -69 -125 -6 -14 -22 -43 -34 -64 -13 -20 -38 -65 -56 -98 -17 -34 -38 -71 -44 -82 -27 -46 -17 -65 86 -165 54 -54 106 -113 116 -132 9 -19 24 -43 32 -52 13 -14 16 -55 17 -217 l1 -200 -90 92 c-117 119 -262 245 -316 273 -29 15 -106 19 -125 6 -27 -18 -34 -49 -21 -94 14 -45 98 -169 186 -273 27 -33 96 -120 151 -192 56 -73 105 -135 110 -138 5 -3 6 -20 3 -39 -3 -18 0 -57 6 -86 6 -29 9 -55 7 -58 -3 -2 -24 -5 -48 -6 -35 -1 -44 -5 -46 -22 -4 -29 35 -48 88 -40 67 9 74 19 65 101 -5 38 -7 91 -6 117 1 42 -3 52 -46 105 -27 32 -57 72 -67 88 -20 32 -133 170 -179 220 -48 52 -168 237 -165 254 7 31 66 8 138 -55 88 -77 260 -237 260 -242 0 -16 103 -112 120 -112 21 0 79 34 87 51 10 22 235 232 287 267 63 44 160 101 164 97 13 -12 -123 -181 -217 -269 -91 -85 -172 -171 -206 -217 -11 -15 -33 -43 -49 -63 -25 -32 -27 -39 -17 -64 13 -30 17 -176 7 -209 -3 -10 0 -27 6 -36 12 -15 21 -15 80 -5 52 8 69 15 74 30 7 23 -12 48 -36 48 -42 0 -50 11 -50 64 0 28 -5 68 -11 89 -9 34 -8 41 16 70 114 138 250 277 273 277 6 0 12 6 12 13 0 14 31 55 93 121 43 47 83 111 92 148 10 38 -27 69 -77 66 -21 -2 -38 -6 -38 -11 0 -4 -10 -11 -23 -16 -40 -15 -226 -162 -327 -257 -55 -52 -102 -94 -104 -94 -3 0 -4 84 -3 188 2 193 9 224 47 237 8 3 36 34 62 68 26 35 59 74 73 87 14 13 25 28 25 32 0 5 10 24 23 41 32 44 47 94 47 156 0 46 -9 68 -77 194 -43 78 -89 166 -102 195 -14 28 -28 52 -32 52 -4 0 -5 26 -2 58 5 55 -7 104 -25 101 -4 -1 -20 -4 -37 -8z m30 -211 c8 -14 38 -74 68 -135 30 -60 68 -132 86 -159 21 -34 31 -62 31 -88 0 -39 -27 -118 -40 -118 -4 0 -10 30 -13 66 -4 37 -15 83 -25 103 -11 20 -25 53 -31 74 -8 24 -25 46 -45 58 -93 57 -193 -18 -225 -169 -10 -48 -9 -73 4 -167 l5 -30 -30 33 c-16 17 -34 32 -38 32 -5 0 -17 9 -26 19 -17 18 -17 21 1 52 10 18 32 58 49 88 17 31 50 92 74 136 23 44 48 87 55 95 19 21 70 123 67 133 -5 18 20 0 33 -23z m-12 -272 c59 -57 80 -104 80 -183 0 -101 -9 -131 -53 -165 -78 -62 -130 -27 -146 98 -15 112 5 203 54 255 14 15 27 27 28 27 2 0 18 -15 37 -32z"/>
</g>
</svg>
