<?xml version="1.0" standalone="no"?>
<!DOCTYPE svg PUBLIC "-//W3C//DTD SVG 20010904//EN" "http://www.w3.org/TR/2001/REC-SVG-20010904/DTD/svg10.dtd">
<svg xmlns="http://www.w3.org/2000/svg" version="1.0" width="360.000000pt" height="360.000000pt" viewBox="0 0 360.000000 360.000000" preserveAspectRatio="xMidYMid meet">

<g transform="translate(0.000000,360.000000) scale(0.100000,-0.100000)" fill="#000000" stroke="none">
<path d="M1785 2628 c-29 -26 -60 -65 -68 -86 -46 -114 -46 -243 -1 -304 13 -18 27 -41 30 -50 7 -21 20 -23 27 -5 3 6 6 -11 6 -40 l1 -52 -42 -11 c-104 -27 -140 -39 -288 -92 -163 -58 -193 -86 -133 -125 23 -15 54 -18 214 -20 150 -1 193 -4 218 -17 l31 -17 0 -165 c0 -163 0 -165 -21 -159 -11 4 -85 36 -164 71 -182 80 -252 104 -336 113 -76 8 -104 1 -114 -28 -13 -41 57 -124 160 -189 80 -51 370 -245 375 -251 3 -3 11 -6 19 -6 10 0 14 -19 17 -72 l3 -72 -32 -3 c-27 -2 -32 -7 -32 -28 0 -23 4 -25 53 -28 48 -3 53 -1 62 23 10 25 6 171 -5 204 -3 9 -39 36 -80 61 -41 25 -75 48 -75 52 0 5 -6 8 -13 8 -7 0 -28 13 -47 28 -19 16 -78 54 -130 85 -91 54 -200 140 -200 157 0 4 17 4 38 -2 20 -5 55 -13 77 -18 37 -8 94 -30 170 -64 68 -31 142 -65 180 -80 22 -9 48 -21 57 -26 29 -16 70 -11 107 13 61 39 75 47 101 58 104 47 130 57 165 67 49 14 94 24 120 27 11 2 38 8 60 14 60 16 145 14 145 -3 0 -17 -65 -76 -84 -76 -35 0 -315 -141 -336 -169 -10 -14 -110 -71 -134 -77 -44 -11 -49 -26 -36 -103 6 -39 11 -85 9 -103 -5 -72 -6 -71 68 -64 70 7 100 23 90 50 -5 11 -20 16 -51 16 l-45 0 1 38 c1 20 -2 54 -7 74 -6 32 -4 39 11 44 40 12 68 28 169 95 67 45 169 97 265 135 95 38 150 94 150 151 -1 54 -18 63 -116 63 -49 0 -120 -7 -159 -16 -38 -9 -90 -20 -115 -26 -25 -5 -49 -11 -55 -12 -5 -1 -54 -24 -107 -51 -54 -27 -101 -45 -105 -41 -5 4 -9 74 -10 155 l-2 148 40 -7 c21 -4 41 -4 44 0 7 11 117 23 235 26 58 1 117 7 132 12 32 13 68 47 68 65 0 18 -47 43 -95 51 -22 4 -60 14 -85 22 -25 8 -85 26 -135 41 -49 14 -103 35 -120 45 -16 10 -40 18 -52 18 -35 0 -32 47 5 63 36 16 56 40 92 109 39 75 62 173 56 243 -5 61 -16 81 -74 130 -58 50 -98 46 -167 -17z m114 -35 c71 -41 60 -213 -21 -335 -17 -24 -21 -26 -49 -16 -21 7 -32 19 -36 39 -3 16 -10 29 -15 29 -6 0 -8 9 -5 20 3 11 1 23 -4 26 -5 3 -9 35 -9 72 0 73 19 117 69 159 31 28 31 28 70 6z m21 -584 c33 -17 74 -33 92 -36 18 -2 60 -13 92 -24 33 -10 66 -19 74 -19 9 0 13 -2 10 -5 -2 -3 -51 -10 -109 -15 -57 -6 -119 -13 -136 -15 -33 -4 -37 1 -33 39 1 10 -1 29 -5 43 -5 20 -10 24 -30 19 -27 -7 -38 4 -29 28 8 21 5 21 74 -15z m-144 -6 c-10 -10 -19 5 -10 18 6 11 8 11 12 0 2 -7 1 -15 -2 -18z m-34 -2 c-8 -4 -13 -19 -12 -32 5 -62 3 -67 -37 -63 -21 3 -90 5 -153 5 l-115 1 50 18 c28 10 75 28 105 40 58 24 108 37 150 39 17 0 21 -2 12 -8z"/>
</g>
</svg>
