<?xml version="1.0" standalone="no"?>
<!DOCTYPE svg PUBLIC "-//W3C//DTD SVG 20010904//EN" "http://www.w3.org/TR/2001/REC-SVG-20010904/DTD/svg10.dtd">
<svg xmlns="http://www.w3.org/2000/svg" version="1.0" width="360.000000pt" height="360.000000pt" viewBox="0 0 360.000000 360.000000" preserveAspectRatio="xMidYMid meet">

<g transform="translate(0.000000,360.000000) scale(0.100000,-0.100000)" fill="#000000" stroke="none">
<path d="M3145 2317 c-16 -5 -44 -22 -61 -36 -17 -14 -52 -43 -77 -63 -38 -32 -47 -48 -62 -103 -17 -62 -17 -96 0 -181 6 -27 1 -36 -42 -80 -58 -60 -120 -110 -187 -150 -28 -16 -70 -41 -95 -56 -25 -16 -69 -39 -96 -53 -28 -13 -59 -33 -70 -43 -11 -10 -29 -21 -39 -25 -24 -9 -245 -158 -311 -209 -62 -48 -174 -122 -197 -131 -10 -3 -18 -14 -18 -24 0 -12 -16 -25 -47 -37 -26 -11 -74 -36 -107 -56 -34 -19 -79 -42 -101 -49 -37 -13 -463 -222 -565 -277 -58 -31 -68 -30 -305 30 -27 7 -57 15 -65 19 -8 4 -33 11 -55 16 -224 54 -376 100 -387 116 -4 5 -8 7 -8 2 0 -4 -15 -1 -33 6 -47 20 -77 7 -78 -35 0 -18 -3 -42 -5 -53 -13 -53 -20 -155 -15 -195 5 -41 9 -45 36 -48 64 -6 157 40 131 65 -4 4 -29 8 -54 8 l-47 0 -7 90 c-4 58 -3 92 4 96 5 4 33 -1 61 -11 98 -33 222 -68 297 -85 80 -18 173 -43 281 -75 36 -11 77 -20 90 -20 14 0 34 -7 45 -15 29 -22 71 -18 107 9 18 13 97 57 177 97 80 40 170 87 200 105 30 18 87 45 125 60 39 15 79 33 90 41 11 7 27 13 35 13 9 0 45 17 81 39 35 21 75 42 89 46 14 4 56 27 93 51 37 24 73 44 79 44 6 0 32 13 57 29 25 16 66 35 91 41 81 22 487 84 604 93 l69 5 -7 -57 c-3 -31 -11 -128 -17 -216 -5 -88 -17 -214 -26 -280 -26 -204 -24 -208 75 -196 43 5 69 14 84 28 22 23 17 43 -10 43 -9 0 -25 7 -35 15 -11 7 -26 11 -35 8 -13 -5 -14 1 -9 43 3 27 11 85 16 129 6 44 13 132 16 195 4 63 10 156 16 205 5 50 9 93 9 98 0 4 5 7 11 7 11 0 9 -50 -6 -205 -2 -22 -6 -76 -10 -120 -3 -44 -10 -125 -15 -180 -15 -157 -2 -186 73 -164 18 5 64 6 102 3 78 -7 103 6 90 46 -5 16 -14 21 -38 20 -18 -1 -61 -2 -96 -1 l-64 1 6 123 c3 67 11 183 17 257 7 74 13 169 13 210 l2 75 -39 -1 -39 -2 8 152 c4 83 9 173 10 199 3 67 19 79 103 83 86 4 129 27 172 95 22 33 41 51 59 54 56 12 76 21 79 38 3 12 -6 21 -27 28 -24 9 -30 16 -27 32 26 130 5 177 -99 218 -30 12 -47 14 -70 6z m85 -134 c30 -35 32 -48 15 -87 -21 -47 -105 -176 -105 -162 0 5 -6 4 -12 -2 -7 -6 -30 -13 -50 -17 -34 -6 -39 -4 -56 24 -12 20 -20 53 -21 94 -2 55 2 67 28 103 57 77 155 99 201 47z m-367 -601 c-1 -64 -3 -134 -3 -154 0 -43 -3 -44 -105 -53 -104 -8 -142 -14 -344 -46 -101 -17 -193 -29 -203 -27 -14 2 18 27 100 81 67 42 125 77 131 77 5 0 14 6 18 14 7 11 187 116 199 116 3 0 35 20 72 43 105 69 116 75 127 71 7 -3 10 -48 8 -122z"/>
</g>
</svg>
