<?xml version="1.0" standalone="no"?>
<!DOCTYPE svg PUBLIC "-//W3C//DTD SVG 20010904//EN" "http://www.w3.org/TR/2001/REC-SVG-20010904/DTD/svg10.dtd">
<svg xmlns="http://www.w3.org/2000/svg" version="1.0" width="360.000000pt" height="360.000000pt" viewBox="0 0 360.000000 360.000000" preserveAspectRatio="xMidYMid meet">

<g transform="translate(0.000000,360.000000) scale(0.100000,-0.100000)" fill="#000000" stroke="none">
<path d="M2821 2263 c-29 -6 -100 -51 -122 -78 -10 -11 -29 -33 -43 -50 -34 -39 -50 -88 -43 -131 7 -42 -10 -55 -103 -79 -120 -31 -253 -16 -589 66 -69 17 -168 39 -220 50 -53 10 -136 28 -186 39 -113 24 -115 24 -115 0 0 -14 10 -22 38 -29 132 -35 177 -45 262 -61 52 -9 154 -32 225 -50 235 -59 226 -53 90 -62 -151 -10 -321 -25 -405 -38 -36 -5 -92 -12 -125 -15 -33 -4 -87 -10 -120 -15 -187 -29 -500 -40 -587 -21 -24 5 -78 12 -120 16 -43 3 -90 10 -105 14 -15 4 -64 8 -108 10 -71 2 -87 -2 -141 -27 -33 -17 -84 -35 -113 -41 -75 -16 -121 -37 -121 -56 0 -14 8 -16 48 -12 85 8 222 53 237 77 3 5 27 10 53 9 44 0 330 -32 397 -44 29 -5 275 -6 345 -1 19 2 103 11 185 20 292 34 285 33 296 19 11 -12 91 -315 109 -408 5 -27 14 -72 21 -100 6 -27 12 -59 12 -70 0 -43 -34 -241 -52 -304 -11 -36 -27 -100 -36 -141 -9 -41 -21 -88 -26 -104 -14 -45 -11 -74 9 -80 33 -10 130 -4 148 9 18 13 18 14 0 34 -17 18 -27 21 -63 15 -47 -7 -47 -7 -33 45 29 110 80 337 90 406 21 133 23 155 13 168 -5 6 -15 39 -22 72 -7 33 -35 151 -62 261 -27 111 -49 206 -49 212 0 16 89 24 440 38 85 3 210 14 276 25 123 19 200 18 299 -2 28 -6 84 -14 125 -19 41 -5 86 -12 100 -15 92 -20 158 -17 241 8 46 15 104 29 129 32 122 16 211 39 208 53 -2 8 -12 18 -23 22 -27 9 -276 -33 -345 -59 -68 -25 -132 -22 -355 19 -27 5 -70 12 -95 15 -54 8 -57 10 -32 24 14 7 36 8 71 1 56 -10 109 3 162 41 23 16 39 19 70 15 30 -4 41 -2 46 10 3 8 1 20 -5 26 -8 8 -6 18 7 37 41 59 29 140 -28 188 -21 18 -37 23 -81 22 -30 -1 -66 -4 -79 -6z m102 -54 c21 -5 37 -16 37 -24 0 -8 5 -15 10 -15 22 0 9 -65 -18 -91 -82 -80 -193 -114 -261 -81 -40 19 -40 46 1 103 44 61 76 88 123 100 22 5 45 12 50 14 16 6 18 5 58 -6z"/>
</g>
</svg>
