<?xml version="1.0" standalone="no"?>
<!DOCTYPE svg PUBLIC "-//W3C//DTD SVG 20010904//EN" "http://www.w3.org/TR/2001/REC-SVG-20010904/DTD/svg10.dtd">
<svg xmlns="http://www.w3.org/2000/svg" version="1.0" width="320.000000pt" height="320.000000pt" viewBox="0 0 320.000000 320.000000" preserveAspectRatio="xMidYMid meet">

<g transform="translate(0.000000,320.000000) scale(0.100000,-0.100000)" fill="#000000" stroke="none">
<path d="M2482 2224 c-15 -10 -20 -20 -14 -26 5 -5 5 -30 1 -61 -5 -29 -11 -77 -14 -107 -2 -30 -12 -102 -20 -159 -15 -98 -22 -146 -46 -336 -6 -44 -15 -85 -21 -92 -12 -15 -113 -17 -173 -3 -22 5 -60 11 -85 14 -25 3 -61 10 -80 16 -19 5 -55 14 -80 21 -70 17 -134 35 -275 73 -72 20 -145 36 -162 36 -41 0 -110 -27 -117 -46 -6 -16 -39 -18 -99 -5 -23 5 -100 21 -172 36 -151 32 -285 68 -350 95 -11 5 -45 19 -75 30 -131 52 -206 83 -223 91 -10 6 -36 19 -58 31 -21 11 -39 24 -39 30 0 5 -5 6 -10 3 -6 -4 -17 -1 -25 5 -8 7 -26 9 -39 6 -14 -3 -63 -6 -109 -7 -78 -1 -86 -3 -91 -22 -3 -12 -3 -24 0 -27 3 -3 54 -5 114 -5 102 0 110 -1 156 -30 61 -38 68 -42 234 -105 74 -28 149 -57 165 -65 48 -21 114 -41 195 -60 41 -9 102 -23 135 -30 54 -13 166 -33 221 -39 36 -5 41 -13 49 -93 4 -43 11 -114 15 -158 4 -44 13 -123 20 -175 13 -103 11 -122 -36 -463 -14 -98 -22 -187 -19 -197 6 -18 14 -19 82 -15 85 5 100 13 84 44 -10 17 -21 21 -61 21 -45 0 -49 2 -45 22 3 12 7 40 10 63 3 22 11 69 17 105 6 36 12 76 13 90 1 14 7 71 15 127 11 85 11 120 0 200 -19 144 -36 421 -28 444 13 34 55 42 123 24 33 -9 67 -18 75 -19 8 -1 40 -9 70 -18 112 -33 347 -91 395 -98 28 -4 86 -13 130 -20 92 -14 87 -14 140 -1 45 11 57 7 31 -12 -10 -7 -18 -24 -17 -38 6 -253 -14 -694 -35 -756 -19 -55 -8 -92 28 -94 13 -1 32 -3 43 -5 88 -17 95 -17 95 4 0 12 -4 24 -10 27 -5 3 -10 18 -10 32 0 24 -2 25 -41 19 l-41 -7 5 33 c17 93 34 560 26 678 -3 47 -5 86 -5 87 1 1 22 -4 46 -11 l45 -13 -3 -45 c-3 -37 1 -50 23 -77 62 -73 176 -102 287 -72 38 10 78 27 88 36 33 30 35 77 7 137 -30 63 -61 93 -116 109 -45 13 -49 20 -26 39 19 16 19 44 0 60 -21 18 -36 2 -44 -46 -6 -37 -7 -37 -56 -41 -49 -4 -135 -39 -135 -54 0 -5 -15 0 -32 10 -18 11 -48 22 -66 26 -31 6 -33 9 -26 33 4 15 8 54 10 87 2 33 6 71 10 85 3 14 7 43 9 65 1 22 10 90 19 150 9 61 21 160 27 220 5 61 12 124 15 140 3 17 0 37 -8 48 -12 16 -15 16 -36 1z m323 -882 c42 -15 54 -25 73 -62 31 -58 20 -83 -42 -99 -69 -17 -120 -13 -181 14 -65 30 -80 61 -48 103 45 61 111 75 198 44z"/>
</g>
</svg>
