<?xml version="1.0" standalone="no"?>
<!DOCTYPE svg PUBLIC "-//W3C//DTD SVG 20010904//EN" "http://www.w3.org/TR/2001/REC-SVG-20010904/DTD/svg10.dtd">
<svg xmlns="http://www.w3.org/2000/svg" version="1.0" width="360.000000pt" height="360.000000pt" viewBox="0 0 360.000000 360.000000" preserveAspectRatio="xMidYMid meet">

<g transform="translate(0.000000,360.000000) scale(0.100000,-0.100000)" fill="#000000" stroke="none">
<path d="M982 2435 c-17 -13 -20 -20 -12 -34 5 -10 7 -20 5 -23 -3 -2 0 -33 7 -69 13 -76 81 -249 131 -334 61 -104 169 -233 210 -252 32 -15 36 -22 31 -43 -3 -13 -7 -99 -9 -191 -5 -192 -12 -302 -25 -409 -6 -41 -12 -100 -14 -130 -3 -30 -11 -102 -20 -160 -23 -154 -21 -197 8 -223 21 -19 38 -22 126 -24 91 -2 101 0 98 15 -4 22 -61 50 -115 56 -75 9 -73 -6 -43 261 42 362 53 633 33 774 l-6 43 34 -7 c18 -4 49 -18 69 -30 34 -23 147 -57 225 -69 50 -8 405 -8 545 -1 92 5 225 26 269 43 11 4 13 -3 7 -38 -4 -23 -9 -81 -12 -129 -3 -47 -12 -160 -20 -251 -8 -91 -19 -248 -24 -350 -5 -102 -13 -199 -19 -217 -18 -61 -18 -107 1 -111 12 -2 22 7 31 30 13 33 14 33 26 11 6 -13 19 -23 27 -23 14 0 15 10 9 72 -4 40 -12 81 -17 91 -8 16 -5 163 7 267 2 19 6 58 9 85 3 28 10 106 16 175 6 69 13 146 15 171 2 25 5 88 6 140 1 119 10 131 58 80 56 -59 134 -76 237 -50 44 11 46 11 80 -22 27 -26 37 -30 46 -21 9 9 10 15 2 20 -6 4 -16 17 -23 30 -11 20 -9 25 12 42 33 27 67 101 67 149 0 85 -46 129 -145 138 -56 5 -75 2 -133 -21 -37 -14 -85 -40 -106 -58 -44 -36 -76 -99 -70 -135 4 -18 1 -22 -8 -17 -7 5 -20 7 -28 6 -9 -1 -24 12 -34 30 -11 18 -55 86 -98 152 -43 65 -85 131 -94 147 -10 20 -22 29 -39 29 -13 0 -36 5 -52 11 -27 10 -185 33 -333 49 -125 13 -139 21 -140 80 -1 51 -32 135 -50 135 -12 0 -15 -17 -13 -102 0 -57 -2 -103 -5 -103 -4 0 -38 13 -77 29 -38 16 -108 44 -155 62 -99 38 -175 78 -245 127 -52 37 -173 97 -215 107 -15 3 -34 -1 -48 -10z m96 -69 c77 -38 144 -78 191 -114 57 -43 113 -71 256 -128 177 -70 236 -84 261 -63 15 12 131 0 298 -32 54 -10 117 -19 140 -19 37 0 45 -5 74 -42 59 -76 112 -151 112 -159 0 -4 20 -34 45 -68 25 -34 45 -63 45 -65 0 -7 -176 -26 -198 -22 -13 3 -47 1 -75 -5 -29 -5 -149 -10 -267 -10 -170 -1 -231 3 -290 16 -69 16 -220 67 -246 83 -183 113 -273 245 -383 558 -20 59 -26 94 -16 94 3 0 26 -11 53 -24z m1891 -530 c10 -9 20 -13 23 -10 15 14 17 -37 3 -75 -18 -51 -36 -70 -89 -94 -74 -34 -192 -18 -210 28 -21 56 10 104 95 144 67 32 147 35 178 7z"/>
</g>
</svg>
