<?xml version="1.0" standalone="no"?>
<!DOCTYPE svg PUBLIC "-//W3C//DTD SVG 20010904//EN" "http://www.w3.org/TR/2001/REC-SVG-20010904/DTD/svg10.dtd">
<svg xmlns="http://www.w3.org/2000/svg" version="1.0" width="360.000000pt" height="360.000000pt" viewBox="0 0 360.000000 360.000000" preserveAspectRatio="xMidYMid meet">

<g transform="translate(0.000000,360.000000) scale(0.100000,-0.100000)" fill="#000000" stroke="none">
<path d="M1723 2803 c-35 -7 -92 -81 -110 -143 -10 -31 -17 -87 -16 -131 1 -97 26 -157 81 -194 30 -20 39 -32 40 -56 1 -25 -2 -28 -13 -19 -11 9 -26 6 -67 -13 -29 -14 -100 -46 -158 -72 -58 -27 -109 -52 -115 -56 -5 -5 -21 -9 -35 -9 -14 0 -36 -7 -49 -17 -13 -9 -56 -29 -95 -44 -65 -25 -71 -30 -74 -58 -3 -28 1 -33 35 -47 37 -16 145 -15 213 2 14 3 87 8 162 11 115 5 139 3 152 -10 9 -8 20 -17 26 -19 6 -2 13 -59 16 -143 5 -148 17 -219 42 -247 17 -20 22 -10 -72 -133 -63 -82 -59 -80 -133 -59 -14 4 -28 -1 -40 -13 -57 -55 -162 -143 -172 -143 -17 0 -31 -43 -19 -57 16 -20 36 -15 67 15 74 69 136 112 163 112 16 0 11 -10 -26 -54 -74 -85 -71 -93 84 -248 169 -168 165 -162 151 -240 -6 -35 -13 -83 -14 -107 -3 -38 -7 -46 -30 -54 -31 -10 -34 -26 -9 -56 15 -18 22 -20 53 -11 46 13 59 41 52 117 -4 46 0 76 17 127 12 36 20 70 18 76 -2 5 -64 73 -138 151 -74 77 -139 148 -143 156 -13 22 -1 54 41 101 36 41 38 42 73 32 34 -10 304 -23 413 -20 56 1 126 34 126 59 0 9 -8 26 -18 38 -18 23 -146 93 -252 139 -114 49 -128 66 -161 197 -13 53 -20 277 -8 277 5 0 9 -9 9 -20 0 -13 7 -20 19 -20 27 0 45 27 43 62 l-3 31 123 -6 c68 -3 166 -13 219 -23 56 -10 110 -14 131 -10 47 9 88 41 88 70 0 25 39 9 -435 180 -87 32 -185 78 -185 87 0 4 10 11 22 15 43 13 80 49 104 100 38 80 30 170 -26 292 -17 35 -30 67 -30 71 0 24 -85 45 -137 34z m91 -97 c33 -44 62 -118 70 -181 6 -45 4 -55 -23 -98 -37 -57 -65 -70 -116 -54 -72 22 -104 95 -92 213 13 129 103 196 161 120z m-112 -541 c-2 -19 -10 -40 -18 -46 -8 -6 -14 -28 -14 -49 l0 -38 -117 -6 c-65 -4 -140 -11 -168 -16 -98 -17 -155 -22 -155 -12 0 5 15 15 33 22 17 6 50 20 72 30 22 10 60 26 85 36 25 9 52 23 60 30 8 7 44 22 79 33 35 11 69 25 75 30 10 8 38 17 61 20 7 1 9 -13 7 -34z m111 23 c22 -11 137 -53 287 -105 126 -43 190 -68 190 -74 0 -7 -71 4 -86 13 -8 6 -51 10 -214 24 -121 9 -128 12 -135 44 -7 32 -18 36 -59 20 -26 -9 -26 -9 -26 40 0 52 6 58 43 38z m138 -792 c135 -64 191 -102 165 -112 -9 -4 -40 -3 -69 1 -29 3 -105 6 -171 6 -111 -1 -186 11 -186 31 0 14 118 128 132 128 9 0 66 -24 129 -54z"/>
</g>
</svg>
