<?xml version="1.0" standalone="no"?>
<!DOCTYPE svg PUBLIC "-//W3C//DTD SVG 20010904//EN" "http://www.w3.org/TR/2001/REC-SVG-20010904/DTD/svg10.dtd">
<svg xmlns="http://www.w3.org/2000/svg" version="1.0" width="360.000000pt" height="360.000000pt" viewBox="0 0 360.000000 360.000000" preserveAspectRatio="xMidYMid meet">

<g transform="translate(0.000000,360.000000) scale(0.100000,-0.100000)" fill="#000000" stroke="none">
<path d="M1533 3114 c-29 -13 5 -102 47 -124 11 -6 25 -21 32 -34 7 -14 46 -86 86 -160 39 -75 72 -142 72 -151 0 -30 61 -137 81 -142 14 -4 18 -11 13 -25 -17 -54 -7 -109 35 -193 46 -93 79 -124 141 -132 22 -3 40 -10 40 -15 0 -5 13 -26 29 -46 35 -44 105 -206 120 -277 31 -148 47 -405 35 -550 l-6 -80 -52 -50 c-53 -52 -175 -141 -261 -190 -27 -16 -73 -46 -101 -67 -28 -21 -80 -55 -117 -75 -141 -80 -274 -163 -286 -177 -13 -16 -33 -15 -161 10 -41 8 -97 18 -125 23 -102 18 -321 62 -360 71 -62 15 -125 13 -131 -5 -4 -8 -10 -15 -15 -15 -5 0 -33 -11 -63 -25 -50 -23 -63 -24 -145 -19 -84 6 -91 5 -91 -12 0 -27 72 -54 142 -54 54 0 179 37 202 60 5 5 28 7 50 5 23 -3 64 -7 91 -9 28 -3 75 -10 105 -16 30 -6 69 -12 85 -15 17 -2 87 -17 158 -34 220 -54 307 -59 307 -21 0 18 20 33 145 110 39 24 93 58 120 75 308 198 359 231 420 275 22 16 50 29 62 30 15 0 28 11 38 31 10 18 22 29 30 25 7 -2 15 -3 17 -1 2 2 91 7 198 10 107 3 208 8 224 11 15 3 53 3 83 -1 l55 -7 -5 -46 c-11 -100 -19 -148 -27 -177 -5 -16 -16 -80 -24 -141 -9 -61 -18 -118 -22 -127 -3 -8 -1 -24 5 -35 8 -15 26 -21 93 -27 91 -9 158 -8 167 0 3 4 -1 18 -10 33 -11 21 -23 28 -54 30 -22 1 -60 5 -84 8 l-43 6 6 36 c3 20 8 55 11 77 4 22 15 90 26 150 41 235 41 238 22 264 -16 23 -18 23 -147 17 -242 -13 -424 -16 -446 -8 -21 8 -22 13 -25 228 -3 185 -7 238 -28 344 -14 69 -34 148 -45 175 -10 28 -22 68 -26 90 -4 22 -16 68 -27 103 l-21 62 31 47 c39 59 42 127 9 191 l-23 43 38 32 c42 36 47 61 15 78 -19 10 -25 8 -51 -25 l-29 -37 -32 24 c-53 41 -95 58 -133 55 -35 -3 -38 -1 -63 48 -31 63 -78 128 -125 174 -20 19 -53 60 -73 90 -20 30 -55 73 -77 95 -22 23 -49 56 -60 75 -19 33 -45 45 -72 34z m353 -482 l36 -64 -23 -24 -23 -25 -32 88 c-18 49 -44 111 -59 138 l-26 50 46 -50 c25 -27 61 -79 81 -113z m184 -122 c78 -40 133 -176 92 -229 l-19 -24 -32 59 c-48 88 -101 214 -90 214 5 0 28 -9 49 -20z m-55 -124 c19 -41 43 -94 54 -117 26 -53 26 -59 0 -59 -34 0 -84 47 -117 108 -37 69 -43 119 -18 157 18 27 18 27 32 6 9 -12 30 -54 49 -95z"/>
</g>
</svg>
