<?xml version="1.0" standalone="no"?>
<!DOCTYPE svg PUBLIC "-//W3C//DTD SVG 20010904//EN" "http://www.w3.org/TR/2001/REC-SVG-20010904/DTD/svg10.dtd">
<svg xmlns="http://www.w3.org/2000/svg" version="1.0" width="360.000000pt" height="360.000000pt" viewBox="0 0 360.000000 360.000000" preserveAspectRatio="xMidYMid meet">

<g transform="translate(0.000000,360.000000) scale(0.100000,-0.100000)" fill="#000000" stroke="none">
<path d="M1505 2465 c-77 -19 -154 -64 -248 -147 -48 -41 -128 -184 -124 -220 1 -18 -4 -24 -23 -26 -28 -4 -77 -38 -134 -95 -29 -29 -41 -35 -47 -25 -5 7 -9 16 -9 20 0 11 -34 2 -38 -11 -2 -7 8 -25 22 -40 20 -21 23 -30 14 -39 -17 -17 -13 -121 7 -169 28 -69 113 -119 183 -107 l33 5 -5 -83 c-6 -103 -15 -236 -21 -350 -7 -109 0 -140 29 -136 18 3 21 10 23 53 1 28 8 149 15 270 6 121 12 234 13 250 1 31 23 81 31 72 9 -9 15 -100 22 -357 4 -140 11 -261 15 -267 11 -18 44 -16 51 3 7 18 -7 397 -19 514 -2 19 -6 114 -10 210 -3 96 -8 191 -11 210 -2 19 -7 78 -10 130 l-6 95 51 47 c29 27 78 65 109 85 56 38 58 38 157 38 79 -1 109 -5 145 -22 58 -26 123 -91 116 -117 -3 -11 3 -38 14 -60 52 -114 136 -440 151 -580 6 -55 12 -103 15 -108 3 -4 -4 -21 -15 -37 -12 -16 -21 -32 -21 -36 0 -4 -42 -93 -94 -199 -51 -105 -106 -222 -121 -261 -15 -38 -33 -84 -40 -100 -53 -118 -64 -165 -46 -194 6 -10 36 -14 109 -15 96 -1 102 0 114 22 17 33 -2 42 -85 41 -37 -1 -70 1 -73 3 -3 3 2 21 10 39 8 19 40 98 71 177 31 78 88 204 126 279 38 75 69 144 69 152 1 9 8 34 16 56 33 86 26 286 -16 424 -11 36 -31 111 -45 166 -14 55 -30 116 -36 135 -6 19 -13 49 -16 65 -21 127 -144 225 -301 240 -30 3 -57 7 -60 9 -4 2 -29 -2 -57 -9z m-286 -420 c1 -18 0 -18 -15 -3 -12 12 -15 24 -9 45 l8 28 7 -25 c5 -14 8 -34 9 -45z m-45 -78 c65 -85 9 -297 -78 -297 -76 0 -126 57 -126 143 0 58 42 116 112 157 29 16 56 30 60 30 4 0 18 -15 32 -33z"/>
</g>
</svg>
