<?xml version="1.0" standalone="no"?>
<!DOCTYPE svg PUBLIC "-//W3C//DTD SVG 20010904//EN" "http://www.w3.org/TR/2001/REC-SVG-20010904/DTD/svg10.dtd">
<svg xmlns="http://www.w3.org/2000/svg" version="1.0" width="360.000000pt" height="360.000000pt" viewBox="0 0 360.000000 360.000000" preserveAspectRatio="xMidYMid meet">

<g transform="translate(0.000000,360.000000) scale(0.100000,-0.100000)" fill="#000000" stroke="none">
<path d="M1660 3177 c-60 -32 -136 -122 -160 -190 -38 -107 -18 -224 40 -245 21 -8 21 -8 -2 -41 -24 -36 -72 -56 -158 -67 -25 -3 -90 -12 -145 -20 -55 -8 -118 -17 -140 -20 -22 -2 -74 -9 -115 -16 -41 -6 -82 -12 -90 -13 -8 -1 -22 -5 -30 -8 -23 -8 -79 -18 -140 -23 -48 -4 -88 -10 -137 -20 -7 -1 -16 2 -19 7 -3 6 -10 6 -17 1 -7 -5 -31 -12 -55 -16 -67 -10 -107 -62 -78 -101 13 -18 14 -18 40 8 26 26 43 36 32 18 -3 -4 3 -16 13 -25 25 -23 61 -6 61 28 0 28 12 31 178 47 64 6 123 14 132 19 16 8 157 27 224 29 22 1 43 4 46 6 8 5 131 24 195 30 37 4 69 9 122 19 23 5 23 6 -11 -94 -15 -45 -36 -181 -56 -355 -10 -91 1 -270 20 -344 11 -40 10 -41 -21 -45 -13 -2 -31 -6 -39 -9 -8 -4 -46 -13 -85 -22 -38 -8 -113 -26 -165 -40 -52 -13 -103 -25 -113 -25 -11 0 -49 -9 -85 -19 -37 -10 -92 -24 -122 -31 -49 -11 -57 -16 -73 -49 -15 -31 -16 -49 -8 -141 6 -58 19 -154 29 -215 11 -60 23 -144 27 -186 l7 -77 -43 -11 c-183 -44 -204 -54 -171 -79 18 -14 100 -9 131 7 18 10 81 20 123 21 30 0 45 28 30 57 -6 10 -13 45 -16 78 -4 33 -11 85 -16 115 -9 58 -31 192 -35 225 -21 143 -12 205 29 205 12 0 53 9 91 19 39 11 111 27 160 35 50 9 119 25 155 37 36 11 83 22 105 23 22 2 47 6 55 10 8 3 24 6 35 8 11 2 23 7 26 11 4 5 27 -7 52 -26 41 -31 485 -260 577 -298 51 -21 279 -146 290 -160 3 -3 23 -12 45 -19 22 -7 54 -18 70 -25 56 -23 259 -96 337 -120 42 -13 97 -32 120 -43 24 -10 84 -29 133 -41 50 -13 119 -31 155 -42 36 -10 72 -19 80 -19 8 0 -7 -19 -33 -43 -35 -31 -46 -47 -42 -60 4 -9 14 -17 22 -17 24 0 143 93 149 117 7 27 -3 46 -21 39 -8 -3 -51 8 -97 24 -46 16 -92 30 -104 30 -21 0 -125 29 -204 56 -49 18 -222 78 -340 119 -106 37 -203 76 -215 85 -20 17 -359 190 -371 190 -11 0 -466 231 -474 241 -3 3 -16 12 -28 18 -67 36 -100 261 -73 499 24 203 53 332 85 375 13 17 17 15 63 -30 27 -26 103 -87 168 -135 66 -47 145 -109 175 -137 30 -28 58 -51 62 -51 4 0 27 -18 53 -40 25 -22 84 -67 132 -101 85 -60 110 -75 243 -149 52 -28 67 -42 76 -70 13 -41 38 -50 55 -21 12 17 14 18 24 4 8 -11 20 -14 37 -10 26 7 30 24 14 59 -8 17 -103 68 -128 68 -23 0 -157 73 -260 142 -31 21 -113 84 -183 140 -69 57 -150 121 -178 142 -29 22 -101 77 -162 123 -60 45 -122 94 -137 107 l-27 24 17 40 c15 35 22 41 55 46 53 9 105 37 146 80 25 26 38 33 50 26 14 -7 90 -4 99 5 10 9 -26 45 -46 45 -31 0 -36 19 -22 84 19 93 -9 184 -65 213 -46 24 -90 24 -135 0z m134 -70 c24 -33 28 -118 7 -179 -14 -41 -75 -110 -118 -131 -58 -29 -91 -29 -124 1 -26 23 -31 35 -31 74 0 26 4 53 8 60 5 7 10 24 12 37 4 30 64 108 112 145 47 37 104 34 134 -7z"/>
</g>
</svg>
