<?xml version="1.0" standalone="no"?>
<!DOCTYPE svg PUBLIC "-//W3C//DTD SVG 20010904//EN" "http://www.w3.org/TR/2001/REC-SVG-20010904/DTD/svg10.dtd">
<svg xmlns="http://www.w3.org/2000/svg" version="1.0" width="360.000000pt" height="360.000000pt" viewBox="0 0 360.000000 360.000000" preserveAspectRatio="xMidYMid meet">

<g transform="translate(0.000000,360.000000) scale(0.100000,-0.100000)" fill="#000000" stroke="none">
<path d="M1910 2633 c-24 -9 -69 -55 -85 -86 -27 -54 -2 -167 57 -259 24 -38 43 -54 95 -79 38 -18 73 -29 86 -26 18 5 25 -2 39 -31 10 -20 16 -37 14 -39 -2 -2 -16 -6 -32 -8 -16 -3 -43 -7 -60 -10 -18 -3 -108 -8 -200 -10 -129 -4 -172 -9 -183 -20 -13 -13 -13 -17 2 -33 9 -10 23 -19 30 -20 6 -1 59 -6 117 -11 58 -5 127 -15 154 -21 26 -6 74 -15 105 -20 31 -4 63 -10 71 -13 78 -21 68 -2 100 -182 6 -33 13 -80 16 -105 3 -25 9 -67 15 -93 20 -105 6 -177 -35 -177 -7 0 -35 -11 -62 -24 -27 -13 -94 -38 -149 -56 -107 -35 -109 -36 -200 -70 -55 -21 -93 -38 -255 -113 -64 -30 -132 -51 -330 -103 -80 -21 -152 -41 -160 -45 -8 -4 -42 -13 -74 -19 -115 -23 -174 -62 -146 -96 13 -15 95 -44 125 -44 11 0 26 -5 31 -10 6 -6 19 -12 30 -14 10 -2 31 -7 45 -11 33 -8 58 18 42 43 -11 19 -95 52 -133 52 -37 1 -6 16 50 25 25 4 50 11 55 15 6 4 26 11 45 15 79 16 329 86 380 106 56 22 68 28 195 92 58 29 307 119 365 131 21 4 72 24 92 36 10 6 23 10 30 10 7 1 31 9 53 20 22 11 47 19 56 20 8 0 20 5 26 11 11 11 409 17 419 6 12 -12 21 -135 14 -192 -4 -33 -8 -112 -9 -175 -1 -63 -4 -140 -7 -170 -8 -72 0 -77 101 -70 66 4 80 8 83 23 6 33 -14 44 -69 39 l-52 -5 8 194 c11 276 9 322 -14 374 l-20 45 -113 0 c-78 0 -118 4 -126 12 -8 8 -15 9 -20 3 -4 -6 -43 -10 -87 -9 -121 1 -115 -2 -116 47 0 23 -4 65 -9 92 -5 28 -14 86 -20 130 -5 44 -18 115 -28 157 -16 63 -17 78 -6 82 8 3 14 17 14 32 0 18 -4 24 -13 21 -17 -6 -28 1 -45 31 -11 20 -10 22 10 23 139 10 457 20 683 23 226 3 259 9 253 49 -2 13 -9 21 -18 19 -8 -2 -80 -3 -160 -2 -80 0 -152 1 -160 0 -8 0 -98 -2 -200 -5 -271 -7 -392 -13 -416 -20 -16 -5 -26 3 -50 42 l-31 49 24 30 c16 21 25 50 29 92 l7 62 37 0 c25 0 40 5 44 16 14 37 7 44 -43 44 -48 0 -50 1 -70 43 -45 94 -170 166 -241 140z m120 -88 c45 -29 68 -74 76 -153 14 -130 -17 -172 -97 -132 -24 13 -54 32 -65 44 -34 34 -74 122 -74 164 0 44 19 92 38 92 6 0 12 5 12 11 0 17 67 1 110 -26z m124 -521 c8 -22 -1 -31 -16 -16 -7 7 -32 12 -57 13 -38 1 -42 2 -21 9 44 14 87 11 94 -6z"/>
</g>
</svg>
