<?xml version="1.0" standalone="no"?>
<!DOCTYPE svg PUBLIC "-//W3C//DTD SVG 20010904//EN" "http://www.w3.org/TR/2001/REC-SVG-20010904/DTD/svg10.dtd">
<svg xmlns="http://www.w3.org/2000/svg" version="1.0" width="360.000000pt" height="360.000000pt" viewBox="0 0 360.000000 360.000000" preserveAspectRatio="xMidYMid meet">

<g transform="translate(0.000000,360.000000) scale(0.100000,-0.100000)" fill="#000000" stroke="none">
<path d="M1396 3354 c-3 -8 -3 -28 0 -42 10 -44 73 -211 89 -235 12 -19 14 -74 13 -327 -1 -195 2 -339 10 -400 18 -135 43 -273 51 -285 4 -5 13 -37 20 -70 17 -82 40 -153 55 -168 11 -10 9 -34 -6 -122 -12 -66 -21 -170 -22 -260 l-3 -149 -42 3 c-50 3 -49 9 -15 -140 33 -151 35 -249 5 -362 -27 -101 -21 -123 31 -112 l29 7 -3 -62 c-3 -68 8 -83 52 -74 14 3 50 8 80 12 65 9 80 17 80 42 0 25 -31 33 -96 25 l-54 -6 8 193 c4 106 7 237 6 291 0 53 0 97 0 97 1 0 26 -9 56 -20 30 -11 75 -20 99 -20 41 0 43 -1 29 -17 -8 -10 -29 -48 -47 -86 -26 -56 -36 -69 -60 -73 -37 -8 -48 -34 -24 -54 15 -12 18 -29 18 -86 0 -59 4 -76 25 -107 35 -52 80 -71 148 -64 46 5 61 12 94 44 62 61 88 126 88 225 0 60 -6 98 -21 138 -25 67 -38 82 -88 105 -38 17 -39 18 -46 88 -12 121 -43 244 -83 330 -57 120 -132 240 -188 299 -19 19 -69 177 -89 278 -33 166 -38 239 -37 569 2 317 1 336 -17 356 -20 21 -37 62 -73 175 -12 36 -26 68 -32 72 -18 12 -33 9 -40 -8z m392 -1713 c72 -143 86 -193 101 -343 5 -53 4 -78 -4 -78 -16 0 -207 49 -213 54 -2 3 -5 74 -6 158 -1 151 24 348 44 348 5 0 40 -62 78 -139z m-171 -473 c-2 -13 -4 -5 -4 17 -1 22 1 32 4 23 2 -10 2 -28 0 -40z m375 -32 c10 -7 27 -34 39 -60 29 -67 22 -187 -15 -251 -52 -88 -114 -109 -167 -56 -30 30 -32 38 -30 106 2 55 85 223 117 237 13 6 24 17 24 25 0 16 10 16 32 -1z"/>
</g>
</svg>
