<?xml version="1.0" standalone="no"?>
<!DOCTYPE svg PUBLIC "-//W3C//DTD SVG 20010904//EN" "http://www.w3.org/TR/2001/REC-SVG-20010904/DTD/svg10.dtd">
<svg xmlns="http://www.w3.org/2000/svg" version="1.0" width="360.000000pt" height="360.000000pt" viewBox="0 0 360.000000 360.000000" preserveAspectRatio="xMidYMid meet">

<g transform="translate(0.000000,360.000000) scale(0.100000,-0.100000)" fill="#000000" stroke="none">
<path d="M1416 1353 c-2 -2 -14 -6 -27 -8 -139 -27 -146 -29 -259 -86 -69 -34 -170 -107 -207 -149 -48 -54 -154 -220 -179 -281 -42 -102 -39 -188 9 -228 14 -11 79 -24 117 -24 115 2 361 40 520 81 74 19 153 39 175 44 22 5 47 12 55 15 19 7 14 6 135 32 55 12 129 22 164 24 l65 2 21 -62 c12 -34 26 -68 31 -75 29 -38 56 -118 50 -143 -12 -47 41 -87 63 -47 8 14 13 15 30 5 32 -20 50 -16 63 13 11 24 9 29 -19 55 -18 15 -44 47 -59 71 -15 24 -40 59 -54 78 -24 30 -46 90 -33 90 30 0 259 -47 293 -60 25 -10 65 -21 90 -25 66 -11 187 -41 254 -65 92 -31 127 -25 155 28 4 9 11 70 15 135 6 102 5 118 -9 123 -23 9 -68 -13 -62 -31 9 -22 -16 -195 -28 -195 -6 0 -20 7 -32 15 -11 8 -54 18 -94 21 -41 4 -123 21 -184 40 -60 18 -147 38 -192 44 -46 6 -117 17 -159 25 -42 8 -77 15 -79 15 -8 0 -45 72 -47 92 -2 13 -8 30 -13 38 -6 8 -10 47 -10 87 0 65 2 73 23 83 31 14 32 13 32 -15 0 -40 61 -100 124 -119 81 -26 172 -25 219 2 l37 22 44 -22 c38 -18 47 -19 61 -8 9 7 13 21 10 31 -4 13 -1 16 12 14 10 -2 35 -7 56 -10 21 -3 47 -17 60 -31 20 -21 27 -23 50 -15 29 11 36 45 16 82 -6 11 -12 70 -14 131 -2 60 -6 112 -9 115 -3 4 -15 -2 -26 -12 -17 -16 -20 -31 -20 -114 l0 -96 -72 2 c-92 3 -100 6 -90 35 14 39 3 88 -30 140 -38 58 -76 77 -157 81 -66 2 -143 -30 -212 -92 -35 -30 -55 -39 -94 -44 -51 -5 -63 -2 -207 59 -31 14 -81 29 -112 35 -31 5 -72 17 -92 25 -34 14 -160 34 -168 27z m231 -104 c133 -42 238 -83 268 -105 16 -12 16 -15 2 -35 -10 -14 -14 -33 -10 -50 3 -16 -2 -51 -11 -79 -16 -49 -16 -52 4 -80 21 -29 27 -56 10 -45 -5 3 -37 -3 -72 -14 -86 -28 -280 -80 -353 -95 -33 -7 -76 -18 -95 -24 -101 -32 -147 -42 -270 -58 -145 -19 -303 -24 -317 -11 -4 5 -8 36 -7 70 0 47 7 75 29 117 43 82 135 212 179 250 44 40 185 130 201 130 6 0 29 9 51 19 21 11 66 24 98 30 33 6 62 13 64 16 16 16 114 1 229 -36z m701 12 c46 -13 79 -62 69 -103 -9 -35 -81 -104 -116 -111 -39 -8 -124 8 -160 29 -34 20 -56 70 -35 78 8 3 14 13 14 23 1 33 138 109 177 98 6 -2 29 -9 51 -14z"/>
</g>
</svg>
