<?xml version="1.0" standalone="no"?>
<!DOCTYPE svg PUBLIC "-//W3C//DTD SVG 20010904//EN" "http://www.w3.org/TR/2001/REC-SVG-20010904/DTD/svg10.dtd">
<svg xmlns="http://www.w3.org/2000/svg" version="1.0" width="360.000000pt" height="360.000000pt" viewBox="0 0 360.000000 360.000000" preserveAspectRatio="xMidYMid meet">

<g transform="translate(0.000000,360.000000) scale(0.100000,-0.100000)" fill="#000000" stroke="none">
<path d="M640 1506 c-113 -144 -141 -177 -195 -231 -33 -33 -89 -93 -124 -133 -36 -40 -72 -72 -82 -72 -11 0 -19 -6 -19 -14 0 -8 -8 -21 -19 -28 -25 -18 -30 -47 -14 -80 9 -19 21 -28 37 -28 30 0 77 -67 96 -135 7 -26 19 -49 27 -52 7 -3 13 -12 13 -20 0 -9 6 -12 18 -9 23 7 147 35 202 46 25 4 77 16 115 25 39 10 88 21 110 25 22 4 94 20 160 34 66 15 167 36 225 47 58 12 110 25 117 31 12 10 208 -6 258 -22 36 -11 69 -18 150 -30 46 -7 63 -14 74 -32 8 -13 61 -70 118 -127 112 -111 104 -107 188 -87 11 2 70 14 130 26 61 12 132 28 158 35 88 26 243 8 457 -51 30 -9 78 -19 105 -24 28 -4 77 -17 109 -29 54 -19 146 -34 220 -35 17 -1 33 6 40 16 9 14 4 25 -29 58 -47 48 -77 69 -213 145 -56 31 -106 63 -110 70 -4 7 -32 22 -62 34 -80 32 -105 46 -105 56 0 6 52 13 115 17 63 3 124 9 135 11 11 3 26 6 33 6 15 1 16 27 1 37 -18 11 -345 2 -386 -11 -7 -3 -13 -15 -13 -29 0 -23 54 -81 98 -105 13 -7 18 -18 15 -29 -4 -15 -23 -23 -88 -36 -109 -21 -135 -20 -225 6 -41 12 -76 22 -78 23 -1 1 -4 31 -7 66 -5 80 -30 201 -51 244 -38 81 -111 143 -244 206 -130 63 -174 74 -290 73 -163 0 -339 -14 -402 -30 l-57 -15 -40 43 -39 43 -102 0 c-96 0 -101 1 -106 22 -4 13 -10 20 -15 17 -5 -3 -9 -1 -9 5 0 6 -7 8 -15 5 -13 -5 -13 -9 0 -34 14 -26 13 -29 -10 -44 -23 -15 -26 -15 -44 3 -10 10 -48 28 -84 40 -36 12 -77 31 -91 42 -13 10 -28 19 -33 19 -4 0 -19 9 -33 20 -37 29 -51 25 -90 -24z m228 -117 c37 -12 69 -23 71 -25 2 -2 -2 -12 -11 -21 -30 -37 -51 -101 -44 -138 15 -79 114 -137 221 -129 119 9 132 14 185 61 61 55 79 87 73 129 -5 34 -2 38 39 48 24 5 30 1 54 -41 29 -50 113 -164 202 -272 28 -36 52 -69 52 -74 0 -5 -12 -6 -27 -2 -86 21 -281 50 -343 50 -44 0 -139 -18 -190 -36 -14 -5 -36 -10 -50 -13 -90 -15 -108 -19 -135 -27 -41 -12 -337 -78 -385 -85 -50 -7 -145 -37 -165 -50 -21 -15 -36 -18 -34 -6 5 29 -7 59 -51 126 -29 44 -47 82 -44 91 4 8 0 23 -7 32 -12 14 -12 17 1 21 8 3 35 26 60 51 87 91 240 258 270 297 17 21 45 51 62 65 l32 26 48 -28 c27 -16 79 -39 116 -50z m393 -24 c21 -14 40 -75 33 -110 -8 -43 -56 -92 -103 -105 -107 -29 -223 -1 -236 58 -7 36 17 94 51 121 62 49 202 68 255 36z m659 -37 c55 -11 177 -69 247 -116 93 -62 137 -162 156 -354 l4 -47 -31 5 c-54 8 -190 35 -226 45 -19 5 -84 18 -145 29 -95 17 -113 24 -133 48 -13 15 -58 68 -101 117 -106 124 -135 163 -164 217 l-24 46 66 6 c36 3 93 10 126 15 64 9 152 5 225 -11z m75 -518 c50 -10 124 -26 165 -35 41 -9 87 -14 102 -11 15 3 30 1 34 -5 3 -6 11 -8 18 -6 6 3 20 -1 30 -9 15 -11 16 -14 5 -18 -37 -13 -181 -38 -245 -42 l-70 -5 -77 75 c-43 42 -72 76 -65 75 7 0 54 -8 103 -19z m1059 -114 c55 -30 110 -62 121 -71 19 -16 18 -16 -25 -11 -25 3 -74 14 -109 26 -35 11 -74 20 -87 20 -12 0 -25 4 -28 9 -3 5 -47 17 -97 27 l-91 19 98 16 c55 9 103 17 108 18 4 1 54 -24 110 -53z"/>
</g>
</svg>
