<?xml version="1.0" standalone="no"?>
<!DOCTYPE svg PUBLIC "-//W3C//DTD SVG 20010904//EN" "http://www.w3.org/TR/2001/REC-SVG-20010904/DTD/svg10.dtd">
<svg xmlns="http://www.w3.org/2000/svg" version="1.0" width="360.000000pt" height="360.000000pt" viewBox="0 0 360.000000 360.000000" preserveAspectRatio="xMidYMid meet">

<g transform="translate(0.000000,360.000000) scale(0.100000,-0.100000)" fill="#000000" stroke="none">
<path d="M1865 2392 c-11 -9 -100 -37 -100 -31 0 2 -14 -6 -32 -19 -54 -38 -96 -89 -124 -150 -21 -48 -25 -69 -22 -122 2 -36 8 -66 13 -68 21 -8 8 -40 -46 -107 -30 -38 -82 -99 -115 -133 -85 -90 -130 -161 -123 -192 16 -64 14 -91 -10 -177 -31 -109 -42 -241 -24 -265 7 -9 29 -21 48 -26 30 -7 35 -12 34 -38 -2 -51 -8 -94 -14 -94 -3 0 -5 -16 -5 -36 0 -43 24 -61 56 -44 12 7 30 10 40 7 27 -7 45 28 30 59 -6 13 -18 24 -27 24 -13 0 -15 6 -10 31 3 17 6 40 6 51 0 19 5 20 57 14 31 -3 57 -7 59 -9 1 -1 -3 -29 -8 -61 -14 -77 -3 -86 103 -86 61 0 82 4 100 19 23 19 23 20 6 39 -16 17 -28 20 -69 16 -28 -3 -55 -7 -59 -10 -15 -9 -20 16 -10 54 8 28 17 39 33 41 48 7 334 5 608 -4 157 -5 339 -10 405 -10 l121 0 44 37 c25 20 56 38 70 40 20 2 25 9 25 33 0 26 -4 30 -28 33 -16 2 -36 0 -45 -4 -10 -4 -21 -6 -26 -5 -4 1 -15 -4 -23 -11 -8 -7 -22 -13 -30 -14 -7 -1 -21 -8 -30 -15 -28 -24 -77 -28 -238 -18 -72 4 -290 10 -485 14 -195 4 -356 8 -358 10 -6 5 17 81 43 150 40 100 73 261 59 283 -22 35 -54 27 -111 -30 -51 -48 -175 -194 -214 -250 -16 -22 -17 -20 -26 62 l-9 85 79 155 c44 85 103 187 131 227 l51 72 60 -2 c49 -1 70 4 113 28 29 16 63 38 75 49 16 15 36 21 67 21 42 0 45 2 42 24 -1 13 -11 31 -22 38 -18 13 -19 16 -5 43 22 42 18 117 -8 170 -38 75 -41 80 -73 95 -37 18 -37 17 -49 7z m20 -93 c4 -6 13 -8 20 -5 12 4 25 -18 39 -70 8 -26 -17 -98 -50 -145 -21 -31 -88 -79 -111 -80 -5 -1 -16 -5 -25 -10 -25 -14 -65 6 -88 43 -16 26 -19 43 -14 77 11 72 64 151 117 172 80 32 102 35 112 18z m-239 -957 c-24 -70 -49 -140 -54 -157 -8 -29 -11 -30 -68 -31 -105 -3 -114 9 -63 79 16 23 48 67 70 97 22 30 65 83 97 118 48 53 58 59 60 42 2 -12 -17 -78 -42 -148z m-296 -146 c-8 -8 -11 4 -9 44 4 75 13 87 17 21 2 -31 -2 -59 -8 -65z"/>
</g>
</svg>
