<?xml version="1.0" standalone="no"?>
<!DOCTYPE svg PUBLIC "-//W3C//DTD SVG 20010904//EN" "http://www.w3.org/TR/2001/REC-SVG-20010904/DTD/svg10.dtd">
<svg xmlns="http://www.w3.org/2000/svg" version="1.0" width="360.000000pt" height="360.000000pt" viewBox="0 0 360.000000 360.000000" preserveAspectRatio="xMidYMid meet">

<g transform="translate(0.000000,360.000000) scale(0.100000,-0.100000)" fill="#000000" stroke="none">
<path d="M1696 1613 c-4 -10 -4 -51 0 -93 7 -89 6 -91 -81 -115 -33 -9 -93 -28 -134 -42 -40 -13 -106 -31 -146 -38 -40 -8 -92 -21 -116 -30 -24 -9 -71 -21 -104 -26 -72 -11 -113 -24 -183 -55 -29 -13 -59 -24 -67 -24 -8 0 -45 -29 -81 -65 -37 -36 -71 -65 -76 -65 -5 0 -13 -10 -17 -22 -10 -26 11 -58 39 -58 9 0 68 -18 131 -40 63 -21 168 -52 234 -69 176 -43 310 -84 394 -120 41 -17 105 -38 143 -47 37 -9 70 -20 73 -25 4 -5 19 -9 35 -9 34 0 52 25 39 55 -4 11 -8 46 -8 78 -1 32 -6 67 -11 78 -15 27 -45 24 -69 -8 -20 -24 -20 -28 -6 -49 8 -13 15 -33 15 -45 0 -20 -3 -21 -50 -15 -27 4 -82 20 -122 37 -76 32 -94 38 -193 64 -33 9 -73 22 -90 29 -16 8 -46 16 -65 20 -19 3 -44 8 -55 11 -11 2 -51 12 -89 20 -38 8 -74 19 -80 24 -6 4 -53 23 -103 41 -51 18 -93 35 -93 39 1 10 93 68 145 90 28 12 58 26 67 31 9 5 56 19 105 32 71 18 115 22 228 22 140 -1 140 -1 265 -45 l125 -44 5 -75 c4 -59 11 -84 32 -116 27 -43 83 -84 112 -84 11 0 16 -9 16 -30 0 -52 52 -53 75 -2 5 12 16 22 24 22 46 0 129 38 166 76 36 37 43 40 70 32 17 -5 68 -11 114 -13 46 -2 105 -9 130 -14 42 -10 180 -31 326 -51 33 -4 74 -15 92 -24 30 -16 34 -16 65 1 23 12 56 18 112 18 91 0 112 14 83 58 l-16 24 -97 -18 c-53 -10 -101 -16 -107 -12 -6 3 -30 5 -53 4 -24 0 -64 3 -88 9 -25 5 -66 12 -93 15 -26 3 -93 12 -148 21 -55 8 -141 19 -190 24 -127 13 -152 23 -159 65 -9 44 -77 103 -149 128 -94 32 -106 35 -144 37 -68 3 -81 0 -110 -24 l-27 -24 -56 23 c-76 31 -190 65 -217 65 -12 0 -24 4 -28 9 -7 12 26 31 53 31 11 0 61 13 110 29 49 17 103 29 120 29 51 -2 53 4 46 125 -5 84 -10 115 -22 125 -22 17 -39 15 -46 -5z m292 -481 c59 -21 98 -50 107 -80 6 -21 4 -22 -22 -16 -93 22 -278 105 -265 119 11 10 126 -4 180 -23z m-123 -86 c44 -21 109 -48 144 -60 l64 -22 -38 -24 c-32 -20 -53 -24 -111 -25 -64 0 -76 3 -99 25 -15 14 -34 39 -41 57 -15 34 -19 97 -6 91 4 -2 43 -21 87 -42z"/>
</g>
</svg>
