<?xml version="1.0" standalone="no"?>
<!DOCTYPE svg PUBLIC "-//W3C//DTD SVG 20010904//EN" "http://www.w3.org/TR/2001/REC-SVG-20010904/DTD/svg10.dtd">
<svg xmlns="http://www.w3.org/2000/svg" version="1.0" width="360.000000pt" height="360.000000pt" viewBox="0 0 360.000000 360.000000" preserveAspectRatio="xMidYMid meet">

<g transform="translate(0.000000,360.000000) scale(0.100000,-0.100000)" fill="#000000" stroke="none">
<path d="M1848 2760 c-58 -31 -119 -120 -138 -199 -24 -101 6 -248 60 -299 13 -12 37 -28 54 -36 30 -14 32 -18 33 -73 1 -45 -3 -62 -18 -76 -11 -11 -19 -31 -19 -51 0 -29 -37 -124 -69 -176 -5 -8 -26 -53 -46 -100 -21 -47 -46 -94 -57 -106 -23 -25 -23 -57 -1 -91 12 -18 18 -52 20 -112 l3 -87 -72 -17 c-40 -9 -104 -21 -143 -27 -97 -14 -116 -18 -165 -35 -23 -8 -51 -15 -62 -15 -10 0 -33 -7 -50 -16 -17 -9 -45 -18 -61 -21 -41 -6 -134 -50 -158 -74 -31 -31 -21 -68 23 -91 41 -22 148 -26 233 -9 29 6 119 8 210 4 88 -3 181 -6 208 -7 45 -1 47 -2 47 -31 0 -16 4 -36 9 -43 15 -25 60 -41 96 -35 38 6 39 6 35 -69 -1 -31 2 -38 17 -38 10 0 23 4 28 8 16 11 35 60 35 92 0 32 18 50 30 30 4 -7 11 -30 14 -52 8 -50 45 -71 76 -43 19 18 20 27 3 72 -4 9 5 13 25 13 37 0 49 15 58 67 l6 42 172 -4 c186 -4 251 -10 366 -30 68 -12 79 -11 118 6 49 21 59 39 43 77 -23 54 -104 122 -146 122 -8 0 -40 11 -71 25 -31 14 -64 25 -73 25 -9 0 -29 7 -45 15 -43 23 -126 45 -174 47 -24 1 -45 5 -48 10 -3 4 -29 8 -58 8 l-53 0 8 43 c4 24 11 82 15 130 6 75 5 87 -10 93 -9 3 -16 12 -16 19 0 8 -6 20 -13 27 -7 7 -28 47 -46 88 -18 41 -49 106 -68 143 -19 37 -41 90 -49 117 -8 27 -22 53 -31 58 -11 7 -17 27 -20 65 l-4 55 41 7 c38 6 113 58 147 103 25 32 44 120 37 179 -9 89 -10 96 -23 128 -32 84 -68 118 -159 151 l-57 20 -47 -26z m114 -92 c62 -18 91 -84 92 -206 0 -99 -49 -169 -129 -185 -22 -4 -69 16 -98 42 -31 27 -47 80 -47 156 0 84 18 135 63 182 32 34 38 35 119 11z m-112 -826 c-12 -53 -17 -155 -19 -379 l-1 -103 -44 0 -43 0 -6 83 c-11 176 -5 213 57 340 31 64 56 122 57 129 0 10 2 10 6 -1 3 -7 0 -39 -7 -69z m161 -117 c23 -55 50 -112 60 -126 17 -24 18 -38 11 -130 l-7 -104 -68 -1 c-95 -1 -99 3 -98 116 1 185 10 385 17 404 9 22 12 15 85 -159z m-164 -426 c5 -5 58 -11 116 -12 l106 -2 -6 -40 c-3 -22 -11 -58 -17 -80 -11 -36 -15 -40 -48 -43 -47 -4 -72 -32 -73 -83 0 -29 -4 -39 -15 -37 -8 2 -16 14 -18 28 -8 66 -59 119 -101 105 -17 -5 -21 2 -31 52 -6 32 -12 66 -15 76 -4 19 4 25 42 30 12 2 26 6 29 10 10 10 18 9 31 -4z m488 -41 c28 -6 78 -21 113 -34 34 -13 68 -24 75 -24 25 0 150 -58 171 -80 l21 -22 -50 7 c-27 4 -81 9 -120 10 -38 2 -115 7 -170 11 -55 5 -129 9 -165 9 -36 1 -71 2 -77 3 -16 3 -16 39 -1 98 l13 46 70 -7 c38 -3 93 -11 120 -17z m-655 -59 c10 -58 10 -73 -1 -80 -14 -8 -105 -3 -197 10 -43 7 -217 7 -217 1 0 -5 -50 -11 -124 -17 -96 -7 -103 5 -19 31 29 9 62 21 73 25 46 20 114 40 165 50 80 14 154 25 165 23 6 -1 30 5 55 13 84 26 87 24 100 -56z m120 -170 c0 -6 -4 -7 -10 -4 -5 3 -10 11 -10 16 0 6 5 7 10 4 6 -3 10 -11 10 -16z"/>
</g>
</svg>
