<?xml version="1.0" standalone="no"?>
<!DOCTYPE svg PUBLIC "-//W3C//DTD SVG 20010904//EN" "http://www.w3.org/TR/2001/REC-SVG-20010904/DTD/svg10.dtd">
<svg xmlns="http://www.w3.org/2000/svg" version="1.0" width="360.000000pt" height="360.000000pt" viewBox="0 0 360.000000 360.000000" preserveAspectRatio="xMidYMid meet">

<g transform="translate(0.000000,360.000000) scale(0.100000,-0.100000)" fill="#000000" stroke="none">
<path d="M782 2992 c-25 -2 -42 -15 -72 -53 -38 -49 -40 -54 -39 -122 1 -84 10 -120 51 -202 33 -67 81 -124 127 -151 21 -12 29 -24 27 -38 -1 -11 7 -59 20 -105 21 -79 21 -87 7 -103 -21 -24 -42 -175 -43 -313 -1 -60 -8 -164 -16 -230 -18 -144 -18 -173 1 -247 8 -31 19 -107 25 -170 5 -62 14 -149 20 -193 5 -44 15 -129 22 -188 14 -116 21 -128 73 -125 17 0 56 -2 87 -7 56 -7 58 -6 70 20 11 24 10 29 -6 41 -11 7 -45 16 -77 20 -56 6 -59 8 -64 38 -28 168 -45 298 -50 381 -4 55 -10 118 -15 140 -17 78 -17 160 -2 479 7 137 14 251 16 254 9 8 33 -124 45 -248 13 -134 14 -579 1 -674 -15 -115 -3 -241 26 -275 21 -24 29 -26 116 -29 68 -3 115 2 173 16 44 11 100 20 124 21 25 1 48 4 52 7 4 2 31 6 61 9 29 3 89 13 133 22 65 13 116 14 274 9 107 -4 217 -11 245 -16 28 -5 65 -12 81 -15 17 -2 77 -9 135 -15 106 -10 169 -22 360 -67 99 -23 105 -24 117 -7 16 22 16 37 1 52 -10 10 -10 14 -1 20 8 5 15 43 18 103 3 51 10 106 16 122 19 46 -21 76 -53 40 -19 -22 -28 -81 -29 -192 l-1 -83 -42 6 c-22 4 -70 15 -106 26 -36 10 -87 21 -114 25 -27 3 -52 8 -56 10 -3 2 -57 8 -120 15 -131 12 -171 17 -255 30 -130 19 -385 22 -495 5 -58 -9 -127 -18 -154 -21 -27 -3 -60 -10 -73 -15 -13 -5 -43 -9 -66 -9 -23 0 -69 -7 -102 -15 -33 -8 -81 -14 -107 -15 -46 0 -47 1 -52 33 -6 38 -16 346 -21 637 -1 113 -6 221 -9 240 -4 19 -13 78 -21 130 -22 157 -73 359 -105 413 l-19 33 47 13 c26 8 53 19 60 24 28 22 47 74 52 142 l5 70 40 0 c22 0 46 4 53 8 14 9 16 55 3 75 -10 16 -57 7 -84 -16 -21 -18 -20 -20 -36 47 -33 135 -132 200 -279 183z m100 -81 c39 -9 68 -32 88 -71 23 -44 40 -124 40 -192 0 -64 -1 -68 -32 -91 -18 -13 -41 -27 -50 -30 -60 -21 -172 126 -178 234 -5 83 0 110 25 134 26 27 48 30 107 16z"/>
</g>
</svg>
