<?xml version="1.0" standalone="no"?>
<!DOCTYPE svg PUBLIC "-//W3C//DTD SVG 20010904//EN" "http://www.w3.org/TR/2001/REC-SVG-20010904/DTD/svg10.dtd">
<svg xmlns="http://www.w3.org/2000/svg" version="1.0" width="360.000000pt" height="360.000000pt" viewBox="0 0 360.000000 360.000000" preserveAspectRatio="xMidYMid meet">

<g transform="translate(0.000000,360.000000) scale(0.100000,-0.100000)" fill="#000000" stroke="none">
<path d="M1125 2548 c-37 -20 -76 -63 -91 -97 -13 -31 -17 -105 -15 -255 1 -56 97 -169 154 -180 107 -23 101 -25 178 53 43 45 72 83 76 101 3 17 10 33 14 36 5 3 9 18 9 34 0 22 7 32 32 44 17 9 40 16 50 16 14 0 19 6 16 23 -3 19 -9 22 -53 22 -49 0 -50 0 -63 40 -18 54 -54 98 -97 121 -21 10 -51 27 -69 36 -35 19 -111 23 -141 6z m165 -88 c113 -65 126 -230 26 -338 -81 -90 -185 -56 -213 69 -18 77 -16 119 7 167 11 22 20 45 20 51 0 5 15 25 33 45 40 42 63 43 127 6z"/>
<path d="M1181 1971 c-6 -11 -11 -29 -11 -40 0 -11 -8 -35 -19 -53 -10 -19 -21 -47 -24 -63 -16 -89 -51 -192 -97 -290 -28 -60 -56 -121 -62 -135 -6 -14 -14 -33 -19 -42 -12 -23 -12 -73 0 -96 17 -34 30 -67 36 -97 23 -115 63 -251 89 -305 14 -30 26 -60 26 -66 0 -6 11 -17 25 -24 19 -10 30 -11 50 -2 14 7 41 12 60 12 19 0 37 4 40 10 3 5 17 10 31 10 21 0 25 4 22 22 -2 18 -11 24 -38 26 l-35 4 34 14 c18 8 40 14 49 14 8 0 24 7 34 17 19 17 30 24 94 59 22 12 76 47 122 78 45 31 86 56 91 56 4 0 16 9 26 20 10 11 23 20 30 20 6 0 22 11 35 25 13 14 32 25 42 25 10 0 27 5 37 12 15 9 28 3 87 -44 38 -31 87 -74 109 -97 21 -23 44 -41 50 -41 6 0 53 -43 105 -95 90 -90 97 -95 137 -95 24 0 52 -5 63 -12 15 -10 29 -10 64 0 30 8 54 9 70 2 25 -9 96 11 96 28 -1 32 -43 44 -184 49 l-110 4 -50 42 c-28 22 -60 51 -71 62 -11 12 -43 40 -71 63 -27 22 -74 63 -103 91 -30 28 -56 51 -60 51 -3 0 -33 20 -66 45 -56 42 -95 57 -95 36 0 -10 -185 -141 -199 -141 -5 0 -11 -4 -13 -8 -4 -11 -94 -72 -106 -72 -5 0 -17 -9 -27 -20 -10 -11 -24 -20 -30 -20 -7 0 -18 -7 -25 -15 -7 -8 -31 -24 -54 -35 -22 -11 -64 -33 -91 -48 -58 -33 -95 -44 -95 -30 0 5 4 39 10 76 5 37 12 108 15 157 3 50 7 108 9 130 22 218 25 276 17 297 -4 13 -7 95 -5 183 4 170 -3 256 -23 262 -6 2 -16 -5 -22 -16z m-15 -476 c-3 -77 -10 -180 -16 -230 -5 -49 -12 -132 -16 -182 -4 -65 -10 -93 -19 -93 -13 0 -37 65 -50 130 -3 19 -18 72 -32 118 -21 66 -24 87 -15 105 46 91 122 274 133 318 l14 54 3 -40 c2 -22 1 -103 -2 -180z"/>
</g>
</svg>
