<?xml version="1.0" standalone="no"?>
<!DOCTYPE svg PUBLIC "-//W3C//DTD SVG 20010904//EN" "http://www.w3.org/TR/2001/REC-SVG-20010904/DTD/svg10.dtd">
<svg xmlns="http://www.w3.org/2000/svg" version="1.0" width="360.000000pt" height="360.000000pt" viewBox="0 0 360.000000 360.000000" preserveAspectRatio="xMidYMid meet">

<g transform="translate(0.000000,360.000000) scale(0.100000,-0.100000)" fill="#000000" stroke="none">
<path d="M779 2095 c-41 -22 -60 -60 -66 -133 -8 -96 8 -141 72 -211 64 -68 99 -85 159 -79 l45 5 64 -86 c35 -47 86 -120 112 -161 26 -41 67 -104 91 -140 24 -36 55 -93 69 -125 14 -33 32 -71 39 -85 37 -68 166 -449 166 -491 0 -14 9 -34 21 -44 18 -18 23 -18 62 -5 43 16 48 22 93 125 53 120 104 222 158 315 31 52 70 123 88 156 28 56 35 63 70 68 30 5 46 1 78 -19 22 -14 42 -25 45 -25 4 0 21 -11 38 -24 18 -13 99 -58 181 -100 108 -56 154 -75 170 -70 11 4 45 29 74 55 30 27 60 49 68 49 24 0 16 27 -10 34 -31 8 -52 0 -98 -36 l-38 -30 -55 21 c-66 25 -172 76 -200 97 -19 14 -19 16 -2 25 21 12 21 35 -2 74 -13 22 -25 29 -42 27 -34 -3 -66 -4 -132 -3 l-58 2 7 37 c8 42 20 62 40 62 7 0 21 12 30 26 25 38 116 96 261 166 70 35 130 66 133 69 11 14 91 49 100 44 17 -11 50 15 50 40 0 13 -11 46 -25 73 -14 27 -31 73 -38 101 -13 50 -28 71 -54 71 -24 0 -23 -41 5 -123 15 -46 26 -89 24 -96 -2 -6 -30 -25 -63 -41 l-58 -30 -36 21 c-40 24 -65 14 -65 -26 0 -21 -4 -22 -142 -30 -79 -5 -210 -9 -293 -11 -82 -1 -186 -5 -230 -8 -83 -6 -218 -13 -441 -22 l-131 -5 -23 61 c-12 33 -26 63 -31 66 -5 3 0 17 10 32 17 24 19 34 10 87 -6 33 -17 73 -25 89 -15 31 -14 35 34 83 18 19 21 27 12 43 -17 31 -55 26 -70 -10 -7 -16 -15 -30 -17 -30 -3 0 -14 12 -26 26 -42 54 -152 80 -208 49z m129 -59 c15 -8 34 -27 42 -43 8 -15 25 -44 38 -64 30 -47 34 -139 7 -169 -28 -31 -82 -26 -139 11 -57 38 -78 76 -80 143 -2 109 55 162 132 122z m1382 -441 c0 -5 -54 -36 -90 -50 -14 -5 -57 -32 -97 -58 -52 -35 -73 -55 -78 -75 -3 -15 -15 -43 -26 -61 -19 -31 -21 -32 -38 -17 -29 26 -47 19 -66 -26 -11 -24 -20 -45 -22 -47 -1 -2 -22 -7 -45 -11 -24 -5 -80 -18 -125 -30 -77 -20 -83 -20 -107 -4 -15 9 -26 13 -26 9 0 -4 -17 6 -37 23 -21 16 -81 51 -133 78 -67 35 -116 70 -169 121 -47 45 -72 76 -66 81 13 12 192 30 275 28 36 -1 82 2 102 6 21 4 165 11 320 14 156 3 303 9 328 13 54 10 100 13 100 6z m-330 -309 c0 -3 -4 -8 -10 -11 -5 -3 -10 -1 -10 4 0 6 5 11 10 11 6 0 10 -2 10 -4z m-486 -91 c28 -19 60 -46 73 -60 31 -33 60 -32 127 4 30 17 71 33 93 36 21 4 46 9 56 12 13 3 6 -18 -32 -94 -27 -54 -59 -127 -71 -163 -13 -36 -26 -69 -30 -75 -4 -5 -10 -23 -14 -40 -8 -34 -56 -156 -67 -169 -4 -4 -9 0 -12 10 -41 141 -49 164 -61 164 -8 0 -13 11 -13 28 0 32 -54 167 -123 310 -28 56 -50 105 -50 107 0 8 66 -30 124 -70z"/>
</g>
</svg>
