<?xml version="1.0" standalone="no"?>
<!DOCTYPE svg PUBLIC "-//W3C//DTD SVG 20010904//EN" "http://www.w3.org/TR/2001/REC-SVG-20010904/DTD/svg10.dtd">
<svg xmlns="http://www.w3.org/2000/svg" version="1.0" width="360.000000pt" height="360.000000pt" viewBox="0 0 360.000000 360.000000" preserveAspectRatio="xMidYMid meet">

<g transform="translate(0.000000,360.000000) scale(0.100000,-0.100000)" fill="#000000" stroke="none">
<path d="M2867 1943 c-4 -3 -7 -38 -7 -77 0 -39 -4 -77 -9 -84 -7 -11 -82 -14 -382 -17 -386 -2 -452 -7 -481 -33 -20 -17 -24 -81 -8 -149 6 -24 15 -73 20 -110 5 -38 16 -104 24 -148 8 -44 17 -100 20 -125 9 -63 18 -121 22 -145 8 -39 5 -130 -5 -157 -22 -57 -99 -77 -323 -83 -95 -3 -177 -6 -183 -7 -17 -2 -309 14 -315 17 -3 2 -35 6 -72 10 -38 3 -85 13 -105 21 -112 45 -120 52 -282 234 -38 42 -49 72 -30 78 30 10 90 85 101 125 9 36 17 45 52 60 39 17 40 19 22 33 -11 7 -27 14 -37 14 -13 0 -17 13 -22 65 -5 65 -25 105 -52 105 -7 0 -24 11 -39 25 -40 37 -97 34 -161 -8 -44 -28 -53 -40 -73 -97 -28 -80 -26 -174 5 -235 24 -46 45 -67 89 -85 22 -10 40 -31 64 -78 54 -104 144 -204 290 -321 30 -25 62 -51 70 -58 104 -90 134 -110 188 -121 66 -14 136 -2 497 87 108 26 159 33 265 38 98 5 118 9 138 26 37 34 23 77 -26 77 l-25 0 27 25 c25 23 26 27 22 112 -4 92 -25 239 -50 345 -8 35 -24 124 -36 198 -23 144 -19 190 17 190 10 0 81 3 158 6 77 3 228 5 335 4 107 -1 226 -2 263 -3 46 0 73 5 82 14 15 15 24 206 11 227 -8 13 -48 16 -59 5z m-2135 -403 c25 -11 50 -25 56 -32 16 -21 20 -108 7 -172 -16 -77 -48 -108 -109 -104 -37 3 -44 8 -73 52 -38 56 -44 121 -17 184 13 28 69 85 90 92 1 0 22 -9 46 -20z m666 -796 c138 -9 130 -9 257 0 121 9 110 -4 -25 -29 -52 -9 -126 -25 -165 -35 -96 -26 -193 -30 -225 -10 -49 30 -130 92 -130 99 0 4 39 1 86 -5 47 -7 138 -16 202 -20z"/>
</g>
</svg>
