<?xml version="1.0" standalone="no"?>
<!DOCTYPE svg PUBLIC "-//W3C//DTD SVG 20010904//EN" "http://www.w3.org/TR/2001/REC-SVG-20010904/DTD/svg10.dtd">
<svg xmlns="http://www.w3.org/2000/svg" version="1.0" width="360.000000pt" height="360.000000pt" viewBox="0 0 360.000000 360.000000" preserveAspectRatio="xMidYMid meet">

<g transform="translate(0.000000,360.000000) scale(0.100000,-0.100000)" fill="#000000" stroke="none">
<path d="M3158 2003 c-12 -15 -13 -34 -7 -108 l8 -90 -49 -45 c-65 -59 -141 -118 -199 -153 -25 -16 -60 -42 -78 -59 -17 -17 -54 -47 -82 -67 -27 -20 -75 -56 -106 -81 -55 -43 -88 -69 -322 -248 -59 -45 -131 -103 -158 -130 -50 -47 -235 -174 -350 -240 -33 -19 -121 -65 -195 -102 -126 -63 -142 -69 -235 -79 -128 -15 -208 -15 -265 -2 -57 13 -181 59 -199 74 -7 6 -21 16 -32 22 -64 36 -162 99 -188 121 -70 58 -126 176 -137 284 -9 89 0 101 97 127 46 12 105 24 130 27 53 5 148 26 269 60 103 29 174 46 198 46 24 1 48 21 56 47 6 18 1 25 -25 38 -17 9 -43 18 -58 20 -14 2 -28 5 -31 6 -3 1 -18 3 -35 4 -16 2 -32 3 -35 5 -3 1 -16 4 -29 6 -33 6 -36 11 -21 29 7 8 14 43 17 77 3 56 1 67 -24 103 -38 53 -83 75 -157 75 -63 0 -110 -22 -186 -88 -30 -26 -42 -31 -61 -24 -30 12 -109 -41 -109 -73 0 -27 18 -45 47 -45 21 0 23 -4 21 -52 -1 -29 1 -63 6 -75 6 -18 3 -25 -16 -34 -41 -19 -88 -94 -109 -176 -18 -71 -18 -82 -4 -154 32 -173 103 -269 279 -378 202 -125 294 -156 451 -151 44 1 118 3 165 4 72 1 91 5 125 27 22 14 92 51 155 83 63 32 124 66 135 76 11 11 38 27 60 36 22 9 57 30 78 46 20 16 59 42 86 56 46 26 91 60 185 142 23 20 88 71 146 115 58 43 121 92 141 109 39 34 161 124 192 142 10 7 35 25 55 42 149 125 207 171 244 195 81 53 187 133 213 161 23 25 26 34 19 65 -4 20 -8 69 -8 109 -1 53 -5 75 -16 82 -22 14 -35 12 -52 -7z m-2157 -341 c20 -27 25 -85 10 -125 -9 -22 -12 -23 -58 -16 -42 7 -212 55 -220 62 -8 9 31 46 69 64 101 50 167 55 199 15z m-215 -163 c38 -12 76 -22 84 -24 8 -1 28 -5 44 -10 l29 -8 -44 -23 c-60 -31 -173 -34 -189 -5 -12 24 -13 91 -1 91 5 0 40 -10 77 -21z m328 -84 l49 -11 -109 -29 c-60 -16 -110 -28 -111 -28 -1 1 -24 -5 -49 -13 -26 -8 -64 -14 -84 -14 -21 0 -73 -9 -116 -20 -43 -10 -80 -18 -81 -16 -2 2 6 14 17 29 11 14 20 31 20 37 0 8 6 9 18 4 9 -5 60 -9 112 -9 82 0 101 3 137 24 38 22 45 23 68 11 30 -16 44 -6 28 19 -15 24 3 44 32 34 11 -3 42 -12 69 -18z"/>
</g>
</svg>
