<?xml version="1.0" standalone="no"?>
<!DOCTYPE svg PUBLIC "-//W3C//DTD SVG 20010904//EN" "http://www.w3.org/TR/2001/REC-SVG-20010904/DTD/svg10.dtd">
<svg xmlns="http://www.w3.org/2000/svg" version="1.0" width="360.000000pt" height="360.000000pt" viewBox="0 0 360.000000 360.000000" preserveAspectRatio="xMidYMid meet">

<g transform="translate(0.000000,360.000000) scale(0.100000,-0.100000)" fill="#000000" stroke="none">
<path d="M2018 2520 c-18 -11 -14 -38 15 -95 49 -96 57 -138 34 -169 -12 -17 -14 -17 -20 -2 -4 9 -13 16 -20 16 -28 0 -45 -35 -51 -104 -5 -59 -16 -90 -77 -215 -39 -80 -89 -178 -112 -218 l-42 -72 -65 -17 c-36 -9 -69 -21 -75 -25 -14 -10 -117 -40 -122 -35 -5 4 27 87 40 104 5 6 18 12 29 12 28 0 106 67 128 110 13 25 29 40 50 46 36 10 41 25 14 38 -17 8 -19 18 -16 85 5 97 -6 125 -60 152 -55 28 -111 28 -148 0 -16 -11 -32 -21 -35 -21 -10 0 -70 -72 -97 -119 -45 -76 -34 -196 23 -253 35 -36 32 -62 -22 -168 -21 -41 -45 -101 -53 -133 -8 -31 -17 -61 -20 -66 -15 -24 -38 -179 -43 -291 -5 -105 -2 -141 16 -222 21 -100 56 -187 88 -224 25 -30 125 -76 176 -81 46 -5 149 34 174 65 81 105 133 239 133 345 0 36 -13 131 -29 213 -53 270 -55 299 -35 408 2 10 5 20 6 21 12 8 82 36 123 50 28 9 63 27 80 40 l29 24 8 163 c4 90 5 171 2 181 -8 24 20 82 66 137 54 65 55 78 22 162 -67 166 -76 179 -114 158z m-383 -475 c51 -67 25 -181 -57 -250 -67 -57 -148 -10 -148 85 0 48 25 120 42 120 4 0 8 6 8 13 0 20 68 57 122 66 4 0 19 -15 33 -34z m338 -177 c-6 -107 -18 -128 -88 -152 l-43 -14 65 129 c36 71 66 129 68 129 2 0 1 -42 -2 -92z m-253 -414 c0 -22 5 -66 10 -97 6 -31 13 -69 15 -84 2 -15 14 -77 26 -138 30 -156 23 -254 -25 -355 -20 -41 -42 -82 -49 -91 -17 -23 -69 -47 -114 -55 -72 -11 -171 58 -203 142 -6 14 -19 68 -30 118 -29 138 -21 266 32 469 26 99 34 117 50 117 11 0 52 15 91 34 40 19 91 39 115 45 24 5 46 12 50 15 9 10 32 -74 32 -120z"/>
</g>
</svg>
