<?xml version="1.0" standalone="no"?>
<!DOCTYPE svg PUBLIC "-//W3C//DTD SVG 20010904//EN" "http://www.w3.org/TR/2001/REC-SVG-20010904/DTD/svg10.dtd">
<svg xmlns="http://www.w3.org/2000/svg" version="1.0" width="360.000000pt" height="360.000000pt" viewBox="0 0 360.000000 360.000000" preserveAspectRatio="xMidYMid meet">

<g transform="translate(0.000000,360.000000) scale(0.100000,-0.100000)" fill="#000000" stroke="none">
<path d="M1487 1393 c-1 -1 -40 -4 -87 -8 -47 -3 -105 -10 -130 -15 -25 -5 -56 -12 -70 -14 -119 -20 -304 -90 -388 -148 -64 -44 -191 -166 -209 -202 -9 -17 -22 -36 -29 -44 -8 -7 -14 -22 -14 -32 0 -10 -4 -21 -9 -24 -11 -7 -26 -81 -22 -111 3 -28 94 -109 136 -122 50 -16 181 -5 280 22 142 38 203 50 355 64 52 4 106 13 120 18 14 6 50 14 80 18 30 4 66 10 80 11 72 11 120 12 415 15 398 4 435 -2 495 -72 37 -44 79 -65 97 -49 4 4 47 20 95 35 62 19 97 25 125 21 88 -15 119 -16 144 -5 34 13 44 47 22 71 -22 25 -11 32 51 34 30 1 59 4 65 8 19 12 12 64 -14 105 -33 53 -45 59 -66 32 -14 -18 -16 -27 -8 -42 12 -24 4 -39 -23 -39 -18 0 -19 4 -13 37 4 21 18 64 31 97 25 63 24 76 -7 76 -10 0 -19 6 -19 13 0 8 -3 7 -9 -3 -6 -8 -7 -18 -4 -23 3 -5 0 -12 -6 -16 -6 -4 -22 -49 -35 -101 -25 -100 -29 -105 -110 -147 -54 -27 -29 -28 -283 4 -24 3 -43 8 -43 12 0 3 -12 20 -27 37 -99 108 -104 116 -87 141 8 13 13 32 10 41 -3 9 -7 34 -10 55 -7 41 -37 89 -72 112 -39 26 -140 56 -190 57 -34 0 -62 9 -98 31 -33 19 -67 31 -96 32 -25 1 -67 6 -95 10 -27 4 -61 3 -74 -3 -15 -5 -42 -5 -70 1 -39 8 -179 16 -184 10z m343 -88 c62 -9 64 -12 36 -45 -29 -35 -56 -116 -56 -167 0 -19 11 -55 24 -81 24 -48 71 -80 139 -96 15 -4 27 -13 27 -21 0 -11 -24 -13 -140 -10 l-140 4 -1 -32 -2 -32 -4 29 -5 29 -101 -6 c-56 -3 -114 -10 -129 -16 -30 -11 -241 -42 -292 -43 -17 0 -74 -10 -126 -23 -205 -51 -289 -61 -356 -45 -76 18 -98 42 -90 94 7 43 42 110 84 161 28 35 164 155 175 155 4 0 20 9 35 20 15 11 36 21 47 23 11 2 34 10 50 16 59 25 110 43 130 46 80 13 184 34 205 43 25 10 415 8 490 -3z m215 -84 c17 -14 56 -50 188 -175 19 -18 19 -19 0 -37 -22 -22 -49 -29 -113 -29 -127 1 -198 20 -219 59 -30 56 -16 117 42 178 33 35 62 36 102 4z m150 -4 c51 -18 74 -37 85 -73 7 -20 10 -38 7 -41 -5 -4 -95 73 -147 125 -13 13 -13 14 5 7 11 -4 34 -12 50 -18z m150 -294 c19 -21 35 -41 35 -44 0 -4 -21 -3 -46 2 -26 5 -100 7 -166 4 -76 -3 -117 -1 -113 5 3 6 35 10 70 10 35 0 67 5 70 10 3 6 18 10 33 10 15 0 38 9 52 20 14 11 26 20 27 20 2 0 18 -17 38 -37z"/>
</g>
</svg>
