<?xml version="1.0" standalone="no"?>
<!DOCTYPE svg PUBLIC "-//W3C//DTD SVG 20010904//EN" "http://www.w3.org/TR/2001/REC-SVG-20010904/DTD/svg10.dtd">
<svg xmlns="http://www.w3.org/2000/svg" version="1.0" width="360.000000pt" height="360.000000pt" viewBox="0 0 360.000000 360.000000" preserveAspectRatio="xMidYMid meet">

<g transform="translate(0.000000,360.000000) scale(0.100000,-0.100000)" fill="#000000" stroke="none">
<path d="M1801 2719 c-42 -25 -52 -35 -84 -86 -21 -33 -29 -64 -39 -151 -10 -98 -10 -113 5 -145 20 -41 72 -97 92 -97 7 0 18 -7 25 -15 16 -19 102 -20 138 -1 44 23 99 88 117 136 26 68 25 126 -4 213 -29 89 -71 147 -106 147 -13 0 -27 5 -30 10 -10 17 -78 10 -114 -11z m113 -55 c19 -9 40 -29 46 -43 13 -26 17 -36 40 -99 22 -57 -6 -157 -58 -214 -48 -53 -146 -29 -188 46 -18 31 -20 49 -16 114 3 63 9 86 34 127 25 42 72 82 100 84 4 1 23 -6 42 -15z"/>
<path d="M1856 2171 c-9 -10 -16 -35 -16 -61 0 -26 -10 -64 -26 -96 -63 -129 -299 -431 -523 -670 -101 -107 -131 -127 -194 -134 -47 -5 -52 -7 -52 -30 0 -23 4 -25 59 -28 32 -2 64 2 69 7 6 6 21 11 34 11 22 0 93 63 93 83 0 6 26 39 58 74 98 108 147 166 202 238 30 39 71 89 92 112 21 23 68 83 104 133 40 54 70 88 76 82 5 -5 7 -110 5 -238 -3 -126 -5 -253 -5 -281 l-1 -53 -33 0 c-18 0 -40 -4 -48 -10 -9 -5 -19 -5 -28 2 -9 8 -16 8 -24 0 -8 -8 -59 -12 -149 -12 -81 0 -140 -4 -144 -10 -3 -5 -16 -10 -29 -10 -47 0 -79 -76 -36 -87 11 -3 20 -9 20 -14 0 -5 10 -9 23 -9 13 0 28 -5 34 -11 17 -17 206 -2 258 21 45 20 471 38 489 20 5 -5 24 -10 42 -10 30 0 51 -20 37 -34 -4 -3 -39 -6 -79 -6 -40 0 -76 -4 -79 -10 -3 -5 -26 -10 -51 -10 -24 0 -44 -4 -44 -10 0 -6 -31 -10 -74 -10 -41 0 -78 -4 -81 -10 -9 -15 -208 -13 -223 2 -10 10 -17 10 -32 0 -11 -6 -39 -12 -63 -12 -48 0 -77 -22 -77 -57 0 -20 29 -53 47 -53 5 0 18 -9 28 -20 10 -11 28 -20 40 -20 25 0 75 -22 75 -32 0 -12 88 -9 95 2 11 18 -6 50 -25 50 -10 0 -22 5 -25 10 -3 6 -16 10 -28 10 -12 1 -37 9 -56 19 l-34 18 37 13 c29 9 44 9 66 0 17 -7 50 -10 82 -6 29 3 80 8 113 12 33 3 64 10 69 15 6 5 36 9 67 9 32 0 61 5 64 10 3 6 32 10 64 10 32 0 76 7 97 16 30 13 60 15 130 12 51 -3 99 -1 108 4 23 13 20 43 -6 61 l-23 16 22 0 c12 1 23 -3 25 -7 5 -12 65 -52 78 -52 7 0 10 11 8 28 -2 22 0 26 17 23 11 -2 46 -5 78 -8 54 -4 61 -3 88 23 16 15 29 33 29 40 0 20 -19 27 -36 13 -22 -18 -109 -11 -163 14 -25 11 -48 25 -49 29 -2 5 -9 14 -16 21 -6 6 -37 44 -67 82 -31 39 -63 76 -72 84 -10 7 -17 19 -17 25 0 7 -13 25 -30 41 -16 16 -30 33 -30 39 0 5 -9 19 -19 30 -23 24 -55 68 -110 149 -22 32 -92 112 -155 178 l-116 121 0 58 c0 65 -9 79 -34 51z m104 -256 c64 -66 153 -182 298 -385 45 -63 109 -146 142 -185 87 -101 92 -120 24 -87 -81 40 -174 55 -189 32 -9 -14 -130 -13 -158 2 -48 24 -57 28 -76 28 -11 0 -23 5 -26 10 -3 6 -15 10 -25 10 -10 0 -28 12 -40 27 -17 22 -20 36 -15 63 7 44 7 31 -2 308 -7 208 -7 242 3 242 1 0 30 -29 64 -65z m-335 -694 c-7 -12 -175 -11 -175 1 0 4 41 8 91 8 54 0 88 -4 84 -9z m790 -21 c3 -5 1 -10 -4 -10 -6 0 -11 5 -11 10 0 6 2 10 4 10 3 0 8 -4 11 -10z"/>
</g>
</svg>
