<?xml version="1.0" standalone="no"?>
<!DOCTYPE svg PUBLIC "-//W3C//DTD SVG 20010904//EN" "http://www.w3.org/TR/2001/REC-SVG-20010904/DTD/svg10.dtd">
<svg xmlns="http://www.w3.org/2000/svg" version="1.0" width="360.000000pt" height="360.000000pt" viewBox="0 0 360.000000 360.000000" preserveAspectRatio="xMidYMid meet">

<g transform="translate(0.000000,360.000000) scale(0.100000,-0.100000)" fill="#000000" stroke="none">
<path d="M1656 2457 c-55 -58 -83 -141 -85 -248 -2 -136 33 -225 97 -247 43 -14 137 9 173 44 41 39 50 58 64 134 18 101 12 194 -17 230 -12 16 -33 43 -46 60 -13 16 -32 30 -42 30 -9 0 -23 7 -30 15 -7 8 -28 15 -48 15 -26 0 -42 -8 -66 -33z m124 -72 c16 -8 38 -29 51 -46 20 -28 21 -40 17 -127 -3 -54 -10 -108 -17 -120 -17 -32 -70 -62 -108 -62 -54 0 -95 77 -94 179 1 79 19 128 60 162 41 33 51 35 91 14z"/>
<path d="M1696 1935 c-3 -9 -6 -34 -6 -55 0 -21 -4 -40 -8 -42 -14 -6 -50 -72 -75 -138 -13 -36 -43 -103 -65 -150 -22 -47 -49 -105 -60 -131 -40 -88 -194 -280 -246 -304 -42 -20 -109 -83 -101 -95 9 -15 83 -3 119 20 17 10 69 60 116 111 47 51 91 98 98 105 6 7 12 18 12 25 0 7 14 34 30 60 17 26 40 73 51 105 11 32 29 74 39 93 10 20 30 72 45 116 15 44 32 87 37 95 9 15 6 -163 -8 -443 -8 -163 14 -141 -213 -216 -149 -49 -326 -128 -404 -179 -48 -32 -48 -69 -2 -92 35 -17 212 -17 273 0 20 5 49 10 63 10 15 0 49 6 75 14 27 8 85 24 129 37 44 13 99 31 122 41 25 10 45 13 48 8 4 -6 21 -10 39 -10 18 0 41 -7 52 -15 10 -8 33 -15 51 -15 17 0 42 -4 56 -9 24 -9 196 -47 372 -82 117 -23 166 -19 185 17 11 19 11 32 1 64 -6 22 -17 40 -24 40 -7 0 -45 22 -85 49 -44 30 -91 52 -115 56 -23 4 -46 10 -52 13 -5 4 -21 8 -34 10 -13 2 -40 10 -60 18 -20 9 -83 31 -141 51 -57 19 -137 50 -176 69 -40 19 -76 34 -82 34 -15 0 -19 27 -16 110 1 41 3 160 4 264 1 104 5 185 10 180 4 -5 17 -35 28 -66 12 -32 48 -110 80 -175 32 -65 79 -161 103 -213 41 -90 111 -190 147 -209 10 -5 33 -11 52 -14 19 -2 53 -12 75 -20 39 -16 73 -22 108 -19 21 2 23 32 1 32 -9 0 -36 14 -61 30 -67 45 -120 70 -136 64 -23 -8 -73 59 -129 174 -28 59 -74 144 -101 190 -38 64 -117 232 -117 249 0 2 -6 3 -14 3 -8 0 -16 7 -20 15 -3 8 -12 15 -19 15 -10 0 -16 17 -20 52 -7 56 -20 79 -31 53z m130 -817 c63 -33 192 -80 341 -123 61 -18 133 -45 160 -60 66 -39 111 -95 64 -80 -20 6 -32 8 -119 25 -28 5 -61 14 -71 20 -11 5 -39 10 -63 11 -24 0 -52 4 -63 9 -13 6 -3 7 28 3 37 -4 47 -3 47 9 0 21 -76 71 -155 103 -76 30 -124 29 -186 -4 -31 -17 -38 -17 -74 -4 -22 8 -47 16 -55 18 -8 2 -27 6 -41 10 -19 5 -49 -3 -100 -23 -41 -17 -91 -33 -111 -36 -35 -6 -60 -37 -44 -54 10 -10 76 -3 131 14 58 18 145 27 145 15 0 -4 -6 -8 -12 -8 -7 0 -62 -15 -123 -33 -60 -18 -121 -34 -135 -36 -23 -2 -67 -9 -145 -20 -16 -2 -50 -1 -73 3 l-44 8 84 42 c46 23 146 62 223 88 77 26 159 56 182 66 24 10 57 19 74 19 38 0 69 16 69 36 0 9 3 14 8 12 4 -2 30 -15 58 -30z m153 -153 c30 -8 59 -19 64 -24 14 -14 1 -14 -43 0 -19 5 -46 12 -60 15 -29 6 -52 24 -29 24 7 0 38 -7 68 -15z"/>
</g>
</svg>
