<?xml version="1.0" standalone="no"?>
<!DOCTYPE svg PUBLIC "-//W3C//DTD SVG 20010904//EN" "http://www.w3.org/TR/2001/REC-SVG-20010904/DTD/svg10.dtd">
<svg xmlns="http://www.w3.org/2000/svg" version="1.0" width="360.000000pt" height="360.000000pt" viewBox="0 0 360.000000 360.000000" preserveAspectRatio="xMidYMid meet">

<g transform="translate(0.000000,360.000000) scale(0.100000,-0.100000)" fill="#000000" stroke="none">
<path d="M1393 2191 c-5 -21 -10 -22 -87 -18 -44 3 -96 8 -114 12 -20 5 -37 3 -46 -5 -18 -14 -56 -129 -56 -169 0 -28 -3 -30 -42 -33 -35 -2 -43 -7 -43 -23 0 -11 10 -24 23 -30 28 -12 28 -23 -3 -76 -36 -64 -36 -166 1 -214 14 -18 38 -38 55 -44 31 -11 37 -29 17 -49 -36 -36 -111 -412 -134 -672 -3 -30 -7 -62 -10 -70 -10 -29 -14 -225 -5 -239 8 -13 46 -15 223 -13 121 2 217 7 222 12 6 6 35 10 66 10 31 0 61 5 67 11 11 11 214 8 688 -11 138 -6 327 -12 422 -15 l172 -6 17 32 c9 18 29 50 45 72 16 22 29 45 29 52 0 6 11 22 25 35 32 30 32 44 -1 59 -33 15 -41 9 -65 -46 -10 -24 -38 -67 -61 -94 l-42 -50 -140 6 c-78 3 -249 10 -381 15 -433 19 -732 15 -825 -10 -19 -5 -73 -12 -120 -14 -47 -3 -106 -8 -132 -11 -145 -16 -138 -17 -138 8 0 12 9 47 21 77 11 30 25 68 29 84 5 16 17 40 26 55 17 26 133 172 144 181 4 3 25 29 48 58 55 71 55 97 -3 174 -49 65 -53 79 -30 98 8 7 15 17 15 22 0 6 9 23 21 39 21 30 139 238 139 246 0 2 13 21 29 41 16 20 38 51 48 69 43 75 139 211 171 241 34 31 34 33 17 52 -11 12 -25 18 -36 15 -25 -8 -92 59 -85 83 12 37 -70 93 -90 61 -6 -10 -30 -7 -69 7 -11 5 -18 0 -22 -15z m82 -90 c6 -1 30 -19 55 -41 24 -22 52 -40 62 -40 28 0 33 -21 9 -39 -12 -10 -32 -33 -44 -53 -12 -20 -58 -90 -101 -155 -78 -116 -110 -166 -134 -210 -29 -55 -37 -68 -43 -73 -4 -3 -19 -29 -34 -57 -15 -29 -31 -53 -36 -53 -17 0 -62 72 -70 113 -9 50 9 77 50 77 19 0 45 18 94 66 37 37 67 72 67 80 0 7 9 30 20 50 16 27 21 57 23 116 2 80 2 80 -33 109 -30 25 -43 29 -96 29 -47 0 -67 -5 -88 -21 -23 -18 -27 -19 -32 -5 -3 9 1 27 10 41 9 13 16 31 16 39 0 8 7 19 15 23 12 7 241 10 290 4z m-220 -151 c3 -5 21 -10 40 -10 27 0 34 -5 39 -26 26 -104 -92 -284 -186 -284 -37 0 -98 63 -98 100 0 47 39 130 61 130 12 0 19 9 21 26 5 41 105 93 123 64z m-111 -606 c28 -50 31 -65 17 -92 -5 -9 -14 -35 -19 -57 -21 -83 -35 -131 -42 -150 -6 -17 -44 -140 -56 -182 -2 -7 -9 -13 -15 -13 -16 0 -6 122 30 360 30 198 40 214 85 134z m126 -209 c0 -17 -129 -169 -137 -161 -4 4 33 111 48 138 5 10 9 27 9 39 0 11 5 30 11 41 11 21 12 21 40 -13 16 -19 29 -39 29 -44z"/>
</g>
</svg>
