<?xml version="1.0" standalone="no"?>
<!DOCTYPE svg PUBLIC "-//W3C//DTD SVG 20010904//EN" "http://www.w3.org/TR/2001/REC-SVG-20010904/DTD/svg10.dtd">
<svg xmlns="http://www.w3.org/2000/svg" version="1.0" width="360.000000pt" height="360.000000pt" viewBox="0 0 360.000000 360.000000" preserveAspectRatio="xMidYMid meet">

<g transform="translate(0.000000,360.000000) scale(0.100000,-0.100000)" fill="#000000" stroke="none">
<path d="M1730 2195 c0 -16 -6 -25 -16 -25 -23 0 -78 -45 -107 -88 -25 -35 -26 -41 -18 -122 9 -98 38 -165 79 -183 24 -11 27 -18 29 -62 6 -114 8 -739 3 -852 l-5 -121 -30 5 c-57 11 -151 50 -220 93 -117 72 -271 157 -394 215 -64 31 -127 62 -141 71 -14 8 -125 64 -247 124 -122 60 -226 118 -232 128 -6 11 -6 34 0 63 10 44 10 45 52 45 218 3 504 14 604 23 68 6 182 11 255 12 108 0 149 5 222 25 95 27 136 48 136 70 0 20 -37 18 -123 -6 -49 -14 -127 -24 -247 -30 -96 -6 -206 -13 -245 -16 -38 -3 -162 -7 -275 -9 -113 -2 -234 -6 -270 -10 -36 -3 -70 -2 -75 2 -6 4 -16 31 -23 58 -25 97 -68 101 -57 6 5 -43 1 -75 -15 -132 -12 -40 -24 -89 -27 -106 -5 -32 -3 -34 30 -37 6 -1 17 -6 22 -13 6 -7 100 -58 210 -114 110 -55 245 -124 300 -152 55 -27 143 -71 195 -97 88 -43 151 -79 348 -195 71 -42 168 -78 244 -91 67 -11 319 84 445 168 23 15 45 28 48 28 8 0 204 94 245 117 14 8 50 25 80 39 30 13 91 43 135 66 325 168 410 207 593 279 35 14 28 51 -15 90 -49 42 -75 86 -68 110 4 13 2 19 -8 19 -8 0 -18 14 -23 31 -20 70 -68 60 -62 -13 3 -35 2 -36 -37 -43 -22 -3 -76 -9 -120 -12 -44 -3 -96 -8 -115 -12 -38 -8 -307 -6 -435 4 -98 7 -211 23 -245 35 -14 5 -61 11 -105 15 -97 7 -212 30 -231 46 -8 7 -14 30 -14 58 1 44 2 47 40 64 51 24 101 77 118 125 29 85 -26 214 -110 258 -21 11 -28 22 -28 44 0 25 -4 30 -25 30 -20 0 -25 -5 -25 -25z m41 -116 c9 0 30 -13 47 -28 60 -55 50 -174 -18 -214 -88 -52 -151 21 -137 160 7 67 30 97 67 88 14 -3 32 -6 41 -6z m229 -545 c96 -13 189 -27 205 -30 138 -22 236 -26 490 -20 204 4 295 9 335 21 30 8 58 15 62 15 8 0 55 -69 64 -95 3 -8 -19 -24 -63 -45 -37 -17 -93 -45 -123 -60 -125 -64 -158 -81 -210 -106 -30 -14 -80 -39 -110 -55 -30 -16 -73 -34 -95 -40 -21 -6 -57 -23 -80 -38 -22 -15 -143 -78 -270 -141 -126 -63 -240 -122 -253 -131 -13 -10 -37 -21 -55 -24 -18 -4 -36 -11 -42 -15 -5 -4 -26 -10 -45 -14 -35 -6 -36 -6 -40 31 -5 40 -5 128 -1 308 3 108 -5 315 -15 424 l-5 54 38 -7 c21 -3 117 -18 213 -32z"/>
</g>
</svg>
