<?xml version="1.0" standalone="no"?>
<!DOCTYPE svg PUBLIC "-//W3C//DTD SVG 20010904//EN" "http://www.w3.org/TR/2001/REC-SVG-20010904/DTD/svg10.dtd">
<svg xmlns="http://www.w3.org/2000/svg" version="1.0" width="360.000000pt" height="360.000000pt" viewBox="0 0 360.000000 360.000000" preserveAspectRatio="xMidYMid meet">

<g transform="translate(0.000000,360.000000) scale(0.100000,-0.100000)" fill="#000000" stroke="none">
<path d="M1703 2867 c-4 -7 -8 -16 -9 -22 -1 -5 -9 -44 -18 -85 -11 -51 -15 -107 -12 -175 6 -169 35 -473 50 -533 8 -31 17 -75 21 -97 8 -50 40 -156 58 -192 7 -15 12 -35 10 -44 -2 -8 -35 -32 -73 -53 -39 -20 -76 -43 -82 -50 -7 -7 -47 -36 -88 -65 -127 -89 -354 -260 -467 -353 -105 -85 -129 -104 -167 -129 -67 -44 -108 -92 -104 -125 3 -27 7 -29 88 -46 47 -10 121 -24 165 -32 44 -8 118 -24 165 -35 47 -12 126 -31 175 -41 121 -26 325 -75 465 -113 41 -11 86 -21 100 -23 51 -6 86 -16 125 -34 52 -24 222 -78 273 -86 48 -7 82 9 82 39 0 13 25 47 67 89 57 57 65 69 53 82 -7 9 -19 16 -26 16 -15 0 -119 -101 -145 -141 -15 -22 -17 -23 -75 -9 -32 7 -109 31 -171 52 -61 21 -122 38 -135 38 -13 0 -48 9 -78 19 -30 11 -75 22 -99 26 -23 3 -54 10 -68 16 -13 5 -57 16 -96 24 -40 8 -94 21 -122 29 -27 8 -95 24 -150 36 -55 12 -147 32 -205 45 -58 13 -126 27 -152 30 -51 7 -63 19 -25 28 12 2 58 14 102 27 107 29 301 79 350 90 22 4 108 22 190 40 83 18 193 41 245 52 143 31 137 32 174 -38 17 -33 48 -84 69 -113 21 -29 41 -60 44 -69 4 -10 18 -31 32 -49 14 -17 33 -41 41 -53 19 -27 50 -17 50 15 0 13 7 25 15 29 8 3 15 12 15 21 0 17 -71 65 -97 65 -18 1 -46 39 -115 160 -42 72 -44 80 -24 80 18 0 66 56 66 78 0 9 24 47 54 83 41 51 51 70 44 82 -17 32 -43 18 -84 -45 -23 -35 -47 -77 -55 -95 -7 -17 -20 -34 -29 -36 -8 -3 -22 -8 -31 -11 -13 -6 -26 14 -64 106 -26 62 -51 118 -55 123 -4 6 -18 39 -31 75 -12 36 -33 79 -46 97 -15 20 -20 34 -13 38 7 4 7 13 -1 28 -11 21 -11 21 7 5 28 -25 88 -48 125 -48 44 0 152 54 184 91 89 107 82 191 -24 258 -57 37 -110 40 -160 10 -28 -17 -35 -18 -45 -6 -16 21 -42 27 -55 14 -15 -15 -14 -20 9 -47 l19 -22 -34 -40 c-32 -39 -52 -99 -46 -143 5 -34 -15 -5 -37 55 -51 141 -90 370 -92 543 0 16 -4 26 -8 23 -5 -3 -10 63 -11 147 -2 111 2 168 13 212 9 32 16 65 16 71 0 17 -28 25 -37 11z m437 -873 c47 -31 68 -80 49 -116 -58 -112 -162 -154 -246 -102 -52 32 -11 135 85 213 46 37 62 38 112 5z m-296 -363 c15 -16 44 -64 63 -108 84 -190 120 -283 109 -284 -40 -5 -64 -10 -181 -38 -215 -53 -248 -60 -295 -66 -24 -4 -48 -9 -52 -11 -3 -2 -26 -9 -50 -14 -204 -44 -305 -70 -358 -90 -25 -10 -63 -21 -85 -24 -22 -4 -49 -10 -60 -13 -22 -6 -8 6 102 93 33 27 128 103 211 169 179 144 290 227 426 318 55 38 108 75 116 83 19 19 22 18 54 -15z"/>
</g>
</svg>
