<?xml version="1.0" standalone="no"?>
<!DOCTYPE svg PUBLIC "-//W3C//DTD SVG 20010904//EN" "http://www.w3.org/TR/2001/REC-SVG-20010904/DTD/svg10.dtd">
<svg xmlns="http://www.w3.org/2000/svg" version="1.0" width="360.000000pt" height="360.000000pt" viewBox="0 0 360.000000 360.000000" preserveAspectRatio="xMidYMid meet">

<g transform="translate(0.000000,360.000000) scale(0.100000,-0.100000)" fill="#000000" stroke="none">
<path d="M1627 2337 c-27 -21 -55 -54 -63 -73 -16 -38 -19 -206 -4 -268 10 -43 83 -125 134 -150 17 -9 25 -16 19 -16 -8 0 -13 -13 -13 -29 0 -16 -7 -34 -14 -41 -8 -6 -20 -28 -27 -48 -15 -47 -26 -66 -186 -308 -121 -183 -264 -362 -310 -387 -9 -6 -31 -13 -47 -16 -40 -9 -56 -35 -34 -57 31 -31 178 20 178 62 0 7 29 44 64 81 58 63 98 117 200 277 21 34 51 79 67 102 16 23 46 71 67 108 l39 67 6 -38 c4 -21 7 -147 7 -280 0 -216 -2 -243 -16 -243 -9 0 -28 -7 -42 -15 -74 -41 -388 -145 -617 -205 -16 -5 -68 -20 -115 -34 -47 -14 -121 -35 -165 -46 -44 -12 -102 -28 -130 -37 -27 -10 -52 -18 -55 -18 -3 -1 -12 -4 -20 -7 -36 -13 -216 -62 -233 -63 -20 -2 -32 16 -58 85 -9 25 -24 63 -32 85 -17 45 -36 61 -61 52 -28 -11 -30 -38 -8 -81 11 -23 34 -76 51 -120 32 -84 63 -126 93 -126 10 0 22 10 27 23 7 16 27 28 82 44 239 73 311 94 374 108 39 9 88 23 110 32 22 8 103 30 180 49 77 19 167 45 200 59 33 13 87 31 120 41 33 9 104 32 158 50 54 19 108 34 121 34 13 0 31 9 41 19 14 17 27 19 79 16 101 -8 238 -36 394 -82 45 -13 124 -35 175 -47 50 -13 126 -33 167 -45 41 -12 100 -29 130 -37 54 -15 176 -64 257 -104 23 -11 48 -20 55 -20 7 0 51 -14 98 -31 47 -16 99 -34 116 -38 18 -5 37 -11 43 -15 15 -9 60 25 61 46 0 33 40 109 81 153 38 41 41 48 31 70 -7 15 -20 25 -31 25 -23 0 -84 -76 -126 -158 -25 -49 -31 -53 -54 -47 -14 3 -42 10 -61 14 -49 12 -222 77 -284 106 -52 25 -313 106 -466 145 -47 11 -106 28 -131 36 -26 8 -69 19 -95 24 -27 4 -74 15 -104 24 -30 8 -66 17 -80 20 -67 12 -176 39 -182 45 -3 3 -9 110 -13 236 -3 127 -8 246 -10 265 -4 31 -3 33 8 16 6 -11 35 -47 62 -80 82 -99 198 -257 240 -326 68 -112 159 -200 207 -200 10 0 32 -7 50 -16 30 -14 36 -14 71 1 44 18 48 35 8 35 -17 0 -33 5 -36 11 -4 5 -31 21 -59 35 -62 29 -127 91 -164 154 -14 25 -38 61 -53 80 -14 19 -58 78 -97 130 -39 52 -86 113 -106 135 -19 22 -53 75 -76 118 -26 48 -52 83 -66 89 -31 14 -27 39 6 49 70 19 120 49 136 81 23 44 35 187 22 257 -15 84 -89 179 -144 186 -16 2 -31 5 -34 6 -28 13 -69 0 -113 -34z m131 -41 c24 -4 71 -66 83 -110 19 -69 19 -120 2 -184 -13 -50 -22 -66 -44 -78 -42 -21 -72 -17 -116 15 -33 24 -43 39 -52 78 -19 81 -21 184 -3 222 18 39 69 73 96 65 10 -3 25 -7 34 -8z"/>
</g>
</svg>
