<?xml version="1.0" standalone="no"?>
<!DOCTYPE svg PUBLIC "-//W3C//DTD SVG 20010904//EN" "http://www.w3.org/TR/2001/REC-SVG-20010904/DTD/svg10.dtd">
<svg xmlns="http://www.w3.org/2000/svg" version="1.0" width="360.000000pt" height="360.000000pt" viewBox="0 0 360.000000 360.000000" preserveAspectRatio="xMidYMid meet">

<g transform="translate(0.000000,360.000000) scale(0.100000,-0.100000)" fill="#000000" stroke="none">
<path d="M2220 2371 c-68 -47 -136 -128 -150 -179 -5 -21 -12 -70 -14 -108 l-5 -69 -100 -85 c-55 -47 -134 -111 -175 -144 -41 -32 -83 -66 -93 -75 -10 -9 -34 -27 -53 -41 -19 -13 -62 -49 -95 -80 -33 -31 -89 -79 -125 -107 -36 -29 -79 -67 -95 -85 -31 -34 -187 -168 -291 -249 -74 -58 -91 -86 -78 -137 10 -42 34 -57 149 -92 39 -11 111 -38 160 -59 50 -22 115 -49 145 -61 30 -12 100 -46 155 -75 55 -29 118 -58 139 -65 22 -7 64 -25 95 -40 31 -15 92 -42 136 -60 44 -18 85 -36 90 -40 6 -4 40 -17 77 -29 37 -12 83 -33 103 -47 68 -46 119 -44 130 7 5 21 22 40 58 64 29 19 56 35 61 35 9 0 35 30 36 42 0 4 -7 13 -15 22 -14 14 -20 13 -56 -6 -23 -12 -62 -42 -88 -68 -50 -50 -56 -51 -126 -14 -22 12 -55 24 -73 27 -18 4 -58 18 -90 33 -59 27 -157 70 -272 119 -36 15 -117 53 -180 84 -63 32 -142 68 -175 81 -33 13 -83 34 -111 47 -29 12 -91 36 -138 52 -48 16 -87 33 -88 37 -1 13 135 84 290 149 292 124 369 155 437 179 122 42 234 85 257 97 17 9 23 9 26 -1 3 -7 36 -74 75 -149 38 -75 85 -165 104 -201 18 -36 38 -89 43 -118 12 -65 16 -72 41 -72 29 0 43 45 29 95 -12 39 -86 195 -99 205 -9 8 -101 190 -96 190 5 0 17 -19 135 -205 80 -126 120 -165 120 -115 0 35 -47 122 -135 249 -47 67 -93 137 -101 155 -9 17 -25 41 -36 53 l-20 22 27 35 c32 42 27 76 -10 76 -18 0 -26 -7 -31 -26 -8 -33 -14 -26 -53 71 -18 44 -46 101 -62 128 -29 48 -35 67 -21 67 4 0 29 21 55 45 l48 45 31 -16 c45 -23 151 -13 214 21 27 14 64 25 85 25 40 0 50 15 27 38 -8 8 -8 15 0 24 5 7 20 42 32 76 20 60 20 67 6 116 -16 56 -57 102 -115 130 -53 25 -90 20 -151 -23z m123 -35 c18 -7 45 -30 61 -50 25 -33 28 -44 22 -82 -8 -63 -23 -86 -47 -79 -29 10 -51 -13 -44 -45 5 -24 1 -29 -27 -43 -42 -19 -119 -31 -148 -22 -55 17 -58 120 -7 208 31 52 95 107 126 107 12 0 21 5 21 10 0 13 4 13 43 -4z m-353 -641 c11 -38 29 -98 39 -132 l19 -61 -72 -35 c-39 -19 -82 -38 -96 -42 -14 -4 -52 -19 -84 -32 -33 -14 -68 -26 -77 -28 -9 -2 -46 -18 -81 -35 -34 -18 -101 -45 -148 -62 -47 -16 -105 -40 -130 -53 -25 -12 -65 -31 -90 -41 -25 -10 -91 -42 -148 -71 -99 -50 -130 -56 -74 -13 113 87 162 128 273 230 232 212 293 266 398 351 57 46 127 103 155 126 l51 41 22 -36 c13 -20 32 -68 43 -107z"/>
</g>
</svg>
