<?xml version="1.0" standalone="no"?>
<!DOCTYPE svg PUBLIC "-//W3C//DTD SVG 20010904//EN" "http://www.w3.org/TR/2001/REC-SVG-20010904/DTD/svg10.dtd">
<svg xmlns="http://www.w3.org/2000/svg" version="1.0" width="360.000000pt" height="360.000000pt" viewBox="0 0 360.000000 360.000000" preserveAspectRatio="xMidYMid meet">

<g transform="translate(0.000000,360.000000) scale(0.100000,-0.100000)" fill="#000000" stroke="none">
<path d="M979 2160 c-32 -20 -52 -45 -68 -79 -23 -47 -25 -49 -57 -44 -29 5 -34 2 -39 -20 -9 -35 0 -47 36 -47 25 0 29 -3 24 -19 -12 -39 25 -131 70 -176 35 -35 43 -51 49 -94 6 -42 3 -58 -12 -84 -11 -18 -22 -51 -26 -73 -9 -60 -61 -182 -90 -213 -31 -32 -33 -67 -6 -101 11 -14 20 -32 20 -40 0 -8 7 -26 15 -40 9 -17 10 -29 3 -37 -19 -23 0 -63 32 -70 29 -5 30 -7 30 -61 0 -30 -6 -98 -14 -151 -26 -172 -27 -197 -8 -215 20 -17 118 -16 207 2 28 6 76 13 107 15 l58 4 -6 -36 c-3 -23 0 -43 9 -55 13 -18 19 -19 70 -7 31 7 86 13 122 14 59 2 65 4 63 22 -2 11 -14 25 -28 32 -30 15 -109 17 -145 3 -24 -9 -26 -8 -23 12 5 33 85 46 315 52 109 3 225 8 258 11 97 9 193 5 237 -11 22 -8 77 -18 122 -24 45 -5 117 -14 161 -19 44 -5 87 -9 95 -10 77 -2 287 -23 332 -34 52 -13 61 -12 98 4 22 10 40 23 40 29 0 6 20 36 44 65 31 38 43 61 39 75 -6 23 -28 27 -40 7 -17 -29 -136 -110 -162 -110 -36 0 -190 13 -221 20 -14 3 -72 7 -130 9 -58 3 -121 9 -140 14 -19 6 -58 10 -87 10 -56 0 -134 18 -220 50 -57 21 -152 22 -191 1 -27 -14 -96 -21 -272 -26 -85 -2 -171 -9 -190 -14 -19 -6 -46 -11 -59 -11 l-24 0 7 183 c8 221 10 227 45 227 15 0 51 7 80 16 76 22 97 81 36 104 -14 6 -44 18 -66 28 l-41 19 -1 62 c-1 43 -7 65 -17 71 -23 15 -29 13 -62 -21 -30 -30 -31 -30 -52 -11 -105 93 -197 171 -223 190 -28 20 -33 29 -33 65 0 23 -4 56 -9 74 -9 30 -8 32 33 52 83 38 129 134 128 265 l0 79 -51 48 c-64 61 -103 65 -172 19z m134 -74 c26 -19 28 -26 26 -76 -5 -129 -63 -220 -128 -203 -31 8 -71 81 -71 130 0 97 62 190 118 176 15 -3 40 -16 55 -27z m76 -700 c56 -49 101 -93 101 -96 0 -4 -7 -13 -16 -21 -8 -7 -24 -29 -34 -48 -27 -50 -66 -91 -87 -91 -10 0 -36 -7 -58 -15 -69 -25 -69 -25 -61 73 15 200 29 301 42 294 7 -4 58 -47 113 -96z m-198 -51 c-6 -42 -11 -97 -11 -123 0 -74 -13 -78 -39 -12 l-24 59 26 53 c14 29 31 66 37 82 18 47 22 23 11 -59z m369 -130 c0 -36 -21 -65 -48 -65 -9 0 -28 -3 -41 -7 -21 -5 -20 -1 18 55 46 67 71 73 71 17z m104 -36 c-5 -9 -54 -13 -54 -5 0 2 3 11 6 20 5 12 10 13 30 4 13 -6 21 -15 18 -19z m-127 -126 c-4 -21 -9 -110 -13 -198 -4 -88 -8 -161 -9 -163 -5 -5 -297 -33 -302 -28 -4 4 54 137 136 308 l51 107 58 4 c31 2 63 4 71 5 10 2 12 -7 8 -35z m-207 15 c-1 -2 -30 -61 -66 -133 -36 -71 -63 -119 -60 -105 2 14 8 69 11 123 7 96 8 97 34 97 14 0 33 5 41 10 13 9 41 14 40 8z"/>
</g>
</svg>
