<?xml version="1.0" standalone="no"?>
<!DOCTYPE svg PUBLIC "-//W3C//DTD SVG 20010904//EN" "http://www.w3.org/TR/2001/REC-SVG-20010904/DTD/svg10.dtd">
<svg xmlns="http://www.w3.org/2000/svg" version="1.0" width="360.000000pt" height="360.000000pt" viewBox="0 0 360.000000 360.000000" preserveAspectRatio="xMidYMid meet">

<g transform="translate(0.000000,360.000000) scale(0.100000,-0.100000)" fill="#000000" stroke="none">
<path d="M764 2506 c-4 -16 3 -36 26 -67 45 -65 97 -228 126 -396 28 -163 42 -433 30 -565 -8 -77 -8 -78 -35 -78 -15 0 -30 2 -33 5 -2 3 -1 31 3 62 6 42 4 64 -7 85 -20 38 -90 88 -126 88 -24 0 -28 4 -28 28 0 36 -26 72 -51 72 -26 0 -33 -20 -21 -64 l10 -36 -37 0 c-21 0 -59 -7 -85 -16 -81 -28 -125 -121 -95 -201 51 -135 278 -183 400 -85 11 9 29 11 50 7 l34 -6 1 -122 c0 -91 7 -154 27 -247 39 -188 43 -226 22 -234 -17 -6 -119 4 -260 26 -38 6 -81 12 -95 14 -14 2 -41 7 -60 10 -59 11 -124 12 -142 2 -14 -7 -16 -5 -11 7 7 20 -43 75 -68 75 -48 0 -47 -67 1 -76 26 -6 31 -15 56 -93 50 -155 82 -192 137 -157 70 46 372 125 420 110 12 -3 37 -13 54 -21 19 -9 44 -13 58 -9 20 5 25 12 25 40 0 32 2 34 43 40 99 15 229 40 322 63 348 86 392 92 485 70 77 -18 215 -48 355 -77 55 -11 123 -27 150 -35 28 -8 88 -24 135 -35 80 -20 130 -30 325 -65 44 -9 112 -21 150 -28 111 -21 198 -10 193 23 -2 12 18 41 55 79 60 63 71 95 36 106 -24 8 -34 -2 -104 -96 -26 -35 -51 -63 -56 -61 -5 1 -69 11 -142 22 -224 33 -316 50 -487 90 -91 22 -241 55 -335 75 -93 20 -180 41 -193 46 -13 5 -34 9 -47 9 -18 0 -35 16 -69 65 -25 36 -46 70 -46 75 0 7 -65 53 -180 125 -19 12 -48 30 -65 41 -88 55 -215 120 -270 137 -56 18 -188 42 -283 52 l-64 7 7 47 c4 25 8 114 10 196 4 274 -54 604 -136 775 -22 47 -48 93 -56 103 -23 25 -51 22 -59 -7z m7 -947 c44 -17 48 -115 7 -171 -41 -58 -167 -46 -239 24 -38 37 -41 43 -36 80 7 55 35 72 127 79 79 5 99 4 141 -12z m383 -249 c22 -5 43 -7 47 -4 13 8 165 -48 244 -90 44 -23 121 -69 170 -101 50 -33 101 -65 115 -73 46 -24 98 -82 93 -103 -4 -12 -12 -17 -27 -15 -11 2 -28 -2 -36 -9 -23 -20 -283 -89 -445 -120 -49 -9 -117 -23 -151 -31 -89 -21 -104 -19 -104 12 0 24 -13 98 -55 304 -26 131 -35 212 -24 232 8 15 18 17 72 12 34 -3 80 -10 101 -14z m-579 -590 c22 -5 74 -12 115 -16 108 -9 110 -18 9 -36 -35 -6 -94 -24 -132 -39 -39 -16 -73 -29 -77 -29 -4 0 -11 21 -15 48 -4 26 -11 55 -16 65 -9 15 -5 17 33 17 24 0 61 -5 83 -10z"/>
</g>
</svg>
