<?xml version="1.0" standalone="no"?>
<!DOCTYPE svg PUBLIC "-//W3C//DTD SVG 20010904//EN" "http://www.w3.org/TR/2001/REC-SVG-20010904/DTD/svg10.dtd">
<svg xmlns="http://www.w3.org/2000/svg" version="1.0" width="360.000000pt" height="360.000000pt" viewBox="0 0 360.000000 360.000000" preserveAspectRatio="xMidYMid meet">

<g transform="translate(0.000000,360.000000) scale(0.100000,-0.100000)" fill="#000000" stroke="none">
<path d="M957 1123 c-2 -5 -10 -24 -16 -44 -11 -34 -14 -36 -58 -38 -48 -1 -124 -30 -155 -58 -10 -9 -18 -11 -18 -6 0 6 -12 13 -26 16 -21 4 -38 -7 -94 -57 -97 -88 -132 -131 -128 -158 2 -17 10 -23 28 -24 34 -1 60 13 60 34 1 23 37 65 83 96 21 14 40 26 42 26 2 0 3 -24 2 -52 -1 -78 18 -120 72 -156 26 -18 53 -32 61 -32 9 0 10 -3 5 -9 -10 -10 -104 -29 -183 -37 l-43 -4 7 47 c3 27 10 56 15 65 5 9 9 31 9 48 0 17 5 41 11 53 7 12 8 19 4 15 -5 -4 -14 -3 -20 2 -9 8 -19 -8 -38 -62 -23 -65 -33 -98 -54 -186 -10 -43 11 -52 106 -47 48 2 100 9 116 15 16 6 63 15 104 20 101 13 215 37 276 60 28 10 84 28 125 40 41 12 84 27 95 34 11 7 37 18 58 25 26 9 37 18 37 32 0 10 4 19 8 19 5 0 51 7 103 16 75 13 128 15 264 10 94 -4 186 -9 205 -11 55 -7 230 -52 244 -64 14 -12 54 -4 76 15 17 14 67 27 200 50 66 12 123 14 255 9 94 -4 181 -9 195 -10 14 -2 34 -4 46 -4 20 -1 104 -65 104 -81 0 -13 -65 -21 -91 -12 -71 27 -366 30 -534 6 -44 -6 -123 -26 -170 -43 -16 -6 -66 -18 -110 -26 -168 -31 -197 -46 -192 -100 2 -24 7 -31 29 -33 17 -2 35 5 49 19 35 35 146 54 207 35 32 -9 36 -8 61 23 38 47 106 61 331 67 163 5 198 3 295 -15 110 -22 144 -21 193 4 22 12 26 22 29 67 6 99 -39 144 -168 168 -28 5 -54 12 -58 14 -33 21 -366 25 -417 5 -16 -5 -62 -13 -103 -16 -42 -3 -92 -12 -111 -20 -42 -18 -114 -17 -190 1 -30 8 -80 18 -110 22 -57 8 -394 7 -420 -1 -14 -4 -231 -33 -305 -40 -16 -2 -59 -6 -95 -10 l-65 -7 -38 58 c-25 38 -61 75 -102 104 -52 37 -63 49 -58 67 8 34 -25 81 -40 56z m43 -170 c35 -22 130 -111 130 -121 0 -5 -15 -22 -33 -40 -36 -35 -132 -71 -189 -72 -60 0 -125 37 -148 85 -27 55 -25 68 11 109 51 59 167 79 229 39z m286 -188 c-11 -8 -31 -15 -45 -15 -14 -1 -44 -7 -66 -15 -21 -8 -40 -13 -42 -12 -1 2 9 15 23 30 22 24 32 27 87 27 57 -1 60 -2 43 -15z"/>
</g>
</svg>
