<?xml version="1.0" standalone="no"?>
<!DOCTYPE svg PUBLIC "-//W3C//DTD SVG 20010904//EN" "http://www.w3.org/TR/2001/REC-SVG-20010904/DTD/svg10.dtd">
<svg xmlns="http://www.w3.org/2000/svg" version="1.0" width="360.000000pt" height="360.000000pt" viewBox="0 0 360.000000 360.000000" preserveAspectRatio="xMidYMid meet">

<g transform="translate(0.000000,360.000000) scale(0.100000,-0.100000)" fill="#000000" stroke="none">
<path d="M1305 2273 c-40 -10 -78 -47 -102 -99 -21 -46 -23 -62 -18 -129 8 -114 41 -175 110 -204 18 -8 22 -25 34 -122 7 -63 19 -143 27 -179 7 -36 16 -92 19 -125 4 -33 13 -89 20 -125 13 -63 20 -142 30 -325 5 -78 8 -93 30 -115 39 -40 102 -52 300 -56 183 -3 276 -14 375 -41 108 -30 93 -37 -105 -53 -71 -6 -166 -15 -210 -20 -44 -5 -121 -11 -171 -12 -82 -2 -95 0 -135 24 -25 15 -74 32 -109 38 -36 7 -75 16 -86 20 -12 5 -30 7 -40 5 -69 -14 -74 -16 -74 -34 0 -20 26 -31 74 -31 16 0 45 -4 65 -10 20 -5 48 -12 63 -14 14 -3 49 -24 78 -47 38 -30 55 -38 63 -30 6 6 40 11 77 11 36 0 133 7 215 16 83 9 197 19 255 24 145 11 214 30 218 59 14 97 -208 163 -548 162 -201 0 -244 11 -260 68 -6 20 -17 106 -25 191 -7 85 -21 197 -30 248 -9 51 -15 100 -13 107 2 9 31 -18 73 -66 39 -45 144 -154 235 -243 90 -88 197 -193 236 -232 52 -53 80 -73 105 -77 65 -10 146 -35 171 -51 30 -20 56 -12 64 20 7 29 -2 44 -27 44 -11 0 -37 9 -58 19 -21 11 -63 22 -93 24 -52 3 -58 7 -99 53 -24 28 -64 66 -89 85 -24 19 -71 61 -105 94 -33 33 -89 88 -125 122 -36 33 -89 87 -117 120 -28 32 -66 74 -83 93 -78 87 -119 150 -125 198 -10 68 -14 94 -20 123 -5 23 -2 27 24 32 59 12 131 99 131 159 0 16 6 19 36 16 41 -3 62 17 50 47 -5 14 -14 16 -44 11 -37 -5 -38 -5 -55 43 -22 63 -47 93 -111 136 -53 35 -62 37 -101 28z m117 -132 c61 -68 61 -162 0 -218 -44 -41 -77 -42 -121 -5 -26 21 -35 40 -45 89 -17 79 -9 124 26 140 14 7 31 19 37 27 17 21 69 4 103 -33z"/>
</g>
</svg>
