<?xml version="1.0" standalone="no"?>
<!DOCTYPE svg PUBLIC "-//W3C//DTD SVG 20010904//EN"
 "http://www.w3.org/TR/2001/REC-SVG-20010904/DTD/svg10.dtd">
<svg version="1.0" xmlns="http://www.w3.org/2000/svg"
 width="360.000000pt" height="360.000000pt" viewBox="0 0 360.000000 360.000000"
 preserveAspectRatio="xMidYMid meet">

<g transform="translate(0.000000,360.000000) scale(0.100000,-0.100000)"
fill="#000000" stroke="none">
<path d="M1420 2123 c-1 -5 -9 -18 -19 -30 -18 -22 -18 -22 -57 -3 -41 19 -62
23 -130 21 -36 -1 -43 -5 -62 -39 -27 -48 -29 -102 -8 -172 13 -45 28 -66 79
-113 34 -31 76 -61 93 -66 39 -11 111 0 145 22 25 17 25 17 46 -22 12 -22 17
-43 12 -48 -4 -4 -4 -37 1 -72 5 -35 7 -89 5 -120 -2 -31 -7 -94 -10 -139 -11
-158 -37 -254 -110 -407 -68 -141 -72 -155 -47 -155 22 0 53 47 109 164 75
155 112 364 106 594 l-2 104 27 -18 c116 -75 196 -162 240 -259 45 -100 86
-269 95 -394 4 -43 25 -69 47 -56 5 3 27 1 47 -4 21 -5 97 -12 168 -15 72 -3
147 -8 168 -11 93 -13 258 -88 238 -108 -6 -6 -25 -6 -55 2 -25 6 -64 11 -88
11 -24 0 -58 4 -77 10 -18 5 -91 10 -162 11 -87 1 -132 6 -137 14 -4 6 -15 14
-24 18 -10 3 -18 13 -18 22 0 24 -17 18 -69 -23 -40 -32 -64 -41 -137 -56
-116 -23 -114 -22 -114 -44 0 -11 6 -24 13 -30 18 -15 115 -5 177 18 99 37
265 37 555 0 106 -13 105 -13 143 -12 38 2 72 33 72 65 0 33 -32 58 -130 105
-103 50 -206 70 -375 73 -66 1 -135 6 -152 11 -36 9 -34 5 -57 143 -42 254
-139 420 -313 536 -52 35 -103 91 -103 114 0 7 -9 20 -20 30 -14 13 -18 25
-13 47 9 44 -16 108 -58 152 -38 39 -38 39 -24 74 19 44 19 62 0 62 -8 0 -15
-3 -15 -7z m-79 -95 c100 -52 151 -165 96 -216 -37 -35 -80 -38 -129 -9 -54
31 -108 83 -108 102 0 8 -5 25 -11 39 -14 30 -5 70 21 96 22 22 73 18 131 -12z"/>
<path d="M1430 793 c-45 -7 -71 -25 -68 -47 2 -16 9 -20 28 -19 14 2 51 5 83
7 64 5 77 11 77 32 0 26 -52 38 -120 27z"/>
</g>
</svg>
