<?xml version="1.0" standalone="no"?>
<!DOCTYPE svg PUBLIC "-//W3C//DTD SVG 20010904//EN" "http://www.w3.org/TR/2001/REC-SVG-20010904/DTD/svg10.dtd">
<svg xmlns="http://www.w3.org/2000/svg" version="1.0" width="360.000000pt" height="360.000000pt" viewBox="0 0 360.000000 360.000000" preserveAspectRatio="xMidYMid meet">

<g transform="translate(0.000000,360.000000) scale(0.100000,-0.100000)" fill="#000000" stroke="none">
<path d="M1358 2243 c-96 -28 -156 -149 -129 -260 17 -66 59 -141 96 -168 30 -23 99 -47 108 -38 3 2 8 -15 12 -38 6 -33 4 -44 -6 -47 -19 -5 -299 -292 -299 -307 0 -6 6 -20 14 -30 14 -19 15 -19 58 5 23 13 65 39 92 58 27 19 74 45 103 58 l53 24 0 -38 c0 -66 -31 -345 -46 -410 -31 -138 -13 -180 79 -184 28 -1 140 -3 247 -3 198 -1 349 -10 398 -25 23 -7 20 -9 -23 -10 -27 -1 -57 -3 -65 -5 -8 -2 -33 -7 -55 -12 -22 -5 -53 -6 -70 -3 -16 4 -39 3 -50 0 -23 -8 -201 -4 -362 7 -74 6 -120 5 -138 -3 -43 -17 -115 -107 -115 -143 0 -48 32 -40 96 22 l54 53 268 -1 c303 -2 516 18 552 50 42 38 17 98 -45 109 -84 17 -236 27 -370 25 -233 -3 -297 1 -323 17 -12 8 -21 18 -18 22 2 4 6 32 10 62 3 30 12 115 21 188 8 74 15 171 15 217 l0 83 33 12 c68 25 77 30 77 40 0 6 8 23 19 38 10 15 44 72 76 126 32 54 72 115 90 135 38 43 45 60 33 84 -12 24 -46 21 -59 -6 -5 -12 -41 -45 -80 -72 -38 -28 -89 -64 -112 -82 -36 -27 -49 -31 -80 -26 -35 5 -53 23 -23 23 19 0 65 56 88 107 14 32 17 54 12 96 l-6 54 41 19 c26 12 41 26 41 38 0 17 -6 18 -49 13 l-49 -6 -17 39 c-38 85 -110 119 -197 93z m101 -77 c23 -15 59 -102 66 -162 6 -51 3 -68 -14 -102 -33 -64 -102 -73 -157 -21 -29 27 -64 117 -64 165 0 74 57 136 120 130 20 -1 42 -6 49 -10z m213 -420 c-28 -43 -30 -45 -46 -28 -15 17 -13 20 27 49 23 16 43 29 45 28 2 -2 -10 -23 -26 -49z m-116 -104 c-11 -10 -14 3 -8 33 l7 30 3 -28 c2 -16 1 -31 -2 -35z m-93 -44 l6 -47 -47 -15 c-26 -9 -66 -27 -89 -41 -24 -13 -43 -20 -43 -16 0 9 160 175 164 170 2 -2 6 -25 9 -51z m78 -31 c-13 -13 -14 5 -3 43 l7 25 3 -29 c2 -16 -1 -33 -7 -39z"/>
</g>
</svg>
