<?xml version="1.0" standalone="no"?>
<!DOCTYPE svg PUBLIC "-//W3C//DTD SVG 20010904//EN" "http://www.w3.org/TR/2001/REC-SVG-20010904/DTD/svg10.dtd">
<svg xmlns="http://www.w3.org/2000/svg" version="1.0" width="360.000000pt" height="360.000000pt" viewBox="0 0 360.000000 360.000000" preserveAspectRatio="xMidYMid meet">

<g transform="translate(0.000000,360.000000) scale(0.100000,-0.100000)" fill="#000000" stroke="none">
<path d="M1650 2960 c0 -5 -8 -10 -17 -10 -33 0 -110 -77 -129 -128 -10 -26 -19 -49 -20 -51 -2 -2 -19 7 -39 19 -71 44 -90 -3 -21 -52 l45 -31 0 -66 c1 -81 9 -109 42 -148 31 -37 59 -53 92 -53 29 0 42 -33 20 -51 -14 -12 -12 -76 3 -131 4 -12 -5 -18 -38 -23 -24 -4 -54 -13 -68 -20 -94 -48 -556 -48 -953 -1 -185 23 -272 24 -272 6 0 -18 58 -38 117 -41 24 -1 54 -6 67 -11 30 -11 180 -28 296 -33 50 -3 119 -9 155 -15 39 -6 112 -7 185 -3 66 5 165 7 220 6 113 -2 236 20 275 50 l25 19 7 -39 c16 -88 20 -330 10 -490 -7 -92 -14 -229 -16 -303 -3 -74 -12 -182 -21 -240 l-17 -105 36 -31 c38 -33 72 -44 137 -44 21 0 40 -4 43 -9 3 -5 27 -12 53 -16 27 -4 75 -14 108 -22 33 -8 82 -19 110 -23 57 -9 282 -62 365 -86 30 -9 86 -24 124 -34 38 -10 74 -24 80 -30 16 -18 -44 -11 -309 36 -135 24 -248 32 -480 35 -137 1 -220 6 -240 14 -37 16 -71 10 -99 -15 -117 -106 -159 -130 -229 -130 -48 0 -67 -13 -67 -46 0 -27 35 -38 88 -28 38 7 135 56 210 106 l42 29 268 -1 c271 0 358 -6 512 -35 119 -22 191 -32 292 -40 78 -7 90 -5 121 14 40 25 52 48 36 67 -14 18 -105 64 -125 64 -8 0 -22 4 -32 9 -9 5 -46 17 -82 26 -36 9 -85 23 -110 30 -25 7 -99 25 -165 39 -66 15 -133 31 -150 36 -16 5 -52 11 -80 15 -52 6 -56 7 -195 48 -216 65 -199 50 -180 148 21 109 45 838 32 964 -10 91 -1 115 66 173 26 22 92 83 147 136 54 53 104 96 111 96 10 0 23 29 24 52 0 4 -15 14 -32 22 -18 7 -43 23 -55 35 -12 11 -26 21 -31 21 -5 0 -21 9 -36 21 -24 19 -26 25 -20 70 12 88 -52 182 -150 223 -43 18 -86 21 -86 6z m101 -83 c33 -26 69 -92 69 -128 0 -35 -54 -169 -68 -169 -4 0 -25 -16 -46 -35 -53 -47 -86 -51 -134 -15 -47 35 -66 151 -28 172 18 10 21 34 6 40 -5 2 1 27 15 55 31 68 101 117 143 102 15 -5 34 -15 43 -22z m169 -300 c25 -17 46 -31 48 -32 1 -1 -50 -54 -113 -116 -64 -63 -124 -126 -133 -141 -9 -16 -20 -28 -24 -28 -9 0 -4 99 7 143 5 20 3 28 -9 33 -18 7 -22 24 -5 24 25 0 104 67 132 111 17 28 34 46 41 42 6 -3 31 -20 56 -36z"/>
</g>
</svg>
