<?xml version="1.0" standalone="no"?>
<!DOCTYPE svg PUBLIC "-//W3C//DTD SVG 20010904//EN" "http://www.w3.org/TR/2001/REC-SVG-20010904/DTD/svg10.dtd">
<svg xmlns="http://www.w3.org/2000/svg" version="1.0" width="360.000000pt" height="360.000000pt" viewBox="0 0 360.000000 360.000000" preserveAspectRatio="xMidYMid meet">

<g transform="translate(0.000000,360.000000) scale(0.100000,-0.100000)" fill="#000000" stroke="none">
<path d="M2368 3194 c-4 -3 -3 -22 0 -42 12 -66 5 -254 -12 -322 -32 -126 -118 -372 -141 -403 -13 -18 -15 -18 -39 -2 l-26 17 20 25 c35 44 41 90 26 189 -7 49 -20 104 -29 121 -13 23 -14 38 -7 64 12 41 12 40 0 59 -8 12 -13 11 -34 -9 l-25 -23 -33 25 c-78 58 -163 63 -233 14 -71 -48 -88 -85 -82 -179 7 -102 38 -171 105 -228 92 -80 170 -108 222 -80 16 9 24 3 51 -36 l31 -46 -28 -30 c-176 -184 -261 -247 -439 -323 -162 -69 -234 -81 -302 -48 -35 16 -36 16 -54 -6 -24 -29 -24 -32 1 -59 35 -38 149 -34 265 10 44 16 98 36 120 45 116 43 265 143 378 252 83 81 88 84 102 65 18 -23 81 -184 94 -239 5 -22 17 -67 28 -100 15 -52 17 -91 15 -295 -4 -392 -41 -684 -114 -905 -42 -126 -59 -151 -108 -159 -64 -10 -399 -8 -470 3 -36 5 -99 13 -140 16 -41 3 -83 9 -94 12 -10 3 -28 1 -40 -5 -61 -28 -191 -58 -255 -60 -55 -2 -81 -43 -46 -72 20 -17 147 -3 227 26 22 8 53 14 69 14 16 0 29 5 29 11 0 11 122 7 184 -6 43 -8 164 -18 266 -20 242 -5 287 -5 328 1 38 6 46 12 59 43 9 20 22 50 29 66 51 112 113 412 135 650 17 184 17 201 0 197 -11 -2 -12 0 -3 11 8 9 13 82 14 223 3 193 1 215 -19 282 -13 39 -32 104 -43 142 -11 39 -41 113 -67 165 l-46 95 37 55 c54 81 149 376 166 515 22 182 5 290 -45 290 -12 0 -24 -3 -27 -6z m-420 -338 c22 -8 43 -12 46 -9 11 11 78 -49 72 -64 -13 -34 -16 -59 -7 -72 8 -12 12 -13 25 -1 9 7 19 10 22 7 10 -10 26 -146 20 -169 -6 -25 -56 -58 -86 -58 -26 0 -68 19 -108 48 -82 62 -130 188 -95 256 11 23 56 72 69 76 1 0 20 -6 42 -14z"/>
</g>
</svg>
