<?xml version="1.0" standalone="no"?>
<!DOCTYPE svg PUBLIC "-//W3C//DTD SVG 20010904//EN" "http://www.w3.org/TR/2001/REC-SVG-20010904/DTD/svg10.dtd">
<svg xmlns="http://www.w3.org/2000/svg" version="1.0" width="360.000000pt" height="360.000000pt" viewBox="0 0 360.000000 360.000000" preserveAspectRatio="xMidYMid meet">

<g transform="translate(0.000000,360.000000) scale(0.100000,-0.100000)" fill="#000000" stroke="none">
<path d="M1512 3187 c-7 -8 -9 -29 -5 -52 l6 -38 -51 7 c-65 8 -106 -8 -149 -59 -38 -45 -47 -84 -40 -172 6 -80 25 -103 123 -149 114 -54 201 -44 262 28 l26 31 23 -27 c23 -28 29 -46 15 -46 -14 0 -88 -76 -110 -114 -12 -21 -53 -74 -91 -119 -37 -45 -80 -103 -95 -129 -15 -25 -33 -52 -41 -58 -8 -7 -15 -27 -15 -45 0 -43 37 -87 110 -133 30 -19 71 -49 91 -66 35 -30 142 -94 273 -164 33 -18 74 -47 89 -65 27 -31 28 -35 21 -104 -7 -82 7 -139 37 -148 11 -4 22 -5 25 -3 2 2 6 67 10 144 8 166 16 153 -146 236 -58 30 -129 69 -158 86 -29 18 -56 32 -59 32 -4 0 -27 17 -52 38 -25 21 -69 55 -98 75 -64 47 -71 66 -43 119 22 42 110 162 152 208 26 28 105 130 129 167 l16 24 56 -61 c97 -107 178 -258 194 -363 3 -18 20 -104 38 -192 38 -181 40 -286 10 -430 -18 -84 -17 -127 6 -330 37 -326 1 -706 -69 -744 -11 -6 -43 -8 -73 -6 -30 2 -144 6 -254 10 -110 3 -225 10 -255 15 -30 4 -102 11 -159 15 -57 4 -125 13 -150 21 l-46 14 -30 -34 c-29 -34 -134 -106 -153 -106 -6 0 -13 -7 -16 -16 -7 -18 10 -44 28 -44 14 0 168 90 178 104 7 10 199 -1 333 -19 50 -6 194 -15 345 -19 63 -2 151 -7 195 -10 72 -6 84 -5 120 16 35 21 40 29 41 60 1 20 6 56 12 80 37 145 46 420 21 661 -10 94 -9 167 1 355 12 229 11 265 -10 362 -75 354 -88 397 -148 491 -59 90 -163 204 -232 250 l-49 34 6 55 c9 87 -45 187 -114 212 -34 12 -34 13 -28 56 9 60 -23 95 -53 59z m32 -198 c65 -24 96 -61 96 -114 0 -53 -63 -115 -116 -115 -109 0 -192 106 -151 193 6 15 17 27 23 27 6 0 17 7 24 15 17 21 59 19 124 -6z"/>
</g>
</svg>
