<?xml version="1.0" standalone="no"?>
<!DOCTYPE svg PUBLIC "-//W3C//DTD SVG 20010904//EN" "http://www.w3.org/TR/2001/REC-SVG-20010904/DTD/svg10.dtd">
<svg xmlns="http://www.w3.org/2000/svg" version="1.0" width="360.000000pt" height="360.000000pt" viewBox="0 0 360.000000 360.000000" preserveAspectRatio="xMidYMid meet">

<g transform="translate(0.000000,360.000000) scale(0.100000,-0.100000)" fill="#000000" stroke="none">
<path d="M1311 2133 c-6 -12 -4 -29 6 -55 l15 -38 -45 -42 c-57 -54 -78 -96 -84 -169 -7 -77 28 -156 82 -182 47 -22 113 -22 175 2 78 30 117 65 150 134 l29 62 -5 -45 c-3 -25 -12 -85 -19 -135 -8 -49 -17 -148 -20 -220 -3 -71 -10 -143 -15 -160 -5 -16 -22 -84 -38 -150 -16 -66 -41 -154 -55 -195 -15 -41 -31 -95 -38 -119 -11 -45 -33 -70 -109 -125 -51 -36 -59 -56 -33 -81 17 -18 15 -18 -60 -12 -75 5 -77 5 -83 -19 -11 -44 15 -66 61 -54 6 2 44 7 85 12 49 6 98 20 140 41 l65 31 209 -3 c115 -1 219 -5 230 -7 19 -4 98 -13 271 -33 48 -6 81 -4 105 4 32 11 35 16 36 51 0 21 9 77 20 124 19 86 20 124 14 556 -1 71 5 144 16 200 22 114 24 284 4 344 -25 76 -112 209 -137 210 -7 0 -13 4 -13 8 0 10 -58 36 -115 52 -22 6 -108 14 -190 17 -123 5 -156 3 -180 -9 -17 -9 -50 -18 -75 -22 -25 -4 -57 -12 -71 -20 -14 -7 -63 -13 -118 -13 -52 -1 -98 -6 -104 -12 -6 -6 -19 -11 -28 -11 -15 0 -17 6 -12 35 6 39 -9 65 -38 65 -10 0 -22 -8 -28 -17z m826 -79 c28 -8 71 -29 95 -47 47 -36 103 -120 119 -180 15 -58 12 -184 -8 -272 -18 -83 -19 -107 -12 -515 3 -202 -7 -296 -40 -383 -11 -27 -16 -28 -141 -13 -134 16 -245 23 -377 24 -124 1 -148 4 -184 22 -39 21 -41 21 -66 3 -36 -25 -41 -28 -104 -57 -75 -35 -96 -33 -34 3 101 59 104 65 142 207 66 249 91 339 102 367 6 15 13 87 15 160 6 150 13 234 26 292 10 47 28 179 39 288 5 52 4 80 -3 85 -26 16 191 40 309 34 39 -1 93 -10 122 -18z m-484 -51 c-7 -57 -13 -68 -13 -27 0 17 -6 36 -12 42 -10 10 -10 15 2 22 26 17 30 11 23 -37z m-106 -11 c49 -31 20 -175 -49 -239 -44 -42 -152 -70 -186 -49 -21 13 -43 66 -44 107 -1 106 94 185 227 188 22 0 45 -3 52 -7z"/>
</g>
</svg>
