<?xml version="1.0" standalone="no"?>
<!DOCTYPE svg PUBLIC "-//W3C//DTD SVG 20010904//EN" "http://www.w3.org/TR/2001/REC-SVG-20010904/DTD/svg10.dtd">
<svg xmlns="http://www.w3.org/2000/svg" version="1.0" width="360.000000pt" height="360.000000pt" viewBox="0 0 360.000000 360.000000" preserveAspectRatio="xMidYMid meet">

<g transform="translate(0.000000,360.000000) scale(0.100000,-0.100000)" fill="#000000" stroke="none">
<path d="M1105 2750 c-11 -18 32 -37 215 -95 94 -29 242 -102 287 -141 15 -13 33 -24 38 -24 6 -1 46 -35 90 -76 58 -54 72 -72 52 -64 -16 5 -46 10 -68 10 -37 0 -39 2 -39 30 0 44 0 43 -17 63 -20 21 -37 22 -54 1 -11 -14 -10 -22 10 -56 12 -22 21 -41 19 -42 -2 -1 -21 -8 -43 -14 -23 -6 -57 -28 -78 -50 -34 -35 -39 -46 -43 -101 -3 -48 0 -72 16 -109 26 -58 54 -79 122 -93 131 -27 229 4 306 94 13 15 27 25 31 23 11 -7 -12 -240 -35 -353 -7 -40 -14 -87 -14 -105 0 -18 -7 -64 -15 -101 -11 -52 -22 -75 -46 -100 -18 -18 -86 -95 -152 -172 -126 -147 -206 -218 -263 -234 -18 -5 -46 -19 -60 -30 -15 -12 -35 -21 -45 -21 -24 0 -32 -16 -25 -45 9 -34 43 -42 70 -16 13 12 41 27 62 32 21 6 53 21 69 33 17 13 47 28 68 35 20 7 37 16 37 20 0 32 236 301 313 356 23 16 28 29 31 70 8 111 28 282 36 310 5 17 14 68 20 115 6 47 13 98 16 113 l6 29 26 -24 c15 -13 43 -36 62 -50 52 -37 157 -148 196 -206 42 -63 65 -121 99 -249 33 -122 36 -143 19 -143 -8 0 -51 -17 -96 -38 -46 -21 -105 -48 -133 -59 -27 -11 -72 -30 -100 -41 -27 -12 -68 -26 -90 -33 -22 -6 -95 -38 -163 -70 -67 -33 -125 -59 -129 -59 -7 0 -182 -85 -495 -242 -98 -48 -184 -88 -192 -88 -7 0 -25 -9 -40 -21 -22 -17 -38 -20 -109 -18 -155 4 -202 -1 -215 -21 -8 -14 -9 -27 -2 -46 9 -23 14 -25 48 -20 20 4 78 2 127 -2 102 -10 174 4 203 39 19 23 123 79 147 79 20 0 80 30 138 70 25 16 48 30 52 30 3 0 120 56 258 124 241 119 318 153 452 198 33 11 101 35 150 54 50 19 95 34 102 34 6 0 22 6 36 13 15 8 39 12 56 9 36 -5 40 -17 52 -177 12 -171 14 -157 -18 -138 -26 14 -30 14 -66 -7 -31 -18 -37 -28 -35 -49 3 -22 8 -26 38 -26 47 0 74 -29 90 -96 21 -95 18 -90 58 -87 l37 3 -3 60 c-2 33 -7 103 -12 155 -5 52 -12 127 -15 165 -4 39 -9 78 -11 88 -3 9 -5 52 -6 95 0 42 -4 82 -10 89 -5 7 -11 22 -13 35 -1 13 -11 52 -22 88 -39 125 -53 177 -53 194 0 29 -77 166 -123 219 -23 27 -44 52 -47 56 -3 3 -27 24 -55 46 -27 22 -56 45 -63 52 -8 7 -37 25 -65 39 -43 21 -56 35 -77 77 -34 71 -108 182 -161 243 -117 136 -329 274 -494 322 -171 50 -238 62 -250 42z m685 -475 c28 -14 50 -32 50 -40 0 -8 4 -15 10 -15 5 0 15 -19 22 -42 l12 -41 -42 -37 c-45 -41 -75 -50 -159 -50 -100 0 -143 37 -143 124 0 108 132 161 250 101z"/>
</g>
</svg>
