<?xml version="1.0" standalone="no"?>
<!DOCTYPE svg PUBLIC "-//W3C//DTD SVG 20010904//EN" "http://www.w3.org/TR/2001/REC-SVG-20010904/DTD/svg10.dtd">
<svg xmlns="http://www.w3.org/2000/svg" version="1.0" width="360.000000pt" height="360.000000pt" viewBox="0 0 360.000000 360.000000" preserveAspectRatio="xMidYMid meet">

<g transform="translate(0.000000,360.000000) scale(0.100000,-0.100000)" fill="#000000" stroke="none">
<path d="M1950 2264 c-6 -14 -10 -36 -10 -48 0 -33 -6 -35 -54 -18 -39 14 -51 14 -98 3 -63 -16 -77 -26 -94 -68 l-14 -32 -57 35 c-31 19 -63 34 -70 34 -7 0 -38 -14 -68 -31 -56 -31 -244 -221 -275 -278 -25 -45 -131 -182 -145 -187 -8 -3 -35 17 -62 45 -51 53 -72 61 -93 36 -20 -24 -4 -60 41 -90 l41 -29 -23 -17 c-23 -17 -23 -18 -6 -53 17 -36 43 -46 64 -25 8 8 17 8 32 0 21 -12 21 -15 17 -284 -3 -150 -8 -304 -11 -342 -5 -53 -3 -80 8 -107 14 -33 19 -36 73 -43 76 -11 202 -13 268 -4 80 10 278 47 311 58 96 31 200 72 214 84 31 28 133 70 140 59 21 -34 260 -106 418 -127 29 -4 56 -11 59 -17 6 -10 -321 -4 -381 8 -25 4 -42 0 -74 -20 -22 -14 -43 -26 -47 -26 -3 0 -23 -14 -44 -30 -21 -17 -52 -33 -68 -36 -42 -9 -62 -33 -51 -61 10 -28 41 -30 77 -5 15 10 50 29 77 43 28 13 58 31 69 39 15 13 70 15 342 16 296 1 326 3 344 19 11 10 20 23 20 30 0 17 -33 45 -53 45 -9 0 -45 9 -79 19 -73 23 -199 52 -243 57 -80 10 -267 64 -302 89 -23 16 -24 42 -4 120 25 94 37 191 30 235 -4 25 -8 72 -9 105 -1 135 -41 281 -96 353 l-26 33 23 62 22 62 -27 57 c-15 31 -44 74 -65 95 l-38 37 29 48 c17 27 27 55 24 63 -9 25 -45 18 -56 -11z m-46 -146 c14 -13 43 -56 65 -97 32 -60 37 -77 28 -92 -10 -16 -16 -14 -66 26 -31 23 -85 58 -121 76 -36 18 -67 34 -69 35 -2 2 2 17 9 33 12 30 27 36 97 40 21 0 41 -7 57 -21z m-277 -61 c33 -23 43 -36 39 -50 -14 -54 86 -207 147 -226 67 -21 96 -20 143 5 26 14 48 23 49 22 2 -2 18 -34 37 -73 47 -94 63 -194 63 -385 -1 -143 -3 -161 -28 -229 -28 -77 -50 -111 -73 -111 -8 0 -36 -14 -62 -30 -59 -36 -241 -105 -303 -114 -24 -4 -78 -15 -119 -23 -103 -23 -324 -24 -365 -2 -18 9 -28 21 -25 30 3 8 6 157 8 332 3 308 2 320 -18 359 -19 37 -19 42 -5 57 8 10 15 22 15 28 0 6 7 16 15 23 8 7 46 56 84 109 105 147 190 241 266 293 47 33 69 31 132 -15z m205 -107 c29 -17 68 -43 86 -59 l34 -29 -23 -16 c-27 -19 -45 -20 -87 -5 -38 13 -97 83 -106 127 -7 31 -7 32 17 23 14 -6 49 -24 79 -41z"/>
</g>
</svg>
