<?xml version="1.0" standalone="no"?>
<!DOCTYPE svg PUBLIC "-//W3C//DTD SVG 20010904//EN" "http://www.w3.org/TR/2001/REC-SVG-20010904/DTD/svg10.dtd">
<svg xmlns="http://www.w3.org/2000/svg" version="1.0" width="360.000000pt" height="360.000000pt" viewBox="0 0 360.000000 360.000000" preserveAspectRatio="xMidYMid meet">

<g transform="translate(0.000000,360.000000) scale(0.100000,-0.100000)" fill="#000000" stroke="none">
<path d="M2225 1393 c-288 -26 -347 -36 -505 -89 -115 -39 -112 -38 -220 -87 -41 -19 -104 -47 -140 -62 -36 -15 -78 -33 -95 -40 -77 -34 -256 -85 -296 -85 -24 0 -50 -4 -58 -9 -7 -5 -25 -5 -40 0 -37 11 -237 59 -291 69 -25 4 -67 16 -93 25 -54 18 -149 38 -187 38 -14 0 -52 -18 -85 -39 -33 -21 -83 -50 -110 -64 -28 -14 -53 -29 -57 -35 -26 -35 22 -58 55 -27 27 24 106 66 129 68 10 1 23 6 30 11 31 24 195 -4 473 -82 160 -45 188 -47 285 -15 47 15 137 44 200 65 63 20 162 60 220 87 139 67 172 78 194 66 9 -5 41 -12 69 -15 29 -2 66 -8 82 -13 17 -5 48 -11 70 -15 22 -3 63 -12 90 -20 59 -16 94 -25 233 -56 56 -13 102 -26 102 -30 0 -3 -148 -6 -329 -7 -184 0 -338 -5 -348 -10 -10 -5 -23 -8 -29 -5 -15 5 -56 -43 -52 -63 3 -18 44 -35 187 -78 96 -29 129 -32 137 -12 9 22 -14 56 -38 56 -30 0 -161 40 -154 47 3 4 171 7 373 9 362 2 368 3 385 24 13 17 15 25 6 39 -13 22 -87 56 -153 71 -27 7 -86 20 -130 30 -44 10 -109 25 -145 34 -36 8 -111 26 -167 38 -57 13 -103 26 -103 29 0 3 35 14 78 23 42 10 84 20 92 23 34 11 230 33 300 33 41 0 93 1 115 1 65 0 95 -7 109 -26 7 -10 24 -19 37 -20 13 0 43 -13 67 -28 32 -21 42 -33 42 -55 0 -40 20 -103 41 -133 18 -26 18 -27 -1 -44 -11 -10 -20 -24 -20 -32 0 -21 35 -15 58 10 l22 24 53 -18 c28 -10 79 -18 113 -19 33 0 64 -4 70 -8 5 -5 37 -21 71 -36 60 -26 63 -26 88 -10 22 14 54 17 198 18 95 0 196 -4 224 -8 47 -7 54 -6 60 11 3 10 11 21 16 24 5 4 6 16 2 28 -8 26 -105 57 -207 66 -40 4 -89 11 -108 15 -19 5 -85 10 -146 12 l-111 2 -2 56 c-1 52 -4 57 -49 99 -26 24 -71 55 -100 68 -46 22 -62 24 -115 19 -91 -10 -99 -10 -132 2 -136 49 -245 66 -360 55z m590 -138 c17 -7 47 -29 68 -49 36 -35 37 -38 28 -77 -13 -60 -24 -66 -58 -35 -15 15 -68 52 -117 84 -49 31 -83 58 -76 60 7 3 21 13 32 24 20 20 63 18 123 -7z m-80 -155 c4 0 20 -11 37 -25 27 -23 27 -25 9 -25 -31 0 -109 39 -126 63 -8 12 -15 30 -15 40 0 15 7 12 44 -17 23 -20 46 -36 51 -36z m330 -70 c4 -7 31 -8 72 -4 49 5 64 4 59 -4 -4 -7 -35 -12 -76 -12 -38 0 -81 -5 -96 -10 -22 -9 -31 -8 -43 5 -14 13 -13 15 9 15 14 0 32 5 40 10 19 12 27 12 35 0z"/>
</g>
</svg>
