<?xml version="1.0" standalone="no"?>
<!DOCTYPE svg PUBLIC "-//W3C//DTD SVG 20010904//EN" "http://www.w3.org/TR/2001/REC-SVG-20010904/DTD/svg10.dtd">
<svg xmlns="http://www.w3.org/2000/svg" version="1.0" width="360.000000pt" height="360.000000pt" viewBox="0 0 360.000000 360.000000" preserveAspectRatio="xMidYMid meet">

<g transform="translate(0.000000,360.000000) scale(0.100000,-0.100000)" fill="#000000" stroke="none">
<path d="M3150 2020 c0 -5 -13 -10 -29 -10 -28 0 -113 -37 -119 -52 -2 -5 -11 -8 -20 -8 -10 0 -28 -18 -42 -40 -14 -22 -28 -40 -32 -40 -5 0 -8 -22 -8 -50 l0 -50 -53 0 c-29 0 -57 -4 -62 -9 -6 -5 -48 -12 -95 -15 -47 -3 -120 -9 -163 -13 -56 -6 -81 -5 -90 4 -8 8 -99 13 -312 17 -165 3 -327 8 -360 11 -55 6 -65 4 -103 -21 -41 -27 -43 -30 -37 -66 4 -20 2 -70 -5 -110 -6 -40 -13 -183 -16 -318 -8 -439 -8 -436 -23 -453 -8 -11 -28 -17 -52 -17 -21 0 -49 -5 -63 -11 -19 -9 -40 -9 -88 1 -35 7 -91 14 -125 16 -34 1 -68 6 -75 10 -15 9 -141 23 -278 30 -52 3 -99 10 -104 15 -6 5 -35 9 -65 9 -41 0 -61 -6 -85 -23 -34 -26 -66 -41 -80 -38 -5 1 -16 -4 -25 -12 -9 -8 -38 -15 -66 -16 -27 -1 -52 -6 -53 -11 -2 -6 -21 -10 -42 -10 -30 0 -40 -5 -45 -20 -3 -11 -3 -24 0 -30 9 -14 98 -13 113 2 6 6 32 11 58 9 29 -1 55 4 70 14 14 9 29 13 35 9 6 -3 18 1 27 9 27 24 177 44 188 25 3 -4 47 -8 98 -8 52 0 97 -5 103 -11 6 -6 39 -13 74 -15 35 -3 68 -9 73 -15 6 -5 100 -9 214 -9 175 0 208 2 233 17 16 10 29 23 29 30 0 7 9 29 21 49 18 32 19 44 11 98 -5 33 -7 77 -5 96 2 19 5 171 7 337 3 226 7 310 17 333 l14 30 225 -5 c362 -8 524 -16 534 -26 13 -12 72 -12 94 0 25 13 162 19 154 6 -7 -10 -14 -63 -33 -245 -5 -52 -12 -223 -15 -380 l-6 -286 28 -27 c26 -27 31 -28 113 -25 83 3 86 4 89 28 4 33 -31 54 -84 51 -41 -2 -42 -1 -52 41 -14 55 -8 581 8 658 6 30 14 84 17 120 6 76 15 90 54 90 16 0 29 5 29 10 0 24 43 6 87 -36 l48 -45 66 3 c68 3 99 -9 99 -38 0 -16 43 -29 65 -20 20 7 19 46 -2 62 -17 12 -16 13 7 22 14 6 32 17 39 26 7 9 18 16 24 16 6 0 28 18 49 41 37 40 38 43 38 116 0 67 -3 79 -30 119 -17 24 -37 44 -45 44 -8 0 -15 5 -15 10 0 6 -32 10 -75 10 -43 0 -75 -4 -75 -10z m148 -120 c30 -60 23 -85 -45 -145 l-55 -51 -89 1 c-77 1 -92 4 -112 23 -18 17 -22 30 -19 55 8 54 67 126 105 127 9 0 17 5 17 10 0 6 13 10 29 10 17 0 33 5 36 10 4 6 30 10 58 8 50 -3 52 -4 75 -48z"/>
</g>
</svg>
