<?xml version="1.0" standalone="no"?>
<!DOCTYPE svg PUBLIC "-//W3C//DTD SVG 20010904//EN" "http://www.w3.org/TR/2001/REC-SVG-20010904/DTD/svg10.dtd">
<svg xmlns="http://www.w3.org/2000/svg" version="1.0" width="360.000000pt" height="360.000000pt" viewBox="0 0 360.000000 360.000000" preserveAspectRatio="xMidYMid meet">

<g transform="translate(0.000000,360.000000) scale(0.100000,-0.100000)" fill="#000000" stroke="none">
<path d="M1805 2015 c-115 -37 -171 -65 -251 -126 -124 -95 -154 -144 -162 -266 -4 -83 0 -117 50 -368 23 -121 34 -245 21 -246 -64 -6 -335 8 -443 23 -41 5 -106 13 -145 18 -38 4 -77 11 -86 14 -11 5 -31 -7 -62 -36 -26 -25 -71 -53 -107 -68 -59 -23 -90 -43 -90 -58 0 -11 77 -7 92 5 7 6 35 18 62 27 27 9 56 22 65 30 23 20 78 22 226 8 243 -23 480 -40 500 -38 91 13 107 83 61 269 -92 380 -95 400 -54 495 20 47 141 175 176 186 12 4 22 12 22 17 0 5 7 9 16 9 8 0 22 6 29 14 17 17 126 37 220 41 99 4 233 -11 296 -33 30 -11 94 -32 142 -47 55 -17 91 -34 98 -46 7 -14 6 -19 -3 -19 -42 -1 -128 -134 -128 -197 0 -28 -4 -33 -23 -33 -31 0 -62 -24 -52 -40 5 -8 20 -10 41 -7 31 5 34 4 34 -19 0 -34 34 -96 61 -112 42 -26 121 -44 164 -38 l41 7 12 -48 c6 -26 16 -91 22 -143 6 -52 15 -129 20 -170 9 -76 51 -179 73 -181 7 -1 45 0 85 1 46 1 72 -2 72 -9 0 -6 7 -11 15 -11 8 0 15 4 15 8 0 4 10 8 23 10 13 1 41 9 63 18 l39 16 -33 28 c-28 23 -40 26 -90 24 -31 -2 -70 -5 -87 -7 -41 -6 -74 8 -84 36 -11 27 -30 141 -57 325 l-17 123 35 37 c81 84 90 230 21 334 -27 40 -103 93 -150 104 -16 4 -38 14 -50 21 -12 8 -28 16 -35 17 -18 4 -46 15 -88 33 -19 8 -93 31 -165 49 -100 27 -157 36 -250 39 -109 5 -127 3 -200 -20z m749 -253 c12 -20 47 -202 49 -255 2 -46 -1 -58 -14 -62 -26 -9 -111 14 -126 33 -49 63 -55 163 -13 225 35 50 90 81 104 59z m134 -48 c31 -47 32 -116 4 -169 l-21 -40 -1 36 c0 19 -5 62 -10 95 -22 125 -22 124 -8 119 7 -3 23 -21 36 -41z"/>
</g>
</svg>
