<?xml version="1.0" standalone="no"?>
<!DOCTYPE svg PUBLIC "-//W3C//DTD SVG 20010904//EN" "http://www.w3.org/TR/2001/REC-SVG-20010904/DTD/svg10.dtd">
<svg xmlns="http://www.w3.org/2000/svg" version="1.0" width="360.000000pt" height="360.000000pt" viewBox="0 0 360.000000 360.000000" preserveAspectRatio="xMidYMid meet">

<g transform="translate(0.000000,360.000000) scale(0.100000,-0.100000)" fill="#000000" stroke="none">
<path d="M1790 1879 c-169 -12 -283 -39 -343 -80 -91 -63 -125 -214 -142 -634 -7 -161 -11 -196 -29 -240 -16 -38 -19 -39 -131 -35 -33 1 -78 5 -100 10 -23 5 -108 12 -190 15 -83 3 -178 7 -212 9 -53 3 -64 1 -81 -18 -10 -11 -40 -38 -65 -58 -34 -29 -44 -42 -40 -58 5 -19 7 -20 27 -5 102 74 84 70 281 69 126 0 208 -5 273 -17 99 -18 198 -22 206 -8 3 4 16 6 29 4 18 -4 30 4 49 29 35 46 42 98 53 383 8 225 24 335 61 423 l14 35 33 -30 c40 -37 66 -45 317 -87 276 -48 282 -49 358 -82 44 -20 53 -27 50 -46 -2 -18 -22 -30 -103 -63 -55 -23 -118 -51 -140 -63 -22 -12 -44 -22 -50 -22 -5 0 -50 -23 -99 -50 -49 -28 -97 -50 -106 -50 -25 0 -38 -44 -38 -132 -1 -123 43 -151 67 -42 25 110 31 124 70 149 48 30 219 111 291 137 61 23 181 90 197 110 23 28 25 59 7 79 -44 48 -218 103 -394 124 -78 9 -274 46 -310 58 -42 13 -70 35 -70 53 0 34 125 63 305 70 125 5 153 3 255 -20 63 -13 131 -29 150 -35 19 -5 55 -15 80 -21 53 -14 55 -15 183 -70 105 -47 116 -61 76 -103 -25 -26 -58 -94 -59 -121 0 -14 -5 -17 -22 -13 -28 8 -58 -9 -58 -32 0 -23 17 -38 48 -43 17 -2 28 -14 37 -41 7 -21 21 -47 30 -57 15 -16 16 -22 5 -35 -9 -11 -15 -68 -19 -183 -4 -92 -9 -171 -12 -177 -4 -5 -3 -21 2 -33 8 -21 14 -23 47 -18 28 5 48 1 83 -17 44 -23 50 -23 125 -12 101 16 137 30 132 53 -3 15 -15 17 -106 14 -99 -3 -102 -2 -107 21 -15 57 0 297 19 309 6 4 21 8 33 8 12 0 42 9 68 20 38 16 50 28 67 67 37 84 9 255 -49 303 -50 41 -119 80 -144 80 -15 0 -31 5 -34 11 -17 27 -296 139 -347 139 -10 0 -32 7 -47 15 -16 8 -44 16 -63 18 -19 2 -39 7 -45 10 -11 7 -52 13 -143 22 -105 11 -135 11 -230 4z m1008 -355 c12 -10 22 -26 22 -36 0 -9 4 -19 9 -23 5 -3 13 -30 17 -61 12 -100 -34 -160 -117 -152 l-34 3 1 90 c3 173 24 245 64 211 8 -7 25 -22 38 -32z m-164 -120 c-2 -59 -6 -109 -8 -111 -3 -3 -14 9 -24 26 -15 24 -18 44 -15 79 6 48 30 112 43 112 4 0 6 -48 4 -106z m6 -397 c-4 -43 -7 -83 -7 -90 1 -40 -3 -48 -20 -38 -16 8 -18 23 -15 108 2 54 7 112 12 128 4 17 12 44 16 60 7 27 9 23 14 -30 4 -33 4 -95 0 -138z"/>
</g>
</svg>
