<?xml version="1.0" standalone="no"?>
<!DOCTYPE svg PUBLIC "-//W3C//DTD SVG 20010904//EN" "http://www.w3.org/TR/2001/REC-SVG-20010904/DTD/svg10.dtd">
<svg xmlns="http://www.w3.org/2000/svg" version="1.0" width="360.000000pt" height="360.000000pt" viewBox="0 0 360.000000 360.000000" preserveAspectRatio="xMidYMid meet">

<g transform="translate(0.000000,360.000000) scale(0.100000,-0.100000)" fill="#000000" stroke="none">
<path d="M2210 2056 c-3 -2 -37 -5 -75 -6 -136 -4 -341 -50 -452 -101 -34 -16 -66 -29 -70 -29 -4 -1 -32 -23 -61 -49 -49 -45 -54 -53 -61 -107 -5 -33 -7 -77 -6 -99 3 -49 16 -201 21 -235 2 -14 3 -72 2 -130 -1 -58 -1 -145 -2 -195 -1 -49 -4 -95 -9 -102 -4 -6 -22 -15 -40 -18 -17 -4 -36 -10 -42 -14 -20 -12 -272 -75 -348 -86 -23 -4 -85 -15 -137 -25 -52 -10 -108 -21 -125 -24 -16 -3 -39 -7 -50 -10 -11 -3 -33 -7 -48 -11 -21 -4 -33 -16 -47 -49 -33 -78 -106 -132 -193 -142 -52 -7 -57 -10 -57 -39 0 -16 7 -25 25 -29 71 -18 192 42 255 127 39 52 116 97 164 97 17 0 63 6 101 15 39 8 115 23 170 34 55 11 132 29 170 41 39 11 95 25 125 30 165 27 160 16 156 367 -2 149 -6 275 -9 280 -3 4 -8 49 -12 99 -5 70 -3 99 8 127 16 38 83 93 152 125 47 23 278 81 315 80 8 0 57 5 109 11 162 18 355 1 476 -41 17 -5 50 -14 75 -19 80 -16 112 -30 101 -43 -16 -19 -71 -280 -86 -411 -3 -27 -10 -63 -15 -80 -16 -50 -22 -131 -25 -339 -1 -109 -6 -269 -10 -355 -6 -151 -6 -157 14 -176 44 -39 261 -14 261 30 0 20 -36 29 -105 27 -33 -1 -71 4 -85 11 l-24 12 2 270 c1 149 7 302 12 340 5 39 12 98 15 132 3 35 7 68 10 75 2 7 6 36 9 63 3 28 10 66 16 85 6 19 19 95 29 168 11 74 21 136 24 138 2 3 22 -2 44 -11 l40 -16 -18 -37 c-11 -20 -19 -46 -19 -58 0 -32 40 -126 67 -155 21 -23 22 -29 12 -53 -17 -37 0 -55 36 -36 21 11 32 12 61 1 40 -15 128 -8 180 14 41 17 105 115 112 170 9 82 -82 225 -143 225 -13 0 -26 4 -29 9 -14 22 -171 -2 -203 -32 l-22 -20 -46 37 c-33 28 -65 43 -120 56 -40 10 -78 20 -83 24 -5 3 -23 8 -40 11 -18 3 -69 14 -114 26 -76 18 -326 37 -338 25z m988 -205 c12 -6 22 -20 22 -30 0 -10 10 -26 21 -37 12 -10 28 -34 36 -53 13 -31 13 -37 -14 -87 -33 -63 -62 -79 -132 -72 -103 10 -205 144 -170 222 18 38 101 75 163 72 29 -2 62 -8 74 -15z"/>
</g>
</svg>
