<?xml version="1.0" standalone="no"?>
<!DOCTYPE svg PUBLIC "-//W3C//DTD SVG 20010904//EN" "http://www.w3.org/TR/2001/REC-SVG-20010904/DTD/svg10.dtd">
<svg xmlns="http://www.w3.org/2000/svg" version="1.0" width="360.000000pt" height="360.000000pt" viewBox="0 0 360.000000 360.000000" preserveAspectRatio="xMidYMid meet">

<g transform="translate(0.000000,360.000000) scale(0.100000,-0.100000)" fill="#000000" stroke="none">
<path d="M1500 1540 c-99 -16 -310 -80 -375 -113 -17 -9 -48 -23 -71 -32 -22 -9 -54 -30 -70 -46 -16 -16 -39 -39 -51 -52 -23 -23 -50 -82 -49 -107 1 -23 90 -60 159 -66 34 -3 69 -8 77 -11 8 -2 53 -11 100 -18 47 -8 126 -24 175 -35 50 -12 117 -25 151 -30 33 -5 81 -18 105 -28 l44 -19 -39 -17 c-21 -9 -46 -16 -55 -16 -9 0 -35 -7 -58 -15 -53 -19 -179 -23 -218 -8 -17 6 -57 19 -90 29 -33 9 -73 24 -90 33 -16 9 -34 16 -40 17 -34 3 -106 28 -116 40 -13 16 -55 19 -64 5 -5 -10 -126 -71 -139 -71 -4 0 -47 -19 -95 -43 -48 -24 -97 -46 -109 -49 -29 -8 -31 -48 -2 -48 11 0 20 -4 20 -10 0 -17 22 -12 135 31 60 22 129 56 153 75 25 19 50 34 56 34 27 0 236 -68 250 -81 5 -5 -22 -6 -59 -4 -81 6 -131 -8 -141 -37 -10 -32 21 -51 71 -42 22 4 60 8 85 9 25 1 88 6 141 10 62 5 119 4 160 -4 35 -6 78 -13 94 -16 75 -13 387 -25 404 -15 10 5 21 7 23 4 3 -2 19 8 36 24 27 26 30 33 23 58 -17 56 -24 65 -62 85 -22 11 -39 22 -39 24 0 8 132 65 190 82 30 8 66 23 80 33 31 21 158 90 167 90 3 0 -1 -8 -9 -17 -8 -10 -23 -37 -33 -60 -10 -25 -25 -43 -34 -43 -9 -1 -27 -10 -40 -20 -32 -27 -21 -50 23 -50 30 0 35 -4 41 -29 8 -37 50 -58 231 -115 l81 -25 59 20 c67 23 99 49 123 99 27 55 15 88 -61 169 -36 39 -70 71 -74 71 -4 0 -12 7 -18 15 -6 9 -23 16 -36 17 -44 1 -139 53 -270 148 -103 74 -125 82 -355 130 -33 7 -80 18 -105 26 -129 38 -229 42 -390 14z m315 -71 c39 -6 75 -15 82 -21 6 -5 46 -15 90 -23 126 -22 164 -34 243 -77 119 -64 120 -66 52 -98 -31 -15 -82 -44 -112 -65 -60 -41 -191 -104 -285 -139 l-61 -22 -59 24 c-33 13 -111 32 -173 43 -61 11 -124 24 -138 29 -14 6 -29 8 -34 5 -4 -2 -31 2 -60 11 -59 18 -179 41 -254 50 -68 9 -93 19 -100 42 -20 60 45 104 269 181 122 42 172 54 269 64 129 13 164 13 271 -4z m722 -322 c7 -5 39 -22 72 -38 129 -63 161 -160 62 -190 -39 -12 -111 -5 -111 10 0 5 -17 11 -38 14 -93 15 -154 72 -137 129 12 36 48 86 70 96 19 9 54 0 82 -21z m-702 -206 c3 -5 18 -12 33 -16 32 -7 90 -50 80 -60 -10 -11 -110 -14 -159 -5 -24 4 -75 11 -114 15 l-70 7 75 24 c41 13 86 28 100 33 34 12 48 13 55 2z"/>
</g>
</svg>
