<?xml version="1.0" standalone="no"?>
<!DOCTYPE svg PUBLIC "-//W3C//DTD SVG 20010904//EN" "http://www.w3.org/TR/2001/REC-SVG-20010904/DTD/svg10.dtd">
<svg xmlns="http://www.w3.org/2000/svg" version="1.0" width="360.000000pt" height="360.000000pt" viewBox="0 0 360.000000 360.000000" preserveAspectRatio="xMidYMid meet">

<g transform="translate(0.000000,360.000000) scale(0.100000,-0.100000)" fill="#000000" stroke="none">
<path d="M2080 1802 c-24 -2 -50 -7 -56 -12 -6 -5 -55 -28 -109 -51 -55 -22 -112 -52 -128 -65 -16 -13 -36 -24 -45 -24 -9 0 -36 -13 -59 -28 -23 -15 -67 -43 -98 -62 -59 -36 -110 -81 -158 -139 -86 -105 -72 -137 192 -432 47 -52 108 -116 137 -144 69 -67 105 -121 98 -150 -3 -13 1 -28 11 -38 27 -27 8 -39 -49 -32 -97 13 -266 62 -320 91 -15 9 -63 25 -105 35 -42 11 -99 31 -127 44 -68 33 -89 32 -104 -5 -7 -17 -18 -34 -24 -38 -23 -14 -86 -110 -92 -140 -4 -20 0 -38 11 -56 15 -23 22 -26 54 -20 20 4 44 13 55 20 17 12 16 13 -13 28 -17 9 -31 19 -31 21 0 12 73 111 87 119 9 5 31 2 56 -7 23 -8 62 -20 87 -28 53 -15 191 -68 205 -78 10 -8 139 -41 235 -62 70 -14 133 0 156 37 14 21 15 32 5 85 -8 41 -9 65 -3 71 7 7 7 18 0 33 -8 18 -5 39 16 97 37 99 89 237 127 333 17 44 42 107 54 141 12 33 29 74 37 90 9 16 30 70 49 119 33 90 76 171 85 162 3 -3 -7 -24 -23 -48 -25 -38 -28 -51 -27 -118 1 -43 8 -92 17 -112 8 -20 13 -47 10 -61 -5 -28 20 -60 40 -52 8 3 31 -9 53 -27 98 -79 184 -75 278 11 39 36 46 48 52 96 14 112 -55 246 -161 316 -52 34 -66 38 -105 35 -27 -3 -51 0 -60 8 -45 36 -146 48 -310 37z m152 -75 c-6 -7 -27 -56 -47 -108 -31 -82 -75 -188 -122 -296 -7 -18 -20 -51 -28 -73 -8 -22 -21 -55 -28 -73 -66 -153 -127 -315 -127 -336 0 -11 5 -23 10 -26 6 -3 10 -11 10 -16 0 -5 -20 12 -44 38 -24 26 -78 84 -120 128 -90 92 -246 275 -247 290 0 6 -6 17 -13 25 -40 47 -7 108 106 197 92 72 151 105 381 216 77 36 294 64 269 34z m289 -65 c62 -41 117 -128 126 -198 8 -69 -36 -137 -97 -149 -51 -10 -150 47 -150 85 0 10 -11 27 -25 37 -18 13 -28 33 -36 76 -12 68 -7 87 33 133 26 30 36 34 77 34 27 0 57 -7 72 -18z"/>
</g>
</svg>
