<?xml version="1.0" standalone="no"?>
<!DOCTYPE svg PUBLIC "-//W3C//DTD SVG 20010904//EN" "http://www.w3.org/TR/2001/REC-SVG-20010904/DTD/svg10.dtd">
<svg xmlns="http://www.w3.org/2000/svg" version="1.0" width="360.000000pt" height="360.000000pt" viewBox="0 0 360.000000 360.000000" preserveAspectRatio="xMidYMid meet">

<g transform="translate(0.000000,360.000000) scale(0.100000,-0.100000)" fill="#000000" stroke="none">
<path d="M2407 2503 c-21 -38 -33 -114 -72 -473 -23 -212 -17 -292 35 -505 16 -65 15 -66 -34 -45 -45 19 -59 22 -176 40 -36 5 -92 14 -125 20 -33 6 -82 15 -110 19 -51 9 -304 6 -405 -4 -67 -7 -208 -34 -235 -45 -28 -12 -69 -24 -75 -23 -3 1 -35 -13 -70 -30 -80 -39 -95 -69 -65 -125 15 -28 32 -41 70 -55 126 -48 145 -54 365 -101 384 -83 406 -89 529 -155 33 -17 22 -31 -26 -32 -153 -3 -257 6 -443 40 -30 5 -120 22 -199 36 -79 14 -152 31 -162 38 -15 9 -23 9 -39 -1 -11 -6 -29 -12 -40 -12 -11 0 -38 -11 -60 -25 -22 -14 -43 -25 -46 -25 -12 0 -174 -103 -174 -110 0 -17 36 -20 65 -6 16 8 71 31 120 51 50 21 96 42 103 47 8 7 17 7 27 -2 8 -6 19 -9 24 -6 6 4 54 -2 108 -13 54 -10 121 -22 148 -26 46 -5 148 -23 270 -45 28 -5 129 -12 225 -15 200 -6 208 -4 215 62 5 52 -17 83 -83 116 -26 13 -56 28 -67 34 -41 21 -122 46 -175 54 -30 4 -95 18 -145 29 -88 21 -123 29 -295 68 -156 36 -240 65 -240 85 0 18 29 43 60 51 14 4 34 11 45 15 156 63 563 89 730 47 33 -8 89 -18 125 -21 101 -9 269 -62 308 -96 18 -16 37 -27 43 -24 5 4 18 0 30 -8 20 -15 20 -15 2 -21 -11 -4 -33 -25 -49 -49 -25 -37 -29 -51 -29 -114 0 -69 1 -73 37 -110 22 -23 38 -50 40 -68 4 -35 31 -45 58 -20 15 14 22 14 41 5 12 -7 49 -14 83 -16 65 -3 98 8 151 50 28 23 29 26 27 96 -2 40 -9 85 -17 100 -18 35 -114 120 -135 120 -9 0 -20 4 -26 9 -5 6 -31 12 -58 14 -40 4 -51 9 -58 27 -4 12 -5 26 -2 31 3 6 1 15 -4 22 -14 18 -54 327 -67 527 -3 41 -12 121 -21 177 -11 71 -14 145 -11 247 3 119 2 146 -10 151 -20 7 -31 6 -36 -2z m28 -738 c9 -88 18 -184 21 -213 3 -29 8 -61 11 -70 5 -15 4 -15 -9 -2 -13 13 -40 119 -67 265 -10 50 -8 147 5 265 l8 65 8 -75 c4 -41 15 -147 23 -235z m198 -535 c14 0 37 -13 55 -31 19 -20 37 -29 46 -26 41 16 63 -115 26 -148 -25 -23 -107 -23 -152 -1 -17 9 -36 16 -42 16 -6 0 -28 16 -48 35 -29 26 -38 42 -38 67 0 66 63 120 112 96 9 -4 28 -8 41 -8z"/>
</g>
</svg>
