<?xml version="1.0" standalone="no"?>
<!DOCTYPE svg PUBLIC "-//W3C//DTD SVG 20010904//EN" "http://www.w3.org/TR/2001/REC-SVG-20010904/DTD/svg10.dtd">
<svg xmlns="http://www.w3.org/2000/svg" version="1.0" width="360.000000pt" height="360.000000pt" viewBox="0 0 360.000000 360.000000" preserveAspectRatio="xMidYMid meet">

<g transform="translate(0.000000,360.000000) scale(0.100000,-0.100000)" fill="#000000" stroke="none">
<path d="M1733 3219 c-13 -5 -23 -15 -23 -24 0 -8 24 -55 54 -103 29 -48 59 -105 67 -127 7 -22 19 -47 26 -56 7 -8 13 -34 13 -56 0 -23 6 -76 14 -119 8 -44 19 -113 26 -154 10 -68 33 -189 75 -405 9 -44 25 -129 35 -190 10 -60 23 -123 29 -140 29 -88 43 -202 37 -305 -13 -214 -14 -369 -5 -515 11 -179 12 -180 43 -271 21 -62 22 -77 13 -112 -9 -32 -18 -44 -41 -52 -35 -12 -41 -8 -27 18 6 11 9 21 7 23 -2 2 -7 28 -10 57 -8 81 -53 134 -123 149 l-43 8 15 29 c20 38 19 49 -7 65 -19 12 -24 11 -40 -9 -17 -21 -17 -33 -1 -78 4 -8 -7 -12 -33 -13 -89 -3 -144 -14 -144 -31 0 -5 -12 -23 -27 -38 -30 -32 -37 -54 -37 -121 -1 -35 6 -54 28 -83 43 -57 102 -79 213 -80 56 -1 96 3 103 10 8 8 24 9 47 4 19 -5 47 -5 61 0 15 5 39 11 54 14 26 6 75 76 84 121 2 11 8 43 14 70 19 91 31 209 30 295 -1 47 -2 94 -2 105 0 11 -6 50 -14 87 -8 36 -18 99 -24 140 -6 40 -22 120 -36 177 -26 105 -28 180 -8 293 5 31 3 39 -11 44 -10 4 -26 2 -35 -4 -16 -9 -19 -7 -23 21 -28 166 -38 217 -48 247 -6 19 -15 62 -19 95 -7 55 -29 170 -50 255 -12 47 -51 281 -60 355 -4 33 -9 65 -11 70 -2 6 0 20 5 32 7 22 -28 92 -56 110 -16 10 -88 153 -88 174 0 22 -19 29 -47 18z m433 -1925 c28 -181 35 -278 29 -368 -9 -124 -19 -145 -33 -70 -6 32 -11 66 -11 74 1 8 -2 67 -6 130 -10 168 -11 350 -2 341 4 -4 14 -52 23 -107z m-199 -546 c32 -33 43 -107 20 -142 -9 -13 -37 -34 -62 -46 -43 -21 -51 -22 -108 -10 -109 22 -130 49 -98 121 27 59 55 90 86 93 14 1 28 6 33 10 4 5 29 6 55 3 35 -3 56 -12 74 -29z"/>
</g>
</svg>
