<?xml version="1.0" standalone="no"?>
<!DOCTYPE svg PUBLIC "-//W3C//DTD SVG 20010904//EN" "http://www.w3.org/TR/2001/REC-SVG-20010904/DTD/svg10.dtd">
<svg xmlns="http://www.w3.org/2000/svg" version="1.0" width="360.000000pt" height="360.000000pt" viewBox="0 0 360.000000 360.000000" preserveAspectRatio="xMidYMid meet">

<g transform="translate(0.000000,360.000000) scale(0.100000,-0.100000)" fill="#000000" stroke="none">
<path d="M3200 1545 c-214 -32 -337 -58 -372 -76 -10 -5 -53 -20 -95 -33 -167 -51 -258 -88 -360 -146 -58 -33 -117 -63 -130 -66 -13 -4 -25 -10 -28 -14 -5 -9 -171 -90 -183 -90 -4 0 -72 -25 -151 -55 l-145 -56 -90 6 c-50 4 -130 8 -178 9 l-87 2 -23 34 c-27 40 -81 79 -120 87 -16 3 -28 7 -28 8 0 1 6 21 14 43 17 46 4 77 -30 70 -16 -3 -19 -12 -19 -56 l0 -52 -71 0 c-58 0 -76 -4 -102 -23 -44 -33 -68 -66 -82 -114 -15 -48 -18 -49 -160 -63 -52 -5 -129 -16 -170 -24 -41 -9 -104 -21 -140 -27 -36 -6 -78 -13 -95 -16 -16 -3 -38 -9 -48 -15 -11 -5 -40 -9 -65 -8 -69 4 -79 2 -86 -16 -11 -30 12 -54 52 -54 21 0 42 4 48 9 5 4 50 13 99 20 50 7 99 14 110 16 11 3 63 13 115 24 52 11 142 25 199 31 56 6 114 15 127 20 14 6 24 6 24 1 0 -19 54 -73 94 -93 101 -51 218 -53 294 -5 24 16 45 34 48 42 4 11 34 12 157 8 156 -6 212 2 302 42 17 8 64 28 105 45 41 17 96 44 121 61 25 16 49 29 53 29 5 0 25 13 45 29 20 16 63 43 96 60 33 18 83 45 110 62 74 43 181 93 255 119 36 13 69 27 74 32 6 4 17 8 26 8 9 0 33 9 54 20 21 10 64 25 95 31 31 7 61 16 66 20 6 4 35 10 65 14 30 3 91 13 135 20 186 33 193 34 198 13 3 -11 4 -29 1 -41 -2 -12 -13 -76 -24 -142 -33 -196 -67 -344 -92 -405 -16 -37 -17 -60 -4 -97 6 -20 14 -23 64 -23 31 -1 82 -2 111 -4 68 -4 90 11 72 51 -11 25 -14 25 -80 19 -107 -9 -106 -16 -46 239 21 87 65 328 65 354 0 30 -49 121 -65 121 -7 0 -19 2 -27 4 -7 2 -51 -2 -98 -9z m-1955 -473 c28 -14 44 -30 45 -42 0 -3 -49 -7 -109 -8 -60 -1 -128 -6 -150 -11 -23 -5 -41 -7 -41 -4 0 23 46 74 73 81 43 12 145 3 182 -16z m85 -125 c0 -35 -41 -77 -84 -87 -76 -17 -206 16 -244 63 -17 20 18 27 171 35 65 4 127 8 138 9 13 1 19 -5 19 -20z m195 14 c22 -3 -23 -19 -72 -26 -49 -6 -53 -5 -53 14 0 18 5 20 58 17 31 -2 62 -5 67 -5z"/>
</g>
</svg>
