<?xml version="1.0" standalone="no"?>
<!DOCTYPE svg PUBLIC "-//W3C//DTD SVG 20010904//EN" "http://www.w3.org/TR/2001/REC-SVG-20010904/DTD/svg10.dtd">
<svg xmlns="http://www.w3.org/2000/svg" version="1.0" width="360.000000pt" height="360.000000pt" viewBox="0 0 360.000000 360.000000" preserveAspectRatio="xMidYMid meet">

<g transform="translate(0.000000,360.000000) scale(0.100000,-0.100000)" fill="#000000" stroke="none">
<path d="M2250 1409 c-181 -51 -245 -61 -365 -54 -150 8 -458 3 -520 -10 -141 -29 -257 -65 -333 -103 -50 -26 -151 -88 -172 -107 -9 -8 -22 -15 -28 -15 -6 0 -15 -6 -19 -12 -13 -21 -99 -87 -127 -98 -24 -9 -29 -6 -53 28 -33 45 -98 95 -147 113 -31 11 -36 18 -36 44 0 43 -13 57 -46 53 -26 -3 -29 -6 -28 -40 1 -22 -4 -38 -10 -39 -132 -8 -219 -100 -202 -212 16 -99 148 -177 274 -161 70 8 129 41 183 102 32 37 42 43 49 32 6 -8 10 -18 10 -21 0 -4 57 -10 127 -14 152 -8 244 -24 378 -63 89 -26 102 -28 122 -15 26 17 40 74 49 205 4 53 14 109 23 129 l16 34 80 0 c69 0 80 2 83 18 2 11 -7 30 -20 44 -21 23 -28 25 -98 21 -78 -5 -120 -22 -120 -48 0 -9 -7 -25 -15 -37 -10 -14 -17 -61 -21 -146 -4 -69 -10 -130 -13 -135 -6 -11 -7 -11 -206 32 -66 14 -145 26 -176 26 -31 0 -71 3 -88 6 l-32 7 32 33 c18 19 36 34 40 34 4 0 41 25 81 55 74 56 194 121 251 136 18 4 68 18 112 29 110 29 412 39 449 14 18 -11 30 -13 43 -6 20 11 130 6 183 -8 19 -5 73 -20 120 -34 47 -13 108 -27 135 -31 28 -4 72 -11 99 -17 l49 -10 -7 -112 c-3 -61 -9 -129 -12 -151 -9 -67 7 -78 107 -76 110 3 121 5 133 25 9 14 6 21 -13 37 -18 14 -39 19 -88 19 l-65 0 7 113 c4 61 9 113 10 115 9 10 256 -85 335 -129 19 -11 75 -40 125 -65 49 -24 96 -50 105 -58 8 -7 38 -23 65 -36 45 -21 67 -24 215 -27 94 -2 171 0 179 6 23 15 5 41 -29 41 -17 0 -41 5 -53 12 -13 7 -58 11 -113 10 -98 -2 -99 -2 -324 113 -176 91 -251 127 -366 175 l-131 55 1 87 c0 48 -3 91 -9 96 -23 22 -92 18 -185 -9z m121 -110 c-1 -30 -4 -55 -4 -56 -2 -1 -57 9 -172 31 -38 8 -80 19 -89 24 -5 3 27 15 70 28 99 28 121 32 163 29 l35 -2 -3 -54z m-1934 -214 c32 -8 63 -22 69 -30 6 -8 16 -15 22 -15 19 0 62 -50 62 -71 0 -30 -52 -74 -105 -89 -112 -31 -264 33 -252 108 10 63 35 89 98 101 24 5 45 9 46 10 1 1 28 -6 60 -14z"/>
</g>
</svg>
