<?xml version="1.0" standalone="no"?>
<!DOCTYPE svg PUBLIC "-//W3C//DTD SVG 20010904//EN" "http://www.w3.org/TR/2001/REC-SVG-20010904/DTD/svg10.dtd">
<svg xmlns="http://www.w3.org/2000/svg" version="1.0" width="360.000000pt" height="360.000000pt" viewBox="0 0 360.000000 360.000000" preserveAspectRatio="xMidYMid meet">

<g transform="translate(0.000000,360.000000) scale(0.100000,-0.100000)" fill="#000000" stroke="none">
<path d="M1422 1324 c-206 -62 -447 -207 -629 -380 -36 -35 -98 -63 -125 -57 -14 4 -18 15 -18 55 0 87 -53 163 -132 188 -24 8 -46 13 -50 12 -5 -1 -8 9 -8 23 0 34 -38 55 -57 29 -7 -10 -13 -26 -13 -36 0 -14 -8 -18 -38 -18 -27 0 -54 -10 -86 -32 -69 -45 -83 -74 -82 -162 1 -63 5 -77 29 -109 78 -103 258 -113 376 -22 41 33 45 34 72 20 36 -19 82 -19 119 0 34 17 58 13 246 -49 61 -20 140 -39 175 -42 56 -6 66 -4 83 15 20 22 21 41 16 232 -3 142 21 170 150 174 50 2 66 6 68 17 4 23 -50 58 -89 58 -25 0 -30 3 -22 11 31 31 259 20 458 -21 50 -10 110 -21 135 -25 25 -3 72 -11 105 -16 33 -6 87 -14 120 -19 74 -10 157 -27 210 -42 127 -36 490 -215 635 -312 46 -32 98 -64 115 -73 16 -8 43 -27 58 -42 25 -23 35 -25 80 -22 29 3 76 4 105 4 48 -1 52 0 52 23 0 31 -27 44 -89 44 -58 0 -165 45 -258 108 -52 35 -143 85 -343 188 -105 54 -292 132 -335 140 -22 4 -53 13 -70 19 -16 7 -55 16 -85 20 -30 3 -68 10 -85 15 -16 5 -59 12 -95 15 -36 4 -85 11 -110 16 -25 5 -72 14 -105 20 -33 6 -69 12 -80 14 -179 36 -324 42 -403 19z m-181 -181 c-8 -25 -11 -86 -9 -176 3 -90 0 -141 -7 -147 -13 -11 -217 38 -355 86 -11 4 2 21 45 60 92 83 320 232 334 218 2 -2 -1 -21 -8 -41z m-751 -90 c61 -19 90 -57 90 -113 -1 -69 -66 -113 -171 -114 -54 -1 -72 3 -102 24 -61 41 -71 95 -29 157 40 62 114 78 212 46z"/>
</g>
</svg>
