<?xml version="1.0" standalone="no"?>
<!DOCTYPE svg PUBLIC "-//W3C//DTD SVG 20010904//EN" "http://www.w3.org/TR/2001/REC-SVG-20010904/DTD/svg10.dtd">
<svg xmlns="http://www.w3.org/2000/svg" version="1.0" width="360.000000pt" height="360.000000pt" viewBox="0 0 360.000000 360.000000" preserveAspectRatio="xMidYMid meet">

<g transform="translate(0.000000,360.000000) scale(0.100000,-0.100000)" fill="#000000" stroke="none">
<path d="M2165 1202 c-16 -1 -48 -7 -70 -12 -22 -5 -83 -10 -135 -11 -159 -3 -338 -49 -430 -110 -14 -9 -36 -20 -50 -24 -14 -4 -43 -20 -65 -35 -22 -15 -68 -41 -102 -58 -34 -18 -64 -36 -68 -42 -3 -6 -24 -19 -45 -30 -22 -11 -67 -45 -101 -75 -34 -30 -65 -52 -70 -49 -5 3 -9 18 -9 33 0 19 -14 44 -41 74 -39 45 -120 107 -140 107 -11 0 -11 7 0 29 20 37 -9 78 -45 64 -12 -4 -15 -15 -11 -43 l5 -37 -57 -13 c-73 -17 -137 -61 -156 -107 -28 -66 -13 -165 33 -213 15 -16 76 -52 95 -56 4 -1 10 -2 15 -4 10 -3 82 0 117 6 40 6 155 62 161 79 3 7 14 11 25 8 12 -4 29 3 44 17 18 17 28 20 37 13 7 -6 72 -24 143 -41 72 -17 157 -41 190 -52 33 -12 76 -23 95 -26 19 -3 57 -12 83 -20 65 -20 110 -10 141 30 31 41 42 87 51 202 12 169 37 204 154 214 42 4 85 12 96 18 11 6 28 13 38 16 30 9 14 30 -28 37 -56 9 -193 2 -225 -11 -60 -25 -88 -105 -99 -277 -6 -100 -10 -126 -26 -143 -15 -17 -26 -20 -50 -15 -16 4 -38 7 -48 7 -25 -1 -143 24 -197 41 -59 20 -159 46 -190 51 -49 8 -80 18 -80 27 0 23 299 208 425 263 101 44 216 72 335 81 41 4 99 11 128 17 36 6 57 6 66 -1 8 -7 25 -6 57 3 45 14 83 14 424 0 99 -4 204 -6 234 -6 l54 1 -7 -177 c-7 -197 -15 -313 -22 -324 -8 -13 16 -48 33 -48 9 0 32 5 50 12 32 12 35 11 59 -17 25 -30 27 -30 126 -29 73 1 102 5 108 15 15 23 -17 46 -69 51 -34 3 -57 13 -80 33 l-32 29 3 224 3 224 -23 19 c-37 29 -86 38 -242 44 -80 2 -194 8 -255 11 -118 7 -311 11 -360 6z m821 -112 c10 -74 10 -105 4 -148 -4 -26 -11 -96 -15 -157 -6 -104 -15 -130 -40 -121 -10 3 -11 164 -4 364 4 91 4 93 28 90 18 -2 25 -10 27 -28z m-2142 -196 c10 -4 38 -26 62 -50 38 -36 44 -48 44 -83 0 -33 -5 -44 -27 -58 -88 -58 -222 -58 -262 0 -24 33 -40 85 -34 110 18 72 131 114 217 81z"/>
</g>
</svg>
