<?xml version="1.0" standalone="no"?>
<!DOCTYPE svg PUBLIC "-//W3C//DTD SVG 20010904//EN" "http://www.w3.org/TR/2001/REC-SVG-20010904/DTD/svg10.dtd">
<svg xmlns="http://www.w3.org/2000/svg" version="1.0" width="360.000000pt" height="360.000000pt" viewBox="0 0 360.000000 360.000000" preserveAspectRatio="xMidYMid meet">

<g transform="translate(0.000000,360.000000) scale(0.100000,-0.100000)" fill="#000000" stroke="none">
<path d="M2099 1466 c-2 -2 -42 -6 -89 -9 -101 -7 -182 -20 -245 -41 -25 -9 -54 -16 -64 -16 -21 0 -101 -31 -185 -71 -33 -16 -66 -29 -75 -29 -9 0 -40 -14 -70 -30 -30 -17 -63 -30 -74 -30 -11 0 -42 -13 -69 -30 -26 -16 -53 -30 -58 -30 -14 0 -114 -50 -235 -117 -11 -6 -56 -28 -100 -49 -44 -20 -91 -45 -105 -54 -14 -9 -63 -29 -110 -44 -165 -53 -159 -46 -146 -176 4 -32 22 -47 67 -53 72 -10 97 29 34 52 -19 7 -35 16 -35 21 0 19 69 80 89 80 28 0 104 34 158 71 23 16 45 29 50 29 7 0 292 138 333 161 36 21 144 69 154 69 7 0 29 9 51 20 22 11 47 20 57 20 9 0 19 4 23 9 3 5 22 15 43 21 20 7 62 23 92 38 87 41 128 54 245 81 50 11 128 23 175 27 47 3 103 9 125 13 61 10 83 3 131 -43 43 -42 44 -44 46 -112 7 -206 3 -232 -48 -315 -20 -32 -33 -63 -29 -69 4 -7 1 -16 -6 -21 -21 -13 -29 -11 -29 9 0 91 -92 190 -180 194 l-40 1 6 48 c6 42 4 48 -15 54 -37 11 -52 -11 -45 -66 6 -45 5 -49 -13 -49 -71 0 -183 -110 -183 -180 0 -44 30 -94 67 -113 37 -19 123 -37 179 -37 61 0 157 28 186 55 15 13 45 25 78 30 95 14 330 13 445 -2 125 -17 232 -28 420 -44 72 -6 147 -12 168 -14 20 -2 37 1 37 6 0 5 -6 9 -14 9 -8 0 -16 5 -18 12 -6 17 -92 36 -198 43 -52 4 -97 8 -100 10 -3 2 -46 6 -95 10 -50 4 -92 9 -95 10 -17 10 -301 34 -382 32 -113 -3 -116 1 -68 71 37 56 44 111 33 290 l-9 142 -35 36 c-46 49 -102 74 -170 74 -31 0 -58 -2 -60 -4z m-43 -502 c34 -16 74 -68 74 -97 0 -8 -8 -29 -17 -46 -16 -26 -28 -33 -91 -47 -98 -22 -180 -4 -216 48 -13 18 -13 23 0 35 8 8 20 29 28 46 16 39 31 52 76 65 53 15 108 14 146 -4z"/>
</g>
</svg>
