<?xml version="1.0" standalone="no"?>
<!DOCTYPE svg PUBLIC "-//W3C//DTD SVG 20010904//EN"
 "http://www.w3.org/TR/2001/REC-SVG-20010904/DTD/svg10.dtd">
<svg version="1.0" xmlns="http://www.w3.org/2000/svg"
 width="360.000000pt" height="360.000000pt" viewBox="0 0 360.000000 360.000000"
 preserveAspectRatio="xMidYMid meet">
<metadata>
Created by potrace 1.13, written by Peter Selinger 2001-2015
</metadata>
<g transform="translate(0.000000,360.000000) scale(0.100000,-0.100000)"
fill="#000000" stroke="none">
<path d="M952 1569 c-31 -12 -23 -33 14 -37 16 -1 49 -7 74 -13 25 -6 90 -17
145 -24 133 -19 141 -21 172 -44 14 -12 23 -21 19 -21 -3 0 2 -9 11 -19 26
-31 65 -164 50 -173 -21 -14 -37 -9 -37 12 0 11 -11 27 -25 36 -14 9 -25 21
-25 26 0 23 -66 64 -124 77 -18 4 -36 18 -46 36 -20 37 -54 44 -70 15 -9 -16
-8 -25 0 -35 10 -11 6 -16 -17 -21 -41 -10 -94 -46 -132 -90 -31 -35 -33 -41
-28 -87 7 -58 27 -91 68 -116 41 -25 139 -45 193 -39 63 7 157 55 186 94 18
24 33 34 54 34 25 0 27 -3 22 -24 -3 -13 0 -41 8 -62 7 -22 17 -79 21 -129 4
-49 9 -106 11 -125 1 -19 3 -61 3 -92 1 -73 17 -90 74 -82 23 4 60 15 82 25
58 25 72 28 175 38 85 8 97 7 120 -10 25 -19 27 -19 95 0 39 10 115 35 170 56
116 43 188 64 207 61 7 -1 34 -8 61 -16 34 -10 46 -19 42 -29 -16 -41 -25
-105 -16 -114 15 -15 30 1 41 46 6 23 16 53 22 67 18 38 19 70 2 70 -8 0 -14
4 -14 10 0 5 16 9 35 8 l35 -1 -2 -51 c-4 -71 20 -73 50 -4 43 101 19 146 -68
127 -25 -6 -72 -14 -105 -19 -73 -10 -149 -31 -196 -54 -19 -9 -65 -25 -103
-36 -37 -10 -74 -24 -82 -31 -11 -9 -21 -5 -46 20 l-32 31 55 55 c83 86 300
245 332 245 18 0 33 59 23 85 -11 30 -65 43 -160 39 -236 -11 -504 -25 -531
-28 -85 -12 -257 -18 -252 -9 7 10 -11 74 -37 136 -9 20 -14 37 -11 37 3 0 -6
23 -20 50 -36 72 -65 86 -193 95 -169 12 -275 13 -300 4z m276 -255 c44 -5 59
-10 55 -20 -3 -7 7 -24 21 -37 38 -36 33 -61 -18 -96 -58 -40 -134 -50 -204
-27 -58 20 -69 31 -78 75 -6 27 -2 36 30 65 47 45 80 52 194 40z m1112 -104
c0 -13 -72 -77 -149 -133 -105 -77 -183 -156 -223 -225 l-26 -47 -114 -11
c-62 -7 -144 -20 -181 -30 -81 -22 -86 -18 -88 66 -1 30 -3 64 -4 75 -2 11 -8
70 -15 130 -8 71 -18 116 -28 128 -14 16 -11 17 59 17 41 0 115 5 164 11 158
20 605 34 605 19z"/>
</g>
</svg>
