<?xml version="1.0" standalone="no"?>
<!DOCTYPE svg PUBLIC "-//W3C//DTD SVG 20010904//EN" "http://www.w3.org/TR/2001/REC-SVG-20010904/DTD/svg10.dtd">
<svg xmlns="http://www.w3.org/2000/svg" version="1.0" width="360.000000pt" height="360.000000pt" viewBox="0 0 360.000000 360.000000" preserveAspectRatio="xMidYMid meet">

<g transform="translate(0.000000,360.000000) scale(0.100000,-0.100000)" fill="#000000" stroke="none">
<path d="M2820 1418 c-41 -4 -120 -12 -175 -17 -148 -14 -204 -24 -355 -61 -25 -6 -63 -16 -85 -21 -86 -20 -171 -42 -190 -49 -11 -5 -36 -14 -55 -21 -19 -8 -41 -12 -48 -11 -7 2 -25 -6 -41 -18 -16 -11 -34 -20 -39 -20 -13 0 -301 -98 -392 -133 -36 -14 -94 -43 -130 -66 -36 -23 -71 -44 -79 -48 -7 -3 -36 -21 -63 -40 -28 -18 -54 -33 -59 -33 -6 0 -22 -8 -37 -18 -121 -81 -152 -100 -157 -92 -7 11 -31 3 -67 -22 l-26 -18 -12 36 c-21 61 -64 101 -126 115 -46 10 -53 15 -48 31 8 25 -21 68 -46 68 -25 0 -43 -35 -36 -66 5 -20 2 -24 -16 -25 -92 -5 -129 -20 -177 -74 -51 -59 -42 -142 24 -197 49 -41 172 -61 241 -39 16 5 50 12 75 16 33 4 58 16 87 41 44 37 98 48 126 24 9 -7 31 -10 53 -8 21 3 49 1 63 -5 14 -5 50 -11 80 -12 90 -4 468 -34 571 -45 96 -11 468 -11 694 0 120 5 120 5 120 30 l0 25 -145 -2 c-457 -8 -764 1 -968 27 -40 6 -123 13 -185 16 -61 4 -123 11 -137 17 -22 8 -16 11 50 23 41 7 142 16 225 19 255 10 1024 14 1054 5 33 -9 61 4 61 29 0 40 -21 44 -202 37 -166 -7 -469 -10 -553 -6 -22 1 -128 -1 -235 -5 -249 -8 -360 -11 -360 -8 0 2 28 17 62 34 35 17 107 60 161 95 54 35 100 64 103 64 3 0 20 6 37 14 70 31 379 136 399 136 4 0 37 14 73 30 36 17 87 35 113 41 26 5 94 23 152 39 168 47 310 78 385 85 125 11 154 14 178 20 l23 6 -13 -88 c-8 -56 -12 -169 -10 -317 3 -253 0 -244 70 -245 15 -1 28 -5 28 -11 1 -5 3 -14 4 -20 1 -5 3 -14 4 -20 2 -19 61 -40 138 -49 43 -5 86 -12 95 -16 19 -7 38 20 38 55 0 30 -41 42 -122 34 -49 -5 -68 -3 -68 5 0 6 14 14 31 18 17 3 37 16 46 29 23 35 2 57 -50 52 l-40 -4 8 171 c13 327 12 396 -10 432 -10 18 -24 34 -29 35 -6 2 -45 0 -86 -4z m64 -83 c3 -8 0 -136 -6 -284 -9 -197 -15 -268 -24 -264 -17 6 -27 243 -18 418 6 129 9 145 24 145 10 0 20 -7 24 -15z m-2188 -535 c24 -16 35 -31 40 -57 13 -68 -21 -90 -157 -98 -79 -5 -99 -4 -129 12 -50 26 -60 62 -30 106 34 49 70 63 164 60 58 -2 87 -8 112 -23z"/>
</g>
</svg>
