<?xml version="1.0" standalone="no"?>
<!DOCTYPE svg PUBLIC "-//W3C//DTD SVG 20010904//EN" "http://www.w3.org/TR/2001/REC-SVG-20010904/DTD/svg10.dtd">
<svg xmlns="http://www.w3.org/2000/svg" version="1.0" width="360.000000pt" height="360.000000pt" viewBox="0 0 360.000000 360.000000" preserveAspectRatio="xMidYMid meet">

<g transform="translate(0.000000,360.000000) scale(0.100000,-0.100000)" fill="#000000" stroke="none">
<path d="M1376 1755 c-7 -18 9 -55 24 -55 6 0 10 -7 10 -15 0 -17 -31 -20 -47 -4 -19 19 -58 6 -61 -19 -6 -38 25 -64 73 -60 l40 3 8 -95 c8 -91 5 -124 -24 -250 -6 -25 -13 -62 -16 -83 -3 -20 -9 -40 -14 -43 -5 -3 -9 -16 -9 -29 0 -13 -4 -27 -10 -30 -5 -3 -10 -19 -10 -35 0 -16 -4 -32 -10 -35 -5 -3 -10 -16 -10 -29 0 -26 -17 -46 -42 -46 -12 0 -21 13 -29 43 -26 98 -121 217 -172 217 -20 0 -21 10 -5 45 10 21 9 29 -5 42 -16 16 -18 16 -32 -2 -8 -11 -15 -30 -15 -42 0 -22 -4 -23 -73 -23 -61 0 -77 -3 -92 -20 -10 -11 -23 -20 -30 -20 -19 0 -85 -104 -85 -133 0 -37 37 -112 71 -146 29 -30 108 -71 135 -71 8 0 24 -5 34 -10 13 -7 41 -6 90 2 55 9 81 20 119 49 l50 38 13 -29 c11 -26 18 -29 73 -34 158 -14 181 -18 200 -26 11 -6 115 -12 230 -15 116 -3 288 -7 384 -10 115 -4 178 -2 185 5 5 5 38 10 72 10 35 0 66 5 69 10 3 6 17 10 31 10 13 0 24 5 24 10 0 6 7 10 15 10 26 0 104 46 123 71 50 69 58 145 19 189 -45 51 -149 65 -212 30 -20 -11 -44 -20 -53 -20 -10 0 -22 -4 -27 -9 -6 -5 -28 -11 -50 -15 -22 -3 -67 -10 -100 -16 -33 -6 -89 -13 -125 -16 -36 -3 -74 -9 -85 -14 -30 -13 -98 -21 -226 -26 l-116 -5 -7 28 c-4 15 -11 60 -16 98 -5 39 -14 97 -20 130 -6 33 -15 87 -20 120 -5 33 -15 89 -21 125 -6 36 -11 78 -11 94 2 42 -23 66 -68 66 -46 0 -63 15 -47 41 18 30 -3 53 -50 57 -30 2 -42 -1 -47 -13z m144 -170 c0 -8 -4 -15 -10 -15 -5 0 -10 7 -10 15 0 8 5 15 10 15 6 0 10 -7 10 -15z m-20 -154 c0 -11 5 -23 10 -26 6 -3 10 -15 10 -26 0 -10 5 -28 10 -39 6 -11 14 -29 20 -39 8 -16 -4 -39 -61 -125 -39 -58 -75 -106 -80 -106 -12 0 -12 0 11 48 11 22 20 54 20 71 0 16 9 50 20 76 14 32 20 69 20 116 0 39 4 69 10 69 6 0 10 -9 10 -19z m88 -243 c7 -7 12 -34 12 -62 0 -63 19 -177 33 -194 11 -14 19 -14 197 8 47 6 110 13 140 16 30 3 59 10 64 15 6 5 36 9 67 9 32 0 61 5 64 10 3 6 30 10 60 10 30 0 57 5 60 10 3 6 24 10 45 10 21 0 42 5 45 10 3 6 19 10 35 10 16 0 32 5 35 10 3 6 16 10 27 10 12 0 37 5 55 12 40 14 75 -2 102 -45 15 -26 14 -28 -19 -62 -19 -19 -39 -35 -46 -35 -6 0 -17 -6 -23 -14 -16 -20 -102 -46 -150 -46 -22 0 -43 -5 -47 -11 -7 -13 -555 -5 -719 11 -55 5 -134 12 -175 15 -41 4 -79 11 -84 16 -8 7 21 54 57 91 19 20 68 85 86 116 59 100 59 100 79 80z m-515 -60 c15 -7 27 -19 27 -26 0 -8 8 -16 18 -19 20 -5 62 -88 62 -124 0 -39 -43 -74 -86 -70 -19 1 -41 -3 -49 -9 -10 -8 -19 -8 -34 -1 -11 6 -33 11 -49 11 -64 0 -138 66 -148 133 -4 25 1 39 22 65 15 17 35 32 45 32 11 0 19 5 19 10 0 14 141 12 173 -2z"/>
</g>
</svg>
