<?xml version="1.0" standalone="no"?>
<!DOCTYPE svg PUBLIC "-//W3C//DTD SVG 20010904//EN" "http://www.w3.org/TR/2001/REC-SVG-20010904/DTD/svg10.dtd">
<svg xmlns="http://www.w3.org/2000/svg" version="1.0" width="360.000000pt" height="360.000000pt" viewBox="0 0 360.000000 360.000000" preserveAspectRatio="xMidYMid meet">

<g transform="translate(0.000000,360.000000) scale(0.100000,-0.100000)" fill="#000000" stroke="none">
<path d="M630 1450 c0 -17 -7 -20 -50 -20 -43 0 -50 -3 -50 -20 0 -16 8 -19 62 -22 59 -3 62 -5 81 -38 10 -19 35 -57 56 -85 52 -71 71 -102 71 -118 0 -7 9 -32 20 -55 11 -22 20 -47 20 -55 0 -7 5 -18 12 -25 9 -9 9 -15 0 -24 -7 -7 -12 -27 -12 -45 0 -18 -5 -54 -12 -80 -6 -27 -15 -65 -20 -85 -5 -21 -13 -38 -18 -38 -15 0 -12 48 3 53 10 3 10 9 0 26 -7 11 -13 27 -13 34 0 28 -31 74 -85 126 -30 29 -55 58 -55 63 0 5 10 18 22 28 23 18 23 18 3 40 -28 31 -69 24 -73 -12 l-3 -28 -91 0 c-87 0 -92 -1 -137 -34 -29 -22 -56 -54 -74 -88 -30 -57 -32 -69 -18 -96 5 -9 15 -32 22 -50 14 -38 71 -100 112 -121 15 -8 27 -18 27 -23 0 -13 248 -10 252 4 5 14 208 12 222 -2 6 -6 52 -10 102 -10 51 0 96 -4 99 -10 3 -5 39 -10 80 -10 41 0 77 -5 80 -10 8 -13 392 -13 400 0 3 6 30 10 60 10 30 0 57 5 60 10 3 6 27 10 52 10 36 0 46 4 50 19 4 17 121 101 141 101 5 0 17 9 27 20 10 11 23 20 30 20 7 0 20 9 30 20 10 11 23 20 28 20 6 0 19 7 29 17 10 9 27 21 37 27 48 28 159 105 165 115 4 6 16 11 27 11 10 0 19 3 19 8 0 8 48 32 65 32 6 0 17 9 25 20 8 11 19 20 25 20 6 0 75 -65 155 -145 80 -80 149 -145 155 -145 6 0 40 -29 75 -65 36 -36 78 -72 94 -80 41 -21 263 -20 290 0 16 12 17 17 6 30 -22 27 -80 49 -93 36 -15 -15 -152 -14 -179 2 -12 6 -47 35 -77 63 -31 29 -83 74 -116 101 -33 28 -114 105 -180 172 -66 66 -125 121 -131 121 -6 0 -19 -9 -29 -20 -10 -11 -23 -20 -30 -20 -6 0 -22 -12 -36 -26 -13 -14 -42 -34 -64 -45 -22 -11 -60 -35 -85 -54 -25 -19 -54 -39 -65 -44 -12 -5 -27 -16 -34 -25 -7 -9 -19 -16 -26 -16 -6 0 -20 -9 -30 -20 -10 -11 -23 -20 -30 -20 -6 0 -22 -12 -36 -26 -13 -14 -40 -33 -59 -41 -19 -9 -43 -23 -52 -31 -47 -39 -112 -62 -179 -62 -37 0 -71 5 -74 10 -3 6 -33 10 -65 10 -32 0 -62 5 -65 10 -4 6 -84 10 -209 10 l-202 0 -35 48 c-20 26 -42 62 -50 80 -8 17 -17 32 -21 32 -15 0 -8 46 10 66 37 41 47 72 32 102 -18 35 -61 82 -75 82 -13 0 -55 42 -55 55 0 5 -29 39 -65 76 -38 39 -65 76 -65 88 0 16 -6 21 -24 21 -14 0 -28 5 -31 10 -3 6 -17 10 -30 10 -13 0 -27 5 -30 10 -3 6 -26 10 -51 10 -37 0 -44 -3 -44 -20z m157 -112 c15 -24 46 -79 68 -123 23 -44 46 -89 52 -100 6 -11 15 -31 21 -45 5 -14 17 -41 26 -62 20 -45 21 -40 -9 -74 -14 -16 -25 -34 -25 -40 0 -7 -7 -14 -15 -18 -12 -4 -14 0 -9 22 3 15 13 40 20 56 8 16 14 35 14 42 0 34 -117 250 -163 300 -41 45 -47 57 -37 69 19 23 27 19 57 -27z m169 -185 c-10 -10 -19 5 -10 18 6 11 8 11 12 0 2 -7 1 -15 -2 -18z m52 -36 c20 -21 22 -67 3 -67 -7 0 -41 70 -41 83 0 14 17 6 38 -16z m-377 -168 c48 -50 75 -94 83 -136 4 -21 -26 -55 -71 -80 -27 -16 -193 -18 -193 -3 0 6 -6 10 -13 10 -16 0 -79 66 -97 103 -10 21 -11 30 -2 39 7 7 12 19 12 27 0 8 17 32 37 53 37 38 38 38 116 38 l79 0 49 -51z m422 -139 c32 -67 42 -80 62 -80 13 0 27 -4 30 -10 4 -6 93 -10 234 -10 197 0 230 -2 242 -16 12 -14 -5 -15 -192 -10 -236 7 -330 14 -344 27 -5 5 -46 9 -91 9 -101 0 -118 13 -74 55 17 16 30 34 30 40 0 7 9 20 20 30 11 10 20 24 20 32 0 35 29 5 63 -67z"/>
</g>
</svg>
