<?xml version="1.0" standalone="no"?>
<!DOCTYPE svg PUBLIC "-//W3C//DTD SVG 20010904//EN" "http://www.w3.org/TR/2001/REC-SVG-20010904/DTD/svg10.dtd">
<svg xmlns="http://www.w3.org/2000/svg" version="1.0" width="360.000000pt" height="360.000000pt" viewBox="0 0 360.000000 360.000000" preserveAspectRatio="xMidYMid meet">

<g transform="translate(0.000000,360.000000) scale(0.100000,-0.100000)" fill="#000000" stroke="none">
<path d="M1247 2987 c-57 -14 -43 -40 28 -52 65 -11 155 -39 155 -48 0 -4 4 -5 10 -2 5 3 7 0 4 -9 -10 -27 150 -326 233 -436 19 -25 80 -121 136 -215 55 -93 115 -193 133 -220 79 -123 131 -215 149 -261 10 -27 38 -83 61 -124 56 -96 61 -149 19 -212 -34 -52 -107 -149 -152 -203 -19 -22 -37 -44 -41 -50 -53 -72 -116 -149 -166 -199 -34 -34 -77 -81 -96 -104 -49 -59 -131 -105 -165 -92 -14 5 -25 17 -25 25 0 53 -63 118 -141 145 -35 13 -36 13 -31 60 4 41 1 50 -16 59 -41 22 -77 -23 -53 -67 15 -29 14 -32 -12 -32 -47 0 -136 -37 -180 -76 -56 -48 -76 -107 -53 -152 40 -77 122 -112 260 -112 110 0 156 12 200 51 80 70 331 75 671 13 176 -32 226 10 177 146 -12 36 -32 81 -42 102 -28 55 -80 215 -80 249 0 20 16 49 55 96 58 72 67 106 28 111 -33 5 -124 -94 -146 -160 l-18 -53 35 -105 c19 -58 51 -142 71 -188 19 -46 35 -92 35 -102 0 -27 -23 -40 -61 -34 -159 24 -207 30 -326 39 -50 3 -104 10 -120 14 l-28 8 81 84 c75 77 109 119 204 249 19 27 74 97 122 156 48 59 94 122 103 140 19 40 23 116 7 122 -7 2 -12 13 -12 24 0 11 -8 32 -18 46 -11 15 -49 84 -85 154 -36 70 -90 162 -119 205 -29 43 -62 96 -73 118 -12 22 -39 67 -61 100 -22 33 -55 87 -74 120 -18 33 -66 107 -105 165 -40 58 -105 165 -145 238 -40 73 -84 147 -98 164 -15 18 -25 41 -24 53 2 12 -3 26 -10 32 -20 16 -159 30 -201 20z m152 -2143 c31 -18 61 -67 61 -98 0 -21 -27 -48 -61 -63 -51 -22 -232 -2 -266 30 -27 24 -32 77 -8 77 9 0 20 11 25 24 12 33 44 49 110 56 62 6 95 0 139 -26z"/>
</g>
</svg>
