<?xml version="1.0" standalone="no"?>
<!DOCTYPE svg PUBLIC "-//W3C//DTD SVG 20010904//EN" "http://www.w3.org/TR/2001/REC-SVG-20010904/DTD/svg10.dtd">
<svg xmlns="http://www.w3.org/2000/svg" version="1.0" width="360.000000pt" height="360.000000pt" viewBox="0 0 360.000000 360.000000" preserveAspectRatio="xMidYMid meet">

<g transform="translate(0.000000,360.000000) scale(0.100000,-0.100000)" fill="#000000" stroke="none">
<path d="M770 1256 c0 -37 -20 -46 -92 -41 -50 3 -69 1 -78 -10 -7 -8 -20 -15 -29 -15 -25 -1 -74 -51 -100 -102 -20 -39 -22 -52 -13 -75 6 -15 13 -40 16 -55 8 -34 90 -116 124 -124 15 -3 34 -9 43 -14 26 -14 178 -15 192 -1 6 6 19 11 28 11 26 0 66 24 105 64 41 42 54 45 54 13 0 -35 18 -47 185 -122 33 -15 96 -45 140 -66 44 -22 86 -39 92 -39 7 0 37 -16 67 -35 30 -19 60 -35 66 -35 5 0 18 -4 28 -9 84 -44 190 -91 202 -91 9 0 20 -4 25 -9 6 -5 33 -11 60 -13 45 -3 50 -1 53 19 2 14 -2 23 -10 23 -7 0 -47 16 -88 36 -41 20 -94 45 -117 55 -91 40 -139 62 -155 70 -10 5 -24 9 -32 9 -7 0 -19 7 -26 15 -7 9 -15 13 -18 11 -2 -3 -22 6 -43 20 -21 13 -47 24 -56 24 -10 0 -29 9 -43 20 -14 11 -33 20 -42 20 -9 0 -20 5 -23 10 -3 6 -15 10 -26 10 -10 0 -19 5 -19 10 0 6 -9 10 -20 10 -11 0 -28 4 -38 9 -9 5 -32 16 -49 23 -39 15 -40 21 -10 37 16 9 72 10 212 5 105 -3 208 -6 230 -5 108 3 265 0 302 -5 39 -6 42 -8 32 -26 -9 -17 -5 -26 23 -57 19 -20 45 -58 58 -86 14 -27 39 -71 57 -97 17 -25 43 -68 58 -96 14 -27 36 -59 50 -72 23 -22 24 -22 48 -4 14 11 40 46 58 79 100 186 191 295 246 295 17 0 35 5 38 10 8 13 105 13 105 0 0 -14 32 -12 53 4 27 20 21 53 -10 63 -41 14 -140 7 -210 -15 -52 -16 -71 -29 -115 -77 -29 -32 -55 -63 -57 -69 -2 -6 -16 -29 -30 -51 -15 -22 -33 -53 -41 -70 -8 -16 -22 -40 -31 -52 -15 -21 -17 -21 -31 -5 -23 26 -111 162 -133 205 -11 21 -37 56 -57 77 -21 22 -38 43 -38 47 0 4 34 41 76 82 41 40 86 91 100 112 13 22 30 39 38 39 7 0 32 -20 55 -45 22 -24 75 -68 117 -97 42 -29 85 -60 96 -67 18 -13 26 -13 70 3 35 12 74 17 141 15 l92 -2 0 29 0 29 -150 3 c-139 2 -151 4 -175 25 -14 13 -38 29 -54 37 -32 16 -86 69 -119 117 -25 37 -61 56 -88 48 -11 -4 -41 -38 -67 -77 -26 -39 -57 -85 -69 -103 -11 -17 -35 -44 -53 -58 l-32 -27 -304 0 c-167 0 -304 2 -304 4 0 10 66 36 92 36 15 0 28 5 28 10 0 6 13 10 29 10 17 0 33 5 36 10 3 6 21 10 40 10 19 0 37 5 40 10 3 6 21 10 40 10 19 0 37 5 40 10 3 6 19 10 34 10 16 0 34 6 40 14 7 8 21 12 31 9 11 -3 31 2 45 11 13 9 38 16 54 16 17 0 46 9 64 19 19 11 45 21 58 23 16 2 24 10 24 23 0 17 -6 20 -50 19 -46 0 -91 -12 -137 -35 -10 -5 -29 -9 -42 -9 -14 0 -28 -4 -31 -10 -3 -5 -19 -10 -35 -10 -16 0 -32 -4 -35 -10 -3 -5 -18 -10 -32 -10 -27 0 -84 -16 -115 -31 -10 -5 -33 -9 -52 -9 -19 0 -38 -4 -41 -10 -3 -5 -17 -10 -30 -10 -13 0 -27 -4 -30 -10 -3 -5 -19 -10 -34 -10 -16 0 -34 -6 -40 -14 -13 -16 -56 -25 -149 -33 -48 -4 -65 -9 -73 -24 -8 -16 -19 -19 -52 -17 -36 3 -42 6 -45 28 -4 28 -114 147 -149 161 -26 10 -29 35 -8 62 19 26 8 47 -26 47 -24 0 -29 -4 -29 -24z m6 -137 c69 -36 154 -115 154 -142 0 -27 -64 -89 -84 -81 -9 3 -34 -1 -56 -10 -49 -20 -89 -20 -127 -2 -15 7 -41 20 -58 27 -34 17 -75 88 -75 132 0 19 12 39 41 67 38 36 46 40 94 40 39 0 67 -8 111 -31z"/>
</g>
</svg>
