<?xml version="1.0" standalone="no"?>
<!DOCTYPE svg PUBLIC "-//W3C//DTD SVG 20010904//EN" "http://www.w3.org/TR/2001/REC-SVG-20010904/DTD/svg10.dtd">
<svg xmlns="http://www.w3.org/2000/svg" version="1.0" width="360.000000pt" height="360.000000pt" viewBox="0 0 360.000000 360.000000" preserveAspectRatio="xMidYMid meet">

<g transform="translate(0.000000,360.000000) scale(0.100000,-0.100000)" fill="#000000" stroke="none">
<path d="M892 1505 c-6 -11 -6 -30 -1 -49 23 -83 46 -353 35 -411 -5 -25 -12 -35 -26 -35 -10 0 -21 -6 -24 -12 -3 -7 -3 3 0 24 8 48 -16 96 -74 150 -31 28 -52 59 -62 88 -15 46 -33 58 -60 40 -12 -7 -13 -15 -3 -40 l11 -30 -53 1 c-65 2 -106 -19 -153 -81 -29 -38 -32 -48 -27 -84 17 -104 74 -159 182 -177 58 -9 80 -9 118 2 45 13 105 58 105 79 0 5 19 3 41 -5 23 -8 51 -15 63 -15 16 0 27 -11 39 -35 9 -20 17 -40 17 -44 0 -8 88 -198 144 -309 29 -58 57 -75 109 -67 23 4 53 13 67 21 38 21 148 64 162 64 7 0 26 7 42 15 23 12 142 45 162 45 2 0 4 -13 4 -28 0 -39 31 -66 65 -58 46 12 106 56 189 139 45 44 113 104 151 133 39 30 89 69 112 87 41 33 43 34 100 25 32 -5 101 -11 153 -13 52 -3 136 -10 185 -16 50 -6 108 -12 130 -15 22 -2 78 -11 125 -19 47 -8 96 -17 110 -20 14 -2 67 -7 118 -11 87 -6 96 -9 127 -38 18 -17 40 -45 49 -63 17 -34 54 -73 68 -73 20 0 18 33 -7 97 -32 82 -75 127 -114 120 -14 -3 -33 -2 -41 3 -8 4 -61 10 -117 14 -56 4 -114 11 -130 16 -15 5 -46 11 -68 14 -130 15 -214 29 -240 38 -17 6 -78 10 -139 9 -77 -2 -106 0 -102 8 4 6 17 11 29 12 32 0 92 23 90 32 -2 5 -40 11 -85 12 -46 2 -105 7 -133 11 -45 6 -51 4 -70 -20 l-20 -26 -115 19 c-63 11 -140 22 -172 24 -66 6 -85 15 -102 48 -10 21 -18 24 -61 23 -44 -1 -96 -9 -185 -29 -14 -3 -61 -10 -105 -15 -44 -5 -116 -14 -160 -20 -44 -6 -118 -15 -165 -20 -47 -5 -104 -13 -127 -16 -36 -6 -43 -4 -43 10 0 9 -6 16 -12 16 -10 0 -13 29 -14 108 -1 111 -12 188 -41 282 -20 69 -37 90 -51 65z m-143 -361 c46 -19 60 -41 61 -92 0 -35 -6 -49 -31 -74 -28 -29 -33 -30 -87 -25 -91 9 -125 23 -151 62 -30 45 -23 85 21 126 31 29 36 30 93 23 33 -3 75 -13 94 -20z m1041 -95 c0 -15 -24 -132 -44 -214 -2 -5 -6 -32 -10 -60 -13 -85 -13 -85 -62 -85 -42 0 -188 -43 -209 -61 -5 -5 -17 -9 -27 -9 -10 0 -40 -11 -67 -24 -27 -13 -65 -26 -83 -30 -34 -6 -34 -6 -80 76 -25 46 -62 117 -83 158 -20 41 -50 93 -66 115 -21 28 -26 41 -17 46 18 9 95 22 238 39 138 16 391 51 428 59 62 13 82 11 82 -10z m225 -59 c50 -5 105 -14 124 -19 19 -6 38 -8 42 -5 13 8 11 -6 -3 -20 -7 -6 -60 -50 -118 -96 -58 -46 -132 -112 -166 -147 -56 -58 -101 -83 -88 -49 3 7 -2 16 -11 20 -11 4 -14 13 -10 25 3 10 8 35 10 54 3 19 16 85 31 147 l26 111 37 -5 c20 -4 77 -11 126 -16z"/>
</g>
</svg>
