<?xml version="1.0" standalone="no"?>
<!DOCTYPE svg PUBLIC "-//W3C//DTD SVG 20010904//EN" "http://www.w3.org/TR/2001/REC-SVG-20010904/DTD/svg10.dtd">
<svg xmlns="http://www.w3.org/2000/svg" version="1.0" width="360.000000pt" height="360.000000pt" viewBox="0 0 360.000000 360.000000" preserveAspectRatio="xMidYMid meet">

<g transform="translate(0.000000,360.000000) scale(0.100000,-0.100000)" fill="#000000" stroke="none">
<path d="M2505 1914 c-126 -17 -184 -28 -210 -39 -140 -62 -225 -110 -347 -196 -43 -30 -103 -71 -135 -91 -67 -43 -374 -208 -387 -208 -12 0 -205 -84 -322 -141 -56 -27 -105 -49 -109 -49 -3 0 -54 -22 -112 -50 -58 -27 -109 -50 -113 -50 -4 0 -32 -11 -62 -25 -29 -13 -62 -26 -73 -28 -11 -1 -25 -6 -32 -10 -6 -4 -46 -19 -87 -32 -77 -25 -129 -61 -107 -74 8 -5 8 -22 1 -60 -13 -67 -2 -87 47 -94 73 -9 116 52 53 76 -23 9 -30 17 -30 39 0 19 5 28 16 28 9 0 46 14 82 31 37 17 162 73 277 124 116 51 248 111 295 133 47 22 130 59 185 82 141 58 257 111 275 125 8 6 44 26 80 45 105 54 117 62 296 181 185 125 323 192 427 208 113 18 213 20 242 5 15 -8 39 -14 52 -14 64 0 244 -152 259 -218 3 -15 22 -70 42 -122 34 -88 37 -103 37 -203 0 -125 0 -125 -113 -172 l-65 -26 -26 24 c-37 34 -77 47 -153 50 l-67 2 -6 38 c-7 38 -24 47 -44 23 -10 -12 -9 -20 4 -40 16 -25 16 -25 -27 -45 -102 -48 -129 -79 -135 -160 -3 -31 -8 -60 -13 -64 -8 -9 -128 -30 -265 -47 -44 -6 -93 -13 -110 -17 -16 -3 -52 -5 -80 -4 -27 1 -73 -3 -101 -8 -57 -11 -315 -21 -669 -26 -294 -4 -342 -12 -302 -53 15 -14 60 -14 474 -2 252 7 476 14 498 16 22 2 60 4 85 4 25 1 83 7 130 15 47 7 114 16 150 19 36 3 83 11 105 17 127 33 119 33 161 -6 71 -65 175 -78 309 -40 52 15 107 62 119 101 5 16 12 20 26 17 10 -3 32 4 49 16 16 12 34 21 39 21 6 0 24 14 41 30 27 28 49 89 57 165 1 11 5 45 8 75 4 30 8 70 11 87 2 18 -1 47 -6 65 -6 18 -12 40 -14 49 -2 9 -12 38 -23 65 -10 27 -25 67 -32 89 -18 57 -89 162 -146 216 -55 53 -171 117 -224 124 -67 9 -155 13 -185 9z m267 -830 l31 -16 -29 -19 c-16 -11 -47 -24 -69 -30 -22 -5 -74 -23 -115 -39 -127 -49 -124 -49 -117 -4 8 48 33 82 77 105 45 25 177 26 222 3z m219 -51 c-11 -22 -66 -55 -75 -46 -16 17 -4 41 27 51 50 16 59 15 48 -5z m-141 -76 c0 -36 -6 -48 -32 -73 -60 -56 -193 -72 -268 -34 -40 20 -60 40 -40 40 6 0 30 9 53 21 35 17 256 87 280 89 4 0 7 -19 7 -43z"/>
</g>
</svg>
