<?xml version="1.0" standalone="no"?>
<!DOCTYPE svg PUBLIC "-//W3C//DTD SVG 20010904//EN" "http://www.w3.org/TR/2001/REC-SVG-20010904/DTD/svg10.dtd">
<svg xmlns="http://www.w3.org/2000/svg" version="1.0" width="360.000000pt" height="360.000000pt" viewBox="0 0 360.000000 360.000000" preserveAspectRatio="xMidYMid meet">

<g transform="translate(0.000000,360.000000) scale(0.100000,-0.100000)" fill="#000000" stroke="none">
<path d="M2162 1949 c-13 -5 -34 -21 -47 -36 -61 -73 -133 -143 -146 -143 -8 -1 -27 -21 -42 -45 -16 -25 -32 -45 -36 -45 -3 0 -22 -14 -40 -31 -44 -40 -269 -220 -301 -241 -14 -9 -43 -32 -65 -53 -22 -20 -56 -44 -75 -55 -19 -10 -55 -36 -80 -58 -25 -21 -64 -52 -87 -68 -55 -39 -181 -135 -268 -205 -38 -31 -103 -78 -143 -103 -40 -26 -75 -52 -78 -59 -2 -7 2 -30 11 -50 20 -48 19 -64 -5 -70 -30 -8 -24 -27 11 -40 26 -10 30 -16 25 -39 -9 -43 25 -69 72 -56 41 11 82 44 82 66 0 10 -9 12 -39 7 -32 -5 -39 -3 -43 12 -5 17 7 18 211 16 119 -1 254 -3 301 -4 47 -1 135 1 195 4 304 17 486 20 795 15 42 -1 85 4 97 10 28 16 93 148 133 273 30 89 31 102 31 259 0 118 -5 182 -16 225 -15 55 -76 160 -178 304 -40 57 -156 181 -170 181 -6 0 -18 6 -26 14 -23 20 -53 26 -79 15z m68 -90 c104 -64 305 -347 325 -459 18 -98 21 -134 18 -237 -3 -113 -13 -153 -85 -346 -19 -49 -53 -87 -80 -89 -13 -1 -32 -2 -43 -3 -11 -1 -28 5 -37 13 -9 8 -41 15 -70 17 -73 3 -100 18 -92 51 9 37 -15 111 -53 161 -37 49 -39 59 -17 91 30 44 -11 59 -45 16 -18 -23 -24 -25 -50 -16 -16 6 -32 8 -34 5 -3 -2 -17 3 -31 12 -19 13 -36 15 -63 10 -88 -16 -140 -95 -128 -194 8 -67 24 -100 65 -134 33 -29 36 -33 18 -35 -42 -4 -392 -14 -433 -13 -27 1 -163 2 -300 3 l-251 0 -22 34 -22 34 93 62 c50 34 112 81 137 104 25 23 49 42 53 43 7 0 87 62 117 90 19 18 226 171 265 196 47 29 114 88 110 95 -2 4 2 7 10 7 10 0 11 -5 5 -18 -12 -21 -140 -139 -151 -139 -5 0 -8 -45 -7 -99 2 -111 13 -140 47 -121 17 8 21 20 21 55 0 25 5 45 10 45 6 0 10 -4 10 -9 0 -9 105 -63 148 -76 12 -3 22 -11 22 -16 0 -15 47 -10 61 7 20 25 -1 46 -72 72 -78 29 -179 75 -179 82 0 3 26 35 58 71 31 35 75 89 97 119 35 48 208 225 404 413 34 32 64 64 68 71 8 13 53 46 63 46 3 0 21 -10 40 -21z m-337 -853 c4 -10 20 -14 51 -13 39 2 50 -3 81 -33 42 -40 75 -99 75 -132 -1 -101 -185 -101 -262 0 -40 51 -40 122 1 163 33 32 46 36 54 15z"/>
</g>
</svg>
