<?xml version="1.0" standalone="no"?>
<!DOCTYPE svg PUBLIC "-//W3C//DTD SVG 20010904//EN" "http://www.w3.org/TR/2001/REC-SVG-20010904/DTD/svg10.dtd">
<svg xmlns="http://www.w3.org/2000/svg" version="1.0" width="360.000000pt" height="360.000000pt" viewBox="0 0 360.000000 360.000000" preserveAspectRatio="xMidYMid meet">

<g transform="translate(0.000000,360.000000) scale(0.100000,-0.100000)" fill="#000000" stroke="none">
<path d="M843 2600 c-37 -8 -114 -52 -133 -74 -7 -9 -18 -16 -25 -16 -24 0 -37 -27 -25 -49 8 -16 18 -20 44 -16 34 4 34 4 25 -28 -5 -17 -7 -110 -4 -207 4 -187 7 -463 6 -597 l-1 -83 -27 11 c-40 15 -122 1 -159 -27 -25 -19 -34 -38 -48 -95 -11 -46 -15 -86 -10 -115 8 -53 49 -118 100 -158 40 -32 116 -50 133 -33 14 14 17 9 25 -43 l7 -45 -27 38 c-34 47 -56 49 -48 5 20 -108 16 -101 89 -150 39 -26 106 -66 151 -89 75 -38 89 -42 205 -52 130 -11 243 -2 332 27 100 32 149 45 262 70 66 15 143 33 170 41 120 32 234 48 273 37 20 -6 64 -14 97 -18 33 -3 95 -19 138 -35 43 -15 99 -31 125 -35 26 -4 58 -11 72 -17 53 -21 317 -73 415 -82 153 -14 188 -11 228 19 19 15 42 38 51 51 9 13 24 26 34 29 29 10 46 49 33 75 -7 11 -17 21 -24 21 -7 0 -37 -25 -67 -55 -83 -84 -91 -87 -239 -75 -69 5 -169 19 -221 30 -52 12 -108 23 -123 26 -16 3 -99 26 -185 51 -87 25 -179 49 -207 54 -27 5 -67 16 -88 25 -31 14 -46 15 -84 7 -26 -6 -87 -9 -137 -7 -135 6 -157 5 -207 -7 -26 -6 -69 -8 -95 -5 -27 2 -57 5 -66 5 -17 1 -115 192 -152 296 -49 139 -88 243 -100 270 -36 79 -101 251 -121 323 -17 59 -95 278 -125 352 -23 58 -38 102 -45 135 -3 11 -11 34 -19 50 -32 69 -46 107 -46 125 0 42 -72 61 -157 40z m96 -110 c17 -28 31 -54 31 -59 0 -5 6 -14 14 -20 17 -15 46 -91 180 -486 57 -165 110 -313 118 -330 8 -16 23 -55 33 -85 9 -30 25 -73 35 -95 9 -22 23 -58 30 -80 13 -42 113 -276 131 -309 11 -18 8 -19 -72 -13 -46 4 -207 7 -356 7 l-273 0 0 75 c0 54 5 85 19 112 11 21 23 55 27 76 4 27 14 42 30 49 13 6 24 16 24 23 0 17 -22 35 -42 35 -11 0 -23 12 -30 28 -7 15 -18 34 -25 43 -10 12 -14 101 -18 390 -3 206 -7 388 -10 404 -2 17 0 68 6 115 6 47 11 96 12 110 3 35 27 51 94 59 6 0 25 -22 42 -49z m-235 -1032 c23 -21 25 -31 30 -140 5 -108 4 -118 -14 -128 -72 -39 -171 46 -169 145 0 66 20 108 59 127 46 24 64 23 94 -4z m183 -483 c40 -10 144 -16 333 -20 319 -7 319 -7 331 -26 13 -21 11 -26 -13 -32 -13 -3 -56 -15 -97 -26 -132 -39 -237 -44 -367 -20 -49 10 -108 27 -130 39 -81 45 -124 75 -124 88 0 15 -4 15 67 -3z m763 -39 c0 -3 -4 -8 -10 -11 -5 -3 -10 -1 -10 4 0 6 5 11 10 11 6 0 10 -2 10 -4z"/>
</g>
</svg>
