<?xml version="1.0" standalone="no"?>
<!DOCTYPE svg PUBLIC "-//W3C//DTD SVG 20010904//EN" "http://www.w3.org/TR/2001/REC-SVG-20010904/DTD/svg10.dtd">
<svg xmlns="http://www.w3.org/2000/svg" version="1.0" width="360.000000pt" height="360.000000pt" viewBox="0 0 360.000000 360.000000" preserveAspectRatio="xMidYMid meet">

<g transform="translate(0.000000,360.000000) scale(0.100000,-0.100000)" fill="#000000" stroke="none">
<path d="M2531 1441 c-12 -28 -62 -80 -112 -117 -15 -10 -89 -73 -165 -139 -159 -138 -218 -184 -305 -239 l-63 -40 -135 0 c-341 -2 -659 6 -696 16 -38 11 -85 38 -112 64 -7 7 -16 14 -20 16 -5 1 -17 20 -27 41 -11 21 -33 45 -50 54 -16 8 -34 19 -40 24 -6 6 -19 16 -30 23 -17 11 -17 16 -5 49 10 29 10 38 0 51 -29 35 -61 14 -61 -40 0 -24 -2 -25 -45 -18 -27 4 -50 2 -58 -4 -6 -6 -28 -14 -47 -19 -25 -7 -43 -22 -65 -53 -58 -87 -39 -223 38 -262 87 -45 107 -49 191 -38 108 15 161 41 176 86 13 40 20 42 46 13 25 -28 91 -59 128 -59 16 0 34 -7 40 -15 6 -8 31 -18 56 -21 25 -3 56 -9 70 -14 14 -5 52 -14 85 -20 33 -6 76 -17 95 -25 45 -17 166 -38 365 -65 88 -11 176 -25 196 -30 20 -6 47 -10 60 -10 13 0 56 -11 94 -25 39 -13 71 -25 73 -25 1 0 2 9 2 20 0 10 -16 35 -36 54 -35 34 -47 38 -159 51 -27 3 -66 10 -85 14 -19 5 -51 9 -70 10 -34 1 -92 8 -250 31 -87 13 -221 47 -234 60 -4 4 104 7 240 7 268 -2 311 1 346 27 13 9 34 24 48 33 54 37 147 109 195 150 70 60 153 130 225 188 33 28 81 69 107 93 25 23 51 42 58 42 18 0 40 -29 66 -85 12 -27 33 -64 46 -81 13 -17 23 -34 23 -39 0 -10 67 -103 120 -165 16 -19 30 -38 30 -42 0 -7 7 -15 94 -97 l47 -44 52 12 c29 6 91 12 140 12 77 1 87 4 87 20 0 10 -11 26 -25 35 -21 13 -43 15 -139 10 l-114 -6 -79 97 c-109 135 -184 245 -228 333 -61 122 -69 130 -124 130 -44 0 -50 -3 -60 -29z m-1794 -352 c63 -27 91 -54 104 -102 18 -68 -17 -99 -136 -116 -42 -7 -56 -4 -98 18 -86 44 -102 137 -35 193 41 34 96 37 165 7z"/>
</g>
</svg>
