<?xml version="1.0" standalone="no"?>
<!DOCTYPE svg PUBLIC "-//W3C//DTD SVG 20010904//EN" "http://www.w3.org/TR/2001/REC-SVG-20010904/DTD/svg10.dtd">
<svg xmlns="http://www.w3.org/2000/svg" version="1.0" width="360.000000pt" height="360.000000pt" viewBox="0 0 360.000000 360.000000" preserveAspectRatio="xMidYMid meet">

<g transform="translate(0.000000,360.000000) scale(0.100000,-0.100000)" fill="#000000" stroke="none">
<path d="M53 1433 c-28 -10 -9 -20 70 -38 81 -18 126 -40 127 -61 0 -22 252 -255 352 -326 26 -18 82 -60 125 -94 201 -155 420 -253 603 -268 94 -8 185 -17 260 -26 176 -21 611 4 896 52 126 21 133 21 168 4 43 -20 127 -20 201 -1 34 9 146 15 350 19 165 3 315 8 333 12 38 8 45 39 9 47 -22 5 -242 10 -454 10 -104 0 -130 6 -103 22 6 3 10 16 10 28 0 14 3 18 8 10 8 -12 23 -11 132 7 30 6 82 12 115 16 75 7 248 59 270 80 34 34 -1 37 -102 9 -102 -29 -242 -52 -354 -58 l-66 -5 -17 48 c-10 27 -26 56 -37 66 -28 25 -92 32 -176 17 -76 -12 -102 -24 -146 -63 -36 -32 -71 -139 -57 -176 6 -14 10 -27 10 -28 0 -2 -33 -6 -73 -10 -39 -3 -85 -8 -102 -11 -16 -3 -77 -10 -135 -15 -58 -6 -130 -14 -160 -19 -78 -12 -420 -14 -510 -2 -41 6 -118 13 -170 15 -168 10 -282 40 -413 109 -151 81 -165 89 -304 194 -178 134 -258 201 -365 304 -109 105 -107 104 -149 117 -41 12 -129 21 -146 15z m2868 -515 c31 -50 21 -104 -27 -146 -38 -33 -38 -33 -133 -30 -89 3 -95 5 -114 30 -23 30 -19 57 15 109 29 42 97 68 181 69 54 0 58 -2 78 -32z"/>
</g>
</svg>
