<?xml version="1.0" standalone="no"?>
<!DOCTYPE svg PUBLIC "-//W3C//DTD SVG 20010904//EN" "http://www.w3.org/TR/2001/REC-SVG-20010904/DTD/svg10.dtd">
<svg xmlns="http://www.w3.org/2000/svg" version="1.0" width="360.000000pt" height="360.000000pt" viewBox="0 0 360.000000 360.000000" preserveAspectRatio="xMidYMid meet">

<g transform="translate(0.000000,360.000000) scale(0.100000,-0.100000)" fill="#000000" stroke="none">
<path d="M3554 1270 c-5 -5 -49 -17 -98 -25 -49 -9 -113 -27 -142 -40 -53 -24 -239 -75 -275 -75 -10 0 -29 11 -44 24 -47 43 -153 48 -231 10 -78 -38 -132 -112 -140 -191 l-7 -60 -56 -23 c-31 -13 -69 -29 -86 -36 -58 -26 -118 -44 -145 -44 -15 0 -45 -6 -67 -14 -22 -8 -69 -17 -104 -20 -35 -3 -118 -10 -184 -16 -131 -12 -430 -15 -491 -5 -39 6 -87 17 -214 50 -36 10 -101 24 -145 31 -44 7 -100 18 -125 24 -25 5 -63 12 -85 15 -22 4 -80 15 -130 25 -49 10 -130 26 -180 35 -49 9 -154 34 -232 56 -157 43 -179 46 -238 25 -22 -8 -57 -17 -77 -21 -46 -7 -66 -36 -42 -59 14 -14 19 -14 52 0 44 20 129 44 154 44 10 0 52 -12 95 -26 127 -41 253 -74 338 -88 177 -29 395 -71 395 -76 0 -3 -53 2 -117 12 -65 10 -158 22 -208 27 -49 6 -164 22 -255 36 -167 25 -177 27 -240 39 -26 5 -53 0 -105 -19 -74 -28 -105 -49 -105 -72 0 -16 24 -12 95 16 50 19 53 19 190 1 77 -10 169 -23 205 -29 36 -7 137 -21 225 -32 88 -11 194 -24 235 -30 94 -12 256 -28 335 -34 33 -2 103 -8 155 -14 52 -5 138 -7 190 -5 52 3 142 7 200 9 58 1 141 8 185 13 44 6 98 10 120 9 33 -1 180 19 260 36 11 3 40 8 65 12 25 4 59 15 76 25 52 29 110 35 156 14 38 -17 42 -17 126 4 104 25 189 38 337 52 61 6 117 13 125 15 12 3 138 19 250 31 14 1 28 3 33 3 16 2 6 30 -14 36 -23 8 -190 -2 -264 -15 -27 -5 -81 -12 -120 -15 -38 -3 -98 -9 -132 -14 -67 -8 -74 -4 -44 23 12 11 27 15 44 11 35 -9 43 11 12 31 -19 13 -25 25 -25 54 0 33 4 40 34 54 18 8 63 22 98 31 36 8 97 28 135 45 39 16 112 38 163 49 99 22 120 33 120 62 0 20 -20 25 -36 9z m-595 -166 c8 -7 16 -37 19 -67 4 -52 3 -54 -45 -107 l-49 -53 -86 -5 c-84 -4 -86 -4 -103 22 -24 35 -15 104 18 155 28 42 105 79 125 59 7 -7 18 -5 33 6 25 17 64 13 88 -10z"/>
</g>
</svg>
