<?xml version="1.0" standalone="no"?>
<!DOCTYPE svg PUBLIC "-//W3C//DTD SVG 20010904//EN" "http://www.w3.org/TR/2001/REC-SVG-20010904/DTD/svg10.dtd">
<svg xmlns="http://www.w3.org/2000/svg" version="1.0" width="360.000000pt" height="360.000000pt" viewBox="0 0 360.000000 360.000000" preserveAspectRatio="xMidYMid meet">

<g transform="translate(0.000000,360.000000) scale(0.100000,-0.100000)" fill="#000000" stroke="none">
<path d="M3157 1656 c-60 -32 -95 -73 -126 -145 -30 -72 -34 -174 -8 -213 15 -21 16 -31 7 -47 -12 -23 -25 -27 -35 -11 -13 21 -44 8 -101 -45 -32 -30 -87 -76 -121 -102 -62 -48 -83 -84 -63 -108 14 -17 -105 -59 -238 -84 -53 -11 -110 -24 -127 -30 -114 -40 -493 -92 -770 -106 -134 -6 -552 -8 -581 -1 -12 2 -84 9 -160 15 -143 12 -240 29 -354 63 -61 18 -66 18 -75 2 -10 -18 -27 -34 -123 -120 -29 -26 -51 -49 -49 -51 2 -2 21 6 43 17 21 11 68 34 104 51 69 32 69 32 205 3 11 -2 83 -11 160 -19 77 -9 154 -18 170 -20 102 -15 720 -1 895 19 74 9 155 19 180 21 71 8 108 14 225 40 61 13 135 28 165 33 30 6 64 12 75 15 11 3 43 10 70 16 47 11 152 43 202 62 19 7 25 4 37 -24 8 -18 21 -60 30 -95 21 -87 46 -127 77 -125 76 5 188 5 197 -1 17 -10 35 31 23 53 -11 20 -77 33 -123 24 -67 -13 -101 22 -128 135 -6 28 -16 55 -21 58 -14 8 0 24 22 24 11 0 43 24 72 53 53 54 127 142 127 150 0 3 16 21 35 40 28 28 47 37 102 47 69 13 139 49 150 75 3 11 21 15 59 15 64 0 71 17 24 52 -29 21 -30 23 -24 88 8 80 -8 120 -62 164 -52 41 -106 45 -167 12z m136 -75 c32 -36 35 -43 30 -83 -8 -57 -42 -127 -74 -151 -34 -24 -112 -39 -143 -27 -27 10 -41 41 -37 85 3 50 51 152 79 172 23 15 79 38 103 42 4 1 23 -17 42 -38z m-352 -450 c-42 -53 -151 -143 -151 -126 0 10 163 164 173 165 5 0 -5 -18 -22 -39z"/>
</g>
</svg>
