<?xml version="1.0" standalone="no"?>
<!DOCTYPE svg PUBLIC "-//W3C//DTD SVG 20010904//EN" "http://www.w3.org/TR/2001/REC-SVG-20010904/DTD/svg10.dtd">
<svg xmlns="http://www.w3.org/2000/svg" version="1.0" width="360.000000pt" height="360.000000pt" viewBox="0 0 360.000000 360.000000" preserveAspectRatio="xMidYMid meet">

<g transform="translate(0.000000,360.000000) scale(0.100000,-0.100000)" fill="#000000" stroke="none">
<path d="M2484 2085 c-49 -22 -53 -27 -79 -94 -26 -64 -27 -78 -22 -160 4 -72 11 -100 36 -149 17 -33 35 -63 41 -67 7 -4 7 -13 -1 -27 -7 -13 -7 -24 -1 -30 6 -6 6 -24 1 -46 -10 -46 -9 -40 -9 -51 0 -5 -25 -33 -56 -62 -30 -30 -64 -68 -74 -84 -10 -17 -53 -57 -94 -90 -81 -65 -90 -85 -56 -125 16 -18 17 -26 8 -37 -19 -23 -93 -63 -166 -90 -37 -13 -84 -31 -105 -39 -41 -15 -77 -19 -272 -29 -116 -6 -256 3 -325 20 -14 3 -56 8 -95 11 -100 8 -268 40 -304 59 -18 9 -31 23 -31 34 0 10 28 43 62 74 35 30 88 79 118 107 30 29 71 64 90 79 60 44 183 175 255 271 27 36 61 78 76 94 38 40 44 65 44 184 0 97 -2 105 -24 123 -13 11 -26 18 -28 16 -2 -2 -6 -37 -8 -78 -10 -148 -13 -157 -82 -257 -84 -121 -183 -231 -268 -297 -59 -47 -114 -95 -183 -162 -34 -33 -78 -71 -97 -84 -65 -45 -67 -89 -9 -145 47 -44 190 -79 349 -85 22 -1 69 -8 105 -15 104 -20 340 -28 485 -15 113 10 143 17 230 52 107 43 144 59 160 72 27 20 87 57 93 57 4 0 43 -37 86 -82 69 -71 163 -148 182 -148 3 0 22 -14 42 -31 28 -25 41 -30 66 -25 116 22 169 27 228 22 40 -3 69 -2 73 4 4 6 -7 23 -23 39 l-29 29 -110 -5 c-90 -4 -116 -2 -142 12 -17 8 -35 13 -40 11 -5 -3 -19 3 -32 13 -13 10 -35 22 -49 26 -14 4 -64 48 -113 98 l-87 91 23 25 c13 14 36 44 52 66 16 22 32 42 35 45 35 27 130 257 130 313 0 21 4 22 61 20 78 -2 118 17 160 75 32 44 33 48 35 158 1 112 2 114 33 149 34 39 39 66 17 84 -20 17 -52 -1 -60 -34 -7 -27 -26 -35 -26 -10 0 17 -57 85 -72 85 -5 0 -21 14 -35 30 -21 26 -31 30 -71 29 -26 0 -70 -11 -98 -24z m138 -72 c58 -32 79 -69 98 -179 27 -152 -27 -239 -130 -211 -70 18 -126 103 -136 205 -11 106 41 206 110 211 4 1 31 -11 58 -26z"/>
</g>
</svg>
