<?xml version="1.0" standalone="no"?>
<!DOCTYPE svg PUBLIC "-//W3C//DTD SVG 20010904//EN" "http://www.w3.org/TR/2001/REC-SVG-20010904/DTD/svg10.dtd">
<svg xmlns="http://www.w3.org/2000/svg" version="1.0" width="360.000000pt" height="360.000000pt" viewBox="0 0 360.000000 360.000000" preserveAspectRatio="xMidYMid meet">

<g transform="translate(0.000000,360.000000) scale(0.100000,-0.100000)" fill="#000000" stroke="none">
<path d="M3225 1200 c-3 -5 -17 -10 -31 -10 -34 0 -75 -24 -124 -73 -25 -24 -44 -77 -45 -127 0 -11 -15 -16 -60 -18 -33 -1 -69 -6 -80 -11 -68 -31 -409 -27 -770 10 -243 24 -360 21 -440 -11 -28 -12 -103 -22 -148 -21 -20 1 -46 -3 -56 -9 -27 -14 -178 -24 -376 -23 -193 0 -251 5 -283 22 -13 7 -35 11 -50 10 -15 -1 -43 1 -62 4 -133 24 -278 33 -293 18 -6 -6 -18 -11 -27 -11 -9 0 -38 -11 -66 -24 -27 -13 -67 -29 -89 -36 -74 -22 -110 -44 -110 -65 0 -13 8 -21 23 -23 12 -2 22 1 22 7 0 6 15 11 34 11 19 0 38 5 41 10 3 6 19 10 36 10 16 0 29 5 29 10 0 6 9 10 20 10 11 0 20 5 20 10 0 6 15 10 34 10 19 0 38 5 41 10 8 13 132 13 140 0 3 -5 39 -10 80 -10 41 0 77 -4 80 -10 3 -5 26 -10 50 -10 24 0 47 -4 50 -10 3 -5 22 -10 41 -10 19 0 34 -4 34 -10 0 -6 31 -10 74 -10 41 0 78 -4 81 -10 8 -13 105 -13 105 0 0 6 24 10 54 10 30 0 58 5 61 10 3 5 46 10 95 10 49 0 92 4 95 10 3 5 24 10 45 10 21 0 42 5 45 10 3 6 35 10 70 10 35 0 67 5 70 10 3 6 30 10 59 10 28 0 57 5 63 11 7 7 40 8 94 5 46 -4 134 -9 194 -12 61 -3 114 -9 120 -15 5 -5 69 -9 141 -9 132 0 183 -12 101 -24 -23 -4 -73 -11 -112 -17 -38 -6 -111 -13 -162 -15 -94 -5 -121 -18 -109 -49 4 -12 29 -15 140 -15 79 0 137 4 141 10 3 6 26 10 50 10 24 0 47 5 50 10 3 6 26 10 50 10 24 0 47 5 50 10 3 6 21 10 40 10 19 0 37 5 40 10 3 6 28 10 55 10 27 0 52 5 55 10 3 6 24 10 45 10 21 0 42 5 45 10 3 6 30 10 60 10 30 0 57 5 60 10 3 6 22 10 41 10 19 0 34 5 34 10 0 16 19 12 41 -8 10 -11 32 -25 47 -32 15 -7 35 -16 44 -21 10 -5 60 -9 111 -9 79 0 101 4 143 25 27 14 65 41 84 60 33 34 34 38 33 110 -1 83 -22 121 -78 144 -16 7 -38 17 -47 22 -24 12 -175 12 -183 -1z m168 -72 c15 -7 33 -25 40 -40 6 -16 15 -28 19 -28 16 0 8 -77 -9 -92 -42 -37 -99 -55 -169 -53 -80 2 -135 23 -159 58 -22 34 -6 98 30 117 14 7 25 17 25 22 0 4 14 8 30 8 17 0 30 5 30 10 0 14 131 12 163 -2z"/>
</g>
</svg>
