<?xml version="1.0" standalone="no"?>
<!DOCTYPE svg PUBLIC "-//W3C//DTD SVG 20010904//EN" "http://www.w3.org/TR/2001/REC-SVG-20010904/DTD/svg10.dtd">
<svg xmlns="http://www.w3.org/2000/svg" version="1.0" width="360.000000pt" height="360.000000pt" viewBox="0 0 360.000000 360.000000" preserveAspectRatio="xMidYMid meet">

<g transform="translate(0.000000,360.000000) scale(0.100000,-0.100000)" fill="#000000" stroke="none">
<path d="M3039 1911 c-66 -48 -79 -73 -86 -167 -6 -84 15 -163 56 -208 18 -21 21 -27 9 -23 -31 11 -49 -20 -45 -77 7 -88 -1 -112 -53 -162 -48 -46 -149 -123 -162 -124 -4 0 -29 -13 -55 -28 -52 -30 -134 -60 -198 -73 -149 -28 -160 -29 -601 -44 -61 -2 -138 -7 -170 -11 -78 -10 -435 -11 -549 -2 -49 4 -130 10 -180 13 -94 6 -283 32 -297 41 -4 3 -38 7 -75 9 -119 8 -177 16 -226 32 -65 20 -111 10 -163 -35 -23 -21 -62 -50 -88 -65 -28 -18 -46 -36 -46 -47 0 -22 16 -35 25 -20 3 6 40 29 81 51 41 23 81 47 88 54 10 10 33 9 122 -6 60 -10 129 -18 154 -19 25 0 83 -7 130 -16 204 -37 404 -54 687 -59 105 -1 196 -5 201 -9 6 -3 36 0 67 9 31 8 116 17 188 20 598 24 602 25 713 55 88 25 147 50 219 93 60 36 151 100 157 110 13 21 14 3 8 -133 -8 -182 -4 -188 109 -146 27 10 77 17 130 18 84 1 115 -3 196 -23 69 -18 125 -20 125 -4 0 27 -45 67 -80 71 -19 2 -66 9 -105 16 -38 6 -73 11 -76 10 -4 -1 -46 -4 -94 -7 -48 -3 -91 -8 -96 -10 -4 -3 -15 3 -25 12 -15 15 -16 32 -11 143 7 142 10 160 31 192 8 13 19 49 25 81 13 74 13 73 59 81 56 8 101 44 129 101 14 28 28 57 32 65 4 8 22 22 39 30 40 19 42 46 3 55 -23 5 -30 13 -35 40 -8 41 -65 113 -109 138 -52 28 -95 22 -158 -22z m164 -69 c35 -37 46 -75 35 -130 -13 -73 -36 -109 -82 -132 -55 -26 -68 -25 -96 5 -47 50 -56 200 -14 246 26 29 95 58 114 49 8 -5 28 -22 43 -38z"/>
</g>
</svg>
