<?xml version="1.0" standalone="no"?>
<!DOCTYPE svg PUBLIC "-//W3C//DTD SVG 20010904//EN" "http://www.w3.org/TR/2001/REC-SVG-20010904/DTD/svg10.dtd">
<svg xmlns="http://www.w3.org/2000/svg" version="1.0" width="360.000000pt" height="360.000000pt" viewBox="0 0 360.000000 360.000000" preserveAspectRatio="xMidYMid meet">

<g transform="translate(0.000000,360.000000) scale(0.100000,-0.100000)" fill="#000000" stroke="none">
<path d="M3023 1720 c-22 -17 -48 -41 -56 -54 -30 -45 -57 -144 -57 -206 0 -52 5 -68 31 -106 17 -25 37 -48 45 -51 10 -4 8 -13 -10 -41 -21 -34 -25 -36 -87 -38 -136 -6 -451 -47 -539 -70 -30 -8 -100 -19 -155 -25 -54 -6 -131 -17 -170 -25 -38 -9 -104 -19 -145 -22 -68 -6 -75 -9 -78 -29 -4 -28 27 -42 96 -44 26 -1 52 -6 58 -10 7 -6 26 -3 48 6 28 12 89 17 239 21 111 3 216 7 232 9 29 3 239 7 299 6 28 -1 26 -4 -40 -56 -38 -30 -114 -77 -169 -105 -92 -46 -111 -51 -243 -70 -79 -11 -198 -25 -265 -31 -67 -5 -158 -13 -201 -18 -78 -9 -503 -7 -879 4 -182 5 -206 8 -378 51 -30 8 -65 14 -78 14 -12 0 -35 7 -52 16 -32 16 -69 11 -69 -10 0 -13 -76 -59 -143 -86 -75 -31 -110 -86 -44 -70 52 13 171 60 188 76 28 25 75 20 314 -33 71 -16 143 -18 755 -24 260 -3 467 4 590 20 30 4 73 3 95 -1 68 -12 222 12 302 48 17 8 37 14 45 14 23 0 168 74 233 119 33 22 63 41 67 41 7 0 64 48 110 91 15 15 29 24 32 21 3 -2 10 8 16 23 6 15 19 40 30 55 11 16 20 35 20 43 0 9 11 29 25 45 14 17 25 39 25 51 0 18 6 21 48 21 38 0 58 6 90 30 51 36 60 53 68 124 6 52 9 57 38 64 41 11 39 32 -4 47 -22 7 -40 22 -49 41 -40 85 -52 101 -92 126 -58 35 -86 34 -136 -2z m124 -87 c50 -55 70 -149 44 -208 -22 -49 -36 -61 -82 -69 -105 -19 -154 67 -114 201 29 99 98 133 152 76z m-266 -499 c-24 -31 11 -27 -356 -38 -116 -3 -166 -1 -140 4 74 17 504 69 514 63 2 -1 -6 -14 -18 -29z"/>
</g>
</svg>
