<?xml version="1.0" standalone="no"?>
<!DOCTYPE svg PUBLIC "-//W3C//DTD SVG 20010904//EN" "http://www.w3.org/TR/2001/REC-SVG-20010904/DTD/svg10.dtd">
<svg xmlns="http://www.w3.org/2000/svg" version="1.0" width="360.000000pt" height="360.000000pt" viewBox="0 0 360.000000 360.000000" preserveAspectRatio="xMidYMid meet">

<g transform="translate(0.000000,360.000000) scale(0.100000,-0.100000)" fill="#000000" stroke="none">
<path d="M1541 1058 c-22 -9 -53 -28 -67 -41 -24 -23 -205 -127 -220 -127 -3 0 -55 -24 -114 -54 -190 -95 -278 -126 -346 -122 -33 2 -73 10 -89 18 -26 13 -71 24 -135 33 -8 1 -32 10 -52 19 -21 9 -41 16 -45 16 -5 0 -32 16 -62 35 -49 32 -139 73 -201 90 -14 4 -40 14 -58 23 -51 23 -59 8 -67 -133 -4 -66 -9 -123 -11 -126 -2 -4 4 -17 15 -30 14 -18 27 -22 66 -21 78 3 89 27 21 46 -21 6 -39 13 -39 16 0 3 3 42 7 88 6 65 11 82 23 82 28 0 146 -47 211 -83 66 -38 119 -58 277 -105 152 -46 158 -47 223 -22 177 69 559 257 607 299 27 24 99 51 136 51 33 0 119 -40 160 -75 15 -12 58 -37 95 -55 38 -18 89 -48 113 -66 24 -19 48 -34 52 -34 5 0 33 -12 62 -26 75 -36 125 -55 182 -66 71 -13 158 -19 289 -17 11 0 22 -4 25 -9 18 -27 50 -60 77 -78 29 -21 34 -21 105 -9 41 7 91 13 113 13 22 0 45 7 54 16 38 38 -35 71 -121 55 -92 -16 -116 -18 -122 -9 -6 10 6 14 35 11 9 -1 35 5 59 14 24 8 56 15 71 15 15 0 45 7 66 16 22 9 53 21 69 28 85 35 88 35 131 -1 21 -19 58 -40 81 -46 34 -9 43 -16 43 -33 0 -33 24 -49 44 -29 9 9 16 25 16 34 0 14 10 20 38 25 112 17 148 56 146 158 -1 57 -6 73 -29 104 -64 84 -223 102 -320 35 -44 -30 -62 -59 -67 -111 -2 -28 -10 -38 -35 -51 -65 -34 -80 -33 -146 11 -34 23 -84 47 -112 55 -84 22 -136 46 -220 101 -87 58 -204 95 -230 74 -30 -25 -24 -51 26 -106 43 -48 141 -175 164 -213 6 -11 -5 -13 -71 -8 -125 9 -163 15 -218 36 -70 26 -190 84 -251 120 -27 16 -78 44 -112 62 -34 17 -71 40 -83 51 -29 27 -157 79 -190 76 -15 -1 -46 -10 -69 -20z m965 -104 c90 -55 185 -101 234 -114 55 -15 161 -70 155 -80 -9 -14 -186 -42 -228 -36 -49 7 -59 15 -110 91 -22 33 -63 86 -90 118 -57 66 -46 72 39 21z m880 -9 c58 -24 83 -115 46 -163 -28 -37 -117 -54 -184 -36 -66 17 -98 51 -98 103 0 46 14 65 65 90 48 24 122 27 171 6z"/>
</g>
</svg>
