<?xml version="1.0" standalone="no"?>
<!DOCTYPE svg PUBLIC "-//W3C//DTD SVG 20010904//EN" "http://www.w3.org/TR/2001/REC-SVG-20010904/DTD/svg10.dtd">
<svg xmlns="http://www.w3.org/2000/svg" version="1.0" width="360.000000pt" height="360.000000pt" viewBox="0 0 360.000000 360.000000" preserveAspectRatio="xMidYMid meet">

<g transform="translate(0.000000,360.000000) scale(0.100000,-0.100000)" fill="#000000" stroke="none">
<path d="M2936 3011 c-10 -11 -21 -48 -27 -93 -10 -72 -11 -74 -73 -134 -68 -66 -227 -191 -346 -271 -82 -55 -137 -93 -220 -154 -30 -23 -73 -53 -95 -67 -78 -52 -279 -204 -283 -214 -9 -21 -54 0 -183 87 -77 52 -142 95 -146 95 -3 0 -36 25 -72 55 -36 30 -70 59 -76 63 -13 9 -138 115 -145 122 -3 3 -32 28 -65 55 -33 28 -71 60 -85 73 -14 13 -61 51 -105 85 -93 72 -157 132 -150 139 3 3 -3 12 -13 21 -16 15 -21 15 -63 -6 -61 -30 -109 -66 -109 -81 0 -7 -9 -21 -20 -31 -47 -42 -3 -63 47 -22 15 13 50 38 77 56 46 30 50 31 59 14 14 -26 80 -88 172 -163 44 -35 82 -67 85 -70 12 -12 140 -122 201 -171 37 -30 100 -81 141 -115 41 -34 107 -83 147 -109 40 -26 75 -54 78 -61 3 -8 10 -14 15 -14 6 0 39 -20 74 -45 34 -25 70 -45 79 -45 13 0 14 -4 5 -21 -12 -21 -14 -29 -53 -259 -34 -192 -41 -268 -41 -435 0 -139 -1 -140 -27 -162 -30 -26 -81 -119 -100 -183 -8 -25 -24 -54 -38 -66 -28 -24 -22 -64 10 -64 10 0 19 -1 19 -3 0 -14 -51 -150 -68 -182 -19 -34 -20 -42 -8 -60 18 -27 78 -25 116 4 16 11 46 27 67 35 124 46 183 65 223 71 25 3 58 11 74 17 26 11 28 14 22 51 -9 56 -53 86 -83 56 -8 -8 -9 12 -6 73 7 111 -7 159 -58 200 -64 51 -72 75 -74 228 -2 136 7 230 41 440 10 63 18 142 19 175 l0 60 81 70 c44 39 107 89 140 113 32 23 90 65 128 93 38 28 109 78 158 112 50 34 113 78 141 97 27 19 74 51 103 70 60 40 230 177 258 209 11 11 25 21 32 21 7 0 23 13 37 29 20 24 25 41 26 98 1 37 3 81 4 98 2 36 -21 45 -47 16z m-1067 -2018 c15 -32 16 -148 2 -184 -13 -35 -58 -69 -91 -69 -36 0 -77 33 -85 69 -5 23 5 53 47 138 l53 109 31 -18 c17 -10 36 -30 43 -45z m67 -240 c-11 -11 -17 4 -9 23 7 18 8 18 11 1 2 -10 1 -21 -2 -24z m-227 -75 c1 -3 -20 -13 -45 -22 l-46 -16 6 23 c4 12 9 34 12 49 l6 28 34 -28 c18 -15 33 -30 33 -34z"/>
</g>
</svg>
