<?xml version="1.0" standalone="no"?>
<!DOCTYPE svg PUBLIC "-//W3C//DTD SVG 20010904//EN" "http://www.w3.org/TR/2001/REC-SVG-20010904/DTD/svg10.dtd">
<svg xmlns="http://www.w3.org/2000/svg" version="1.0" width="360.000000pt" height="360.000000pt" viewBox="0 0 360.000000 360.000000" preserveAspectRatio="xMidYMid meet">

<g transform="translate(0.000000,360.000000) scale(0.100000,-0.100000)" fill="#000000" stroke="none">
<path d="M1781 3227 c-6 -6 -11 -19 -11 -28 0 -21 67 -82 120 -109 43 -22 44 -25 30 -85 -16 -63 -49 -264 -55 -335 -9 -114 -17 -184 -22 -205 -13 -57 -27 -255 -25 -365 3 -195 20 -340 44 -374 l21 -29 -23 -96 c-45 -193 -50 -221 -50 -274 0 -30 -5 -79 -11 -108 -6 -30 -12 -121 -14 -204 -3 -139 -5 -154 -29 -205 -44 -91 -92 -171 -98 -164 -4 3 -16 3 -27 -1 -27 -8 -28 -49 -1 -68 20 -14 20 -15 -21 -128 -54 -150 -54 -151 -31 -179 l20 -25 54 24 c57 25 236 71 279 71 15 0 32 -7 39 -15 15 -18 32 -19 48 -3 6 6 26 13 44 15 17 2 36 9 40 16 13 20 9 54 -7 61 -8 3 -15 13 -15 22 0 9 -7 28 -16 44 -14 23 -21 27 -43 20 l-26 -7 0 87 c0 79 -3 91 -30 136 -23 35 -41 53 -70 64 l-40 15 -1 70 c0 39 -2 117 -3 175 -3 160 39 458 86 611 22 72 23 83 9 97 -23 27 -35 65 -52 180 -19 121 -22 369 -5 472 6 36 15 110 21 165 32 308 54 414 95 463 14 17 25 32 25 36 0 12 -46 47 -89 68 -24 12 -61 38 -81 58 -43 43 -63 53 -79 37z m107 -2540 c12 -12 29 -43 37 -70 29 -98 -19 -197 -96 -197 -83 0 -117 40 -106 128 7 59 60 169 84 174 22 5 50 -7 81 -35z m83 -264 c-12 -20 -14 -14 -5 12 4 9 9 14 11 11 3 -2 0 -13 -6 -23z m-270 -38 c35 -12 14 -35 -32 -35 -23 0 -22 -2 -7 41 8 23 13 28 16 17 2 -9 12 -20 23 -23z"/>
</g>
</svg>
