<?xml version="1.0" standalone="no"?>
<!DOCTYPE svg PUBLIC "-//W3C//DTD SVG 20010904//EN" "http://www.w3.org/TR/2001/REC-SVG-20010904/DTD/svg10.dtd">
<svg xmlns="http://www.w3.org/2000/svg" version="1.0" width="360.000000pt" height="360.000000pt" viewBox="0 0 360.000000 360.000000" preserveAspectRatio="xMidYMid meet">

<g transform="translate(0.000000,360.000000) scale(0.100000,-0.100000)" fill="#000000" stroke="none">
<path d="M1986 2868 c-9 -5 -16 -16 -16 -23 0 -13 -4 -16 -25 -15 -35 2 -146 -101 -238 -221 -105 -137 -237 -421 -237 -512 0 -24 -14 -67 -35 -112 -67 -138 -108 -315 -107 -464 0 -155 70 -407 144 -516 l48 -73 -15 -78 c-45 -243 -58 -441 -30 -464 11 -9 30 -9 80 -1 87 15 390 16 446 1 60 -17 108 -15 127 4 22 22 12 28 -86 56 -71 19 -106 23 -236 23 -84 -1 -180 -4 -214 -8 l-61 -7 -6 46 c-5 29 0 97 14 188 12 79 21 155 21 171 0 26 1 27 43 21 61 -8 67 -11 67 -32 0 -31 76 -110 113 -117 60 -12 67 -16 67 -38 1 -54 33 -59 45 -7 4 17 13 30 22 30 32 0 135 65 159 99 33 49 32 113 -3 181 -36 69 -78 100 -146 107 -46 5 -62 1 -103 -20 -27 -14 -59 -28 -71 -32 -16 -4 -33 -29 -56 -75 l-33 -69 -40 32 c-82 66 -136 155 -179 290 -44 138 -59 254 -51 379 9 143 74 335 132 389 25 23 32 63 14 74 -22 14 16 142 82 278 21 43 38 80 38 82 0 8 91 137 138 195 45 56 102 109 160 149 32 22 34 23 47 5 19 -26 71 -133 110 -229 45 -110 123 -267 136 -276 7 -4 30 1 53 11 22 10 65 21 95 24 66 9 113 31 109 53 -2 12 -14 16 -43 16 -22 0 -45 4 -51 9 -7 5 -22 5 -35 -1 -13 -5 -42 -9 -64 -9 -38 0 -42 3 -71 51 -39 66 -64 120 -109 232 -73 180 -107 226 -149 203z m-12 -1856 c69 -47 79 -125 23 -173 -55 -48 -107 -58 -183 -38 -109 29 -100 137 16 215 47 31 95 30 144 -4z"/>
</g>
</svg>
