<?xml version="1.0" standalone="no"?>
<!DOCTYPE svg PUBLIC "-//W3C//DTD SVG 20010904//EN" "http://www.w3.org/TR/2001/REC-SVG-20010904/DTD/svg10.dtd">
<svg xmlns="http://www.w3.org/2000/svg" version="1.0" width="360.000000pt" height="360.000000pt" viewBox="0 0 360.000000 360.000000" preserveAspectRatio="xMidYMid meet">

<g transform="translate(0.000000,360.000000) scale(0.100000,-0.100000)" fill="#000000" stroke="none">
<path d="M1616 3524 c-12 -31 -5 -44 45 -83 37 -30 63 -42 99 -47 l48 -6 -15 -37 c-24 -57 -40 -116 -72 -266 -50 -239 -54 -296 -55 -666 l-1 -347 -37 32 c-20 17 -60 49 -89 71 -29 22 -77 63 -108 90 -31 28 -78 68 -106 90 -27 21 -66 54 -85 72 -19 18 -47 43 -61 55 -29 24 -172 153 -199 178 -33 30 -220 170 -228 170 -4 0 -27 18 -50 40 -32 31 -49 40 -76 40 -19 0 -38 -4 -41 -10 -3 -5 -32 -10 -64 -10 -73 0 -99 -21 -62 -51 19 -15 34 -18 84 -13 96 9 107 7 172 -36 98 -65 255 -188 301 -234 11 -11 46 -43 78 -71 32 -27 68 -59 81 -70 12 -11 46 -40 75 -65 30 -25 79 -67 110 -95 138 -123 230 -199 257 -214 13 -6 25 -22 29 -36 3 -13 -6 -97 -19 -187 -35 -225 -37 -242 -37 -423 -1 -177 5 -251 25 -338 12 -50 11 -65 -1 -105 -50 -162 -59 -248 -59 -540 l0 -223 24 -19 c19 -13 31 -16 49 -9 13 5 47 9 76 9 69 0 118 10 113 23 -8 26 -57 49 -113 54 -37 3 -64 11 -71 21 -12 14 -19 149 -16 287 2 95 17 215 38 290 17 65 25 81 42 83 19 3 21 -2 21 -57 0 -99 62 -180 154 -198 21 -4 28 -11 28 -30 0 -26 27 -73 41 -73 11 0 29 43 31 76 1 13 8 24 15 24 33 0 124 53 152 89 27 34 31 47 31 99 0 51 -5 67 -33 108 -22 32 -42 50 -58 52 -13 2 -30 9 -37 14 -12 10 -55 11 -132 4 -45 -4 -109 -31 -126 -53 -11 -16 -14 -16 -31 -2 -10 9 -26 19 -35 22 -10 4 -19 21 -23 44 -3 21 -10 53 -16 72 -30 93 -32 380 -4 601 10 78 47 245 57 257 7 9 6 49 -2 131 -16 163 -4 665 20 802 49 277 98 460 125 460 7 0 15 6 18 14 7 18 -25 39 -98 67 -30 11 -73 36 -96 55 -44 37 -73 43 -83 18z m394 -2564 c0 -5 10 -10 23 -10 30 0 44 -11 56 -43 21 -54 14 -93 -21 -122 -43 -36 -73 -47 -135 -46 -88 1 -143 44 -143 114 0 38 45 87 95 105 39 14 125 15 125 2z"/>
</g>
</svg>
