<?xml version="1.0" standalone="no"?>
<!DOCTYPE svg PUBLIC "-//W3C//DTD SVG 20010904//EN" "http://www.w3.org/TR/2001/REC-SVG-20010904/DTD/svg10.dtd">
<svg xmlns="http://www.w3.org/2000/svg" version="1.0" width="360.000000pt" height="360.000000pt" viewBox="0 0 360.000000 360.000000" preserveAspectRatio="xMidYMid meet">

<g transform="translate(0.000000,360.000000) scale(0.100000,-0.100000)" fill="#000000" stroke="none">
<path d="M1460 1997 c-3 -3 -33 -7 -66 -10 -57 -5 -141 -22 -239 -48 -60 -17 -124 -58 -131 -85 -17 -68 48 -121 197 -159 52 -13 114 -30 138 -39 24 -9 56 -16 71 -16 16 0 41 -7 57 -14 36 -19 98 -39 258 -85 141 -40 242 -80 284 -112 l24 -19 -34 -1 c-19 0 -73 0 -120 1 -47 1 -164 -10 -260 -24 -235 -33 -406 -42 -429 -21 -16 14 -25 12 -101 -24 -46 -21 -110 -49 -141 -62 -37 -15 -58 -30 -58 -40 0 -23 20 -36 50 -33 27 3 186 68 206 85 9 7 19 7 34 -1 32 -17 264 -2 499 34 58 9 164 16 236 16 118 0 133 2 153 20 33 31 38 67 15 98 -36 48 -117 81 -443 182 -74 23 -146 45 -160 50 -14 5 -38 11 -55 14 -16 4 -59 15 -95 26 -36 10 -94 26 -130 35 -66 17 -130 49 -130 66 0 5 6 9 14 9 7 0 19 6 25 14 7 8 31 17 54 21 23 4 60 13 82 20 97 32 265 38 410 15 149 -24 249 -52 286 -79 15 -12 32 -21 37 -21 12 0 134 -125 171 -176 l31 -41 -25 -63 c-14 -35 -27 -79 -31 -99 -3 -20 -16 -70 -29 -111 -13 -41 -32 -108 -41 -147 -10 -40 -21 -73 -25 -73 -5 0 -6 -6 -3 -13 4 -12 0 -27 -45 -147 -12 -30 -21 -61 -21 -69 0 -11 -42 -151 -86 -291 -3 -8 -5 -17 -4 -19 1 -2 -3 -7 -9 -10 -6 -4 -7 -18 -2 -36 7 -28 11 -30 52 -30 55 0 145 19 165 35 17 15 18 37 2 43 -7 2 -38 2 -69 -1 -31 -2 -59 0 -62 5 -3 5 3 40 14 78 11 39 32 117 48 175 16 58 45 150 64 205 19 55 40 128 46 162 7 34 19 79 28 100 8 21 24 74 35 118 10 44 23 84 27 88 5 5 18 -8 31 -27 28 -46 93 -100 148 -121 38 -15 42 -21 42 -50 0 -59 42 -55 55 6 4 16 10 29 13 29 117 9 143 17 200 65 33 27 72 117 72 163 0 58 -69 135 -135 152 -22 5 -56 15 -75 22 -77 25 -236 -4 -290 -53 -31 -28 -70 -33 -70 -8 0 17 -161 177 -208 208 -26 16 -81 39 -122 51 -41 12 -84 26 -95 31 -31 14 -325 46 -335 36z m1098 -333 c18 -8 35 -13 39 -11 17 10 98 -39 111 -66 23 -47 0 -119 -48 -152 -32 -22 -52 -27 -128 -31 -105 -6 -132 4 -194 68 -48 50 -55 76 -32 123 20 44 65 66 137 71 27 1 51 5 55 8 9 10 27 7 60 -10z"/>
</g>
</svg>
