<?xml version="1.0" standalone="no"?>
<!DOCTYPE svg PUBLIC "-//W3C//DTD SVG 20010904//EN" "http://www.w3.org/TR/2001/REC-SVG-20010904/DTD/svg10.dtd">
<svg xmlns="http://www.w3.org/2000/svg" version="1.0" width="360.000000pt" height="360.000000pt" viewBox="0 0 360.000000 360.000000" preserveAspectRatio="xMidYMid meet">

<g transform="translate(0.000000,360.000000) scale(0.100000,-0.100000)" fill="#000000" stroke="none">
<path d="M2530 1464 c-45 -18 -137 -68 -165 -90 -27 -21 -43 -24 -108 -24 -42 0 -88 -5 -104 -11 -15 -7 -45 -14 -67 -16 -21 -2 -46 -8 -56 -13 -10 -6 -27 -10 -38 -10 -11 0 -39 -9 -63 -19 -24 -10 -84 -24 -134 -31 -49 -6 -108 -17 -130 -25 -22 -7 -60 -16 -84 -19 -24 -4 -78 -18 -120 -31 -42 -13 -100 -26 -128 -28 -29 -3 -59 -10 -67 -16 -26 -22 -114 -33 -336 -42 -124 -4 -259 -12 -301 -17 -121 -13 -152 8 -109 73 29 44 25 97 -7 77 -5 -4 -25 -33 -42 -64 l-33 -57 -39 25 c-46 28 -94 41 -103 26 -11 -18 12 -60 36 -67 13 -4 35 -12 49 -18 25 -10 25 -11 10 -41 -15 -29 -21 -110 -9 -122 10 -9 103 -11 127 -2 13 4 67 11 120 13 53 3 110 9 126 14 17 5 50 13 75 16 25 4 90 18 145 31 55 13 120 28 145 34 61 14 408 14 550 1 63 -6 118 -11 123 -11 10 0 9 -79 -3 -120 -5 -19 -13 -77 -16 -130 -6 -101 -8 -106 -38 -112 -53 -9 -43 -73 12 -73 17 0 33 -3 37 -6 7 -8 106 31 117 46 5 6 -3 19 -17 30 -30 25 -32 78 -8 242 l16 111 33 6 c18 4 110 6 206 6 109 -1 184 3 203 10 19 7 57 9 106 5 88 -8 139 5 213 56 42 28 49 30 63 17 16 -17 57 -10 192 32 39 12 75 19 79 16 6 -3 6 -24 1 -48 -4 -24 -11 -90 -14 -148 -8 -148 -24 -229 -52 -264 -38 -46 -28 -61 42 -62 113 -2 130 12 88 72 -20 31 -24 45 -19 78 3 23 9 93 12 156 3 63 10 122 14 130 18 35 21 128 6 159 -18 34 -6 35 -164 -18 -51 -17 -103 -31 -116 -31 l-23 0 25 73 c30 90 25 147 -16 195 -26 31 -30 32 -127 37 -55 2 -107 2 -115 -1z m135 -67 c43 -11 51 -17 59 -46 7 -24 5 -41 -7 -67 -10 -19 -17 -44 -17 -54 0 -11 -4 -20 -10 -20 -5 0 -10 -7 -10 -15 0 -8 -28 -33 -62 -56 -97 -66 -180 -65 -255 4 -27 24 -29 51 -8 98 24 56 56 87 135 129 82 43 100 46 175 27z m-395 -184 c0 -21 -8 -33 -31 -45 -26 -15 -28 -20 -19 -38 12 -23 30 -26 48 -8 10 10 15 10 22 -2 5 -8 10 -18 10 -22 0 -11 -47 -21 -94 -20 -236 2 -229 1 -216 17 7 8 17 15 23 15 19 0 180 80 209 105 38 32 48 31 48 -2z m-286 -32 c-29 -15 -65 -38 -82 -49 -16 -12 -36 -22 -44 -22 -7 0 -24 -7 -36 -16 -20 -13 -45 -15 -159 -11 -75 3 -140 10 -144 14 -5 5 31 17 83 27 51 10 137 26 190 37 53 10 109 19 125 19 15 1 39 7 53 15 14 8 34 14 45 14 12 1 1 -10 -31 -28z m-1486 -169 c9 -6 6 -12 -13 -20 -27 -12 -28 -12 -19 12 7 18 13 19 32 8z m182 -12 c-14 -4 -34 -8 -45 -8 l-20 -1 20 9 c11 5 31 8 45 8 l25 0 -25 -8z"/>
</g>
</svg>
