<?xml version="1.0" standalone="no"?>
<!DOCTYPE svg PUBLIC "-//W3C//DTD SVG 20010904//EN" "http://www.w3.org/TR/2001/REC-SVG-20010904/DTD/svg10.dtd">
<svg xmlns="http://www.w3.org/2000/svg" version="1.0" width="360.000000pt" height="360.000000pt" viewBox="0 0 360.000000 360.000000" preserveAspectRatio="xMidYMid meet">

<g transform="translate(0.000000,360.000000) scale(0.100000,-0.100000)" fill="#000000" stroke="none">
<path d="M1907 1978 c-21 -4 -69 -26 -107 -48 -38 -22 -73 -40 -79 -40 -6 0 -11 -4 -11 -8 0 -5 -11 -14 -25 -20 -39 -18 -120 -84 -143 -117 -12 -16 -22 -49 -23 -71 -3 -39 -5 -42 -49 -58 -63 -23 -135 -95 -148 -149 l-11 -42 -58 0 c-53 0 -150 -12 -163 -20 -3 -2 -15 -23 -27 -47 -20 -40 -22 -59 -24 -293 -1 -137 -4 -256 -7 -263 -3 -10 -20 -13 -55 -10 -39 2 -52 -1 -61 -14 -8 -13 -8 -23 0 -35 23 -36 163 -17 178 24 3 8 9 135 12 281 3 147 10 274 15 283 9 18 99 31 154 22 28 -4 35 -10 35 -28 0 -29 54 -136 82 -162 13 -11 40 -27 61 -34 30 -11 37 -18 37 -40 0 -37 9 -59 25 -59 13 0 35 49 35 79 0 10 9 17 21 18 12 1 39 14 61 29 55 38 84 102 87 190 1 38 4 70 5 72 2 2 41 6 87 9 73 5 96 2 174 -22 128 -38 145 -46 145 -62 0 -22 50 -63 76 -63 28 0 26 23 29 -284 2 -211 1 -232 -17 -262 -15 -26 -17 -37 -8 -54 10 -20 17 -21 83 -14 40 4 75 9 80 11 18 10 4 35 -33 58 l-40 25 -1 93 c-1 50 -2 166 -3 256 l-1 163 29 15 c59 30 280 17 355 -21 16 -9 43 -16 58 -16 15 0 41 -7 57 -15 15 -8 34 -15 41 -15 14 0 87 -55 144 -109 40 -38 62 -29 42 16 -24 54 -93 133 -120 139 -42 8 -131 36 -131 40 0 10 135 -11 149 -23 9 -8 53 -50 99 -94 79 -75 102 -87 102 -53 0 43 -118 186 -170 206 -76 30 -193 41 -365 34 -163 -6 -187 -8 -240 -20 -28 -6 -35 -2 -78 48 -66 76 -187 328 -187 389 0 8 -11 28 -24 44 -12 15 -32 53 -43 83 -23 61 -43 72 -106 58z m32 -92 c19 -10 36 -34 54 -78 38 -89 113 -356 103 -366 -7 -6 -114 26 -149 45 -31 16 -106 11 -192 -13 -36 -10 -51 -11 -54 -3 -2 6 -30 42 -63 80 -55 65 -58 71 -52 106 5 29 21 52 71 101 36 34 71 62 78 62 7 0 18 6 24 13 6 8 30 20 53 27 24 8 52 20 63 27 25 16 30 16 64 -1z m-393 -352 c19 -9 42 -30 50 -45 8 -16 21 -29 28 -29 18 0 26 -32 26 -111 0 -74 -23 -120 -74 -148 -68 -38 -165 3 -167 71 0 18 -2 48 -3 67 -7 94 40 211 85 211 12 0 36 -7 55 -16z"/>
</g>
</svg>
