<?xml version="1.0" standalone="no"?>
<!DOCTYPE svg PUBLIC "-//W3C//DTD SVG 20010904//EN" "http://www.w3.org/TR/2001/REC-SVG-20010904/DTD/svg10.dtd">
<svg xmlns="http://www.w3.org/2000/svg" version="1.0" width="360.000000pt" height="360.000000pt" viewBox="0 0 360.000000 360.000000" preserveAspectRatio="xMidYMid meet">

<g transform="translate(0.000000,360.000000) scale(0.100000,-0.100000)" fill="#000000" stroke="none">
<path d="M1677 2538 c-28 -29 -33 -41 -36 -92 -2 -33 -6 -68 -10 -79 -4 -10 -1 -72 5 -139 7 -66 15 -186 19 -266 6 -137 5 -149 -14 -179 -11 -18 -25 -33 -31 -33 -5 0 -10 -6 -10 -13 0 -13 -51 -76 -139 -172 -20 -22 -50 -57 -66 -79 -16 -21 -45 -49 -65 -62 -19 -13 -59 -44 -89 -69 -30 -24 -66 -45 -79 -47 -25 -3 -25 -4 -27 -121 -1 -129 8 -155 44 -123 27 25 43 88 35 146 -6 44 -5 50 10 44 10 -4 16 -1 16 7 0 8 22 30 47 49 78 58 285 270 333 340 13 19 35 49 49 66 14 17 33 40 42 51 21 26 40 83 33 95 -4 6 -7 29 -9 51 -1 23 -9 98 -16 167 -15 136 -19 363 -6 394 7 18 9 18 33 -5 84 -78 177 -231 226 -374 12 -33 27 -70 35 -81 17 -27 90 -251 103 -316 10 -50 6 -60 -85 -253 -36 -74 -52 -115 -105 -270 -26 -77 -66 -190 -88 -252 -47 -132 -62 -232 -38 -252 8 -7 26 -13 38 -13 48 -1 181 11 186 17 3 3 1 18 -4 33 -10 27 -11 27 -87 24 l-78 -2 6 37 c4 21 18 70 32 108 15 39 51 144 80 235 30 91 61 179 68 195 7 17 29 66 48 110 20 44 45 104 57 133 24 56 30 61 50 37 10 -12 11 -27 3 -63 -22 -94 17 -199 96 -261 35 -28 39 -36 35 -64 -3 -20 0 -40 9 -51 13 -18 16 -18 30 -5 8 9 16 24 19 35 2 14 13 20 43 21 65 5 149 34 169 61 23 30 36 132 24 186 -5 23 -26 66 -47 96 -30 44 -48 59 -92 77 -64 27 -156 30 -199 8 -17 -9 -31 -13 -31 -10 -1 3 -2 9 -3 14 0 5 -13 19 -28 31 -16 12 -32 39 -39 63 -29 106 -83 266 -103 307 -13 25 -29 63 -36 84 -13 39 -57 135 -87 190 -54 98 -202 266 -234 266 -6 0 -25 -15 -42 -32z m776 -973 c36 -15 61 -44 89 -101 20 -41 19 -151 -2 -164 -23 -15 -81 -30 -116 -30 -42 0 -128 57 -132 88 -2 12 -7 22 -12 22 -15 0 -32 79 -24 113 6 29 38 63 73 79 28 12 87 9 124 -7z"/>
</g>
</svg>
