<?xml version="1.0" standalone="no"?>
<!DOCTYPE svg PUBLIC "-//W3C//DTD SVG 20010904//EN" "http://www.w3.org/TR/2001/REC-SVG-20010904/DTD/svg10.dtd">
<svg xmlns="http://www.w3.org/2000/svg" version="1.0" width="360.000000pt" height="360.000000pt" viewBox="0 0 360.000000 360.000000" preserveAspectRatio="xMidYMid meet">

<g transform="translate(0.000000,360.000000) scale(0.100000,-0.100000)" fill="#000000" stroke="none">
<path d="M1486 3324 c-13 -33 -3 -42 94 -90 88 -44 99 -52 100 -76 0 -15 13 -87 29 -160 17 -73 32 -158 35 -188 4 -30 15 -87 25 -127 10 -40 16 -74 14 -77 -6 -6 44 -151 63 -181 7 -11 20 -47 29 -80 9 -32 29 -84 45 -115 90 -179 160 -327 160 -338 0 -9 -5 -10 -17 -4 -52 27 -273 37 -398 18 -132 -21 -169 -28 -198 -41 -18 -8 -68 -27 -112 -44 -105 -39 -196 -80 -217 -99 -9 -8 -32 -17 -50 -21 -26 -5 -34 -12 -36 -32 -2 -14 4 -31 12 -38 13 -11 21 -9 45 8 44 31 49 25 11 -14 l-33 -34 -24 19 c-45 35 -85 42 -138 25 -26 -9 -61 -25 -78 -36 -41 -25 -43 -24 -56 11 -14 40 -56 42 -73 4 -12 -25 -10 -29 19 -51 l31 -24 -19 -33 c-52 -88 -62 -189 -24 -234 30 -36 31 -44 4 -68 -18 -16 -20 -26 -15 -69 11 -93 21 -349 18 -451 -3 -82 0 -103 13 -114 12 -10 21 -10 41 -1 14 6 44 11 67 11 56 0 110 32 105 63 -2 12 -9 21 -17 19 -33 -7 -122 -5 -131 4 -15 15 -25 453 -11 497 7 20 17 37 22 37 5 0 9 -84 9 -197 0 -196 9 -266 33 -276 18 -7 118 10 130 22 15 15 -1 30 -43 41 -55 15 -56 19 -51 321 l1 97 48 17 c54 20 132 86 157 135 12 23 16 52 14 104 -2 39 1 78 6 86 6 9 34 36 63 60 29 24 62 59 74 78 14 22 38 41 75 58 104 45 198 76 263 85 36 5 83 11 105 15 65 9 196 7 255 -5 30 -6 78 -15 105 -21 44 -8 58 -18 119 -82 99 -104 328 -374 349 -411 17 -29 18 -49 12 -237 -11 -316 -12 -330 -20 -411 -6 -65 -5 -78 11 -93 14 -15 25 -16 63 -10 25 5 83 7 128 5 45 -1 87 0 93 4 20 12 -9 42 -62 65 -42 18 -62 21 -106 16 l-55 -6 6 172 c4 95 9 238 13 318 5 107 4 156 -6 184 -7 23 -46 77 -94 130 -44 49 -99 111 -121 137 -22 26 -78 89 -125 141 -82 91 -90 103 -144 238 -3 8 -14 29 -24 45 -57 93 -144 276 -163 338 -11 40 -30 95 -41 122 -12 28 -25 64 -29 80 -35 129 -53 209 -74 330 -14 77 -29 156 -35 175 -5 19 -10 49 -10 67 0 36 -18 83 -32 83 -5 0 -33 18 -62 40 -29 22 -57 40 -62 40 -5 0 -20 9 -34 20 -30 24 -66 26 -74 4z m-499 -1766 c18 -7 33 -16 33 -21 0 -6 -35 -48 -77 -95 -43 -46 -92 -100 -109 -119 l-30 -34 -19 21 c-16 18 -17 25 -6 75 16 70 63 133 121 163 52 26 45 25 87 10z m67 -125 c-11 -49 -57 -106 -107 -131 -26 -14 -50 -23 -52 -20 -9 8 141 178 157 178 4 0 6 -12 2 -27z"/>
</g>
</svg>
