<?xml version="1.0" standalone="no"?>
<!DOCTYPE svg PUBLIC "-//W3C//DTD SVG 20010904//EN" "http://www.w3.org/TR/2001/REC-SVG-20010904/DTD/svg10.dtd">
<svg xmlns="http://www.w3.org/2000/svg" version="1.0" width="360.000000pt" height="360.000000pt" viewBox="0 0 360.000000 360.000000" preserveAspectRatio="xMidYMid meet">

<g transform="translate(0.000000,360.000000) scale(0.100000,-0.100000)" fill="#000000" stroke="none">
<path d="M1802 2635 c-39 -21 -89 -74 -110 -118 -26 -52 -48 -205 -33 -220 6 -6 11 -18 11 -27 0 -47 90 -150 132 -150 10 0 18 -4 18 -10 0 -5 9 -10 19 -10 11 0 23 5 26 10 3 6 19 10 36 10 16 0 29 5 29 10 0 6 6 10 13 10 18 0 102 84 121 121 9 18 16 44 16 59 0 14 5 31 10 36 8 8 8 19 0 38 -5 15 -10 39 -10 53 0 14 -13 42 -30 63 -16 21 -30 44 -30 52 0 15 -40 53 -78 76 -28 15 -110 14 -140 -3z m140 -122 c60 -58 84 -107 69 -141 -6 -13 -11 -31 -11 -41 0 -24 -23 -68 -46 -89 -33 -29 -99 -59 -114 -52 -8 4 -27 13 -42 20 -39 19 -73 105 -65 170 6 52 27 105 59 153 16 22 27 27 60 27 35 0 48 -7 90 -47z"/>
<path d="M1872 2078 c-7 -7 -12 -29 -12 -50 0 -27 -4 -38 -15 -38 -9 0 -18 -8 -21 -17 -3 -10 -10 -28 -15 -40 -5 -13 -13 -33 -18 -45 -4 -13 -27 -61 -49 -108 -74 -154 -86 -185 -92 -225 l-5 -40 -50 3 c-27 2 -136 5 -241 8 -177 4 -191 4 -207 -14 -10 -11 -15 -26 -11 -36 8 -20 87 -76 108 -76 8 0 18 -4 21 -10 3 -5 14 -10 25 -10 10 0 44 -13 75 -30 35 -18 72 -30 95 -30 22 0 42 -4 45 -10 3 -5 24 -10 45 -10 47 0 53 -8 34 -44 -7 -16 -14 -34 -14 -42 0 -23 23 -28 40 -8 9 10 26 25 37 31 21 12 22 10 28 -35 4 -26 8 -54 11 -62 2 -8 -6 -20 -19 -26 -98 -50 -110 -62 -84 -89 17 -17 72 -20 82 -5 3 6 39 10 78 10 78 1 111 15 105 47 -2 13 -14 19 -41 21 -53 4 -69 33 -65 113 l3 64 53 1 c42 1 55 -3 63 -18 10 -19 44 -24 54 -8 3 6 20 10 37 10 32 0 88 15 121 31 20 11 33 -10 23 -36 -3 -8 0 -27 6 -41 9 -19 9 -30 0 -45 -7 -10 -12 -25 -12 -33 0 -7 -9 -16 -20 -19 -25 -6 -34 -29 -26 -62 5 -21 12 -25 41 -25 18 0 37 5 40 10 3 6 33 10 66 10 74 0 77 13 14 73 l-46 43 3 74 3 75 45 0 c39 0 45 3 48 23 2 12 10 22 18 22 8 0 22 4 32 9 9 5 31 14 47 21 17 7 38 16 47 21 10 5 24 9 32 9 21 0 93 41 115 64 32 36 34 70 5 97 -21 20 -28 21 -44 11 -11 -7 -45 -12 -75 -12 -31 0 -69 -7 -85 -15 -16 -8 -36 -12 -45 -9 -14 6 -67 -11 -117 -37 -26 -14 -28 -12 -28 28 0 36 -14 91 -31 125 -5 10 -9 24 -9 32 0 8 -13 34 -28 58 -16 24 -37 59 -48 78 -10 19 -26 44 -35 55 -8 11 -28 41 -42 66 -15 26 -33 49 -42 53 -9 3 -15 18 -15 41 0 36 -15 46 -38 23z m109 -255 c20 -37 49 -99 64 -138 15 -38 31 -74 36 -80 5 -5 9 -29 9 -54 0 -66 -18 -81 -99 -81 l-66 0 -2 157 c-1 87 -4 187 -8 221 -6 60 -6 63 12 54 10 -6 34 -41 54 -79z m-131 -313 c-7 -13 -21 -20 -39 -20 -34 0 -91 27 -91 43 0 18 67 194 94 247 8 14 20 38 27 54 13 26 14 12 17 -138 1 -103 -2 -174 -8 -186z m605 -7 c-11 -7 -25 -13 -32 -13 -7 0 -28 -9 -48 -20 -20 -11 -45 -20 -55 -20 -11 0 -28 -4 -38 -9 -52 -26 -72 -32 -98 -29 -47 5 -37 18 48 60 10 4 34 8 53 8 19 0 43 4 53 9 30 16 117 39 126 33 5 -3 1 -11 -9 -19z m-930 -53 c3 -5 33 -10 66 -10 54 0 60 -2 69 -24 12 -32 2 -66 -21 -66 -10 0 -21 5 -24 10 -3 6 -28 10 -56 10 -27 0 -58 5 -69 10 -11 6 -29 15 -40 20 -11 6 -29 10 -40 10 -11 0 -28 4 -38 9 -9 5 -33 16 -52 25 -34 15 -33 16 82 16 67 0 119 -4 123 -10z m240 -20 c3 -5 22 -10 42 -10 30 0 34 -2 23 -15 -8 -10 -30 -15 -61 -15 -41 0 -49 3 -49 18 0 30 31 45 45 22z m320 -41 c9 -14 -24 -38 -52 -39 -12 0 -25 -4 -28 -10 -3 -5 -26 -10 -50 -10 -44 0 -44 0 -33 25 9 19 19 25 44 25 18 0 36 5 39 10 8 13 72 13 80 -1z"/>
</g>
</svg>
