<?xml version="1.0" standalone="no"?>
<!DOCTYPE svg PUBLIC "-//W3C//DTD SVG 20010904//EN" "http://www.w3.org/TR/2001/REC-SVG-20010904/DTD/svg10.dtd">
<svg xmlns="http://www.w3.org/2000/svg" version="1.0" width="360.000000pt" height="360.000000pt" viewBox="0 0 360.000000 360.000000" preserveAspectRatio="xMidYMid meet">

<g transform="translate(0.000000,360.000000) scale(0.100000,-0.100000)" fill="#000000" stroke="none">
<path d="M2984 2759 c-3 -6 -33 -62 -65 -125 -64 -122 -95 -227 -123 -404 -9 -58 -23 -141 -31 -185 -28 -155 -28 -463 -1 -525 7 -16 -55 -37 -299 -100 -179 -47 -296 -78 -355 -95 -30 -9 -86 -24 -125 -35 -78 -21 -133 -40 -155 -55 -8 -5 -35 -17 -60 -26 -220 -79 -317 -115 -385 -144 -87 -38 -262 -96 -450 -151 -66 -19 -128 -39 -137 -44 -10 -6 -24 -10 -32 -10 -8 0 -69 -18 -136 -40 -67 -22 -132 -40 -145 -40 -48 0 -199 -145 -193 -185 2 -15 9 -19 29 -17 20 2 28 -3 32 -18 3 -11 10 -20 16 -20 20 0 151 143 151 165 0 18 15 26 97 53 89 29 282 89 358 112 136 40 351 113 400 135 53 24 148 58 420 150 44 15 109 40 145 56 67 31 128 50 238 74 34 8 67 17 72 20 6 4 23 8 38 11 15 2 45 11 67 18 22 8 66 20 99 26 32 7 84 21 115 31 52 18 172 49 190 49 11 0 -4 -97 -44 -281 -55 -249 -78 -377 -72 -394 6 -15 43 -34 157 -80 36 -15 88 -37 115 -50 28 -13 86 -40 130 -59 44 -20 87 -40 95 -44 26 -14 51 -2 48 21 -3 25 -35 42 -243 134 -71 31 -152 69 -180 84 -50 26 -50 27 -47 70 2 24 21 122 43 217 21 95 44 213 51 262 10 81 10 91 -6 109 -17 18 -16 19 16 26 85 17 105 36 69 69 -15 14 -24 15 -39 7 -18 -9 -21 -6 -32 37 -12 49 -15 284 -5 388 3 32 12 93 20 134 7 41 17 101 20 133 14 124 55 260 115 384 33 68 60 126 60 131 0 14 -39 32 -46 21z m-2544 -2066 c-5 -10 -21 -31 -35 -48 -20 -24 -25 -26 -25 -12 0 10 15 31 32 48 37 34 43 36 28 12z"/>
<path d="M3071 1867 c-6 -8 -10 -30 -9 -48 3 -28 -1 -35 -27 -47 -76 -36 -129 -114 -129 -189 0 -41 5 -57 24 -77 29 -31 123 -68 159 -63 111 18 180 53 231 118 33 42 40 59 40 95 0 66 -34 98 -134 124 -44 12 -85 19 -93 16 -16 -7 -16 -1 -1 24 24 38 -32 81 -61 47z m170 -175 c45 -25 48 -57 12 -104 -53 -69 -164 -99 -234 -63 -38 20 -51 53 -38 98 10 37 27 55 74 81 39 20 139 14 186 -12z"/>
</g>
</svg>
