<?xml version="1.0" standalone="no"?>
<!DOCTYPE svg PUBLIC "-//W3C//DTD SVG 20010904//EN" "http://www.w3.org/TR/2001/REC-SVG-20010904/DTD/svg10.dtd">
<svg xmlns="http://www.w3.org/2000/svg" version="1.0" width="360.000000pt" height="360.000000pt" viewBox="0 0 360.000000 360.000000" preserveAspectRatio="xMidYMid meet">

<g transform="translate(0.000000,360.000000) scale(0.100000,-0.100000)" fill="#000000" stroke="none">
<path d="M2083 1689 c-12 -4 -24 -18 -28 -31 -14 -46 -58 -134 -92 -188 -107 -164 -126 -190 -146 -196 -27 -10 -22 -9 -85 -18 -29 -4 -59 -15 -67 -23 -16 -15 -20 -49 -7 -56 11 -8 203 31 218 44 8 6 20 21 27 33 20 36 50 84 98 159 25 40 58 96 74 125 34 62 39 62 134 7 33 -19 64 -35 69 -35 14 0 221 -88 243 -103 20 -15 14 -18 -106 -49 -22 -6 -71 -22 -110 -35 -38 -14 -83 -28 -100 -33 -16 -4 -86 -26 -154 -49 -69 -23 -165 -53 -215 -67 -178 -48 -392 -105 -446 -118 -55 -14 -265 -74 -350 -101 -25 -8 -100 -23 -166 -34 -127 -21 -227 -42 -334 -71 -36 -10 -80 -21 -98 -25 -23 -5 -32 -12 -32 -26 0 -11 -20 -53 -45 -93 -25 -41 -45 -79 -45 -85 0 -17 20 -23 35 -11 11 9 15 9 15 1 0 -6 -7 -14 -15 -17 -32 -13 -11 -58 22 -47 28 10 153 202 153 235 0 6 -11 3 -25 -6 -30 -20 -35 -20 -35 -2 0 14 24 22 195 60 98 22 156 32 288 51 21 3 64 14 97 25 33 11 68 20 80 20 11 0 68 15 127 34 115 36 424 121 483 132 19 3 40 10 45 14 6 4 26 10 45 14 53 10 374 108 470 143 8 4 20 7 25 9 6 1 37 12 70 22 33 11 87 25 120 31 33 6 70 14 83 17 20 6 22 3 22 -37 0 -48 -27 -349 -34 -389 -3 -14 -8 -58 -11 -99 -6 -81 -1 -91 46 -91 28 0 226 -78 294 -116 36 -20 164 -64 186 -64 5 0 9 11 9 25 0 26 -27 48 -72 59 -15 3 -74 28 -130 54 -57 27 -137 62 -178 77 -41 16 -77 30 -79 32 -5 4 -2 104 5 135 9 45 23 225 26 329 l3 107 45 5 c37 4 49 1 73 -19 25 -21 39 -24 111 -24 136 0 206 37 280 147 23 35 28 50 23 80 -7 42 -30 77 -71 107 -23 18 -41 21 -112 19 -71 -1 -92 -6 -135 -29 -73 -40 -139 -132 -139 -193 0 -14 -8 -22 -27 -26 -16 -3 -41 -10 -56 -15 -19 -6 -36 -4 -55 5 -93 47 -146 71 -235 106 -55 21 -112 47 -126 56 -14 10 -38 23 -52 30 -15 6 -44 27 -65 46 -31 27 -44 33 -61 26z m1027 -81 c49 -34 56 -50 40 -89 -16 -38 -69 -93 -109 -113 -37 -19 -133 -28 -168 -15 -53 18 -62 71 -23 134 27 44 48 61 105 84 67 27 114 26 155 -1z m-2680 -913 c-17 -25 -33 -45 -36 -45 -7 0 3 17 34 58 36 48 38 39 2 -13z"/>
</g>
</svg>
