<?xml version="1.0" standalone="no"?>
<!DOCTYPE svg PUBLIC "-//W3C//DTD SVG 20010904//EN" "http://www.w3.org/TR/2001/REC-SVG-20010904/DTD/svg10.dtd">
<svg xmlns="http://www.w3.org/2000/svg" version="1.0" width="360.000000pt" height="360.000000pt" viewBox="0 0 360.000000 360.000000" preserveAspectRatio="xMidYMid meet">

<g transform="translate(0.000000,360.000000) scale(0.100000,-0.100000)" fill="#000000" stroke="none">
<path d="M178 1757 c-8 -8 -24 -55 -37 -103 -12 -49 -27 -105 -33 -125 -16 -56 19 -104 50 -66 5 6 15 50 21 96 20 134 15 128 113 124 149 -6 338 -34 413 -60 22 -8 105 -21 185 -30 80 -8 165 -17 190 -21 25 -3 65 -5 90 -5 96 0 477 -28 505 -37 17 -5 56 -11 88 -12 49 -2 55 -5 40 -15 -9 -7 -23 -13 -30 -13 -7 0 -30 -10 -51 -23 -53 -33 -315 -152 -397 -181 -38 -14 -99 -37 -135 -52 -70 -29 -72 -30 -265 -74 -71 -16 -170 -41 -220 -54 -49 -13 -110 -27 -135 -31 -25 -4 -83 -20 -130 -37 -47 -16 -134 -42 -195 -57 -102 -27 -110 -30 -117 -57 -5 -16 -6 -42 -3 -59 3 -16 6 -67 6 -113 1 -52 7 -86 15 -93 23 -19 134 14 134 40 0 5 -10 11 -22 14 -42 11 -57 31 -77 104 l-19 71 141 45 c179 57 241 75 341 98 152 34 241 56 276 67 19 6 64 14 100 17 36 4 79 13 95 20 17 7 77 33 135 59 58 25 119 48 135 52 17 4 64 24 105 46 41 21 81 38 88 38 8 0 50 19 95 42 45 23 91 46 102 51 11 6 27 13 35 18 113 55 157 73 188 76 20 2 43 9 51 16 13 11 200 12 895 7 37 0 38 -1 32 -27 -3 -16 -12 -78 -21 -139 -15 -121 -40 -239 -60 -288 -16 -40 -11 -432 6 -452 8 -10 27 -12 67 -9 79 7 92 13 92 40 0 27 -24 39 -85 43 -19 2 -20 10 -23 166 -3 167 2 204 68 526 5 25 12 66 15 93 l6 47 40 0 c29 0 39 -4 39 -16 0 -9 10 -34 22 -55 21 -39 84 -79 122 -79 10 0 23 -14 31 -34 21 -49 32 -52 55 -14 16 28 29 35 76 47 69 15 129 66 146 122 11 37 10 42 -34 161 -11 29 -67 68 -108 74 -14 3 -62 -2 -108 -10 -97 -17 -146 -48 -171 -107 -13 -32 -20 -37 -39 -32 -42 10 -1142 9 -1150 -2 -10 -14 -199 -13 -302 2 -78 11 -190 19 -390 28 -41 2 -129 8 -195 15 -66 6 -161 15 -211 19 -50 5 -101 14 -112 20 -28 15 -238 51 -332 58 -84 5 -174 18 -206 28 -13 4 -27 1 -36 -8z m3252 -87 c0 -5 10 -10 22 -12 18 -2 28 -17 45 -66 l23 -63 -34 -37 c-33 -35 -37 -37 -109 -40 -42 -2 -91 1 -111 8 -41 13 -76 52 -76 85 0 31 39 85 77 107 51 30 163 42 163 18z"/>
</g>
</svg>
