<?xml version="1.0" standalone="no"?>
<!DOCTYPE svg PUBLIC "-//W3C//DTD SVG 20010904//EN" "http://www.w3.org/TR/2001/REC-SVG-20010904/DTD/svg10.dtd">
<svg xmlns="http://www.w3.org/2000/svg" version="1.0" width="360.000000pt" height="360.000000pt" viewBox="0 0 360.000000 360.000000" preserveAspectRatio="xMidYMid meet">

<g transform="translate(0.000000,360.000000) scale(0.100000,-0.100000)" fill="#000000" stroke="none">
<path d="M3025 1888 c-16 -6 -39 -17 -50 -24 -11 -8 -26 -14 -35 -14 -9 0 -37 -21 -62 -47 -48 -49 -78 -105 -78 -144 0 -14 -5 -19 -15 -16 -8 4 -17 3 -19 -2 -18 -29 -321 -142 -470 -175 -102 -23 -329 -83 -356 -94 -24 -10 -163 -48 -280 -77 -142 -36 -291 -74 -345 -90 -33 -9 -78 -21 -100 -25 -22 -5 -60 -15 -83 -23 -96 -33 -648 -121 -703 -112 -42 7 -66 -6 -51 -29 3 -6 7 -22 8 -36 2 -14 6 -53 9 -88 5 -44 3 -67 -6 -78 -9 -11 -9 -21 -1 -39 11 -24 15 -25 99 -24 49 1 99 4 112 8 32 9 39 31 11 31 -12 0 -28 7 -36 15 -9 9 -33 15 -58 15 l-42 0 -13 63 c-7 34 -15 70 -18 80 -4 14 3 17 39 17 24 0 63 5 88 11 25 6 77 15 115 19 39 5 108 13 155 19 47 6 114 17 150 25 36 8 90 20 120 26 108 23 246 62 321 90 42 16 103 33 135 39 32 5 95 20 139 34 44 13 107 30 140 37 33 6 76 18 95 25 49 19 139 43 180 49 19 2 69 15 110 29 41 14 109 33 150 42 41 10 109 29 150 44 41 14 93 31 115 37 22 6 49 15 60 19 16 7 18 6 9 -6 -13 -16 -24 -142 -29 -344 -3 -77 -8 -174 -12 -215 -3 -41 -6 -79 -4 -84 1 -5 -3 -22 -9 -39 -8 -24 -7 -35 6 -55 16 -24 17 -24 117 -17 56 3 106 10 111 15 5 5 -3 20 -17 34 -22 22 -35 26 -82 26 l-57 0 6 143 c4 78 9 198 12 267 11 266 13 300 19 310 9 15 45 12 45 -4 0 -8 14 -26 31 -41 30 -25 36 -26 116 -21 l84 5 21 -34 c11 -19 24 -33 29 -30 4 3 11 28 15 55 4 33 12 51 23 55 9 3 35 22 59 42 36 32 44 47 54 95 12 66 4 94 -40 144 -15 16 -32 39 -38 49 -9 16 -23 20 -65 22 -30 1 -67 -3 -84 -9z m137 -98 c34 -34 42 -63 28 -104 -21 -65 -131 -126 -226 -126 -70 0 -94 20 -96 82 -1 38 4 53 31 87 40 50 106 91 175 106 44 10 52 10 57 -4 4 -9 18 -27 31 -41z"/>
</g>
</svg>
