<?xml version="1.0" standalone="no"?>
<!DOCTYPE svg PUBLIC "-//W3C//DTD SVG 20010904//EN" "http://www.w3.org/TR/2001/REC-SVG-20010904/DTD/svg10.dtd">
<svg xmlns="http://www.w3.org/2000/svg" version="1.0" width="360.000000pt" height="360.000000pt" viewBox="0 0 360.000000 360.000000" preserveAspectRatio="xMidYMid meet">

<g transform="translate(0.000000,360.000000) scale(0.100000,-0.100000)" fill="#000000" stroke="none">
<path d="M267 1613 c-4 -3 -7 -15 -7 -25 0 -13 -8 -18 -28 -18 -39 0 -165 -126 -160 -161 4 -34 33 -35 60 -2 12 15 50 55 83 89 l60 60 80 -7 c77 -7 315 -38 460 -60 39 -6 104 -15 145 -19 74 -8 286 -46 299 -54 4 -3 47 -7 97 -10 49 -4 101 -9 114 -11 14 -3 70 -12 125 -20 55 -8 125 -20 156 -25 30 -6 71 -10 90 -10 35 0 67 -14 53 -22 -5 -3 -34 -11 -64 -18 -90 -20 -159 -40 -265 -76 -272 -94 -459 -154 -540 -173 -50 -12 -126 -33 -170 -46 -81 -25 -106 -31 -250 -61 -44 -9 -129 -28 -190 -41 -60 -14 -128 -27 -150 -30 -56 -7 -65 -17 -54 -56 5 -18 9 -51 9 -74 0 -44 8 -50 40 -33 16 9 19 18 14 53 -6 40 -5 43 28 56 18 7 51 17 73 21 22 5 90 18 150 30 108 22 237 53 365 89 36 10 94 26 130 35 139 36 492 150 515 166 6 4 37 13 70 20 33 7 72 19 87 27 15 7 40 13 57 13 16 0 33 5 36 10 3 6 16 10 29 10 27 0 163 45 181 60 16 13 975 25 975 13 0 -5 -43 -62 -95 -126 -94 -116 -105 -140 -84 -178 5 -11 13 -79 17 -152 7 -124 8 -132 27 -129 11 2 39 5 62 9 51 7 70 24 48 43 -14 11 -3 19 72 58 48 24 100 53 114 63 14 10 44 25 67 35 48 19 63 40 51 69 -13 34 -11 135 4 135 23 0 34 -15 41 -53 12 -64 55 -60 56 6 0 20 5 27 20 27 11 0 50 14 85 32 58 28 68 37 89 82 20 42 23 59 16 96 -14 82 -25 93 -123 120 -102 28 -267 -8 -297 -65 -10 -19 -17 -21 -63 -15 -28 4 -268 5 -532 3 -502 -5 -509 -5 -780 42 -49 8 -107 15 -128 15 -21 0 -47 4 -57 10 -10 5 -56 12 -102 15 -96 5 -289 29 -398 50 -83 15 -143 23 -240 31 -36 3 -92 12 -125 19 -80 18 -125 25 -215 31 -41 3 -106 12 -145 20 -81 16 -80 16 -88 7z m3175 -229 c53 -18 64 -40 49 -104 -5 -23 -11 -43 -13 -44 -70 -51 -93 -57 -164 -46 -67 11 -98 33 -125 88 l-22 44 27 26 c49 49 162 66 248 36z m-322 -93 c0 -16 12 -46 27 -67 25 -35 28 -48 29 -127 l1 -89 -73 -49 c-40 -27 -76 -49 -79 -49 -3 0 -38 -16 -78 -35 l-72 -35 -8 72 c-18 163 -16 166 122 324 58 67 76 81 101 82 26 1 30 -3 30 -27z"/>
</g>
</svg>
