<?xml version="1.0" standalone="no"?>
<!DOCTYPE svg PUBLIC "-//W3C//DTD SVG 20010904//EN" "http://www.w3.org/TR/2001/REC-SVG-20010904/DTD/svg10.dtd">
<svg xmlns="http://www.w3.org/2000/svg" version="1.0" width="360.000000pt" height="360.000000pt" viewBox="0 0 360.000000 360.000000" preserveAspectRatio="xMidYMid meet">

<g transform="translate(0.000000,360.000000) scale(0.100000,-0.100000)" fill="#000000" stroke="none">
<path d="M2177 1593 c-3 -2 -34 -9 -69 -14 -117 -17 -133 -20 -173 -31 -22 -6 -47 -17 -55 -24 -14 -11 -285 -144 -294 -144 -2 0 -44 -18 -93 -41 -48 -22 -101 -46 -118 -54 -16 -7 -55 -23 -85 -35 -30 -12 -73 -30 -95 -40 -77 -36 -246 -100 -263 -100 -10 0 -22 -4 -28 -10 -5 -5 -83 -27 -174 -50 -91 -22 -200 -52 -242 -66 -48 -16 -92 -25 -113 -22 -51 6 -70 -17 -57 -69 19 -74 24 -171 11 -228 -17 -78 -9 -84 101 -76 77 5 85 8 88 28 5 32 -30 51 -81 46 l-42 -5 -2 81 c-2 49 -9 93 -18 111 -17 32 -15 34 35 45 19 4 41 11 50 16 19 10 318 90 390 104 37 7 276 98 355 135 47 22 90 40 96 40 10 0 139 53 170 70 9 4 60 27 114 50 55 23 108 48 119 55 12 8 43 21 70 30 26 9 71 31 99 48 33 20 52 27 55 19 2 -7 10 -12 17 -12 8 0 29 -6 47 -14 34 -15 158 -64 283 -111 39 -15 99 -40 135 -57 36 -16 83 -38 105 -48 22 -10 49 -21 59 -24 11 -4 16 -10 10 -15 -11 -11 -192 -50 -259 -57 -66 -7 -137 -20 -205 -40 -30 -8 -98 -24 -150 -35 -127 -27 -144 -36 -148 -78 -4 -37 -20 -67 -64 -119 -21 -24 -27 -40 -22 -55 17 -58 34 -47 112 73 30 47 58 88 61 92 10 11 319 89 391 98 56 7 179 29 246 44 47 10 110 30 119 38 21 18 26 5 19 -61 -3 -41 -1 -91 5 -122 26 -117 41 -217 41 -270 0 -40 5 -61 16 -70 9 -7 20 -23 25 -36 7 -19 17 -23 51 -24 118 -5 141 -2 155 16 29 41 9 56 -77 58 l-73 2 -13 55 c-7 30 -18 89 -23 130 -5 42 -13 82 -16 91 -4 12 9 9 55 -13 42 -20 71 -28 93 -25 157 21 240 217 160 374 -15 31 -33 58 -41 60 -7 3 -23 26 -36 52 -13 25 -33 55 -45 65 -40 36 -170 80 -359 121 -34 8 -66 17 -72 20 -5 3 -71 10 -147 16 -76 5 -152 12 -170 14 -17 2 -34 1 -36 -2z m346 -104 c236 -52 240 -54 231 -83 -4 -11 -17 -57 -28 -102 l-21 -81 -35 15 c-50 21 -91 38 -120 50 -14 5 -61 26 -105 45 -44 20 -143 59 -220 87 -77 28 -153 58 -170 65 l-29 14 24 5 c60 13 84 14 228 10 101 -3 185 -12 245 -25z m344 -105 l44 -25 -38 -25 c-21 -14 -51 -40 -66 -57 -24 -27 -27 -28 -22 -10 3 12 8 45 10 73 5 51 11 70 22 70 4 0 26 -12 50 -26z m136 -141 c90 -111 31 -303 -93 -303 -41 0 -89 34 -106 75 -14 35 -6 124 16 165 43 79 142 114 183 63z"/>
</g>
</svg>
