<?xml version="1.0" standalone="no"?>
<!DOCTYPE svg PUBLIC "-//W3C//DTD SVG 20010904//EN" "http://www.w3.org/TR/2001/REC-SVG-20010904/DTD/svg10.dtd">
<svg xmlns="http://www.w3.org/2000/svg" version="1.0" width="360.000000pt" height="360.000000pt" viewBox="0 0 360.000000 360.000000" preserveAspectRatio="xMidYMid meet">

<g transform="translate(0.000000,360.000000) scale(0.100000,-0.100000)" fill="#000000" stroke="none">
<path d="M2515 1209 c-38 -4 -92 -10 -120 -13 -60 -5 -98 -24 -136 -65 -23 -26 -36 -31 -76 -32 -26 0 -57 -3 -68 -5 -11 -3 -67 -12 -125 -20 -58 -8 -134 -19 -170 -24 -169 -27 -544 -77 -645 -85 -22 -2 -58 -6 -80 -9 -22 -4 -83 -8 -135 -11 -52 -3 -160 -10 -240 -15 -80 -5 -242 -8 -361 -6 -212 2 -216 2 -245 -21 l-29 -23 27 -77 c29 -80 42 -169 28 -178 -5 -3 -5 -17 -1 -33 7 -25 12 -27 70 -32 54 -4 65 -2 77 14 16 23 1 58 -24 55 -35 -3 -42 2 -42 29 0 15 -9 62 -20 106 -11 43 -20 80 -20 81 0 9 171 15 554 20 346 4 437 8 473 20 25 9 72 20 106 25 34 5 114 19 177 30 63 11 153 25 200 30 47 6 96 13 110 16 52 11 190 25 319 32 l133 7 42 -40 c22 -23 52 -50 66 -60 14 -11 34 -33 44 -49 l18 -29 -48 7 c-27 4 -89 9 -139 12 -49 2 -103 8 -120 13 -66 19 -225 45 -355 58 -161 17 -205 4 -253 -71 -15 -24 -36 -51 -47 -61 -23 -20 -26 -45 -8 -63 23 -23 46 -12 86 41 23 29 59 62 80 74 33 17 46 19 98 11 32 -5 89 -11 125 -13 36 -2 85 -9 110 -15 53 -15 139 -27 279 -40 58 -5 123 -13 145 -18 75 -15 125 2 140 48 14 43 -43 118 -136 180 -40 26 -66 82 -45 98 6 5 56 17 111 28 128 24 371 24 509 -1 l94 -17 -10 -32 c-14 -46 -33 -135 -58 -276 -13 -69 -29 -150 -37 -180 -17 -68 -18 -91 -1 -101 14 -9 66 -3 108 11 32 12 184 29 306 36 101 5 138 18 131 46 -3 10 3 18 14 21 25 7 35 35 18 51 -18 17 -168 46 -233 46 -40 0 -47 2 -37 14 9 11 20 12 47 4 51 -13 158 5 204 36 42 27 60 77 60 164 0 55 -15 76 -86 125 -47 32 -164 59 -239 56 -28 -1 -66 5 -85 14 -19 8 -64 20 -100 27 -36 7 -72 13 -81 15 -16 3 -190 13 -319 19 -36 1 -96 -1 -135 -5z m596 -134 c-13 -57 -5 -152 16 -194 21 -43 21 -43 2 -88 l-19 -44 26 -24 c30 -27 139 -52 242 -54 12 -1 22 -5 22 -10 0 -10 -40 -17 -150 -25 -36 -3 -92 -10 -125 -16 -33 -5 -73 -10 -89 -10 -24 0 -27 3 -23 23 3 12 9 49 13 82 3 33 8 62 9 65 2 3 8 53 15 110 16 152 30 212 49 208 10 -3 14 -11 12 -23z m295 -33 c22 -11 50 -32 63 -46 20 -22 23 -32 19 -77 -4 -43 -11 -57 -34 -77 -26 -21 -37 -23 -95 -19 -56 3 -73 9 -112 38 -53 39 -56 45 -66 117 -7 49 -6 54 18 74 23 17 36 20 97 15 42 -3 87 -13 110 -25z m-206 -236 c0 -3 -4 -8 -10 -11 -5 -3 -10 -1 -10 4 0 6 5 11 10 11 6 0 10 -2 10 -4z m-10 -46 c0 -5 -2 -10 -4 -10 -3 0 -8 5 -11 10 -3 6 -1 10 4 10 6 0 11 -4 11 -10z"/>
</g>
</svg>
