<?xml version="1.0" standalone="no"?>
<!DOCTYPE svg PUBLIC "-//W3C//DTD SVG 20010904//EN" "http://www.w3.org/TR/2001/REC-SVG-20010904/DTD/svg10.dtd">
<svg xmlns="http://www.w3.org/2000/svg" version="1.0" width="360.000000pt" height="360.000000pt" viewBox="0 0 360.000000 360.000000" preserveAspectRatio="xMidYMid meet">

<g transform="translate(0.000000,360.000000) scale(0.100000,-0.100000)" fill="#000000" stroke="none">
<path d="M2322 1198 c-18 -18 -15 -41 15 -97 14 -28 24 -53 22 -55 -2 -2 -69 -7 -149 -10 -80 -4 -172 -11 -205 -16 -33 -5 -121 -12 -196 -15 -75 -3 -156 -7 -180 -10 -24 -3 -73 -7 -109 -9 -36 -3 -103 -10 -150 -16 -139 -18 -206 -20 -380 -10 -91 6 -221 12 -290 15 -69 2 -144 7 -167 11 -27 4 -43 2 -43 -4 0 -6 -8 -8 -18 -5 -10 2 -24 -3 -32 -12 -11 -14 -10 -26 11 -83 17 -48 24 -88 24 -142 l0 -75 79 0 c63 0 81 3 89 17 16 25 -9 48 -53 48 l-37 0 -7 65 c-4 36 -12 77 -18 90 -7 16 -8 29 -2 34 8 7 101 1 224 -14 76 -10 479 -13 545 -5 80 10 218 20 321 24 38 1 75 6 82 10 6 4 44 6 84 5 40 -1 134 6 208 16 132 17 371 18 387 1 4 -4 9 -37 11 -74 6 -114 41 -163 99 -139 13 6 32 6 51 -1 31 -10 79 -6 88 9 10 17 -8 49 -35 64 -18 9 -42 12 -64 8 -31 -5 -37 -2 -50 23 -8 16 -17 50 -21 76 l-7 47 150 -1 c107 0 151 -4 151 -12 0 -6 11 -28 25 -49 34 -49 91 -78 139 -70 29 5 36 3 36 -11 0 -10 5 -26 11 -37 8 -16 13 -18 25 -8 8 6 14 20 14 30 0 23 29 39 69 39 40 0 108 69 117 119 8 39 -9 113 -32 149 -17 26 -108 72 -133 67 -9 -1 -36 -6 -61 -10 -59 -9 -134 -50 -164 -89 -23 -31 -25 -32 -107 -31 -92 0 -90 -1 -260 112 -69 45 -87 51 -107 31z m760 -100 c57 -55 61 -112 13 -164 -32 -34 -38 -36 -80 -32 -25 3 -48 2 -50 -2 -7 -12 -71 -2 -105 15 -40 21 -55 68 -32 103 23 37 62 72 92 84 79 32 125 31 162 -4z m-572 -55 c0 -9 -75 2 -82 12 -4 6 -8 18 -8 27 0 14 6 13 45 -9 25 -13 45 -27 45 -30z"/>
</g>
</svg>
