<?xml version="1.0" standalone="no"?>
<!DOCTYPE svg PUBLIC "-//W3C//DTD SVG 20010904//EN" "http://www.w3.org/TR/2001/REC-SVG-20010904/DTD/svg10.dtd">
<svg xmlns="http://www.w3.org/2000/svg" version="1.0" width="360.000000pt" height="360.000000pt" viewBox="0 0 360.000000 360.000000" preserveAspectRatio="xMidYMid meet">

<g transform="translate(0.000000,360.000000) scale(0.100000,-0.100000)" fill="#000000" stroke="none">
<path d="M2670 2233 c-71 -12 -123 -60 -145 -136 -14 -47 3 -157 32 -208 10 -18 23 -41 30 -53 7 -11 21 -29 33 -38 12 -10 16 -19 10 -23 -5 -3 -10 -28 -10 -55 0 -44 -3 -51 -31 -67 -25 -15 -29 -22 -24 -43 4 -14 9 -73 12 -133 l5 -107 -47 -88 c-26 -48 -65 -105 -88 -127 -65 -62 -190 -165 -200 -165 -5 0 -43 -14 -85 -31 -93 -38 -236 -79 -275 -79 -16 0 -37 -5 -48 -10 -10 -6 -54 -13 -96 -16 -43 -3 -112 -9 -153 -13 -89 -7 -479 -6 -673 2 -157 7 -309 30 -340 52 -32 22 -52 18 -68 -12 -22 -43 -48 -60 -135 -87 -61 -19 -83 -31 -87 -46 -4 -17 -1 -19 21 -15 15 3 55 9 89 14 35 5 88 21 119 36 52 25 60 26 122 16 37 -5 114 -12 172 -16 58 -3 139 -8 180 -11 101 -7 531 -7 561 0 13 3 67 8 119 11 112 6 212 19 295 40 94 23 217 68 250 91 28 20 62 35 92 40 15 3 88 63 126 104 16 16 35 30 43 30 8 0 14 3 14 8 0 4 10 18 23 32 13 14 29 34 35 45 9 16 10 -7 6 -105 -6 -111 -11 -159 -31 -252 -4 -21 1 -30 22 -44 22 -15 30 -15 47 -5 12 8 47 12 87 11 108 -3 111 -3 111 25 0 34 -32 49 -110 51 -36 1 -69 3 -74 3 -5 1 -5 34 -1 79 11 110 12 125 20 242 3 58 15 139 25 180 10 41 22 98 26 125 4 28 9 59 11 70 2 11 4 64 4 118 l1 97 39 0 c70 0 139 82 154 183 7 42 12 51 46 70 54 30 50 47 -9 47 -47 0 -49 1 -69 43 -12 23 -37 61 -58 85 -38 43 -52 47 -125 35z m129 -152 c41 -82 33 -158 -22 -218 -65 -71 -187 29 -187 153 0 56 51 103 125 114 47 7 60 -1 84 -49z"/>
</g>
</svg>
