<?xml version="1.0" standalone="no"?>
<!DOCTYPE svg PUBLIC "-//W3C//DTD SVG 20010904//EN" "http://www.w3.org/TR/2001/REC-SVG-20010904/DTD/svg10.dtd">
<svg xmlns="http://www.w3.org/2000/svg" version="1.0" width="360.000000pt" height="360.000000pt" viewBox="0 0 360.000000 360.000000" preserveAspectRatio="xMidYMid meet">

<g transform="translate(0.000000,360.000000) scale(0.100000,-0.100000)" fill="#000000" stroke="none">
<path d="M1538 2018 c-75 -73 -158 -160 -186 -193 -51 -62 -575 -591 -717 -725 -44 -41 -124 -114 -177 -161 -54 -48 -116 -107 -139 -133 -23 -25 -47 -46 -54 -46 -21 0 -25 -25 -18 -125 8 -123 18 -135 122 -136 90 -1 113 13 82 52 -16 20 -28 24 -69 23 l-50 0 -15 54 -15 55 38 52 c22 29 72 81 112 116 39 35 96 88 125 117 30 28 56 52 59 52 2 0 37 31 75 69 39 38 75 73 80 77 6 5 72 72 148 149 76 77 169 170 207 206 38 36 119 118 179 183 164 177 254 265 328 324 l67 53 47 -16 c27 -9 71 -34 98 -55 66 -52 393 -374 431 -425 32 -43 173 -202 270 -302 54 -57 63 -73 92 -161 36 -111 68 -294 83 -486 8 -101 14 -134 27 -144 13 -11 42 -12 132 -6 160 11 231 10 335 -4 188 -26 184 -26 191 -8 4 11 -2 26 -16 41 -22 23 -31 25 -175 42 -77 9 -218 9 -321 0 -60 -5 -84 -3 -92 6 -5 6 -12 48 -16 92 -3 44 -8 89 -10 100 -2 12 -7 48 -11 80 -4 33 -9 67 -11 76 -2 9 17 -4 42 -28 33 -30 59 -45 86 -50 43 -6 49 -11 78 -60 11 -18 27 -33 35 -33 16 0 17 5 19 54 1 26 7 31 46 44 97 32 130 76 130 171 0 77 -10 103 -64 155 -46 46 -40 44 -197 61 -27 4 -62 0 -89 -10 -39 -14 -45 -14 -60 0 -9 8 -19 12 -23 9 -9 -9 -67 16 -96 40 -80 71 -247 247 -323 342 -59 74 -150 168 -349 359 -134 129 -195 168 -284 179 l-50 6 -137 -132z m1218 -854 c22 -6 23 -8 11 -23 -8 -9 -17 -25 -22 -36 -6 -18 -9 -15 -25 20 -23 51 -24 59 -4 51 9 -3 27 -9 40 -12z m310 -30 c64 -26 100 -112 74 -175 -28 -68 -163 -93 -244 -45 -58 34 -86 76 -86 129 0 34 6 49 28 69 15 14 34 28 42 31 27 11 154 4 186 -9z"/>
</g>
</svg>
