<?xml version="1.0" standalone="no"?>
<!DOCTYPE svg PUBLIC "-//W3C//DTD SVG 20010904//EN" "http://www.w3.org/TR/2001/REC-SVG-20010904/DTD/svg10.dtd">
<svg xmlns="http://www.w3.org/2000/svg" version="1.0" width="360.000000pt" height="360.000000pt" viewBox="0 0 360.000000 360.000000" preserveAspectRatio="xMidYMid meet">

<g transform="translate(0.000000,360.000000) scale(0.100000,-0.100000)" fill="#000000" stroke="none">
<path d="M1715 1935 c-14 -13 -25 -30 -25 -37 0 -7 -16 -36 -36 -63 -20 -28 -49 -75 -64 -105 -16 -30 -45 -77 -64 -105 -20 -27 -59 -84 -88 -125 -28 -41 -63 -89 -77 -106 -14 -17 -33 -40 -41 -50 -9 -10 -54 -66 -100 -123 -175 -216 -224 -277 -261 -331 -22 -30 -52 -73 -69 -95 -21 -30 -27 -47 -23 -68 7 -37 36 -43 147 -27 50 7 110 15 134 17 31 4 42 9 42 22 0 28 -73 43 -150 31 -95 -14 -93 -15 -74 22 36 69 119 180 312 413 9 11 36 43 58 70 59 71 103 130 154 205 24 36 61 87 81 113 20 27 47 70 59 95 13 26 43 75 66 109 24 34 44 66 44 72 0 24 37 9 55 -21 10 -18 48 -70 84 -114 36 -45 98 -127 138 -182 40 -54 99 -131 132 -171 l59 -71 -57 -58 c-49 -48 -59 -65 -65 -104 -6 -37 -3 -55 14 -87 19 -39 20 -42 4 -67 -23 -35 -6 -54 31 -34 23 12 30 12 58 -3 18 -9 48 -18 67 -21 19 -3 46 -8 60 -11 48 -10 127 14 155 46 14 17 25 37 25 45 0 22 9 17 59 -28 25 -24 70 -63 100 -88 29 -25 74 -66 98 -92 25 -26 63 -54 85 -63 40 -15 142 -36 187 -37 32 0 48 18 35 39 -14 23 -29 29 -99 43 -81 16 -109 30 -201 107 -193 160 -232 200 -248 256 -17 57 -41 97 -58 97 -7 0 -42 16 -79 35 -38 19 -75 35 -83 35 -8 0 -21 9 -29 21 -8 11 -39 46 -69 77 -30 31 -72 82 -93 112 -20 30 -46 64 -55 75 -10 11 -57 78 -105 149 -91 135 -91 135 -143 179 -41 33 -56 34 -87 2z m597 -732 c140 -106 158 -135 117 -187 -18 -23 -27 -26 -84 -26 -70 0 -97 11 -144 58 -58 58 -56 123 7 172 34 28 47 25 104 -17z"/>
</g>
</svg>
