<?xml version="1.0" standalone="no"?>
<!DOCTYPE svg PUBLIC "-//W3C//DTD SVG 20010904//EN" "http://www.w3.org/TR/2001/REC-SVG-20010904/DTD/svg10.dtd">
<svg xmlns="http://www.w3.org/2000/svg" version="1.0" width="360.000000pt" height="360.000000pt" viewBox="0 0 360.000000 360.000000" preserveAspectRatio="xMidYMid meet">

<g transform="translate(0.000000,360.000000) scale(0.100000,-0.100000)" fill="#000000" stroke="none">
<path d="M900 2927 c-78 -20 -119 -38 -114 -51 4 -11 31 -13 119 -10 l113 4 18 -47 c10 -27 52 -109 92 -183 41 -74 148 -281 238 -460 90 -179 184 -356 209 -393 25 -37 45 -71 45 -76 0 -5 6 -14 14 -20 12 -10 3 -29 -48 -114 -157 -256 -275 -429 -391 -572 -45 -55 -96 -122 -115 -150 -60 -89 -124 -168 -182 -225 -42 -41 -58 -64 -58 -84 0 -35 20 -41 78 -25 69 19 238 16 262 -6 17 -16 19 -16 29 4 33 61 -6 83 -145 83 l-106 0 19 21 c10 12 20 24 23 27 19 18 93 117 134 178 27 39 86 118 130 175 45 56 99 129 121 162 21 33 51 76 66 95 15 19 46 68 69 109 23 41 55 91 70 112 15 21 38 63 50 94 12 30 25 55 29 55 7 0 45 -46 103 -125 20 -27 41 -54 45 -60 5 -5 42 -55 83 -110 41 -55 93 -122 117 -148 l43 -49 -35 -41 c-41 -47 -54 -87 -45 -137 5 -30 2 -40 -27 -73 -18 -20 -33 -41 -33 -46 0 -20 22 -22 56 -6 l35 16 44 -39 c33 -29 64 -45 111 -58 l66 -18 44 23 c24 13 46 31 49 41 3 9 16 27 30 40 l24 22 58 -36 c60 -38 189 -127 210 -145 7 -6 16 -11 21 -11 6 0 27 -16 48 -35 28 -25 49 -35 74 -36 19 0 44 -2 55 -4 11 -2 43 -5 70 -8 28 -3 55 -6 60 -7 23 -5 44 1 66 19 l23 18 -27 18 c-18 11 -54 19 -105 22 -42 2 -93 9 -112 15 -19 6 -35 9 -36 7 0 -2 -16 8 -35 22 -19 14 -50 34 -69 44 -34 17 -59 34 -165 113 -27 20 -68 47 -90 58 -29 16 -41 30 -46 53 -4 16 -20 46 -38 66 -17 20 -31 39 -31 43 0 15 -74 56 -130 71 -52 15 -65 24 -115 81 -31 36 -88 108 -126 160 -86 118 -102 140 -157 214 -25 33 -53 79 -64 102 -10 24 -28 50 -39 58 -30 21 -102 139 -194 321 -45 88 -86 169 -93 180 -6 11 -39 76 -73 145 -34 69 -65 130 -69 135 -5 6 -47 81 -94 169 -57 104 -85 164 -81 177 5 14 0 20 -22 25 -15 3 -41 9 -58 14 -35 10 -48 9 -95 -3z m1271 -1907 c15 -14 52 -43 83 -65 45 -32 54 -44 49 -60 -14 -46 -62 -87 -94 -81 -76 13 -123 53 -144 120 -21 66 -14 100 23 120 29 15 33 14 83 -34z"/>
</g>
</svg>
