<?xml version="1.0" standalone="no"?>
<!DOCTYPE svg PUBLIC "-//W3C//DTD SVG 20010904//EN" "http://www.w3.org/TR/2001/REC-SVG-20010904/DTD/svg10.dtd">
<svg xmlns="http://www.w3.org/2000/svg" version="1.0" width="360.000000pt" height="360.000000pt" viewBox="0 0 360.000000 360.000000" preserveAspectRatio="xMidYMid meet">

<g transform="translate(0.000000,360.000000) scale(0.100000,-0.100000)" fill="#000000" stroke="none">
<path d="M483 3164 c-3 -9 -2 -24 4 -33 15 -26 175 -129 210 -136 24 -4 33 -11 33 -25 0 -17 62 -161 171 -400 30 -64 130 -244 217 -390 71 -119 118 -184 177 -248 30 -33 55 -64 55 -69 0 -5 -54 -69 -120 -143 -65 -74 -153 -175 -194 -225 -41 -49 -112 -124 -157 -165 -46 -41 -135 -125 -199 -185 -132 -128 -184 -169 -234 -190 -29 -12 -36 -21 -36 -42 0 -14 8 -35 17 -45 20 -22 31 -122 14 -132 -6 -4 -11 -15 -11 -25 0 -33 22 -41 86 -33 45 5 60 11 62 25 5 24 -16 47 -43 47 -20 0 -23 6 -28 68 -3 37 -7 74 -9 82 -2 8 11 21 29 31 17 9 83 66 145 128 62 62 160 156 216 209 57 53 146 147 198 207 52 61 135 155 185 210 49 55 94 110 99 123 13 30 28 19 100 -66 30 -36 62 -72 71 -81 9 -9 25 -29 35 -46 10 -16 53 -70 94 -119 41 -48 84 -100 95 -114 11 -15 39 -44 62 -66 l41 -39 -13 -38 c-12 -33 -12 -47 0 -91 7 -29 20 -66 29 -83 14 -27 14 -31 -3 -50 -18 -20 -18 -55 0 -55 6 0 19 5 30 11 15 8 27 6 52 -10 51 -31 176 -32 207 -1 20 20 20 20 92 -32 40 -28 96 -69 123 -91 109 -85 190 -137 215 -137 14 0 31 -5 36 -10 14 -14 202 -21 210 -8 4 5 -4 21 -17 33 -19 19 -41 26 -110 33 -88 10 -173 40 -227 82 -15 12 -72 54 -127 95 -166 122 -155 110 -155 168 0 70 -39 131 -126 196 -69 52 -86 58 -140 42 -30 -8 -35 -5 -95 54 -61 60 -135 142 -209 235 -57 71 -121 143 -158 175 -18 16 -52 55 -75 85 -23 30 -57 74 -77 96 -19 23 -44 53 -55 66 -74 90 -298 474 -352 602 -38 90 -49 115 -121 267 l-50 107 -78 50 c-44 28 -92 65 -108 81 -32 34 -73 41 -83 15z m1540 -1909 c53 -30 102 -81 117 -119 6 -16 9 -30 8 -32 -4 -3 -178 164 -178 171 0 9 11 5 53 -20z m-13 -105 c3 -3 19 -17 36 -31 18 -14 46 -42 64 -62 l31 -36 -32 -13 c-71 -30 -134 4 -178 95 -20 42 -28 107 -14 121 5 5 41 -23 93 -74z"/>
</g>
</svg>
