<?xml version="1.0" standalone="no"?>
<!DOCTYPE svg PUBLIC "-//W3C//DTD SVG 20010904//EN" "http://www.w3.org/TR/2001/REC-SVG-20010904/DTD/svg10.dtd">
<svg xmlns="http://www.w3.org/2000/svg" version="1.0" width="360.000000pt" height="360.000000pt" viewBox="0 0 360.000000 360.000000" preserveAspectRatio="xMidYMid meet">

<g transform="translate(0.000000,360.000000) scale(0.100000,-0.100000)" fill="#000000" stroke="none">
<path d="M387 1306 c-17 -20 -57 -51 -87 -70 -87 -55 -100 -66 -100 -84 0 -55 37 -40 229 91 19 13 37 16 67 12 22 -3 58 -8 80 -10 35 -5 86 -17 359 -83 44 -10 109 -24 145 -31 36 -6 115 -22 175 -36 126 -27 282 -55 340 -61 81 -9 251 -36 275 -45 28 -10 252 -30 343 -31 31 0 57 -4 57 -9 0 -5 -14 -9 -30 -9 -39 0 -57 -38 -41 -90 12 -43 38 -145 56 -225 8 -33 11 -63 7 -67 -4 -4 -31 -8 -60 -9 -56 -2 -112 -29 -112 -54 0 -22 39 -28 117 -17 38 6 82 8 96 5 22 -4 28 0 36 20 6 16 6 36 0 54 -17 51 -61 237 -66 281 -5 41 -4 42 23 43 16 0 38 2 49 4 11 3 88 9 170 14 83 5 162 14 177 21 21 10 37 10 72 1 25 -6 60 -11 79 -11 l35 0 4 -55 c7 -86 57 -136 149 -150 30 -4 38 -11 44 -33 4 -15 12 -30 18 -34 17 -10 37 11 37 38 0 18 7 25 28 29 78 16 102 28 135 64 93 103 29 225 -131 253 -89 15 -151 2 -227 -46 -30 -20 -55 -30 -57 -24 -2 6 -17 12 -33 14 -17 1 -41 5 -55 9 -63 15 -300 37 -450 40 -214 6 -393 21 -525 45 -102 19 -171 30 -220 35 -45 5 -110 15 -290 45 -27 4 -88 17 -134 29 -46 12 -94 21 -106 21 -12 0 -75 13 -141 30 -65 16 -174 43 -241 59 -67 17 -146 33 -175 37 -29 4 -61 11 -71 16 -13 7 -24 1 -50 -26z m2788 -347 c11 -5 32 -13 47 -18 33 -12 61 -62 52 -95 -19 -76 -174 -116 -274 -71 -54 24 -76 86 -50 136 12 21 62 51 100 60 31 7 98 1 125 -12z m-805 -9 c0 -5 -21 -10 -46 -10 -27 0 -43 4 -39 10 3 6 24 10 46 10 21 0 39 -4 39 -10z"/>
</g>
</svg>
