<?xml version="1.0" standalone="no"?>
<!DOCTYPE svg PUBLIC "-//W3C//DTD SVG 20010904//EN" "http://www.w3.org/TR/2001/REC-SVG-20010904/DTD/svg10.dtd">
<svg xmlns="http://www.w3.org/2000/svg" version="1.0" width="360.000000pt" height="360.000000pt" viewBox="0 0 360.000000 360.000000" preserveAspectRatio="xMidYMid meet">

<g transform="translate(0.000000,360.000000) scale(0.100000,-0.100000)" fill="#000000" stroke="none">
<path d="M1512 3198 c-7 -7 -8 -17 -2 -29 13 -23 119 -93 175 -114 43 -17 54 -28 37 -39 -5 -3 -14 -31 -21 -63 -7 -32 -16 -65 -19 -73 -3 -8 -7 -28 -9 -45 -1 -16 -9 -61 -17 -100 -16 -76 -39 -209 -56 -320 -6 -38 -18 -110 -28 -160 -13 -67 -17 -140 -16 -290 0 -198 6 -243 43 -339 9 -23 7 -50 -8 -130 -28 -147 -39 -223 -41 -290 0 -33 -3 -64 -6 -68 -3 -5 -5 -65 -5 -134 1 -100 5 -135 20 -168 l18 -42 -24 -49 c-27 -52 -97 -258 -108 -316 -5 -26 -2 -39 9 -48 17 -14 131 -17 231 -6 44 5 89 1 165 -14 120 -24 165 -28 198 -17 31 10 13 32 -32 40 -19 4 -39 13 -46 21 -7 8 -21 15 -31 15 -10 0 -45 9 -76 19 -33 11 -75 18 -98 16 -22 -2 -86 -7 -142 -10 -103 -7 -103 -7 -103 17 0 13 11 56 25 96 14 41 25 78 25 83 0 6 42 81 65 117 8 11 36 -16 50 -48 25 -54 101 -120 140 -120 9 0 14 -4 11 -8 -6 -10 21 -52 34 -52 4 0 13 13 18 28 8 22 16 29 38 30 28 1 70 17 124 47 37 21 69 101 58 148 -23 106 -98 152 -238 148 -101 -3 -155 -27 -178 -80 l-17 -40 -29 26 c-28 24 -30 32 -40 129 -16 165 25 519 70 606 17 33 12 68 -21 143 -33 75 -38 113 -38 266 1 157 15 266 64 499 10 52 32 172 49 267 19 115 38 190 55 226 14 30 25 60 25 67 0 17 -24 35 -95 69 -33 16 -84 45 -114 65 -57 39 -71 42 -89 24z m432 -2343 c3 -8 15 -15 26 -15 35 0 58 -18 70 -54 9 -28 8 -40 -5 -65 -23 -46 -66 -64 -139 -58 -86 7 -92 10 -126 42 -23 22 -30 38 -30 64 1 42 14 62 55 84 40 21 141 23 149 2z"/>
</g>
</svg>
