<?xml version="1.0" standalone="no"?>
<!DOCTYPE svg PUBLIC "-//W3C//DTD SVG 20010904//EN" "http://www.w3.org/TR/2001/REC-SVG-20010904/DTD/svg10.dtd">
<svg xmlns="http://www.w3.org/2000/svg" version="1.0" width="360.000000pt" height="360.000000pt" viewBox="0 0 360.000000 360.000000" preserveAspectRatio="xMidYMid meet">

<g transform="translate(0.000000,360.000000) scale(0.100000,-0.100000)" fill="#000000" stroke="none">
<path d="M875 1679 c-51 -8 -130 -26 -220 -50 -54 -15 -150 -96 -189 -159 -84 -134 -92 -278 -20 -341 40 -35 216 -44 264 -14 13 8 192 52 310 75 58 12 157 32 220 45 63 13 140 26 170 30 l55 6 -32 -23 c-38 -27 -40 -44 -14 -113 17 -47 22 -76 36 -215 4 -30 10 -71 15 -90 5 -19 12 -87 16 -150 4 -63 11 -123 16 -133 8 -15 19 -16 96 -11 100 8 132 17 132 38 0 26 -55 47 -113 44 l-52 -3 -3 55 c-1 30 -9 91 -17 135 -8 44 -22 136 -31 205 -9 69 -18 139 -21 156 -4 28 1 35 47 72 l51 41 120 0 120 -1 14 -27 c7 -15 21 -33 29 -40 14 -12 14 -16 1 -42 -8 -15 -15 -33 -15 -39 0 -15 39 -12 56 5 18 17 24 18 42 6 17 -10 30 -177 19 -250 -10 -76 6 -93 82 -86 30 3 57 8 59 10 3 2 13 0 23 -5 23 -13 32 1 23 34 -6 25 -19 33 -71 42 -16 3 -31 8 -34 12 -4 4 -10 52 -14 107 l-7 101 41 -4 c75 -7 129 7 171 44 l38 35 59 -19 c98 -33 84 -31 548 -72 50 -5 104 -11 121 -15 28 -6 39 -1 88 39 57 46 96 63 116 51 5 -3 13 2 16 12 3 10 10 26 15 35 5 10 5 19 0 23 -8 5 -118 7 -201 5 -19 -1 -62 3 -95 9 -76 13 -114 19 -195 30 -76 10 -230 47 -280 67 -19 7 -46 16 -60 18 -36 6 -63 17 -81 33 -14 12 -19 12 -33 -3 -9 -9 -18 -15 -19 -13 -1 2 -11 22 -22 43 -26 52 -70 85 -141 108 -81 25 -191 10 -237 -33 -19 -17 -21 -17 -53 7 -18 14 -61 36 -96 48 -35 13 -76 28 -91 35 -16 6 -34 11 -40 11 -7 0 -21 6 -32 14 -17 12 -40 19 -105 33 -8 2 -40 6 -72 8 -31 3 -91 12 -135 20 -83 14 -305 17 -388 4z m410 -78 c174 -26 214 -35 318 -74 l108 -40 -63 -66 c-35 -36 -63 -66 -63 -67 0 -1 -36 -5 -80 -9 -44 -3 -168 -24 -275 -46 -107 -23 -215 -45 -240 -49 -47 -9 -143 -31 -245 -56 -170 -43 -232 -39 -260 16 -35 68 -6 162 83 268 53 63 70 72 187 101 50 12 104 26 120 31 41 11 311 5 410 -9z m862 -161 c44 -23 70 -68 80 -138 6 -44 5 -45 -18 -40 -13 3 -60 14 -104 23 -44 10 -107 25 -140 35 -52 15 -60 21 -63 44 -4 35 21 72 61 91 42 19 133 12 184 -15z m-312 -9 c-4 -9 -9 -31 -12 -49 -6 -33 -7 -33 -42 -26 -20 5 -51 8 -69 8 l-32 -1 27 29 c15 15 34 28 43 28 9 0 25 9 34 19 21 23 61 17 51 -8z m675 -165 c36 -8 103 -24 150 -35 47 -11 112 -23 145 -26 92 -10 205 -36 205 -47 0 -8 -30 -9 -92 -4 -93 7 -125 9 -293 21 -89 6 -265 43 -302 64 -13 6 -20 21 -21 44 l-1 34 72 -18 c40 -9 101 -24 137 -33z m-468 -36 c40 -11 85 -20 99 -20 44 0 62 -10 48 -26 -28 -35 -162 -8 -229 46 -33 26 -13 26 82 0z"/>
</g>
</svg>
