<?xml version="1.0" standalone="no"?>
<!DOCTYPE svg PUBLIC "-//W3C//DTD SVG 20010904//EN" "http://www.w3.org/TR/2001/REC-SVG-20010904/DTD/svg10.dtd">
<svg xmlns="http://www.w3.org/2000/svg" version="1.0" width="360.000000pt" height="360.000000pt" viewBox="0 0 360.000000 360.000000" preserveAspectRatio="xMidYMid meet">

<g transform="translate(0.000000,360.000000) scale(0.100000,-0.100000)" fill="#000000" stroke="none">
<path d="M1750 2383 c-42 -7 -102 -55 -134 -108 -29 -47 -31 -56 -31 -145 1 -84 4 -101 29 -152 16 -32 34 -58 40 -58 6 0 3 -5 -7 -11 -9 -6 -31 -36 -47 -67 -16 -31 -48 -86 -69 -120 -22 -35 -41 -68 -43 -74 -2 -5 -53 20 -113 57 -149 90 -180 105 -220 107 -75 3 -87 -45 -45 -191 35 -125 86 -370 101 -491 17 -134 17 -135 -11 -138 -14 -2 -32 -10 -40 -17 -8 -7 -34 -22 -58 -34 -44 -23 -52 -44 -22 -64 16 -9 43 1 160 56 53 26 57 41 40 142 -33 197 -84 461 -107 545 -13 52 -25 99 -26 103 -1 5 6 14 15 20 13 9 27 4 70 -22 29 -19 67 -42 85 -52 28 -16 103 -63 127 -81 5 -3 1 -23 -10 -45 -16 -32 -19 -65 -22 -223 -1 -102 -7 -209 -12 -239 -6 -30 -10 -76 -10 -103 0 -40 -4 -50 -25 -64 -28 -18 -34 -59 -9 -68 8 -3 26 1 40 10 15 10 24 12 24 5 0 -7 9 -5 25 5 27 17 33 52 13 72 -9 9 -8 45 1 154 7 78 12 193 12 255 -1 117 16 193 44 193 11 0 86 -67 201 -177 15 -15 54 -17 54 -4 0 5 12 12 28 15 15 4 53 29 85 56 32 28 63 48 67 45 41 -25 69 -400 40 -539 -6 -32 -9 -60 -6 -64 7 -6 98 -4 104 3 3 2 1 20 -2 39 -5 24 -11 33 -20 30 -12 -5 -13 12 -9 93 8 157 -10 369 -35 422 -12 25 -21 45 -19 46 46 34 193 123 248 150 41 21 83 45 94 55 26 22 55 32 55 19 0 -6 -11 -54 -24 -107 -21 -84 -43 -223 -38 -244 2 -7 -11 -101 -29 -218 -35 -234 -35 -235 -3 -262 15 -12 38 -34 51 -47 16 -16 37 -25 68 -27 42 -4 45 -3 45 20 0 25 -46 67 -87 80 -46 15 -47 24 -19 223 14 104 32 244 41 313 8 69 22 143 30 166 7 23 17 63 20 90 6 42 4 52 -14 68 -26 24 -75 16 -127 -22 -22 -16 -55 -35 -74 -43 -42 -17 -184 -101 -223 -131 -17 -14 -30 -18 -36 -12 -8 8 -25 60 -88 271 -9 29 -21 57 -28 63 -18 15 -47 1 -41 -19 3 -9 19 -68 37 -131 17 -63 39 -138 49 -166 l17 -51 -66 -54 c-36 -30 -70 -54 -76 -54 -6 0 -10 81 -10 231 l0 230 37 16 c75 32 133 156 132 284 0 79 -8 94 -81 157 -43 36 -56 39 -113 30z m68 -74 c2 -5 9 -9 15 -9 7 0 21 -13 32 -28 16 -22 20 -43 20 -107 0 -69 -4 -86 -28 -127 -35 -60 -61 -78 -113 -78 -48 0 -67 17 -89 79 -39 113 3 241 95 283 18 9 64 0 68 -13z m-97 -486 c1 -175 -2 -310 -7 -340 l-6 -33 -54 52 c-29 28 -69 61 -89 75 -40 27 -41 17 25 128 16 28 46 83 66 123 49 96 64 95 65 -5z"/>
</g>
</svg>
