<svg width="655" height="655" viewBox="0 0 655 655" fill="none" xmlns="http://www.w3.org/2000/svg">
<path d="M547.896 305.835C547.896 305.835 535.013 259.97 482.928 259.41C430.842 259.41 391.633 296.327 383.233 336.6C380.431 349.466 383.233 367.364 383.233 367.364C383.233 367.364 361.391 360.094 352.428 341.635C343.466 323.176 333.945 316.463 322.746 315.906C311.546 314.789 302.022 324.857 294.743 323.177C287.463 321.496 292.502 314.226 292.502 314.226C292.502 314.226 313.784 274.513 300.904 245.426C288.021 216.339 237.615 224.73 228.095 226.407C218.574 227.525 165.367 241.512 136.244 264.442C136.244 264.442 144.645 267.797 149.684 273.951C154.165 280.103 167.045 304.155 172.087 308.63C177.129 313.106 184.97 315.901 184.97 315.901C184.97 315.901 211.293 273.95 224.734 261.084C238.174 248.219 260.577 240.948 260.577 240.948C260.577 240.948 275.701 258.286 274.018 271.153C272.338 284.019 264.497 309.748 216.89 332.122C216.89 332.122 215.21 367.92 225.853 379.665C235.934 390.851 251.057 390.293 251.057 390.293C251.057 390.293 280.182 348.903 310.983 348.903C310.983 348.903 320.503 371.838 319.384 388.058C317.705 404.279 298.103 477.552 228.654 477.552C214.092 477.552 200.09 473.077 200.09 473.077C200.09 473.077 193.368 447.348 181.607 423.853C169.85 400.362 153.608 366.803 106 334.923C106 334.923 133.442 358.414 145.764 413.791C154.726 453.503 159.204 480.913 183.287 508.881C192.807 520.066 218.573 543 231.452 543H262.814C270.654 543 315.46 525.662 340.104 477.556C364.748 429.453 359.705 361.21 359.705 361.21C359.705 361.21 383.788 381.907 392.75 402.6C402.832 424.974 417.955 443.433 417.955 443.433C417.955 443.433 438.678 426.095 457.16 431.687C473.402 436.723 489.084 433.365 505.325 417.144C521.567 400.923 538.928 375.754 543.971 350.021C549.013 324.293 547.894 305.833 547.894 305.833L547.896 305.835ZM493.009 382.466C476.768 414.348 428.602 423.856 428.602 423.856C428.602 423.856 412.36 377.43 426.922 344.988C441.485 312.546 462.208 300.239 498.052 317.021C497.491 317.582 509.251 350.584 493.009 382.466Z" fill="black"/>
<path d="M292 192.041C292 192.041 300.402 251.301 373.779 252.966C447.156 254.627 468.435 194.811 469 180.41C469 180.41 467.881 174.873 453.875 172.102C440.434 169.332 434.272 172.657 434.272 172.657C434.272 172.657 409.066 223.058 360.895 223.058C312.726 223.058 302.644 183.181 292.001 192.041L292 192.041Z" fill="black"/>
<path d="M382.009 181C382.009 181 399.224 158.521 383.119 136.042C367.014 113 337.024 113 337.024 113C337.024 113 335.915 146.158 348.686 162.454C361.461 178.751 382.009 181 382.009 181Z" fill="black"/>
</svg>
