<?xml version="1.0" standalone="no"?>
<!DOCTYPE svg PUBLIC "-//W3C//DTD SVG 20010904//EN" "http://www.w3.org/TR/2001/REC-SVG-20010904/DTD/svg10.dtd">
<svg xmlns="http://www.w3.org/2000/svg" version="1.0" width="360.000000pt" height="360.000000pt" viewBox="0 0 360.000000 360.000000" preserveAspectRatio="xMidYMid meet">

<g transform="translate(0.000000,360.000000) scale(0.100000,-0.100000)" fill="#000000" stroke="none">
<path d="M2073 2932 c-12 -2 -27 -10 -33 -18 -7 -8 -18 -14 -25 -14 -22 0 -101 -78 -126 -125 l-24 -46 -52 7 c-34 4 -53 3 -53 -4 0 -6 -3 -17 -6 -25 -7 -18 24 -50 42 -43 8 3 21 9 29 12 12 5 15 -2 15 -27 0 -86 59 -179 114 -179 14 0 26 -2 26 -5 0 -2 -12 -21 -26 -42 l-25 -38 -382 -5 c-210 -3 -409 -2 -442 1 -33 3 -62 5 -64 3 -9 -7 10 -52 24 -58 22 -8 806 -9 828 -1 20 8 -57 -153 -183 -380 -183 -330 -194 -362 -139 -393 37 -21 185 -128 219 -160 14 -13 62 -51 108 -85 54 -40 82 -68 82 -81 0 -20 -73 -131 -190 -291 -131 -178 -192 -274 -188 -297 3 -23 5 -23 153 -23 162 0 219 11 213 42 -5 25 -57 33 -175 27 -102 -5 -120 0 -88 26 8 7 15 17 15 23 0 5 15 30 33 56 47 65 94 133 162 231 32 47 82 116 111 154 61 80 60 94 -10 138 -24 16 -97 69 -162 118 -66 50 -142 106 -171 126 -75 51 -79 57 -58 101 27 62 119 241 172 338 27 50 75 142 107 205 l57 115 72 -6 c173 -13 607 7 716 34 121 30 50 61 -107 47 -321 -28 -398 -32 -493 -26 -104 6 -148 11 -156 20 -3 2 0 13 6 24 6 11 9 27 6 35 -4 9 6 17 32 26 21 6 62 30 92 54 108 84 152 185 124 282 -18 61 -33 79 -87 104 -53 24 -66 28 -93 23z m75 -77 c32 -16 52 -57 52 -107 0 -44 -36 -110 -89 -162 -40 -40 -57 -49 -94 -53 -41 -5 -49 -2 -77 25 -23 24 -30 39 -30 70 0 82 68 184 150 224 43 22 49 22 88 3z"/>
</g>
</svg>
