<?xml version="1.0" standalone="no"?>
<!DOCTYPE svg PUBLIC "-//W3C//DTD SVG 20010904//EN" "http://www.w3.org/TR/2001/REC-SVG-20010904/DTD/svg10.dtd">
<svg xmlns="http://www.w3.org/2000/svg" version="1.0" width="360.000000pt" height="360.000000pt" viewBox="0 0 360.000000 360.000000" preserveAspectRatio="xMidYMid meet">

<g transform="translate(0.000000,360.000000) scale(0.100000,-0.100000)" fill="#000000" stroke="none">
<path d="M2151 2885 c-118 -68 -167 -137 -178 -249 -4 -46 -1 -79 12 -118 l17 -55 -37 -74 c-36 -70 -145 -226 -248 -354 -27 -33 -58 -78 -69 -100 -12 -22 -46 -76 -77 -120 -116 -167 -144 -212 -172 -273 -18 -40 -27 -72 -23 -87 6 -24 64 -76 99 -89 11 -4 63 -37 117 -74 114 -78 132 -88 338 -194 85 -44 160 -85 166 -91 9 -9 -3 -43 -48 -137 -61 -127 -102 -234 -153 -395 -16 -49 -36 -103 -45 -120 -20 -35 -17 -85 5 -101 15 -12 230 -10 267 2 64 20 -40 78 -130 72 l-57 -3 2 40 c7 115 198 595 237 595 9 0 23 11 32 24 20 32 9 52 -42 77 -29 13 -32 17 -12 13 63 -13 98 26 45 51 -122 59 -158 95 -178 183 -7 29 -13 221 -15 502 -3 250 -5 465 -5 477 -1 12 12 43 27 67 25 39 32 44 56 39 54 -11 111 15 183 83 l69 64 53 -9 c30 -4 56 -4 59 0 8 14 -12 44 -40 58 -32 17 -40 40 -26 75 14 39 1 131 -24 169 -26 39 -91 77 -131 77 -16 0 -50 -11 -74 -25z m139 -85 c31 -29 32 -33 28 -88 -5 -73 -30 -124 -90 -184 -77 -77 -132 -78 -168 -2 -52 106 -4 235 105 285 57 27 88 24 125 -11z m-341 -1007 c-1 -521 5 -584 61 -635 29 -27 43 -51 18 -30 -7 5 -78 43 -158 83 -80 40 -165 89 -190 109 -25 20 -67 49 -95 65 -27 15 -67 41 -88 58 -34 26 -37 33 -32 61 4 17 19 54 34 81 46 83 244 387 317 487 39 51 83 112 98 136 16 23 30 42 32 42 2 0 3 -206 3 -457z"/>
</g>
</svg>
