<?xml version="1.0" standalone="no"?>
<!DOCTYPE svg PUBLIC "-//W3C//DTD SVG 20010904//EN" "http://www.w3.org/TR/2001/REC-SVG-20010904/DTD/svg10.dtd">
<svg xmlns="http://www.w3.org/2000/svg" version="1.0" width="360.000000pt" height="360.000000pt" viewBox="0 0 360.000000 360.000000" preserveAspectRatio="xMidYMid meet">

<g transform="translate(0.000000,360.000000) scale(0.100000,-0.100000)" fill="#000000" stroke="none">
<path d="M1905 2819 c-106 -35 -175 -122 -195 -245 -7 -44 -6 -62 7 -88 15 -33 15 -34 -37 -132 -29 -54 -61 -117 -73 -139 -11 -22 -31 -58 -45 -79 -13 -22 -46 -78 -72 -125 -26 -47 -63 -113 -82 -146 -20 -33 -73 -125 -120 -205 -46 -80 -95 -163 -110 -186 -14 -22 -32 -59 -39 -82 -10 -35 -10 -45 5 -67 9 -14 24 -25 32 -25 29 0 217 41 236 51 19 10 99 29 208 50 59 11 74 14 195 30 44 5 96 14 115 19 19 4 54 11 78 14 42 6 43 6 31 -16 -7 -13 -92 -104 -190 -203 -98 -99 -197 -205 -221 -235 -24 -30 -58 -70 -75 -88 -24 -24 -33 -43 -33 -67 0 -59 6 -65 69 -65 31 0 62 -5 68 -11 12 -12 122 -14 154 -4 11 4 24 15 30 26 8 16 5 25 -19 47 -26 24 -36 27 -88 25 -32 -2 -76 -6 -96 -9 -28 -5 -38 -3 -38 7 0 28 141 190 323 372 183 182 207 213 207 262 0 48 -15 48 -315 -5 -27 -5 -86 -14 -130 -21 -93 -13 -239 -45 -274 -60 -14 -6 -45 -14 -70 -19 -25 -6 -63 -14 -84 -19 -20 -5 -39 -6 -42 -2 -4 7 28 76 72 156 9 17 19 37 23 45 4 9 53 94 108 190 55 96 107 192 116 213 37 89 47 96 166 112 19 3 52 9 72 14 20 5 39 7 41 5 11 -11 450 -21 611 -13 107 5 123 14 90 51 -19 20 -19 20 31 17 54 -3 85 6 85 25 -1 34 -15 36 -256 41 -131 3 -303 10 -381 16 -78 6 -179 9 -223 6 -62 -4 -79 -3 -72 6 18 23 72 127 72 141 0 10 11 11 53 4 76 -12 128 5 193 65 30 27 54 47 54 44 0 -3 21 1 47 7 31 8 49 18 51 29 4 17 -2 21 -49 31 l-27 6 15 42 c21 62 20 101 -4 132 -57 72 -105 86 -198 55z m138 -90 c19 -26 19 -28 2 -80 -24 -75 -51 -116 -98 -150 -53 -38 -117 -40 -152 -4 -30 29 -34 98 -9 148 25 50 83 105 104 100 10 -3 21 0 25 7 4 6 27 10 57 8 42 -2 55 -8 71 -29z m-55 -540 c68 -5 189 -9 270 -9 81 0 154 -5 162 -10 11 -7 6 -9 -20 -9 -19 0 -45 -2 -58 -5 -12 -3 -134 0 -270 6 -163 7 -278 7 -337 1 -49 -6 -91 -9 -93 -8 -1 1 2 14 8 29 l10 27 102 -6 c57 -3 158 -10 226 -16z"/>
</g>
</svg>
