<?xml version="1.0" standalone="no"?>
<!DOCTYPE svg PUBLIC "-//W3C//DTD SVG 20010904//EN" "http://www.w3.org/TR/2001/REC-SVG-20010904/DTD/svg10.dtd">
<svg xmlns="http://www.w3.org/2000/svg" version="1.0" width="360.000000pt" height="360.000000pt" viewBox="0 0 360.000000 360.000000" preserveAspectRatio="xMidYMid meet">

<g transform="translate(0.000000,360.000000) scale(0.100000,-0.100000)" fill="#000000" stroke="none">
<path d="M1871 2690 c-63 -23 -68 -26 -105 -68 -17 -19 -39 -44 -50 -56 -48 -54 -70 -183 -42 -249 15 -37 15 -40 -13 -95 -16 -31 -63 -138 -106 -237 -42 -99 -82 -189 -89 -200 -6 -11 -29 -60 -51 -110 -22 -49 -52 -112 -68 -139 -16 -27 -36 -68 -44 -90 -9 -23 -20 -46 -25 -52 -4 -6 -10 -31 -13 -55 l-5 -44 142 -93 c79 -51 172 -111 208 -133 78 -49 110 -77 110 -97 0 -8 -21 -38 -47 -67 -69 -74 -124 -142 -155 -189 -15 -22 -31 -45 -36 -51 -42 -54 -89 -135 -108 -187 -11 -33 -11 -40 5 -59 17 -21 27 -23 140 -25 67 -1 124 2 127 7 6 10 -14 51 -30 61 -6 4 -46 8 -89 8 -77 0 -78 1 -71 22 20 63 160 260 265 373 59 64 83 109 74 144 -9 35 -24 47 -130 111 -178 106 -315 202 -321 225 -7 27 47 166 89 227 10 15 27 53 37 85 11 32 43 109 72 171 l52 112 68 0 c38 0 88 -4 111 -9 23 -5 83 -14 132 -21 50 -6 140 -17 200 -25 61 -8 138 -16 172 -19 34 -3 80 -13 103 -22 40 -16 42 -16 62 3 37 38 18 57 -95 93 -56 17 -113 36 -126 41 -13 6 -65 16 -115 24 -200 32 -362 75 -408 108 -26 19 -26 20 -13 64 8 25 15 47 17 49 2 2 23 -6 46 -17 35 -18 49 -20 81 -12 43 12 136 78 168 121 20 27 26 29 72 25 29 -2 52 1 56 7 8 13 -22 49 -49 59 -15 6 -19 20 -22 76 -3 49 -10 79 -28 109 -22 38 -23 43 -9 52 14 9 12 13 -16 33 -41 30 -69 32 -130 11z m88 -118 c25 -36 34 -82 25 -140 -5 -35 -17 -57 -50 -92 -24 -26 -59 -55 -77 -65 l-33 -18 -43 40 -43 40 11 72 c13 83 28 116 71 160 26 25 40 31 75 31 37 0 47 -5 64 -28z m-159 -561 c146 -38 169 -52 49 -32 -30 6 -88 15 -129 22 -79 13 -96 20 -86 38 9 14 -14 17 166 -28z"/>
</g>
</svg>
