<?xml version="1.0" standalone="no"?>
<!DOCTYPE svg PUBLIC "-//W3C//DTD SVG 20010904//EN" "http://www.w3.org/TR/2001/REC-SVG-20010904/DTD/svg10.dtd">
<svg xmlns="http://www.w3.org/2000/svg" version="1.0" width="360.000000pt" height="360.000000pt" viewBox="0 0 360.000000 360.000000" preserveAspectRatio="xMidYMid meet">

<g transform="translate(0.000000,360.000000) scale(0.100000,-0.100000)" fill="#000000" stroke="none">
<path d="M2174 2925 c-52 -23 -131 -103 -158 -159 -37 -79 -41 -122 -18 -183 l20 -53 -90 -91 c-49 -51 -112 -119 -140 -153 -28 -34 -83 -95 -122 -136 -39 -42 -102 -113 -141 -160 -38 -46 -98 -113 -131 -149 -89 -95 -164 -196 -171 -231 -3 -17 0 -49 6 -73 13 -46 16 -48 159 -124 90 -47 93 -49 198 -116 76 -49 120 -75 204 -119 30 -16 60 -34 67 -40 20 -16 15 -48 -13 -85 -14 -18 -51 -84 -83 -146 -103 -199 -129 -241 -180 -291 -28 -27 -51 -54 -51 -60 0 -6 7 -31 16 -56 11 -33 14 -63 8 -117 -8 -92 1 -107 60 -97 23 4 57 6 77 5 40 -2 63 17 53 43 -9 24 -62 49 -89 42 -21 -5 -22 -3 -28 80 -5 85 -5 87 32 146 48 80 73 124 139 248 30 58 73 131 94 162 20 31 43 77 50 101 10 39 9 49 -5 71 -10 14 -24 26 -32 26 -15 0 -120 54 -187 96 -56 35 -318 189 -355 208 -47 24 -66 57 -58 100 7 35 47 87 156 204 27 29 63 72 80 95 30 42 59 76 235 275 l101 115 194 -2 c107 -1 233 2 279 8 47 6 215 12 374 14 306 3 319 5 280 48 -18 20 -27 20 -298 14 -155 -3 -299 -10 -321 -15 -64 -15 -435 -13 -435 3 1 6 23 36 50 65 l50 54 37 -13 c70 -23 151 -5 216 48 20 16 42 23 73 23 47 0 55 11 28 41 -15 17 -14 22 7 66 30 61 34 168 6 188 -9 7 -17 17 -17 22 0 11 -39 46 -68 62 -28 15 -120 12 -158 -4z m139 -67 c52 -36 58 -48 54 -110 -3 -47 -9 -65 -34 -95 -17 -21 -36 -37 -42 -35 -10 2 -15 -11 -12 -30 2 -15 -88 -48 -130 -48 -65 0 -93 32 -96 108 -3 105 74 201 179 221 24 5 45 9 46 10 2 1 18 -9 35 -21z"/>
</g>
</svg>
