<?xml version="1.0" standalone="no"?>
<!DOCTYPE svg PUBLIC "-//W3C//DTD SVG 20010904//EN" "http://www.w3.org/TR/2001/REC-SVG-20010904/DTD/svg10.dtd">
<svg xmlns="http://www.w3.org/2000/svg" version="1.0" width="360.000000pt" height="360.000000pt" viewBox="0 0 360.000000 360.000000" preserveAspectRatio="xMidYMid meet">

<g transform="translate(0.000000,360.000000) scale(0.100000,-0.100000)" fill="#000000" stroke="none">
<path d="M1257 3383 c-16 -15 -5 -48 37 -111 63 -98 89 -153 128 -282 61 -198 78 -263 82 -315 6 -78 34 -161 71 -210 52 -68 73 -124 85 -226 6 -52 16 -130 21 -174 6 -44 12 -206 14 -360 3 -271 0 -329 -35 -630 -5 -49 -15 -137 -20 -195 -6 -58 -16 -127 -24 -155 -8 -27 -21 -81 -29 -120 -8 -38 -27 -105 -43 -148 -38 -107 -28 -122 66 -103 19 4 62 9 94 11 61 5 106 31 92 53 -9 14 -113 27 -129 15 -17 -12 -67 -16 -67 -5 0 5 11 44 24 88 41 135 58 234 91 519 9 77 21 174 26 215 13 98 19 655 8 745 -4 39 -11 108 -15 155 -3 47 -14 124 -24 172 -9 48 -15 90 -12 93 3 3 15 5 26 5 37 0 80 35 104 84 19 38 23 59 20 112 -3 65 -3 65 40 109 23 24 42 46 42 49 0 3 -9 10 -19 16 -16 8 -26 5 -50 -16 -17 -14 -34 -23 -38 -21 -5 3 -21 31 -38 62 -34 65 -53 79 -112 76 -54 -2 -90 -16 -113 -44 -22 -26 -15 -38 -65 131 -33 115 -120 304 -177 385 -18 25 -47 35 -61 20z m470 -595 c14 -24 35 -74 45 -112 15 -57 16 -76 6 -110 -14 -52 -39 -78 -76 -82 -26 -3 -31 1 -47 39 -9 23 -22 53 -28 67 -38 92 -54 155 -45 180 16 43 38 60 79 60 35 0 42 -5 66 -42z"/>
</g>
</svg>
