<?xml version="1.0" standalone="no"?>
<!DOCTYPE svg PUBLIC "-//W3C//DTD SVG 20010904//EN" "http://www.w3.org/TR/2001/REC-SVG-20010904/DTD/svg10.dtd">
<svg xmlns="http://www.w3.org/2000/svg" version="1.0" width="360.000000pt" height="360.000000pt" viewBox="0 0 360.000000 360.000000" preserveAspectRatio="xMidYMid meet">

<g transform="translate(0.000000,360.000000) scale(0.100000,-0.100000)" fill="#000000" stroke="none">
<path d="M1603 2275 c-59 -25 -75 -98 -30 -139 15 -14 27 -30 27 -35 0 -6 11 -34 24 -63 79 -176 111 -378 104 -657 l-3 -145 -50 -20 c-59 -23 -55 -19 -91 -110 -15 -39 -37 -85 -49 -101 -13 -17 -39 -63 -58 -103 -32 -65 -70 -128 -87 -142 -3 -3 -18 -25 -33 -49 l-29 -43 -63 5 c-74 6 -108 -9 -89 -40 8 -14 26 -19 75 -21 35 -2 69 -8 76 -14 11 -8 21 -4 43 17 17 16 30 33 30 39 0 5 21 41 47 79 25 39 57 93 71 121 13 28 39 74 57 101 19 28 45 73 59 100 14 28 37 64 51 80 l26 30 -5 -130 c-5 -127 -23 -255 -46 -332 -25 -83 5 -122 61 -82 29 20 43 24 99 21 171 -8 165 -9 168 14 5 36 -70 61 -181 60 -42 -1 -77 0 -77 1 0 1 6 35 14 76 8 42 18 142 22 224 7 155 21 225 21 106 0 -74 12 -105 52 -140 62 -55 211 -3 266 91 13 23 35 74 49 115 22 62 24 81 16 110 -15 56 -12 66 23 82 30 13 32 17 31 61 0 27 -7 55 -15 65 -9 10 -21 46 -27 80 -11 54 -33 120 -63 188 -5 11 -20 51 -34 88 -50 134 -85 188 -190 290 -62 61 -196 137 -237 137 -13 -1 -37 -7 -55 -15z m135 -82 c49 -23 191 -165 227 -227 16 -27 42 -85 58 -130 73 -204 97 -279 97 -304 0 -59 -14 -104 -40 -132 -25 -26 -35 -30 -85 -30 -46 0 -63 -5 -91 -27 -27 -20 -38 -23 -43 -14 -10 16 -43 21 -58 8 -10 -7 -13 6 -13 62 0 123 -20 374 -34 421 -7 25 -19 68 -26 95 -7 28 -35 101 -62 163 -43 95 -48 114 -37 128 15 18 50 14 107 -13z m320 -909 c39 -8 47 -37 26 -100 -38 -114 -133 -182 -204 -144 -21 11 -35 75 -25 120 9 42 57 89 113 111 55 21 51 21 90 13z"/>
</g>
</svg>
