<?xml version="1.0" standalone="no"?>
<!DOCTYPE svg PUBLIC "-//W3C//DTD SVG 20010904//EN" "http://www.w3.org/TR/2001/REC-SVG-20010904/DTD/svg10.dtd">
<svg xmlns="http://www.w3.org/2000/svg" version="1.0" width="360.000000pt" height="360.000000pt" viewBox="0 0 360.000000 360.000000" preserveAspectRatio="xMidYMid meet">

<g transform="translate(0.000000,360.000000) scale(0.100000,-0.100000)" fill="#000000" stroke="none">
<path d="M1527 2396 c-55 -37 -57 -78 -14 -204 33 -93 40 -129 52 -272 25 -287 31 -420 31 -594 l-1 -168 -65 -37 c-60 -34 -65 -40 -68 -74 -2 -29 4 -46 26 -75 16 -20 40 -67 55 -104 25 -62 26 -71 15 -125 -6 -32 -22 -78 -35 -102 -29 -56 -29 -69 3 -81 18 -7 33 -6 54 5 47 24 57 20 64 -30 10 -65 27 -77 95 -70 116 13 127 19 98 59 -9 12 -29 19 -61 20 -33 2 -52 8 -58 20 -7 13 -4 16 20 16 17 0 40 9 53 19 23 19 23 21 7 37 -11 11 -35 18 -63 19 -25 1 -49 5 -52 9 -8 8 -44 135 -44 156 -1 62 24 309 32 325 7 11 29 35 51 54 39 34 39 34 33 9 -5 -21 -2 -30 19 -43 14 -9 29 -15 33 -12 4 3 8 -19 9 -48 0 -42 6 -61 28 -89 32 -42 58 -51 129 -42 42 6 64 16 102 47 53 44 68 66 90 142 23 77 19 133 -12 186 -14 25 -31 49 -37 53 -6 4 -17 12 -25 17 -12 8 -11 15 6 43 11 18 23 58 27 88 7 57 9 233 3 260 -2 8 -9 42 -16 75 -20 94 -133 302 -195 359 -17 16 -49 40 -71 54 -22 14 -66 42 -98 63 -44 29 -73 40 -123 47 -59 8 -69 7 -97 -12z m145 -73 c24 -9 76 -39 116 -65 88 -59 144 -131 212 -273 38 -79 49 -114 54 -168 2 -37 7 -71 11 -76 11 -18 -12 -170 -29 -186 -8 -9 -19 -21 -23 -28 -10 -15 -86 -82 -138 -122 -22 -16 -60 -48 -85 -71 -25 -22 -64 -54 -86 -72 l-42 -32 -1 163 c-1 89 -3 171 -5 182 -7 45 -17 180 -26 345 -7 131 -14 193 -31 245 -40 130 -42 142 -36 158 8 22 54 22 109 0z m299 -941 c-62 -51 -94 -83 -111 -110 -8 -13 -26 -24 -40 -26 -14 -1 -31 -6 -38 -10 -7 -4 -12 -4 -11 1 0 11 221 183 234 183 5 0 -10 -17 -34 -38z m121 -85 c13 -26 14 -45 6 -92 -15 -98 -60 -154 -130 -162 -57 -6 -79 11 -85 69 -8 65 22 126 87 177 66 52 100 54 122 8z m-500 -287 c-2 -39 -7 -68 -12 -65 -5 3 -16 26 -26 51 l-18 46 25 19 c13 10 26 19 29 19 3 0 4 -32 2 -70z"/>
</g>
</svg>
