<?xml version="1.0" standalone="no"?>
<!DOCTYPE svg PUBLIC "-//W3C//DTD SVG 20010904//EN" "http://www.w3.org/TR/2001/REC-SVG-20010904/DTD/svg10.dtd">
<svg xmlns="http://www.w3.org/2000/svg" version="1.0" width="360.000000pt" height="360.000000pt" viewBox="0 0 360.000000 360.000000" preserveAspectRatio="xMidYMid meet">

<g transform="translate(0.000000,360.000000) scale(0.100000,-0.100000)" fill="#000000" stroke="none">
<path d="M1186 2338 c-22 -30 -20 -83 3 -116 11 -15 25 -52 31 -82 7 -30 23 -91 36 -135 63 -214 69 -550 15 -865 -47 -280 -81 -429 -111 -490 -29 -58 -2 -97 56 -81 15 4 57 3 92 -1 40 -5 70 -4 77 2 7 6 24 11 39 12 33 3 41 27 22 72 -17 41 -40 46 -103 22 -21 -8 -53 -17 -70 -20 -40 -7 -42 4 -13 98 32 102 101 506 111 651 11 144 5 328 -16 462 -13 87 -56 245 -80 293 -7 14 -15 49 -19 78 l-7 52 29 0 c35 0 126 -30 168 -56 41 -25 135 -106 198 -169 103 -105 160 -308 135 -482 -18 -118 -19 -121 -42 -127 -44 -11 -134 -84 -155 -126 -17 -34 -21 -38 -32 -25 -21 25 -59 19 -66 -12 -9 -35 7 -58 42 -58 28 -1 28 -1 25 -57 -8 -171 170 -257 288 -139 51 51 86 158 78 239 -8 78 -32 143 -63 168 -16 13 -23 26 -18 37 8 22 14 21 114 -14 47 -16 114 -38 150 -48 36 -10 94 -30 130 -45 61 -25 122 -43 230 -68 25 -5 77 -25 115 -43 39 -19 89 -41 113 -51 23 -9 57 -28 74 -41 40 -29 48 -29 48 1 0 29 -59 84 -127 121 -26 13 -66 36 -88 50 -22 14 -47 28 -55 32 -8 3 -27 15 -42 25 -14 10 -33 18 -41 18 -9 0 -17 4 -19 8 -1 4 -25 21 -53 36 -27 16 -73 44 -102 62 -28 19 -55 34 -60 34 -10 0 -288 108 -329 128 -29 14 -32 21 -38 73 -16 137 -92 300 -179 384 -84 81 -232 175 -309 196 -95 27 -162 25 -182 -3z m793 -763 c53 -19 121 -45 151 -58 124 -52 244 -126 133 -82 -34 14 -97 34 -140 46 -43 12 -82 25 -88 29 -5 4 -23 10 -40 14 -49 12 -145 60 -145 73 0 20 25 16 129 -22z m-141 -240 c32 -123 -27 -275 -108 -275 -48 0 -76 17 -95 57 -16 34 -17 46 -6 107 13 76 39 118 86 136 17 6 37 16 45 20 8 5 26 8 40 7 21 -2 27 -10 38 -52z"/>
</g>
</svg>
