<?xml version="1.0" standalone="no"?>
<!DOCTYPE svg PUBLIC "-//W3C//DTD SVG 20010904//EN" "http://www.w3.org/TR/2001/REC-SVG-20010904/DTD/svg10.dtd">
<svg xmlns="http://www.w3.org/2000/svg" version="1.0" width="360.000000pt" height="360.000000pt" viewBox="0 0 360.000000 360.000000" preserveAspectRatio="xMidYMid meet">

<g transform="translate(0.000000,360.000000) scale(0.100000,-0.100000)" fill="#000000" stroke="none">
<path d="M1535 2346 c-5 -2 -30 -10 -55 -17 -55 -16 -62 -25 -55 -69 7 -41 41 -152 60 -195 38 -85 45 -161 52 -492 l5 -252 -31 -15 c-16 -9 -36 -16 -43 -16 -25 0 -38 -36 -27 -72 14 -47 3 -131 -37 -289 -19 -75 -32 -143 -28 -152 11 -28 50 -31 84 -7 l31 22 -7 -29 c-4 -15 -15 -49 -25 -76 -16 -39 -17 -51 -6 -68 11 -18 18 -20 67 -13 60 8 63 8 164 2 76 -5 94 8 59 43 -21 21 -45 28 -144 37 l-66 7 23 100 c28 119 44 256 46 383 1 86 3 94 26 112 13 11 30 20 37 20 7 0 77 43 155 95 78 52 144 95 146 95 2 0 4 -6 3 -12 0 -7 -24 -32 -53 -55 -30 -23 -66 -62 -82 -88 -25 -39 -32 -45 -55 -40 -30 7 -63 -19 -55 -42 3 -8 6 -17 6 -19 0 -3 11 -9 24 -14 22 -8 23 -11 13 -50 -18 -65 5 -118 66 -148 45 -24 50 -24 109 -11 53 11 70 20 110 60 50 50 66 90 75 181 6 67 -17 126 -68 176 -29 29 -30 30 -20 88 8 54 1 193 -14 264 -11 50 -91 237 -129 300 -89 147 -207 247 -303 255 -27 3 -52 3 -58 1z m108 -87 c144 -74 314 -390 328 -609 4 -56 -8 -75 -74 -119 -34 -22 -87 -59 -117 -81 -43 -31 -166 -100 -171 -96 0 1 -5 105 -10 231 -16 396 -18 413 -76 543 -12 29 -23 70 -23 92 0 35 3 40 28 46 15 3 32 7 37 9 22 7 38 4 78 -16z m405 -921 c6 -7 10 -42 9 -78 -2 -52 -8 -74 -30 -107 -44 -69 -129 -90 -179 -45 -23 20 -23 49 3 124 25 71 57 115 102 140 29 16 31 16 57 -2 15 -10 32 -25 38 -32z m-518 -303 c-9 -110 -26 -211 -36 -223 -1 -2 -11 1 -22 7 -22 12 -20 31 18 186 10 44 22 109 25 145 4 36 9 72 13 80 12 30 14 -67 2 -195z"/>
</g>
</svg>
