<?xml version="1.0" standalone="no"?>
<!DOCTYPE svg PUBLIC "-//W3C//DTD SVG 20010904//EN" "http://www.w3.org/TR/2001/REC-SVG-20010904/DTD/svg10.dtd">
<svg xmlns="http://www.w3.org/2000/svg" version="1.0" width="360.000000pt" height="360.000000pt" viewBox="0 0 360.000000 360.000000" preserveAspectRatio="xMidYMid meet">

<g transform="translate(0.000000,360.000000) scale(0.100000,-0.100000)" fill="#000000" stroke="none">
<path d="M1515 2474 c-27 -7 -66 -18 -85 -25 -19 -6 -47 -16 -62 -22 -15 -5 -34 -23 -42 -39 -14 -27 -13 -37 25 -151 22 -67 44 -140 49 -162 5 -22 20 -94 34 -160 82 -379 110 -778 72 -1030 -2 -11 -6 -42 -10 -70 -10 -66 -36 -167 -46 -180 -4 -5 -8 -17 -8 -25 -1 -8 -4 -29 -8 -47 -8 -41 21 -59 69 -44 18 6 52 10 77 10 25 0 60 5 78 10 19 6 47 7 64 4 35 -7 78 14 78 38 0 24 -17 33 -65 36 -123 7 -205 28 -205 52 0 9 7 40 14 69 8 29 14 53 14 55 0 1 3 22 6 47 32 255 20 634 -30 902 -9 46 -22 119 -30 163 -8 44 -24 111 -34 150 -11 38 -33 122 -51 185 -17 63 -36 121 -43 129 -8 11 -8 13 0 8 7 -4 46 4 88 18 93 30 207 34 276 8 152 -56 290 -271 343 -535 l13 -67 -25 -9 c-59 -21 -137 -118 -156 -195 -5 -20 -12 -26 -23 -22 -8 3 -26 -2 -39 -10 -34 -23 -27 -57 13 -69 30 -9 32 -13 36 -67 2 -31 11 -63 19 -70 26 -26 68 -49 89 -49 11 0 20 -4 20 -9 0 -36 -156 -351 -206 -417 -18 -23 -40 -57 -49 -74 -15 -29 -15 -34 -2 -47 13 -13 18 -13 41 2 14 10 26 20 26 24 0 4 22 41 49 83 60 92 114 198 171 335 30 72 50 107 69 119 77 49 128 129 141 223 10 73 -24 170 -76 219 -33 30 -36 39 -49 131 -20 137 -79 291 -147 379 -130 168 -184 199 -368 205 -36 1 -87 -3 -115 -9z m579 -821 c-8 -136 -22 -250 -33 -269 -10 -19 -74 7 -88 36 -25 50 -12 130 39 226 19 36 59 73 80 74 3 0 5 -30 2 -67z m95 2 c18 -82 16 -124 -12 -187 -32 -71 -47 -75 -37 -10 4 26 11 93 15 150 4 56 10 102 14 102 5 0 13 -25 20 -55z"/>
</g>
</svg>
