<?xml version="1.0" standalone="no"?>
<!DOCTYPE svg PUBLIC "-//W3C//DTD SVG 20010904//EN" "http://www.w3.org/TR/2001/REC-SVG-20010904/DTD/svg10.dtd">
<svg xmlns="http://www.w3.org/2000/svg" version="1.0" width="360.000000pt" height="360.000000pt" viewBox="0 0 360.000000 360.000000" preserveAspectRatio="xMidYMid meet">

<g transform="translate(0.000000,360.000000) scale(0.100000,-0.100000)" fill="#000000" stroke="none">
<path d="M1844 2280 c-12 -4 -25 -17 -30 -27 -4 -10 -10 -125 -12 -256 -4 -254 -1 -274 42 -261 15 4 18 3 11 -4 -5 -6 -28 -15 -50 -21 -60 -15 -133 -40 -196 -67 -31 -13 -62 -24 -68 -24 -6 0 -11 -4 -11 -9 0 -5 -48 -33 -107 -63 -90 -45 -108 -58 -120 -87 -13 -31 -13 -35 7 -56 26 -27 36 -30 210 -54 74 -10 164 -27 200 -36 94 -24 192 -45 215 -45 11 0 33 -7 49 -15 15 -8 43 -15 62 -15 46 0 37 -16 -42 -70 -36 -25 -78 -55 -92 -67 -35 -28 -109 -87 -197 -157 -102 -81 -105 -84 -105 -111 0 -38 42 -60 114 -58 117 2 256 12 266 18 12 7 14 52 3 58 -5 3 -59 1 -122 -3 -62 -4 -122 -5 -132 -3 -18 5 -18 7 4 33 36 46 291 240 315 240 5 0 32 22 60 49 39 37 52 57 52 78 -1 46 -21 63 -74 63 l-48 0 4 178 c3 169 4 179 30 227 20 39 28 46 33 33 13 -32 72 -58 138 -60 97 -2 157 17 218 69 56 47 73 79 84 157 10 61 1 81 -50 110 -46 27 -93 32 -185 18 -39 -6 -46 -4 -55 13 -6 11 -23 21 -38 23 -21 3 -29 -2 -36 -21 -5 -14 -7 -34 -4 -45 3 -14 -2 -25 -16 -34 -23 -14 -81 -117 -81 -143 0 -8 -7 -15 -15 -15 -9 0 -15 9 -15 24 0 14 -5 28 -10 31 -18 11 -58 100 -75 166 -9 35 -25 83 -35 105 -11 23 -22 55 -26 70 -7 33 -31 74 -42 73 -4 0 -16 -4 -28 -9z m39 -137 c16 -92 63 -236 93 -287 35 -59 39 -87 7 -47 -18 22 -49 27 -93 16 l-25 -6 -3 175 c-1 98 2 176 7 176 5 0 11 -12 14 -27z m582 -159 c51 -33 24 -136 -50 -192 -39 -30 -52 -34 -118 -37 -64 -4 -79 -1 -101 16 -19 15 -26 30 -26 55 0 62 47 128 86 118 15 -4 25 0 31 11 6 10 35 22 69 30 81 17 81 17 109 -1z m-535 -219 c0 -2 -13 -11 -30 -20 -16 -9 -30 -12 -30 -7 0 4 12 13 28 19 15 6 28 11 30 12 1 1 2 -1 2 -4z m101 -37 c-5 -13 -16 -36 -24 -53 -8 -16 -13 -48 -12 -70 3 -62 -7 -65 -21 -5 -18 75 -17 77 11 84 25 6 35 36 13 36 -8 0 -5 7 6 15 28 21 37 19 27 -7z m-200 -94 c13 -12 22 -13 37 -5 15 8 22 7 29 -2 11 -14 42 -161 47 -222 1 -11 6 -30 10 -42 7 -21 4 -23 -28 -23 -37 0 -93 11 -185 37 -61 17 -63 17 -181 32 -164 21 -186 30 -146 62 13 11 26 19 29 19 2 0 41 20 85 45 74 41 207 97 257 108 11 3 22 5 24 6 3 0 12 -6 22 -15z m156 -116 c-3 -8 -6 -5 -6 6 -1 11 2 17 5 13 3 -3 4 -12 1 -19z"/>
</g>
</svg>
