<?xml version="1.0" standalone="no"?>
<!DOCTYPE svg PUBLIC "-//W3C//DTD SVG 20010904//EN" "http://www.w3.org/TR/2001/REC-SVG-20010904/DTD/svg10.dtd">
<svg xmlns="http://www.w3.org/2000/svg" version="1.0" width="360.000000pt" height="360.000000pt" viewBox="0 0 360.000000 360.000000" preserveAspectRatio="xMidYMid meet">

<g transform="translate(0.000000,360.000000) scale(0.100000,-0.100000)" fill="#000000" stroke="none">
<path d="M1743 3145 c-37 -16 -84 -75 -113 -143 -19 -44 -22 -64 -17 -115 9 -90 23 -130 57 -163 21 -21 30 -39 30 -64 1 -19 8 -53 16 -75 28 -72 28 -80 0 -93 -26 -11 -26 -13 -26 -124 -1 -399 -25 -780 -52 -836 -13 -24 -13 -31 0 -50 8 -12 20 -22 27 -22 18 0 57 51 51 66 -3 8 2 44 10 81 10 45 17 141 20 288 2 121 8 234 12 250 16 55 25 -141 18 -399 -10 -370 -22 -521 -51 -656 -30 -137 -46 -229 -60 -329 -16 -115 -30 -167 -52 -193 -19 -21 -13 -68 9 -82 14 -8 26 -6 53 9 53 28 190 20 256 -16 45 -24 64 46 21 77 -9 7 -44 16 -77 20 -33 3 -69 10 -79 14 -11 4 -37 3 -58 0 -37 -7 -39 -6 -34 14 3 11 10 55 16 96 6 41 15 98 20 125 80 419 74 364 108 1027 7 127 0 344 -13 448 -3 25 -9 120 -14 211 -4 91 -11 171 -15 177 -3 6 3 13 14 17 11 3 41 38 67 77 26 38 54 73 63 76 68 24 82 32 71 46 -6 7 -22 11 -35 9 -20 -4 -24 0 -29 34 -4 21 -7 52 -7 70 0 42 -34 119 -58 132 -26 14 -111 12 -149 -4z m87 -70 c8 -6 23 -15 32 -18 19 -7 33 -80 25 -132 -3 -18 -21 -58 -41 -89 -29 -46 -41 -56 -72 -62 -54 -10 -80 23 -89 112 -7 59 -5 72 16 114 34 69 94 104 129 75z"/>
</g>
</svg>
