<?xml version="1.0" standalone="no"?>
<!DOCTYPE svg PUBLIC "-//W3C//DTD SVG 20010904//EN" "http://www.w3.org/TR/2001/REC-SVG-20010904/DTD/svg10.dtd">
<svg xmlns="http://www.w3.org/2000/svg" version="1.0" width="360.000000pt" height="360.000000pt" viewBox="0 0 360.000000 360.000000" preserveAspectRatio="xMidYMid meet">

<g transform="translate(0.000000,360.000000) scale(0.100000,-0.100000)" fill="#000000" stroke="none">
<path d="M1350 2859 c-37 -15 -60 -39 -87 -93 -22 -44 -25 -59 -21 -130 5 -93 39 -173 91 -217 27 -22 31 -32 32 -82 1 -31 -2 -57 -6 -57 -5 0 -9 -9 -9 -21 0 -11 -25 -71 -55 -134 -49 -99 -65 -122 -130 -183 -101 -95 -101 -111 -2 -142 75 -24 167 -83 189 -123 7 -12 13 -57 13 -102 l1 -80 37 2 38 3 -5 -63 c-3 -34 -8 -123 -11 -197 -6 -141 -9 -198 -25 -445 -15 -221 -19 -266 -31 -306 -9 -27 -8 -42 1 -59 11 -20 17 -22 53 -16 57 10 91 10 165 1 74 -8 132 12 132 45 0 11 -3 20 -7 21 -5 0 -19 2 -33 4 -14 1 -73 6 -132 10 l-107 8 4 56 c13 167 26 382 31 506 4 77 12 211 18 299 l11 158 35 18 c32 16 104 40 280 92 61 18 89 27 193 62 23 8 62 20 87 27 25 6 66 20 92 30 26 11 58 19 71 19 13 0 50 9 83 21 58 20 135 35 223 44 24 2 51 11 59 19 14 14 14 17 1 33 -8 10 -26 51 -38 91 -26 80 -24 167 4 235 15 37 6 57 -26 57 -21 0 -33 -16 -48 -62 -7 -21 -18 -38 -24 -39 -42 -4 -179 4 -272 16 -60 8 -123 14 -140 14 -117 0 -261 11 -320 26 -177 44 -264 76 -304 112 -23 19 -41 39 -41 43 0 4 22 13 49 20 31 7 59 23 79 43 34 36 71 110 72 145 0 12 3 23 8 23 4 1 17 3 30 4 13 1 29 8 35 14 17 17 -19 42 -48 35 -19 -5 -23 1 -35 53 -14 65 -54 112 -117 138 -40 17 -106 19 -143 4z m98 -65 c7 8 54 -19 75 -42 13 -14 20 -43 24 -96 9 -115 -15 -166 -88 -189 -24 -8 -95 30 -115 61 -32 49 -43 173 -20 217 23 43 63 66 94 54 14 -5 27 -7 30 -5z m120 -579 c127 -41 281 -76 325 -74 61 2 332 -21 372 -32 25 -7 78 -9 140 -6 l100 6 0 -73 c1 -47 6 -80 14 -90 9 -10 10 -20 5 -25 -14 -13 -74 -31 -103 -31 -14 0 -37 -6 -51 -13 -29 -16 -37 -18 -187 -57 -113 -29 -262 -78 -320 -106 -18 -8 -70 -23 -115 -34 -93 -21 -126 -31 -180 -54 -77 -33 -75 -37 -81 157 -3 94 -8 188 -11 207 -3 19 -10 82 -16 140 -6 57 -14 108 -16 112 -9 14 15 9 124 -27z m-159 -180 c18 -203 24 -320 16 -313 -4 4 -13 18 -19 30 -6 13 -25 30 -42 38 -16 8 -60 32 -97 54 l-68 38 23 26 c13 14 33 34 45 44 12 10 31 39 43 66 63 133 73 152 80 145 5 -4 13 -62 19 -128z"/>
</g>
</svg>
