<?xml version="1.0" standalone="no"?>
<!DOCTYPE svg PUBLIC "-//W3C//DTD SVG 20010904//EN" "http://www.w3.org/TR/2001/REC-SVG-20010904/DTD/svg10.dtd">
<svg xmlns="http://www.w3.org/2000/svg" version="1.0" width="360.000000pt" height="360.000000pt" viewBox="0 0 360.000000 360.000000" preserveAspectRatio="xMidYMid meet">

<g transform="translate(0.000000,360.000000) scale(0.100000,-0.100000)" fill="#000000" stroke="none">
<path d="M1624 2990 c-71 -5 -90 -13 -132 -59 -72 -79 -43 -338 45 -397 l33 -22 -33 -15 c-60 -27 -157 -57 -188 -57 -16 0 -67 -15 -112 -34 -45 -18 -95 -36 -112 -40 -68 -16 -95 -56 -57 -88 38 -32 105 -48 207 -47 233 1 325 -12 325 -46 0 -8 8 -18 17 -23 19 -11 18 1 15 -665 -2 -299 -6 -405 -18 -465 -8 -42 -17 -142 -20 -222 -2 -80 -10 -169 -16 -198 -10 -48 -10 -55 8 -72 16 -17 22 -18 44 -7 24 12 25 16 26 127 1 95 16 326 28 430 2 14 4 41 4 61 2 28 7 38 23 42 17 5 20 11 15 31 -14 57 49 112 189 164 110 41 125 45 167 44 47 -2 78 22 78 60 0 30 -18 41 -132 79 -98 33 -222 95 -251 126 -15 17 -29 40 -30 53 -1 15 -12 27 -29 35 -16 6 -26 14 -23 16 3 3 5 96 5 206 1 110 4 203 7 207 3 3 11 2 18 -4 7 -6 42 -1 100 15 56 16 116 25 159 25 120 0 258 34 293 72 33 37 8 51 -138 76 -74 13 -170 37 -214 52 -44 16 -102 33 -130 39 -27 5 -65 16 -83 23 l-32 14 29 22 c16 11 43 45 59 74 62 109 60 242 -5 318 -46 53 -55 56 -139 50z m68 -88 c34 -14 38 -21 48 -95 8 -53 6 -71 -12 -120 -33 -92 -86 -120 -143 -75 -84 66 -86 237 -4 295 32 22 44 21 111 -5z m-82 -476 c0 -7 3 -28 6 -46 6 -27 4 -31 -12 -28 -20 3 -21 -7 -8 -50 6 -20 4 -22 -17 -18 -13 3 -82 8 -154 11 -138 7 -233 22 -218 35 4 4 51 18 103 30 52 12 110 29 128 37 18 8 58 18 89 23 30 5 58 12 61 15 10 10 22 5 22 -9z m259 -33 c36 -14 110 -33 165 -43 114 -19 113 -31 -3 -37 -42 -2 -127 -11 -188 -20 -62 -9 -115 -15 -117 -12 -3 2 -8 20 -11 39 -3 19 -14 41 -25 49 -11 7 -20 25 -20 39 0 25 0 25 67 18 37 -4 96 -19 132 -33z m-2 -836 c37 -15 84 -37 103 -48 l35 -22 -77 -22 c-42 -12 -114 -43 -159 -69 l-81 -46 6 43 c3 23 6 78 7 122 1 45 4 95 7 113 l4 32 43 -38 c24 -21 74 -50 112 -65z"/>
</g>
</svg>
