<?xml version="1.0" standalone="no"?>
<!DOCTYPE svg PUBLIC "-//W3C//DTD SVG 20010904//EN" "http://www.w3.org/TR/2001/REC-SVG-20010904/DTD/svg10.dtd">
<svg xmlns="http://www.w3.org/2000/svg" version="1.0" width="360.000000pt" height="360.000000pt" viewBox="0 0 360.000000 360.000000" preserveAspectRatio="xMidYMid meet">

<g transform="translate(0.000000,360.000000) scale(0.100000,-0.100000)" fill="#000000" stroke="none">
<path d="M1572 3552 c-19 -14 -23 -30 -28 -104 -6 -77 -4 -90 16 -125 l22 -39 -23 -40 c-38 -67 -172 -269 -181 -272 -4 -2 -8 -9 -8 -16 0 -8 -9 -25 -21 -40 -35 -44 -20 -82 71 -182 44 -48 96 -117 116 -153 20 -36 55 -85 77 -108 l40 -42 0 -436 -1 -436 -50 -32 c-168 -107 -183 -124 -140 -151 19 -12 50 2 133 59 27 19 53 35 58 35 4 0 5 -44 3 -98 -11 -197 -17 -415 -21 -742 -3 -201 -9 -352 -16 -377 -13 -50 -7 -73 19 -73 14 0 24 13 36 44 15 38 18 94 20 378 6 582 19 873 39 881 11 3 122 -3 282 -17 228 -20 235 -20 255 -1 24 22 26 48 4 66 -18 15 -149 69 -167 69 -6 0 -34 11 -62 24 -27 14 -110 48 -183 77 -73 28 -136 56 -140 63 -4 6 -7 164 -7 351 0 310 2 341 18 360 43 49 96 115 142 175 28 36 63 76 78 90 26 23 43 65 53 135 3 20 -3 41 -18 64 -13 19 -34 54 -48 77 -36 61 -87 125 -113 142 -42 30 -147 124 -147 134 0 6 10 24 22 40 16 24 21 43 19 87 -2 72 -20 130 -43 142 -14 8 -19 5 -24 -16 -4 -15 -4 -44 -1 -67 6 -46 -2 -108 -14 -108 -16 0 -31 74 -26 126 7 63 -7 81 -41 56z m157 -404 c6 -1 35 -27 65 -56 60 -58 96 -125 115 -215 l12 -57 -38 -52 c-21 -29 -60 -80 -88 -115 -27 -34 -59 -75 -70 -90 l-20 -28 -5 40 c-5 43 -35 62 -46 28 -19 -58 -18 -59 -86 43 -37 55 -87 119 -112 144 -29 28 -46 53 -46 68 0 25 66 142 164 290 l61 92 42 -44 c23 -24 47 -46 52 -48z m56 -1488 c17 -9 43 -20 59 -24 16 -4 57 -20 90 -35 34 -16 85 -37 114 -47 92 -33 59 -38 -113 -18 -27 4 -76 7 -107 8 -31 1 -60 5 -64 9 -4 4 -15 7 -25 7 -23 0 -30 24 -23 81 7 52 9 52 69 19z"/>
<path d="M1616 3094 c-56 -63 -106 -130 -106 -141 0 -7 -3 -13 -7 -13 -5 0 -6 -38 -3 -83 4 -71 9 -90 34 -125 58 -84 155 -108 234 -59 46 30 102 136 102 195 0 121 -80 223 -186 237 -43 6 -54 4 -68 -11z m132 -95 c54 -63 63 -112 36 -191 -43 -127 -171 -133 -213 -9 -23 71 -6 145 47 202 32 35 41 40 70 35 20 -3 43 -17 60 -37z"/>
</g>
</svg>
