<?xml version="1.0" standalone="no"?>
<!DOCTYPE svg PUBLIC "-//W3C//DTD SVG 20010904//EN" "http://www.w3.org/TR/2001/REC-SVG-20010904/DTD/svg10.dtd">
<svg xmlns="http://www.w3.org/2000/svg" version="1.0" width="360.000000pt" height="360.000000pt" viewBox="0 0 360.000000 360.000000" preserveAspectRatio="xMidYMid meet">

<g transform="translate(0.000000,360.000000) scale(0.100000,-0.100000)" fill="#000000" stroke="none">
<path d="M2644 3230 c-12 -5 -30 -30 -43 -60 -12 -28 -37 -68 -55 -88 -17 -20 -48 -59 -68 -87 -36 -50 -182 -195 -228 -227 -14 -9 -34 -24 -45 -33 -11 -9 -42 -29 -70 -46 -27 -16 -57 -34 -65 -39 -43 -28 -274 -130 -296 -130 -6 0 5 105 16 148 9 35 21 54 50 77 55 42 80 80 96 139 16 59 18 154 5 189 -21 55 -82 107 -153 131 -49 15 -143 -63 -185 -153 -50 -110 -18 -276 60 -314 34 -17 37 -22 37 -61 0 -24 3 -71 6 -105 l7 -62 -54 5 c-54 5 -243 68 -322 107 -97 49 -196 135 -306 264 -42 50 -90 106 -107 125 -38 42 -103 136 -115 168 -13 32 -39 28 -39 -6 0 -49 56 -144 142 -244 46 -52 109 -125 141 -163 63 -73 177 -162 260 -200 121 -56 338 -135 372 -135 33 0 36 -2 29 -22 -5 -13 -9 -300 -9 -638 0 -338 -4 -622 -7 -630 -4 -8 -9 -60 -12 -115 -3 -55 -8 -136 -11 -180 -3 -44 -7 -154 -9 -245 -2 -136 -6 -172 -21 -202 -10 -20 -15 -43 -12 -52 8 -21 47 -20 72 2 42 36 47 62 40 188 -7 123 -8 342 -1 353 2 3 7 54 11 112 3 59 8 115 10 125 2 11 4 38 4 62 1 23 5 42 9 42 4 0 6 -16 4 -35 -4 -29 1 -40 28 -65 19 -17 37 -27 42 -22 4 4 10 36 11 70 2 35 8 67 13 72 9 8 37 13 144 25 135 15 399 64 430 80 60 31 49 104 -17 105 -12 0 -76 18 -143 40 -67 22 -130 40 -141 40 -11 0 -30 6 -42 14 -12 7 -53 24 -92 37 -189 62 -220 75 -231 97 -8 15 -10 132 -9 375 1 193 3 359 5 369 2 9 9 14 16 11 7 -3 69 27 137 66 68 39 141 78 162 87 73 30 280 182 325 237 14 17 41 49 61 72 77 87 179 217 179 229 0 7 10 26 21 40 21 27 21 28 3 46 -14 13 -25 16 -40 10z m-799 -143 c25 -25 34 -45 40 -84 6 -46 3 -60 -24 -117 -23 -50 -38 -69 -65 -81 -53 -25 -76 -17 -103 36 -43 88 -40 138 14 219 44 67 89 76 138 27z m10 -1499 c22 -7 44 -18 48 -25 4 -7 18 -13 31 -13 12 0 53 -16 92 -35 38 -19 74 -35 79 -35 10 0 212 -64 245 -77 15 -7 -12 -12 -155 -33 -44 -6 -90 -15 -101 -20 -12 -5 -80 -12 -150 -15 -94 -5 -134 -11 -146 -23 -21 -18 -18 -36 -23 166 -3 150 -13 137 80 110z"/>
</g>
</svg>
