<?xml version="1.0" standalone="no"?>
<!DOCTYPE svg PUBLIC "-//W3C//DTD SVG 20010904//EN" "http://www.w3.org/TR/2001/REC-SVG-20010904/DTD/svg10.dtd">
<svg xmlns="http://www.w3.org/2000/svg" version="1.0" width="360.000000pt" height="360.000000pt" viewBox="0 0 360.000000 360.000000" preserveAspectRatio="xMidYMid meet">

<g transform="translate(0.000000,360.000000) scale(0.100000,-0.100000)" fill="#000000" stroke="none">
<path d="M1361 3187 c-64 -13 -123 -75 -140 -149 -18 -72 -9 -229 14 -264 8 -13 38 -35 66 -50 l51 -25 -8 -52 c-4 -29 -8 -62 -9 -74 -1 -12 -7 -29 -14 -37 -8 -10 -12 -42 -10 -93 1 -43 2 -175 1 -293 -1 -118 0 -233 3 -255 2 -22 6 -69 10 -105 7 -75 20 -170 40 -285 8 -44 16 -118 19 -165 15 -230 19 -274 30 -341 8 -47 9 -93 4 -133 -5 -34 -13 -104 -18 -156 -5 -52 -11 -106 -13 -120 -2 -14 -7 -61 -11 -105 -4 -44 -14 -108 -22 -142 -8 -34 -13 -79 -10 -100 2 -21 5 -41 5 -45 2 -12 65 -22 124 -20 60 2 127 24 127 40 0 22 -31 34 -68 27 -60 -12 -111 -14 -116 -6 -3 4 -1 41 5 82 62 476 72 596 60 681 -6 40 -13 102 -16 138 -24 281 -28 341 -19 339 5 -1 25 1 44 4 19 4 46 9 60 12 14 2 48 9 75 15 119 25 153 30 206 34 30 3 71 7 90 10 65 11 108 13 120 5 8 -4 19 -3 26 3 9 7 13 7 13 -2 0 -10 3 -10 15 0 8 6 18 9 22 7 5 -3 99 -9 208 -12 270 -9 293 -11 343 -24 37 -10 49 -9 75 5 18 8 61 27 97 40 68 26 82 38 73 62 -8 19 -65 10 -139 -23 -41 -18 -61 -22 -74 -15 -10 5 -105 12 -212 15 -198 5 -302 15 -350 34 -16 6 -28 7 -28 3 0 -4 -53 -7 -118 -7 -64 1 -128 -3 -142 -8 -14 -5 -65 -17 -115 -27 -49 -11 -135 -29 -190 -40 -55 -12 -107 -23 -115 -23 -10 -2 -18 15 -27 58 -15 76 -43 322 -43 372 1 33 2 35 12 18 15 -28 38 -45 60 -45 26 0 46 53 64 164 8 50 21 109 28 131 8 22 24 73 36 113 12 40 30 82 41 93 29 29 36 84 15 108 -9 10 -14 25 -10 34 8 22 -13 57 -35 57 -22 0 -31 -19 -31 -65 0 -30 -3 -34 -27 -32 -38 3 -40 -23 -6 -57 25 -25 26 -29 14 -59 -7 -18 -19 -57 -28 -87 -8 -30 -20 -66 -27 -80 -7 -14 -18 -63 -26 -110 -17 -114 -25 -126 -39 -60 -10 45 -24 231 -24 320 0 27 22 232 29 265 2 11 20 31 39 45 20 15 49 53 70 93 24 44 42 67 54 67 10 0 32 5 49 11 52 18 30 47 -35 48 -26 1 -34 6 -37 24 -2 12 -10 56 -17 97 -10 56 -19 80 -38 97 -13 13 -26 21 -28 19 -3 -2 -17 -1 -31 3 -15 4 -47 3 -71 -2z m85 -69 c49 -56 62 -194 26 -263 -37 -70 -56 -88 -86 -83 -14 3 -29 1 -32 -4 -8 -13 -82 32 -87 53 -10 36 3 185 20 231 14 39 25 52 57 68 53 26 78 25 102 -2z"/>
</g>
</svg>
