<?xml version="1.0" standalone="no"?>
<!DOCTYPE svg PUBLIC "-//W3C//DTD SVG 20010904//EN" "http://www.w3.org/TR/2001/REC-SVG-20010904/DTD/svg10.dtd">
<svg xmlns="http://www.w3.org/2000/svg" version="1.0" width="360.000000pt" height="360.000000pt" viewBox="0 0 360.000000 360.000000" preserveAspectRatio="xMidYMid meet">

<g transform="translate(0.000000,360.000000) scale(0.100000,-0.100000)" fill="#000000" stroke="none">
<path d="M2707 2553 c-3 -5 -17 -51 -31 -104 -27 -99 -83 -235 -126 -304 -24 -39 -54 -79 -152 -207 -27 -34 -48 -67 -48 -74 0 -27 -149 -53 -430 -75 -69 -5 -156 -12 -195 -15 -86 -8 -205 -8 -265 0 -25 3 -94 11 -155 17 -60 6 -119 14 -130 16 -11 3 -57 9 -102 14 -45 4 -101 13 -124 19 -23 6 -74 18 -113 25 -134 26 -296 74 -323 97 -7 5 -21 7 -31 4 -17 -6 -20 -21 -26 -122 -4 -64 -4 -120 1 -125 17 -17 31 8 50 86 15 57 24 79 34 76 8 -2 43 -12 79 -23 159 -46 383 -94 475 -103 33 -3 71 -7 85 -10 33 -7 157 -22 244 -30 39 -3 72 -7 74 -9 23 -23 30 -262 13 -406 -6 -47 -13 -125 -16 -175 -12 -193 -31 -312 -72 -443 -21 -67 -24 -87 -15 -107 l11 -24 140 3 c140 3 176 12 165 40 -8 22 -78 39 -128 32 -25 -4 -61 -4 -79 -1 l-35 7 13 56 c43 184 69 432 82 763 5 117 3 156 -10 192 -8 25 -13 48 -9 51 3 3 19 6 36 6 17 0 46 4 65 10 19 5 75 10 125 10 50 1 118 5 151 10 33 5 87 11 120 15 33 3 87 10 120 15 111 18 111 17 35 -55 -37 -35 -93 -80 -123 -99 -60 -39 -161 -86 -183 -86 -8 0 -22 -4 -32 -9 -32 -16 -88 -31 -119 -31 -34 0 -67 -30 -61 -57 12 -61 323 47 489 171 38 28 88 65 110 81 23 17 60 54 81 83 22 28 45 52 52 52 6 0 23 7 39 14 26 14 27 14 27 -10 0 -43 26 -88 66 -116 39 -26 141 -52 168 -42 7 3 27 -6 44 -20 42 -36 56 -34 49 7 -5 30 -2 36 33 57 42 26 75 86 85 157 5 33 1 55 -16 93 -38 85 -99 108 -206 81 -116 -30 -165 -63 -212 -141 -11 -19 -21 -29 -21 -22 0 6 -7 12 -15 12 -8 0 -15 2 -15 4 0 6 82 127 127 186 22 30 60 100 82 155 23 55 50 120 61 145 11 25 28 71 38 102 18 54 18 59 2 73 -18 16 -46 20 -53 8z m114 -583 c43 -24 62 -109 37 -167 -19 -42 -35 -55 -93 -74 -48 -16 -58 -16 -104 -3 -48 15 -111 68 -111 95 0 25 44 87 73 105 74 44 160 64 198 44z"/>
</g>
</svg>
