<?xml version="1.0" standalone="no"?>
<!DOCTYPE svg PUBLIC "-//W3C//DTD SVG 20010904//EN" "http://www.w3.org/TR/2001/REC-SVG-20010904/DTD/svg10.dtd">
<svg xmlns="http://www.w3.org/2000/svg" version="1.0" width="360.000000pt" height="360.000000pt" viewBox="0 0 360.000000 360.000000" preserveAspectRatio="xMidYMid meet">

<g transform="translate(0.000000,360.000000) scale(0.100000,-0.100000)" fill="#000000" stroke="none">
<path d="M3060 2195 c-10 -12 -10 -21 -2 -40 7 -14 16 -25 22 -25 5 0 10 -4 10 -9 0 -9 -48 -26 -63 -23 -4 1 -10 -4 -13 -12 -4 -10 -15 -13 -39 -9 -38 6 -122 -10 -174 -34 -47 -22 -111 -86 -111 -112 0 -24 -25 -28 -34 -6 -4 13 -15 15 -48 10 -24 -4 -74 -9 -113 -12 -38 -2 -95 -9 -125 -14 -30 -6 -86 -15 -125 -20 -314 -44 -428 -58 -479 -59 -33 0 -62 -2 -64 -5 -2 -2 -16 1 -30 6 -29 11 -70 15 -267 24 -77 4 -147 9 -155 12 -8 3 -65 9 -127 13 -61 5 -127 13 -145 19 -91 29 -279 60 -405 66 -51 3 -96 6 -102 7 -5 2 -39 -28 -76 -66 -72 -75 -82 -109 -35 -114 20 -2 32 8 63 52 37 54 37 54 100 61 37 4 80 2 103 -4 21 -6 54 -11 73 -11 36 0 138 -18 287 -51 50 -11 163 -24 250 -29 172 -11 272 -22 374 -43 l65 -14 2 -334 c1 -184 -2 -359 -7 -389 -8 -50 -84 -413 -97 -468 -9 -38 13 -52 81 -51 33 1 77 -1 96 -5 41 -8 78 17 82 56 3 25 12 23 -140 30 -40 1 -43 3 -38 27 3 14 12 64 21 111 15 89 32 168 60 285 17 68 24 303 10 325 -3 5 -6 90 -7 187 0 98 -5 186 -10 197 -5 10 -6 22 -1 26 4 5 62 16 128 25 66 8 149 20 185 25 36 5 110 14 165 20 55 6 120 15 145 20 25 5 90 12 145 16 173 10 183 8 205 -45 12 -29 70 -69 130 -87 31 -9 36 -15 40 -50 4 -34 8 -39 30 -39 22 0 25 5 28 42 3 42 3 43 40 41 21 0 50 6 66 14 31 16 22 17 166 -24 79 -22 127 -7 115 37 -38 130 -68 256 -68 280 0 17 4 54 8 82 8 51 7 53 -20 63 -15 6 -30 8 -33 6 -2 -3 -14 1 -24 9 -11 7 -26 11 -33 9 -7 -3 -16 -1 -20 5 -9 16 -51 13 -65 -4z m98 -162 c11 -42 6 -99 -11 -110 -7 -4 -8 0 -4 11 8 20 -38 106 -56 107 -11 1 40 27 54 29 3 0 11 -17 17 -37z m-114 -48 c31 -28 34 -73 10 -130 l-15 -37 -47 7 c-26 4 -81 16 -122 27 -41 11 -85 22 -97 25 -27 6 -27 6 -8 42 21 42 128 89 206 90 36 1 52 -5 73 -24z m190 -191 c4 -10 -2 -14 -20 -14 -25 0 -26 1 -19 46 11 75 19 84 27 30 3 -26 9 -54 12 -62z m-354 -4 c0 -13 -11 -13 -30 0 -12 8 -11 10 8 10 12 0 22 -4 22 -10z"/>
</g>
</svg>
