<?xml version="1.0" standalone="no"?>
<!DOCTYPE svg PUBLIC "-//W3C//DTD SVG 20010904//EN" "http://www.w3.org/TR/2001/REC-SVG-20010904/DTD/svg10.dtd">
<svg xmlns="http://www.w3.org/2000/svg" version="1.0" width="360.000000pt" height="360.000000pt" viewBox="0 0 360.000000 360.000000" preserveAspectRatio="xMidYMid meet">

<g transform="translate(0.000000,360.000000) scale(0.100000,-0.100000)" fill="#000000" stroke="none">
<path d="M1530 1715 c-15 -18 -5 -65 13 -65 7 0 51 -19 97 -41 47 -23 130 -59 185 -79 100 -38 215 -88 215 -95 0 -2 -64 -1 -142 1 -150 4 -307 19 -358 34 -23 7 -32 5 -36 -5 -4 -10 -12 -11 -27 -6 -12 5 -77 11 -144 15 -67 4 -137 12 -155 17 -18 5 -76 11 -128 13 -52 2 -111 7 -130 10 -19 3 -80 8 -135 11 -95 4 -235 33 -279 58 -12 6 -38 11 -60 12 -31 1 -40 -3 -49 -23 -8 -18 -8 -29 2 -44 7 -12 20 -69 27 -126 8 -58 16 -107 18 -109 8 -8 36 11 42 29 8 26 8 139 -1 177 l-6 28 83 -24 c51 -15 133 -28 213 -34 261 -20 352 -29 440 -43 50 -9 119 -16 155 -16 36 0 70 -4 76 -8 40 -26 66 -514 39 -712 -2 -14 -8 -65 -15 -114 -6 -48 -18 -114 -27 -145 -27 -97 -27 -108 -4 -120 13 -7 69 -11 153 -9 l133 3 3 27 c3 26 2 26 -70 32 -40 3 -91 7 -113 9 -22 1 -39 7 -39 12 1 6 5 33 8 60 4 28 9 58 12 68 3 10 14 91 23 180 27 240 20 394 -26 627 -20 102 -20 105 -4 102 7 -1 45 -9 84 -18 91 -19 181 -23 492 -24 137 0 259 -3 271 -6 12 -3 28 -19 35 -36 19 -46 103 -98 159 -98 46 0 46 0 65 -51 33 -85 67 -75 78 23 4 35 12 55 24 62 40 22 115 102 120 128 3 15 8 28 12 29 6 1 18 3 76 13 17 3 65 10 108 16 131 16 347 98 347 130 0 19 -18 39 -35 38 -5 0 -47 -20 -92 -43 -45 -24 -104 -47 -130 -53 -79 -17 -164 -32 -232 -41 l-63 -8 -13 31 c-6 17 -15 39 -18 48 -3 10 -27 27 -52 39 -39 18 -57 21 -114 15 -37 -3 -83 -11 -102 -17 -52 -18 -125 -75 -143 -112 l-15 -34 -93 4 c-110 5 -232 33 -308 73 -30 15 -70 31 -87 35 -18 3 -35 11 -38 16 -4 5 -14 9 -24 9 -23 0 -209 95 -236 120 -25 24 -48 25 -65 5z m1178 -171 c27 -16 67 -62 60 -69 -6 -6 -292 -23 -301 -18 -23 13 77 76 148 93 47 12 65 11 93 -6z m72 -136 c0 -21 -80 -80 -110 -83 -16 -1 -35 -6 -42 -12 -42 -30 -133 1 -157 54 -13 28 -5 31 134 42 154 13 175 12 175 -1z"/>
</g>
</svg>
