<?xml version="1.0" standalone="no"?>
<!DOCTYPE svg PUBLIC "-//W3C//DTD SVG 20010904//EN" "http://www.w3.org/TR/2001/REC-SVG-20010904/DTD/svg10.dtd">
<svg xmlns="http://www.w3.org/2000/svg" version="1.0" width="360.000000pt" height="360.000000pt" viewBox="0 0 360.000000 360.000000" preserveAspectRatio="xMidYMid meet">

<g transform="translate(0.000000,360.000000) scale(0.100000,-0.100000)" fill="#000000" stroke="none">
<path d="M1940 1720 c-11 -11 -20 -31 -20 -43 0 -31 -43 -90 -109 -149 -58 -52 -49 -50 -186 -52 -99 -2 -100 -2 -110 -30 -7 -20 -6 -29 4 -35 24 -15 -17 -21 -149 -21 -85 0 -159 6 -221 19 -52 10 -132 24 -179 30 -235 32 -361 54 -416 73 -34 11 -69 18 -78 15 -19 -7 -22 -44 -3 -49 19 -7 20 -164 1 -200 -8 -16 -12 -33 -9 -38 10 -16 40 -11 63 10 18 17 22 33 24 88 0 37 2 74 2 82 2 18 56 16 186 -6 47 -8 126 -19 175 -25 50 -5 132 -18 183 -29 67 -15 135 -21 247 -21 102 -1 158 -5 163 -13 24 -31 74 -185 95 -294 l25 -122 -104 -207 c-57 -114 -104 -212 -104 -219 0 -7 8 -20 17 -30 15 -15 32 -16 138 -10 66 4 127 7 135 7 8 1 30 5 48 11 24 7 32 15 32 33 0 30 -27 36 -98 23 -98 -18 -162 -19 -169 -2 -5 14 30 127 47 149 27 37 129 246 131 271 2 17 -4 55 -13 85 -9 30 -22 74 -29 99 -7 25 -30 82 -50 128 l-38 82 72 0 c78 1 369 8 538 14 59 2 115 7 126 10 15 5 27 -2 48 -30 29 -37 93 -73 132 -74 16 0 28 -12 43 -40 19 -38 55 -68 68 -56 3 4 5 27 3 51 -1 28 2 45 9 45 6 0 35 11 64 24 86 40 135 127 116 209 -21 93 -129 141 -267 118 -91 -14 -150 -61 -184 -145 -9 -22 -23 -40 -33 -42 -30 -4 -80 29 -152 100 -74 74 -116 133 -127 177 -4 14 -18 31 -32 37 -33 15 -31 16 -55 -8z m85 -162 c22 -29 65 -76 95 -106 l55 -53 -40 2 c-34 2 -209 -7 -333 -16 -18 -1 -35 1 -37 5 -3 5 30 38 73 74 43 36 91 84 107 106 17 22 32 40 35 40 3 0 24 -23 45 -52z m617 -30 c64 -14 78 -29 78 -85 0 -37 -6 -49 -39 -82 -46 -46 -85 -57 -166 -46 -65 8 -108 41 -80 61 23 17 18 41 -11 51 l-25 8 23 35 c43 65 110 82 220 58z m-942 -129 c8 -1 -19 -5 -60 -8 -77 -6 -114 -1 -71 9 23 5 100 5 131 -1z"/>
</g>
</svg>
