<?xml version="1.0" standalone="no"?>
<!DOCTYPE svg PUBLIC "-//W3C//DTD SVG 20010904//EN" "http://www.w3.org/TR/2001/REC-SVG-20010904/DTD/svg10.dtd">
<svg xmlns="http://www.w3.org/2000/svg" version="1.0" width="360.000000pt" height="360.000000pt" viewBox="0 0 360.000000 360.000000" preserveAspectRatio="xMidYMid meet">

<g transform="translate(0.000000,360.000000) scale(0.100000,-0.100000)" fill="#000000" stroke="none">
<path d="M2865 2010 c-14 -15 -20 -17 -30 -6 -10 9 -30 11 -75 5 -38 -4 -74 -3 -92 3 -34 12 -48 0 -48 -40 0 -13 -4 -21 -9 -17 -5 3 -33 10 -62 15 -76 15 -147 -7 -188 -57 -17 -21 -31 -44 -31 -51 0 -11 -7 -12 -27 -7 -16 4 -91 11 -168 15 -77 4 -165 10 -195 14 -30 3 -89 8 -130 12 -41 3 -109 14 -150 24 -41 10 -93 18 -115 19 -44 0 -153 18 -199 32 -42 13 -100 11 -118 -3 -25 -21 -27 -51 -10 -155 12 -76 15 -187 16 -488 1 -395 -7 -513 -46 -693 -14 -64 -4 -86 38 -89 16 -2 52 -8 81 -13 41 -9 58 -8 87 4 20 8 36 19 36 25 0 15 -30 41 -48 42 -40 3 -88 9 -99 14 -18 6 -17 121 3 225 18 100 28 670 13 760 -5 30 -12 78 -14 105 -2 28 -10 79 -16 113 -16 86 -7 95 81 82 36 -5 110 -14 165 -21 55 -6 132 -18 170 -26 67 -14 155 -23 385 -38 129 -9 221 -29 233 -50 23 -41 74 -87 117 -106 47 -20 55 -31 66 -88 4 -21 21 -34 33 -27 6 4 14 24 17 45 6 38 8 39 62 50 30 6 68 11 83 11 26 0 28 -3 23 -28 -4 -20 0 -32 11 -42 16 -13 20 -11 42 17 22 29 26 30 54 20 21 -8 34 -9 47 -1 23 15 32 56 15 75 -7 9 -18 41 -24 73 -9 51 -7 64 17 134 14 42 31 86 36 96 8 15 7 18 -5 13 -11 -4 -14 -2 -10 9 7 20 -1 18 -22 -6z m-112 -101 c9 -17 17 -47 16 -67 l0 -37 -19 41 c-10 23 -27 48 -37 55 -35 25 -37 39 -6 39 21 0 33 -8 46 -31z m-143 -29 c31 -16 58 -44 84 -87 4 -8 -3 -23 -18 -38 -24 -24 -28 -25 -54 -11 -15 8 -57 22 -92 31 -36 9 -69 21 -74 26 -6 5 -17 9 -25 9 -33 0 -43 15 -30 43 26 57 124 70 209 27z"/>
</g>
</svg>
