<?xml version="1.0" standalone="no"?>
<!DOCTYPE svg PUBLIC "-//W3C//DTD SVG 20010904//EN" "http://www.w3.org/TR/2001/REC-SVG-20010904/DTD/svg10.dtd">
<svg xmlns="http://www.w3.org/2000/svg" version="1.0" width="360.000000pt" height="360.000000pt" viewBox="0 0 360.000000 360.000000" preserveAspectRatio="xMidYMid meet">

<g transform="translate(0.000000,360.000000) scale(0.100000,-0.100000)" fill="#000000" stroke="none">
<path d="M1578 2501 c-36 -12 -111 -87 -131 -131 -35 -79 -44 -131 -72 -410 -8 -80 -26 -194 -40 -255 -32 -136 -46 -206 -86 -415 -45 -241 -99 -468 -152 -643 -19 -63 -19 -69 -4 -85 16 -15 22 -15 74 -1 33 9 69 12 83 8 30 -8 100 0 117 13 20 16 4 34 -48 52 -33 12 -67 17 -100 14 -27 -3 -49 -4 -49 -2 0 1 13 55 29 121 75 300 122 522 147 693 7 47 21 117 32 155 29 103 56 278 56 372 1 46 4 83 7 83 8 0 17 -85 45 -450 3 -47 8 -88 10 -91 2 -3 6 -89 9 -190 12 -378 10 -353 34 -364 11 -5 21 -13 21 -18 0 -4 10 -1 23 7 12 8 42 16 67 17 60 3 80 15 80 45 0 30 -15 36 -88 38 l-57 1 -7 40 c-4 22 -7 89 -7 149 -1 60 -5 159 -11 220 -5 61 -19 230 -30 376 -12 146 -25 272 -30 281 -18 34 -13 152 8 198 32 71 104 110 187 102 11 -1 50 -20 86 -42 107 -64 187 -194 249 -400 10 -35 34 -114 53 -174 40 -128 46 -159 54 -275 l5 -85 -33 -31 c-116 -108 -170 -154 -182 -154 -7 0 -24 -11 -36 -24 l-22 -24 20 -41 c15 -28 25 -76 32 -153 13 -145 13 -133 5 -208 -4 -36 -8 -72 -8 -80 0 -8 -11 -38 -25 -67 -28 -58 -27 -87 3 -91 14 -2 24 6 33 25 l13 28 15 -23 c16 -23 47 -29 58 -12 5 8 11 7 21 -1 7 -6 21 -9 29 -5 27 10 16 48 -30 97 -36 39 -45 55 -45 84 0 20 3 35 8 33 80 -41 107 -49 149 -44 25 3 52 11 61 18 113 89 141 232 73 366 -18 35 -39 66 -47 69 -7 3 -14 12 -14 21 0 8 -6 23 -14 31 -12 13 -13 32 -5 101 18 157 1 298 -62 505 -38 124 -90 277 -99 290 -4 6 -11 21 -15 35 -27 88 -160 239 -245 277 -59 27 -156 39 -202 24z m548 -1208 c-3 -3 -16 -7 -28 -8 -13 -2 -32 -6 -43 -10 -15 -6 -13 0 10 22 40 39 59 45 63 21 2 -11 1 -22 -2 -25z m-144 -95 c-7 -7 -12 -8 -12 -2 0 14 12 26 19 19 2 -3 -1 -11 -7 -17z m177 -14 c48 -31 91 -120 91 -185 0 -52 -48 -144 -80 -154 -12 -4 -44 -1 -71 6 -70 18 -93 52 -97 145 -4 61 0 78 22 120 31 59 46 79 66 87 25 9 29 8 69 -19z"/>
</g>
</svg>
