<?xml version="1.0" standalone="no"?>
<!DOCTYPE svg PUBLIC "-//W3C//DTD SVG 20010904//EN" "http://www.w3.org/TR/2001/REC-SVG-20010904/DTD/svg10.dtd">
<svg xmlns="http://www.w3.org/2000/svg" version="1.0" width="360.000000pt" height="360.000000pt" viewBox="0 0 360.000000 360.000000" preserveAspectRatio="xMidYMid meet">

<g transform="translate(0.000000,360.000000) scale(0.100000,-0.100000)" fill="#000000" stroke="none">
<path d="M3007 2400 c-92 -85 -135 -119 -187 -144 -84 -41 -180 -98 -180 -106 0 -5 -14 -4 -30 2 -48 16 -179 4 -228 -21 -57 -29 -118 -92 -127 -130 -7 -34 -35 -43 -35 -12 0 11 -5 23 -12 27 -18 11 -157 12 -218 2 -59 -10 -552 -12 -715 -2 -87 5 -253 33 -366 62 -28 7 -40 6 -57 -9 -12 -9 -20 -23 -17 -31 2 -7 11 -69 19 -138 9 -69 18 -143 21 -165 3 -22 5 -200 6 -395 1 -302 -2 -382 -20 -535 -12 -99 -25 -197 -30 -217 -6 -26 -5 -42 4 -55 12 -17 16 -17 86 1 41 10 84 23 97 29 24 11 30 42 10 49 -20 7 -81 2 -102 -7 -18 -8 -19 -4 -13 76 26 323 31 360 47 356 8 -2 49 1 90 7 64 10 75 15 75 31 0 17 -10 21 -77 29 -72 8 -77 11 -83 35 -13 64 -23 230 -24 394 -1 191 -19 349 -51 441 -10 31 -17 56 -14 56 2 0 57 -13 122 -29 64 -16 167 -34 227 -40 133 -13 597 -20 750 -11 83 5 114 3 126 -7 8 -7 25 -13 37 -13 40 0 121 -38 147 -68 31 -37 109 -82 141 -82 14 0 25 -8 29 -20 3 -11 13 -20 21 -20 8 0 14 9 14 20 0 17 7 20 43 20 24 0 70 -8 103 -18 32 -11 109 -33 169 -51 61 -17 166 -50 235 -71 69 -22 133 -40 142 -40 9 0 18 -6 21 -12 5 -18 37 9 37 32 0 24 -142 82 -285 116 -16 4 -60 20 -97 35 -36 15 -92 33 -123 40 -31 7 -58 16 -61 21 -3 4 5 23 18 40 29 42 35 117 13 175 -17 44 -17 45 6 70 13 13 72 54 131 89 105 64 268 203 268 229 0 10 -20 25 -35 25 -1 0 -32 -27 -68 -60z m-385 -330 c45 -55 41 -145 -8 -191 -30 -28 -66 -28 -126 -1 -26 12 -50 22 -55 22 -4 0 -31 10 -60 22 -69 28 -71 54 -10 113 35 33 55 44 98 52 83 15 140 9 161 -17z"/>
</g>
</svg>
