<?xml version="1.0" standalone="no"?>
<!DOCTYPE svg PUBLIC "-//W3C//DTD SVG 20010904//EN" "http://www.w3.org/TR/2001/REC-SVG-20010904/DTD/svg10.dtd">
<svg xmlns="http://www.w3.org/2000/svg" version="1.0" width="360.000000pt" height="360.000000pt" viewBox="0 0 360.000000 360.000000" preserveAspectRatio="xMidYMid meet">

<g transform="translate(0.000000,360.000000) scale(0.100000,-0.100000)" fill="#000000" stroke="none">
<path d="M2464 3033 c-3 -10 -10 -28 -15 -41 -16 -41 -51 -186 -69 -292 -21 -120 -54 -263 -69 -303 -21 -55 -63 -342 -59 -404 l4 -62 -106 2 c-58 2 -157 10 -220 20 -63 9 -171 24 -240 32 -69 9 -141 20 -160 25 -87 21 -141 32 -196 40 -32 5 -124 20 -204 35 -144 27 -285 34 -304 15 -21 -21 16 -38 102 -44 86 -7 164 -20 294 -51 37 -8 71 -14 75 -13 17 4 112 -14 188 -37 44 -13 116 -27 160 -30 44 -4 130 -15 190 -25 160 -27 200 -31 307 -34 54 -1 99 -4 102 -6 4 -5 -5 -113 -29 -330 -21 -194 -21 -300 -2 -515 26 -273 52 -415 77 -415 19 0 26 50 18 125 -4 44 -19 188 -33 320 -22 206 -24 256 -16 350 16 176 41 377 52 418 7 28 7 42 -2 53 -10 12 -6 13 20 8 27 -6 31 -4 31 15 0 14 -9 25 -26 32 l-27 10 7 97 c11 155 39 321 70 424 8 26 24 100 36 165 25 136 55 267 77 335 8 26 12 59 9 73 -7 29 -34 34 -42 8z"/>
<path d="M2592 2198 c-7 -7 -12 -30 -12 -53 0 -40 -1 -41 -63 -72 -110 -54 -147 -100 -147 -184 0 -85 146 -169 297 -170 86 -1 141 23 191 82 36 41 37 46 35 112 -2 79 -21 116 -82 165 -39 32 -43 32 -107 26 -72 -8 -72 -8 -49 48 4 10 -1 24 -14 37 -24 24 -32 26 -49 9z m163 -181 c82 -30 94 -137 22 -190 -66 -50 -150 -51 -259 -4 -40 18 -78 60 -78 88 0 42 114 128 152 114 9 -4 19 -1 23 5 9 15 86 8 140 -13z"/>
<path d="M826 2053 c-9 -10 -7 -113 3 -174 14 -76 19 -126 31 -269 14 -168 15 -204 7 -355 -3 -71 -9 -213 -12 -315 -8 -274 -13 -327 -42 -482 -3 -15 -2 -39 1 -53 6 -24 8 -25 99 -25 95 0 139 13 145 41 2 12 -9 18 -40 24 -24 4 -46 9 -50 10 -5 1 -26 3 -49 4 -35 1 -40 4 -34 18 9 23 23 230 26 405 l3 134 30 2 c70 2 172 15 179 21 4 4 1 16 -7 26 -11 15 -29 20 -84 23 l-70 4 -1 72 c-2 71 -7 129 -35 386 -22 214 -36 307 -52 371 -9 33 -16 76 -17 95 -2 31 -17 50 -31 37z"/>
</g>
</svg>
