<?xml version="1.0" standalone="no"?>
<!DOCTYPE svg PUBLIC "-//W3C//DTD SVG 20010904//EN" "http://www.w3.org/TR/2001/REC-SVG-20010904/DTD/svg10.dtd">
<svg xmlns="http://www.w3.org/2000/svg" version="1.0" width="360.000000pt" height="360.000000pt" viewBox="0 0 360.000000 360.000000" preserveAspectRatio="xMidYMid meet">

<g transform="translate(0.000000,360.000000) scale(0.100000,-0.100000)" fill="#000000" stroke="none">
<path d="M1714 2096 c-10 -8 -15 -20 -11 -30 4 -9 1 -16 -5 -16 -11 0 -118 -93 -223 -194 -71 -69 -128 -117 -230 -194 -38 -30 -90 -75 -115 -102 -25 -26 -81 -75 -125 -108 -44 -33 -91 -71 -105 -84 -62 -58 -166 -141 -185 -148 -11 -4 -52 -35 -92 -68 -39 -34 -94 -73 -122 -87 -46 -23 -51 -29 -50 -58 1 -61 35 -192 49 -192 26 0 41 46 36 106 -5 47 -2 61 14 82 21 26 142 122 211 167 21 14 73 57 116 96 43 39 104 87 136 108 31 21 97 77 145 125 48 47 132 122 187 166 55 44 129 107 165 141 92 85 183 164 189 164 4 0 6 -107 7 -238 l1 -238 -62 -47 c-34 -26 -69 -47 -77 -47 -8 0 -28 -10 -44 -22 -15 -13 -46 -32 -68 -44 -35 -18 -42 -26 -46 -60 -3 -21 -1 -77 3 -124 5 -46 6 -113 2 -148 -6 -54 -10 -64 -31 -72 -16 -7 -24 -17 -24 -34 0 -32 17 -44 72 -47 68 -4 99 28 61 64 -16 14 -17 32 -13 181 l5 165 35 30 c19 17 53 39 76 50 22 11 55 31 72 46 22 18 33 22 38 13 4 -6 2 -14 -4 -16 -33 -11 -79 -52 -105 -95 -25 -41 -30 -60 -34 -141 -5 -92 -5 -95 27 -150 18 -32 44 -63 61 -71 36 -19 109 -30 143 -21 75 19 153 143 142 225 -15 108 -24 138 -48 175 -30 44 -93 90 -113 83 -8 -4 -15 4 -18 19 -2 13 -3 24 -1 24 9 0 124 -74 124 -80 0 -4 14 -13 30 -20 17 -7 44 -29 60 -50 30 -37 30 -39 35 -190 3 -83 7 -156 11 -161 3 -5 -2 -16 -10 -25 -19 -19 -20 -25 -3 -47 15 -21 74 -40 82 -26 4 5 16 9 29 9 28 0 46 18 46 46 0 24 -27 39 -52 29 -26 -10 -31 23 -34 191 -1 127 -5 168 -18 195 -16 32 -47 55 -242 182 l-44 29 -1 156 c-1 87 -3 195 -5 241 -1 47 1 81 4 75 4 -5 30 -27 57 -49 28 -22 61 -51 75 -65 37 -36 187 -170 229 -203 19 -15 98 -88 175 -161 146 -138 269 -249 360 -326 52 -44 195 -195 197 -209 0 -3 2 -17 3 -31 11 -110 27 -147 59 -134 18 6 19 10 38 103 11 59 11 64 -7 74 -10 6 -32 27 -49 46 -59 70 -182 188 -310 296 -71 61 -166 144 -210 186 -44 42 -105 98 -135 124 -30 27 -59 54 -63 62 -4 7 -23 23 -41 35 -18 13 -86 73 -152 134 -65 62 -140 129 -166 150 -25 22 -52 49 -58 61 -17 29 -34 35 -56 19z m86 -808 c37 -26 68 -97 69 -161 1 -42 -22 -107 -38 -107 -6 0 -11 -5 -11 -11 0 -19 -33 -38 -64 -39 -42 0 -90 34 -109 77 -21 50 -22 58 -13 124 9 72 36 116 78 128 48 14 52 13 88 -11z"/>
</g>
</svg>
