<?xml version="1.0" standalone="no"?>
<!DOCTYPE svg PUBLIC "-//W3C//DTD SVG 20010904//EN" "http://www.w3.org/TR/2001/REC-SVG-20010904/DTD/svg10.dtd">
<svg xmlns="http://www.w3.org/2000/svg" version="1.0" width="360.000000pt" height="360.000000pt" viewBox="0 0 360.000000 360.000000" preserveAspectRatio="xMidYMid meet">

<g transform="translate(0.000000,360.000000) scale(0.100000,-0.100000)" fill="#000000" stroke="none">
<path d="M2229 2091 c-13 -10 -40 -26 -59 -35 -19 -10 -51 -35 -70 -57 -34 -38 -36 -39 -70 -26 -19 7 -44 18 -56 24 -11 7 -59 17 -106 23 -74 10 -92 9 -139 -6 -73 -23 -132 -65 -170 -121 -18 -26 -60 -76 -94 -112 -81 -86 -109 -120 -179 -213 -31 -42 -68 -85 -80 -95 -22 -17 -151 -182 -209 -269 -15 -22 -61 -82 -102 -134 -93 -116 -97 -141 -30 -187 24 -16 52 -21 133 -26 57 -4 118 -11 135 -16 118 -36 140 -33 119 13 -17 38 -51 54 -127 60 -114 9 -195 22 -206 33 -7 7 -8 20 -3 35 15 40 265 377 342 460 40 44 80 91 89 106 27 43 128 164 168 202 20 19 53 57 73 84 l36 49 43 -48 c24 -26 89 -116 143 -199 55 -83 121 -182 147 -219 49 -70 77 -118 102 -177 8 -18 43 -65 78 -103 35 -38 75 -90 87 -116 33 -65 122 -174 153 -187 15 -7 40 -8 59 -4 19 4 69 6 111 3 58 -3 83 -1 97 10 21 16 14 37 -12 37 -9 0 -34 6 -55 14 -21 7 -68 14 -104 15 -78 3 -99 15 -157 90 -59 78 -61 85 -21 104 45 21 99 91 120 155 14 45 15 62 5 115 -6 34 -12 71 -14 82 -2 11 -13 39 -25 63 l-22 43 22 37 c12 20 37 57 54 82 78 111 68 141 -65 187 -52 18 -104 33 -115 33 -11 1 9 12 44 26 72 27 91 40 91 60 0 25 -40 56 -66 51 -20 -4 -23 -1 -18 18 6 23 -17 55 -40 55 -7 0 -24 -8 -37 -19z m-89 -136 c0 -8 -7 -15 -15 -15 -26 0 -18 20 13 29 1 1 2 -6 2 -14z m-214 -19 c38 -13 88 -34 111 -45 23 -12 47 -21 53 -21 6 0 36 -24 67 -52 54 -51 110 -148 134 -231 7 -25 6 -28 -14 -26 -34 5 -118 -21 -153 -47 -16 -12 -41 -43 -55 -68 -13 -25 -26 -46 -29 -46 -3 0 -14 17 -25 38 -26 49 -143 232 -166 257 -9 11 -25 34 -36 52 -10 17 -36 57 -59 90 -56 81 -59 90 -26 107 41 23 119 19 198 -8z m447 -149 c32 -14 32 -13 7 -64 -27 -57 -36 -59 -51 -16 -6 21 -22 52 -34 68 -40 54 -39 56 7 39 24 -8 55 -20 71 -27z m-72 -316 c57 -55 70 -137 35 -221 -12 -30 -27 -54 -34 -53 -6 2 -16 -6 -22 -17 -6 -11 -18 -20 -26 -20 -43 0 -144 124 -144 178 0 70 42 125 115 149 33 11 52 7 76 -16z"/>
</g>
</svg>
