<?xml version="1.0" standalone="no"?>
<!DOCTYPE svg PUBLIC "-//W3C//DTD SVG 20010904//EN" "http://www.w3.org/TR/2001/REC-SVG-20010904/DTD/svg10.dtd">
<svg xmlns="http://www.w3.org/2000/svg" version="1.0" width="360.000000pt" height="360.000000pt" viewBox="0 0 360.000000 360.000000" preserveAspectRatio="xMidYMid meet">

<g transform="translate(0.000000,360.000000) scale(0.100000,-0.100000)" fill="#000000" stroke="none">
<path d="M2013 2141 c-4 -16 -9 -18 -30 -10 -13 5 -30 9 -38 9 -17 0 -45 -27 -45 -44 0 -22 40 -56 66 -56 14 0 22 -4 19 -10 -3 -5 -27 -10 -52 -10 -57 0 -163 -53 -163 -82 0 -10 -24 -42 -53 -71 -88 -86 -319 -340 -338 -371 -10 -16 -63 -79 -118 -140 -55 -61 -141 -158 -192 -216 -50 -58 -112 -127 -138 -155 -26 -27 -80 -90 -121 -140 -41 -49 -98 -116 -127 -147 -70 -74 -70 -104 -1 -132 19 -8 38 -13 41 -10 3 3 27 -6 53 -20 27 -14 55 -26 61 -26 7 0 13 -4 13 -10 0 -17 35 -11 58 10 18 17 20 25 12 40 -6 11 -18 20 -27 20 -35 0 -173 43 -173 54 0 6 19 34 43 61 24 28 61 76 83 107 23 31 72 92 111 135 39 43 128 143 198 223 70 80 157 179 194 220 37 41 95 109 128 150 69 85 354 387 386 409 14 10 54 17 114 19 l93 4 29 -31 c16 -17 54 -69 84 -114 107 -160 379 -447 424 -447 8 0 13 -14 13 -37 0 -34 -4 -40 -38 -54 -57 -24 -96 -87 -96 -157 0 -31 4 -65 8 -74 17 -38 -11 -16 -32 25 -20 38 -78 134 -252 414 -56 91 -150 223 -183 258 -11 11 -26 31 -35 45 -25 38 -115 140 -124 140 -15 0 -8 -38 17 -85 14 -26 56 -88 93 -136 109 -144 182 -252 279 -416 13 -21 51 -86 86 -144 35 -58 71 -119 79 -135 13 -25 85 -154 122 -219 47 -84 144 -226 156 -229 8 -3 76 -8 150 -11 125 -6 137 -5 153 13 16 18 16 20 -4 38 -17 15 -42 20 -135 24 l-114 5 -38 40 c-38 39 -79 100 -136 200 -28 48 -28 49 -5 30 44 -37 89 -57 134 -58 36 -2 49 3 76 28 17 17 42 53 54 80 50 113 -9 275 -128 350 -22 14 -27 23 -22 42 3 13 -2 40 -11 61 -9 20 -34 74 -56 120 -21 45 -38 85 -38 87 0 16 -119 146 -172 189 -35 27 -98 80 -140 117 -42 37 -86 70 -98 74 -17 5 -19 9 -9 21 10 12 8 18 -10 30 -37 27 -72 65 -66 74 8 14 -27 50 -48 50 -10 0 -21 -9 -24 -19z m470 -524 c51 -72 81 -127 69 -127 -9 0 -128 120 -188 190 -22 25 -41 47 -44 50 -9 8 -66 84 -75 99 -5 8 37 -22 93 -67 62 -51 118 -106 145 -145z m256 -457 c57 -72 64 -126 25 -197 -27 -52 -29 -52 -67 -47 -42 5 -82 31 -103 67 -55 92 -58 141 -13 192 27 30 37 35 75 35 40 0 46 -4 83 -50z"/>
</g>
</svg>
