<?xml version="1.0" standalone="no"?>
<!DOCTYPE svg PUBLIC "-//W3C//DTD SVG 20010904//EN" "http://www.w3.org/TR/2001/REC-SVG-20010904/DTD/svg10.dtd">
<svg xmlns="http://www.w3.org/2000/svg" version="1.0" width="320.000000pt" height="320.000000pt" viewBox="0 0 320.000000 320.000000" preserveAspectRatio="xMidYMid meet">

<g transform="translate(0.000000,320.000000) scale(0.100000,-0.100000)" fill="#000000" stroke="none">
<path d="M2585 1693 c-69 -7 -120 -26 -170 -63 -30 -22 -56 -49 -60 -60 -6 -19 -30 -38 -115 -93 -26 -16 -65 -18 -397 -23 -368 -5 -557 -17 -580 -36 -17 -13 -16 -33 0 -46 10 -8 27 -7 63 4 39 12 121 16 399 20 l350 4 -150 -75 c-82 -42 -187 -96 -232 -121 -46 -24 -89 -44 -97 -44 -8 0 -21 -6 -29 -14 -8 -8 -72 -33 -143 -57 -71 -23 -180 -66 -242 -96 -63 -30 -144 -65 -180 -78 -149 -52 -230 -83 -279 -107 -28 -14 -64 -29 -79 -32 -15 -4 -39 -16 -52 -27 -14 -10 -29 -19 -34 -19 -5 0 -60 -23 -121 -51 -160 -73 -162 -74 -269 -109 -57 -18 -99 -38 -102 -47 -8 -19 22 -151 38 -172 8 -11 13 -9 28 9 14 18 17 33 12 76 -8 61 4 84 43 84 36 0 230 78 381 154 73 37 159 76 190 88 31 11 76 29 99 39 23 11 47 19 52 19 6 0 34 11 63 24 29 14 67 28 83 32 17 4 89 35 160 69 118 56 302 127 322 124 4 -1 10 0 13 1 55 22 443 13 548 -13 l47 -12 -1 -80 c-1 -44 -2 -167 -3 -273 -1 -271 5 -282 158 -282 70 0 79 2 84 20 8 30 -16 42 -82 41 -98 0 -99 2 -104 209 -2 96 -1 216 4 267 15 176 10 179 -291 188 -118 4 -217 8 -218 10 -6 6 501 255 519 255 9 0 30 7 45 15 40 20 78 19 99 -5 29 -32 99 -54 152 -46 43 6 49 4 80 -26 27 -26 36 -30 42 -19 5 8 5 27 0 44 -14 49 17 66 121 67 102 1 246 9 314 18 58 8 80 32 54 59 -15 14 -21 15 -45 4 -30 -14 -204 -28 -293 -23 l-56 3 4 63 c3 48 0 70 -13 89 -19 29 -85 54 -130 50z m71 -88 c17 -25 15 -89 -3 -106 -4 -4 -66 -9 -136 -11 l-128 -3 6 24 c18 72 94 121 187 121 50 0 60 -3 74 -25z m-135 -185 c-19 -5 -53 -5 -75 0 -36 7 -31 8 34 8 60 0 68 -2 41 -8z"/>
</g>
</svg>
