<?xml version="1.0" standalone="no"?>
<!DOCTYPE svg PUBLIC "-//W3C//DTD SVG 20010904//EN" "http://www.w3.org/TR/2001/REC-SVG-20010904/DTD/svg10.dtd">
<svg xmlns="http://www.w3.org/2000/svg" version="1.0" width="360.000000pt" height="360.000000pt" viewBox="0 0 360.000000 360.000000" preserveAspectRatio="xMidYMid meet">

<g transform="translate(0.000000,360.000000) scale(0.100000,-0.100000)" fill="#000000" stroke="none">
<path d="M2584 2419 c-20 -6 -50 -31 -85 -74 -56 -67 -71 -74 -103 -50 -55 42 -61 -2 -8 -55 33 -34 37 -42 34 -83 -3 -46 33 -146 57 -162 24 -14 8 -46 -51 -104 l-63 -62 -135 6 c-74 4 -265 2 -425 -5 -159 -6 -339 -11 -400 -12 -111 -1 -156 -11 -137 -30 23 -23 201 -28 672 -15 162 4 311 4 330 -1 l34 -8 -20 -19 c-114 -109 -161 -152 -192 -177 -20 -16 -57 -49 -82 -72 -25 -23 -60 -52 -78 -65 -19 -13 -61 -47 -94 -76 -88 -77 -290 -175 -503 -244 -22 -8 -73 -29 -113 -47 -40 -19 -77 -34 -82 -34 -6 0 -18 -4 -28 -9 -9 -5 -84 -35 -167 -67 -82 -31 -190 -74 -240 -94 -49 -21 -139 -57 -200 -80 -60 -23 -119 -46 -130 -51 -11 -4 -49 -19 -85 -33 l-65 -25 0 -43 c1 -43 51 -163 69 -163 5 0 14 8 20 17 10 17 4 43 -31 134 -2 6 32 22 78 38 45 14 116 43 158 63 42 19 143 62 226 95 82 32 159 63 170 68 11 5 74 30 140 55 66 25 140 55 165 67 25 11 92 37 150 58 207 74 385 153 453 202 32 23 36 23 317 23 l285 0 2 -100 c2 -107 4 -125 27 -307 22 -169 38 -192 138 -192 l38 -1 -5 -40 c-6 -37 -4 -41 26 -54 37 -16 246 -22 267 -8 17 13 15 44 -4 55 -9 5 -63 7 -120 5 l-103 -5 5 103 c3 57 12 164 20 237 9 74 13 163 10 202 -8 104 -32 139 -96 140 -19 0 -57 6 -85 13 l-50 13 -7 105 c-16 215 -31 339 -44 350 -11 9 -4 22 33 67 25 32 48 63 50 69 3 8 24 13 55 13 127 0 239 136 240 294 1 105 -22 162 -71 174 -32 9 -137 9 -167 1z m90 -74 c-5 -21 -3 -25 15 -25 41 0 61 -34 61 -103 0 -54 -5 -70 -30 -110 -33 -49 -76 -80 -127 -90 -47 -9 -79 23 -97 96 -18 70 -12 108 24 162 37 54 58 71 100 83 56 16 61 15 54 -13z m-269 -682 c2 -21 7 -96 11 -168 3 -71 7 -136 9 -142 3 -10 -46 -13 -228 -12 -128 0 -241 4 -251 8 -17 6 -16 9 12 27 51 32 350 305 398 363 l28 34 8 -36 c4 -19 10 -53 13 -74z m140 -373 c-3 -5 7 -12 22 -15 45 -9 77 -29 90 -55 15 -29 11 -200 -7 -289 -5 -29 -10 -82 -10 -117 0 -63 -6 -74 -27 -53 -5 5 -24 11 -41 11 -29 1 -32 4 -37 47 -3 25 -10 78 -16 116 -6 39 -13 134 -16 211 -6 133 -5 142 13 147 31 8 35 7 29 -3z"/>
</g>
</svg>
