<?xml version="1.0" standalone="no"?>
<!DOCTYPE svg PUBLIC "-//W3C//DTD SVG 20010904//EN" "http://www.w3.org/TR/2001/REC-SVG-20010904/DTD/svg10.dtd">
<svg xmlns="http://www.w3.org/2000/svg" version="1.0" width="360.000000pt" height="360.000000pt" viewBox="0 0 360.000000 360.000000" preserveAspectRatio="xMidYMid meet">

<g transform="translate(0.000000,360.000000) scale(0.100000,-0.100000)" fill="#000000" stroke="none">
<path d="M2731 3163 c-24 -59 -42 -229 -51 -493 -6 -151 -8 -281 -5 -288 2 -7 5 -101 5 -208 1 -108 6 -208 11 -222 l10 -26 20 21 c19 19 21 32 20 159 0 77 -3 240 -6 364 -6 241 6 474 31 605 22 110 22 110 -2 113 -15 2 -24 -5 -33 -25z"/>
<path d="M2901 2456 c-8 -10 -11 -40 -8 -86 l4 -71 -43 -42 c-45 -45 -84 -127 -84 -179 0 -17 9 -46 21 -64 20 -32 20 -34 2 -34 -10 0 -44 -24 -74 -52 -31 -29 -70 -63 -86 -75 -29 -22 -136 -130 -295 -298 -47 -49 -98 -114 -114 -142 -16 -29 -33 -52 -39 -51 -23 4 -297 -94 -390 -138 -118 -58 -201 -94 -215 -94 -5 0 -34 -11 -64 -25 -30 -14 -61 -25 -68 -25 -16 0 -177 -67 -193 -80 -6 -5 -32 -14 -59 -21 -26 -6 -60 -21 -74 -33 -15 -12 -45 -28 -67 -35 -22 -8 -85 -35 -140 -61 -113 -54 -209 -92 -275 -111 -25 -7 -50 -17 -57 -22 -7 -5 -16 -6 -22 -3 -14 9 -53 -45 -45 -63 3 -9 14 -45 23 -81 22 -88 28 -96 53 -73 17 15 19 26 14 83 -4 36 -3 71 2 79 5 7 31 17 58 22 67 13 198 67 389 161 88 43 219 102 290 129 72 28 162 64 200 80 39 16 95 36 125 45 30 9 75 28 101 44 25 15 56 31 70 35 13 4 44 18 69 31 52 27 149 64 168 64 7 0 31 9 52 19 24 11 42 15 46 10 3 -6 10 -6 17 -1 16 12 21 13 172 15 137 2 278 -3 309 -11 17 -4 18 -12 11 -91 -4 -47 -9 -104 -11 -126 -5 -57 -5 -253 0 -298 7 -69 48 -107 116 -107 19 0 33 8 44 25 21 32 13 45 -28 45 -19 0 -39 6 -45 14 -24 28 -34 180 -23 319 12 135 20 209 26 214 1 1 22 -3 47 -10 l44 -13 0 -314 c0 -406 -4 -397 170 -401 87 -2 104 4 105 38 0 19 -13 23 -90 28 -83 6 -108 17 -114 48 -10 46 -13 386 -5 491 14 165 -1 192 -109 202 -31 4 -58 7 -59 8 -2 1 -6 97 -9 213 -8 245 -1 288 50 313 18 9 32 24 34 36 l3 22 50 -19 c59 -23 75 -23 131 -5 24 8 55 16 69 20 39 9 97 74 120 135 36 96 14 217 -44 248 -49 25 -139 44 -178 38 l-37 -6 8 37 c13 55 -19 86 -49 50z m176 -163 c59 -28 65 -38 70 -111 3 -61 1 -71 -24 -107 -49 -68 -188 -102 -245 -60 -44 33 -53 58 -39 105 13 44 72 116 106 131 32 14 59 33 68 47 11 16 19 15 64 -5z m-400 -571 c1 -53 5 -154 9 -225 l7 -127 -99 5 c-55 3 -150 6 -213 6 l-115 -1 55 56 c82 84 102 107 124 139 30 44 120 144 179 197 28 26 51 48 51 48 0 0 1 -44 2 -98z"/>
</g>
</svg>
