<?xml version="1.0" standalone="no"?>
<!DOCTYPE svg PUBLIC "-//W3C//DTD SVG 20010904//EN" "http://www.w3.org/TR/2001/REC-SVG-20010904/DTD/svg10.dtd">
<svg xmlns="http://www.w3.org/2000/svg" version="1.0" width="360.000000pt" height="360.000000pt" viewBox="0 0 360.000000 360.000000" preserveAspectRatio="xMidYMid meet">

<g transform="translate(0.000000,360.000000) scale(0.100000,-0.100000)" fill="#000000" stroke="none">
<path d="M3295 2624 c-22 -9 -76 -30 -120 -47 -163 -63 -411 -209 -505 -299 -61 -57 -113 -123 -140 -178 -30 -58 -60 -147 -60 -176 0 -14 -12 -31 -32 -46 -18 -12 -73 -57 -123 -100 -49 -43 -93 -78 -98 -78 -8 0 -94 -69 -135 -108 -46 -43 -208 -139 -402 -238 -85 -43 -157 -81 -160 -84 -3 -3 -18 -11 -35 -19 -16 -7 -46 -22 -65 -31 -64 -33 -495 -177 -565 -190 -105 -19 -351 -95 -376 -116 -24 -21 -15 -202 12 -229 15 -15 23 -17 37 -9 14 9 18 28 20 97 l3 86 47 21 c26 12 103 35 172 51 119 29 221 59 265 78 11 5 56 19 100 30 44 12 112 34 150 48 39 14 84 31 100 37 43 16 337 166 355 181 8 8 35 21 60 31 25 10 91 45 148 79 l102 61 83 -8 c45 -4 141 -7 212 -7 72 -1 157 -4 190 -8 l60 -8 12 -145 c29 -357 46 -457 77 -461 6 -1 18 -3 26 -4 53 -5 90 -19 95 -36 7 -23 2 -22 140 -23 87 -1 115 -5 135 -18 51 -36 111 -10 95 41 -8 25 -12 26 -141 46 -82 13 -112 22 -122 36 -7 11 -22 19 -33 19 -20 0 -21 3 -13 137 12 205 10 353 -5 396 -17 50 -56 70 -128 65 l-55 -3 -5 95 c-4 90 -49 267 -74 295 -28 30 27 42 58 13 13 -12 23 -18 23 -14 0 5 6 4 13 -1 6 -6 35 -16 62 -23 53 -13 61 -11 192 52 32 16 67 56 98 112 45 81 26 147 -60 206 -40 27 -53 31 -125 33 -44 1 -80 5 -80 9 0 4 11 13 24 20 13 7 68 41 123 75 54 35 176 102 271 150 124 64 172 93 172 105 0 22 -22 22 -75 2z m-425 -446 c60 3 100 -16 116 -54 13 -30 12 -38 -1 -64 -54 -104 -194 -152 -278 -95 -33 23 -37 30 -37 69 0 38 5 48 50 92 54 53 77 66 100 56 8 -3 31 -5 50 -4z m-296 -187 c-16 -15 -16 -15 -9 4 4 11 10 31 14 45 6 25 6 25 9 -4 2 -18 -3 -35 -14 -45z m-11 -168 c3 -21 12 -63 20 -94 8 -30 17 -92 21 -138 l7 -82 -43 5 c-131 16 -173 19 -274 17 -61 -1 -123 1 -138 5 l-28 7 39 33 c21 19 56 46 78 61 22 15 76 60 120 99 84 75 173 137 185 129 5 -3 10 -22 13 -42z m132 -393 c3 -5 26 -10 50 -10 36 0 45 -4 50 -21 9 -27 8 -186 -1 -361 -6 -134 -7 -138 -29 -138 -35 0 -45 21 -55 112 -5 45 -14 109 -19 142 -17 98 -25 286 -13 286 6 0 14 -4 17 -10z"/>
</g>
</svg>
