<?xml version="1.0" standalone="no"?>
<!DOCTYPE svg PUBLIC "-//W3C//DTD SVG 20010904//EN" "http://www.w3.org/TR/2001/REC-SVG-20010904/DTD/svg10.dtd">
<svg xmlns="http://www.w3.org/2000/svg" version="1.0" width="360.000000pt" height="360.000000pt" viewBox="0 0 360.000000 360.000000" preserveAspectRatio="xMidYMid meet">

<g transform="translate(0.000000,360.000000) scale(0.100000,-0.100000)" fill="#000000" stroke="none">
<path d="M2166 2719 c-41 -12 -93 -65 -112 -115 -13 -33 -15 -66 -12 -141 6 -117 29 -177 88 -224 37 -30 60 -76 43 -88 -5 -3 -15 -21 -23 -39 -7 -19 -25 -41 -39 -50 -14 -9 -55 -39 -91 -67 -36 -28 -81 -60 -100 -71 -19 -10 -44 -26 -55 -35 -11 -9 -56 -35 -100 -59 -44 -23 -93 -52 -110 -65 -37 -27 -150 -81 -190 -91 -16 -4 -34 -10 -40 -14 -5 -4 -30 -10 -55 -13 -25 -3 -55 -8 -67 -12 -37 -12 -40 -75 -3 -75 12 0 20 -9 22 -22 4 -32 48 -27 96 10 63 49 177 111 234 126 87 24 119 38 201 90 96 60 199 103 264 109 l49 5 -7 -47 c-48 -314 -152 -505 -401 -739 -44 -41 -131 -102 -145 -102 -11 0 -97 -42 -113 -55 -8 -7 -37 -20 -65 -29 -27 -9 -63 -23 -80 -30 -16 -8 -64 -29 -105 -48 -103 -47 -128 -57 -180 -67 -58 -12 -101 -25 -174 -51 -69 -25 -200 -49 -236 -44 -14 2 -39 6 -56 9 -28 5 -33 2 -44 -25 -9 -21 -10 -37 -3 -53 10 -21 16 -22 164 -24 153 -1 213 -11 323 -49 49 -17 49 -17 68 5 10 13 18 29 18 36 0 16 -93 52 -163 64 -40 6 -47 10 -32 16 11 4 34 13 50 20 17 7 48 16 70 20 35 7 134 40 190 65 143 65 179 80 189 80 6 0 71 30 145 66 98 49 149 81 190 120 31 29 83 68 115 85 32 18 78 52 101 76 24 24 46 40 49 35 3 -5 68 -8 148 -7 79 1 184 -2 233 -7 125 -12 172 -15 227 -17 43 -1 47 -3 57 -33 10 -34 8 -242 -4 -449 l-7 -116 23 -5 c13 -3 89 -3 169 -2 94 2 153 -2 169 -9 20 -10 26 -8 43 12 10 14 18 34 16 45 -3 20 -10 21 -157 24 -99 2 -160 7 -169 14 -11 10 -12 45 -6 202 8 227 7 286 -6 337 -9 34 -15 39 -48 44 -20 4 -57 13 -82 21 -54 17 -257 31 -355 24 -94 -7 -245 -1 -245 10 0 4 17 39 38 77 44 77 106 233 123 308 45 203 61 389 39 467 -6 18 -10 35 -10 39 0 3 23 11 51 18 79 21 155 106 161 180 2 29 13 37 42 32 11 -2 36 19 36 30 0 5 -20 24 -45 41 -40 28 -45 36 -45 70 0 21 -4 38 -9 38 -5 0 -14 13 -21 30 -26 63 -154 112 -234 89z m166 -120 c37 -46 54 -141 36 -201 -18 -60 -76 -118 -117 -118 -79 0 -132 66 -139 174 -5 80 7 130 39 165 18 19 29 21 86 19 62 -3 68 -5 95 -39z m-169 -623 c-10 -13 -36 -28 -58 -34 -22 -6 -51 -14 -65 -18 -14 -4 11 20 55 53 67 50 81 57 83 42 2 -10 -5 -29 -15 -43z"/>
</g>
</svg>
