<?xml version="1.0" standalone="no"?>
<!DOCTYPE svg PUBLIC "-//W3C//DTD SVG 20010904//EN" "http://www.w3.org/TR/2001/REC-SVG-20010904/DTD/svg10.dtd">
<svg xmlns="http://www.w3.org/2000/svg" version="1.0" width="360.000000pt" height="360.000000pt" viewBox="0 0 360.000000 360.000000" preserveAspectRatio="xMidYMid meet">

<g transform="translate(0.000000,360.000000) scale(0.100000,-0.100000)" fill="#000000" stroke="none">
<path d="M2749 2257 c-79 -27 -130 -63 -167 -120 -22 -33 -27 -52 -27 -104 0 -34 -4 -63 -8 -63 -5 0 -39 -24 -76 -52 -78 -62 -564 -308 -606 -308 -8 0 -15 -9 -15 -20 0 -12 -13 -25 -37 -36 -21 -10 -45 -23 -53 -30 -8 -7 -62 -35 -120 -64 -58 -28 -116 -57 -130 -64 -14 -7 -65 -25 -115 -40 -49 -15 -124 -38 -166 -51 -68 -22 -113 -33 -189 -49 -14 -3 -50 -12 -80 -21 -30 -9 -75 -21 -100 -25 -25 -5 -70 -17 -100 -26 -30 -9 -79 -19 -108 -23 -59 -8 -75 -23 -67 -61 14 -71 17 -161 5 -190 -19 -46 -1 -62 64 -56 28 2 66 5 84 5 36 1 42 22 17 55 -12 16 -19 18 -39 8 -41 -18 -62 -6 -62 36 0 20 -2 57 -4 82 l-5 44 80 27 c44 14 159 45 255 69 96 23 207 53 245 65 39 13 99 31 135 41 95 26 314 121 395 171 38 24 73 43 78 43 4 0 21 10 38 22 24 18 44 22 122 24 50 2 149 5 219 8 70 3 129 2 132 -3 6 -9 -1 -37 -81 -336 -39 -147 -47 -193 -45 -249 3 -78 8 -92 28 -75 8 7 14 30 14 60 0 26 4 58 9 71 5 13 28 104 52 203 23 99 45 183 49 188 3 4 3 -23 -1 -60 -4 -38 -8 -117 -10 -178 -1 -60 -7 -131 -11 -157 -7 -37 -5 -53 7 -72 22 -34 54 -42 170 -45 55 -2 103 -5 107 -7 4 -3 19 -2 33 2 31 8 32 32 4 68 -19 25 -25 26 -113 26 -81 0 -95 3 -115 22 -23 21 -24 23 -18 177 3 86 9 189 12 229 4 48 1 91 -9 128 -13 51 -13 62 5 132 41 163 41 164 108 212 l36 27 39 -25 c56 -35 102 -38 180 -13 l67 21 43 -25 c71 -42 85 -29 40 36 l-26 38 20 38 c48 90 54 162 20 213 -51 75 -110 91 -209 57z m101 -46 c0 -5 13 -14 29 -21 31 -12 48 -52 37 -87 -3 -10 -7 -30 -10 -46 -12 -70 -95 -127 -186 -127 -43 0 -52 4 -80 37 -29 32 -31 41 -26 77 4 23 11 43 16 44 6 2 10 10 10 17 0 22 68 72 116 85 25 7 47 17 50 21 7 12 44 12 44 0z m-443 -428 c-3 -5 -12 -42 -21 -83 -13 -56 -21 -76 -34 -77 -9 -1 -89 -4 -177 -8 -145 -4 -157 -4 -130 10 17 8 35 14 42 15 7 0 34 14 60 30 26 17 54 30 63 30 9 0 38 14 66 32 62 40 143 71 131 51z"/>
</g>
</svg>
