<?xml version="1.0" standalone="no"?>
<!DOCTYPE svg PUBLIC "-//W3C//DTD SVG 20010904//EN" "http://www.w3.org/TR/2001/REC-SVG-20010904/DTD/svg10.dtd">
<svg xmlns="http://www.w3.org/2000/svg" version="1.0" width="360.000000pt" height="360.000000pt" viewBox="0 0 360.000000 360.000000" preserveAspectRatio="xMidYMid meet">

<g transform="translate(0.000000,360.000000) scale(0.100000,-0.100000)" fill="#000000" stroke="none">
<path d="M1736 3419 c-11 -26 -10 -40 6 -97 24 -89 55 -153 76 -159 18 -4 75 -114 88 -167 4 -16 13 -41 20 -54 10 -20 9 -31 -5 -66 -19 -43 -19 -63 -1 -151 21 -102 124 -215 196 -215 27 0 36 -6 49 -31 25 -46 82 -227 96 -300 15 -83 16 -327 0 -449 -15 -115 -66 -275 -100 -314 -64 -71 -234 -183 -456 -301 -62 -33 -205 -85 -234 -85 -9 0 -21 -4 -27 -10 -5 -5 -61 -22 -124 -39 -63 -16 -122 -32 -130 -35 -8 -3 -33 -7 -55 -10 -22 -3 -65 -10 -95 -15 -30 -6 -103 -19 -162 -30 -59 -11 -112 -22 -117 -25 -5 -4 -51 -7 -102 -7 -112 -1 -125 -10 -102 -74 8 -22 15 -75 15 -117 1 -90 1 -90 94 -84 66 4 104 19 104 41 0 17 -65 40 -102 36 -24 -2 -28 1 -28 24 0 14 -6 41 -14 59 l-14 34 141 27 c78 14 169 31 202 37 33 6 123 24 200 41 77 16 159 33 183 38 24 5 47 11 52 14 5 3 55 19 110 36 55 16 130 43 165 59 83 37 276 145 335 186 25 17 60 39 78 48 30 16 100 72 179 144 18 16 40 33 50 36 32 13 521 -5 541 -20 15 -11 17 -30 17 -136 -1 -185 -20 -446 -43 -579 -10 -60 -4 -97 17 -109 37 -19 140 -21 202 -4 33 9 62 21 66 27 14 22 -30 36 -115 36 -109 0 -114 5 -102 91 5 36 14 143 20 239 5 95 13 177 16 182 3 5 8 51 11 102 6 98 -12 192 -41 216 -9 7 -90 13 -237 16 -204 4 -369 13 -377 20 -2 2 4 27 13 57 9 29 18 73 21 98 18 169 21 229 19 335 -1 66 2 130 6 142 5 13 2 58 -7 109 -11 66 -14 133 -10 277 3 104 1 197 -4 206 -5 9 -14 32 -20 51 -10 33 -9 36 30 72 66 61 50 108 -20 62 l-41 -27 -32 33 c-40 41 -115 90 -138 90 -18 0 -125 100 -167 155 -12 17 -33 44 -46 60 -13 17 -29 48 -36 70 -8 22 -22 47 -32 57 -10 9 -18 23 -18 31 0 17 -26 47 -41 47 -6 0 -16 -14 -23 -31z m274 -425 c0 -6 -7 -15 -15 -18 -11 -4 -17 3 -22 24 -3 17 -10 33 -14 36 -5 3 -9 10 -9 16 0 7 14 -1 30 -17 17 -16 30 -34 30 -41z m91 -92 c114 -129 142 -174 135 -215 -7 -35 -53 -97 -80 -107 -47 -17 -143 42 -130 82 2 9 0 19 -6 23 -5 3 -16 19 -24 34 -12 23 -12 37 -1 89 11 56 50 132 66 132 4 0 22 -17 40 -38z m156 -415 l2 -82 -13 43 c-8 23 -20 49 -27 58 -10 12 -8 19 11 39 13 14 24 25 24 25 1 0 2 -37 3 -83z"/>
</g>
</svg>
