<?xml version="1.0" standalone="no"?>
<!DOCTYPE svg PUBLIC "-//W3C//DTD SVG 20010904//EN" "http://www.w3.org/TR/2001/REC-SVG-20010904/DTD/svg10.dtd">
<svg xmlns="http://www.w3.org/2000/svg" version="1.0" width="360.000000pt" height="360.000000pt" viewBox="0 0 360.000000 360.000000" preserveAspectRatio="xMidYMid meet">

<g transform="translate(0.000000,360.000000) scale(0.100000,-0.100000)" fill="#000000" stroke="none">
<path d="M2088 3141 c-15 -3 -44 -26 -65 -50 -36 -42 -37 -47 -38 -120 0 -66 4 -85 33 -143 39 -80 110 -156 152 -164 23 -5 30 -12 30 -30 0 -13 -3 -24 -8 -24 -4 0 -18 -10 -32 -23 -14 -12 -50 -42 -80 -67 -30 -25 -61 -52 -67 -61 -17 -23 -139 -119 -150 -119 -21 0 -40 -35 -33 -60 6 -23 11 -25 51 -22 24 1 53 6 64 11 222 91 241 96 249 68 3 -14 11 -18 25 -14 17 4 21 -1 26 -47 8 -64 -10 -258 -33 -354 -12 -50 -25 -77 -40 -88 -12 -8 -22 -20 -22 -27 0 -41 -166 -211 -313 -322 -55 -41 -282 -162 -322 -171 -5 -1 -57 -22 -115 -47 -58 -24 -130 -50 -160 -56 -30 -7 -89 -23 -130 -36 -41 -12 -106 -32 -145 -44 -38 -12 -83 -24 -100 -27 -44 -8 -45 -9 -110 -28 -45 -14 -67 -16 -92 -8 -27 8 -35 7 -52 -12 -14 -15 -18 -29 -14 -46 9 -34 18 -38 78 -35 67 4 262 -48 322 -86 27 -16 51 -6 59 26 7 29 -2 43 -32 49 -52 11 -197 66 -184 70 8 3 42 12 75 21 33 9 69 20 80 24 11 5 72 23 135 41 264 74 409 132 640 258 66 36 159 107 240 182 68 64 88 74 149 76 31 1 96 4 146 7 51 3 95 1 102 -4 7 -7 14 -6 18 1 4 7 64 11 168 11 89 1 175 1 190 1 38 1 76 -21 83 -46 5 -21 -4 -148 -27 -391 -18 -186 -16 -263 9 -288 19 -19 32 -20 124 -19 110 3 135 13 124 50 -9 26 -34 32 -93 21 -114 -22 -132 13 -105 206 23 162 34 377 23 444 -17 102 -10 99 -234 93 -292 -10 -474 -6 -483 10 -3 5 4 20 16 35 52 66 88 280 84 491 -2 123 -1 132 16 132 10 0 22 5 25 10 3 6 14 10 24 10 13 0 29 28 61 108 69 170 76 185 119 234 44 49 52 82 24 96 -26 13 -41 5 -113 -61 -68 -61 -184 -147 -200 -147 -20 0 -9 18 14 24 34 8 83 69 97 118 7 26 9 69 5 110 -6 60 -5 67 12 72 10 4 24 17 30 31 6 13 23 31 37 41 45 30 21 66 -26 39 -13 -8 -31 -17 -39 -20 -8 -4 -22 -10 -31 -15 -11 -6 -21 0 -35 21 -25 39 -48 53 -116 73 -59 17 -75 18 -120 7z m88 -66 c10 -8 30 -15 44 -15 17 0 33 -11 49 -35 38 -56 68 -215 40 -215 -5 0 -7 -4 -4 -10 19 -31 -57 -86 -105 -75 -37 8 -91 68 -130 145 -26 52 -31 71 -26 102 8 52 33 88 71 104 38 17 37 17 61 -1z m225 -466 c-24 -51 -30 -59 -30 -37 -1 15 -6 30 -12 33 -5 4 -9 11 -7 15 3 9 71 58 76 55 1 -1 -11 -31 -27 -66z m-110 -52 c-1 -4 -1 -21 -1 -39 0 -40 -5 -34 -14 16 -5 27 -4 37 4 34 6 -2 11 -7 11 -11z m-107 -42 c-4 -8 -1 -22 6 -30 6 -7 10 -24 8 -36 -2 -17 -25 -31 -107 -65 -57 -25 -106 -43 -108 -40 -3 3 21 29 53 59 33 29 77 70 99 90 43 39 58 46 49 22z"/>
</g>
</svg>
