<?xml version="1.0" standalone="no"?>
<!DOCTYPE svg PUBLIC "-//W3C//DTD SVG 20010904//EN" "http://www.w3.org/TR/2001/REC-SVG-20010904/DTD/svg10.dtd">
<svg xmlns="http://www.w3.org/2000/svg" version="1.0" width="360.000000pt" height="360.000000pt" viewBox="0 0 360.000000 360.000000" preserveAspectRatio="xMidYMid meet">

<g transform="translate(0.000000,360.000000) scale(0.100000,-0.100000)" fill="#000000" stroke="none">
<path d="M2600 2411 c-73 -21 -158 -101 -197 -186 -22 -49 -27 -74 -27 -136 0 -43 5 -83 11 -90 8 -11 4 -22 -17 -48 -16 -18 -33 -30 -39 -27 -5 4 -19 1 -30 -6 -15 -9 -52 -9 -168 -1 -81 7 -240 10 -353 8 -113 -2 -243 1 -290 7 -101 12 -143 2 -138 -34 4 -29 3 -29 393 -32 171 -2 363 -4 427 -6 l117 -3 -15 -26 c-31 -52 -230 -294 -291 -354 -139 -137 -272 -244 -371 -298 -24 -13 -73 -41 -110 -61 -123 -69 -233 -117 -315 -139 -45 -11 -111 -32 -147 -44 -36 -13 -99 -32 -140 -41 -41 -9 -109 -25 -150 -36 -98 -26 -198 -46 -284 -59 -47 -6 -76 -16 -88 -29 -10 -11 -23 -20 -28 -20 -6 0 -10 -8 -10 -19 0 -14 10 -20 40 -25 22 -3 54 -13 72 -21 18 -7 62 -23 98 -34 36 -11 97 -31 135 -44 73 -25 90 -25 99 -1 9 23 -4 44 -27 42 -12 0 -63 15 -113 35 -50 20 -103 38 -119 41 -42 8 -43 16 -1 16 40 0 124 19 216 49 30 10 91 26 135 36 44 10 127 33 185 51 58 18 126 38 153 44 43 9 138 48 212 86 106 55 202 109 215 119 8 7 31 21 50 30 19 10 37 21 40 25 3 4 25 22 50 41 25 19 65 50 89 69 24 19 47 34 51 33 4 -1 72 -3 151 -4 181 -2 315 -16 346 -36 13 -9 37 -16 54 -15 19 0 33 -6 40 -20 7 -13 10 -110 8 -292 -2 -149 1 -277 5 -284 13 -22 58 -35 126 -38 36 -1 75 -5 87 -9 16 -5 24 -1 32 14 26 47 -24 74 -127 70 -23 -1 -45 1 -50 5 -4 4 -6 121 -4 259 2 171 -1 266 -9 295 -16 57 -58 90 -119 91 -25 0 -79 5 -120 11 -41 6 -129 11 -196 11 -66 1 -126 4 -132 8 -10 6 70 113 159 210 22 24 60 72 83 105 23 34 57 82 75 107 l32 45 127 -2 c70 -1 150 1 177 6 28 5 64 11 80 14 17 3 62 8 100 11 203 19 484 64 525 85 21 10 24 54 5 70 -13 11 -22 10 -53 -5 -42 -20 -132 -38 -307 -60 -66 -9 -174 -23 -240 -32 -145 -19 -276 -29 -328 -24 -31 2 -36 6 -26 17 8 10 16 11 31 3 46 -25 185 16 229 67 47 55 64 65 90 56 19 -8 28 -5 47 15 12 13 22 28 22 32 0 9 -39 46 -49 46 -3 0 -4 5 -2 10 2 6 6 39 8 75 4 56 2 69 -19 99 -12 19 -45 46 -73 61 -49 26 -51 26 -105 11z m92 -86 c36 -33 43 -66 29 -127 -15 -69 -73 -141 -133 -167 -55 -25 -106 -27 -114 -6 -4 8 -10 13 -14 10 -4 -3 -10 5 -14 18 -21 79 14 180 84 240 24 20 46 34 50 32 4 -3 13 2 20 10 19 23 62 18 92 -10z"/>
</g>
</svg>
