<?xml version="1.0" standalone="no"?>
<!DOCTYPE svg PUBLIC "-//W3C//DTD SVG 20010904//EN" "http://www.w3.org/TR/2001/REC-SVG-20010904/DTD/svg10.dtd">
<svg xmlns="http://www.w3.org/2000/svg" version="1.0" width="360.000000pt" height="360.000000pt" viewBox="0 0 360.000000 360.000000" preserveAspectRatio="xMidYMid meet">

<g transform="translate(0.000000,360.000000) scale(0.100000,-0.100000)" fill="#000000" stroke="none">
<path d="M1663 3005 c-17 -6 -46 -23 -63 -38 -82 -74 -92 -204 -27 -342 47 -97 62 -115 99 -115 25 0 28 -3 28 -32 0 -27 -4 -33 -22 -34 -13 0 -70 -6 -128 -12 -115 -13 -282 -24 -373 -24 -32 0 -71 -5 -86 -11 -35 -13 -71 -88 -71 -148 -1 -24 -5 -64 -10 -89 -6 -25 -13 -74 -16 -110 -8 -90 -29 -174 -61 -242 -22 -49 -25 -61 -15 -83 6 -14 18 -25 26 -25 12 0 12 -5 -1 -31 -24 -47 -11 -161 28 -254 l31 -74 2 -343 c1 -252 5 -349 14 -365 19 -35 87 -32 138 6 51 37 175 152 239 220 27 30 82 86 122 124 39 38 97 104 129 147 56 77 58 79 108 85 28 3 78 12 111 20 104 23 415 39 448 23 27 -13 24 -34 -19 -133 -7 -16 -29 -88 -49 -160 -21 -71 -52 -179 -71 -239 -19 -60 -34 -114 -34 -121 0 -28 30 -34 170 -38 80 -1 153 -7 163 -11 27 -13 22 26 -8 54 -23 21 -37 25 -123 28 -53 2 -100 7 -105 11 -4 4 4 45 17 92 13 46 36 127 49 179 23 86 42 144 83 250 7 19 13 58 14 86 0 65 -25 86 -92 79 -33 -3 -38 -2 -20 5 30 13 38 38 18 58 -11 11 -37 17 -84 19 -203 9 -218 10 -267 32 -105 48 -115 54 -115 65 0 6 9 47 21 91 15 58 19 98 15 145 -3 36 -8 99 -11 140 -7 81 -33 277 -41 299 -2 7 -11 48 -20 89 -9 42 -22 96 -31 121 -27 78 -22 111 25 158 44 46 59 85 69 173 5 48 11 61 50 102 55 56 51 71 -15 53 l-48 -12 -24 44 c-25 48 -44 64 -100 86 -27 10 -42 11 -67 2z m75 -94 c35 -26 42 -37 52 -88 15 -78 15 -72 6 -125 -8 -56 -47 -108 -80 -108 -27 0 -77 51 -102 105 -37 79 -15 207 40 234 32 15 40 13 84 -18z m-51 -527 c26 -5 31 -13 42 -55 15 -56 14 -66 -35 -279 -62 -272 -92 -394 -106 -428 -18 -47 4 -79 83 -119 71 -35 73 -41 33 -104 -13 -21 -24 -42 -24 -47 0 -20 -48 -122 -83 -176 -48 -73 -387 -414 -447 -449 -62 -36 -74 -37 -76 -7 -2 21 -2 293 0 591 1 68 -2 80 -28 118 -38 55 -49 170 -21 232 16 35 22 39 49 37 48 -4 45 14 -7 48 -26 17 -50 34 -53 37 -3 3 3 34 15 69 11 35 26 101 31 148 6 47 14 105 20 130 5 25 12 73 16 108 8 85 24 99 123 107 42 4 90 8 106 10 17 2 73 7 125 10 52 4 115 11 140 15 63 11 64 11 97 4z m102 -409 c21 -236 22 -269 6 -344 -8 -40 -18 -77 -21 -82 -6 -10 -82 28 -101 51 -7 8 -11 24 -8 35 3 11 19 85 36 165 50 242 66 307 74 298 1 -2 8 -57 14 -123z m226 -640 c26 -7 22 -9 -39 -16 -38 -4 -80 -12 -95 -18 -44 -16 -151 -24 -151 -10 0 6 16 42 36 79 l36 67 92 -47 c50 -26 105 -50 121 -55z m218 -2 c-7 -2 -19 -2 -25 0 -7 3 -2 5 12 5 14 0 19 -2 13 -5z"/>
</g>
</svg>
