<?xml version="1.0" standalone="no"?>
<!DOCTYPE svg PUBLIC "-//W3C//DTD SVG 20010904//EN" "http://www.w3.org/TR/2001/REC-SVG-20010904/DTD/svg10.dtd">
<svg xmlns="http://www.w3.org/2000/svg" version="1.0" width="360.000000pt" height="360.000000pt" viewBox="0 0 360.000000 360.000000" preserveAspectRatio="xMidYMid meet">

<g transform="translate(0.000000,360.000000) scale(0.100000,-0.100000)" fill="#000000" stroke="none">
<path d="M2086 2780 c-55 -17 -90 -75 -99 -161 -14 -143 67 -279 166 -279 31 0 41 -24 91 -220 42 -164 47 -205 43 -315 -7 -162 -34 -269 -102 -412 -19 -40 -35 -78 -35 -84 0 -39 -199 -236 -318 -314 -53 -35 -142 -95 -197 -132 -120 -82 -170 -106 -193 -94 -10 5 -37 12 -62 16 -25 3 -70 15 -100 24 -30 10 -80 24 -110 31 -30 7 -109 28 -175 48 -66 19 -158 45 -205 57 -47 13 -136 37 -198 54 -131 36 -139 37 -172 12 l-24 -19 18 -52 c16 -43 17 -67 12 -145 -8 -113 -11 -110 119 -110 72 0 90 3 90 15 0 19 -72 60 -107 60 l-27 0 -3 93 c-2 50 -2 94 0 97 4 6 208 -46 317 -81 50 -17 142 -44 205 -60 63 -17 138 -38 165 -45 28 -8 67 -19 89 -25 21 -5 52 -17 69 -25 18 -10 65 -18 114 -20 75 -4 85 -3 90 13 2 10 30 35 61 56 32 21 82 56 112 78 30 22 100 70 155 106 92 61 200 160 313 286 39 44 44 46 59 31 10 -10 23 -13 37 -8 12 3 100 8 196 9 96 2 234 6 306 10 102 5 133 4 141 -7 7 -9 8 -43 2 -103 -4 -49 -11 -124 -14 -165 -4 -41 -13 -110 -21 -154 -23 -126 -20 -144 21 -162 29 -12 51 -13 123 -4 110 14 122 17 122 39 0 25 -25 44 -47 37 -24 -7 -142 -10 -149 -4 -4 5 18 255 31 333 2 17 6 68 9 115 4 93 -8 134 -44 145 -18 6 -19 8 -4 22 14 15 13 18 -15 35 -16 11 -58 23 -92 28 -42 6 -69 16 -86 32 -27 25 -123 152 -123 162 0 3 -15 29 -34 58 -18 29 -41 71 -51 92 -10 21 -36 62 -57 90 -21 28 -76 125 -123 216 -46 91 -93 174 -104 184 -10 9 -25 31 -32 47 -11 28 -10 32 24 67 44 46 67 101 67 160 0 38 5 50 36 80 44 43 40 67 -10 58 -32 -6 -36 -4 -51 27 -29 61 -56 79 -127 82 -35 2 -76 0 -92 -5z m125 -70 c29 -16 46 -58 53 -132 12 -127 -50 -197 -139 -156 -64 29 -95 210 -45 263 14 15 30 23 40 20 10 -3 28 -1 41 4 31 13 27 13 50 1z m169 -783 c17 -32 59 -102 95 -156 36 -55 65 -103 65 -106 0 -3 16 -31 35 -61 19 -30 35 -56 35 -59 0 -12 77 -123 112 -161 37 -41 38 -42 16 -47 -34 -9 -464 -11 -477 -3 -17 11 -13 32 15 88 52 102 89 307 81 445 -2 49 -8 97 -12 108 -14 34 3 11 35 -48z"/>
</g>
</svg>
