<?xml version="1.0" standalone="no"?>
<!DOCTYPE svg PUBLIC "-//W3C//DTD SVG 20010904//EN" "http://www.w3.org/TR/2001/REC-SVG-20010904/DTD/svg10.dtd">
<svg xmlns="http://www.w3.org/2000/svg" version="1.0" width="360.000000pt" height="360.000000pt" viewBox="0 0 360.000000 360.000000" preserveAspectRatio="xMidYMid meet">

<g transform="translate(0.000000,360.000000) scale(0.100000,-0.100000)" fill="#000000" stroke="none">
<path d="M1998 3160 c-69 -21 -119 -90 -131 -182 -13 -103 48 -244 136 -315 18 -15 97 -34 98 -24 2 14 17 -46 18 -74 1 -26 -4 -32 -42 -48 -50 -20 -213 -133 -292 -200 -38 -33 -55 -55 -55 -72 0 -28 34 -55 69 -55 30 0 140 37 253 86 46 19 89 38 96 41 19 8 15 -157 -8 -305 -28 -182 -37 -212 -93 -341 -36 -83 -166 -199 -287 -254 -231 -107 -412 -172 -575 -206 -55 -12 -164 -38 -242 -57 -123 -30 -157 -35 -242 -33 -80 2 -104 -1 -126 -15 -16 -11 -24 -23 -21 -34 19 -67 24 -107 22 -177 -1 -44 1 -88 6 -97 10 -20 72 -25 83 -8 3 5 35 10 69 10 77 0 99 17 65 49 -13 12 -30 22 -38 23 -9 0 -20 2 -26 3 -5 2 -21 3 -35 4 -23 1 -25 6 -27 49 -1 26 -4 60 -5 76 -3 28 0 30 47 43 28 7 65 13 84 13 19 0 48 4 65 10 33 10 314 77 356 85 14 3 41 8 60 11 19 4 40 10 45 14 10 7 76 30 98 34 22 4 171 64 223 90 29 14 56 26 62 26 32 0 211 100 263 147 14 12 33 23 42 23 10 0 22 10 28 23 8 17 19 24 42 24 44 0 149 13 167 20 8 3 62 7 120 9 57 2 111 6 119 9 27 10 159 -18 187 -40 25 -20 26 -26 27 -120 1 -55 -2 -154 -7 -220 -23 -332 -24 -379 -8 -393 17 -13 63 -10 137 10 23 6 71 7 112 4 68 -6 73 -6 88 17 35 54 -3 73 -134 64 -47 -3 -99 -3 -114 0 l-28 5 6 137 c3 75 10 194 15 266 6 71 8 156 5 190 -5 51 -11 65 -43 98 -27 28 -44 37 -68 37 -18 0 -45 5 -61 11 -36 14 -218 11 -398 -7 l-70 -6 1 43 c1 24 9 64 18 89 30 79 61 276 71 458 5 83 11 112 20 112 8 0 22 11 32 24 11 13 33 27 49 30 21 5 36 17 47 39 33 64 68 119 116 182 56 73 71 119 47 143 -17 17 -28 14 -106 -34 -19 -11 -84 -47 -143 -78 -103 -54 -110 -56 -123 -39 -17 23 -17 33 0 33 27 0 77 52 105 109 45 90 47 119 11 202 -30 68 -31 72 -14 90 10 11 33 29 51 40 39 25 45 62 11 80 -23 12 -21 13 -78 -59 l-18 -23 -29 27 c-65 61 -127 78 -205 54z m159 -104 c37 -40 83 -173 77 -224 -5 -43 -53 -114 -67 -100 -2 2 -12 -5 -22 -15 -9 -10 -24 -16 -32 -13 -8 3 -23 6 -33 6 -30 0 -84 54 -118 119 -75 140 -13 281 118 266 35 -4 52 -13 77 -39z m273 -420 c-16 -25 -30 -47 -30 -50 0 -5 -46 -76 -56 -85 -3 -3 -2 3 2 12 8 22 -22 57 -50 57 -18 0 -19 2 -5 15 12 13 156 94 167 95 2 0 -11 -20 -28 -44z m-182 -101 c-3 -14 -2 -27 2 -30 12 -8 6 -88 -7 -92 -9 -3 -13 9 -13 40 0 27 -6 49 -15 57 -20 17 -19 25 8 38 30 15 30 15 25 -13z m-103 -72 c14 -83 12 -87 -62 -120 -99 -44 -260 -99 -268 -91 -9 9 16 34 95 94 74 56 212 151 222 153 4 0 10 -16 13 -36z"/>
</g>
</svg>
