<?xml version="1.0" standalone="no"?>
<!DOCTYPE svg PUBLIC "-//W3C//DTD SVG 20010904//EN" "http://www.w3.org/TR/2001/REC-SVG-20010904/DTD/svg10.dtd">
<svg xmlns="http://www.w3.org/2000/svg" version="1.0" width="360.000000pt" height="360.000000pt" viewBox="0 0 360.000000 360.000000" preserveAspectRatio="xMidYMid meet">

<g transform="translate(0.000000,360.000000) scale(0.100000,-0.100000)" fill="#000000" stroke="none">
<path d="M2195 3379 c-79 -46 -122 -151 -110 -266 9 -87 28 -146 60 -193 37 -54 66 -70 131 -74 72 -4 84 -24 73 -117 -10 -80 -20 -109 -68 -179 -34 -50 -79 -126 -113 -190 -78 -149 -203 -316 -323 -432 -51 -49 -58 -60 -49 -75 21 -33 54 -28 88 14 17 21 59 67 93 103 34 36 70 81 80 100 10 19 24 39 30 43 14 9 103 142 103 153 0 4 6 15 14 23 7 9 32 52 56 96 46 87 70 125 70 110 0 -51 -108 -290 -178 -398 -56 -85 -150 -213 -204 -278 -21 -25 -38 -53 -38 -62 0 -33 55 -42 72 -12 4 7 53 75 109 151 129 175 146 203 215 343 65 135 104 245 104 298 0 21 4 44 9 51 11 18 33 -51 61 -198 18 -92 22 -132 16 -210 -6 -97 -35 -253 -60 -325 -8 -22 -19 -59 -25 -82 -24 -89 -149 -188 -406 -323 -44 -23 -87 -48 -95 -55 -8 -7 -26 -16 -40 -20 -14 -4 -44 -20 -67 -35 -23 -16 -59 -36 -80 -45 -21 -9 -51 -23 -68 -30 -34 -15 -238 -93 -360 -137 -44 -15 -89 -33 -100 -38 -28 -13 -288 -86 -355 -99 -30 -5 -84 -15 -120 -21 -36 -7 -76 -16 -90 -21 -55 -20 -298 -60 -332 -54 -32 6 -59 -28 -39 -48 14 -14 14 -73 0 -156 -12 -76 -4 -89 56 -91 63 -3 71 -1 99 21 35 28 22 42 -41 44 l-48 1 4 80 c1 43 8 82 13 85 6 4 31 10 57 14 25 3 53 8 61 10 8 2 42 9 75 14 33 6 71 15 85 20 27 10 138 34 240 51 36 6 79 16 95 21 17 5 68 20 115 33 47 13 110 33 140 44 30 11 84 30 120 43 36 12 120 44 188 71 68 26 130 48 138 48 17 0 112 47 134 66 9 7 126 69 260 137 135 68 256 130 270 137 14 8 27 15 30 15 3 1 17 7 31 13 52 21 747 6 772 -17 11 -11 -11 -235 -33 -321 -21 -83 -36 -167 -45 -250 -4 -30 -13 -95 -21 -145 -16 -102 -18 -211 -5 -219 5 -4 54 -9 108 -12 54 -3 105 -6 113 -6 60 -4 85 21 53 54 -14 14 -39 19 -108 22 l-90 4 -1 58 c-1 33 9 130 21 218 12 87 20 166 18 175 -2 9 5 50 17 91 12 41 26 107 30 145 5 39 14 90 19 115 12 54 -3 116 -31 131 -56 30 -128 36 -433 33 -170 -1 -313 0 -317 3 -4 2 -4 12 1 21 19 35 40 101 70 221 26 101 32 149 36 269 4 127 2 160 -17 242 -13 52 -26 96 -29 98 -4 2 -5 11 -2 20 2 10 -3 38 -12 62 -27 76 -56 164 -60 183 -2 11 -16 40 -31 65 l-27 46 31 27 c56 50 63 68 63 176 1 97 2 101 30 127 50 48 28 83 -34 53 l-32 -16 -30 49 c-23 38 -41 54 -79 70 -62 27 -106 34 -131 19z m100 -79 c51 -32 97 -128 103 -217 5 -83 -7 -124 -45 -149 -99 -64 -197 33 -198 196 0 92 7 119 41 159 30 36 54 39 99 11z"/>
</g>
</svg>
