<?xml version="1.0" standalone="no"?>
<!DOCTYPE svg PUBLIC "-//W3C//DTD SVG 20010904//EN" "http://www.w3.org/TR/2001/REC-SVG-20010904/DTD/svg10.dtd">
<svg xmlns="http://www.w3.org/2000/svg" version="1.0" width="360.000000pt" height="360.000000pt" viewBox="0 0 360.000000 360.000000" preserveAspectRatio="xMidYMid meet">

<g transform="translate(0.000000,360.000000) scale(0.100000,-0.100000)" fill="#000000" stroke="none">
<path d="M1777 3083 c-14 -13 -6 -39 19 -69 68 -79 164 -426 164 -596 0 -96 -58 -297 -94 -327 -7 -6 -21 -8 -32 -5 -15 4 -19 12 -16 32 6 42 -31 113 -86 167 -49 48 -50 50 -36 77 19 37 18 65 -3 76 -28 14 -43 3 -49 -36 l-6 -37 -73 0 c-61 0 -77 -4 -97 -22 -13 -12 -34 -23 -48 -25 -34 -4 -72 -83 -72 -147 1 -87 26 -123 119 -167 57 -28 77 -33 143 -39 45 -4 116 20 151 51 24 21 35 3 59 -97 35 -146 21 -434 -26 -562 -50 -135 -101 -202 -181 -242 -47 -23 -82 -59 -70 -71 9 -10 102 19 117 36 8 9 32 27 54 40 65 39 118 138 158 299 20 76 22 111 21 301 -1 167 -4 225 -17 260 -8 24 -14 46 -12 47 1 2 18 -7 36 -19 41 -28 103 -118 124 -178 8 -25 25 -72 37 -105 24 -66 31 -205 16 -326 -7 -55 -12 -68 -32 -79 -15 -8 -23 -21 -22 -33 3 -25 -86 -99 -170 -142 -32 -16 -65 -35 -73 -41 -8 -6 -53 -25 -100 -43 -47 -18 -101 -41 -120 -51 -38 -19 -141 -60 -205 -81 -22 -7 -44 -16 -50 -20 -5 -3 -48 -19 -95 -33 -47 -15 -94 -32 -105 -36 -35 -16 -169 -50 -196 -50 -15 0 -46 -7 -70 -15 -46 -17 -158 -41 -221 -49 -50 -7 -78 -23 -78 -45 0 -30 24 -41 101 -47 98 -7 185 -30 231 -60 52 -34 64 -31 73 15 5 28 -17 42 -108 72 l-80 25 44 12 c24 6 87 21 139 33 112 24 280 74 330 96 19 9 67 26 105 38 39 13 90 32 115 43 25 11 113 49 195 84 206 86 265 121 358 209 l79 76 108 -3 c59 -2 154 -10 211 -18 57 -7 123 -11 146 -9 34 4 43 1 52 -15 10 -19 6 -125 -5 -143 -3 -5 -5 -97 -5 -205 0 -164 3 -199 16 -214 19 -21 171 -36 192 -19 38 32 -15 74 -88 71 l-48 -2 -7 46 c-3 25 -4 98 0 162 3 64 9 171 12 238 l6 121 -27 21 c-22 17 -31 19 -47 11 -19 -10 -133 -8 -203 5 -16 3 -94 8 -173 12 -126 6 -142 9 -136 23 15 35 25 161 20 242 -9 138 -96 346 -181 433 l-46 47 20 32 c10 18 32 68 47 112 24 67 28 95 28 175 -1 101 -46 353 -85 472 -23 70 -73 174 -97 201 -15 17 -43 23 -55 10z m-137 -810 c55 -38 93 -90 96 -132 3 -50 -10 -70 -63 -93 -55 -24 -113 -18 -185 18 -77 39 -100 97 -69 172 10 25 19 32 41 32 14 0 30 3 34 8 14 14 71 29 91 24 10 -3 35 -16 55 -29z"/>
</g>
</svg>
