<?xml version="1.0" standalone="no"?>
<!DOCTYPE svg PUBLIC "-//W3C//DTD SVG 20010904//EN" "http://www.w3.org/TR/2001/REC-SVG-20010904/DTD/svg10.dtd">
<svg xmlns="http://www.w3.org/2000/svg" version="1.0" width="360.000000pt" height="360.000000pt" viewBox="0 0 360.000000 360.000000" preserveAspectRatio="xMidYMid meet">

<g transform="translate(0.000000,360.000000) scale(0.100000,-0.100000)" fill="#000000" stroke="none">
<path d="M1982 3428 c-18 -18 -15 -34 13 -78 14 -22 25 -42 25 -45 0 -2 13 -32 30 -66 16 -33 36 -93 46 -132 9 -40 25 -108 35 -151 22 -87 22 -85 -38 -108 -18 -7 -33 -16 -33 -20 0 -25 -20 0 -48 60 -17 38 -49 88 -69 113 -21 24 -70 86 -108 137 -53 71 -74 92 -90 90 -36 -5 -30 -43 15 -90 126 -132 269 -365 248 -403 -6 -9 -8 -47 -6 -84 6 -93 69 -228 121 -259 21 -12 37 -29 37 -39 1 -20 33 -63 48 -63 21 0 54 -243 53 -390 0 -106 -40 -340 -71 -423 -39 -102 -60 -127 -138 -168 -41 -21 -95 -54 -121 -73 -25 -19 -74 -50 -106 -68 -101 -57 -125 -72 -170 -105 -55 -41 -426 -222 -527 -257 -43 -14 -95 -36 -115 -49 -25 -14 -68 -26 -123 -32 -80 -10 -86 -12 -99 -40 -13 -26 -12 -30 9 -47 12 -10 30 -18 40 -18 9 0 68 -13 131 -29 63 -16 134 -32 158 -36 25 -4 59 -16 77 -26 30 -16 35 -17 49 -3 19 20 19 22 -5 61 -10 17 -27 32 -37 31 -27 -1 -243 45 -243 52 0 8 138 70 194 87 73 21 484 225 539 267 25 19 68 46 95 60 27 14 89 52 139 85 95 64 245 141 274 141 9 0 19 -6 22 -13 3 -9 29 -17 64 -20 32 -4 69 -9 83 -12 85 -17 152 -27 213 -31 38 -2 74 -7 79 -10 5 -3 37 -7 71 -10 111 -7 111 -7 103 -67 -3 -29 -9 -63 -12 -77 -18 -77 -24 -361 -9 -436 6 -29 94 -52 209 -53 50 -1 95 -6 102 -12 8 -7 17 -5 28 6 20 20 20 26 2 51 -12 15 -27 19 -79 20 -101 2 -174 14 -188 30 -15 19 -13 319 2 398 6 28 13 76 16 108 5 51 3 57 -19 72 -14 9 -51 18 -84 21 -32 3 -88 8 -124 11 -36 3 -74 7 -85 10 -11 2 -45 6 -75 9 -103 8 -234 32 -238 44 -2 6 -15 11 -28 11 -13 0 -24 3 -24 6 0 3 13 71 29 152 40 195 44 232 46 403 2 155 -14 307 -41 374 -9 22 -18 46 -21 53 -3 7 7 17 25 23 32 11 99 85 120 132 6 15 12 54 12 85 l0 57 45 24 c66 35 60 54 -15 49 l-61 -3 -19 40 c-15 31 -33 47 -77 70 -31 17 -63 36 -71 43 -7 7 -17 10 -20 8 -4 -2 -7 21 -8 52 0 86 -38 248 -77 332 -19 41 -42 95 -52 120 -22 59 -46 75 -73 48z m235 -647 c34 -1 88 -55 113 -113 20 -47 21 -57 10 -105 -17 -79 -73 -138 -118 -126 -17 4 -24 20 -38 82 -10 42 -25 87 -34 101 -9 14 -27 49 -40 77 -21 49 -22 54 -7 70 10 12 28 17 54 16 21 -1 48 -2 60 -2z m-113 -214 c15 -38 25 -74 23 -80 -3 -11 -67 141 -67 160 0 18 20 -18 44 -80z"/>
</g>
</svg>
