<?xml version="1.0" standalone="no"?>
<!DOCTYPE svg PUBLIC "-//W3C//DTD SVG 20010904//EN" "http://www.w3.org/TR/2001/REC-SVG-20010904/DTD/svg10.dtd">
<svg xmlns="http://www.w3.org/2000/svg" version="1.0" width="360.000000pt" height="360.000000pt" viewBox="0 0 360.000000 360.000000" preserveAspectRatio="xMidYMid meet">

<g transform="translate(0.000000,360.000000) scale(0.100000,-0.100000)" fill="#000000" stroke="none">
<path d="M2075 3221 c-98 -61 -126 -168 -86 -333 22 -94 60 -153 108 -169 22 -7 38 -20 44 -37 14 -36 47 -179 64 -277 36 -200 4 -437 -82 -610 -70 -140 -76 -145 -241 -227 -81 -41 -167 -86 -192 -100 -49 -29 -194 -89 -335 -139 -49 -17 -113 -42 -142 -55 -59 -26 -300 -108 -353 -119 -19 -4 -40 -11 -46 -16 -6 -5 -49 -18 -95 -28 -46 -10 -124 -29 -173 -42 -73 -18 -94 -20 -119 -11 -26 10 -34 9 -50 -5 -20 -19 -20 -31 7 -123 19 -65 21 -159 4 -195 -17 -37 4 -80 35 -70 12 4 60 10 107 14 68 5 85 9 88 23 2 12 -13 21 -62 38 -36 12 -70 19 -75 16 -5 -4 -9 16 -8 46 1 29 -2 81 -6 115 -8 66 -9 65 50 78 37 8 140 34 193 50 30 8 88 25 128 35 41 11 93 28 117 39 23 10 58 22 76 27 19 4 39 9 44 10 6 1 55 21 110 44 109 46 218 88 250 97 11 3 39 14 62 24 24 10 49 19 56 19 7 0 17 4 22 9 6 5 26 14 46 20 20 6 62 27 93 46 32 19 96 51 144 71 48 21 118 57 155 82 60 38 70 42 80 28 11 -14 31 -15 167 -8 85 5 189 7 230 5 41 -1 136 -4 211 -5 165 -4 179 -11 179 -92 0 -58 -35 -330 -50 -391 -5 -22 -10 -71 -11 -110 -1 -65 -9 -136 -24 -211 -11 -52 8 -59 169 -56 147 2 195 7 198 23 5 36 10 35 -179 45 l-112 6 5 71 c10 166 14 199 28 274 8 43 20 114 26 158 7 44 14 91 16 105 3 14 7 58 10 97 5 76 -4 107 -37 130 -10 8 -15 21 -12 32 4 15 -4 24 -35 40 -22 11 -55 22 -73 24 -19 3 -41 8 -49 11 -18 8 -53 60 -99 146 -18 36 -73 124 -121 195 -47 72 -120 184 -160 250 -41 66 -87 138 -102 159 -15 21 -28 47 -28 56 0 10 -15 48 -34 86 -19 38 -34 69 -33 69 1 0 21 13 43 28 52 35 109 135 106 185 -2 19 1 31 6 28 5 -3 20 7 34 22 13 15 35 34 48 44 20 12 22 19 13 28 -9 10 -22 10 -57 1 -25 -6 -47 -11 -49 -11 -2 0 -7 15 -10 34 -7 42 -56 112 -104 149 -43 32 -85 35 -128 8z m103 -81 c41 -39 60 -76 68 -136 3 -27 8 -52 10 -56 11 -17 -19 -104 -44 -128 -35 -36 -51 -40 -84 -24 -60 31 -91 103 -90 215 0 69 10 98 45 137 28 30 58 28 95 -8z m157 -867 c64 -109 167 -267 187 -289 17 -20 101 -184 112 -220 4 -12 15 -29 26 -39 11 -10 20 -24 20 -31 0 -7 7 -17 16 -22 10 -6 -75 -10 -224 -10 -132 -1 -257 -5 -279 -10 -21 -5 -44 -7 -50 -5 -14 5 -18 43 -4 43 10 0 63 107 85 172 8 26 27 93 41 150 23 88 26 120 23 220 -2 65 -2 118 -1 118 1 0 22 -35 48 -77z"/>
</g>
</svg>
