<?xml version="1.0" standalone="no"?>
<!DOCTYPE svg PUBLIC "-//W3C//DTD SVG 20010904//EN" "http://www.w3.org/TR/2001/REC-SVG-20010904/DTD/svg10.dtd">
<svg xmlns="http://www.w3.org/2000/svg" version="1.0" width="360.000000pt" height="360.000000pt" viewBox="0 0 360.000000 360.000000" preserveAspectRatio="xMidYMid meet">

<g transform="translate(0.000000,360.000000) scale(0.100000,-0.100000)" fill="#000000" stroke="none">
<path d="M2942 2129 c-24 -10 -72 -48 -107 -83 -50 -49 -67 -74 -76 -110 -6 -25 -15 -49 -19 -51 -5 -3 -57 -7 -117 -10 -60 -3 -145 -12 -189 -20 -109 -20 -314 -47 -474 -61 -36 -3 -85 -10 -110 -16 -25 -5 -92 -12 -150 -15 -58 -2 -109 -9 -114 -13 -5 -5 -6 -21 -2 -35 l7 -27 127 7 c70 4 145 11 167 16 59 13 562 24 550 12 -14 -15 -180 -100 -245 -127 -30 -13 -95 -47 -145 -76 -49 -29 -115 -66 -145 -82 -30 -17 -59 -33 -65 -38 -5 -4 -66 -26 -135 -50 -69 -23 -129 -46 -135 -50 -12 -10 -124 -43 -270 -81 -60 -16 -141 -38 -180 -48 -38 -11 -97 -27 -130 -36 -33 -8 -69 -19 -80 -24 -11 -5 -40 -14 -65 -21 -25 -6 -58 -15 -75 -20 -16 -5 -82 -22 -145 -39 -63 -16 -149 -39 -190 -51 -74 -21 -102 -28 -129 -29 -10 -1 -12 -11 -7 -40 3 -22 1 -72 -4 -112 -14 -98 -8 -113 38 -104 77 13 112 26 112 40 0 19 -37 38 -61 32 -25 -7 -39 20 -39 75 0 38 4 45 28 55 59 24 192 63 286 83 54 11 106 25 115 29 9 5 59 21 111 36 52 15 158 45 235 67 77 22 167 46 200 54 55 12 209 62 393 128 41 14 83 26 94 26 11 0 36 9 55 21 32 20 45 21 256 18 122 -2 258 -3 303 -4 119 0 117 3 110 -174 -5 -138 -31 -405 -42 -422 -2 -4 8 -20 23 -34 26 -24 34 -26 113 -24 173 4 198 11 168 52 -16 20 -106 31 -143 17 -14 -5 -38 -7 -55 -4 -29 6 -30 9 -30 58 0 28 7 112 15 187 8 75 15 185 16 243 2 94 0 110 -18 134 -23 30 -20 30 -398 32 l-170 1 30 25 c17 13 82 50 145 80 63 31 135 67 160 81 25 13 74 37 110 54 73 33 129 61 242 121 l77 41 38 -19 c25 -12 63 -19 108 -20 70 -2 70 -2 99 -43 44 -60 60 -55 54 17 l-6 57 38 16 c22 10 55 39 80 70 42 53 42 53 38 126 -5 104 -18 114 -140 119 -75 2 -101 -1 -136 -17z m200 -69 c47 -58 -8 -154 -115 -199 -109 -47 -220 -11 -201 63 10 43 80 119 132 144 62 30 157 26 184 -8z m-522 -245 c0 -2 -12 -11 -28 -19 -19 -10 -47 -13 -95 -9 -37 3 -65 8 -62 11 2 3 44 8 92 12 49 4 89 8 91 9 1 0 2 -1 2 -4z"/>
</g>
</svg>
