<?xml version="1.0" standalone="no"?>
<!DOCTYPE svg PUBLIC "-//W3C//DTD SVG 20010904//EN" "http://www.w3.org/TR/2001/REC-SVG-20010904/DTD/svg10.dtd">
<svg xmlns="http://www.w3.org/2000/svg" version="1.0" width="360.000000pt" height="360.000000pt" viewBox="0 0 360.000000 360.000000" preserveAspectRatio="xMidYMid meet">

<g transform="translate(0.000000,360.000000) scale(0.100000,-0.100000)" fill="#000000" stroke="none">
<path d="M1806 3193 c-3 -10 -2 -43 2 -73 13 -90 10 -115 -13 -118 -11 -2 -31 -20 -45 -40 -34 -50 -100 -163 -100 -170 0 -8 -92 -166 -100 -172 -16 -11 -30 -51 -30 -84 0 -57 49 -165 94 -211 23 -22 75 -66 116 -96 41 -31 88 -70 104 -88 17 -17 36 -31 43 -31 7 0 13 -8 14 -17 0 -10 3 -29 6 -43 8 -41 9 -288 0 -385 -4 -49 -13 -98 -20 -108 -23 -35 -376 -229 -522 -287 -33 -13 -76 -34 -96 -46 -98 -61 -196 -105 -318 -144 -74 -24 -146 -49 -160 -56 -14 -8 -30 -14 -35 -14 -12 0 -113 -46 -146 -66 -14 -8 -50 -26 -80 -40 -30 -14 -66 -31 -80 -39 -14 -7 -50 -26 -80 -42 -79 -41 -104 -57 -112 -68 -13 -17 -9 -55 6 -61 11 -4 24 -64 31 -139 0 -5 4 -16 9 -23 6 -11 12 -10 28 5 11 10 29 17 39 15 24 -4 42 38 30 71 -4 12 -11 40 -14 62 l-6 40 124 58 c68 31 127 57 132 57 4 0 30 11 57 25 27 14 57 25 67 25 10 0 21 5 24 10 3 6 14 10 23 10 9 0 55 16 102 36 47 20 119 48 160 64 146 55 187 72 345 150 184 90 338 177 410 231 64 48 118 72 132 58 11 -11 143 -15 363 -12 176 3 165 3 243 -10 107 -18 102 2 102 -414 1 -235 4 -356 11 -363 13 -13 112 -25 195 -25 43 0 62 5 79 20 20 18 20 20 4 32 -10 7 -30 13 -45 13 -15 0 -30 4 -33 9 -3 5 -33 11 -66 13 -33 2 -65 9 -70 14 -7 7 -12 136 -13 340 -3 359 -8 389 -61 428 -22 17 -29 18 -35 7 -5 -7 -17 -11 -27 -8 -23 7 -206 19 -329 22 -49 1 -134 6 -188 10 l-99 8 6 36 c12 78 17 292 9 414 l-8 128 60 51 c33 28 74 65 90 82 17 17 42 40 56 51 43 34 127 160 144 217 18 63 12 127 -18 178 -17 30 -180 203 -310 330 -37 37 -37 38 -31 93 6 53 5 57 -19 68 -50 23 -57 9 -56 -98 1 -122 6 -137 48 -139 28 -2 53 -22 171 -141 107 -108 141 -149 149 -179 14 -49 14 -81 1 -89 -5 -3 -10 -13 -10 -20 0 -43 -182 -258 -261 -309 l-26 -16 -10 45 c-10 44 -9 46 16 60 39 20 97 85 115 129 72 175 -111 435 -237 336 -14 -11 -29 -20 -34 -20 -12 0 -52 -46 -63 -73 -5 -12 -16 -52 -25 -90 -12 -53 -12 -78 -4 -115 19 -83 47 -128 94 -153 24 -13 49 -34 54 -47 24 -52 8 -55 -57 -10 -184 127 -268 258 -215 335 11 15 44 73 73 128 29 55 58 109 64 120 25 45 69 95 86 95 31 0 49 58 51 162 1 53 -2 101 -5 107 -12 18 -64 13 -70 -6z m190 -546 c27 -32 47 -96 46 -144 -2 -68 -69 -147 -122 -145 -98 3 -155 141 -104 254 25 57 39 67 102 65 46 -1 57 -5 78 -30z"/>
</g>
</svg>
