<?xml version="1.0" standalone="no"?>
<!DOCTYPE svg PUBLIC "-//W3C//DTD SVG 20010904//EN" "http://www.w3.org/TR/2001/REC-SVG-20010904/DTD/svg10.dtd">
<svg xmlns="http://www.w3.org/2000/svg" version="1.0" width="360.000000pt" height="360.000000pt" viewBox="0 0 360.000000 360.000000" preserveAspectRatio="xMidYMid meet">

<g transform="translate(0.000000,360.000000) scale(0.100000,-0.100000)" fill="#000000" stroke="none">
<path d="M1886 2792 c-46 -16 -52 -22 -87 -87 -53 -100 -66 -160 -50 -249 10 -59 19 -80 55 -126 24 -30 58 -66 77 -79 l34 -23 -33 7 c-18 4 -38 3 -45 -2 -23 -17 -83 -32 -167 -43 -47 -5 -100 -14 -118 -19 -18 -6 -80 -11 -138 -12 -58 -1 -122 -5 -142 -9 -21 -5 -77 -11 -127 -14 -218 -14 -265 -19 -276 -32 -9 -11 -8 -14 2 -14 11 0 12 -2 1 -9 -47 -29 215 -41 383 -16 50 7 106 13 125 14 19 0 55 5 80 10 109 23 220 41 285 45 39 2 92 8 119 12 l48 7 -5 -131 c-3 -72 -8 -136 -11 -141 -3 -5 -8 -109 -11 -231 -3 -122 -7 -225 -10 -230 -21 -34 -276 -199 -310 -200 -5 -1 -63 -25 -135 -57 -25 -12 -61 -24 -80 -28 -19 -4 -57 -17 -85 -30 -27 -12 -66 -28 -85 -35 -19 -7 -72 -30 -118 -52 -46 -21 -89 -38 -96 -38 -6 0 -36 -16 -66 -35 -30 -19 -62 -35 -71 -35 -10 0 -50 -16 -91 -35 -41 -20 -85 -37 -97 -40 -13 -2 -42 -13 -65 -24 -22 -10 -70 -21 -105 -23 -54 -4 -68 -9 -87 -31 -21 -25 -23 -33 -17 -114 6 -100 16 -119 56 -104 37 14 50 46 43 105 l-5 51 87 27 c49 16 95 28 103 28 18 0 118 35 176 61 23 10 47 19 54 19 6 0 46 18 88 40 42 22 117 58 166 81 50 22 121 56 159 75 39 20 97 46 130 59 34 13 104 40 156 59 105 41 151 61 255 113 l70 35 225 -2 c368 -4 414 -6 438 -19 l24 -13 -6 -226 c-3 -125 -11 -245 -17 -267 -23 -84 -23 -92 2 -106 18 -10 68 -13 184 -11 184 2 234 8 242 29 13 34 -38 44 -230 44 l-128 0 5 32 c2 18 7 93 11 167 3 74 8 169 10 211 6 100 -7 174 -34 203 -25 26 -84 34 -316 42 -251 9 -305 16 -312 45 -3 11 -11 19 -18 19 -15 0 -13 110 3 217 11 69 27 310 25 373 -1 19 -4 58 -8 85 -6 49 -6 49 11 27 14 -21 22 -23 58 -18 44 6 66 6 444 6 180 0 271 5 315 14 34 8 96 17 137 21 151 14 147 13 130 45 -8 15 -17 19 -31 15 -11 -4 -19 -2 -19 4 0 13 -44 14 -107 2 -26 -6 -120 -13 -208 -17 -88 -4 -180 -8 -205 -10 -143 -12 -204 -10 -336 6 -80 11 -149 21 -151 24 -3 3 10 14 28 25 41 24 93 101 109 159 12 45 33 60 93 65 17 1 32 8 34 14 5 13 -48 40 -86 45 -19 2 -25 10 -28 33 -5 32 -104 162 -131 172 -10 4 -33 17 -52 29 -51 32 -70 35 -124 16z m137 -113 c27 -13 74 -65 92 -99 18 -34 11 -115 -14 -171 -25 -56 -85 -113 -112 -106 -11 3 -19 0 -19 -6 0 -8 -4 -7 -12 1 -7 7 -19 12 -27 12 -25 1 -48 41 -72 122 -18 60 -20 86 -15 141 7 59 11 70 42 97 30 26 41 29 75 25 22 -3 50 -10 62 -16z"/>
</g>
</svg>
