<?xml version="1.0" standalone="no"?>
<!DOCTYPE svg PUBLIC "-//W3C//DTD SVG 20010904//EN" "http://www.w3.org/TR/2001/REC-SVG-20010904/DTD/svg10.dtd">
<svg xmlns="http://www.w3.org/2000/svg" version="1.0" width="360.000000pt" height="360.000000pt" viewBox="0 0 360.000000 360.000000" preserveAspectRatio="xMidYMid meet">

<g transform="translate(0.000000,360.000000) scale(0.100000,-0.100000)" fill="#000000" stroke="none">
<path d="M1520 3260 c0 -5 -11 -12 -24 -16 -63 -15 -113 -125 -102 -225 5 -49 3 -57 -10 -52 -8 3 -24 -3 -34 -12 -19 -17 -19 -19 -3 -37 12 -13 25 -17 47 -13 27 5 34 1 53 -29 22 -34 114 -92 126 -80 13 13 47 -19 57 -54 14 -53 13 -62 -11 -62 -12 0 -38 -4 -58 -9 -20 -5 -74 -19 -121 -31 -47 -11 -108 -27 -136 -35 -28 -8 -64 -15 -80 -15 -16 -1 -47 -8 -69 -16 -53 -21 -196 -53 -231 -52 -16 0 -60 -16 -99 -37 -113 -60 -215 -111 -294 -146 -41 -19 -92 -51 -115 -72 -22 -21 -59 -47 -82 -58 -23 -11 -54 -33 -70 -50 -26 -28 -27 -30 -11 -46 14 -15 20 -15 35 -5 53 38 130 65 194 66 37 1 73 7 79 13 15 15 2 51 -22 58 -28 9 -6 27 66 54 32 12 86 37 119 56 138 75 182 96 216 100 72 8 188 33 210 45 12 6 59 18 104 26 44 8 99 18 121 23 22 6 72 17 110 26 39 9 92 23 118 31 27 9 50 14 52 12 2 -2 6 -28 10 -58 3 -30 11 -71 16 -90 22 -81 35 -256 28 -360 -4 -58 -11 -156 -15 -217 -7 -116 -19 -158 -44 -158 -20 0 -51 -65 -44 -94 3 -13 18 -40 35 -60 16 -20 29 -39 29 -43 0 -5 14 -27 30 -50 28 -38 30 -47 30 -126 0 -84 -14 -184 -31 -229 -6 -15 -17 -23 -33 -23 -13 0 -43 -7 -66 -15 -23 -8 -66 -15 -94 -15 -28 0 -67 -4 -86 -10 -51 -15 -168 -16 -182 -2 -7 7 -25 12 -40 12 -34 0 -37 -22 -8 -65 23 -34 27 -124 9 -190 -10 -35 -9 -41 9 -55 15 -12 32 -15 64 -11 38 5 43 9 46 34 3 22 -1 30 -18 34 -19 5 -21 11 -16 42 3 20 6 55 6 79 0 24 3 41 8 38 4 -2 26 -1 50 4 26 4 42 4 42 -3 0 -6 5 -5 13 1 7 6 51 16 98 21 130 15 240 43 256 67 12 19 26 94 40 212 l5 43 89 -87 c51 -50 93 -101 98 -118 5 -17 15 -71 21 -121 7 -49 21 -126 31 -170 30 -131 27 -268 -7 -306 -13 -15 -12 -19 13 -39 46 -36 128 -7 104 38 -6 10 -8 22 -5 24 10 10 5 151 -5 161 -6 6 -11 24 -11 39 0 16 -9 61 -19 101 -10 39 -22 110 -26 157 -11 135 -26 166 -141 283 -140 143 -141 143 -146 257 -3 77 -8 102 -25 125 -16 23 -20 42 -18 85 6 122 17 310 24 390 8 89 3 136 -30 321 -12 63 -19 126 -17 139 3 23 26 34 88 43 9 1 27 13 40 26 14 13 54 37 90 53 36 16 125 59 199 95 l133 66 102 3 c55 2 194 6 307 10 252 8 249 9 249 -81 0 -35 -4 -67 -10 -70 -25 -15 -4 -75 26 -75 18 0 51 59 59 105 3 22 11 50 17 62 9 18 5 29 -23 67 -21 30 -44 49 -63 55 -17 4 -103 7 -191 5 -88 -1 -224 -3 -303 -4 -151 -2 -211 -14 -272 -53 -19 -13 -60 -34 -90 -46 -30 -13 -64 -30 -75 -37 -11 -7 -41 -20 -65 -29 -25 -9 -74 -33 -110 -54 -101 -59 -112 -60 -140 -3 -14 26 -26 50 -28 53 -1 3 8 10 21 16 34 16 77 106 77 160 0 95 -94 254 -160 272 -73 19 -90 21 -90 11z m108 -108 c38 -39 72 -116 72 -165 0 -39 -28 -95 -56 -114 -45 -29 -154 14 -154 60 0 8 -7 28 -15 43 -19 37 -19 76 0 139 18 58 36 75 82 75 25 0 42 -9 71 -38z m102 -1513 c0 -6 -4 -7 -10 -4 -5 3 -10 11 -10 16 0 6 5 7 10 4 6 -3 10 -11 10 -16z"/>
</g>
</svg>
