<?xml version="1.0" standalone="no"?>
<!DOCTYPE svg PUBLIC "-//W3C//DTD SVG 20010904//EN" "http://www.w3.org/TR/2001/REC-SVG-20010904/DTD/svg10.dtd">
<svg xmlns="http://www.w3.org/2000/svg" version="1.0" width="360.000000pt" height="360.000000pt" viewBox="0 0 360.000000 360.000000" preserveAspectRatio="xMidYMid meet">

<g transform="translate(0.000000,360.000000) scale(0.100000,-0.100000)" fill="#000000" stroke="none">
<path d="M316 2301 c-4 -6 -26 -16 -49 -22 -86 -23 -137 -51 -137 -75 0 -35 13 -36 90 -10 67 22 74 23 133 10 34 -8 141 -23 237 -34 182 -21 239 -30 354 -57 56 -13 80 -14 135 -5 36 6 107 14 156 17 171 11 229 16 237 21 4 3 95 9 200 14 106 5 201 12 210 15 23 9 35 -21 43 -107 7 -75 27 -233 53 -415 13 -92 17 -149 11 -189 -4 -32 -5 -62 -2 -67 3 -4 2 -44 -2 -89 -7 -72 -9 -79 -27 -75 -26 7 -50 -39 -27 -54 8 -5 22 -9 33 -9 13 0 16 -5 11 -17 -3 -10 -11 -40 -18 -66 -8 -38 -8 -50 2 -56 8 -5 10 -20 7 -42 -3 -19 -8 -76 -10 -127 -3 -54 -10 -99 -17 -108 -10 -12 -9 -18 2 -30 12 -11 46 -15 145 -17 125 -2 129 -1 132 19 3 23 2 24 -141 40 -31 3 -59 10 -62 14 -6 10 12 290 20 312 4 10 16 20 26 23 11 4 126 112 257 241 130 129 262 255 292 281 94 82 254 236 283 272 15 18 27 42 27 52 0 11 6 19 14 19 27 0 46 -12 46 -29 0 -24 39 -94 63 -111 69 -51 100 -68 135 -74 32 -5 44 -13 61 -41 13 -23 28 -35 42 -35 19 0 21 4 16 30 -6 28 -5 30 24 30 38 0 105 34 123 63 24 39 38 97 31 133 -14 78 -134 161 -247 172 -66 5 -130 -14 -187 -56 -28 -21 -44 -25 -80 -23 -86 7 -106 9 -141 19 -145 42 -283 75 -400 96 -94 17 -237 44 -260 50 -8 2 -33 9 -55 14 -22 6 -65 13 -95 17 -30 4 -68 9 -83 11 -15 2 -35 0 -45 -5 -9 -5 -84 -12 -167 -15 -82 -4 -177 -11 -210 -16 -85 -13 -395 -35 -490 -34 -44 0 -123 8 -175 18 -52 9 -140 21 -195 27 -55 6 -142 17 -192 25 -85 14 -92 18 -90 37 1 16 -4 23 -20 25 -11 2 -24 -1 -27 -7z m1824 -152 c47 -11 139 -29 205 -39 122 -20 374 -77 514 -116 15 -5 -37 -47 -133 -107 -34 -21 -83 -56 -111 -76 -27 -21 -66 -48 -87 -60 -21 -13 -41 -34 -47 -53 -11 -32 -313 -340 -400 -408 l-44 -34 7 149 c5 115 3 174 -9 250 -22 142 -42 297 -51 390 -4 44 -10 93 -15 108 l-8 28 47 -6 c26 -4 85 -16 132 -26z m1166 -118 c50 -26 102 -72 105 -91 4 -29 -13 -89 -31 -105 -10 -9 -40 -18 -70 -20 -121 -8 -270 69 -270 139 0 38 16 55 80 84 56 25 131 23 186 -7z m-631 -263 c-21 -18 -46 -40 -57 -48 -11 -8 -41 -37 -66 -64 -69 -73 -116 -116 -121 -110 -2 2 16 25 42 51 26 26 56 60 68 77 20 29 160 138 168 131 2 -2 -14 -19 -34 -37z m-311 -300 c-32 -34 -77 -78 -99 -97 -22 -20 -73 -71 -114 -114 -53 -55 -77 -75 -85 -67 -8 8 9 29 59 73 39 34 119 110 180 169 117 114 159 139 59 36z"/>
</g>
</svg>
