<?xml version="1.0" standalone="no"?>
<!DOCTYPE svg PUBLIC "-//W3C//DTD SVG 20010904//EN" "http://www.w3.org/TR/2001/REC-SVG-20010904/DTD/svg10.dtd">
<svg xmlns="http://www.w3.org/2000/svg" version="1.0" width="360.000000pt" height="360.000000pt" viewBox="0 0 360.000000 360.000000" preserveAspectRatio="xMidYMid meet">

<g transform="translate(0.000000,360.000000) scale(0.100000,-0.100000)" fill="#000000" stroke="none">
<path d="M1143 1942 c-14 -9 -5 -78 26 -199 27 -106 46 -303 45 -473 -1 -110 -7 -163 -33 -288 -36 -176 -72 -294 -95 -317 -20 -20 -21 -68 -2 -84 13 -11 52 -9 116 4 8 2 45 4 83 4 59 1 67 3 67 20 0 33 -44 53 -115 49 -35 -1 -67 0 -70 4 -3 3 5 44 20 92 71 232 106 530 85 711 -25 209 -32 246 -61 320 -16 43 -28 79 -26 81 2 2 52 -22 113 -52 197 -101 225 -115 262 -128 21 -8 83 -32 139 -55 56 -22 108 -41 116 -41 8 0 28 -7 43 -15 16 -8 39 -15 51 -15 12 0 45 -5 72 -11 49 -10 50 -11 36 -32 -15 -24 -71 -173 -110 -297 -13 -41 -39 -120 -56 -175 -27 -82 -32 -115 -31 -180 1 -44 2 -117 2 -162 1 -76 10 -103 24 -70 2 6 4 -3 3 -22 -3 -47 18 -50 39 -6 14 31 16 51 9 133 -16 179 -11 228 39 397 25 85 66 206 91 268 25 63 45 120 45 126 0 7 4 10 9 7 5 -3 9 -26 9 -51 2 -81 50 -135 135 -150 31 -6 41 -15 58 -46 26 -52 49 -52 49 -1 0 36 3 40 40 52 21 7 48 22 58 34 19 21 52 134 52 179 0 38 -49 77 -95 76 -22 0 -59 3 -83 7 -47 7 -127 -10 -154 -33 -15 -13 -57 -13 -108 2 -8 2 -33 6 -55 10 -74 11 -215 54 -310 95 -22 10 -56 23 -75 30 -69 24 -97 37 -305 144 -141 72 -135 69 -152 58z m1241 -388 c28 -6 28 -7 23 -57 -7 -52 -33 -92 -65 -96 -112 -12 -182 23 -182 89 l0 31 68 -2 c56 -2 68 0 70 14 2 9 -1 17 -7 17 -6 0 -11 5 -11 11 0 11 20 9 104 -7z"/>
</g>
</svg>
