<?xml version="1.0" standalone="no"?>
<!DOCTYPE svg PUBLIC "-//W3C//DTD SVG 20010904//EN" "http://www.w3.org/TR/2001/REC-SVG-20010904/DTD/svg10.dtd">
<svg xmlns="http://www.w3.org/2000/svg" version="1.0" width="360.000000pt" height="360.000000pt" viewBox="0 0 360.000000 360.000000" preserveAspectRatio="xMidYMid meet">

<g transform="translate(0.000000,360.000000) scale(0.100000,-0.100000)" fill="#000000" stroke="none">
<path d="M1768 2375 c-16 -8 -40 -21 -55 -29 -16 -8 -41 -36 -58 -62 -28 -44 -30 -56 -33 -155 -5 -134 12 -192 67 -242 21 -19 45 -38 54 -43 18 -10 27 -101 11 -112 -5 -4 -36 -25 -69 -46 -33 -21 -64 -44 -70 -51 -5 -6 -35 -31 -65 -56 -30 -24 -57 -46 -60 -49 -3 -3 -18 -16 -35 -28 -16 -13 -69 -61 -116 -108 l-86 -85 -49 12 c-27 7 -71 11 -99 10 -65 -2 -95 -34 -95 -101 0 -47 9 -66 67 -134 18 -22 33 -43 33 -48 0 -5 22 -41 49 -81 81 -121 138 -211 161 -256 20 -41 21 -43 3 -57 -10 -7 -42 -14 -73 -14 -57 0 -80 -12 -80 -40 0 -18 33 -53 42 -45 2 3 31 10 63 16 63 12 134 52 136 78 3 39 -5 60 -42 113 -21 31 -39 60 -39 63 0 3 -21 38 -47 78 -26 39 -63 97 -82 127 -20 30 -50 73 -67 95 -70 89 -75 132 -16 137 60 5 92 -9 92 -41 0 -44 65 -63 140 -42 28 8 106 -20 157 -56 17 -13 35 -23 40 -23 5 0 34 -18 63 -40 29 -22 58 -40 63 -40 5 0 32 -14 59 -30 75 -46 87 -43 333 101 28 17 61 34 75 40 14 6 46 21 73 35 32 16 64 24 100 24 54 1 87 16 87 43 0 17 20 27 56 27 22 0 24 -3 18 -22 -8 -28 -24 -49 -84 -108 -25 -25 -74 -83 -110 -129 -36 -47 -81 -103 -101 -125 -76 -85 -179 -229 -179 -250 0 -44 12 -48 156 -57 76 -5 144 -7 151 -5 22 9 14 23 -24 48 -35 21 -61 26 -160 27 -57 1 -57 2 173 283 55 68 127 150 158 183 75 78 109 135 100 169 -13 55 -72 70 -152 39 l-44 -17 -92 95 c-86 88 -112 113 -232 215 -105 90 -130 110 -162 132 -18 13 -37 20 -42 17 -6 -4 -10 12 -10 39 0 40 3 46 21 46 30 0 126 84 150 132 26 50 28 181 5 247 -21 57 -89 132 -140 153 -51 21 -54 21 -88 3z m118 -102 c50 -53 64 -91 64 -176 0 -66 -3 -79 -31 -120 -36 -55 -46 -62 -63 -48 -10 8 -16 5 -25 -15 -9 -20 -15 -23 -25 -15 -7 6 -16 8 -19 5 -12 -13 -57 27 -78 68 -16 30 -23 68 -27 129 -4 76 -2 93 17 133 25 52 58 73 114 75 32 1 44 -5 73 -36z m96 -700 c146 -129 298 -280 298 -295 0 -21 -126 -12 -164 11 -18 12 -52 21 -81 22 -28 1 -71 6 -97 12 -55 12 -62 27 -46 100 8 42 8 52 -6 65 -13 14 -20 14 -36 4 -11 -6 -22 -12 -25 -12 -3 0 -5 50 -5 110 0 63 4 110 9 110 6 0 74 -57 153 -127z m-219 9 c5 -69 4 -72 -18 -72 -12 0 -29 -8 -39 -19 -15 -17 -15 -23 -2 -82 9 -35 14 -64 13 -65 -1 -1 -29 -6 -62 -12 -33 -5 -105 -26 -160 -45 -94 -33 -102 -34 -134 -21 -19 8 -37 17 -40 19 -8 8 163 167 304 281 59 48 127 96 131 91 1 -1 5 -35 7 -75z m-10 -323 c12 -22 17 -53 17 -115 0 -46 -2 -84 -5 -84 -12 0 -132 64 -173 92 -23 16 -59 36 -80 45 -37 16 -37 16 -12 25 14 6 32 14 41 18 9 5 45 14 80 21 35 6 73 15 84 19 29 12 28 13 48 -21z m212 -6 c78 -5 184 -39 168 -53 -5 -4 -39 -24 -78 -45 -38 -20 -77 -43 -85 -50 -26 -22 -122 -67 -128 -60 -4 4 -8 56 -10 116 l-4 110 28 -6 c16 -4 65 -9 109 -12z"/>
</g>
</svg>
