<?xml version="1.0" standalone="no"?>
<!DOCTYPE svg PUBLIC "-//W3C//DTD SVG 20010904//EN" "http://www.w3.org/TR/2001/REC-SVG-20010904/DTD/svg10.dtd">
<svg xmlns="http://www.w3.org/2000/svg" version="1.0" width="360.000000pt" height="360.000000pt" viewBox="0 0 360.000000 360.000000" preserveAspectRatio="xMidYMid meet">

<g transform="translate(0.000000,360.000000) scale(0.100000,-0.100000)" fill="#000000" stroke="none">
<path d="M1699 3198 c-56 -21 -119 -122 -119 -193 0 -21 -5 -25 -29 -25 -17 0 -31 -6 -35 -16 -9 -25 12 -45 40 -38 17 4 24 2 24 -8 0 -33 32 -119 55 -146 14 -16 40 -37 58 -46 32 -15 35 -19 41 -81 8 -77 6 -80 -83 -158 -36 -32 -113 -100 -171 -152 -58 -52 -131 -116 -164 -142 -32 -27 -83 -69 -112 -96 -70 -61 -182 -143 -261 -191 -118 -71 -263 -226 -212 -226 10 0 131 99 149 121 3 3 55 39 115 79 101 68 204 146 280 211 16 15 63 55 103 90 40 35 94 81 120 103 26 21 63 52 82 70 19 17 62 53 94 79 79 64 81 59 71 -142 -4 -86 -7 -190 -6 -231 l2 -75 -69 -62 c-48 -44 -73 -75 -82 -103 -7 -22 -10 -43 -6 -47 4 -4 30 18 59 48 102 110 92 147 92 -329 0 -229 -3 -430 -7 -447 -7 -27 -12 -101 -37 -550 -5 -77 -4 -144 0 -149 15 -16 43 -16 62 1 11 11 40 17 82 19 91 4 127 28 93 62 -14 14 -87 15 -142 2 l-39 -9 7 147 c10 203 14 273 28 452 13 155 14 210 10 625 -1 121 0 229 2 240 3 11 5 34 5 51 1 27 10 36 74 76 39 25 88 54 107 64 50 27 52 34 25 79 -13 22 -36 63 -51 90 -15 28 -39 68 -54 90 -14 22 -43 70 -62 106 -34 62 -37 74 -41 173 -5 103 -4 107 19 125 34 27 92 116 104 161 21 77 -29 263 -77 288 -27 14 -116 20 -144 10z m107 -65 c25 -27 48 -91 59 -166 16 -107 -88 -220 -159 -173 -39 25 -66 94 -66 165 0 86 17 136 57 171 42 37 76 38 109 3z m134 -1010 c0 -7 -4 -13 -9 -13 -4 0 -35 -18 -67 -40 -32 -21 -60 -37 -62 -35 -4 4 -2 152 3 210 1 17 3 55 4 85 l2 55 64 -125 c36 -69 65 -131 65 -137z"/>
</g>
</svg>
