<?xml version="1.0" standalone="no"?>
<!DOCTYPE svg PUBLIC "-//W3C//DTD SVG 20010904//EN" "http://www.w3.org/TR/2001/REC-SVG-20010904/DTD/svg10.dtd">
<svg xmlns="http://www.w3.org/2000/svg" version="1.0" width="360.000000pt" height="360.000000pt" viewBox="0 0 360.000000 360.000000" preserveAspectRatio="xMidYMid meet">

<g transform="translate(0.000000,360.000000) scale(0.100000,-0.100000)" fill="#000000" stroke="none">
<path d="M1919 2606 c-2 -2 -33 -7 -69 -10 -122 -11 -233 -27 -249 -35 -9 -5 -34 -12 -56 -15 -38 -7 -121 -39 -193 -75 -37 -18 -171 -143 -194 -181 -23 -37 -30 -122 -17 -193 15 -82 70 -237 129 -367 26 -58 58 -127 69 -155 34 -78 53 -115 87 -170 52 -84 74 -163 75 -269 0 -52 -2 -100 -6 -106 -4 -6 -6 -41 -6 -78 2 -133 -31 -463 -55 -564 -5 -21 -1 -30 20 -44 23 -14 31 -15 51 -4 14 7 37 10 57 6 18 -3 61 -9 95 -12 53 -5 63 -4 71 13 18 32 -2 45 -102 63 -53 10 -99 20 -103 23 -3 4 0 71 7 149 36 435 46 698 24 705 -7 2 -9 28 -7 68 2 37 -1 66 -7 70 -8 5 -7 12 2 22 6 8 37 65 68 127 96 188 161 310 175 326 7 8 30 47 50 85 21 39 50 88 65 110 15 22 41 69 58 105 41 85 122 232 149 267 17 23 23 26 34 16 7 -7 26 -13 41 -13 34 0 34 -3 6 -43 -34 -47 -31 -168 5 -237 15 -28 22 -52 16 -55 -12 -8 -12 -52 1 -60 5 -3 19 0 30 8 18 12 26 11 72 -12 60 -29 163 -35 212 -10 50 24 86 79 93 141 5 49 1 63 -31 129 -20 41 -49 89 -65 108 -27 30 -36 34 -113 44 -45 6 -101 11 -123 11 -28 0 -44 5 -53 18 -21 29 -132 75 -198 83 -32 3 -70 8 -84 11 -14 3 -28 3 -31 0z m129 -77 l22 -8 -35 -63 c-20 -35 -63 -117 -97 -183 -33 -66 -105 -193 -159 -282 -54 -89 -99 -164 -99 -167 0 -3 -22 -38 -49 -78 -27 -40 -70 -114 -96 -165 -38 -76 -46 -98 -40 -124 14 -61 -17 -18 -77 110 -33 69 -81 171 -108 226 -26 55 -51 111 -55 125 -4 14 -19 48 -33 75 -26 51 -34 94 -33 179 1 62 33 118 101 179 50 45 201 127 234 127 9 0 25 4 35 10 17 8 87 23 191 39 66 10 271 11 298 0z m408 -131 c73 -50 108 -149 79 -224 -21 -55 -34 -62 -110 -59 -104 3 -180 71 -192 173 -7 62 0 90 28 121 21 22 27 23 93 17 47 -4 81 -14 102 -28z"/>
</g>
</svg>
