<?xml version="1.0" standalone="no"?>
<!DOCTYPE svg PUBLIC "-//W3C//DTD SVG 20010904//EN" "http://www.w3.org/TR/2001/REC-SVG-20010904/DTD/svg10.dtd">
<svg xmlns="http://www.w3.org/2000/svg" version="1.0" width="360.000000pt" height="360.000000pt" viewBox="0 0 360.000000 360.000000" preserveAspectRatio="xMidYMid meet">

<g transform="translate(0.000000,360.000000) scale(0.100000,-0.100000)" fill="#000000" stroke="none">
<path d="M2756 3150 c-32 -28 -81 -66 -109 -85 -29 -19 -70 -47 -92 -63 -22 -16 -62 -42 -90 -57 -27 -15 -66 -39 -85 -54 -37 -29 -114 -76 -165 -101 -16 -8 -32 -18 -35 -21 -5 -6 -36 -21 -143 -68 -27 -11 -62 -32 -78 -46 -17 -13 -68 -43 -115 -67 -71 -35 -87 -40 -95 -27 -14 22 -11 26 19 32 43 9 96 60 132 128 32 60 33 64 26 147 -5 64 -13 97 -33 134 -36 67 -103 119 -159 126 -42 4 -45 3 -88 -44 -83 -91 -109 -173 -91 -295 13 -90 39 -130 110 -175 25 -16 45 -36 45 -46 0 -13 -16 -8 -87 26 -49 24 -117 57 -153 73 -116 54 -194 92 -240 117 -25 13 -155 79 -290 145 -135 67 -281 144 -325 171 -50 32 -89 49 -104 48 -53 -6 -32 -30 96 -113 70 -45 97 -59 328 -170 110 -52 207 -100 215 -106 8 -5 71 -37 140 -70 69 -33 180 -88 247 -121 67 -33 135 -63 150 -67 25 -7 28 -12 26 -47 -1 -21 -1 -102 -1 -179 0 -180 0 -215 -4 -482 -2 -166 -6 -223 -14 -223 -7 0 -22 -25 -33 -55 -11 -30 -25 -63 -31 -72 -5 -10 -26 -54 -46 -98 -20 -44 -51 -102 -68 -130 -52 -82 -102 -166 -138 -235 -77 -145 -201 -366 -213 -380 -7 -8 -33 -49 -58 -91 -81 -136 -154 -219 -194 -219 -34 0 -207 -40 -217 -50 -7 -7 -6 -14 1 -21 9 -9 44 -7 138 5 70 9 131 14 135 11 14 -8 108 103 147 173 20 37 64 110 98 162 34 52 106 178 160 280 54 102 132 237 172 301 40 64 73 120 73 124 0 4 16 43 36 88 20 45 42 109 48 142 l13 60 17 -33 c9 -18 63 -94 120 -170 57 -75 111 -152 120 -171 33 -63 225 -321 331 -446 29 -33 77 -94 108 -135 31 -41 77 -100 101 -130 25 -30 64 -79 87 -109 23 -29 59 -71 80 -92 34 -34 43 -38 86 -37 26 1 87 0 134 -1 104 -2 119 3 119 39 0 21 -6 29 -23 32 -13 3 -32 1 -43 -2 -10 -4 -58 -8 -106 -8 -92 -1 -107 5 -157 62 -135 155 -206 239 -247 293 -21 28 -84 108 -139 177 -132 164 -213 275 -294 399 -36 56 -78 118 -93 137 -15 19 -57 73 -94 119 l-66 85 7 114 c4 63 8 267 9 453 1 286 3 341 16 353 8 8 44 29 79 47 36 17 88 49 118 69 29 21 79 48 110 61 73 28 146 68 235 127 38 26 105 68 148 93 43 26 102 64 131 85 30 22 79 56 109 76 81 55 123 101 115 127 -3 12 -10 21 -14 21 -4 0 -34 -23 -65 -50z m-988 -107 c70 -44 95 -98 95 -201 -1 -62 -5 -79 -27 -110 -46 -67 -95 -84 -151 -51 -49 29 -75 84 -75 157 0 112 53 205 128 221 1 1 15 -7 30 -16z"/>
</g>
</svg>
