<?xml version="1.0" standalone="no"?>
<!DOCTYPE svg PUBLIC "-//W3C//DTD SVG 20010904//EN" "http://www.w3.org/TR/2001/REC-SVG-20010904/DTD/svg10.dtd">
<svg xmlns="http://www.w3.org/2000/svg" version="1.0" width="360.000000pt" height="360.000000pt" viewBox="0 0 360.000000 360.000000" preserveAspectRatio="xMidYMid meet">

<g transform="translate(0.000000,360.000000) scale(0.100000,-0.100000)" fill="#000000" stroke="none">
<path d="M2763 3287 c-35 -51 -102 -232 -133 -357 -35 -141 -63 -333 -63 -420 1 -103 21 -271 38 -319 18 -51 18 -54 5 -46 -25 15 -215 26 -521 28 -263 2 -299 5 -323 20 -26 17 -27 17 -55 -5 -16 -13 -70 -78 -120 -144 -51 -67 -138 -176 -194 -242 -140 -165 -233 -283 -291 -366 -26 -39 -76 -107 -110 -151 -35 -44 -104 -135 -155 -202 -51 -68 -106 -134 -122 -148 -24 -20 -30 -31 -27 -57 4 -42 24 -52 182 -89 66 -16 145 -37 175 -48 57 -20 104 -16 109 10 5 29 -52 56 -178 84 -119 26 -200 52 -200 62 0 2 24 37 53 76 29 40 71 97 92 127 21 30 66 89 99 131 34 42 97 127 141 188 44 62 100 136 125 165 43 49 121 144 220 266 46 56 138 178 179 237 l22 33 28 -30 c15 -17 38 -48 52 -71 61 -102 164 -262 219 -344 34 -49 76 -115 94 -145 50 -84 204 -328 245 -388 77 -113 151 -239 167 -285 9 -27 18 -46 21 -43 3 3 17 -6 31 -20 29 -26 43 -29 59 -13 8 8 13 8 17 0 5 -7 14 -6 29 3 21 14 36 14 187 3 29 -2 36 2 38 19 2 11 -6 31 -16 45 -19 22 -26 24 -136 24 l-116 0 0 25 c0 14 -7 43 -14 65 -20 56 -20 294 -1 420 9 55 20 145 24 200 17 197 44 335 83 425 19 44 23 48 37 36 36 -32 118 -49 216 -44 53 3 101 10 109 17 8 7 33 37 56 67 34 43 42 62 42 94 -1 81 -54 134 -143 146 -53 7 -68 19 -50 37 17 17 13 44 -11 67 -12 11 -25 20 -28 20 -9 0 -30 -47 -30 -68 0 -11 -26 -32 -72 -57 -45 -25 -74 -48 -77 -60 -2 -11 -10 -24 -17 -30 -8 -5 -23 -32 -33 -59 l-19 -50 -15 30 c-32 62 -46 181 -42 359 5 205 10 258 40 400 32 153 100 318 137 333 15 7 28 40 22 56 -11 29 -57 19 -81 -17z m235 -1031 c63 -7 112 -40 112 -76 0 -86 -144 -142 -252 -99 -39 16 -53 57 -35 101 24 57 63 90 100 83 18 -3 51 -7 75 -9z m-708 -151 c4 -2 42 -5 86 -5 43 -1 106 -6 139 -11 33 -4 75 -10 94 -11 50 -4 59 -32 38 -116 -23 -89 -45 -220 -52 -312 -4 -41 -15 -131 -26 -199 -14 -87 -20 -180 -21 -307 l-1 -182 -26 31 c-28 33 -45 59 -232 350 -25 40 -70 110 -101 157 -30 47 -61 96 -68 110 -7 14 -37 57 -65 95 -29 39 -67 96 -84 128 -18 33 -45 78 -62 100 -44 61 -109 166 -109 176 0 9 476 5 490 -4z"/>
</g>
</svg>
