<?xml version="1.0" standalone="no"?>
<!DOCTYPE svg PUBLIC "-//W3C//DTD SVG 20010904//EN" "http://www.w3.org/TR/2001/REC-SVG-20010904/DTD/svg10.dtd">
<svg xmlns="http://www.w3.org/2000/svg" version="1.0" width="360.000000pt" height="360.000000pt" viewBox="0 0 360.000000 360.000000" preserveAspectRatio="xMidYMid meet">

<g transform="translate(0.000000,360.000000) scale(0.100000,-0.100000)" fill="#000000" stroke="none">
<path d="M1185 2289 c-14 -21 9 -48 65 -78 33 -18 60 -29 60 -24 0 4 4 3 8 -2 8 -12 58 -27 187 -55 49 -11 126 -31 170 -44 44 -13 108 -31 143 -41 34 -10 60 -20 57 -23 -7 -7 -326 -22 -465 -21 -155 1 -210 4 -232 13 -12 5 -22 0 -33 -18 -10 -14 -20 -24 -24 -21 -4 2 -23 -17 -42 -43 -151 -203 -206 -279 -240 -332 -22 -34 -68 -97 -102 -140 -34 -42 -90 -115 -124 -161 -35 -46 -95 -124 -133 -174 -116 -147 -213 -277 -244 -325 -16 -25 -40 -59 -55 -76 -46 -55 -93 -113 -107 -131 -35 -47 2 -83 84 -83 35 0 74 -9 111 -24 31 -13 63 -27 71 -30 8 -4 26 -13 40 -21 35 -21 96 -19 104 2 7 16 -28 63 -47 63 -5 0 -35 11 -66 24 -84 35 -153 56 -183 56 -16 0 -28 2 -28 5 0 10 32 58 69 105 20 24 41 52 46 61 24 41 139 196 285 385 41 53 80 103 85 112 6 8 18 24 29 36 28 32 143 186 173 231 14 22 53 76 86 120 33 44 86 119 118 167 l57 88 29 -45 c241 -382 533 -793 671 -945 142 -155 233 -252 279 -298 24 -23 50 -58 58 -78 12 -28 18 -34 37 -30 52 12 169 15 214 7 43 -9 52 -7 69 10 15 15 17 23 9 37 -16 25 -63 45 -98 42 -17 -2 -63 -4 -103 -4 l-72 -1 -93 90 c-51 50 -103 103 -114 118 -12 15 -53 60 -91 100 -39 40 -90 95 -113 122 -24 28 -40 41 -36 30 l7 -20 -18 20 c-10 11 -29 36 -43 55 -13 19 -28 38 -33 41 -5 4 -4 10 2 13 7 5 -4 27 -31 62 -24 30 -45 49 -47 43 -3 -10 -61 68 -61 83 0 4 -11 19 -25 34 -14 15 -24 33 -21 39 2 6 -5 22 -15 36 -10 13 -19 29 -19 35 0 6 -18 34 -40 62 -22 27 -40 53 -40 57 0 4 -24 42 -53 84 -77 110 -126 192 -136 228 l-9 31 162 -5 c88 -3 251 0 361 7 258 15 413 14 550 -6 61 -9 125 -18 142 -20 21 -3 37 -13 44 -27 26 -51 60 -75 124 -88 59 -11 63 -14 68 -43 3 -17 11 -44 17 -61 l12 -30 23 29 c13 17 23 32 22 35 0 3 2 16 7 29 5 16 15 22 37 22 38 0 117 40 146 74 19 22 31 26 76 26 29 0 118 10 198 21 79 12 171 23 204 25 71 4 194 22 206 30 5 3 9 14 9 25 0 30 -45 43 -101 29 -25 -6 -81 -15 -125 -20 -43 -4 -131 -16 -194 -25 -63 -9 -139 -18 -168 -19 l-52 -2 1 40 c1 23 -4 55 -10 71 -16 39 -60 85 -82 85 -10 0 -21 5 -25 11 -5 8 -35 10 -96 6 -70 -5 -103 -12 -152 -35 -68 -32 -141 -91 -151 -122 -6 -18 -7 -18 -38 -1 -21 11 -65 20 -127 25 -82 6 -134 12 -250 30 -80 12 -242 52 -375 92 -33 10 -64 18 -70 19 -60 7 -211 52 -265 80 -55 29 -109 45 -115 34z m1602 -188 c7 -1 28 -15 48 -32 29 -26 35 -38 35 -70 0 -32 -4 -41 -23 -48 -21 -8 -274 3 -324 14 -70 16 42 115 149 133 34 6 55 7 115 3z m-94 -217 c74 -4 106 -9 99 -16 -16 -16 -132 -17 -187 -1 -54 16 -88 38 -45 29 14 -3 74 -8 133 -12z m-1033 -714 c0 -5 -2 -10 -4 -10 -3 0 -8 5 -11 10 -3 6 -1 10 4 10 6 0 11 -4 11 -10z m225 -270 c3 -5 1 -10 -4 -10 -6 0 -11 5 -11 10 0 6 2 10 4 10 3 0 8 -4 11 -10z"/>
</g>
</svg>
