<?xml version="1.0" standalone="no"?>
<!DOCTYPE svg PUBLIC "-//W3C//DTD SVG 20010904//EN" "http://www.w3.org/TR/2001/REC-SVG-20010904/DTD/svg10.dtd">
<svg xmlns="http://www.w3.org/2000/svg" version="1.0" width="360.000000pt" height="360.000000pt" viewBox="0 0 360.000000 360.000000" preserveAspectRatio="xMidYMid meet">

<g transform="translate(0.000000,360.000000) scale(0.100000,-0.100000)" fill="#000000" stroke="none">
<path d="M1635 3363 c-81 -20 -126 -79 -143 -189 -16 -98 39 -246 106 -289 35 -23 75 -106 54 -113 -7 -2 -9 -8 -6 -14 3 -5 6 -38 6 -73 0 -46 -12 -100 -43 -196 -23 -74 -45 -138 -49 -144 -4 -5 -13 -28 -20 -50 -23 -75 -111 -270 -150 -337 -22 -36 -60 -88 -86 -115 -59 -61 -87 -119 -71 -145 7 -10 16 -18 21 -18 23 0 76 44 93 78 23 45 71 122 89 142 82 91 204 265 204 291 0 5 15 32 33 61 17 29 33 59 35 66 1 7 9 27 16 45 14 31 14 29 16 -53 1 -47 2 -177 2 -289 -1 -288 -6 -309 -151 -601 -148 -296 -222 -433 -273 -500 -21 -29 -44 -62 -49 -74 -5 -11 -26 -47 -47 -78 -20 -31 -80 -125 -134 -210 -53 -84 -108 -166 -122 -182 -30 -33 -30 -35 -11 -60 13 -17 26 -19 122 -17 73 1 124 -3 157 -13 56 -17 79 -8 74 28 -6 38 -56 56 -162 57 -53 1 -96 4 -96 8 0 10 89 163 141 243 24 38 62 97 84 133 22 35 66 102 98 147 31 46 60 92 63 103 4 11 20 39 35 62 16 22 49 85 74 140 56 121 154 313 170 333 7 8 19 29 28 45 11 22 17 26 21 15 10 -30 139 -377 173 -465 68 -178 185 -427 219 -465 7 -9 40 -67 72 -130 83 -161 94 -179 123 -214 l27 -30 138 -3 c77 -1 148 -3 158 -3 22 -1 37 17 30 35 -11 27 -61 39 -182 41 l-124 2 -64 108 c-35 60 -64 113 -64 118 0 4 -7 5 -16 2 -12 -4 -15 -2 -10 9 3 9 -29 81 -73 168 -44 83 -97 199 -120 257 -22 58 -78 202 -124 320 -46 118 -95 244 -107 280 -13 36 -27 70 -31 75 -4 6 -1 53 7 105 27 170 0 792 -36 835 -5 6 -16 36 -24 67 -8 30 -24 74 -36 98 -12 23 -20 43 -18 44 2 1 28 13 59 28 45 21 59 34 76 69 29 60 44 130 37 176 -5 37 -3 40 30 58 40 22 54 49 36 70 -17 20 -33 19 -63 -5 -32 -26 -32 -25 -47 9 -14 35 -42 62 -93 90 -38 21 -46 23 -82 14z m85 -103 c77 -55 92 -262 22 -293 -15 -6 -33 -17 -40 -24 -20 -19 -56 -16 -76 6 -27 30 -66 146 -66 197 0 48 11 73 50 117 29 32 61 32 110 -3z m-26 -752 c-8 -75 -56 -211 -103 -297 -23 -41 -41 -78 -41 -82 0 -5 -4 -9 -10 -9 -11 0 -2 28 28 87 11 21 43 109 73 196 29 86 54 157 56 157 1 0 0 -23 -3 -52z"/>
</g>
</svg>
