<?xml version="1.0" standalone="no"?>
<!DOCTYPE svg PUBLIC "-//W3C//DTD SVG 20010904//EN" "http://www.w3.org/TR/2001/REC-SVG-20010904/DTD/svg10.dtd">
<svg xmlns="http://www.w3.org/2000/svg" version="1.0" width="360.000000pt" height="360.000000pt" viewBox="0 0 360.000000 360.000000" preserveAspectRatio="xMidYMid meet">

<g transform="translate(0.000000,360.000000) scale(0.100000,-0.100000)" fill="#000000" stroke="none">
<path d="M2317 3053 c-126 -133 -257 -607 -253 -913 l0 -54 -124 -3 c-69 -2 -150 -5 -180 -8 -30 -4 -102 -8 -160 -10 -202 -8 -228 -13 -245 -45 -8 -16 -15 -35 -15 -42 0 -21 -67 -142 -90 -163 -11 -10 -20 -22 -20 -28 0 -12 -70 -126 -92 -151 -10 -11 -36 -50 -58 -86 -22 -37 -73 -105 -113 -151 -40 -47 -88 -105 -107 -129 -19 -25 -53 -63 -75 -85 -22 -22 -69 -70 -104 -108 -34 -37 -67 -67 -71 -67 -13 0 -18 -36 -7 -56 6 -10 11 -41 12 -69 0 -43 3 -50 21 -53 27 -4 48 22 51 62 7 101 8 103 94 198 46 52 102 116 124 143 22 27 58 69 80 95 22 25 67 81 99 125 33 44 79 105 102 137 23 31 49 69 58 86 18 36 97 155 106 162 4 3 16 22 27 43 l19 38 24 -42 c27 -50 107 -168 125 -185 7 -7 40 -57 74 -111 60 -96 144 -210 230 -315 71 -87 371 -412 395 -430 6 -3 43 -7 83 -7 85 0 138 -8 171 -24 18 -8 26 -8 37 4 13 13 11 19 -22 51 -39 37 -79 47 -197 48 -33 0 -46 7 -91 53 -49 49 -53 57 -69 137 -26 127 -34 282 -31 610 l3 295 59 6 c32 3 61 4 64 3 3 -2 12 -21 19 -44 15 -46 50 -72 127 -95 96 -29 236 18 293 97 47 65 40 125 -24 192 -30 32 -41 37 -73 36 -89 -6 -92 -5 -95 48 -3 43 -5 47 -30 50 -23 3 -29 -2 -34 -24 -4 -15 -2 -35 5 -45 15 -26 16 -25 -34 -39 -56 -16 -122 -62 -137 -95 -9 -20 -16 -24 -32 -18 -12 3 -39 7 -61 7 l-40 1 -1 134 c-1 129 17 252 54 371 6 19 22 76 36 127 31 109 94 246 136 293 35 40 36 42 11 64 -18 16 -20 15 -54 -21z m242 -932 c53 -8 90 -36 91 -69 0 -18 -33 -60 -69 -86 -43 -32 -155 -35 -203 -6 -69 40 -56 113 25 151 45 20 72 22 156 10z m-481 -149 c-22 -130 -25 -667 -3 -822 l6 -45 -52 55 c-143 152 -302 356 -370 472 -23 40 -55 87 -70 103 -31 35 -133 189 -157 237 -5 10 56 20 146 24 42 2 118 7 167 12 50 4 147 9 216 10 l125 2 -8 -48z"/>
</g>
</svg>
