<?xml version="1.0" standalone="no"?>
<!DOCTYPE svg PUBLIC "-//W3C//DTD SVG 20010904//EN" "http://www.w3.org/TR/2001/REC-SVG-20010904/DTD/svg10.dtd">
<svg xmlns="http://www.w3.org/2000/svg" version="1.0" width="360.000000pt" height="360.000000pt" viewBox="0 0 360.000000 360.000000" preserveAspectRatio="xMidYMid meet">

<g transform="translate(0.000000,360.000000) scale(0.100000,-0.100000)" fill="#000000" stroke="none">
<path d="M2781 2878 c-5 -13 -15 -88 -21 -167 -9 -114 -19 -170 -47 -260 -47 -156 -105 -279 -135 -285 -32 -6 -344 -35 -453 -41 -195 -12 -674 -16 -693 -6 -23 12 -42 -3 -42 -33 0 -11 -6 -27 -14 -35 -32 -38 -170 -278 -240 -419 -42 -84 -92 -174 -110 -200 -19 -26 -43 -63 -54 -82 -100 -176 -226 -387 -237 -401 -8 -8 -15 -18 -15 -22 0 -13 -126 -203 -145 -218 -16 -14 -18 -22 -10 -45 6 -16 17 -29 25 -30 52 -2 238 -42 290 -62 14 -5 50 -9 80 -8 47 1 55 4 55 20 0 11 -8 20 -17 22 -10 1 -30 11 -46 23 -18 12 -79 30 -158 46 -71 15 -130 28 -132 30 -2 2 23 49 57 105 34 55 61 103 61 105 0 2 20 33 45 69 25 37 45 68 45 70 0 8 86 143 122 192 20 28 52 77 71 110 19 32 49 85 68 116 19 32 54 92 78 135 25 43 57 94 72 113 15 19 52 82 84 140 31 58 65 114 75 125 9 11 22 28 27 38 9 17 11 16 36 -9 43 -43 130 -153 196 -247 34 -48 71 -98 82 -110 11 -12 77 -107 146 -212 69 -104 134 -201 144 -215 45 -60 155 -217 171 -245 10 -16 30 -52 44 -80 29 -54 85 -139 146 -221 41 -55 44 -56 197 -70 24 -2 59 -8 78 -13 65 -18 131 11 103 45 -23 27 -49 35 -149 43 -138 12 -157 24 -245 146 -41 57 -82 118 -91 136 -24 47 -107 169 -179 264 -34 44 -83 116 -110 160 -27 44 -88 133 -135 198 -47 65 -106 146 -130 180 -51 72 -139 188 -175 233 l-26 32 98 5 c53 3 115 5 137 5 42 1 417 20 495 26 25 2 97 8 160 14 63 6 119 8 123 5 5 -3 2 -12 -6 -21 -8 -10 -40 -66 -72 -127 -32 -60 -72 -130 -89 -155 -18 -25 -48 -74 -67 -110 -19 -35 -60 -92 -91 -126 -32 -34 -58 -68 -58 -77 0 -20 24 -39 42 -32 28 11 168 187 168 211 0 3 24 43 54 87 65 98 176 311 176 337 0 18 6 21 92 36 l37 6 -6 -36 c-5 -33 -1 -40 38 -80 30 -30 59 -48 89 -55 25 -7 51 -14 58 -16 7 -3 12 -22 12 -49 0 -36 4 -48 21 -57 26 -14 33 -5 50 63 7 30 16 48 26 48 8 0 46 17 85 38 82 43 95 65 96 162 2 79 -16 116 -77 160 -42 31 -46 32 -135 28 -87 -3 -94 -5 -141 -39 -28 -19 -63 -54 -78 -77 -27 -41 -30 -42 -83 -42 l-54 0 41 82 c50 100 95 254 109 379 6 52 15 127 21 167 8 55 8 77 -1 88 -18 21 -49 17 -59 -8z m284 -631 c24 4 36 -2 62 -29 31 -33 36 -50 34 -122 -1 -29 -4 -37 -16 -32 -8 3 -15 1 -15 -4 0 -6 -15 -19 -32 -30 -26 -16 -48 -20 -107 -18 -83 2 -129 24 -145 71 -20 56 61 160 137 177 21 5 35 3 42 -5 6 -7 24 -10 40 -8z"/>
</g>
</svg>
