<?xml version="1.0" standalone="no"?>
<!DOCTYPE svg PUBLIC "-//W3C//DTD SVG 20010904//EN" "http://www.w3.org/TR/2001/REC-SVG-20010904/DTD/svg10.dtd">
<svg xmlns="http://www.w3.org/2000/svg" version="1.0" width="360.000000pt" height="360.000000pt" viewBox="0 0 360.000000 360.000000" preserveAspectRatio="xMidYMid meet">

<g transform="translate(0.000000,360.000000) scale(0.100000,-0.100000)" fill="#000000" stroke="none">
<path d="M1800 3260 c0 -5 -15 -23 -34 -40 -41 -37 -66 -112 -67 -195 -1 -47 -5 -63 -20 -73 -10 -7 -19 -19 -19 -27 0 -16 29 -34 46 -28 6 2 30 -19 53 -47 23 -28 56 -57 72 -65 25 -14 29 -21 29 -59 0 -30 -5 -46 -15 -50 -8 -3 -15 -16 -15 -29 0 -13 -9 -57 -19 -98 -10 -41 -22 -99 -25 -129 -15 -118 -40 -224 -97 -405 -15 -49 -47 -153 -69 -230 -23 -77 -48 -150 -56 -162 -19 -30 -18 -47 5 -67 17 -15 20 -15 34 -1 9 8 18 23 21 33 40 137 93 316 116 388 46 140 79 276 105 433 14 79 27 146 30 149 5 5 8 -95 6 -243 -1 -75 -4 -114 -32 -347 -6 -51 -22 -140 -36 -198 l-26 -105 17 -105 c22 -142 23 -585 2 -844 -24 -289 -28 -318 -42 -366 -12 -38 -11 -48 2 -67 15 -23 48 -30 72 -14 8 4 35 4 60 -1 106 -20 122 -21 128 -3 14 35 -40 65 -146 82 -19 3 -36 6 -37 7 -6 5 18 346 29 421 12 86 14 514 3 780 -6 139 -4 173 14 260 11 55 23 134 26 175 10 127 27 261 33 256 3 -3 11 -38 17 -78 7 -40 22 -116 33 -168 11 -52 28 -153 38 -223 13 -91 24 -134 37 -147 21 -24 36 -25 44 -5 7 20 -31 263 -69 435 -16 74 -38 178 -49 230 -12 52 -25 105 -30 118 -5 13 -9 41 -9 63 0 22 -6 61 -14 87 -7 26 -23 85 -33 130 -18 75 -19 84 -5 90 58 22 92 92 99 202 9 135 -30 238 -104 274 -34 18 -103 22 -103 6z m118 -107 c27 -71 34 -133 22 -205 -16 -101 -52 -122 -115 -67 -63 55 -80 133 -50 218 19 54 50 80 96 81 31 0 38 -4 47 -27z"/>
</g>
</svg>
