<?xml version="1.0" standalone="no"?>
<!DOCTYPE svg PUBLIC "-//W3C//DTD SVG 20010904//EN" "http://www.w3.org/TR/2001/REC-SVG-20010904/DTD/svg10.dtd">
<svg xmlns="http://www.w3.org/2000/svg" version="1.0" width="360.000000pt" height="360.000000pt" viewBox="0 0 360.000000 360.000000" preserveAspectRatio="xMidYMid meet">

<g transform="translate(0.000000,360.000000) scale(0.100000,-0.100000)" fill="#000000" stroke="none">
<path d="M1585 3103 c-82 -20 -124 -77 -132 -178 -7 -86 23 -177 80 -242 13 -15 36 -24 73 -29 49 -6 58 -4 95 22 46 31 64 62 74 119 3 22 8 49 10 61 3 11 25 35 50 53 53 38 64 76 18 61 -68 -21 -83 -21 -83 -2 0 41 -121 148 -159 141 -3 -1 -15 -3 -26 -6z m88 -111 c46 -46 63 -167 31 -222 -22 -36 -78 -64 -103 -50 -37 19 -91 123 -91 175 0 44 20 96 44 118 29 24 82 15 119 -21z"/>
<path d="M1580 2613 c1 -5 9 -33 20 -63 22 -62 25 -135 10 -260 -9 -72 -20 -199 -36 -400 -5 -65 11 -82 67 -71 24 5 51 11 59 15 13 5 15 -20 13 -201 -2 -300 -2 -305 -100 -907 -24 -150 -24 -160 -8 -172 12 -9 25 -10 41 -4 13 5 24 8 24 5 0 -2 13 1 29 6 19 7 36 7 48 1 10 -6 39 -13 65 -17 l48 -7 -11 28 c-15 44 -48 63 -117 65 l-60 2 4 31 c2 17 6 56 8 86 6 69 43 337 56 410 22 119 39 280 40 373 0 155 50 328 98 345 15 6 34 13 43 16 13 6 9 -25 -23 -180 -46 -231 -40 -254 57 -204 22 11 55 20 75 20 19 0 42 5 50 10 12 7 11 13 -10 34 -25 28 -60 33 -104 16 -25 -9 -26 -9 -20 28 5 30 32 176 50 266 5 25 34 45 65 46 43 0 55 24 38 73 -11 33 -20 43 -40 45 -26 3 -26 3 -16 60 14 76 13 117 -2 136 -32 39 -95 1 -131 -79 -62 -137 -74 -164 -85 -200 -21 -67 -40 -57 -40 22 -1 38 -4 93 -9 123 -11 80 -84 359 -104 400 -32 67 -93 134 -92 103z m114 -396 c9 -40 20 -127 23 -193 l6 -120 -36 -11 c-20 -6 -38 -8 -41 -5 -5 5 2 219 9 272 2 14 4 49 4 78 1 28 5 52 9 52 5 0 16 -33 26 -73z m285 -104 c-5 -27 -13 -68 -19 -93 -5 -25 -9 -48 -10 -51 0 -11 -47 -27 -59 -20 -8 5 3 37 36 109 27 56 51 102 54 102 3 0 2 -21 -2 -47z"/>
</g>
</svg>
