<?xml version="1.0" standalone="no"?>
<!DOCTYPE svg PUBLIC "-//W3C//DTD SVG 20010904//EN" "http://www.w3.org/TR/2001/REC-SVG-20010904/DTD/svg10.dtd">
<svg xmlns="http://www.w3.org/2000/svg" version="1.0" width="360.000000pt" height="360.000000pt" viewBox="0 0 360.000000 360.000000" preserveAspectRatio="xMidYMid meet">

<g transform="translate(0.000000,360.000000) scale(0.100000,-0.100000)" fill="#000000" stroke="none">
<path d="M1798 2563 c-117 -122 -159 -294 -100 -409 21 -42 80 -88 126 -100 18 -4 24 -10 17 -18 -5 -6 -12 -49 -16 -96 l-7 -85 -66 -50 c-37 -27 -76 -58 -87 -69 -11 -10 -34 -29 -52 -43 -30 -23 -33 -24 -57 -8 -14 10 -26 21 -26 24 0 10 -202 141 -248 161 -48 21 -69 15 -89 -23 -20 -38 -18 -98 4 -141 22 -43 95 -143 137 -188 l34 -37 -59 -55 c-50 -47 -59 -61 -59 -90 0 -52 34 -75 97 -65 26 4 71 11 98 14 l50 7 55 -72 c30 -40 67 -88 83 -108 15 -21 36 -46 46 -58 17 -17 18 -27 11 -60 -5 -21 -10 -65 -10 -97 l0 -59 -38 7 c-31 5 -41 2 -57 -15 -18 -20 -18 -23 -4 -48 14 -24 21 -27 67 -26 109 3 137 29 120 106 -10 44 -7 76 18 174 4 14 -3 30 -23 51 -15 16 -41 47 -58 68 -16 21 -37 46 -45 54 -25 27 -60 73 -60 80 0 11 144 33 163 25 26 -10 65 4 77 27 7 11 13 78 14 147 2 70 8 136 14 147 6 11 16 46 22 78 13 65 7 66 90 -15 l52 -51 -31 -30 c-22 -22 -33 -28 -43 -20 -18 14 -54 22 -66 14 -14 -8 -15 -18 -13 -157 1 -151 4 -156 86 -145 57 9 155 -4 155 -19 0 -3 -38 -46 -85 -96 -47 -49 -85 -92 -85 -96 0 -5 -7 -8 -15 -8 -28 0 -38 -39 -25 -96 8 -32 11 -79 7 -116 -5 -53 -2 -67 14 -87 18 -22 23 -23 62 -13 23 6 61 10 85 11 68 0 80 19 39 66 -17 20 -33 27 -67 29 l-45 2 4 74 3 74 77 96 c42 52 87 110 100 128 23 33 24 33 100 31 42 -1 80 -4 85 -7 21 -12 74 -7 93 8 37 30 37 54 -3 106 -20 27 -52 63 -71 79 l-35 31 42 64 c24 36 60 90 80 120 77 114 90 168 53 218 -34 46 -66 35 -272 -94 -30 -18 -66 -44 -80 -58 -14 -13 -38 -31 -53 -40 l-26 -17 -74 74 c-40 41 -83 77 -95 81 -21 7 -23 13 -23 83 0 57 -4 81 -17 95 -15 16 -15 18 0 18 23 0 118 45 142 67 57 52 87 137 74 213 -6 30 -12 75 -15 100 -3 25 -14 59 -24 75 -26 42 -76 88 -88 81 -5 -3 -15 1 -22 9 -8 10 -31 15 -64 15 -49 0 -55 -3 -98 -47z m174 -75 c21 -31 26 -46 37 -98 22 -110 22 -129 -3 -168 -30 -48 -53 -67 -96 -81 -59 -19 -106 0 -142 57 -28 46 -20 125 21 209 42 83 72 106 130 99 24 -3 48 -11 53 -18z m488 -664 c0 -6 -30 -59 -102 -181 l-55 -92 -44 29 c-24 16 -55 38 -68 49 -24 18 -24 19 -4 30 12 6 44 31 73 55 29 25 71 55 94 66 22 12 52 27 66 35 26 16 40 19 40 9z m-1061 -122 c31 -20 68 -48 83 -61 l27 -24 -42 -48 -41 -48 -16 23 c-8 12 -31 39 -50 60 -42 45 -90 124 -90 149 0 16 3 16 36 2 20 -8 62 -32 93 -53z m411 -32 c-7 -4 -11 -10 -11 -14 4 -28 -1 -46 -12 -46 -8 0 -22 -9 -32 -20 -23 -25 -29 -25 -71 4 l-35 24 83 66 83 67 3 -37 c2 -21 -2 -40 -8 -44z m338 -115 c20 -19 52 -42 70 -52 39 -21 39 -28 7 -75 -34 -50 -58 -62 -98 -49 -18 5 -60 13 -94 16 l-61 7 -4 39 c-3 29 1 40 12 44 8 3 34 27 58 55 24 27 50 50 58 50 9 0 32 -16 52 -35z m-524 -18 c17 -13 49 -32 71 -42 22 -11 43 -23 46 -28 3 -5 10 -7 15 -5 17 6 15 -29 -3 -51 -17 -20 -30 -23 -118 -28 l-100 -4 -28 40 -28 41 27 35 c22 30 65 63 83 65 2 0 18 -11 35 -23z m726 -139 l21 -23 -32 -3 c-39 -4 -57 11 -39 33 17 20 25 19 50 -7z m-922 -29 c-12 -4 -34 -7 -48 -8 -24 0 -24 0 -5 14 11 8 25 18 30 24 6 5 17 3 28 -8 18 -15 18 -16 -5 -22z"/>
</g>
</svg>
