<?xml version="1.0" standalone="no"?>
<!DOCTYPE svg PUBLIC "-//W3C//DTD SVG 20010904//EN" "http://www.w3.org/TR/2001/REC-SVG-20010904/DTD/svg10.dtd">
<svg xmlns="http://www.w3.org/2000/svg" version="1.0" width="360.000000pt" height="360.000000pt" viewBox="0 0 360.000000 360.000000" preserveAspectRatio="xMidYMid meet">

<g transform="translate(0.000000,360.000000) scale(0.100000,-0.100000)" fill="#000000" stroke="none">
<path d="M3044 2438 c-59 -67 -102 -158 -164 -348 -65 -197 -94 -370 -88 -518 l5 -114 -71 6 c-39 3 -136 12 -215 21 -79 8 -166 15 -195 15 -28 0 -91 12 -141 25 -49 14 -110 28 -134 31 -25 3 -58 11 -75 18 -17 7 -58 18 -91 25 -115 25 -166 42 -185 61 -11 11 -32 22 -46 24 -15 3 -39 16 -53 30 -30 28 -239 134 -389 196 -56 23 -102 46 -102 50 0 5 -102 59 -227 121 -235 116 -308 157 -380 215 -40 33 -44 34 -147 37 -88 3 -109 0 -121 -13 -22 -24 -19 -57 5 -63 36 -9 174 5 191 20 15 12 20 9 50 -25 49 -56 115 -100 269 -179 74 -38 177 -93 229 -122 139 -78 253 -135 311 -156 19 -7 96 -43 171 -80 l137 -67 5 -41 c10 -74 -40 -859 -65 -1012 -8 -54 -18 -85 -31 -95 -15 -13 -17 -20 -8 -43 10 -27 13 -28 73 -26 35 1 93 -1 129 -6 73 -8 119 -2 119 18 0 22 -83 56 -155 63 l-71 6 12 91 c7 50 16 137 19 192 3 55 10 159 15 230 5 72 12 177 15 235 15 311 17 331 34 324 19 -8 188 -49 396 -98 149 -34 217 -45 430 -66 61 -6 126 -13 145 -16 19 -3 61 -7 93 -9 32 -2 61 -6 64 -9 3 -3 1 -25 -5 -48 -31 -126 -58 -468 -49 -623 4 -55 2 -120 -4 -145 -5 -25 -12 -65 -16 -89 -5 -38 -4 -43 13 -39 10 2 23 13 30 25 8 17 13 20 22 11 7 -7 20 -13 29 -14 10 -2 30 -5 45 -8 44 -9 43 11 -5 69 l-45 55 -3 102 c-6 207 8 430 40 645 9 62 12 66 51 67 25 1 32 -4 40 -30 6 -18 27 -43 50 -59 34 -24 48 -27 117 -27 84 0 157 25 216 74 37 30 47 99 23 146 -23 45 -115 112 -154 112 l-31 0 16 44 c14 37 15 47 4 60 -17 20 -35 20 -56 0 -13 -13 -15 -27 -10 -64 l7 -48 -34 -7 c-82 -16 -117 -36 -135 -77 -17 -38 -19 -39 -58 -33 -21 3 -41 8 -44 11 -3 3 -5 60 -5 127 1 165 24 287 100 522 22 68 101 225 127 253 11 12 16 22 10 22 -6 0 -9 9 -6 20 7 28 -18 26 -43 -2z m213 -924 c28 -17 40 -77 23 -109 -35 -65 -214 -81 -255 -22 -18 26 -19 76 -2 97 15 20 64 42 101 46 16 2 32 7 35 10 9 8 73 -6 98 -22z"/>
</g>
</svg>
