<?xml version="1.0" standalone="no"?>
<!DOCTYPE svg PUBLIC "-//W3C//DTD SVG 20010904//EN" "http://www.w3.org/TR/2001/REC-SVG-20010904/DTD/svg10.dtd">
<svg xmlns="http://www.w3.org/2000/svg" version="1.0" width="360.000000pt" height="360.000000pt" viewBox="0 0 360.000000 360.000000" preserveAspectRatio="xMidYMid meet">

<g transform="translate(0.000000,360.000000) scale(0.100000,-0.100000)" fill="#000000" stroke="none">
<path d="M1559 3213 c-14 -7 -47 -35 -72 -62 -54 -58 -83 -138 -73 -205 8 -53 54 -149 95 -200 32 -40 44 -105 19 -107 -46 -4 -74 -11 -163 -37 -55 -16 -158 -39 -230 -51 -71 -12 -155 -26 -185 -31 -91 -15 -384 -32 -434 -25 -52 8 -67 -7 -48 -49 9 -21 16 -22 98 -20 122 2 260 13 379 30 55 8 132 19 170 24 65 8 322 67 389 90 l29 9 -9 -157 c-13 -224 -9 -574 7 -647 17 -80 16 -124 -9 -360 -29 -269 -29 -619 -2 -833 14 -106 12 -143 -9 -186 -23 -44 -18 -64 18 -77 20 -8 28 -7 38 7 7 10 13 24 13 31 0 7 4 13 9 13 16 0 30 58 21 87 -17 55 -29 129 -36 218 -3 50 -8 99 -11 110 -13 52 -12 416 1 520 8 61 17 135 20 165 12 128 32 200 56 200 5 0 38 28 72 63 35 34 84 72 110 85 26 13 73 42 105 65 90 66 144 97 335 195 186 95 267 127 298 119 11 -3 30 3 43 14 21 16 25 30 30 98 6 95 31 154 65 159 20 3 23 8 17 30 -12 52 -26 55 -80 20 l-50 -33 -140 1 c-153 1 -360 25 -470 54 -163 43 -232 63 -259 77 -16 8 -41 13 -56 9 -15 -3 -35 1 -45 7 -25 19 -2 61 46 83 63 28 105 76 129 148 21 64 21 66 4 128 -21 78 -27 91 -73 151 -54 73 -110 97 -162 70z m101 -109 c47 -40 73 -99 74 -169 1 -91 -36 -146 -110 -161 -39 -8 -85 30 -120 97 -27 54 -37 140 -16 147 7 2 19 19 27 38 14 34 66 74 97 74 9 0 31 -12 48 -26z m195 -600 c88 -25 178 -47 200 -50 22 -2 50 -5 63 -8 109 -23 383 -36 443 -21 l26 7 -13 -53 c-8 -30 -14 -64 -14 -77 0 -25 -22 -37 -175 -97 -38 -15 -77 -33 -85 -40 -8 -7 -67 -38 -130 -70 -103 -51 -162 -87 -360 -218 -55 -36 -161 -114 -191 -140 -14 -12 -17 -6 -27 62 -26 172 -29 360 -11 589 5 72 7 137 4 142 -25 40 70 31 270 -26z"/>
</g>
</svg>
