<?xml version="1.0" standalone="no"?>
<!DOCTYPE svg PUBLIC "-//W3C//DTD SVG 20010904//EN" "http://www.w3.org/TR/2001/REC-SVG-20010904/DTD/svg10.dtd">
<svg xmlns="http://www.w3.org/2000/svg" version="1.0" width="360.000000pt" height="360.000000pt" viewBox="0 0 360.000000 360.000000" preserveAspectRatio="xMidYMid meet">

<g transform="translate(0.000000,360.000000) scale(0.100000,-0.100000)" fill="#000000" stroke="none">
<path d="M1585 1240 c-11 -4 -55 -10 -97 -14 -72 -6 -157 -25 -203 -46 -66 -29 -157 -75 -199 -101 -62 -38 -81 -35 -82 14 -2 78 -38 73 -125 -16 -46 -47 -59 -67 -57 -87 4 -34 35 -37 77 -6 30 22 61 26 61 6 0 -4 -18 -19 -39 -33 -42 -28 -146 -143 -186 -207 -35 -56 -34 -108 4 -144 49 -47 171 -53 312 -16 60 16 112 33 124 41 6 4 44 24 85 44 41 21 84 45 95 55 32 27 83 44 98 32 13 -11 118 8 140 26 16 13 202 71 252 79 62 9 171 39 265 72 47 17 94 31 105 31 11 0 30 6 41 14 12 9 26 11 34 6 10 -6 6 -16 -19 -41 -52 -56 -53 -120 -3 -212 l26 -48 -22 -15 c-12 -8 -22 -22 -22 -30 0 -20 34 -17 54 5 17 19 18 19 65 -5 84 -42 222 -30 255 21 11 16 19 56 22 106 6 90 3 95 -92 195 -40 43 -57 54 -82 54 -17 0 -34 5 -38 11 -4 7 -22 9 -45 6 -22 -3 -42 -1 -45 4 -3 5 -2 9 3 10 4 0 33 3 63 5 157 13 163 14 225 56 22 15 56 30 75 33 19 3 50 18 68 31 31 24 32 27 19 47 -20 30 -92 29 -116 0 -9 -11 -41 -33 -71 -48 -44 -23 -69 -29 -125 -30 -38 -1 -115 -5 -170 -9 l-101 -8 -72 36 c-39 20 -80 36 -90 36 -10 0 -22 4 -28 10 -19 19 -122 33 -269 35 -82 1 -159 -1 -170 -5z m283 -106 c13 -3 42 -7 63 -10 22 -3 52 -10 67 -14 27 -8 27 -8 -8 -11 -19 -1 -46 -4 -60 -5 -14 -2 -63 -6 -108 -8 -66 -3 -89 -8 -108 -25 -13 -11 -58 -39 -101 -61 -43 -23 -85 -47 -93 -54 -37 -32 -109 -66 -126 -60 -64 21 -274 109 -274 114 0 9 65 37 119 50 24 6 51 15 60 20 19 10 102 24 266 45 66 9 138 20 160 24 38 8 90 6 143 -5z m322 -93 c0 -5 -57 -23 -127 -40 -185 -46 -234 -59 -273 -75 -19 -8 -53 -18 -75 -24 -22 -6 -57 -15 -77 -20 -21 -6 -38 -8 -38 -6 0 14 127 93 180 111 62 22 93 26 255 38 39 3 86 9 105 14 48 12 50 12 50 2z m-1070 -131 c6 0 37 -12 68 -26 31 -14 72 -32 91 -40 45 -20 39 -24 -119 -106 -158 -80 -199 -95 -283 -101 -80 -6 -115 12 -104 54 9 34 140 173 211 225 l60 44 32 -25 c18 -14 38 -25 44 -25z m1317 11 c19 -1 48 -14 74 -34 68 -51 92 -154 45 -188 -5 -4 -30 -10 -56 -13 -55 -7 -122 17 -154 55 -30 36 -58 107 -51 130 9 26 58 56 87 53 13 -1 37 -3 55 -3z"/>
</g>
</svg>
