<?xml version="1.0" standalone="no"?>
<!DOCTYPE svg PUBLIC "-//W3C//DTD SVG 20010904//EN" "http://www.w3.org/TR/2001/REC-SVG-20010904/DTD/svg10.dtd">
<svg xmlns="http://www.w3.org/2000/svg" version="1.0" width="360.000000pt" height="360.000000pt" viewBox="0 0 360.000000 360.000000" preserveAspectRatio="xMidYMid meet">

<g transform="translate(0.000000,360.000000) scale(0.100000,-0.100000)" fill="#000000" stroke="none">
<path d="M1235 1948 c-224 -13 -417 -87 -549 -210 -43 -40 -88 -79 -100 -87 -54 -37 -170 -187 -195 -254 -26 -68 -5 -184 38 -218 14 -12 51 -44 81 -73 30 -29 78 -69 105 -90 63 -47 285 -245 285 -254 1 -15 56 -67 70 -66 8 0 34 6 57 12 34 10 47 22 73 64 18 28 40 58 49 67 10 9 46 49 81 89 35 40 79 81 99 92 20 10 45 27 55 39 11 12 25 21 33 21 7 0 16 6 19 14 3 8 20 21 38 30 42 20 268 24 309 5 49 -22 103 26 73 67 -8 11 -32 17 -75 20 -89 5 -254 40 -215 45 53 7 286 6 432 -1 l184 -10 33 -37 c18 -21 47 -54 63 -73 l30 -35 30 22 c43 32 87 40 212 42 69 1 129 8 156 17 42 14 46 14 121 -16 43 -17 85 -38 94 -46 8 -8 20 -14 25 -14 18 1 61 46 77 82 16 35 47 55 65 44 5 -3 18 2 30 10 25 17 29 56 8 73 -8 7 -18 26 -21 42 -4 16 -11 32 -17 35 -5 4 -2 15 10 28 24 25 34 57 24 72 -10 15 -45 25 -58 16 -16 -11 -64 -101 -84 -157 l-18 -50 -70 -7 c-38 -4 -89 -14 -112 -22 -36 -12 -53 -13 -119 -1 -42 7 -143 18 -226 25 -82 6 -167 13 -188 15 -45 4 -96 46 -151 123 -34 48 -39 61 -41 120 -3 106 -38 168 -143 254 -12 9 -40 22 -64 29 -24 6 -55 17 -70 25 -15 8 -35 16 -45 17 -18 4 -60 19 -98 36 -33 15 -196 40 -245 38 -25 -1 -94 -5 -155 -9z m326 -78 c35 -12 67 -24 71 -28 5 -5 -3 -23 -16 -41 -13 -18 -29 -58 -34 -91 -12 -67 -3 -112 34 -176 l24 -41 -30 -33 c-22 -25 -27 -37 -19 -46 11 -14 64 -9 86 8 7 5 43 1 94 -12 93 -24 149 -21 205 11 19 10 36 19 38 19 2 0 25 -28 51 -61 38 -49 44 -60 26 -54 -39 12 -523 12 -612 0 -46 -7 -183 -16 -304 -20 -265 -9 -318 -11 -370 -19 -41 -6 -100 -11 -257 -22 l-87 -7 -7 27 c-10 43 4 91 48 158 45 68 264 288 313 314 17 8 47 26 69 39 21 12 57 26 79 29 23 4 46 11 52 15 19 15 109 33 184 37 41 2 77 7 80 9 2 3 52 5 111 5 80 0 123 -5 171 -20z m196 -117 c15 -20 53 -64 84 -97 95 -105 124 -146 108 -157 -53 -36 -74 -41 -133 -35 -73 8 -95 21 -132 83 -49 84 -48 190 4 229 27 21 39 17 69 -23z m154 -35 c29 -26 64 -81 73 -118 7 -24 6 -24 -16 5 -12 16 -34 38 -47 50 -29 25 -91 105 -91 117 0 10 34 -14 81 -54z m-414 -486 c-77 -37 -323 -255 -443 -395 -22 -26 -47 -47 -55 -47 -8 0 -67 46 -133 103 -65 56 -131 111 -146 122 -49 36 -191 157 -188 160 2 2 28 6 58 9 61 6 132 16 170 22 23 4 95 9 375 29 50 4 152 8 228 10 76 2 141 6 144 9 4 3 16 6 27 5 13 0 -1 -11 -37 -27z m878 -8 c-38 -17 -58 -17 -73 -2 -20 20 -14 23 45 19 58 -4 58 -4 28 -17z m575 7 c0 -15 -15 -21 -39 -14 -17 4 -19 8 -9 14 18 12 48 11 48 0z"/>
</g>
</svg>
