<?xml version="1.0" standalone="no"?>
<!DOCTYPE svg PUBLIC "-//W3C//DTD SVG 20010904//EN" "http://www.w3.org/TR/2001/REC-SVG-20010904/DTD/svg10.dtd">
<svg xmlns="http://www.w3.org/2000/svg" version="1.0" width="360.000000pt" height="360.000000pt" viewBox="0 0 360.000000 360.000000" preserveAspectRatio="xMidYMid meet">

<g transform="translate(0.000000,360.000000) scale(0.100000,-0.100000)" fill="#000000" stroke="none">
<path d="M3192 1570 c-12 -11 -25 -20 -30 -20 -5 0 -38 -29 -74 -65 l-66 -65 -604 0 c-516 0 -607 2 -624 15 -13 10 -47 14 -116 15 -53 0 -100 4 -103 10 -8 13 -48 13 -62 -1 -7 -7 -17 -8 -29 -1 -11 5 -43 12 -73 15 -30 4 -59 11 -65 17 -5 5 -56 10 -112 10 -78 0 -104 -3 -114 -15 -7 -8 -28 -15 -48 -15 -31 0 -44 -9 -101 -69 -58 -61 -102 -117 -136 -170 -5 -9 -35 -54 -65 -101 -30 -47 -61 -98 -70 -114 -9 -15 -20 -28 -25 -27 -11 2 -8 40 5 56 4 6 10 38 14 73 3 35 10 71 16 82 5 10 10 50 10 88 0 59 -3 72 -23 90 -22 21 -33 22 -174 22 -133 0 -152 -2 -166 -18 -32 -35 -21 -42 68 -42 47 0 85 -4 85 -10 0 -5 28 -10 63 -12 l62 -3 -3 -50 c-2 -27 -8 -54 -13 -60 -5 -5 -9 -44 -9 -86 0 -43 -4 -80 -9 -83 -4 -3 -11 -33 -15 -65 -4 -33 -11 -63 -16 -66 -6 -4 -10 -22 -10 -41 l0 -34 48 0 c41 0 53 5 80 33 18 18 32 37 32 42 0 6 16 27 35 47 19 20 35 40 35 43 0 4 10 21 23 38 23 33 27 41 67 116 13 25 66 89 118 143 76 79 100 98 123 98 15 0 31 5 34 10 3 6 46 10 95 10 49 0 92 -4 95 -10 3 -5 24 -10 46 -10 41 0 136 -26 153 -41 6 -5 19 -9 30 -9 12 0 32 -9 45 -19 21 -16 23 -23 16 -69 -4 -29 -11 -54 -16 -58 -5 -3 -9 -83 -9 -178 0 -167 1 -173 23 -194 13 -12 31 -22 40 -22 9 0 17 -4 17 -10 0 -5 8 -10 19 -10 10 0 24 -7 31 -15 8 -10 30 -15 61 -15 26 0 51 -4 54 -10 3 -5 39 -10 79 -10 48 0 79 -5 92 -15 11 -8 41 -15 71 -15 28 0 55 -4 58 -10 3 -5 17 -10 29 -10 13 0 37 -7 52 -15 38 -19 98 -19 118 1 9 8 16 17 16 19 0 13 -59 55 -77 55 -12 0 -25 5 -28 10 -3 5 -25 10 -48 10 -23 0 -51 7 -61 15 -12 9 -42 15 -77 15 -32 0 -61 5 -64 10 -3 6 -41 10 -83 10 -52 1 -83 5 -96 15 -11 8 -34 15 -52 15 -20 0 -40 9 -56 25 -22 22 -27 38 -34 123 -4 53 -8 101 -9 106 0 5 6 11 13 14 8 2 12 -9 12 -40 0 -83 91 -168 181 -168 21 0 41 -4 44 -10 8 -13 72 -13 80 0 3 6 17 10 30 10 34 0 115 51 115 73 0 25 27 32 49 13 10 -9 27 -16 39 -16 11 0 24 -4 27 -10 3 -5 19 -10 34 -10 16 0 34 -7 41 -15 7 -8 21 -15 31 -15 11 0 19 -4 19 -10 0 -5 11 -10 25 -10 14 0 25 -4 25 -10 0 -5 8 -10 19 -10 10 0 24 -7 31 -15 7 -8 23 -15 36 -15 12 0 26 -4 29 -10 3 -5 14 -10 24 -10 10 0 24 -7 31 -15 17 -21 54 -15 58 9 4 19 -58 85 -81 87 -7 0 -25 9 -42 20 -16 10 -37 21 -45 25 -8 3 -23 10 -32 15 -10 5 -24 9 -32 9 -8 0 -16 7 -20 15 -3 9 -18 15 -35 15 -16 0 -33 5 -36 10 -3 6 -14 10 -24 10 -10 0 -24 6 -31 14 -6 8 -28 16 -48 18 -28 2 -38 8 -40 23 -2 11 -7 29 -12 40 -4 11 -11 27 -14 35 -15 37 -44 76 -65 86 -12 6 -33 21 -47 33 -16 14 -38 21 -63 21 -22 0 -43 5 -46 10 -3 6 -46 10 -94 10 -67 0 -92 4 -101 15 -7 8 -22 15 -33 15 -14 0 -18 3 -11 10 7 7 43 7 115 -1 60 -7 319 -13 609 -16 311 -2 508 -7 514 -13 21 -21 66 -7 108 33 10 9 18 21 18 27 0 5 10 15 22 21 13 7 37 27 55 46 18 18 39 33 46 33 18 0 57 37 57 54 0 15 -32 46 -46 46 -6 0 -20 -9 -32 -20z m-1466 -301 c7 -12 -22 -46 -32 -37 -8 9 5 48 16 48 5 0 12 -5 16 -11z m194 -49 c14 0 31 -5 37 -11 6 -6 22 -17 34 -23 13 -6 28 -21 34 -33 23 -45 38 -55 72 -50 30 5 33 3 33 -19 0 -13 -4 -24 -10 -24 -5 0 -12 -11 -16 -25 -3 -14 -10 -25 -16 -25 -5 0 -24 -11 -42 -25 -33 -25 -89 -34 -101 -15 -3 6 -24 10 -45 10 -54 0 -110 52 -110 103 0 20 -4 39 -10 42 -13 8 -13 45 -1 45 5 0 11 10 13 23 2 16 11 23 33 25 17 2 34 8 40 13 5 5 13 5 19 -1 6 -5 22 -10 36 -10z"/>
</g>
</svg>
