<?xml version="1.0" standalone="no"?>
<!DOCTYPE svg PUBLIC "-//W3C//DTD SVG 20010904//EN" "http://www.w3.org/TR/2001/REC-SVG-20010904/DTD/svg10.dtd">
<svg xmlns="http://www.w3.org/2000/svg" version="1.0" width="360.000000pt" height="360.000000pt" viewBox="0 0 360.000000 360.000000" preserveAspectRatio="xMidYMid meet">

<g transform="translate(0.000000,360.000000) scale(0.100000,-0.100000)" fill="#000000" stroke="none">
<path d="M2025 1695 c-22 -8 -50 -15 -61 -15 -12 0 -32 -8 -45 -19 -45 -34 -86 -50 -130 -49 -74 2 -229 -11 -248 -22 -10 -5 -21 -7 -23 -5 -8 9 -90 -24 -143 -57 -93 -59 -193 -137 -222 -175 -43 -57 -73 -117 -73 -147 0 -19 -10 -32 -40 -51 -166 -104 -330 -268 -330 -327 0 -36 82 -49 155 -24 22 8 72 20 110 26 39 7 72 16 75 19 6 8 61 22 215 55 133 29 297 71 322 83 30 15 104 6 133 -15 15 -12 43 -27 62 -35 18 -8 52 -31 73 -51 51 -47 81 -55 107 -28 29 29 16 56 -47 96 -29 19 -56 39 -59 45 -10 16 -96 71 -112 71 -7 0 -14 5 -14 10 0 6 11 10 25 10 51 0 222 -22 285 -36 36 -8 81 -17 100 -20 43 -7 40 -4 84 -90 34 -67 66 -109 66 -87 0 5 13 8 29 5 19 -2 42 4 67 20 49 31 166 68 215 68 40 0 269 -71 306 -96 12 -8 30 -16 40 -18 10 -1 29 -8 43 -13 14 -6 26 -10 26 -9 11 10 49 92 66 139 11 34 34 88 49 119 28 56 39 88 19 58 -8 -12 -10 -12 -10 5 -1 19 -1 19 -19 -2 -10 -12 -21 -19 -25 -16 -3 4 -6 1 -6 -5 0 -7 -4 -12 -10 -12 -5 0 -10 6 -10 13 0 6 -18 30 -39 52 -35 37 -56 55 -173 155 -36 31 -76 69 -106 102 -33 37 -141 138 -147 138 -4 0 -16 11 -27 25 -11 14 -26 25 -34 25 -7 0 -19 9 -26 20 -7 11 -22 20 -33 20 -16 0 -21 6 -20 28 0 22 -5 28 -28 30 -17 2 -36 -3 -47 -13 -17 -15 -26 -15 -107 -1 -112 18 -207 19 -258 1z m275 -64 c34 -8 33 -8 -25 -15 -108 -12 -126 -17 -146 -37 -23 -23 -54 -24 -125 -3 -51 14 -65 34 -25 34 9 0 22 5 28 11 25 25 202 31 293 10z m116 -112 c43 -26 86 -91 87 -132 1 -42 -23 -81 -63 -102 -26 -14 -34 -14 -72 1 -24 8 -50 16 -58 18 -95 16 -187 131 -159 197 12 31 27 37 99 41 75 5 133 -3 166 -23z m-548 15 c16 -5 35 -30 63 -86 22 -44 74 -129 115 -190 65 -98 91 -150 66 -134 -5 3 -58 13 -118 22 -60 9 -120 18 -134 20 -14 3 -56 4 -95 3 -91 -1 -86 -2 -255 11 -80 6 -188 13 -240 16 -52 4 -97 8 -98 10 -2 1 1 19 8 39 13 38 59 81 130 118 25 13 79 43 120 67 41 24 113 58 160 76 71 27 99 33 170 33 47 0 95 -2 108 -5z m686 -19 c20 -9 80 -58 132 -110 52 -52 140 -134 194 -181 55 -47 100 -89 100 -93 0 -17 54 -62 69 -58 16 4 16 2 2 -29 -9 -20 -22 -34 -33 -34 -10 0 -18 -4 -18 -10 0 -13 -75 -13 -120 0 -19 6 -98 13 -175 16 -77 3 -153 9 -170 14 -16 5 -50 12 -74 15 -24 4 -59 14 -77 21 -18 8 -48 14 -66 14 -65 1 -112 32 -151 101 -19 35 -61 102 -92 148 -48 72 -105 172 -105 184 0 2 22 0 49 -6 l49 -9 7 -49 c11 -81 85 -160 179 -191 17 -6 36 -15 42 -19 6 -5 45 -14 88 -21 71 -11 78 -10 104 9 15 11 40 39 56 62 25 35 30 51 30 100 -1 51 -5 65 -33 100 -37 46 -37 47 13 26z m-1319 -405 c179 5 261 2 398 -15 66 -8 68 -16 5 -20 -46 -3 -114 -20 -163 -40 -16 -7 -47 -16 -69 -19 -21 -4 -50 -12 -65 -18 -14 -6 -39 -13 -56 -15 -33 -5 -151 -33 -235 -58 -91 -26 -230 -53 -230 -44 0 25 160 167 245 216 30 18 48 22 75 17 19 -3 62 -5 95 -4z m1169 -114 l38 -11 -61 -29 c-68 -33 -69 -33 -106 36 l-15 27 52 -6 c29 -3 70 -11 92 -17z m541 -74 c11 -6 14 -12 8 -12 -22 0 -103 24 -103 31 0 9 71 -5 95 -19z"/>
</g>
</svg>
