<?xml version="1.0" standalone="no"?>
<!DOCTYPE svg PUBLIC "-//W3C//DTD SVG 20010904//EN" "http://www.w3.org/TR/2001/REC-SVG-20010904/DTD/svg10.dtd">
<svg xmlns="http://www.w3.org/2000/svg" version="1.0" width="360.000000pt" height="360.000000pt" viewBox="0 0 360.000000 360.000000" preserveAspectRatio="xMidYMid meet">

<g transform="translate(0.000000,360.000000) scale(0.100000,-0.100000)" fill="#000000" stroke="none">
<path d="M1530 1909 c-156 -9 -322 -48 -404 -94 -63 -35 -157 -123 -228 -212 -71 -92 -80 -104 -88 -132 -9 -31 9 -59 29 -47 5 3 11 1 13 -5 2 -6 96 -104 210 -217 113 -114 222 -233 242 -264 31 -50 41 -58 67 -58 26 0 32 6 48 44 11 24 23 70 27 102 10 84 135 324 150 289 19 -45 46 -75 67 -75 26 0 57 28 57 50 0 8 6 29 12 47 12 32 15 34 53 32 23 -2 46 1 53 5 13 8 17 66 5 67 -5 0 -35 2 -68 4 -33 2 -90 6 -127 9 -42 3 -68 2 -68 -4 0 -6 -4 -10 -8 -10 -10 0 -166 128 -170 140 -2 5 18 11 45 15 26 3 71 12 98 20 28 8 102 24 165 36 63 11 132 29 153 40 21 10 44 19 53 19 8 0 33 10 54 22 l39 23 56 -29 57 -28 -40 -42 c-60 -62 -85 -122 -81 -197 l4 -62 -34 -11 c-37 -13 -61 -40 -61 -68 0 -22 12 -22 76 -3 l50 15 63 -60 c84 -81 109 -92 200 -94 88 -1 131 15 178 67 47 52 56 76 54 141 -3 91 -70 207 -137 234 -16 7 -41 23 -55 36 -31 29 -112 60 -138 53 -13 -3 -30 6 -53 30 -66 69 -294 159 -428 169 -30 2 -59 5 -65 7 -5 1 -62 0 -125 -4z m205 -69 c81 -12 195 -47 195 -61 0 -5 -9 -9 -20 -9 -11 0 -43 -9 -71 -20 -29 -10 -70 -22 -93 -25 -23 -4 -48 -8 -56 -9 -8 -2 -33 -6 -55 -10 -22 -4 -77 -16 -122 -27 -45 -10 -101 -19 -125 -19 -95 -1 -154 -30 -141 -68 8 -22 44 -51 64 -52 8 0 42 -20 73 -45 32 -25 61 -45 65 -45 3 -1 24 -16 45 -35 37 -33 38 -36 23 -53 -10 -10 -17 -22 -17 -27 0 -4 -14 -30 -31 -56 -29 -46 -49 -92 -91 -209 -11 -30 -21 -56 -23 -58 -2 -2 -52 47 -112 109 -59 62 -161 165 -227 229 -137 136 -135 120 -32 230 114 121 165 167 198 179 18 7 44 18 58 25 98 50 344 77 495 56z m504 -221 c24 -5 73 -31 109 -56 52 -38 70 -58 90 -102 37 -81 35 -113 -14 -162 -22 -22 -53 -42 -69 -46 -51 -11 -115 -5 -138 12 -12 8 -37 25 -54 36 -18 12 -33 27 -33 35 0 8 -3 14 -8 14 -11 0 -39 60 -46 99 -8 45 10 102 46 145 32 39 46 42 117 25z m-564 -249 c-3 -5 -10 -10 -16 -10 -5 0 -9 5 -9 10 0 6 7 10 16 10 8 0 12 -4 9 -10z"/>
</g>
</svg>
