<?xml version="1.0" standalone="no"?>
<!DOCTYPE svg PUBLIC "-//W3C//DTD SVG 20010904//EN" "http://www.w3.org/TR/2001/REC-SVG-20010904/DTD/svg10.dtd">
<svg xmlns="http://www.w3.org/2000/svg" version="1.0" width="360.000000pt" height="360.000000pt" viewBox="0 0 360.000000 360.000000" preserveAspectRatio="xMidYMid meet">

<g transform="translate(0.000000,360.000000) scale(0.100000,-0.100000)" fill="#000000" stroke="none">
<path d="M1400 2599 c-30 -3 -62 -9 -70 -13 -21 -9 -70 -81 -70 -101 0 -9 -7 -31 -15 -48 -8 -18 -15 -48 -17 -67 -3 -31 -6 -35 -35 -38 -48 -5 -41 -28 16 -56 33 -17 51 -33 55 -51 12 -47 71 -101 131 -120 52 -16 56 -19 51 -44 -3 -14 -8 -51 -11 -81 -4 -30 -12 -68 -20 -85 -7 -16 -25 -55 -39 -86 -30 -66 -56 -140 -67 -189 -4 -19 -26 -84 -49 -145 -60 -158 -120 -344 -120 -369 0 -16 -12 -28 -44 -44 -24 -12 -48 -22 -54 -22 -21 0 -62 -23 -62 -35 0 -19 34 -45 59 -45 12 0 32 5 44 12 12 6 40 13 62 16 55 6 67 18 64 66 -4 60 7 106 61 251 72 192 89 243 109 315 10 36 26 83 36 105 l19 40 6 -52 c3 -29 5 -188 4 -353 -1 -165 3 -303 7 -306 5 -3 9 -18 9 -34 0 -21 8 -35 25 -46 24 -16 32 -15 128 4 104 21 176 31 282 37 33 2 101 7 150 11 l91 7 26 -29 c15 -16 36 -40 46 -54 22 -28 85 -35 159 -19 27 5 52 5 68 -1 22 -8 30 -6 51 16 24 23 25 27 11 47 -16 24 -40 27 -107 14 -76 -16 -116 -15 -142 4 -23 18 -23 18 -3 33 11 9 34 18 51 22 18 3 47 18 64 33 59 48 24 83 -95 95 -166 17 -166 17 -195 50 -30 33 -70 88 -124 171 -17 28 -42 84 -55 125 -12 41 -27 85 -32 98 -5 13 -6 28 -3 34 6 10 14 68 33 248 9 85 35 170 52 170 5 0 9 7 9 15 0 8 16 29 35 47 40 35 44 72 12 92 -16 9 -23 5 -47 -23 -16 -18 -39 -39 -52 -45 -14 -7 -25 -24 -30 -46 -7 -34 -19 -91 -38 -178 -6 -23 -10 -61 -10 -85 -1 -51 -22 -154 -39 -185 -7 -13 -18 -21 -26 -18 -24 9 -129 93 -197 158 l-67 63 11 106 c11 106 11 107 42 120 72 32 99 178 62 329 -15 57 -28 83 -55 112 -42 45 -76 56 -151 47z m71 -83 c14 0 33 -7 41 -14 23 -19 42 -99 42 -177 1 -115 -28 -155 -110 -155 -48 0 -83 23 -117 76 -34 52 -38 115 -13 190 24 74 50 98 95 89 20 -4 48 -8 62 -9z m109 -795 c0 -4 21 -22 46 -40 75 -54 99 -81 89 -95 -39 -50 -95 -144 -95 -157 0 -20 -80 -182 -86 -176 -7 7 -14 75 -18 197 -3 63 -8 166 -11 229 l-7 114 41 -32 c23 -18 41 -36 41 -40z m251 -221 c9 -14 22 -43 29 -65 7 -22 30 -59 51 -82 22 -24 39 -47 39 -52 0 -5 14 -25 30 -43 38 -41 38 -48 -2 -49 -57 -3 -81 -2 -165 6 -83 8 -83 8 -76 34 3 14 14 43 25 64 22 45 20 80 -5 85 -27 5 -43 -13 -72 -86 -33 -81 -39 -115 -26 -140 10 -19 76 -24 323 -24 56 0 69 -3 88 -23 l22 -23 -29 -6 c-47 -9 -165 -18 -214 -17 -25 1 -79 -5 -120 -13 -80 -16 -106 -19 -156 -17 -28 1 -33 5 -33 27 0 34 36 119 75 174 17 25 44 81 60 125 48 139 114 192 156 125z m394 -369 l30 -7 -27 -7 c-14 -4 -32 -9 -40 -12 -7 -3 -19 4 -26 15 -11 18 -10 20 10 19 13 -1 37 -4 53 -8z"/>
</g>
</svg>
