<?xml version="1.0" standalone="no"?>
<!DOCTYPE svg PUBLIC "-//W3C//DTD SVG 20010904//EN" "http://www.w3.org/TR/2001/REC-SVG-20010904/DTD/svg10.dtd">
<svg xmlns="http://www.w3.org/2000/svg" version="1.0" width="360.000000pt" height="360.000000pt" viewBox="0 0 360.000000 360.000000" preserveAspectRatio="xMidYMid meet">

<g transform="translate(0.000000,360.000000) scale(0.100000,-0.100000)" fill="#000000" stroke="none">
<path d="M1840 3043 c-158 -58 -194 -111 -206 -301 -5 -92 -4 -113 11 -143 35 -68 86 -137 105 -142 16 -4 18 -12 15 -56 -5 -61 -19 -84 -103 -175 -63 -69 -73 -82 -173 -231 -30 -44 -59 -83 -64 -87 -6 -4 -22 -29 -35 -57 -23 -49 -23 -51 -5 -71 37 -41 80 -17 209 114 84 86 144 136 161 136 8 0 -3 -259 -12 -272 -2 -5 -6 -115 -7 -245 l-3 -235 -43 -49 c-23 -27 -50 -51 -60 -54 -42 -13 -24 -95 21 -95 11 0 34 15 51 34 27 30 33 33 45 21 12 -13 9 -21 -23 -59 -46 -55 -167 -130 -198 -122 -11 3 -45 24 -74 46 -29 22 -55 40 -58 40 -4 0 -31 23 -62 51 -31 28 -73 62 -93 74 -19 13 -42 29 -50 37 -22 20 -66 21 -81 1 -15 -20 -39 -36 -84 -57 -17 -7 -46 -28 -65 -45 -19 -17 -49 -44 -68 -60 -26 -22 -32 -33 -27 -49 13 -41 51 -26 139 54 68 61 114 78 172 63 37 -9 76 -37 186 -134 15 -13 39 -31 55 -41 16 -10 53 -36 83 -57 46 -34 56 -38 77 -28 13 6 24 15 24 20 0 5 24 26 53 48 60 46 222 207 231 229 3 9 1 25 -5 36 -8 15 -17 19 -38 15 -26 -6 -27 -4 -22 26 3 18 14 43 24 57 l17 25 25 -30 c14 -17 45 -55 68 -85 53 -70 57 -74 98 -102 70 -48 156 -113 210 -160 30 -26 61 -48 67 -48 6 0 62 26 124 59 62 32 128 62 146 66 18 4 45 13 60 21 15 8 41 17 59 20 38 7 58 27 49 50 -12 32 -148 1 -244 -54 -87 -51 -149 -75 -174 -69 -14 4 -45 25 -70 47 -26 22 -50 40 -55 40 -6 0 -18 9 -29 21 -10 12 -35 29 -54 39 -63 32 -190 183 -205 243 -10 39 -39 60 -75 55 l-32 -5 8 351 c8 396 8 359 0 409 -5 34 -3 37 20 37 55 0 308 300 404 478 14 26 37 68 53 93 39 66 35 94 -15 112 -22 8 -146 -58 -247 -129 -2 -2 -7 -18 -11 -36 l-8 -33 -2 40 c-1 22 -2 43 -1 48 1 4 -6 39 -15 77 -10 47 -29 90 -56 130 -35 53 -43 60 -71 59 -18 0 -39 -3 -47 -6z m85 -151 c23 -46 26 -67 27 -151 1 -82 -3 -106 -21 -144 -25 -52 -34 -60 -77 -75 -79 -26 -154 82 -154 221 0 117 44 190 130 214 46 12 63 2 95 -65z m274 -174 c-22 -40 -48 -82 -58 -93 -10 -11 -28 -37 -40 -58 -48 -79 -184 -231 -226 -251 -27 -14 -31 -13 -37 2 -4 9 -7 41 -7 70 -1 43 2 52 17 53 29 2 36 4 75 24 30 15 44 33 70 86 27 56 41 73 84 101 29 18 55 43 59 55 6 23 31 49 67 69 37 20 37 17 -4 -58z m-429 -545 l0 -58 -46 -20 c-29 -13 -74 -50 -125 -102 -43 -46 -79 -79 -79 -74 0 24 222 311 241 311 5 0 9 -26 9 -57z"/>
</g>
</svg>
