<?xml version="1.0" standalone="no"?>
<!DOCTYPE svg PUBLIC "-//W3C//DTD SVG 20010904//EN" "http://www.w3.org/TR/2001/REC-SVG-20010904/DTD/svg10.dtd">
<svg xmlns="http://www.w3.org/2000/svg" version="1.0" width="360.000000pt" height="360.000000pt" viewBox="0 0 360.000000 360.000000" preserveAspectRatio="xMidYMid meet">

<g transform="translate(0.000000,360.000000) scale(0.100000,-0.100000)" fill="#000000" stroke="none">
<path d="M582 2918 c-22 -22 -12 -42 46 -103 104 -107 155 -178 209 -294 l53 -114 -19 -41 c-29 -62 -34 -100 -21 -163 21 -102 76 -180 142 -202 29 -10 37 -21 65 -89 47 -114 51 -130 74 -296 23 -167 21 -326 -6 -470 -18 -91 -53 -320 -61 -391 -5 -44 -2 -55 25 -92 26 -36 37 -43 78 -49 26 -4 113 -2 193 5 226 19 227 19 370 31 129 10 416 8 490 -3 19 -3 91 -8 159 -12 121 -7 146 -9 203 -21 31 -6 55 -9 213 -24 61 -6 126 -12 145 -15 104 -14 108 -13 125 5 15 16 15 27 5 93 -6 41 -8 86 -5 100 8 32 -30 64 -53 45 -11 -10 -13 -29 -7 -94 6 -78 6 -82 -15 -89 -23 -7 -296 17 -445 40 -189 29 -536 43 -795 31 -141 -6 -338 -23 -350 -31 -5 -3 -61 -6 -122 -6 -106 -1 -114 1 -131 23 -17 20 -19 34 -14 103 3 45 10 110 16 145 5 36 15 103 21 150 6 47 16 108 21 135 15 83 17 244 3 345 -7 52 -13 120 -12 150 0 30 -9 99 -21 154 -27 124 -26 160 1 204 16 26 23 56 26 116 3 66 8 86 27 106 34 37 56 76 48 83 -12 13 -46 7 -66 -10 -19 -17 -21 -16 -61 27 -57 64 -106 88 -146 73 -26 -10 -32 -9 -37 4 -13 34 -135 238 -177 297 -50 70 -141 156 -165 156 -10 0 -22 -5 -29 -12z m500 -553 c34 -39 51 -110 43 -186 -4 -39 -10 -67 -14 -62 -4 4 -20 42 -36 83 -15 41 -41 101 -56 134 -34 69 -33 64 -11 68 21 5 50 -10 74 -37z m-95 -113 c23 -53 46 -110 51 -127 6 -16 13 -38 17 -47 9 -23 -11 -23 -53 -2 -39 19 -78 82 -92 151 -9 41 -8 58 4 87 8 20 19 36 23 36 4 0 27 -44 50 -98z m93 -271 c0 -5 3 -16 6 -25 9 -24 -9 -18 -29 9 -17 24 -17 25 3 25 11 0 20 -4 20 -9z"/>
</g>
</svg>
