<?xml version="1.0" standalone="no"?>
<!DOCTYPE svg PUBLIC "-//W3C//DTD SVG 20010904//EN" "http://www.w3.org/TR/2001/REC-SVG-20010904/DTD/svg10.dtd">
<svg xmlns="http://www.w3.org/2000/svg" version="1.0" width="360.000000pt" height="360.000000pt" viewBox="0 0 360.000000 360.000000" preserveAspectRatio="xMidYMid meet">

<g transform="translate(0.000000,360.000000) scale(0.100000,-0.100000)" fill="#000000" stroke="none">
<path d="M1531 3276 c-11 -13 -7 -27 24 -81 45 -81 89 -208 104 -301 38 -234 42 -278 29 -289 -7 -5 -21 -36 -31 -67 -32 -102 -3 -252 61 -326 31 -35 44 -43 81 -47 24 -2 44 -5 46 -7 6 -7 66 -264 71 -302 2 -22 9 -69 14 -102 22 -134 4 -452 -31 -554 -10 -30 -25 -84 -33 -120 -17 -74 -51 -161 -63 -159 -4 1 -34 -10 -66 -24 -61 -29 -97 -35 -362 -66 -267 -31 -289 -32 -361 -20 -38 7 -89 13 -114 14 -184 9 -454 63 -529 106 -32 19 -71 18 -71 -1 0 -14 -71 -47 -162 -76 -46 -14 -89 -31 -96 -36 -14 -12 -17 -68 -3 -68 14 0 201 69 251 93 54 26 66 25 200 -18 120 -39 188 -52 315 -60 50 -4 119 -11 155 -16 84 -11 426 -11 510 1 135 18 155 22 165 31 5 5 23 9 41 9 17 0 49 7 70 16 21 9 47 18 58 20 12 2 30 9 42 15 17 8 32 5 84 -20 36 -17 70 -29 77 -26 7 2 36 0 65 -5 28 -6 104 -13 167 -16 64 -3 148 -12 188 -20 40 -8 102 -14 138 -14 36 0 111 -7 168 -16 67 -10 192 -17 362 -19 143 -2 286 -7 318 -10 58 -5 97 5 97 27 0 15 59 176 76 210 18 33 18 52 -1 68 -21 18 -54 3 -61 -28 -8 -39 -64 -185 -77 -200 -7 -9 -23 -12 -46 -8 -20 2 -83 7 -141 10 -58 3 -139 9 -180 12 -41 4 -106 8 -145 10 -156 7 -245 16 -301 30 -32 9 -79 17 -104 20 -25 2 -92 13 -150 24 -58 11 -136 20 -175 21 -59 0 -193 12 -258 22 -10 2 -27 13 -38 24 -20 19 -20 22 -4 59 8 21 23 70 32 109 8 38 20 79 26 90 23 44 51 494 33 524 -3 4 -10 46 -16 93 -9 78 -30 170 -59 268 -19 63 -14 108 15 126 56 37 105 207 75 262 -10 18 -9 22 4 22 9 0 18 8 22 18 3 9 22 34 41 54 22 23 32 42 29 52 -9 24 -33 19 -84 -16 l-47 -31 -15 22 c-8 13 -31 34 -51 46 -32 20 -39 32 -58 102 -12 43 -27 101 -32 128 -15 71 -117 307 -141 328 -12 9 -30 17 -40 17 -12 0 -25 14 -36 38 -20 40 -51 53 -72 28z m207 -356 c12 -30 28 -86 36 -125 8 -38 17 -82 21 -97 4 -17 3 -28 -3 -28 -6 0 -17 -2 -25 -6 -11 -4 -15 9 -20 58 -3 35 -15 110 -25 166 -21 112 -18 118 16 32z m102 -443 c14 -77 19 -138 16 -179 -3 -33 -7 -63 -9 -65 -12 -12 -84 26 -103 55 -39 57 -47 187 -16 248 18 35 71 77 84 65 4 -3 16 -59 28 -124z m90 3 c17 -42 20 -65 14 -105 -11 -79 -22 -99 -24 -40 -1 28 -3 59 -5 70 -1 11 -5 40 -8 65 -4 25 -9 55 -13 65 -16 46 16 -3 36 -55z"/>
</g>
</svg>
