<?xml version="1.0" standalone="no"?>
<!DOCTYPE svg PUBLIC "-//W3C//DTD SVG 20010904//EN" "http://www.w3.org/TR/2001/REC-SVG-20010904/DTD/svg10.dtd">
<svg xmlns="http://www.w3.org/2000/svg" version="1.0" width="360.000000pt" height="360.000000pt" viewBox="0 0 360.000000 360.000000" preserveAspectRatio="xMidYMid meet">

<g transform="translate(0.000000,360.000000) scale(0.100000,-0.100000)" fill="#000000" stroke="none">
<path d="M1947 1931 c-50 -20 -85 -45 -132 -90 -60 -59 -64 -65 -72 -124 -7 -56 -10 -62 -30 -59 -13 2 -33 -7 -49 -21 -14 -13 -82 -57 -151 -97 -114 -65 -210 -130 -223 -150 -3 -4 -28 -23 -56 -41 -29 -19 -98 -74 -155 -124 -57 -49 -130 -110 -163 -135 -82 -62 -165 -120 -170 -120 -3 0 -21 -11 -40 -24 -19 -13 -72 -38 -118 -57 -61 -24 -96 -46 -131 -81 -59 -59 -63 -96 -16 -145 30 -33 30 -33 127 -33 53 0 133 7 177 14 44 8 123 17 175 20 107 7 239 23 455 56 99 14 207 4 308 -30 108 -37 132 -37 132 4 0 27 -4 30 -63 47 -35 10 -76 26 -90 36 -40 27 -81 43 -111 43 -14 0 -33 5 -41 11 -11 7 6 8 55 4 39 -3 297 -8 575 -10 587 -5 703 -9 786 -29 96 -24 114 -26 141 -15 24 9 25 11 9 27 -12 14 -16 38 -15 100 0 45 4 84 8 86 4 3 8 21 9 41 2 20 13 60 26 88 29 66 21 100 -21 95 -17 -2 -32 -12 -38 -25 -12 -28 -21 -29 -28 -2 -3 11 -11 19 -19 18 -25 -5 -179 28 -308 66 -25 7 -70 18 -100 25 -30 7 -82 21 -115 30 -124 38 -201 58 -235 64 -19 3 -48 13 -64 21 -15 8 -36 15 -46 15 -10 0 -55 11 -101 24 -46 13 -129 33 -184 46 -116 26 -155 39 -155 51 0 5 21 19 46 30 l45 22 42 -41 c35 -34 52 -42 105 -52 75 -13 125 -6 174 26 l37 24 35 -30 c18 -17 38 -30 44 -30 11 0 25 30 14 30 -4 0 -15 11 -24 24 -16 23 -16 25 13 64 26 35 30 51 31 104 2 127 -19 184 -77 213 -63 31 -147 29 -228 -4z m167 -51 c66 -25 80 -72 47 -159 -41 -108 -95 -146 -200 -140 -86 6 -139 52 -125 111 11 51 38 86 102 134 81 60 125 74 176 54z m-408 -418 c44 -22 105 -48 135 -58 30 -9 78 -28 108 -41 29 -13 81 -33 115 -45 33 -11 106 -40 161 -63 55 -23 138 -54 185 -69 47 -15 89 -32 95 -37 5 -5 19 -9 30 -9 35 0 175 -45 255 -83 41 -19 80 -36 85 -38 6 -2 28 -15 51 -28 40 -24 41 -26 36 -70 -2 -25 -7 -49 -11 -52 -3 -4 -35 -3 -71 2 -36 5 -334 11 -663 14 -329 2 -601 6 -606 9 -4 3 -79 8 -167 11 -152 7 -205 12 -339 34 -33 6 -89 13 -124 16 -35 3 -67 8 -72 10 -7 5 121 133 246 246 84 75 215 173 358 266 70 46 83 51 96 39 9 -8 52 -32 97 -54z m618 -156 c19 -8 55 -17 81 -21 27 -3 62 -12 80 -19 18 -8 52 -17 76 -21 24 -3 71 -16 104 -27 33 -12 120 -38 193 -59 73 -20 136 -39 139 -42 11 -11 -8 -57 -23 -57 -8 0 -28 7 -44 15 -16 8 -62 26 -102 39 -195 65 -283 97 -304 111 -13 8 -31 15 -41 15 -32 0 -250 79 -220 80 15 0 43 -6 61 -14z m-1403 -412 c24 -3 64 -7 89 -10 24 -2 66 -11 92 -19 27 -8 122 -17 217 -21 94 -4 168 -11 165 -15 -3 -5 -22 -9 -42 -9 -20 -1 -77 -12 -127 -26 -49 -14 -133 -30 -185 -35 -94 -9 -142 -15 -210 -24 -19 -3 -107 -12 -194 -21 -131 -12 -161 -13 -167 -2 -12 19 -11 22 12 38 12 8 37 27 57 43 19 15 39 27 45 27 6 0 32 14 58 31 27 17 53 28 58 24 6 -3 20 4 31 15 13 13 28 19 39 15 10 -3 38 -8 62 -11z"/>
</g>
</svg>
