<?xml version="1.0" standalone="no"?>
<!DOCTYPE svg PUBLIC "-//W3C//DTD SVG 20010904//EN" "http://www.w3.org/TR/2001/REC-SVG-20010904/DTD/svg10.dtd">
<svg xmlns="http://www.w3.org/2000/svg" version="1.0" width="360.000000pt" height="360.000000pt" viewBox="0 0 360.000000 360.000000" preserveAspectRatio="xMidYMid meet">

<g transform="translate(0.000000,360.000000) scale(0.100000,-0.100000)" fill="#000000" stroke="none">
<path d="M972 2450 c-53 -22 -111 -74 -126 -111 -39 -97 -1 -244 91 -347 33 -37 44 -43 81 -45 27 -1 42 -6 42 -14 0 -18 17 -47 73 -121 26 -36 61 -90 76 -121 16 -31 45 -81 65 -111 57 -87 170 -316 204 -415 16 -49 47 -135 67 -190 64 -175 86 -239 99 -293 14 -54 37 -81 69 -82 9 0 17 6 17 14 0 8 9 18 20 21 15 5 44 54 95 160 71 147 84 176 125 290 10 28 31 79 48 115 16 36 41 97 56 136 40 106 74 147 146 174 33 13 86 38 117 56 30 19 59 34 64 34 5 0 32 15 61 34 74 46 244 131 307 151 68 23 93 54 79 98 -5 18 -17 59 -25 91 -8 33 -18 67 -23 76 -4 8 -11 44 -13 79 -3 34 -8 65 -11 68 -9 9 -47 -29 -58 -57 -6 -17 -5 -39 3 -69 12 -41 11 -44 -11 -61 -33 -25 -218 -115 -265 -130 -22 -6 -54 -18 -72 -26 -17 -8 -34 -14 -37 -14 -4 0 -36 -14 -71 -30 -36 -17 -104 -40 -151 -51 -48 -11 -108 -29 -134 -39 -57 -22 -162 -21 -300 5 -52 9 -104 18 -116 20 -11 2 -47 8 -80 15 -32 7 -63 13 -69 14 -72 15 -132 29 -140 34 -5 4 -12 7 -15 8 -83 15 -88 20 -105 99 -4 17 -13 37 -21 46 -12 13 -10 19 14 45 42 47 63 101 63 164 1 56 1 58 40 80 22 12 38 27 36 33 -2 7 -27 13 -55 15 -51 3 -53 4 -77 52 -38 76 -126 124 -183 100z m60 -128 c10 -8 27 -12 38 -9 44 11 93 -149 63 -208 -23 -46 -64 -85 -90 -85 -13 0 -41 16 -62 36 -47 42 -74 112 -75 197 -1 48 3 61 19 70 46 27 75 27 107 -1z m1732 -424 c6 -26 2 -29 -81 -69 -49 -24 -105 -53 -126 -66 -73 -45 -327 -172 -369 -184 -93 -27 -131 -77 -188 -251 -17 -51 -39 -106 -49 -123 -9 -16 -25 -52 -35 -80 -10 -27 -29 -74 -42 -103 -13 -29 -24 -56 -24 -59 0 -16 -123 -253 -131 -253 -5 0 -9 2 -9 4 0 2 -18 54 -41 117 -23 63 -52 143 -64 179 -86 243 -110 302 -170 420 -36 73 -81 153 -99 179 -38 54 -69 111 -64 117 2 2 28 -4 58 -12 30 -8 66 -17 80 -19 23 -3 62 -10 273 -51 45 -9 116 -20 159 -25 71 -9 80 -8 135 16 32 15 101 40 153 57 52 16 145 52 207 79 61 27 140 58 175 70 35 11 101 40 148 63 88 44 92 43 104 -6z"/>
</g>
</svg>
