<?xml version="1.0" standalone="no"?>
<!DOCTYPE svg PUBLIC "-//W3C//DTD SVG 20010904//EN" "http://www.w3.org/TR/2001/REC-SVG-20010904/DTD/svg10.dtd">
<svg xmlns="http://www.w3.org/2000/svg" version="1.0" width="360.000000pt" height="360.000000pt" viewBox="0 0 360.000000 360.000000" preserveAspectRatio="xMidYMid meet">

<g transform="translate(0.000000,360.000000) scale(0.100000,-0.100000)" fill="#000000" stroke="none">
<path d="M2110 2727 c0 -39 37 -147 67 -197 26 -43 27 -51 28 -185 0 -77 -5 -223 -12 -325 -7 -102 -14 -240 -14 -307 l-2 -123 -61 -50 c-134 -109 -159 -128 -184 -140 -44 -20 -48 -23 -127 -78 -42 -28 -78 -52 -82 -52 -3 0 -35 -20 -72 -43 -183 -120 -251 -160 -375 -221 -74 -36 -79 -37 -95 -21 -14 15 -14 18 -1 23 8 3 29 20 46 38 39 41 59 115 51 195 l-5 59 31 8 c27 7 32 13 30 37 -3 38 -8 41 -47 22 -34 -16 -34 -16 -57 15 -36 47 -96 87 -122 81 -52 -12 -109 -45 -127 -76 -46 -75 -55 -195 -20 -273 28 -64 45 -82 106 -109 39 -17 58 -34 81 -71 50 -81 158 -181 238 -219 127 -60 211 -73 505 -79 265 -5 393 19 464 89 58 56 70 111 41 185 -28 73 -47 139 -75 265 -16 72 -38 168 -49 215 -11 47 -21 111 -23 143 -3 55 -2 58 34 90 34 30 36 35 24 53 -14 19 -15 19 -38 -3 -14 -13 -27 -23 -30 -23 -5 0 -4 73 6 280 3 58 8 159 11 225 3 66 8 168 11 226 4 86 2 108 -10 118 -21 17 -65 105 -92 181 -24 67 -54 94 -54 47z m105 -1337 c46 -234 85 -410 100 -450 9 -25 19 -62 21 -82 2 -33 -2 -43 -41 -81 -62 -63 -125 -73 -425 -70 -278 2 -343 13 -475 81 -33 17 -125 92 -125 101 0 3 35 23 78 44 42 20 124 71 182 113 58 41 130 92 160 112 30 20 88 61 128 92 40 30 101 75 136 100 98 69 214 159 223 173 8 14 14 -5 38 -133z m-1061 -19 c31 -27 49 -70 36 -86 -8 -10 -7 -16 7 -24 15 -8 18 -22 17 -71 -2 -75 -25 -112 -75 -120 -54 -9 -85 9 -115 63 -24 45 -26 56 -20 121 6 67 8 73 47 109 44 40 65 41 103 8z m96 -425 c0 -3 -4 -8 -10 -11 -5 -3 -10 -1 -10 4 0 6 5 11 10 11 6 0 10 -2 10 -4z"/>
</g>
</svg>
