<?xml version="1.0" standalone="no"?>
<!DOCTYPE svg PUBLIC "-//W3C//DTD SVG 20010904//EN" "http://www.w3.org/TR/2001/REC-SVG-20010904/DTD/svg10.dtd">
<svg xmlns="http://www.w3.org/2000/svg" version="1.0" width="360.000000pt" height="360.000000pt" viewBox="0 0 360.000000 360.000000" preserveAspectRatio="xMidYMid meet">

<g transform="translate(0.000000,360.000000) scale(0.100000,-0.100000)" fill="#000000" stroke="none">
<path d="M592 2275 c-17 -14 -39 -25 -49 -25 -19 0 -29 -14 -50 -69 -10 -26 0 -101 24 -169 16 -45 78 -122 98 -122 7 0 23 -11 36 -24 40 -39 108 -69 146 -63 18 3 31 2 28 -2 -4 -8 38 -44 145 -124 31 -23 45 -40 45 -57 0 -16 7 -24 23 -26 55 -9 342 -277 534 -500 43 -49 105 -118 138 -154 33 -36 60 -69 60 -73 0 -5 23 -32 50 -62 41 -43 59 -54 94 -59 72 -11 89 0 211 139 39 43 93 104 121 135 60 66 186 217 235 280 55 73 201 250 242 294 21 23 71 78 110 123 53 62 80 84 103 89 44 8 104 60 104 89 0 13 -3 26 -7 29 -10 5 -8 205 2 262 8 49 -5 63 -40 40 -36 -24 -48 -76 -41 -175 l7 -86 -38 -45 c-21 -25 -64 -73 -97 -107 -32 -35 -72 -81 -88 -103 -17 -22 -43 -54 -59 -70 -23 -22 -29 -25 -29 -11 0 41 -49 54 -77 21 -10 -11 -25 -20 -34 -20 -9 0 -22 -6 -28 -14 -17 -20 -253 -11 -351 14 -19 5 -127 12 -239 15 -113 3 -207 8 -210 9 -3 2 -105 7 -226 10 -121 3 -247 9 -280 12 -33 3 -81 6 -108 8 -35 2 -54 9 -75 28 -40 38 -133 90 -161 90 -24 0 -24 1 -6 14 10 8 24 14 30 14 6 0 23 19 39 43 27 40 28 46 23 140 l-4 98 43 -7 c36 -5 44 -3 53 14 30 55 -12 86 -81 59 l-41 -17 -44 44 c-91 93 -218 124 -281 71z m157 -72 c53 -24 119 -96 127 -138 12 -67 -2 -127 -40 -162 -30 -28 -38 -30 -69 -23 -57 12 -141 77 -178 136 -10 18 -23 53 -28 79 -9 46 -8 48 28 85 49 52 85 57 160 23z m838 -608 c122 -3 235 -7 250 -10 15 -2 95 -7 177 -10 82 -3 168 -10 190 -15 23 -4 75 -11 116 -15 41 -3 102 -10 135 -16 33 -6 70 -11 83 -12 12 -1 22 -4 22 -7 0 -3 -24 -35 -52 -71 -29 -36 -80 -99 -113 -140 -33 -40 -73 -90 -91 -109 -132 -149 -234 -259 -264 -285 -19 -16 -42 -38 -51 -47 -29 -28 -60 -41 -71 -30 -6 6 -16 8 -22 6 -7 -3 -22 12 -33 33 -12 21 -58 76 -103 123 -45 47 -109 117 -143 155 -80 91 -313 324 -402 403 l-70 62 110 -5 c61 -3 210 -7 332 -10z"/>
</g>
</svg>
