<?xml version="1.0" standalone="no"?>
<!DOCTYPE svg PUBLIC "-//W3C//DTD SVG 20010904//EN" "http://www.w3.org/TR/2001/REC-SVG-20010904/DTD/svg10.dtd">
<svg xmlns="http://www.w3.org/2000/svg" version="1.0" width="360.000000pt" height="360.000000pt" viewBox="0 0 360.000000 360.000000" preserveAspectRatio="xMidYMid meet">

<g transform="translate(0.000000,360.000000) scale(0.100000,-0.100000)" fill="#000000" stroke="none">
<path d="M996 2381 c-19 -21 -102 -60 -151 -71 -18 -4 -29 -12 -27 -20 2 -7 -3 -17 -10 -21 -29 -18 111 5 158 26 58 26 75 21 101 -28 15 -29 75 -245 110 -397 8 -36 32 -123 53 -195 21 -71 43 -152 50 -180 7 -27 43 -144 80 -260 37 -115 70 -222 73 -236 l7 -26 -153 -16 c-83 -9 -206 -19 -272 -22 -66 -4 -149 -10 -185 -14 -36 -5 -81 -7 -100 -5 -19 2 -75 6 -125 8 -106 5 -173 15 -181 27 -3 5 -13 9 -24 9 -11 0 -22 11 -28 28 -9 26 -7 31 24 56 43 34 81 93 89 139 6 28 14 38 38 47 76 28 86 47 30 56 l-39 6 -11 63 c-15 86 -52 135 -101 135 -20 0 -51 5 -69 12 -29 11 -39 10 -69 -7 -43 -23 -90 -69 -112 -110 -23 -45 -21 -149 4 -205 25 -54 109 -150 132 -150 12 0 17 -9 18 -33 1 -43 56 -157 97 -199 18 -18 40 -42 48 -54 21 -31 96 -82 132 -89 18 -4 37 -11 42 -14 24 -17 98 -30 210 -36 223 -13 290 -13 445 -4 189 11 205 13 255 26 54 15 131 32 180 39 22 3 48 10 57 15 9 5 29 9 45 9 15 0 49 6 74 14 25 8 81 17 125 20 121 10 166 16 206 27 20 5 49 9 65 9 15 0 53 3 83 8 31 5 90 5 135 1 86 -10 320 -28 345 -27 8 0 89 -3 180 -7 91 -5 183 -8 206 -6 23 1 54 -3 69 -9 43 -16 71 8 90 78 9 31 26 85 38 119 17 49 19 65 10 74 -21 21 -60 -4 -68 -43 -4 -18 -16 -47 -26 -64 -10 -17 -19 -41 -19 -53 0 -19 -35 -44 -50 -36 -3 2 -134 7 -290 10 -157 4 -294 9 -305 12 -99 22 -298 33 -365 20 -112 -23 -143 -27 -299 -42 -24 -2 -65 -9 -90 -14 -44 -10 -96 -20 -206 -42 -27 -5 -73 -12 -102 -15 -49 -6 -52 -5 -57 17 -13 59 -12 62 24 72 44 11 44 11 30 36 -7 13 -25 23 -50 27 -51 8 -52 31 -2 39 57 10 62 13 62 35 0 26 -20 34 -86 34 l-51 0 -32 110 c-18 61 -36 127 -41 146 -5 19 -14 36 -20 38 -5 2 -8 8 -4 13 3 5 -6 40 -19 77 -14 37 -33 101 -42 142 -10 41 -30 116 -46 165 -15 50 -35 122 -44 160 -32 145 -44 194 -77 320 -38 141 -54 179 -90 211 -35 33 -62 37 -82 15z m-652 -966 c8 -8 22 -12 31 -9 26 10 67 -43 67 -85 -2 -58 -20 -138 -42 -181 -18 -36 -24 -40 -58 -40 -65 0 -128 85 -139 187 -5 41 -2 58 16 86 32 53 93 73 125 42z m1120 -521 c4 -9 5 -18 4 -20 -2 -1 -41 -3 -88 -4 -223 -4 -296 4 -158 16 36 3 88 9 115 14 83 13 120 12 127 -6z m-327 -87 c346 -2 353 -2 353 -22 0 -11 7 -33 15 -49 18 -34 11 -50 -20 -42 -13 3 -26 2 -29 -2 -15 -25 -377 -35 -599 -16 -172 14 -238 32 -313 86 -74 53 -63 58 111 51 72 -3 289 -6 482 -6z"/>
</g>
</svg>
