<?xml version="1.0" standalone="no"?>
<!DOCTYPE svg PUBLIC "-//W3C//DTD SVG 20010904//EN" "http://www.w3.org/TR/2001/REC-SVG-20010904/DTD/svg10.dtd">
<svg xmlns="http://www.w3.org/2000/svg" version="1.0" width="360.000000pt" height="360.000000pt" viewBox="0 0 360.000000 360.000000" preserveAspectRatio="xMidYMid meet">

<g transform="translate(0.000000,360.000000) scale(0.100000,-0.100000)" fill="#000000" stroke="none">
<path d="M2305 1764 c-13 -14 -16 -32 -13 -92 l3 -76 -35 -7 c-33 -6 -84 -10 -340 -25 -58 -3 -132 -13 -165 -21 -33 -9 -79 -18 -102 -20 -65 -8 -73 -27 -56 -143 8 -52 22 -143 33 -201 24 -130 24 -310 -1 -334 -26 -26 -268 -62 -424 -63 -66 -1 -129 -4 -140 -8 -10 -4 -99 2 -197 14 -201 25 -264 47 -329 114 -24 25 -44 37 -59 36 -12 -2 -25 4 -29 12 -4 8 -15 30 -24 48 -13 25 -13 32 -3 32 23 0 75 67 86 112 6 24 13 50 16 58 3 8 24 24 47 36 27 13 43 28 45 42 3 20 -1 22 -47 22 -40 0 -49 3 -45 14 13 34 -63 139 -123 170 -41 21 -55 20 -109 -4 -75 -35 -114 -118 -114 -246 0 -81 20 -149 53 -179 29 -26 72 -45 102 -45 26 0 58 -38 53 -62 -5 -24 33 -66 95 -106 126 -80 175 -102 298 -132 68 -17 132 -35 141 -41 10 -5 27 -9 37 -9 11 0 22 -4 25 -9 3 -5 43 -21 88 -35 46 -15 96 -34 111 -42 26 -15 34 -14 100 6 171 53 264 84 297 100 41 20 93 31 173 35 42 3 63 9 71 21 19 25 9 50 -25 64 -27 12 -32 33 -6 28 7 -1 26 5 42 14 40 20 151 58 173 58 9 0 67 18 128 39 62 22 124 38 140 36 16 -2 54 5 84 14 42 14 70 16 120 10 225 -25 404 -42 465 -44 39 -2 167 -6 285 -10 242 -9 241 -9 255 61 3 21 21 60 39 88 18 28 30 58 28 66 -6 17 -22 30 -38 30 -15 0 -74 -96 -81 -132 -3 -16 -15 -34 -26 -40 -31 -16 -380 -4 -752 27 -83 7 -139 21 -172 42 -20 13 -26 14 -45 1 -28 -18 -80 -35 -132 -43 -51 -7 -386 -104 -504 -144 -48 -17 -53 -18 -61 -2 -13 26 -20 61 -26 151 -4 47 -16 130 -26 185 -25 128 -34 215 -23 215 5 0 41 9 81 20 67 17 219 31 492 45 68 3 107 9 113 17 9 16 10 148 0 202 -8 45 -22 54 -47 30z m-1888 -379 c22 -24 40 -51 41 -60 13 -151 -8 -216 -78 -235 -55 -15 -101 6 -125 56 -14 29 -16 53 -12 108 6 83 28 136 66 159 43 27 66 21 108 -28z m1117 -644 c7 -10 -231 -91 -272 -93 -34 0 -164 31 -176 43 -6 5 12 10 45 11 121 3 176 8 217 18 24 6 46 8 50 6 4 -2 30 2 57 9 61 17 72 17 79 6z"/>
</g>
</svg>
