<?xml version="1.0" standalone="no"?>
<!DOCTYPE svg PUBLIC "-//W3C//DTD SVG 20010904//EN" "http://www.w3.org/TR/2001/REC-SVG-20010904/DTD/svg10.dtd">
<svg xmlns="http://www.w3.org/2000/svg" version="1.0" width="360.000000pt" height="360.000000pt" viewBox="0 0 360.000000 360.000000" preserveAspectRatio="xMidYMid meet">

<g transform="translate(0.000000,360.000000) scale(0.100000,-0.100000)" fill="#000000" stroke="none">
<path d="M1785 2755 c-52 -22 -108 -86 -129 -144 -21 -60 -28 -185 -13 -243 13 -47 97 -136 137 -145 21 -4 27 -9 21 -17 -5 -6 -7 -48 -5 -93 l4 -83 -57 0 c-51 0 -87 -7 -148 -30 -11 -4 -40 -13 -65 -20 -82 -23 -115 -34 -124 -42 -6 -4 -20 -8 -32 -8 -13 0 -26 -4 -29 -10 -3 -5 -14 -10 -24 -10 -43 0 -151 -72 -151 -101 0 -9 14 -27 30 -39 27 -19 39 -21 108 -15 42 3 156 8 253 11 198 5 204 3 212 -69 2 -21 11 -45 20 -55 12 -14 16 -47 17 -172 1 -85 2 -202 3 -258 1 -60 -2 -107 -8 -111 -5 -4 -30 -14 -55 -21 -25 -7 -62 -22 -83 -32 -21 -10 -42 -16 -46 -13 -5 2 -22 -2 -37 -10 -16 -8 -34 -15 -41 -15 -7 0 -37 -11 -67 -25 -30 -14 -62 -25 -70 -25 -13 0 -92 -34 -168 -71 -10 -5 -26 -9 -37 -9 -10 0 -24 -6 -30 -14 -6 -8 -44 -31 -84 -51 -105 -54 -137 -87 -118 -123 16 -31 140 -57 155 -33 3 5 23 12 43 15 124 21 166 27 233 32 41 3 79 10 85 15 5 5 20 9 33 9 l24 0 -26 -31 c-56 -67 10 -67 85 0 50 45 59 49 119 55 36 3 84 9 107 12 37 5 49 2 90 -25 25 -17 52 -31 59 -31 8 0 29 -9 49 -20 62 -35 117 -20 79 21 -9 10 -15 21 -13 24 3 2 30 0 60 -6 29 -6 119 -15 199 -20 80 -5 187 -11 238 -15 76 -5 97 -3 117 10 58 38 7 116 -100 155 -33 12 -69 26 -80 31 -11 5 -38 14 -60 21 -22 6 -60 19 -85 28 -25 8 -54 16 -65 17 -11 1 -44 11 -74 23 -30 11 -58 18 -62 15 -5 -2 -16 0 -26 6 -27 15 -71 32 -118 45 -16 4 -37 14 -45 21 -8 7 -19 13 -25 14 -5 1 -29 10 -52 21 l-42 19 -3 217 c-4 268 0 403 13 403 5 0 9 -22 9 -49 0 -58 10 -67 50 -49 34 15 35 18 15 73 -8 22 -14 45 -15 51 0 9 41 12 230 11 222 0 329 23 345 74 8 25 -19 59 -47 59 -10 0 -26 4 -36 10 -37 20 -138 50 -242 70 -81 16 -105 21 -125 30 -34 14 -101 30 -124 30 -12 0 -29 4 -39 9 -9 5 -24 12 -33 14 -11 4 -18 21 -22 54 -3 26 -7 57 -9 68 -3 17 4 21 48 25 106 11 163 91 166 233 2 71 -2 90 -26 142 -37 81 -97 142 -160 160 -27 8 -50 15 -50 14 -1 0 -15 -7 -31 -14z m105 -94 c82 -38 129 -228 78 -315 -31 -53 -70 -74 -139 -75 -50 -1 -58 2 -85 32 -50 53 -76 101 -61 116 6 6 12 31 13 54 2 118 76 230 139 210 11 -3 36 -13 55 -22z m-86 -723 c7 -45 6 -47 -21 -50 -22 -2 -28 -8 -28 -28 l0 -25 -179 -3 c-99 -1 -184 -6 -190 -11 -6 -5 -37 -12 -68 -16 -99 -12 -64 27 58 66 38 12 74 26 80 31 7 5 16 8 20 7 5 -2 36 6 69 16 33 10 65 20 70 21 6 1 32 10 60 19 27 10 60 18 72 20 13 1 27 5 30 9 11 11 20 -7 27 -56z m222 27 c27 -10 67 -17 89 -17 22 0 57 -9 78 -20 20 -10 54 -20 75 -22 20 -2 53 -10 72 -19 19 -9 43 -18 53 -21 10 -3 15 -11 12 -16 -4 -7 -48 -10 -113 -9 -59 1 -146 -1 -193 -6 -61 -5 -88 -4 -93 4 -4 6 -22 11 -41 11 -22 0 -39 7 -47 19 -7 10 -22 20 -33 22 -14 3 -21 14 -23 38 -2 18 -1 39 2 46 6 18 98 12 162 -10z m-146 -922 c14 -6 48 -21 75 -33 28 -12 60 -26 73 -31 12 -5 32 -13 45 -18 12 -5 40 -15 62 -22 22 -6 48 -15 57 -20 10 -5 26 -9 35 -9 21 0 89 -23 99 -33 4 -4 20 -7 35 -7 15 0 31 -4 34 -10 3 -5 15 -10 26 -10 10 0 27 -4 37 -9 9 -5 35 -14 57 -20 22 -7 50 -17 63 -22 99 -41 87 -53 -39 -39 -52 7 -148 15 -214 20 -146 11 -245 25 -305 44 -25 8 -99 22 -165 31 -66 8 -135 18 -153 21 -30 6 -37 2 -68 -34 -30 -35 -41 -41 -86 -46 -29 -3 -87 -10 -128 -16 -41 -6 -109 -15 -150 -19 -88 -11 -128 -20 -136 -32 -3 -5 -21 -9 -40 -9 -19 0 -33 4 -30 9 8 13 115 68 251 131 39 18 78 36 87 41 10 5 25 9 33 9 8 0 23 4 33 9 29 15 66 29 102 40 89 27 138 44 170 58 74 32 101 42 110 39 3 -1 16 -7 30 -13z"/>
</g>
</svg>
