<?xml version="1.0" standalone="no"?>
<!DOCTYPE svg PUBLIC "-//W3C//DTD SVG 20010904//EN" "http://www.w3.org/TR/2001/REC-SVG-20010904/DTD/svg10.dtd">
<svg xmlns="http://www.w3.org/2000/svg" version="1.0" width="360.000000pt" height="360.000000pt" viewBox="0 0 360.000000 360.000000" preserveAspectRatio="xMidYMid meet">

<g transform="translate(0.000000,360.000000) scale(0.100000,-0.100000)" fill="#000000" stroke="none">
<path d="M1793 2320 c-60 -54 -95 -154 -96 -270 0 -115 34 -176 124 -217 47 -22 51 -49 8 -58 -17 -4 -33 -14 -36 -23 -3 -10 -51 -109 -106 -221 -100 -200 -103 -205 -191 -292 -49 -49 -108 -100 -131 -114 -96 -61 -71 -100 29 -45 33 19 100 67 147 107 76 66 90 83 124 156 21 45 72 151 114 236 90 182 86 186 90 -99 1 -107 4 -205 8 -217 10 -42 -4 -71 -39 -78 -17 -4 -51 -18 -76 -31 -25 -13 -53 -24 -63 -24 -10 0 -65 -15 -121 -33 -102 -33 -218 -70 -228 -72 -29 -6 -89 -31 -102 -43 -21 -18 -24 -55 -6 -70 7 -5 78 -19 158 -31 168 -25 270 -48 228 -51 -16 -2 -32 -4 -38 -5 -5 -1 -17 -3 -25 -4 -19 -1 -75 -115 -75 -152 0 -39 25 -48 50 -18 10 13 19 29 20 36 0 27 62 72 126 93 85 27 145 27 212 1 29 -12 60 -21 70 -21 9 0 35 -5 57 -11 38 -11 39 -12 18 -22 -14 -6 -23 -19 -23 -33 0 -31 16 -38 42 -20 12 9 37 16 55 16 17 0 34 4 37 9 3 4 19 11 36 14 21 5 30 12 30 26 0 25 -27 52 -45 45 -8 -3 -29 -1 -47 4 -18 6 -68 18 -111 28 -77 17 -107 33 -68 35 12 1 24 2 29 3 4 1 32 6 62 10 30 4 93 15 140 23 47 9 128 18 180 20 52 3 99 9 104 14 6 5 21 9 34 9 34 0 62 18 62 39 0 24 -33 61 -54 61 -10 0 -26 4 -36 10 -10 5 -36 13 -57 16 -21 3 -56 12 -78 19 -22 8 -58 17 -80 21 -22 4 -53 13 -69 21 -16 9 -66 24 -110 34 -95 23 -158 48 -150 61 8 12 6 271 -1 383 l-6 80 20 -35 c11 -19 30 -64 42 -100 37 -114 134 -305 177 -349 43 -44 213 -123 230 -107 8 8 -55 68 -146 139 -56 43 -86 82 -139 180 -6 12 -21 49 -33 82 -12 33 -37 94 -56 135 -19 42 -34 83 -34 91 0 23 -29 59 -48 59 -33 0 -23 36 13 49 117 42 164 265 85 405 -43 75 -75 107 -119 117 -60 14 -85 10 -118 -21z m96 -46 c15 10 50 -24 81 -79 60 -105 48 -253 -24 -300 -37 -24 -106 -13 -145 24 -68 64 -62 228 13 327 25 34 34 40 49 33 9 -6 21 -8 26 -5z m101 -1162 c36 -11 81 -24 100 -27 19 -4 40 -11 45 -15 9 -6 157 -47 196 -54 20 -3 92 -28 104 -35 6 -3 -30 -9 -80 -12 -110 -8 -208 -22 -385 -57 -74 -14 -153 -26 -175 -25 -58 1 -154 13 -200 24 -22 6 -78 17 -125 25 -47 9 -92 18 -100 20 -18 7 74 44 106 44 11 0 35 7 52 15 33 17 115 40 175 49 20 3 55 17 77 31 23 14 54 28 70 32 17 3 33 9 36 14 3 5 13 5 22 0 9 -5 46 -18 82 -29z"/>
</g>
</svg>
