<?xml version="1.0" standalone="no"?>
<!DOCTYPE svg PUBLIC "-//W3C//DTD SVG 20010904//EN" "http://www.w3.org/TR/2001/REC-SVG-20010904/DTD/svg10.dtd">
<svg xmlns="http://www.w3.org/2000/svg" version="1.0" width="360.000000pt" height="360.000000pt" viewBox="0 0 360.000000 360.000000" preserveAspectRatio="xMidYMid meet">

<g transform="translate(0.000000,360.000000) scale(0.100000,-0.100000)" fill="#000000" stroke="none">
<path d="M1515 1330 c-89 -7 -167 -26 -265 -66 -36 -14 -80 -30 -98 -36 -39 -11 -121 -59 -183 -107 -52 -41 -111 -114 -141 -176 -22 -44 -22 -46 -5 -78 26 -47 68 -69 130 -68 116 2 381 33 492 57 38 8 95 20 125 26 31 7 147 12 265 12 235 1 218 6 281 -79 16 -21 37 -47 47 -57 9 -10 17 -22 17 -26 0 -5 18 -9 39 -10 37 -2 110 21 213 68 l47 21 93 -27 c51 -14 97 -30 103 -35 15 -15 45 -10 67 10 20 20 21 41 3 98 -6 19 -2 23 28 28 20 4 38 12 40 19 8 20 -47 76 -69 70 -14 -3 -24 4 -36 26 -34 60 -101 21 -68 -40 15 -28 9 -33 -68 -59 -50 -17 -76 -20 -130 -15 -76 6 -88 13 -73 42 20 38 23 111 6 170 -20 69 -74 126 -159 167 -49 24 -63 26 -113 20 -32 -4 -64 -12 -71 -17 -9 -8 -19 -8 -35 0 -62 30 -267 73 -342 70 -33 -1 -96 -4 -140 -8z m298 -77 l67 -16 35 -66 c19 -35 40 -81 46 -100 6 -20 20 -51 31 -69 11 -18 18 -35 16 -37 -2 -2 -42 -1 -88 3 -98 8 -263 -3 -335 -23 -81 -22 -314 -63 -395 -69 -41 -3 -114 -9 -162 -12 -72 -6 -91 -4 -113 10 -32 21 -32 46 0 76 14 13 24 28 23 34 -6 30 63 94 166 154 39 23 176 79 251 102 125 40 322 45 458 13z m287 -78 c29 34 137 3 180 -52 49 -63 46 -166 -6 -179 -44 -11 -113 4 -151 33 -53 41 -93 108 -93 158 0 51 7 59 36 40 19 -12 24 -12 34 0z m178 -331 c55 -7 64 -17 33 -34 -34 -17 -66 -11 -101 21 -33 28 -33 30 -10 25 14 -3 49 -9 78 -12z m402 1 c0 -8 -9 -15 -19 -15 -24 0 -36 16 -19 23 24 10 38 7 38 -8z"/>
</g>
</svg>
