<?xml version="1.0" standalone="no"?>
<!DOCTYPE svg PUBLIC "-//W3C//DTD SVG 20010904//EN" "http://www.w3.org/TR/2001/REC-SVG-20010904/DTD/svg10.dtd">
<svg xmlns="http://www.w3.org/2000/svg" version="1.0" width="360.000000pt" height="360.000000pt" viewBox="0 0 360.000000 360.000000" preserveAspectRatio="xMidYMid meet">

<g transform="translate(0.000000,360.000000) scale(0.100000,-0.100000)" fill="#000000" stroke="none">
<path d="M1693 2522 c-51 -8 -113 -106 -132 -204 -22 -123 23 -247 114 -309 32 -23 33 -25 28 -74 -3 -27 -12 -54 -19 -58 -8 -4 -22 -27 -33 -50 -29 -65 -101 -257 -115 -307 -7 -25 -18 -55 -23 -65 -6 -11 -15 -42 -22 -69 -15 -62 -82 -195 -132 -263 -30 -40 -46 -53 -65 -53 -41 0 -66 -18 -62 -46 2 -16 -11 -41 -40 -79 -39 -50 -46 -75 -22 -75 5 0 40 27 77 61 67 60 98 79 131 79 21 -1 -45 -60 -66 -60 -38 0 -232 -188 -232 -224 0 -27 63 -63 84 -48 6 4 29 14 50 21 22 8 61 26 88 42 27 16 53 29 58 29 12 0 282 140 301 156 22 19 30 18 102 -16 35 -17 67 -30 72 -30 4 0 28 -15 54 -34 25 -18 66 -41 91 -49 25 -8 59 -21 75 -27 17 -7 39 -16 50 -21 48 -19 127 -30 167 -24 111 19 104 70 -17 135 -33 17 -65 36 -71 41 -5 4 -55 31 -110 59 -159 82 -161 84 -142 88 9 2 41 -13 70 -32 29 -20 65 -36 81 -36 16 0 37 -5 47 -10 22 -12 33 0 24 24 -6 15 -116 99 -163 124 -42 22 -95 25 -128 8 -27 -14 -32 -14 -43 -1 -7 8 -30 20 -52 27 l-40 12 8 160 c5 89 8 225 7 304 -1 78 2 142 6 142 4 0 11 -13 16 -29 24 -73 142 -357 191 -461 86 -181 87 -184 116 -194 33 -12 47 -1 30 22 -7 9 -22 37 -33 62 -12 25 -45 95 -74 155 -29 61 -60 131 -68 156 -37 109 -140 345 -158 361 -11 9 -19 29 -19 48 0 20 -4 29 -11 24 -8 -5 -8 -1 0 14 6 11 8 27 5 35 -4 11 3 15 28 15 52 0 53 0 85 30 64 58 100 171 89 283 -4 38 -14 81 -22 97 -7 15 -14 32 -14 38 0 27 -70 72 -127 84 -32 7 -60 13 -63 14 -3 1 -15 0 -27 -2z m83 -72 c27 -10 92 -60 79 -60 -4 0 -3 -6 3 -12 17 -22 32 -140 23 -183 -18 -86 -61 -145 -106 -145 -47 0 -106 42 -134 97 -21 41 -25 135 -7 196 29 99 73 133 142 107z m-92 -877 c-4 -104 -8 -228 -8 -278 -1 -75 -4 -93 -21 -110 -33 -35 -131 -86 -162 -84 -15 1 -43 -1 -61 -5 -34 -8 -34 -8 -18 16 8 12 34 38 56 57 33 28 40 40 38 66 -1 17 8 56 20 86 11 30 31 88 43 129 12 41 34 107 49 145 16 39 36 91 45 118 10 26 19 47 22 47 2 0 0 -84 -3 -187z m87 -490 c7 -8 -1 -19 -28 -37 -45 -31 -57 -32 -91 -7 -15 10 -30 19 -34 20 -19 3 -5 18 39 42 46 24 49 25 76 10 16 -9 33 -21 38 -28z m112 -82 c63 -42 92 -59 181 -105 45 -22 83 -44 86 -47 3 -3 20 -14 38 -24 17 -11 32 -22 32 -26 0 -10 -102 11 -124 27 -11 8 -29 14 -39 14 -23 0 -102 36 -142 63 -16 12 -56 34 -88 50 l-59 29 34 23 c18 13 35 24 36 25 2 0 22 -13 45 -29z m-314 -9 l41 -19 -37 -19 c-21 -10 -60 -32 -88 -48 -89 -52 -287 -147 -293 -141 -8 8 48 55 143 120 44 31 102 71 129 90 26 19 52 35 56 35 4 0 26 -8 49 -18z"/>
</g>
</svg>
