<?xml version="1.0" standalone="no"?>
<!DOCTYPE svg PUBLIC "-//W3C//DTD SVG 20010904//EN" "http://www.w3.org/TR/2001/REC-SVG-20010904/DTD/svg10.dtd">
<svg xmlns="http://www.w3.org/2000/svg" version="1.0" width="360.000000pt" height="360.000000pt" viewBox="0 0 360.000000 360.000000" preserveAspectRatio="xMidYMid meet">

<g transform="translate(0.000000,360.000000) scale(0.100000,-0.100000)" fill="#000000" stroke="none">
<path d="M1632 2865 c-36 -25 -46 -36 -83 -100 -21 -35 -24 -53 -24 -145 l0 -106 47 -63 c52 -70 104 -111 141 -111 61 0 177 104 177 159 0 9 5 22 10 27 16 16 16 204 0 234 -15 28 -91 98 -128 117 -39 21 -103 15 -140 -12z m165 -91 c24 -25 43 -55 43 -68 0 -12 5 -27 10 -32 8 -8 8 -19 0 -38 -5 -15 -10 -40 -10 -56 0 -16 -4 -32 -10 -35 -5 -3 -10 -14 -10 -23 0 -21 -49 -80 -81 -96 -32 -17 -65 -1 -111 56 -30 37 -36 53 -41 113 -7 81 12 137 66 193 47 49 89 45 144 -14z"/>
<path d="M1690 2283 c0 -10 -14 -38 -30 -62 -17 -24 -30 -57 -30 -72 0 -15 -4 -31 -10 -34 -5 -3 -10 -19 -10 -34 0 -15 -4 -31 -8 -36 -5 -6 -14 -30 -21 -55 -7 -25 -17 -54 -21 -65 -10 -24 -17 -48 -65 -197 l-38 -117 -81 -76 c-45 -42 -88 -82 -96 -89 -8 -7 -41 -43 -73 -79 -41 -48 -65 -67 -82 -67 -13 0 -27 5 -30 10 -8 13 -72 13 -80 0 -17 -27 37 -80 81 -80 41 0 124 51 170 105 27 32 60 67 73 79 107 93 191 182 191 203 0 13 4 31 9 41 5 9 15 37 21 62 7 25 23 74 35 110 12 36 27 81 32 100 27 92 37 120 41 115 9 -9 15 -552 6 -567 -3 -4 -15 -8 -27 -9 -12 0 -35 -9 -52 -19 -54 -34 -81 -47 -128 -61 -26 -7 -47 -17 -47 -21 0 -4 -7 -8 -15 -8 -18 0 -69 -28 -147 -81 -32 -22 -71 -46 -86 -53 -15 -6 -44 -22 -64 -35 -32 -19 -38 -29 -38 -56 0 -42 21 -59 62 -52 48 8 120 24 146 32 16 6 22 3 22 -9 0 -9 -5 -16 -11 -16 -6 0 -9 -10 -7 -22 4 -31 50 -37 70 -10 7 10 32 31 54 46 38 25 48 27 138 25 61 -1 102 3 109 10 6 6 32 11 58 11 26 0 51 5 54 10 3 6 24 10 46 10 39 0 64 -10 101 -40 10 -8 51 -32 90 -53 64 -34 73 -36 87 -23 13 14 12 18 -9 41 -14 15 -39 33 -57 42 -76 36 -17 40 229 17 58 -6 69 -4 88 14 29 27 21 49 -24 67 -51 22 -54 35 -7 35 22 0 43 5 46 10 3 6 14 10 24 10 22 0 65 45 56 59 -8 14 -42 14 -50 1 -3 -5 -44 -10 -90 -10 l-83 0 -64 70 c-34 38 -78 98 -96 132 -18 34 -39 73 -47 87 -37 68 -135 281 -135 293 0 8 -4 18 -9 23 -5 6 -21 46 -36 90 -26 77 -35 98 -85 213 -23 51 -50 70 -50 35z m80 -265 c7 -24 18 -56 26 -73 7 -16 20 -52 29 -80 9 -27 37 -91 61 -142 24 -50 44 -100 44 -110 0 -11 12 -30 26 -44 14 -13 32 -38 41 -56 8 -18 19 -33 24 -33 5 0 9 -6 9 -14 0 -8 23 -38 50 -67 28 -29 50 -54 50 -56 0 -9 -32 -1 -67 16 -140 69 -232 111 -242 111 -17 0 -55 23 -65 39 -5 7 -10 73 -12 145 -2 72 -6 198 -8 279 -4 120 -3 147 8 138 7 -6 19 -30 26 -53z m-12 -587 c9 -5 32 -16 50 -23 17 -7 32 -16 32 -20 0 -5 8 -8 18 -9 9 0 31 -9 47 -20 29 -18 37 -22 80 -38 11 -5 40 -18 63 -30 24 -11 52 -21 62 -21 11 0 22 -4 25 -10 3 -5 15 -10 26 -10 11 0 19 -7 19 -16 0 -13 -6 -15 -27 -9 -41 10 -232 25 -443 34 -102 4 -197 11 -211 15 -26 8 -33 2 -86 -73 -2 -3 -25 -8 -51 -12 -26 -4 -59 -11 -74 -15 -15 -3 -34 -4 -43 -1 -20 8 -8 37 16 37 10 0 19 5 19 10 0 6 5 10 11 10 6 0 30 14 54 30 24 17 49 30 55 30 7 0 23 9 37 20 14 11 38 20 52 20 15 0 32 5 38 11 17 17 176 97 196 98 9 1 25 -3 35 -8z"/>
</g>
</svg>
