<?xml version="1.0" standalone="no"?>
<!DOCTYPE svg PUBLIC "-//W3C//DTD SVG 20010904//EN" "http://www.w3.org/TR/2001/REC-SVG-20010904/DTD/svg10.dtd">
<svg xmlns="http://www.w3.org/2000/svg" version="1.0" width="360.000000pt" height="360.000000pt" viewBox="0 0 360.000000 360.000000" preserveAspectRatio="xMidYMid meet">

<g transform="translate(0.000000,360.000000) scale(0.100000,-0.100000)" fill="#000000" stroke="none">
<path d="M1790 2599 c-76 -31 -147 -146 -170 -276 -27 -150 5 -226 122 -297 38 -22 64 -42 59 -45 -5 -4 -12 -25 -16 -48 l-7 -43 -138 0 c-89 0 -166 -6 -217 -16 -90 -19 -83 -19 -471 -13 -211 3 -296 1 -303 -7 -12 -15 6 -64 23 -65 7 -1 122 -2 254 -4 133 -2 259 -6 280 -9 21 -4 70 -2 109 4 97 14 137 17 313 26 l153 7 -5 -54 c-8 -76 -8 -653 0 -672 4 -12 -8 -23 -48 -42 -80 -40 -131 -55 -143 -45 -17 14 -79 17 -152 7 -37 -5 -81 -10 -98 -11 -34 -1 -43 -22 -22 -49 10 -14 26 -18 70 -18 31 0 57 -3 57 -7 0 -8 -49 -32 -66 -32 -7 0 -19 -6 -26 -13 -7 -6 -39 -30 -71 -51 -71 -48 -104 -86 -113 -130 -9 -50 1 -70 47 -90 52 -23 112 -18 229 19 106 33 104 32 231 94 135 65 154 69 215 41 55 -25 229 -80 251 -80 8 0 47 -16 86 -35 99 -49 172 -63 214 -42 30 16 31 20 28 62 -3 33 -11 51 -27 65 -13 11 -26 19 -30 20 -3 0 -43 23 -88 50 -45 28 -86 50 -91 50 -5 0 -9 3 -9 8 0 4 21 8 48 10 88 6 77 38 -22 67 -27 8 -54 19 -60 23 -23 18 -59 20 -100 5 -41 -16 -43 -15 -86 12 -25 15 -66 45 -91 66 l-46 38 -7 123 c-5 102 -10 461 -7 560 1 23 7 29 42 38 25 7 63 9 93 4 81 -11 613 -7 763 6 74 7 147 19 162 26 14 8 41 14 59 14 45 0 132 30 139 47 18 46 -89 52 -222 13 -16 -5 -57 -11 -90 -14 -33 -3 -94 -8 -135 -12 -96 -9 -630 -6 -735 4 l-80 7 -3 35 c-2 19 -9 38 -15 42 -7 5 -1 8 14 8 113 1 202 154 200 343 -1 44 -8 100 -17 125 -14 45 -77 122 -98 122 -5 0 -17 6 -25 14 -22 20 -81 28 -111 15z m104 -108 c69 -40 93 -152 62 -281 -20 -83 -36 -110 -77 -131 -37 -19 -38 -19 -79 4 -23 12 -56 38 -74 57 -32 35 -32 36 -25 115 7 89 38 180 76 225 29 35 70 39 117 11z m-61 -1502 c12 -7 34 -21 48 -33 14 -12 36 -28 48 -36 26 -18 27 -30 4 -30 -10 0 -30 -7 -45 -14 -15 -8 -30 -11 -33 -6 -3 5 -20 12 -37 16 -18 3 -49 17 -70 30 -21 13 -43 24 -49 24 -20 0 -1 13 54 37 62 27 54 25 80 12z m-179 -133 c35 -19 67 -31 70 -28 3 3 6 1 6 -4 -1 -15 -160 -83 -269 -114 -87 -25 -211 -40 -211 -26 0 31 70 84 200 150 41 21 79 43 85 47 17 17 54 9 119 -25z m471 -41 c65 -34 155 -92 155 -100 0 -5 -70 24 -85 34 -5 4 -37 13 -70 20 -52 11 -114 29 -165 47 -11 4 -9 9 10 19 41 23 85 17 155 -20z"/>
</g>
</svg>
