<?xml version="1.0" standalone="no"?>
<!DOCTYPE svg PUBLIC "-//W3C//DTD SVG 20010904//EN" "http://www.w3.org/TR/2001/REC-SVG-20010904/DTD/svg10.dtd">
<svg xmlns="http://www.w3.org/2000/svg" version="1.0" width="360.000000pt" height="360.000000pt" viewBox="0 0 360.000000 360.000000" preserveAspectRatio="xMidYMid meet">

<g transform="translate(0.000000,360.000000) scale(0.100000,-0.100000)" fill="#000000" stroke="none">
<path d="M1798 2564 c-85 -46 -130 -139 -131 -274 -1 -100 14 -136 74 -180 22 -16 44 -30 49 -32 17 -6 -11 -85 -33 -96 -69 -33 -139 -62 -187 -77 -129 -41 -369 -149 -418 -188 -13 -10 -7 -47 10 -58 15 -10 185 0 355 22 152 19 185 19 234 4 19 -6 20 -12 14 -118 -3 -62 -7 -164 -9 -227 -4 -109 -5 -116 -27 -127 -60 -30 -142 -64 -239 -96 -58 -19 -130 -46 -160 -60 -67 -30 -149 -58 -255 -88 -44 -12 -84 -25 -90 -29 -5 -3 -84 -30 -175 -59 -91 -30 -201 -67 -245 -84 -87 -33 -149 -48 -162 -38 -5 3 -22 28 -38 56 -42 74 -61 91 -80 75 -17 -14 -20 -46 -5 -55 19 -12 60 -104 60 -134 0 -50 32 -59 91 -26 57 30 218 90 303 111 33 8 65 18 70 23 6 5 50 20 98 35 48 15 90 31 93 37 4 5 15 9 27 9 11 0 52 11 90 25 38 14 77 25 86 25 10 0 51 16 92 36 41 20 111 49 155 64 193 66 254 89 277 104 19 13 31 14 49 7 13 -6 61 -17 106 -26 46 -8 121 -27 168 -40 47 -14 92 -25 100 -25 8 0 70 -18 137 -39 68 -22 150 -47 183 -57 33 -9 83 -29 110 -44 87 -48 109 -58 170 -80 88 -33 123 -49 195 -91 36 -20 81 -42 100 -47 19 -6 75 -25 124 -41 89 -30 90 -30 108 -11 24 26 34 54 42 120 4 30 10 63 12 73 8 28 -24 33 -46 7 -11 -13 -20 -30 -21 -39 -2 -54 -19 -93 -36 -87 -8 3 -42 12 -76 20 -68 16 -145 47 -186 74 -14 10 -46 26 -71 36 -126 52 -253 107 -265 116 -15 11 -224 80 -243 80 -10 0 -49 11 -87 25 -39 14 -106 35 -150 46 -155 38 -240 61 -282 77 l-43 15 0 157 c0 86 3 197 6 246 l7 89 31 3 c88 10 216 5 276 -10 36 -9 118 -22 182 -29 99 -11 121 -11 143 1 29 16 62 69 48 79 -56 40 -106 65 -189 92 -54 17 -151 50 -214 71 -63 22 -138 46 -166 53 -28 7 -61 18 -75 25 -13 8 -26 13 -29 12 -3 -1 -5 10 -5 26 0 15 -4 30 -10 35 -5 4 4 6 20 6 48 -3 81 16 124 70 52 66 65 109 58 185 -12 120 -64 208 -143 241 -43 18 -50 18 -86 -1z m104 -92 c25 -27 40 -58 52 -107 23 -92 10 -143 -51 -202 -28 -27 -38 -29 -86 -20 -126 26 -120 284 8 355 31 18 40 15 77 -26z m-122 -578 c0 -20 -4 -25 -16 -20 -29 11 -53 -20 -47 -64 l5 -38 -53 -11 c-30 -6 -112 -17 -184 -26 -71 -8 -148 -17 -169 -20 -34 -5 -37 -4 -26 10 7 8 16 15 21 15 4 0 46 18 93 40 47 22 94 40 106 40 11 0 28 4 38 9 23 13 126 54 182 73 25 9 46 16 48 17 1 0 2 -11 2 -25z m80 6 c0 -5 -4 -10 -10 -10 -5 0 -10 5 -10 10 0 6 5 10 10 10 6 0 10 -4 10 -10z m110 -16 c47 -14 94 -30 105 -34 11 -5 68 -23 127 -39 185 -53 283 -112 123 -75 -11 2 -49 7 -85 10 -36 4 -69 10 -75 14 -11 8 -56 17 -130 25 -27 3 -66 7 -85 10 -19 2 -38 4 -42 4 -5 1 -8 16 -8 35 0 18 -7 39 -15 46 -16 13 -20 30 -7 30 4 0 45 -12 92 -26z"/>
</g>
</svg>
