<?xml version="1.0" standalone="no"?>
<!DOCTYPE svg PUBLIC "-//W3C//DTD SVG 20010904//EN" "http://www.w3.org/TR/2001/REC-SVG-20010904/DTD/svg10.dtd">
<svg xmlns="http://www.w3.org/2000/svg" version="1.0" width="360.000000pt" height="360.000000pt" viewBox="0 0 360.000000 360.000000" preserveAspectRatio="xMidYMid meet">

<g transform="translate(0.000000,360.000000) scale(0.100000,-0.100000)" fill="#000000" stroke="none">
<path d="M1730 1752 c-49 -22 -103 -89 -119 -147 -13 -49 -14 -155 -1 -189 6 -16 29 -35 67 -53 56 -27 59 -30 59 -66 1 -32 -1 -37 -17 -32 -18 6 -28 -6 -124 -140 -50 -70 -68 -81 -190 -120 -127 -40 -217 -70 -250 -84 -59 -26 -157 -62 -205 -76 -30 -9 -102 -32 -160 -51 -58 -19 -114 -37 -124 -39 -11 -3 -60 -18 -110 -34 -50 -17 -103 -31 -117 -33 -25 -3 -59 21 -59 40 0 23 -41 103 -49 98 -5 -4 -11 -1 -13 6 -2 6 -11 9 -20 6 -13 -5 -11 -17 12 -87 28 -82 44 -111 63 -111 5 0 16 -8 23 -17 12 -17 16 -17 86 6 40 13 87 29 103 36 17 7 64 23 105 35 41 12 100 31 130 42 30 11 62 21 70 22 31 4 166 50 205 69 31 15 340 127 352 127 14 0 -9 -31 -70 -97 -179 -191 -209 -231 -195 -256 16 -29 35 -19 87 47 27 35 63 77 78 93 15 17 72 77 125 135 l96 104 99 26 c88 23 100 25 115 11 9 -8 52 -21 95 -29 190 -32 305 -98 554 -313 22 -19 52 -35 67 -36 15 -2 35 -6 45 -10 11 -5 17 -3 17 6 0 20 -7 28 -80 89 -36 30 -71 60 -78 67 -7 7 -17 13 -21 13 -4 0 -36 21 -72 46 l-64 45 43 -5 c24 -2 64 -9 90 -15 26 -6 92 -20 147 -32 55 -12 108 -26 118 -31 10 -5 48 -15 85 -23 37 -7 94 -20 127 -28 33 -8 103 -24 155 -36 52 -12 107 -27 121 -32 24 -10 65 -13 112 -10 21 1 23 31 2 31 -29 0 -15 25 57 104 58 63 70 81 61 95 -23 37 -48 24 -111 -60 -34 -45 -63 -86 -64 -91 -4 -10 -124 16 -478 104 -242 59 -263 64 -400 84 -173 25 -181 29 -315 164 -65 66 -124 120 -130 120 -7 0 -18 7 -25 15 -7 8 -21 15 -32 15 -15 0 -19 6 -16 27 2 22 10 29 40 36 116 27 153 206 71 345 -19 33 -46 65 -60 71 -26 12 -89 14 -113 3z m38 -64 c-2 -6 6 -13 17 -15 57 -10 63 -14 79 -53 9 -23 16 -69 16 -106 0 -59 -3 -68 -30 -95 -26 -26 -34 -29 -67 -23 -74 13 -108 40 -117 89 -11 58 38 184 78 203 28 14 26 14 24 0z m165 -589 c31 -33 57 -61 57 -63 0 -1 -42 8 -92 20 -51 13 -101 24 -112 24 -15 0 -16 3 -6 15 9 10 10 31 6 65 l-7 50 48 -26 c26 -14 74 -52 106 -85z m-210 34 c5 -40 4 -41 -30 -48 -19 -3 -41 -9 -50 -12 -8 -3 4 19 28 50 24 31 44 55 45 54 1 -1 4 -21 7 -44z"/>
</g>
</svg>
