<?xml version="1.0" standalone="no"?>
<!DOCTYPE svg PUBLIC "-//W3C//DTD SVG 20010904//EN" "http://www.w3.org/TR/2001/REC-SVG-20010904/DTD/svg10.dtd">
<svg xmlns="http://www.w3.org/2000/svg" version="1.0" width="360.000000pt" height="360.000000pt" viewBox="0 0 360.000000 360.000000" preserveAspectRatio="xMidYMid meet">

<g transform="translate(0.000000,360.000000) scale(0.100000,-0.100000)" fill="#000000" stroke="none">
<path d="M842 1488 c-23 -23 -13 -56 28 -88 23 -18 39 -34 37 -37 -3 -2 -27 7 -53 21 -58 29 -141 57 -204 68 -251 45 -378 50 -457 19 -26 -10 -65 -21 -85 -25 -40 -7 -48 -24 -24 -49 13 -13 25 -12 93 5 110 27 318 17 448 -22 17 -5 71 -17 122 -26 l92 -16 -29 -43 c-26 -37 -30 -53 -30 -107 0 -57 3 -67 28 -90 15 -15 46 -31 70 -38 54 -14 190 -5 229 15 15 8 35 15 44 15 15 0 63 43 91 82 21 28 55 13 61 -28 3 -18 27 -75 52 -126 57 -114 104 -225 107 -256 4 -34 -94 -67 -172 -57 -73 9 -181 18 -200 16 -8 -1 -55 -4 -105 -6 -49 -3 -103 -7 -119 -9 -25 -4 -36 2 -71 41 -32 35 -43 42 -48 30 -3 -8 3 -30 14 -48 10 -19 24 -45 30 -59 6 -14 17 -37 25 -51 7 -14 16 -41 19 -60 11 -65 23 -67 127 -26 51 21 129 44 173 51 44 8 94 20 110 26 36 15 155 14 244 -1 58 -11 65 -10 83 9 16 16 18 23 9 40 -21 40 -14 50 42 57 28 4 95 21 147 37 64 20 124 31 185 34 125 6 179 15 187 30 6 9 27 7 95 -12 49 -13 101 -24 118 -25 16 0 71 -11 120 -24 50 -14 144 -34 210 -45 66 -12 149 -29 185 -39 36 -10 110 -31 165 -46 55 -15 127 -35 160 -45 154 -47 245 -47 245 -1 0 11 4 22 9 25 5 3 21 36 36 73 32 81 28 113 -15 113 -32 0 -29 6 -50 -110 -7 -36 -14 -68 -16 -71 -4 -8 -90 7 -119 20 -11 5 -69 21 -130 36 -60 15 -114 30 -120 35 -5 4 -37 11 -70 15 -33 4 -75 13 -94 21 -19 8 -96 26 -170 39 -270 50 -308 60 -351 99 -22 20 -51 38 -65 42 -14 3 -25 12 -25 19 0 37 -206 163 -375 229 -98 39 -432 84 -582 78 -55 -1 -63 0 -63 17 0 21 -46 71 -66 71 -7 0 -34 13 -61 30 -48 30 -109 41 -148 27 -17 -6 -23 1 -39 41 -11 26 -23 53 -29 60 -12 15 -39 16 -55 0z m248 -200 c30 -15 60 -28 67 -28 25 0 25 -40 -1 -74 -61 -80 -292 -81 -312 -2 -10 40 20 81 77 108 68 32 102 31 169 -4z m425 -123 c216 -15 417 -73 540 -155 22 -15 53 -35 70 -45 16 -10 25 -20 18 -22 -6 -2 -30 -21 -53 -43 -23 -22 -45 -39 -49 -38 -26 6 -283 -43 -326 -62 -37 -16 -169 -40 -175 -33 -4 5 -24 49 -45 98 -20 50 -50 110 -65 135 -42 69 -90 160 -90 172 0 6 18 8 48 4 26 -3 83 -8 127 -11z m-399 -518 c4 -4 -3 -7 -15 -7 -12 0 -54 -12 -94 -26 -39 -14 -79 -28 -88 -31 -9 -3 -20 5 -27 22 -7 14 -12 27 -12 28 0 1 24 3 53 5 28 2 75 6 102 11 56 8 71 8 81 -2z"/>
</g>
</svg>
