<?xml version="1.0" standalone="no"?>
<!DOCTYPE svg PUBLIC "-//W3C//DTD SVG 20010904//EN" "http://www.w3.org/TR/2001/REC-SVG-20010904/DTD/svg10.dtd">
<svg xmlns="http://www.w3.org/2000/svg" version="1.0" width="360.000000pt" height="360.000000pt" viewBox="0 0 360.000000 360.000000" preserveAspectRatio="xMidYMid meet">

<g transform="translate(0.000000,360.000000) scale(0.100000,-0.100000)" fill="#000000" stroke="none">
<path d="M1810 2405 c-81 -37 -106 -81 -108 -190 -2 -136 36 -247 94 -273 17 -8 23 -19 23 -39 -1 -15 2 -55 5 -88 3 -33 3 -52 0 -42 -8 26 -24 21 -83 -27 -71 -58 -191 -139 -406 -272 -60 -37 -137 -87 -170 -111 -32 -24 -65 -43 -72 -43 -7 0 -13 -4 -13 -8 0 -5 -18 -15 -41 -22 -22 -8 -42 -17 -44 -20 -3 -4 -28 -19 -57 -32 -85 -40 -253 -121 -388 -186 -168 -82 -230 -106 -244 -92 -16 16 -40 12 -54 -10 -7 -11 -21 -20 -32 -20 -27 0 -36 -26 -17 -48 25 -27 30 -126 12 -211 -11 -54 -12 -78 -5 -85 8 -8 15 -6 24 7 7 9 24 17 37 17 31 0 129 19 216 42 39 10 124 29 190 43 65 13 195 44 289 68 93 25 206 50 250 55 43 6 138 25 209 42 72 17 138 33 148 35 9 2 45 11 80 21 34 9 78 20 97 24 19 4 51 15 71 25 35 17 41 17 125 0 49 -9 96 -18 104 -19 8 -1 29 -6 45 -10 117 -29 154 -39 181 -51 17 -8 64 -19 105 -26 41 -6 79 -15 85 -20 6 -5 24 -11 41 -12 16 -2 54 -11 84 -20 30 -9 106 -28 169 -42 63 -15 135 -33 159 -41 25 -8 57 -14 72 -14 15 0 55 -9 90 -19 35 -11 89 -23 119 -26 30 -4 59 -9 63 -12 5 -3 33 -11 63 -18 64 -15 94 -3 76 31 -11 21 -1 134 17 192 9 30 7 37 -14 58 -13 13 -26 37 -28 53 -3 16 -8 35 -12 40 -9 15 -35 14 -40 -2 -6 -13 -67 -15 -125 -3 -50 10 -210 65 -234 81 -12 7 -32 15 -46 18 -57 14 -266 146 -351 222 -18 16 -81 58 -139 95 -58 36 -140 90 -183 120 -176 123 -264 182 -302 201 -50 26 -52 30 -60 102 l-7 59 54 52 c119 113 140 309 45 418 -27 32 -40 38 -82 43 -34 4 -61 0 -85 -10z m111 -65 c54 -29 70 -165 30 -255 -42 -96 -84 -117 -139 -70 -58 48 -68 177 -21 269 30 61 80 82 130 56z m-96 -954 c0 -223 -4 -359 -10 -365 -5 -5 -21 -11 -35 -13 -14 -2 -30 -7 -36 -10 -28 -18 -406 -109 -553 -134 -96 -16 -256 -52 -286 -64 -41 -16 -173 -49 -263 -65 -95 -16 -358 -81 -376 -92 -6 -4 -7 1 -2 13 15 39 25 115 19 144 -6 32 17 70 42 70 7 0 20 9 30 20 10 11 26 20 36 20 10 0 45 16 78 35 32 19 62 35 64 35 8 0 446 216 522 258 39 21 129 76 200 122 148 95 216 138 262 166 54 33 196 131 248 173 28 22 52 40 55 40 3 1 5 -159 5 -353z m129 296 c33 -26 81 -63 108 -82 27 -19 99 -72 161 -116 62 -45 129 -91 150 -103 62 -35 88 -53 157 -106 83 -66 288 -200 320 -210 14 -4 58 -23 99 -42 99 -45 243 -93 302 -100 75 -9 80 -15 86 -127 l6 -98 -44 6 c-144 22 -568 122 -829 196 -41 12 -102 27 -135 35 -33 7 -109 27 -170 43 -60 16 -142 36 -182 42 -39 7 -77 16 -83 20 -7 4 -12 99 -14 296 -1 159 -4 294 -5 299 -6 20 -1 95 7 95 4 0 34 -21 66 -48z"/>
</g>
</svg>
