<?xml version="1.0" standalone="no"?>
<!DOCTYPE svg PUBLIC "-//W3C//DTD SVG 20010904//EN" "http://www.w3.org/TR/2001/REC-SVG-20010904/DTD/svg10.dtd">
<svg xmlns="http://www.w3.org/2000/svg" version="1.0" width="360.000000pt" height="360.000000pt" viewBox="0 0 360.000000 360.000000" preserveAspectRatio="xMidYMid meet">

<g transform="translate(0.000000,360.000000) scale(0.100000,-0.100000)" fill="#000000" stroke="none">
<path d="M1391 1508 c-25 -18 -65 -54 -90 -80 -46 -48 -47 -49 -116 -52 -124 -6 -143 -13 -155 -55 -14 -52 -13 -60 15 -73 21 -9 28 -8 45 7 16 14 23 16 32 7 7 -7 8 -12 2 -12 -22 0 -149 -92 -241 -174 -42 -37 -65 -99 -55 -146 7 -32 12 -36 57 -48 33 -8 103 -12 208 -10 161 3 163 2 148 -37 -11 -26 4 -55 28 -55 10 0 35 7 56 16 27 11 62 15 119 12 l81 -3 -2 27 c-1 24 3 28 35 34 40 8 863 10 1167 4 170 -4 193 -2 217 14 15 10 30 26 33 35 3 10 34 47 70 84 62 64 82 107 50 107 -8 0 -15 -4 -15 -9 0 -5 -15 -14 -32 -21 -18 -7 -61 -43 -96 -79 l-63 -66 -597 -3 c-328 -2 -672 -4 -764 -5 -92 -1 -170 2 -174 6 -4 3 0 26 9 49 9 24 19 60 23 81 7 41 10 43 38 22 27 -20 30 -20 71 18 20 18 50 40 68 48 262 127 386 192 389 203 2 12 13 10 55 -8 48 -20 51 -24 37 -37 -8 -9 -18 -40 -21 -70 -6 -59 16 -118 60 -167 12 -13 22 -35 23 -50 1 -15 3 -33 3 -39 1 -19 28 -16 50 6 16 16 25 18 72 9 30 -6 81 -7 113 -4 52 5 64 11 93 42 38 42 43 82 17 158 -19 56 -66 105 -137 142 -43 22 -66 27 -132 29 -67 1 -87 5 -120 27 -49 31 -74 36 -195 44 -85 5 -265 -6 -359 -23 l-34 -6 6 48 c6 38 3 52 -10 67 -22 24 -30 23 -82 -14z m15 -105 c-6 -18 -76 -60 -76 -46 0 10 72 74 77 69 3 -2 2 -13 -1 -23z m484 -33 c12 -8 11 -10 -8 -10 -13 0 -58 -18 -100 -39 -109 -55 -166 -81 -181 -81 -17 0 -100 -39 -133 -61 -30 -22 -63 -16 -52 10 4 9 14 45 23 79 9 35 23 67 31 71 8 5 62 14 120 21 58 6 110 13 115 14 31 8 172 4 185 -4z m-515 -107 c-8 -27 -15 -51 -15 -56 0 -11 -72 36 -72 47 0 9 79 56 94 56 4 0 1 -21 -7 -47z m892 20 c89 -41 137 -101 131 -166 -4 -45 -37 -59 -118 -53 -95 7 -125 21 -160 74 -48 73 -37 134 28 148 15 3 32 7 37 9 23 8 46 4 82 -12z m-962 -131 c31 -26 34 -47 16 -102 -5 -14 -14 -44 -21 -67 -15 -50 -23 -52 -195 -52 -138 -1 -203 12 -185 35 7 8 17 14 22 14 5 0 66 54 135 119 l126 119 36 -20 c20 -11 49 -32 66 -46z"/>
</g>
</svg>
