<?xml version="1.0" standalone="no"?>
<!DOCTYPE svg PUBLIC "-//W3C//DTD SVG 20010904//EN" "http://www.w3.org/TR/2001/REC-SVG-20010904/DTD/svg10.dtd">
<svg xmlns="http://www.w3.org/2000/svg" version="1.0" width="360.000000pt" height="360.000000pt" viewBox="0 0 360.000000 360.000000" preserveAspectRatio="xMidYMid meet">

<g transform="translate(0.000000,360.000000) scale(0.100000,-0.100000)" fill="#000000" stroke="none">
<path d="M2175 2564 c-80 -44 -127 -111 -140 -198 -5 -31 -11 -44 -17 -38 -14 14 -38 3 -38 -17 0 -22 19 -41 41 -41 11 0 20 -14 28 -42 7 -24 18 -50 24 -59 20 -26 90 -69 114 -69 33 0 36 -15 13 -59 -11 -22 -20 -49 -20 -60 0 -11 -4 -22 -9 -26 -5 -3 -12 -18 -16 -34 -3 -16 -13 -35 -21 -41 -7 -7 -11 -16 -8 -22 3 -5 -7 -34 -23 -65 l-28 -57 -8 55 c-4 30 -9 63 -11 74 -5 28 -53 168 -82 236 -14 36 -23 74 -22 106 1 27 -2 55 -6 61 -10 16 -43 15 -49 0 -2 -8 -14 -1 -31 20 -30 34 -53 41 -62 17 -9 -21 13 -77 41 -108 14 -15 22 -27 18 -27 -4 -1 1 -8 13 -18 21 -18 69 -102 77 -137 3 -11 8 -29 13 -40 7 -20 7 -20 -14 -2 -11 10 -29 17 -39 15 -30 -6 -28 -86 12 -383 8 -60 17 -123 19 -140 3 -16 7 -56 10 -87 l6 -58 -42 -1 c-72 -1 -102 -9 -120 -30 -12 -14 -58 -29 -165 -53 -81 -18 -169 -36 -194 -40 -54 -8 -139 -47 -228 -104 -35 -23 -67 -42 -72 -42 -4 0 -45 -23 -92 -50 -47 -27 -88 -50 -91 -50 -3 0 -29 -17 -58 -37 -40 -29 -50 -33 -44 -18 21 50 29 96 18 107 -16 16 -39 3 -46 -26 -3 -13 -20 -54 -36 -89 -17 -36 -30 -77 -30 -91 0 -22 4 -26 30 -26 17 0 30 4 30 9 0 15 201 138 390 239 36 19 72 40 80 47 37 30 111 60 180 71 41 6 138 28 215 47 121 30 226 51 300 60 11 2 25 6 32 10 26 16 145 48 161 42 14 -4 22 5 36 37 11 24 24 50 31 58 7 8 15 40 19 71 3 31 12 71 20 89 12 30 14 32 24 14 5 -10 13 -44 17 -74 4 -30 14 -82 22 -115 8 -33 18 -130 22 -215 l6 -155 26 -3 c20 -2 28 2 32 17 6 23 28 26 92 11 42 -9 65 0 65 27 0 16 -55 42 -99 47 -51 6 -54 13 -65 151 -6 72 -34 224 -62 340 -13 55 -27 132 -30 170 -3 39 -10 83 -15 99 -5 16 -9 48 -9 71 0 23 -7 64 -15 91 -22 73 -19 92 15 112 45 26 82 107 83 184 2 88 -15 135 -70 196 -55 61 -97 74 -148 46z m85 -54 c0 -5 14 -25 31 -44 17 -20 28 -40 25 -45 -3 -5 -1 -11 4 -13 17 -5 23 -70 11 -115 -14 -53 -90 -133 -125 -133 -63 0 -124 101 -112 186 8 62 50 130 95 154 39 21 71 26 71 10z m-16 -650 c3 -47 6 -92 8 -100 5 -29 -14 -170 -23 -170 -6 0 -8 -4 -5 -8 6 -10 -23 -112 -32 -112 -7 0 -18 24 -69 139 l-20 45 49 93 c26 52 48 102 48 111 0 10 8 29 17 42 10 14 17 26 15 28 -4 4 -2 25 2 21 3 -2 7 -43 10 -89z m-257 -87 c24 -59 52 -121 95 -208 63 -128 80 -177 65 -192 -17 -16 -116 -53 -121 -44 -5 7 -30 194 -47 341 -5 47 -11 97 -14 113 -6 38 3 34 22 -10z"/>
</g>
</svg>
