<?xml version="1.0" standalone="no"?>
<!DOCTYPE svg PUBLIC "-//W3C//DTD SVG 20010904//EN" "http://www.w3.org/TR/2001/REC-SVG-20010904/DTD/svg10.dtd">
<svg xmlns="http://www.w3.org/2000/svg" version="1.0" width="360.000000pt" height="360.000000pt" viewBox="0 0 360.000000 360.000000" preserveAspectRatio="xMidYMid meet">

<g transform="translate(0.000000,360.000000) scale(0.100000,-0.100000)" fill="#000000" stroke="none">
<path d="M1695 2451 c-16 -4 -39 -13 -51 -21 -32 -20 -84 -102 -84 -133 0 -16 -5 -38 -12 -50 -6 -12 -10 -39 -10 -60 2 -29 -4 -44 -23 -63 -14 -14 -23 -30 -20 -35 4 -5 3 -9 -2 -9 -4 0 -24 -14 -43 -31 -19 -16 -47 -36 -61 -44 -57 -31 -175 -193 -198 -275 -7 -25 -17 -55 -21 -67 -5 -11 -9 -68 -9 -126 0 -57 -3 -111 -6 -119 -3 -7 2 -50 11 -93 9 -44 17 -87 18 -95 10 -71 129 -129 504 -244 203 -63 272 -77 272 -56 0 33 -28 60 -93 90 -40 18 -125 64 -189 101 -65 37 -127 71 -139 74 l-22 7 24 18 c23 18 23 19 4 40 -11 12 -27 19 -37 17 -10 -3 -18 -2 -18 2 0 10 171 130 294 206 l108 66 23 -21 c20 -19 24 -20 38 -6 9 10 23 13 34 9 18 -7 127 -92 198 -156 22 -20 47 -42 55 -49 31 -26 186 -163 210 -187 69 -66 81 -71 181 -72 108 -3 139 5 139 31 0 28 -11 31 -118 37 -56 2 -105 10 -117 18 -20 13 -172 146 -318 279 -43 39 -85 75 -93 79 -8 5 -33 26 -56 47 -42 38 -42 39 -24 59 10 11 28 24 40 27 11 4 25 13 31 20 21 26 188 164 200 164 21 0 25 78 8 134 -20 62 -25 69 -47 60 -25 -10 -37 -47 -26 -85 5 -18 7 -35 4 -38 -3 -3 -40 -9 -82 -13 -42 -4 -97 -12 -120 -17 -39 -8 -51 -5 -110 24 -183 89 -344 165 -353 165 -5 0 -9 7 -9 15 0 20 10 19 40 -2 29 -21 145 -22 182 -2 28 14 78 69 78 86 0 6 13 11 29 11 57 -2 70 32 21 60 -25 14 -30 23 -30 58 0 54 -44 140 -81 159 -30 16 -74 18 -124 6z m98 -78 c38 -34 45 -67 30 -146 -9 -50 -20 -77 -34 -90 -36 -29 -120 -15 -163 28 -37 37 -1 181 51 208 37 20 94 19 116 0z m-154 -404 c179 -84 299 -144 324 -161 25 -18 34 -19 100 -8 39 6 82 13 95 16 41 8 22 -14 -78 -90 -79 -61 -104 -75 -123 -71 -15 4 -28 1 -36 -9 -18 -22 -36 -20 -64 7 -14 12 -48 42 -77 67 -65 55 -240 250 -240 267 0 20 27 15 99 -18z m-134 -50 c64 -86 201 -226 268 -276 26 -19 47 -40 47 -47 0 -6 -30 -29 -66 -51 -36 -22 -71 -45 -77 -51 -7 -6 -24 -17 -37 -24 -27 -14 -119 -80 -203 -145 -141 -108 -155 -111 -188 -38 -19 42 -21 59 -16 143 10 161 27 291 44 324 48 93 150 204 188 205 6 0 24 -18 40 -40z m-61 -750 c11 -10 24 -18 27 -19 3 0 30 -14 60 -31 30 -16 43 -27 29 -23 -46 12 -190 76 -190 85 0 4 10 15 23 24 20 14 22 14 26 -1 2 -10 13 -26 25 -35z"/>
</g>
</svg>
