<?xml version="1.0" standalone="no"?>
<!DOCTYPE svg PUBLIC "-//W3C//DTD SVG 20010904//EN" "http://www.w3.org/TR/2001/REC-SVG-20010904/DTD/svg10.dtd">
<svg xmlns="http://www.w3.org/2000/svg" version="1.0" width="360.000000pt" height="360.000000pt" viewBox="0 0 360.000000 360.000000" preserveAspectRatio="xMidYMid meet">

<g transform="translate(0.000000,360.000000) scale(0.100000,-0.100000)" fill="#000000" stroke="none">
<path d="M621 2342 c-6 -12 -5 -28 5 -51 8 -18 14 -35 14 -37 0 -2 -25 -4 -56 -4 -130 0 -241 -103 -246 -228 -2 -61 15 -129 43 -169 16 -23 29 -49 29 -58 0 -12 6 -15 20 -10 10 3 29 1 40 -5 27 -14 160 -40 160 -31 0 4 29 14 65 21 36 7 65 17 65 22 0 4 11 8 24 8 13 0 34 9 48 19 29 23 66 23 78 1 10 -18 24 -126 40 -295 25 -271 29 -304 36 -326 10 -33 77 -52 161 -45 325 25 617 7 715 -45 24 -12 55 -11 64 2 6 11 33 9 66 -5 25 -11 60 28 52 59 -7 29 11 62 59 106 31 28 35 29 112 25 44 -2 118 -11 165 -20 47 -9 109 -16 137 -16 29 0 70 -6 90 -14 54 -20 163 -36 273 -40 52 -2 116 -7 141 -11 104 -16 167 30 134 98 -34 70 -78 108 -146 127 -35 10 -96 27 -135 39 -40 11 -89 23 -110 25 -22 3 -64 10 -94 16 -47 9 -106 17 -265 35 -16 2 -100 4 -185 5 -93 2 -171 8 -195 16 -80 26 -204 73 -232 87 -40 21 -141 63 -188 77 -22 7 -62 23 -90 35 -95 44 -209 87 -240 90 -16 2 -59 6 -95 10 -36 4 -80 11 -98 17 -18 5 -52 11 -75 12 -23 2 -55 8 -70 14 -26 11 -28 15 -22 55 4 28 1 58 -9 87 -9 25 -16 51 -16 58 0 33 -84 98 -164 128 -17 6 -30 18 -31 30 -6 49 -17 89 -28 96 -20 13 -36 9 -46 -10z m98 -192 c29 -10 54 -21 56 -22 1 -2 11 -17 23 -35 12 -17 22 -40 22 -51 0 -12 5 -24 10 -27 29 -18 -29 -135 -67 -135 -8 0 -32 -9 -54 -20 -53 -27 -175 -31 -213 -7 -43 28 -66 59 -66 88 0 15 -4 30 -9 34 -5 3 -7 22 -4 43 20 123 160 184 302 132z m408 -359 c110 -13 199 -35 268 -66 102 -46 176 -76 228 -94 30 -11 78 -30 108 -44 30 -14 95 -40 144 -58 50 -18 95 -38 100 -44 6 -7 17 -12 25 -13 32 -3 181 -11 305 -16 72 -4 141 -9 155 -12 14 -4 43 -6 65 -5 46 2 165 -18 181 -30 6 -5 14 -6 17 -3 9 9 148 -22 242 -54 86 -29 137 -69 108 -85 -8 -5 -25 -6 -37 -3 -23 6 -80 12 -205 21 -40 3 -76 7 -80 9 -3 2 -31 7 -61 11 -30 4 -63 11 -72 16 -9 5 -43 9 -75 9 -32 0 -74 4 -93 10 -50 13 -110 20 -233 26 l-108 5 -69 -68 c-38 -38 -75 -73 -82 -78 -15 -13 -53 -11 -173 6 -95 14 -538 17 -630 4 -64 -8 -86 -8 -96 2 -4 4 -13 67 -19 138 -5 72 -14 155 -19 185 -6 30 -12 84 -15 120 -3 36 -8 80 -12 97 -6 29 -4 31 17 28 13 -2 65 -8 116 -14z"/>
</g>
</svg>
