<?xml version="1.0" standalone="no"?>
<!DOCTYPE svg PUBLIC "-//W3C//DTD SVG 20010904//EN"
 "http://www.w3.org/TR/2001/REC-SVG-20010904/DTD/svg10.dtd">
<svg version="1.0" xmlns="http://www.w3.org/2000/svg"
 width="360.000000pt" height="360.000000pt" viewBox="0 0 360.000000 360.000000"
 preserveAspectRatio="xMidYMid meet">

<g transform="translate(0.000000,360.000000) scale(0.100000,-0.100000)"
fill="#000000" stroke="none">
<path d="M1194 3035 c-4 -9 8 -31 30 -55 39 -44 110 -185 176 -353 22 -56 22
-59 6 -115 -9 -32 -16 -90 -16 -128 0 -62 3 -75 30 -111 27 -37 98 -83 127
-83 7 0 15 -10 19 -22 4 -13 11 -26 16 -29 6 -4 24 -38 40 -75 36 -84 68 -251
68 -354 0 -101 -34 -339 -60 -420 -28 -88 -31 -171 -7 -198 18 -20 87 -33 185
-36 17 -1 32 -4 32 -8 0 -6 35 -13 110 -21 14 -1 31 -7 39 -11 12 -8 115 -22
218 -29 11 -1 19 -5 17 -9 -2 -3 16 -14 40 -23 25 -10 53 -26 63 -37 17 -19
17 -20 -2 -35 -17 -12 -46 -14 -170 -10 -82 3 -163 10 -179 16 -15 6 -81 14
-145 17 -137 6 -163 10 -159 27 2 7 1 14 -2 16 -11 9 -78 -21 -100 -44 -22
-23 -44 -31 -115 -39 -16 -2 -43 -8 -58 -15 -23 -9 -26 -14 -18 -30 9 -16 19
-18 78 -14 38 3 75 12 84 19 8 8 21 14 28 14 6 0 25 7 41 15 20 10 36 12 57 6
23 -8 238 -20 420 -25 22 -1 39 -4 36 -8 -5 -10 23 -9 57 1 14 4 42 4 63 -1
42 -9 135 16 144 40 15 36 -43 114 -95 127 -13 3 -47 18 -75 32 -33 17 -78 29
-122 33 -38 4 -119 12 -180 19 -60 6 -138 13 -172 15 -34 2 -67 7 -72 11 -21
12 -23 75 -6 138 22 82 41 186 49 272 4 39 11 99 15 134 7 61 0 186 -14 241
-3 14 -8 41 -11 60 -3 19 -14 56 -25 82 -10 26 -19 59 -19 75 0 33 -25 73 -46
73 -24 0 -15 14 23 35 57 32 75 75 68 165 -5 70 -4 77 20 109 42 58 26 87 -19
35 l-22 -27 -21 35 c-24 40 -104 91 -136 86 -24 -4 -34 12 -118 182 -23 47
-50 93 -60 102 -10 10 -39 47 -64 83 -47 65 -79 83 -91 50z m246 -376 c19 -40
24 -59 15 -59 -7 0 -20 24 -30 53 -9 28 -22 58 -28 66 -9 12 -9 13 1 7 7 -4
26 -34 42 -67z m147 -109 c46 -27 60 -52 78 -138 16 -80 2 -132 -41 -162 -19
-12 -37 -20 -40 -18 -5 6 -76 202 -100 278 -12 40 -12 46 2 57 22 16 52 11
101 -17z m-127 -80 c0 -15 0 -16 20 -67 10 -26 28 -74 41 -106 12 -31 19 -60
16 -63 -12 -13 -87 49 -97 82 -10 30 -12 138 -3 157 6 11 23 9 23 -3z"/>
</g>
</svg>
