<?xml version="1.0" standalone="no"?>
<!DOCTYPE svg PUBLIC "-//W3C//DTD SVG 20010904//EN"
 "http://www.w3.org/TR/2001/REC-SVG-20010904/DTD/svg10.dtd">
<svg version="1.0" xmlns="http://www.w3.org/2000/svg"
 width="360.000000pt" height="360.000000pt" viewBox="0 0 360.000000 360.000000"
 preserveAspectRatio="xMidYMid meet">

<g transform="translate(0.000000,360.000000) scale(0.100000,-0.100000)"
fill="#000000" stroke="none">
<path d="M1514 2394 c-80 -42 -108 -106 -105 -241 3 -121 75 -214 184 -238 62
-13 20 -113 -98 -230 -28 -27 -77 -80 -110 -118 -33 -37 -74 -76 -91 -86 -49
-30 -50 -62 -2 -155 46 -91 70 -164 104 -326 l25 -114 -23 -17 c-12 -10 -35
-20 -51 -23 -23 -5 -28 -10 -25 -28 2 -19 10 -24 46 -26 26 -2 42 1 42 8 0 6
4 9 9 6 17 -11 40 5 50 36 8 23 6 50 -10 121 -37 170 -78 308 -108 370 -16 34
-31 67 -33 74 -2 7 35 52 82 101 176 185 230 244 230 253 0 18 16 8 33 -21 30
-51 47 -130 53 -255 7 -127 -6 -246 -48 -452 -11 -56 -18 -109 -15 -117 5 -14
29 -19 132 -30 22 -3 65 -10 95 -16 30 -6 93 -15 140 -19 70 -8 270 -66 258
-76 -2 -1 -66 9 -143 22 -102 17 -187 24 -310 26 l-170 2 -63 -43 c-35 -23
-67 -40 -72 -37 -5 3 -11 1 -15 -4 -3 -6 -11 -8 -19 -5 -7 3 -18 -6 -24 -20
-10 -22 -9 -27 8 -36 14 -7 26 -7 39 -1 10 6 21 8 23 5 3 -2 36 12 74 32 68
37 71 37 169 35 250 -7 256 -7 380 -36 85 -19 112 -20 178 -6 50 11 57 15 57
37 0 13 -9 33 -19 43 -43 43 -224 106 -331 116 -41 3 -95 11 -120 16 -25 5
-65 14 -90 19 -25 5 -61 11 -81 12 -27 1 -35 6 -33 17 30 150 48 316 48 451 0
179 -11 247 -54 331 -16 33 -30 71 -30 85 0 13 -7 35 -15 47 -13 21 -13 25 6
49 50 62 75 163 55 225 -4 13 5 29 29 53 19 19 35 40 35 47 0 15 -34 17 -60 3
-15 -8 -19 -5 -24 23 -7 37 -57 88 -101 104 -57 21 -63 21 -91 7z m74 -58 c43
-22 59 -46 76 -116 19 -75 23 -144 9 -162 -6 -7 -13 -25 -17 -40 -6 -25 -11
-28 -48 -28 -54 0 -103 32 -130 83 -18 36 -20 52 -15 120 8 96 37 144 95 156
2 1 15 -5 30 -13z"/>
</g>
</svg>
