<?xml version="1.0" standalone="no"?>
<!DOCTYPE svg PUBLIC "-//W3C//DTD SVG 20010904//EN" "http://www.w3.org/TR/2001/REC-SVG-20010904/DTD/svg10.dtd">
<svg xmlns="http://www.w3.org/2000/svg" version="1.0" width="360.000000pt" height="360.000000pt" viewBox="0 0 360.000000 360.000000" preserveAspectRatio="xMidYMid meet">

<g transform="translate(0.000000,360.000000) scale(0.100000,-0.100000)" fill="#000000" stroke="none">
<path d="M1267 3368 c-2 -7 22 -42 53 -78 147 -168 226 -286 305 -453 75 -159 141 -440 120 -507 -10 -31 -62 -36 -97 -10 -53 39 -170 43 -215 8 -15 -12 -33 -2 -33 18 0 33 -30 74 -55 74 -37 0 -34 -44 6 -80 l30 -29 -28 -15 c-72 -37 -118 -136 -102 -221 19 -101 69 -144 169 -145 43 0 71 8 125 33 115 55 174 140 162 231 -6 38 -4 42 18 44 23 2 34 -20 33 -68 0 -8 4 -78 7 -155 8 -150 -6 -354 -31 -463 -7 -35 -14 -73 -14 -85 0 -31 -65 -266 -101 -367 -17 -47 -64 -144 -104 -217 -93 -168 -105 -198 -83 -219 14 -14 18 -13 42 18 14 19 43 72 65 119 21 46 54 111 73 144 38 68 104 245 118 320 5 28 18 86 29 130 50 203 64 329 65 585 1 135 -3 256 -8 269 l-8 24 78 -6 c87 -6 119 -11 149 -22 119 -42 170 -73 260 -158 90 -84 128 -140 147 -216 5 -20 14 -54 20 -76 7 -23 12 -121 12 -230 1 -165 -2 -195 -18 -230 -14 -31 -19 -69 -21 -165 -2 -69 -11 -154 -19 -190 -9 -36 -25 -113 -35 -171 -23 -132 -81 -263 -132 -300 -31 -22 -43 -24 -131 -22 -106 2 -110 3 -222 32 -44 12 -91 21 -105 21 -14 0 -73 13 -131 29 -58 16 -124 32 -147 36 -24 4 -59 18 -79 31 -38 26 -82 26 -114 -1 -61 -50 -179 -95 -253 -95 -37 0 -38 -1 -35 -32 l3 -33 60 1 c47 1 81 10 160 43 114 49 106 49 315 1 74 -17 160 -36 190 -41 30 -6 82 -19 114 -30 33 -10 76 -19 97 -19 21 0 64 -7 96 -15 86 -22 154 -20 189 7 94 74 153 190 190 374 40 201 53 281 60 379 3 49 12 112 20 139 10 34 14 106 14 230 0 350 -44 456 -270 647 -96 81 -213 126 -355 135 -109 8 -102 0 -104 112 -1 89 -5 109 -42 208 -23 60 -54 135 -70 166 -16 31 -35 74 -42 95 -29 83 -186 301 -306 426 -45 46 -75 59 -84 35z m354 -1112 c28 -46 26 -120 -5 -161 -34 -45 -139 -98 -193 -98 -77 0 -113 35 -113 111 0 95 111 179 238 180 49 0 55 -3 73 -32z"/>
</g>
</svg>
