<?xml version="1.0" standalone="no"?>
<!DOCTYPE svg PUBLIC "-//W3C//DTD SVG 20010904//EN" "http://www.w3.org/TR/2001/REC-SVG-20010904/DTD/svg10.dtd">
<svg xmlns="http://www.w3.org/2000/svg" version="1.0" width="360.000000pt" height="360.000000pt" viewBox="0 0 360.000000 360.000000" preserveAspectRatio="xMidYMid meet">

<g transform="translate(0.000000,360.000000) scale(0.100000,-0.100000)" fill="#000000" stroke="none">
<path d="M2309 2902 c-54 -26 -109 -150 -109 -244 0 -66 21 -155 45 -192 23 -35 75 -72 117 -84 75 -20 157 51 188 163 20 71 8 214 -22 273 -40 77 -147 119 -219 84z m98 -67 c58 -38 61 -42 75 -88 20 -69 15 -185 -11 -234 -36 -72 -86 -82 -145 -30 -44 38 -71 124 -61 191 15 97 58 186 90 186 8 0 31 -11 52 -25z"/>
<path d="M1320 2364 c0 -22 4 -25 21 -21 12 3 18 3 14 -1 -13 -13 359 -67 540 -78 39 -2 95 -7 125 -10 30 -4 110 -7 177 -8 68 -2 126 -6 130 -9 8 -8 10 -405 3 -600 -5 -131 -7 -141 -30 -167 -31 -35 -101 -73 -177 -95 -32 -9 -123 -38 -203 -63 -80 -25 -154 -48 -165 -49 -11 -2 -38 -12 -60 -22 -22 -10 -71 -28 -110 -40 -38 -12 -77 -26 -86 -31 -35 -19 -144 -62 -167 -66 -35 -7 -318 -112 -392 -146 -91 -42 -238 -98 -259 -98 -9 0 -26 -6 -36 -14 -14 -10 -41 -12 -104 -9 -47 3 -111 0 -141 -6 -30 -7 -61 -12 -68 -13 -7 -1 -15 -12 -19 -26 -7 -29 14 -47 36 -29 9 8 59 12 140 13 110 2 131 4 161 23 19 11 43 21 52 21 22 0 169 51 238 82 30 14 84 36 120 48 36 12 84 31 106 41 23 10 79 29 125 44 46 14 118 39 159 56 41 17 102 39 136 49 34 10 70 23 82 29 11 6 58 22 104 36 45 14 133 41 193 60 61 19 144 44 185 56 41 12 103 37 137 56 l62 34 6 -28 c4 -15 19 -66 34 -113 34 -100 47 -156 57 -230 l7 -55 -34 33 c-51 50 -59 53 -107 31 -37 -17 -43 -24 -40 -47 3 -24 8 -28 54 -33 61 -8 77 -22 128 -112 29 -53 42 -67 60 -67 32 0 50 24 43 57 -4 16 -15 73 -27 128 -32 161 -51 235 -81 316 -15 42 -30 98 -34 125 -4 27 -10 54 -14 59 -3 6 -5 152 -3 325 1 173 -1 343 -6 377 -7 52 -6 63 7 69 17 7 420 6 432 -1 3 -3 73 -5 155 -6 137 -2 160 1 284 31 74 18 141 34 148 36 20 6 26 34 10 50 -12 12 -31 10 -138 -18 -108 -28 -142 -32 -250 -32 -69 -1 -174 3 -235 7 -60 4 -185 8 -277 10 -141 2 -168 4 -168 17 -1 22 -30 -19 -30 -42 0 -22 -13 -23 -43 -4 -12 8 -56 17 -97 20 -288 20 -252 17 -450 36 -63 6 -162 18 -219 26 -58 8 -126 14 -153 14 -45 0 -48 -2 -48 -26z"/>
</g>
</svg>
