<?xml version="1.0" standalone="no"?>
<!DOCTYPE svg PUBLIC "-//W3C//DTD SVG 20010904//EN" "http://www.w3.org/TR/2001/REC-SVG-20010904/DTD/svg10.dtd">
<svg xmlns="http://www.w3.org/2000/svg" version="1.0" width="360.000000pt" height="360.000000pt" viewBox="0 0 360.000000 360.000000" preserveAspectRatio="xMidYMid meet">

<g transform="translate(0.000000,360.000000) scale(0.100000,-0.100000)" fill="#000000" stroke="none">
<path d="M2600 1330 c-25 -5 -73 -13 -108 -18 -67 -11 -131 -30 -148 -43 -6 -5 -19 -2 -30 5 -28 20 -75 27 -314 47 -111 9 -157 7 -225 -8 -11 -2 -33 -7 -49 -9 -17 -3 -59 -16 -95 -29 -36 -13 -86 -27 -111 -31 -25 -4 -50 -10 -55 -15 -6 -4 -67 -27 -135 -49 -69 -23 -138 -47 -155 -54 -16 -8 -41 -17 -55 -20 -54 -14 -305 -134 -354 -169 -31 -22 -37 -26 -235 -131 -71 -38 -153 -86 -181 -108 -40 -30 -59 -38 -93 -38 -51 -1 -126 -17 -144 -32 -17 -14 3 -54 20 -40 13 11 125 32 142 27 5 -2 31 -6 58 -9 41 -5 47 -3 47 13 0 23 10 31 80 68 30 16 74 41 97 56 24 15 45 27 49 27 3 0 24 13 47 28 63 41 79 51 117 68 19 9 42 22 50 28 15 13 340 146 355 146 4 0 33 12 64 26 102 47 249 99 257 91 3 -3 2 -83 -2 -178 -5 -96 -9 -167 -11 -159 -6 27 -42 42 -84 35 -47 -8 -71 -29 -67 -59 3 -18 9 -21 46 -18 36 2 44 -1 51 -20 5 -13 20 -48 34 -78 14 -30 27 -66 29 -80 3 -28 31 -38 53 -20 11 9 13 64 11 301 -1 202 1 293 9 299 20 16 126 43 282 70 60 11 226 6 344 -10 121 -16 118 -14 109 -58 -8 -37 -13 -108 -26 -360 -5 -97 -3 -148 6 -188 18 -75 36 -86 117 -71 34 7 64 15 67 18 13 13 -38 44 -82 49 l-47 5 5 135 c9 255 6 416 -9 433 -18 23 -2 21 28 -2 19 -15 25 -29 26 -67 2 -61 31 -117 87 -170 116 -112 248 -117 341 -15 49 54 49 90 1 151 -20 25 -40 48 -46 51 -8 5 -5 13 6 24 20 21 18 54 -6 68 -12 8 -24 5 -50 -15 -26 -20 -38 -23 -58 -16 -49 18 -175 35 -198 26 -13 -4 -31 -4 -39 1 -12 6 3 11 48 15 35 4 89 12 119 18 101 19 327 -15 475 -73 44 -17 88 -32 97 -32 9 -1 15 -4 12 -8 -8 -14 180 -128 192 -116 25 25 -71 121 -159 161 -105 47 -180 76 -240 90 -62 16 -288 48 -312 45 -5 -1 -30 -5 -55 -9z m47 -173 c18 -6 58 -33 88 -62 68 -62 71 -89 17 -125 -54 -36 -134 -35 -193 4 -63 41 -88 74 -89 118 0 59 24 80 90 77 30 -2 70 -7 87 -12z"/>
</g>
</svg>
