<?xml version="1.0" standalone="no"?>
<!DOCTYPE svg PUBLIC "-//W3C//DTD SVG 20010904//EN" "http://www.w3.org/TR/2001/REC-SVG-20010904/DTD/svg10.dtd">
<svg xmlns="http://www.w3.org/2000/svg" version="1.0" width="360.000000pt" height="360.000000pt" viewBox="0 0 360.000000 360.000000" preserveAspectRatio="xMidYMid meet">

<g transform="translate(0.000000,360.000000) scale(0.100000,-0.100000)" fill="#000000" stroke="none">
<path d="M2263 2520 c-31 -13 -61 -65 -68 -117 -17 -142 -15 -134 -35 -123 -39 21 -72 -19 -50 -61 9 -16 19 -20 39 -17 25 4 29 0 40 -40 8 -30 27 -59 63 -95 51 -51 66 -87 68 -159 0 -29 4 -28 -185 -62 -71 -13 -111 -18 -270 -32 -22 -2 -76 -8 -120 -12 -83 -10 -430 -11 -453 -2 -24 9 -36 -23 -21 -56 12 -24 20 -29 49 -28 168 4 446 16 451 19 3 3 46 7 95 10 196 12 241 18 314 40 25 8 68 17 96 20 l51 7 12 -79 c18 -126 13 -329 -10 -441 -25 -124 -88 -259 -127 -273 -15 -5 -35 -14 -45 -19 -9 -6 -65 -26 -125 -46 -59 -20 -120 -42 -137 -49 -16 -7 -59 -24 -95 -38 -78 -30 -228 -94 -252 -108 -29 -15 -71 -11 -195 20 -268 67 -314 77 -398 86 -27 3 -86 14 -130 25 -91 22 -181 40 -210 43 -12 1 -24 -8 -33 -25 -7 -16 -21 -28 -30 -28 -31 -1 -97 -11 -112 -17 -8 -4 -40 -14 -70 -22 -47 -14 -55 -20 -55 -40 0 -42 27 -48 82 -19 26 14 82 36 123 48 41 12 80 27 86 31 6 5 50 0 105 -12 52 -11 144 -29 204 -39 157 -26 201 -36 375 -86 47 -13 105 -24 130 -25 25 -1 52 -8 61 -16 16 -14 79 -8 79 7 0 9 143 80 160 80 5 0 43 16 84 36 41 19 88 39 103 44 15 4 59 20 98 34 38 14 76 26 83 26 8 0 47 16 88 35 104 50 109 49 529 -65 217 -58 211 -57 315 -90 52 -16 82 -28 65 -26 -32 5 -199 20 -380 36 -60 5 -153 15 -205 21 -140 17 -267 12 -296 -12 -14 -12 -20 -69 -6 -69 4 0 21 -12 37 -26 78 -68 145 -94 145 -55 0 18 -41 76 -65 93 -5 4 -6 10 -3 13 7 8 271 -11 364 -25 34 -6 88 -10 120 -10 33 0 120 -7 194 -17 119 -15 140 -15 180 -2 36 11 46 19 48 39 4 34 -17 59 -58 70 -134 34 -323 86 -421 115 -64 19 -145 41 -180 49 -35 8 -104 23 -152 34 -48 10 -90 22 -94 25 -3 4 12 46 34 94 58 126 74 228 68 423 -5 147 -8 179 -22 224 -3 10 -1 16 5 13 5 -4 23 -2 41 3 28 8 80 3 181 -16 14 -2 139 -7 278 -11 201 -5 252 -4 252 7 0 9 3 10 14 1 9 -8 49 -9 131 -5 121 7 142 16 114 50 -10 13 -29 14 -118 8 -295 -21 -708 3 -839 49 -27 9 -35 9 -42 -3 -13 -21 -20 -9 -41 66 l-19 67 23 16 c101 71 131 136 130 278 0 70 -4 88 -27 127 -43 74 -143 114 -213 86z m98 -75 c68 -23 83 -56 75 -163 -7 -95 -26 -143 -66 -172 l-27 -19 -34 25 c-48 35 -60 64 -63 151 -4 92 6 147 29 173 22 24 29 24 86 5z"/>
</g>
</svg>
