<?xml version="1.0" standalone="no"?>
<!DOCTYPE svg PUBLIC "-//W3C//DTD SVG 20010904//EN" "http://www.w3.org/TR/2001/REC-SVG-20010904/DTD/svg10.dtd">
<svg xmlns="http://www.w3.org/2000/svg" version="1.0" width="360.000000pt" height="360.000000pt" viewBox="0 0 360.000000 360.000000" preserveAspectRatio="xMidYMid meet">

<g transform="translate(0.000000,360.000000) scale(0.100000,-0.100000)" fill="#000000" stroke="none">
<path d="M2120 2562 c-55 -30 -75 -80 -74 -184 1 -74 6 -96 32 -150 64 -136 131 -174 227 -128 34 16 54 35 76 74 28 47 30 56 25 123 l-4 73 49 44 c73 65 61 88 -24 45 -39 -20 -42 -21 -52 -4 -56 96 -96 125 -169 125 -31 0 -65 -7 -86 -18z m150 -64 c30 -28 67 -112 75 -170 8 -51 -6 -106 -37 -150 -24 -34 -76 -38 -117 -8 -45 31 -83 129 -85 217 -1 72 0 76 30 103 40 35 101 39 134 8z"/>
<path d="M2700 2081 c0 -4 -21 -16 -47 -25 -27 -9 -68 -26 -92 -37 -32 -15 -54 -18 -85 -14 -38 6 -43 4 -54 -19 -6 -14 -19 -26 -27 -26 -16 0 -65 46 -65 60 0 7 -61 40 -73 40 -3 0 11 -29 30 -64 l34 -65 -58 -42 c-109 -80 -335 -297 -331 -318 5 -27 52 -36 90 -18 18 8 65 26 103 40 39 13 112 41 162 62 51 21 96 35 100 31 13 -13 4 -381 -11 -476 -21 -129 -58 -226 -98 -261 -46 -40 -133 -93 -198 -120 -30 -12 -62 -27 -70 -34 -20 -14 -124 -59 -175 -75 -22 -7 -67 -25 -100 -40 -33 -15 -76 -34 -97 -43 -44 -21 -69 -21 -216 -2 -122 15 -154 19 -317 34 -55 6 -169 21 -254 35 -177 30 -201 31 -201 12 0 -14 -127 -66 -173 -71 -12 -1 -24 -3 -27 -5 -3 -1 -17 -1 -31 0 -33 2 -53 -22 -45 -55 5 -19 13 -25 35 -25 29 0 186 56 248 88 29 14 41 15 115 3 114 -17 272 -38 338 -45 132 -12 320 -35 327 -39 5 -3 46 -8 93 -12 l86 -6 79 44 c44 25 125 62 180 82 55 20 162 67 237 104 88 44 141 64 147 58 6 -6 18 0 33 16 l24 26 75 -14 c41 -8 103 -21 139 -29 36 -8 103 -22 150 -31 204 -38 330 -67 325 -76 -10 -15 -116 -19 -223 -8 -85 9 -137 9 -196 1 -187 -25 -241 -30 -251 -23 -19 14 -60 -4 -69 -31 -11 -32 0 -45 64 -73 25 -11 73 -34 108 -52 67 -35 122 -43 122 -19 0 17 -62 68 -113 92 -41 20 -49 35 -15 29 13 -3 63 2 113 10 62 10 118 12 180 7 152 -12 358 -4 394 15 14 7 36 13 48 13 22 0 40 31 28 50 -9 15 -65 38 -120 49 -27 6 -90 19 -140 29 -111 24 -475 97 -530 107 -55 10 -58 13 -37 43 24 36 61 146 67 202 16 144 26 418 18 481 -9 63 -8 71 9 80 23 13 23 40 0 46 -13 3 -23 20 -30 55 -15 64 -15 68 3 68 8 0 15 -8 15 -17 0 -38 23 -97 46 -120 20 -20 26 -22 44 -11 11 7 20 17 20 21 0 5 9 20 20 34 11 14 17 29 14 34 -3 5 13 31 36 57 24 26 47 57 53 69 5 12 25 29 43 38 33 16 41 35 28 69 -6 16 -54 23 -54 7z m-111 -146 c-23 -30 -43 -55 -44 -55 -2 0 -10 -3 -19 -6 -13 -5 -16 1 -16 30 0 35 3 38 53 61 28 14 56 25 60 25 4 0 -11 -25 -34 -55z m-241 -92 c20 -52 24 -91 10 -99 -7 -5 -33 -16 -58 -25 -25 -9 -88 -32 -139 -52 -52 -20 -97 -35 -99 -33 -11 12 238 236 262 236 7 0 18 -12 24 -27z"/>
</g>
</svg>
