<?xml version="1.0" standalone="no"?>
<!DOCTYPE svg PUBLIC "-//W3C//DTD SVG 20010904//EN" "http://www.w3.org/TR/2001/REC-SVG-20010904/DTD/svg10.dtd">
<svg xmlns="http://www.w3.org/2000/svg" version="1.0" width="360.000000pt" height="360.000000pt" viewBox="0 0 360.000000 360.000000" preserveAspectRatio="xMidYMid meet">

<g transform="translate(0.000000,360.000000) scale(0.100000,-0.100000)" fill="#000000" stroke="none">
<path d="M1759 3418 c-15 -11 -16 -16 -2 -62 8 -28 19 -56 24 -62 32 -39 127 -388 135 -495 l7 -89 -46 -56 c-52 -62 -63 -99 -53 -181 11 -97 62 -172 142 -209 35 -16 66 -23 89 -21 34 4 35 3 35 -32 1 -51 19 -124 34 -136 7 -5 25 -78 39 -161 31 -176 35 -315 11 -449 -17 -98 -69 -271 -84 -280 -6 -3 -10 -16 -10 -28 -1 -24 -32 -67 -49 -67 -6 0 -18 -11 -27 -25 -9 -14 -22 -25 -28 -25 -7 0 -35 -17 -63 -38 -73 -55 -199 -111 -371 -168 -100 -32 -144 -38 -186 -24 -19 6 -131 12 -262 14 -126 2 -249 7 -274 10 -61 8 -148 25 -186 37 -17 5 -37 9 -45 9 -8 0 -26 6 -41 14 -33 17 -71 1 -76 -32 -2 -12 -20 -35 -40 -52 -38 -31 -137 -74 -151 -65 -13 8 -53 -42 -49 -62 7 -36 120 -6 213 57 63 42 99 53 157 47 176 -17 353 -31 543 -43 85 -5 116 -11 136 -26 14 -10 34 -19 45 -20 34 -1 112 21 167 48 16 8 36 14 45 14 22 0 215 66 262 89 19 10 47 21 61 24 14 4 45 21 70 40 24 18 62 44 83 57 38 23 39 23 55 4 15 -18 97 -53 206 -88 28 -9 93 -29 145 -46 52 -17 113 -33 135 -36 70 -10 216 -57 203 -65 -7 -5 -130 -6 -273 -4 -214 4 -275 2 -342 -11 -103 -21 -143 -44 -143 -82 0 -30 38 -59 160 -122 36 -18 78 -42 93 -53 34 -23 53 -12 43 26 -5 21 -103 107 -122 107 -12 0 -74 32 -74 39 0 4 24 14 53 22 41 11 115 13 362 11 171 -2 328 -8 350 -12 156 -34 241 -16 203 42 -16 24 -138 74 -245 99 -45 11 -101 26 -125 35 -24 8 -68 19 -98 24 -154 26 -471 154 -487 197 -3 8 3 23 13 34 10 11 19 27 20 37 1 9 16 55 33 102 54 144 89 366 77 493 -12 122 -56 358 -81 440 -31 97 -31 101 2 127 47 37 63 74 64 151 l1 70 44 37 c52 43 60 76 17 66 -16 -3 -40 -15 -55 -25 l-27 -19 -20 39 c-19 36 -73 91 -90 91 -5 0 -16 41 -25 91 -9 50 -25 117 -36 148 -10 31 -22 72 -25 91 -13 65 -154 333 -197 373 -32 29 -44 32 -69 15z m225 -464 c20 -72 39 -154 43 -183 6 -50 5 -51 -21 -51 -14 0 -29 -1 -32 -2 -3 -2 -8 37 -10 87 -4 79 -49 290 -74 350 -5 11 -11 34 -14 50 -14 75 75 -132 108 -251z m79 -431 c28 -193 28 -201 0 -208 -17 -4 -41 4 -80 26 -65 37 -93 89 -93 174 0 50 3 55 38 83 21 17 53 32 72 35 19 2 37 5 40 5 3 1 13 -51 23 -115z m102 -18 c16 -58 16 -70 4 -108 l-14 -42 -8 50 c-18 121 -28 176 -33 192 -5 14 -2 13 14 -4 11 -12 28 -52 37 -88z m652 -1771 c-3 -3 -12 -4 -19 -1 -8 3 -5 6 6 6 11 1 17 -2 13 -5z"/>
</g>
</svg>
