<?xml version="1.0" standalone="no"?>
<!DOCTYPE svg PUBLIC "-//W3C//DTD SVG 20010904//EN" "http://www.w3.org/TR/2001/REC-SVG-20010904/DTD/svg10.dtd">
<svg xmlns="http://www.w3.org/2000/svg" version="1.0" width="360.000000pt" height="360.000000pt" viewBox="0 0 360.000000 360.000000" preserveAspectRatio="xMidYMid meet">

<g transform="translate(0.000000,360.000000) scale(0.100000,-0.100000)" fill="#000000" stroke="none">
<path d="M1677 2844 c-13 -13 -7 -50 19 -125 53 -151 64 -203 75 -374 12 -171 9 -224 -23 -445 -14 -94 -20 -109 -39 -84 -8 9 -37 41 -65 70 -40 40 -62 54 -95 61 -39 8 -44 12 -41 34 3 34 -39 59 -63 39 -11 -9 -14 -22 -10 -37 5 -22 -8 -32 -20 -14 -3 5 -29 17 -58 27 -28 9 -59 22 -67 29 -33 27 -75 1 -130 -80 -13 -20 -35 -46 -152 -178 -29 -33 -31 -37 -32 -77 -1 -25 -3 -25 -106 -33 -120 -9 -130 -11 -130 -31 0 -28 28 -46 56 -36 14 6 54 10 89 10 l64 0 3 -32 c2 -23 10 -36 25 -43 16 -7 25 -22 30 -55 9 -54 10 -554 2 -590 -16 -62 19 -72 267 -75 181 -2 279 8 436 46 127 30 196 57 230 91 16 15 36 28 46 28 9 0 64 -13 122 -29 58 -16 150 -37 205 -46 55 -10 103 -20 107 -24 4 -4 -25 -8 -65 -10 -39 -1 -88 -4 -107 -6 -59 -7 -222 -17 -280 -19 -45 -1 -62 -7 -94 -31 -69 -53 -126 -107 -126 -120 0 -29 34 -23 92 16 34 23 77 46 97 51 88 22 111 26 186 32 44 3 103 8 130 11 114 13 173 13 254 -1 139 -24 221 -16 221 21 0 25 -37 57 -75 65 -22 5 -107 22 -190 39 -241 49 -435 96 -435 106 0 2 14 29 31 59 43 79 57 176 43 291 -21 172 -57 253 -141 317 -53 39 -125 78 -146 78 -29 0 -35 20 -21 73 41 158 48 509 12 682 -11 55 -29 127 -41 160 -11 33 -25 82 -31 110 -9 38 -16 51 -32 53 -11 2 -23 0 -27 -4z m-352 -906 c32 -14 32 -21 -6 -68 -33 -41 -47 -105 -35 -155 8 -32 72 -94 106 -102 36 -9 167 12 222 36 30 13 55 33 70 55 15 24 28 34 38 30 8 -4 29 -11 45 -17 82 -27 148 -64 190 -107 40 -40 49 -58 66 -126 32 -127 35 -227 10 -302 -50 -147 -129 -219 -284 -260 -198 -52 -216 -54 -422 -55 -138 0 -207 3 -223 12 -21 11 -22 16 -22 164 0 174 -17 476 -30 526 -6 24 -5 44 7 73 13 33 14 44 4 60 -14 22 -14 22 74 118 28 30 57 64 65 76 20 27 60 54 82 54 9 0 29 -5 43 -12z m200 -88 c33 -17 75 -43 94 -59 l34 -28 -29 -32 c-20 -22 -46 -36 -84 -46 -103 -27 -156 -16 -185 39 -15 28 -16 38 -6 69 14 42 63 87 94 87 12 0 49 -14 82 -30z"/>
</g>
</svg>
