<?xml version="1.0" standalone="no"?>
<!DOCTYPE svg PUBLIC "-//W3C//DTD SVG 20010904//EN" "http://www.w3.org/TR/2001/REC-SVG-20010904/DTD/svg10.dtd">
<svg xmlns="http://www.w3.org/2000/svg" version="1.0" width="360.000000pt" height="360.000000pt" viewBox="0 0 360.000000 360.000000" preserveAspectRatio="xMidYMid meet">

<g transform="translate(0.000000,360.000000) scale(0.100000,-0.100000)" fill="#000000" stroke="none">
<path d="M2611 2335 c-56 -51 -101 -144 -101 -209 0 -56 44 -156 91 -206 18 -20 23 -34 18 -48 -4 -10 -10 -35 -13 -54 -7 -46 -62 -201 -93 -262 -14 -27 -43 -75 -65 -107 -80 -118 -290 -334 -341 -351 -18 -6 -39 -16 -47 -23 -19 -17 -94 -50 -145 -65 -22 -7 -92 -34 -155 -60 -184 -76 -257 -101 -292 -103 -48 -2 -128 10 -178 28 -23 8 -58 15 -77 15 -19 0 -62 7 -96 15 -34 8 -122 26 -196 40 -74 14 -146 32 -160 39 -66 34 -86 31 -166 -23 -41 -28 -78 -51 -83 -51 -4 0 -25 -9 -47 -20 -22 -11 -49 -20 -61 -20 -12 0 -29 -3 -38 -6 -18 -7 -22 -49 -5 -60 28 -17 172 33 279 97 32 20 40 20 100 10 98 -17 175 -31 280 -53 52 -10 122 -23 155 -28 33 -6 80 -17 105 -25 25 -8 62 -16 82 -18 20 -2 43 -9 51 -15 17 -14 70 -10 91 7 8 7 56 27 108 46 51 18 131 50 178 70 47 20 114 47 150 59 36 13 91 35 123 50 31 15 62 24 68 21 5 -4 18 0 28 9 26 24 85 11 371 -80 58 -18 143 -42 190 -54 152 -38 151 -38 60 -37 -47 0 -121 -3 -165 -6 -44 -4 -156 -9 -250 -12 -93 -4 -177 -8 -185 -10 -8 -3 -31 -7 -50 -10 -51 -9 -80 -31 -80 -61 0 -29 85 -117 159 -165 51 -33 61 -35 61 -14 0 28 -29 73 -77 119 -58 56 -53 61 61 71 45 3 97 8 116 10 51 5 354 19 363 17 4 -1 52 -2 106 -3 94 -1 101 -2 115 -24 9 -14 18 -35 20 -47 3 -13 5 -23 6 -23 1 0 4 -20 6 -44 4 -47 18 -64 46 -55 10 3 21 -3 28 -16 14 -25 27 -26 35 -1 3 11 16 21 27 23 33 5 32 24 -2 45 -18 10 -45 44 -67 83 -32 58 -34 68 -24 95 10 27 9 32 -14 52 -15 13 -33 23 -41 23 -8 0 -14 6 -14 13 0 7 -9 30 -21 52 -25 46 -91 234 -114 324 -9 35 -30 104 -46 153 -17 49 -29 94 -27 99 4 11 125 -222 324 -624 23 -45 34 -83 35 -117 2 -32 8 -55 19 -65 15 -13 18 -13 36 8 49 58 48 51 11 124 -19 37 -71 142 -117 233 -45 91 -95 188 -111 215 -16 28 -29 55 -29 61 0 6 -25 55 -55 108 -31 53 -53 101 -49 108 4 6 1 16 -7 22 -8 6 -23 31 -34 56 -11 25 -35 66 -52 92 -20 28 -33 60 -33 78 0 33 11 41 87 60 50 13 75 44 100 124 16 52 20 56 53 62 19 4 39 9 43 11 15 9 -15 32 -49 39 -20 4 -34 12 -34 21 0 27 -49 121 -77 147 -29 27 -61 40 -125 51 -33 5 -42 2 -77 -30z m115 -66 c3 -6 21 -17 39 -25 50 -20 72 -85 56 -160 -8 -34 -24 -68 -43 -90 -34 -38 -54 -43 -63 -16 -8 28 -51 45 -68 28 -12 -12 -18 -6 -40 40 -15 30 -27 70 -27 90 0 45 23 100 52 124 25 21 83 26 94 9z m-68 -656 c12 -55 35 -127 131 -418 52 -157 69 -205 83 -232 20 -41 15 -40 -152 2 -70 18 -273 80 -330 101 -19 7 -56 18 -82 24 -27 7 -48 16 -48 20 0 3 24 33 53 66 79 90 138 163 183 229 46 66 134 233 134 253 0 6 3 12 8 12 4 0 13 -26 20 -57z"/>
</g>
</svg>
