<?xml version="1.0" standalone="no"?>
<!DOCTYPE svg PUBLIC "-//W3C//DTD SVG 20010904//EN" "http://www.w3.org/TR/2001/REC-SVG-20010904/DTD/svg10.dtd">
<svg xmlns="http://www.w3.org/2000/svg" version="1.0" width="360.000000pt" height="360.000000pt" viewBox="0 0 360.000000 360.000000" preserveAspectRatio="xMidYMid meet">

<g transform="translate(0.000000,360.000000) scale(0.100000,-0.100000)" fill="#000000" stroke="none">
<path d="M1407 2220 c-21 -51 -45 -129 -52 -175 -6 -35 -14 -45 -68 -80 -34 -22 -89 -63 -122 -91 -33 -27 -91 -68 -130 -89 -38 -22 -79 -45 -90 -52 -11 -7 -31 -18 -45 -25 -71 -37 -78 -96 -15 -140 22 -15 56 -30 75 -34 19 -4 56 -17 82 -30 26 -13 53 -24 59 -24 6 0 55 -22 108 -48 81 -40 131 -60 197 -77 15 -4 10 -615 -6 -625 -12 -7 -163 -5 -235 4 -259 33 -387 56 -435 79 -34 17 -53 11 -73 -22 -9 -16 -42 -45 -72 -66 -30 -20 -55 -42 -55 -50 0 -44 29 -58 65 -30 131 101 128 100 250 67 44 -12 103 -22 130 -22 28 0 82 -7 120 -15 39 -8 122 -17 185 -20 137 -7 177 6 197 65 12 36 11 569 -1 589 -3 5 16 12 42 16 26 3 67 13 92 20 25 8 106 24 180 35 284 44 383 67 457 107 34 18 66 33 72 33 10 0 8 -147 -6 -370 -10 -171 -5 -470 8 -486 7 -8 48 -13 124 -13 102 -1 115 1 124 18 18 34 -18 54 -108 59 l-78 4 -7 114 c-4 62 -5 159 -1 216 9 173 16 308 18 410 2 84 5 99 22 112 11 9 30 16 43 16 17 0 22 6 22 25 0 22 4 25 38 25 45 1 106 22 134 47 12 10 38 44 59 77 30 46 50 64 89 82 28 13 50 30 50 38 0 17 -42 31 -65 22 -12 -4 -15 3 -16 32 0 59 -30 124 -64 142 -16 8 -35 21 -43 28 -7 6 -30 12 -51 12 -66 0 -155 -81 -186 -171 -19 -52 -19 -164 -1 -216 12 -35 12 -42 -4 -63 l-17 -23 -89 27 c-49 14 -100 29 -112 32 -13 2 -43 12 -65 20 -23 8 -51 18 -62 21 -11 3 -51 19 -90 35 -38 17 -79 34 -90 38 -11 4 -31 12 -45 18 -14 6 -101 37 -195 67 -196 65 -237 86 -230 118 11 50 25 142 25 162 0 12 -6 30 -14 40 -13 19 -15 18 -29 -15z m1259 -190 c9 -8 23 -30 31 -49 38 -90 -66 -261 -159 -261 -35 0 -57 41 -65 116 -7 67 15 130 62 177 27 27 40 33 73 32 22 0 48 -7 58 -15z m-1207 -130 c44 0 502 -163 590 -210 15 -8 62 -23 209 -66 34 -10 62 -20 62 -24 0 -3 -36 -24 -79 -48 -72 -38 -114 -51 -221 -68 -19 -3 -59 -12 -89 -20 -30 -7 -84 -16 -120 -20 -36 -3 -79 -9 -96 -14 -180 -48 -254 -36 -490 75 -55 26 -127 58 -160 70 -80 31 -135 57 -135 65 0 10 98 73 138 89 17 8 32 17 32 21 0 3 21 22 48 40 26 18 61 45 77 60 17 15 54 41 83 58 l53 30 39 -19 c22 -11 48 -19 59 -19z"/>
</g>
</svg>
