<?xml version="1.0" standalone="no"?>
<!DOCTYPE svg PUBLIC "-//W3C//DTD SVG 20010904//EN" "http://www.w3.org/TR/2001/REC-SVG-20010904/DTD/svg10.dtd">
<svg xmlns="http://www.w3.org/2000/svg" version="1.0" width="360.000000pt" height="360.000000pt" viewBox="0 0 360.000000 360.000000" preserveAspectRatio="xMidYMid meet">

<g transform="translate(0.000000,360.000000) scale(0.100000,-0.100000)" fill="#000000" stroke="none">
<path d="M2609 1978 c-76 -50 -91 -66 -126 -137 -19 -40 -26 -68 -24 -106 1 -47 -1 -54 -30 -76 -39 -29 -113 -51 -289 -84 -155 -28 -252 -33 -435 -22 -98 7 -147 15 -200 34 -81 29 -132 42 -195 49 -39 5 -48 3 -68 -19 -30 -32 -43 -91 -32 -142 4 -22 14 -80 20 -129 7 -50 26 -128 42 -175 51 -150 61 -197 53 -246 l-6 -46 -102 2 c-90 1 -249 25 -402 59 -27 6 -57 12 -65 14 -8 2 -28 8 -44 15 -27 11 -32 9 -65 -22 -20 -18 -70 -56 -111 -83 -87 -57 -94 -64 -76 -82 15 -15 12 -16 161 69 65 37 72 39 130 33 33 -3 80 -11 105 -19 102 -29 284 -53 411 -54 97 -1 110 6 135 76 22 63 17 112 -20 190 -43 89 -106 347 -106 429 0 37 10 51 35 55 30 4 116 -11 146 -27 56 -28 146 -40 383 -51 130 -6 289 14 401 49 17 5 53 13 80 18 28 5 58 11 67 15 15 6 15 2 3 -52 -26 -107 -10 -413 29 -548 22 -75 71 -193 93 -223 19 -25 21 -26 136 -24 149 1 164 8 106 51 -23 17 -48 24 -93 27 -56 3 -64 6 -94 41 -56 63 -87 145 -112 295 -18 110 -21 157 -16 230 7 95 27 181 52 230 14 27 15 28 44 13 80 -41 170 -28 266 40 49 34 63 50 81 95 20 51 24 55 58 58 38 3 58 28 35 42 -7 5 -28 6 -45 3 -31 -5 -32 -4 -44 42 -7 30 -25 60 -49 85 -33 34 -44 39 -98 44 -59 5 -63 4 -125 -36z m137 -40 c35 2 66 -41 72 -98 6 -64 -10 -102 -61 -145 -37 -32 -46 -35 -106 -35 -57 0 -70 4 -94 25 -64 60 -9 197 98 245 22 10 47 16 55 13 8 -3 24 -5 36 -5z"/>
</g>
</svg>
