<?xml version="1.0" standalone="no"?>
<!DOCTYPE svg PUBLIC "-//W3C//DTD SVG 20010904//EN" "http://www.w3.org/TR/2001/REC-SVG-20010904/DTD/svg10.dtd">
<svg xmlns="http://www.w3.org/2000/svg" version="1.0" width="360.000000pt" height="360.000000pt" viewBox="0 0 360.000000 360.000000" preserveAspectRatio="xMidYMid meet">

<g transform="translate(0.000000,360.000000) scale(0.100000,-0.100000)" fill="#000000" stroke="none">
<path d="M3431 1495 c-47 -13 -103 -26 -125 -28 -23 -2 -79 -12 -126 -21 -65 -12 -107 -14 -180 -8 -120 9 -155 3 -214 -36 -45 -31 -56 -33 -174 -42 -70 -6 -141 -14 -159 -19 -26 -8 -122 -11 -378 -13 -45 0 -487 14 -548 17 -49 4 -86 1 -100 -6 -22 -12 -522 -14 -742 -3 -55 3 -183 6 -285 8 -102 2 -193 6 -202 10 -13 6 -39 -11 -102 -64 -91 -78 -121 -122 -62 -94 60 29 91 47 120 71 l28 24 277 -6 c152 -3 362 -8 466 -10 105 -3 280 -6 391 -7 l201 -3 -8 -30 c-12 -42 -11 -295 2 -413 11 -100 2 -173 -22 -187 -16 -11 -249 -2 -364 14 -44 6 -127 15 -185 20 l-104 10 -51 -53 c-28 -30 -66 -59 -88 -67 -28 -10 -37 -18 -37 -36 0 -49 59 -38 133 24 71 60 81 63 203 52 60 -5 118 -11 129 -14 12 -2 61 -7 110 -10 50 -3 122 -8 161 -11 87 -7 134 10 164 58 20 30 21 42 14 143 -10 146 -11 453 -2 487 l8 26 440 -1 440 -2 12 -35 c12 -34 19 -513 9 -619 -8 -82 49 -99 182 -55 39 13 46 18 36 30 -8 9 -33 14 -79 14 l-68 0 -1 273 c-1 248 -4 322 -17 384 -4 19 2 23 48 32 29 5 70 12 90 14 l36 5 -4 -51 c-7 -70 17 -115 76 -144 24 -13 56 -23 71 -23 19 0 30 -6 34 -20 9 -28 20 -25 45 10 12 17 27 30 33 30 25 0 117 71 133 103 10 19 18 57 18 94 l1 61 55 11 c30 6 116 22 190 37 74 14 148 27 164 29 38 4 54 21 40 43 -16 24 -38 24 -133 -3z m-378 -147 c8 -23 -5 -82 -25 -110 -31 -45 -80 -68 -148 -71 -57 -2 -64 0 -87 27 -20 24 -24 37 -20 68 7 49 22 68 56 68 14 1 53 7 86 14 78 18 132 19 138 4z"/>
</g>
</svg>
