<?xml version="1.0" standalone="no"?>
<!DOCTYPE svg PUBLIC "-//W3C//DTD SVG 20010904//EN" "http://www.w3.org/TR/2001/REC-SVG-20010904/DTD/svg10.dtd">
<svg xmlns="http://www.w3.org/2000/svg" version="1.0" width="360.000000pt" height="360.000000pt" viewBox="0 0 360.000000 360.000000" preserveAspectRatio="xMidYMid meet">

<g transform="translate(0.000000,360.000000) scale(0.100000,-0.100000)" fill="#000000" stroke="none">
<path d="M2490 1644 c-25 -7 -54 -13 -66 -13 -12 -1 -40 -15 -64 -32 -38 -28 -49 -31 -97 -27 -45 4 -56 1 -67 -14 -12 -17 -28 -18 -192 -17 -261 2 -329 1 -641 -4 -307 -6 -319 -8 -342 -65 -17 -45 -39 -246 -46 -422 -5 -148 -14 -284 -18 -286 -11 -3 -320 17 -372 25 -38 6 -116 17 -172 25 -56 8 -107 17 -112 21 -6 3 -21 -5 -33 -17 -28 -28 -98 -82 -127 -97 -11 -7 -21 -19 -21 -27 0 -23 40 -11 119 37 79 48 46 49 421 -11 94 -15 341 -13 356 3 6 6 8 44 18 272 12 267 20 328 46 360 7 8 10 25 6 38 -3 13 2 35 12 52 l18 28 219 4 c225 4 511 5 668 3 l87 -2 1 -136 c4 -366 4 -426 0 -539 -3 -68 -2 -126 2 -129 7 -7 26 -10 137 -23 83 -9 90 -8 90 18 0 27 -18 37 -92 51 -38 7 -69 13 -69 14 -1 0 -3 170 -5 377 l-4 376 70 10 69 9 -6 -25 c-11 -44 -6 -91 12 -111 27 -30 97 -60 138 -60 26 0 41 -6 49 -20 17 -27 37 -25 48 5 5 14 15 25 23 25 7 0 36 11 64 25 60 30 104 88 112 148 l6 42 120 7 c67 3 157 14 200 23 84 17 253 34 294 30 29 -3 61 14 61 32 0 39 -112 34 -410 -18 -92 -16 -289 -23 -313 -11 -32 16 -146 62 -149 61 -2 -1 -23 -7 -48 -15z m180 -134 c0 -36 -43 -99 -80 -117 -37 -18 -153 -29 -194 -19 -54 13 -70 59 -41 116 17 32 16 32 218 38 93 3 97 2 97 -18z"/>
</g>
</svg>
