<?xml version="1.0" standalone="no"?>
<!DOCTYPE svg PUBLIC "-//W3C//DTD SVG 20010904//EN" "http://www.w3.org/TR/2001/REC-SVG-20010904/DTD/svg10.dtd">
<svg xmlns="http://www.w3.org/2000/svg" version="1.0" width="360.000000pt" height="360.000000pt" viewBox="0 0 360.000000 360.000000" preserveAspectRatio="xMidYMid meet">

<g transform="translate(0.000000,360.000000) scale(0.100000,-0.100000)" fill="#000000" stroke="none">
<path d="M1303 1570 c-23 -9 -53 -57 -53 -84 0 -8 -7 -35 -15 -58 -16 -49 -21 -170 -11 -273 14 -141 21 -272 19 -335 -1 -36 -2 -79 -2 -95 l-1 -31 -77 3 c-43 1 -150 4 -238 7 -160 4 -363 37 -440 71 -60 26 -63 26 -95 -15 -17 -21 -56 -53 -88 -71 -96 -54 -147 -99 -111 -99 15 0 191 81 210 97 24 20 134 16 271 -11 69 -14 199 -29 298 -36 96 -6 201 -13 233 -16 32 -3 70 -3 84 1 l26 6 -6 232 c-4 128 -9 246 -13 262 -4 17 -7 86 -8 155 -1 100 3 135 18 174 18 47 19 48 54 42 19 -3 68 -21 109 -41 206 -99 302 -141 425 -184 48 -17 101 -37 118 -46 16 -8 67 -29 112 -45 46 -17 92 -35 103 -40 11 -5 61 -21 110 -36 130 -38 203 -78 297 -161 46 -40 86 -73 91 -73 4 0 7 -24 7 -54 0 -47 5 -61 38 -104 44 -60 73 -84 126 -106 44 -19 73 -19 136 -3 44 12 47 11 93 -22 34 -24 48 -40 46 -55 -3 -46 -1 -49 41 -43 22 3 40 1 40 -4 0 -12 37 -11 61 1 17 9 18 18 13 65 l-7 55 52 60 c64 74 66 103 9 108 -25 2 -38 8 -38 18 0 16 -35 54 -50 54 -5 0 -19 -9 -30 -20 l-20 -20 -35 22 c-19 13 -40 35 -46 51 -14 34 -74 87 -98 87 -10 0 -24 6 -30 14 -16 19 -102 46 -148 46 -44 0 -108 -38 -118 -70 -7 -23 -25 -17 -25 8 0 10 -13 34 -30 53 -22 27 -39 38 -69 42 -22 3 -78 23 -123 45 -46 21 -119 49 -163 62 -44 12 -84 26 -90 30 -5 4 -23 10 -38 14 -15 4 -71 25 -125 47 -101 42 -106 44 -262 105 -122 47 -193 78 -365 159 -38 19 -82 37 -98 40 -15 4 -30 11 -33 16 -6 11 -12 11 -41 -1z m1639 -620 c16 0 145 -92 160 -114 13 -18 9 -65 -7 -96 l-15 -29 -35 22 c-19 12 -72 44 -117 70 -126 73 -126 72 -108 105 19 32 58 54 85 47 11 -2 28 -5 37 -5z m-17 -231 l89 -54 -38 -3 c-55 -5 -93 15 -137 71 -40 50 -52 81 -21 55 9 -8 57 -39 107 -69z m290 27 c34 -14 35 -17 35 -68 0 -81 -9 -87 -66 -48 -27 18 -51 35 -53 36 -2 2 4 10 12 18 8 9 18 29 22 46 8 35 6 34 50 16z"/>
</g>
</svg>
