<?xml version="1.0" standalone="no"?>
<!DOCTYPE svg PUBLIC "-//W3C//DTD SVG 20010904//EN" "http://www.w3.org/TR/2001/REC-SVG-20010904/DTD/svg10.dtd">
<svg xmlns="http://www.w3.org/2000/svg" version="1.0" width="360.000000pt" height="360.000000pt" viewBox="0 0 360.000000 360.000000" preserveAspectRatio="xMidYMid meet">

<g transform="translate(0.000000,360.000000) scale(0.100000,-0.100000)" fill="#000000" stroke="none">
<path d="M2663 1475 c-51 -15 -133 -62 -133 -76 0 -7 -55 -8 -162 -3 -302 13 -850 11 -883 -2 -37 -15 -59 -52 -75 -125 -12 -55 -12 -105 6 -462 5 -99 4 -121 -10 -142 -11 -16 -21 -23 -29 -18 -7 4 -115 9 -242 11 -399 5 -399 5 -458 -22 -29 -14 -65 -26 -79 -28 -14 -2 -33 -10 -42 -17 -17 -15 -21 -46 -7 -55 13 -8 153 30 202 55 40 20 52 21 134 14 49 -4 169 -9 265 -10 96 -1 200 -4 230 -6 l54 -4 26 45 c22 39 25 56 24 130 -1 47 -8 135 -15 195 -16 123 -10 304 10 346 l13 27 47 -18 c79 -30 154 -60 196 -79 22 -10 56 -22 75 -26 59 -13 224 -75 242 -92 16 -14 16 -17 1 -31 -13 -14 -136 -60 -288 -108 -27 -9 -54 -19 -60 -24 -5 -4 -35 -13 -65 -20 -30 -7 -60 -20 -67 -29 -15 -19 -17 -58 -3 -66 6 -3 10 -21 10 -39 0 -36 34 -77 50 -60 5 5 10 34 12 64 l3 55 62 31 c60 29 216 85 276 98 16 4 57 20 93 37 72 34 84 56 61 111 -13 31 -23 38 -93 63 -44 15 -99 35 -124 45 -25 10 -63 21 -85 25 -22 4 -44 10 -50 14 -5 4 -37 17 -70 30 -33 13 -64 27 -69 32 -7 6 372 6 628 0 38 -1 38 -2 32 -33 -19 -108 -27 -241 -28 -457 -1 -196 2 -245 13 -252 8 -5 52 -8 99 -7 77 3 85 5 85 23 0 19 -4 21 -102 41 -16 3 -24 14 -29 39 -18 100 -8 447 19 578 l11 57 38 0 c21 0 38 -5 38 -11 0 -7 10 -9 26 -5 18 5 24 3 19 -4 -11 -19 16 -98 42 -124 22 -22 83 -37 173 -40 9 -1 15 -10 15 -23 0 -11 3 -25 7 -29 11 -11 48 26 48 48 0 10 8 21 18 25 93 31 119 60 125 135 2 21 5 40 8 42 4 5 152 15 314 22 129 5 215 15 221 26 3 5 -1 20 -10 33 -14 21 -20 23 -43 14 -32 -12 -71 -15 -331 -24 l-202 -8 -28 31 c-15 16 -36 34 -47 40 -27 13 -91 12 -142 -3z m122 -76 c5 -5 -26 -9 -75 -9 -50 0 -80 4 -74 9 5 5 18 11 29 13 29 6 108 -3 120 -13z m81 -79 c4 -76 -77 -117 -219 -112 -54 3 -89 40 -85 90 l3 37 100 3 c55 1 116 4 135 6 57 5 65 2 66 -24z"/>
</g>
</svg>
