<?xml version="1.0" standalone="no"?>
<!DOCTYPE svg PUBLIC "-//W3C//DTD SVG 20010904//EN" "http://www.w3.org/TR/2001/REC-SVG-20010904/DTD/svg10.dtd">
<svg xmlns="http://www.w3.org/2000/svg" version="1.0" width="360.000000pt" height="360.000000pt" viewBox="0 0 360.000000 360.000000" preserveAspectRatio="xMidYMid meet">

<g transform="translate(0.000000,360.000000) scale(0.100000,-0.100000)" fill="#000000" stroke="none">
<path d="M1771 1307 c-38 -10 -54 -24 -109 -92 -91 -113 -95 -117 -210 -242 -103 -112 -244 -239 -312 -280 -33 -20 -51 -25 -145 -37 -17 -2 -58 0 -90 5 -33 5 -91 13 -130 19 -189 27 -226 34 -300 57 -44 14 -91 34 -104 44 -13 11 -29 19 -35 19 -39 0 -202 -195 -185 -221 8 -12 11 -11 19 3 11 17 142 124 150 121 3 0 24 -4 48 -7 23 -3 50 -9 60 -14 35 -17 211 -51 347 -67 77 -9 159 -21 182 -26 101 -22 155 -2 293 109 86 70 314 302 405 414 101 123 185 191 185 149 0 -10 12 -24 27 -32 30 -16 361 -233 380 -249 7 -5 14 -10 17 -10 2 0 44 -26 93 -58 102 -67 197 -118 268 -143 42 -14 52 -23 62 -53 17 -50 54 -102 92 -130 28 -21 36 -22 84 -14 28 6 93 8 142 5 104 -6 135 5 110 39 -20 26 -19 37 3 25 26 -14 114 -7 152 12 30 16 64 16 113 1 27 -8 34 25 8 43 -22 15 -22 15 -3 37 76 82 77 195 5 268 -34 34 -47 40 -96 45 -48 5 -67 1 -135 -26 -103 -42 -172 -106 -192 -177 -16 -57 -23 -64 -70 -64 -30 0 -44 9 -96 63 -34 34 -68 76 -77 92 -13 26 -25 43 -67 93 -14 16 -32 15 -54 -1 -18 -13 -18 -17 9 -96 15 -45 25 -85 22 -87 -12 -12 -225 101 -257 137 -3 3 -41 27 -85 53 -126 75 -245 148 -305 188 -30 20 -76 46 -101 56 -26 11 -50 25 -53 31 -8 13 -8 13 -65 -2z m1577 -352 c32 -37 30 -108 -4 -158 -65 -96 -150 -120 -250 -71 -45 22 -53 30 -56 57 -9 84 61 156 192 198 42 14 93 2 118 -26z m-604 -142 c11 -13 16 -23 13 -23 -10 0 -37 31 -37 42 0 6 1 9 3 7 1 -2 11 -14 21 -26z m75 -97 c35 -8 74 -9 109 -5 43 6 57 4 70 -9 10 -9 29 -25 42 -34 25 -17 24 -17 -40 -16 -36 1 -81 -1 -101 -5 -29 -5 -44 -1 -76 19 -31 21 -74 66 -61 64 2 -1 27 -7 57 -14z"/>
</g>
</svg>
