<?xml version="1.0" standalone="no"?>
<!DOCTYPE svg PUBLIC "-//W3C//DTD SVG 20010904//EN" "http://www.w3.org/TR/2001/REC-SVG-20010904/DTD/svg10.dtd">
<svg xmlns="http://www.w3.org/2000/svg" version="1.0" width="360.000000pt" height="360.000000pt" viewBox="0 0 360.000000 360.000000" preserveAspectRatio="xMidYMid meet">

<g transform="translate(0.000000,360.000000) scale(0.100000,-0.100000)" fill="#000000" stroke="none">
<path d="M1685 2013 c-11 -3 -33 -17 -50 -32 -66 -61 -261 -134 -445 -166 -42 -7 -100 -20 -130 -29 -30 -8 -75 -16 -99 -18 -44 -2 -61 -18 -43 -41 5 -6 13 -28 17 -47 8 -36 35 -106 60 -152 8 -14 15 -33 15 -41 0 -25 115 -191 161 -231 24 -21 59 -51 77 -67 24 -21 31 -35 27 -49 -3 -11 -1 -29 6 -41 23 -44 41 -357 26 -468 -13 -100 -16 -103 -94 -97 -35 3 -68 8 -71 10 -12 7 -221 42 -367 62 -27 3 -53 8 -58 11 -10 6 -220 -77 -229 -91 -25 -37 7 -55 57 -32 123 59 243 60 515 6 202 -41 253 -46 274 -25 39 40 49 187 33 498 -3 59 -3 107 1 107 4 0 32 -7 62 -16 73 -20 413 -30 530 -14 78 10 172 26 293 50 67 14 82 13 69 -3 -13 -15 3 -54 95 -246 93 -194 96 -176 -37 -240 -112 -54 -261 -155 -280 -190 -13 -25 -4 -48 21 -54 15 -4 32 7 62 38 79 81 182 141 375 216 38 15 32 37 -66 234 -19 39 -48 97 -64 130 -16 32 -31 69 -32 81 -1 13 -8 30 -15 38 -11 13 -8 16 16 22 15 4 37 13 48 21 17 12 23 10 50 -20 46 -51 95 -69 174 -66 58 3 70 0 91 -19 43 -40 78 -27 53 21 -14 29 -14 31 3 43 62 42 99 116 103 200 l2 57 -56 54 -57 55 -56 -7 c-30 -4 -87 -22 -126 -40 -112 -53 -172 -131 -163 -210 4 -41 4 -42 -14 -24 -18 18 -22 18 -54 4 -50 -20 -90 -2 -198 92 -48 42 -187 200 -240 272 -22 31 -59 79 -82 106 -23 28 -67 89 -98 137 -59 92 -87 117 -106 94 -8 -10 5 -39 55 -121 36 -60 83 -129 105 -153 21 -25 54 -68 73 -97 62 -93 264 -314 326 -357 l25 -17 -30 0 c-17 -1 -45 -5 -64 -11 -19 -5 -53 -12 -75 -15 -23 -3 -66 -10 -96 -16 -84 -15 -433 -10 -515 7 -101 21 -106 23 -117 55 -5 16 -16 29 -22 29 -7 0 -31 19 -53 43 -22 23 -55 53 -73 67 -43 32 -88 103 -170 267 l-66 131 25 6 c14 3 94 19 176 36 169 35 271 63 330 90 128 57 154 73 197 118 57 58 52 72 -17 55z m1139 -644 c30 -36 34 -80 10 -138 -37 -92 -151 -137 -240 -95 -45 22 -64 50 -64 96 0 32 7 46 45 83 24 25 50 45 57 45 7 1 31 9 53 20 62 30 108 26 139 -11z"/>
</g>
</svg>
