<?xml version="1.0" standalone="no"?>
<!DOCTYPE svg PUBLIC "-//W3C//DTD SVG 20010904//EN" "http://www.w3.org/TR/2001/REC-SVG-20010904/DTD/svg10.dtd">
<svg xmlns="http://www.w3.org/2000/svg" version="1.0" width="360.000000pt" height="360.000000pt" viewBox="0 0 360.000000 360.000000" preserveAspectRatio="xMidYMid meet">

<g transform="translate(0.000000,360.000000) scale(0.100000,-0.100000)" fill="#000000" stroke="none">
<path d="M1330 1340 c-25 -5 -85 -14 -135 -20 -134 -17 -231 -38 -274 -60 -45 -23 -91 -74 -91 -101 0 -25 21 -32 150 -52 99 -16 277 -59 364 -88 27 -9 46 -25 59 -47 29 -49 11 -63 -95 -69 -83 -6 -110 -2 -403 48 -125 22 -298 73 -326 96 -13 11 -20 10 -42 -7 -14 -11 -28 -20 -31 -20 -8 0 -104 -66 -131 -90 -11 -10 -37 -24 -59 -31 -45 -16 -55 -34 -33 -57 15 -14 21 -13 74 14 32 16 68 38 80 49 13 11 43 31 68 45 l46 25 77 -28 c42 -16 97 -33 122 -38 25 -5 61 -15 80 -23 41 -16 224 -44 360 -54 121 -9 286 8 332 35 38 22 62 64 53 93 -14 46 -153 126 -234 136 -20 2 -70 15 -111 29 -41 13 -106 29 -145 36 -38 6 -81 16 -95 21 l-25 10 30 12 c17 7 71 23 120 36 80 21 108 23 255 21 91 -2 221 -4 290 -5 77 -1 155 -8 205 -19 44 -10 105 -23 136 -29 l56 -11 -40 -41 c-53 -54 -64 -73 -71 -121 -8 -55 33 -131 89 -162 57 -31 171 -29 263 4 79 29 105 51 129 110 15 36 21 43 38 37 11 -3 36 -7 55 -9 19 -2 78 -20 130 -40 103 -39 255 -75 335 -80 28 -1 70 -6 95 -9 25 -3 83 -9 130 -12 47 -3 90 -10 96 -15 20 -16 64 7 64 33 0 47 -12 51 -125 52 -59 1 -109 -2 -111 -6 -7 -11 -168 1 -254 19 -116 23 -241 68 -358 128 -194 99 -309 143 -477 180 -38 9 -99 23 -135 32 -78 18 -177 39 -205 42 -68 7 -337 8 -375 1z m844 -205 c4 -11 11 -13 29 -6 18 7 37 3 83 -20 32 -16 64 -29 70 -29 41 -1 4 -110 -42 -127 -93 -36 -184 -44 -227 -22 -35 18 -66 62 -67 92 -1 69 133 166 154 112z m-694 -195 c0 -5 -4 -10 -10 -10 -5 0 -10 5 -10 10 0 6 5 10 10 10 6 0 10 -4 10 -10z"/>
</g>
</svg>
