<?xml version="1.0" standalone="no"?>
<!DOCTYPE svg PUBLIC "-//W3C//DTD SVG 20010904//EN" "http://www.w3.org/TR/2001/REC-SVG-20010904/DTD/svg10.dtd">
<svg xmlns="http://www.w3.org/2000/svg" version="1.0" width="360.000000pt" height="360.000000pt" viewBox="0 0 360.000000 360.000000" preserveAspectRatio="xMidYMid meet">

<g transform="translate(0.000000,360.000000) scale(0.100000,-0.100000)" fill="#000000" stroke="none">
<path d="M566 1889 c-9 -13 -16 -27 -16 -32 0 -17 82 -117 117 -144 20 -15 82 -71 138 -124 72 -68 121 -106 176 -134 l77 -39 -17 -36 c-9 -19 -20 -38 -25 -41 -5 -4 -38 -7 -75 -8 -70 -2 -90 -4 -159 -15 -72 -13 -90 -14 -168 -6 -60 6 -82 4 -107 -8 -88 -44 -79 -69 67 -182 25 -19 186 -171 246 -231 55 -56 173 -149 189 -149 7 0 21 -9 33 -19 45 -43 184 -51 398 -26 69 8 150 17 180 20 30 3 91 10 135 15 290 34 483 34 1045 0 274 -17 552 -21 567 -8 28 23 15 55 -34 80 -37 20 -59 42 -98 101 -56 85 -87 100 -106 50 -8 -22 -6 -30 14 -52 14 -14 37 -48 52 -74 l28 -48 -199 6 c-110 3 -264 7 -344 9 -80 2 -161 7 -180 10 -19 4 -94 8 -165 10 -72 1 -139 7 -149 13 -12 7 -31 7 -48 2 -30 -8 -73 -13 -269 -29 -144 -12 -399 -39 -419 -45 -8 -3 -70 -7 -138 -10 -172 -8 -227 9 -256 80 -39 95 -45 300 -11 396 16 45 17 47 68 54 79 12 119 10 157 -7 36 -17 122 -47 270 -93 47 -14 99 -32 115 -40 29 -13 155 -53 240 -77 22 -6 88 -28 147 -49 60 -22 119 -39 133 -39 39 0 165 -21 220 -36 28 -8 92 -14 145 -14 52 0 133 -2 180 -5 99 -7 86 -7 175 -2 50 2 73 -1 80 -10 7 -10 25 -11 70 -6 51 7 60 11 63 30 3 18 -4 24 -38 33 -31 8 -45 8 -55 0 -11 -9 -18 -9 -30 3 -12 12 -47 16 -167 18 -84 1 -187 1 -228 0 -64 -1 -160 13 -245 36 -11 3 -47 7 -80 9 -61 5 -211 39 -230 53 -13 10 -108 43 -205 72 -41 12 -133 41 -205 65 -71 23 -150 48 -175 54 -25 7 -80 28 -122 47 -70 32 -80 41 -108 89 -16 30 -30 55 -30 57 0 1 33 0 73 -4 39 -4 85 -5 100 -2 23 5 33 0 56 -27 34 -41 56 -33 48 16 -5 31 -3 34 36 54 90 44 117 85 117 174 0 45 -5 59 -36 99 -20 26 -39 47 -43 48 -3 0 -17 3 -31 5 -53 10 -167 10 -200 -1 -76 -23 -120 -58 -174 -140 -19 -29 -26 -53 -26 -87 0 -41 5 -54 36 -88 52 -57 28 -49 -37 13 -30 28 -75 67 -100 86 -24 19 -60 53 -79 76 -19 23 -50 52 -67 65 -18 12 -45 33 -59 45 -15 13 -52 35 -83 50 -31 15 -63 33 -71 40 -8 8 -27 16 -41 20 -21 5 -30 2 -43 -16z m326 -258 c48 -47 86 -87 83 -89 -7 -7 -43 23 -158 133 -86 83 -100 101 -62 75 28 -19 89 -72 137 -119z m605 113 c91 -40 83 -133 -17 -184 -71 -37 -202 -51 -250 -27 -34 17 -53 60 -45 99 7 29 86 120 102 116 5 0 15 1 23 5 34 13 47 14 95 12 28 -2 69 -11 92 -21z m-341 -355 c13 -26 14 -33 2 -40 -16 -11 -68 -12 -68 -1 0 10 38 72 45 72 2 0 12 -14 21 -31z m-186 -198 c-23 -87 -25 -189 -5 -281 7 -36 12 -66 10 -68 -2 -2 -50 40 -107 94 -164 155 -230 216 -283 262 l-50 42 30 1 c17 0 56 0 88 -1 31 -1 83 4 115 11 71 14 205 27 214 19 4 -3 -2 -38 -12 -79z"/>
</g>
</svg>
