<?xml version="1.0" standalone="no"?>
<!DOCTYPE svg PUBLIC "-//W3C//DTD SVG 20010904//EN" "http://www.w3.org/TR/2001/REC-SVG-20010904/DTD/svg10.dtd">
<svg xmlns="http://www.w3.org/2000/svg" version="1.0" width="360.000000pt" height="360.000000pt" viewBox="0 0 360.000000 360.000000" preserveAspectRatio="xMidYMid meet">

<g transform="translate(0.000000,360.000000) scale(0.100000,-0.100000)" fill="#000000" stroke="none">
<path d="M1126 2175 c-33 -23 -82 -50 -110 -60 -80 -28 -116 -53 -116 -81 0 -29 28 -32 66 -7 19 12 28 13 33 4 11 -17 90 -423 97 -496 5 -61 -1 -96 -60 -353 -38 -160 -35 -155 -70 -137 -15 8 -36 15 -46 15 -27 0 -32 27 -14 78 32 93 0 220 -74 295 -70 72 -130 81 -230 34 -56 -26 -65 -45 -60 -131 4 -85 37 -161 102 -233 l44 -48 79 -1 c83 0 107 -10 131 -51 22 -41 16 -53 -28 -53 -21 0 -59 -6 -82 -14 -24 -8 -61 -18 -83 -22 -22 -3 -45 -11 -51 -15 -6 -5 -31 -13 -55 -18 -24 -5 -89 -25 -144 -45 -103 -37 -125 -42 -125 -28 0 34 173 232 203 232 16 1 57 35 57 48 0 11 -65 107 -92 137 -15 15 -21 17 -27 7 -10 -17 2 -87 19 -107 11 -13 2 -27 -63 -93 -42 -42 -87 -93 -100 -112 -13 -19 -39 -57 -58 -85 -42 -60 -41 -90 2 -99 41 -8 73 -1 244 53 209 66 250 78 333 92 40 7 75 16 78 21 3 4 13 8 23 8 10 0 25 10 33 22 l15 23 89 -19 c49 -10 127 -22 174 -27 47 -4 146 -15 220 -25 157 -20 397 -22 524 -5 80 11 90 10 107 -5 14 -13 44 -19 112 -23 100 -6 688 -8 777 -3 30 2 138 0 240 -4 l185 -7 15 -31 c20 -42 42 -39 57 7 12 36 4 87 -14 87 -5 0 -105 3 -223 6 -118 3 -235 4 -260 2 -25 -1 -184 -3 -355 -3 -304 0 -420 6 -455 25 -9 5 -26 7 -37 4 -17 -5 -32 12 -89 98 -37 56 -71 105 -74 108 -4 3 -23 30 -44 60 -53 79 -100 147 -149 214 -23 32 -69 98 -102 146 -248 361 -335 484 -383 540 -21 25 -51 62 -66 83 -16 20 -36 37 -45 36 -9 0 -43 -20 -75 -44z m141 -107 c38 -51 96 -131 128 -178 33 -47 81 -116 108 -155 27 -38 78 -115 114 -170 36 -55 86 -127 112 -160 26 -33 62 -85 81 -115 19 -30 42 -66 52 -80 38 -51 130 -193 135 -209 4 -9 12 -23 20 -33 13 -14 12 -17 -4 -22 -73 -21 -353 -22 -513 -2 -74 10 -171 20 -215 23 -44 3 -84 9 -89 14 -6 5 -21 9 -34 9 -13 0 -43 5 -67 11 l-44 11 14 37 c8 20 23 81 34 136 12 55 27 121 35 148 8 26 20 82 26 126 10 75 9 85 -24 217 -18 77 -39 166 -46 199 -7 33 -25 86 -41 117 l-28 56 87 55 c48 30 88 56 88 56 1 1 33 -41 71 -91z m-509 -660 c6 -6 12 -16 12 -24 0 -17 29 -46 40 -39 14 9 34 -67 35 -133 0 -56 -3 -65 -25 -82 -62 -48 -136 -2 -190 118 -43 96 -33 148 35 168 41 12 70 10 93 -8z"/>
</g>
</svg>
