<?xml version="1.0" standalone="no"?>
<!DOCTYPE svg PUBLIC "-//W3C//DTD SVG 20010904//EN" "http://www.w3.org/TR/2001/REC-SVG-20010904/DTD/svg10.dtd">
<svg xmlns="http://www.w3.org/2000/svg" version="1.0" width="360.000000pt" height="360.000000pt" viewBox="0 0 360.000000 360.000000" preserveAspectRatio="xMidYMid meet">

<g transform="translate(0.000000,360.000000) scale(0.100000,-0.100000)" fill="#000000" stroke="none">
<path d="M1720 3061 c-15 -29 -12 -61 5 -61 9 0 43 -22 76 -50 33 -27 64 -50 68 -50 5 0 14 7 21 15 11 13 2 27 -56 89 -72 77 -96 89 -114 57z"/>
<path d="M1903 2891 c3 -13 1 -31 -4 -40 -8 -11 -4 -45 11 -116 24 -113 47 -254 60 -365 5 -41 14 -102 19 -135 6 -33 15 -89 20 -125 9 -57 25 -150 85 -480 18 -97 20 -163 7 -241 -5 -30 -14 -99 -20 -154 -23 -225 -31 -282 -66 -457 -18 -92 -28 -112 -60 -122 -19 -5 -20 -2 -17 34 7 74 -61 168 -139 191 -31 10 -35 14 -31 39 3 22 -1 30 -18 35 -25 8 -40 -3 -43 -32 -1 -17 -10 -22 -51 -26 -28 -2 -52 -10 -54 -16 -2 -6 -8 -11 -14 -11 -18 0 -78 -50 -78 -64 0 -7 -7 -27 -16 -45 -15 -30 -15 -35 7 -88 25 -62 77 -108 135 -119 18 -3 50 -12 70 -19 53 -18 112 -9 167 25 39 24 52 28 63 19 11 -9 18 -8 29 1 22 19 174 -5 295 -46 75 -26 128 -29 150 -9 40 36 19 152 -56 314 -9 18 -20 45 -24 60 -5 14 -18 51 -30 81 -48 123 -80 220 -80 239 0 11 10 51 22 87 21 65 21 67 3 80 -16 12 -21 12 -36 -2 -18 -16 -49 -103 -55 -153 -2 -13 -6 -26 -10 -30 -8 -7 1 66 17 144 26 132 23 205 -15 370 -8 33 -20 87 -26 120 -6 33 -18 89 -26 125 -14 63 -37 215 -69 450 -32 240 -79 440 -112 485 -15 20 -15 20 -10 -4z m364 -1974 c116 -296 122 -323 63 -321 -53 3 -124 16 -136 26 -7 5 -38 13 -69 18 -32 5 -60 12 -63 14 -2 3 1 18 7 33 6 16 16 64 22 108 5 44 12 98 15 120 3 22 11 85 19 140 7 54 11 103 9 107 -3 4 -2 13 2 20 10 15 62 -91 131 -265z m-468 -111 c38 -20 71 -63 71 -91 0 -75 -57 -129 -126 -119 -46 7 -123 33 -143 48 -22 17 -40 68 -34 97 3 15 18 41 34 58 28 31 30 32 99 27 38 -3 83 -12 99 -20z"/>
</g>
</svg>
