<?xml version="1.0" standalone="no"?>
<!DOCTYPE svg PUBLIC "-//W3C//DTD SVG 20010904//EN" "http://www.w3.org/TR/2001/REC-SVG-20010904/DTD/svg10.dtd">
<svg xmlns="http://www.w3.org/2000/svg" version="1.0" width="360.000000pt" height="360.000000pt" viewBox="0 0 360.000000 360.000000" preserveAspectRatio="xMidYMid meet">

<g transform="translate(0.000000,360.000000) scale(0.100000,-0.100000)" fill="#000000" stroke="none">
<path d="M2620 1800 c-25 -17 -60 -41 -78 -52 -23 -14 -30 -24 -23 -31 7 -7 6 -15 -4 -26 -32 -34 -86 -114 -108 -159 -13 -26 -46 -80 -75 -120 -29 -39 -52 -74 -52 -77 0 -5 -44 -74 -59 -91 -5 -6 -11 -20 -15 -31 -10 -31 -50 -64 -70 -57 -11 4 -15 12 -10 23 20 49 11 74 -24 64 -14 -3 -22 -13 -22 -27 0 -32 -13 -46 -46 -50 -40 -6 -144 -55 -144 -68 0 -5 -4 -8 -10 -8 -5 0 -2 16 7 35 16 33 15 36 -2 55 -10 11 -27 20 -37 20 -27 0 -128 -102 -128 -128 0 -26 39 -39 69 -22 26 13 27 1 5 -42 -9 -18 -14 -42 -10 -59 6 -29 -12 -43 -59 -44 -27 -1 -155 -16 -180 -21 -126 -25 -351 -30 -511 -11 -94 11 -139 4 -244 -39 -19 -7 -59 -20 -88 -27 -59 -15 -67 -26 -31 -44 29 -16 82 -16 129 -3 89 27 199 40 266 31 104 -12 323 -3 464 19 69 10 152 21 185 24 33 3 68 8 78 12 12 4 26 -2 45 -21 72 -72 189 -93 314 -55 40 12 88 30 107 41 27 16 51 19 130 18 155 -2 159 0 258 108 105 114 145 196 203 421 20 76 20 90 10 199 -10 97 -16 125 -41 168 -38 68 -65 91 -114 99 -35 6 -47 3 -85 -24z m108 -80 c62 -61 79 -241 38 -395 -44 -165 -75 -230 -146 -308 -104 -114 -121 -128 -143 -121 -12 4 -52 6 -89 5 l-68 -2 0 56 c0 58 -9 82 -50 128 l-24 28 39 75 c22 41 45 82 50 92 6 9 26 44 45 77 19 33 67 109 107 168 40 60 73 109 73 111 0 12 109 115 122 115 9 1 30 -12 46 -29z m-628 -628 c0 -11 -136 -142 -148 -142 -10 0 -42 54 -42 71 0 9 97 65 125 72 32 8 65 8 65 -1z m136 -77 c9 -14 14 -39 12 -62 l-3 -38 -62 1 c-35 0 -80 1 -100 2 l-37 2 68 69 c75 75 88 78 122 26z m-171 -165 c50 0 57 -3 41 -12 -30 -17 -150 -13 -177 6 -22 15 -20 15 27 11 27 -2 76 -4 109 -5z"/>
</g>
</svg>
