<?xml version="1.0" standalone="no"?>
<!DOCTYPE svg PUBLIC "-//W3C//DTD SVG 20010904//EN"
 "http://www.w3.org/TR/2001/REC-SVG-20010904/DTD/svg10.dtd">
<svg version="1.0" xmlns="http://www.w3.org/2000/svg"
 width="360.000000pt" height="360.000000pt" viewBox="0 0 360.000000 360.000000"
 preserveAspectRatio="xMidYMid meet">
<metadata>
Created by potrace 1.13, written by Peter Selinger 2001-2015
</metadata>
<g transform="translate(0.000000,360.000000) scale(0.100000,-0.100000)"
fill="#000000" stroke="none">
<path d="M848 1784 c-9 -8 3 -39 64 -164 31 -63 58 -133 61 -155 3 -22 12 -61
20 -87 12 -38 12 -48 2 -48 -7 0 -15 16 -18 37 -4 25 -19 48 -47 75 -23 21
-47 38 -53 38 -7 0 -24 6 -39 14 -15 8 -40 17 -57 21 -22 5 -33 14 -37 31 -4
16 -13 24 -28 24 -34 0 -48 -14 -41 -42 6 -23 3 -27 -26 -33 -67 -15 -102 -57
-113 -137 -15 -101 21 -152 127 -178 86 -22 236 13 308 71 43 34 64 20 65 -43
1 -29 7 -134 15 -233 7 -99 13 -236 14 -305 0 -106 2 -125 16 -128 12 -2 19
14 32 73 20 87 21 144 7 234 -6 35 -15 122 -21 195 -5 72 -12 152 -15 179 l-6
47 38 2 c45 2 49 2 174 12 142 11 201 16 240 21 114 16 403 27 443 17 10 -2
22 -13 28 -24 14 -27 -26 -74 -164 -195 -62 -54 -117 -102 -123 -108 -6 -5
-30 -26 -54 -45 -24 -19 -49 -40 -55 -47 -7 -6 -30 -24 -52 -40 -23 -15 -65
-49 -94 -74 -30 -25 -85 -65 -124 -89 -38 -24 -89 -60 -113 -81 -23 -20 -58
-44 -76 -53 -18 -9 -38 -22 -45 -30 -8 -9 -38 -14 -103 -15 -50 -1 -95 -4
-100 -7 -4 -3 -8 -16 -8 -29 0 -30 32 -50 59 -36 10 6 61 16 112 23 86 11 97
15 134 48 51 47 159 128 210 160 47 28 158 117 305 243 14 12 55 47 90 77 36
30 107 92 158 137 104 92 124 100 230 88 37 -4 126 -9 197 -11 72 -1 176 -5
232 -8 56 -3 186 -8 290 -11 194 -5 250 -11 270 -27 8 -6 22 7 47 47 20 30 36
59 36 63 0 4 9 13 21 20 31 20 23 66 -13 70 -21 3 -30 -2 -38 -20 -20 -48 -54
-76 -105 -85 -54 -10 -359 -9 -515 2 -52 3 -158 7 -235 9 -77 1 -145 5 -151 9
-6 3 -35 7 -65 8 -49 2 -55 5 -69 32 -8 17 -31 39 -50 49 -32 17 -52 18 -220
13 -187 -6 -203 -7 -275 -18 -22 -4 -99 -9 -172 -12 -72 -3 -140 -7 -151 -10
-21 -4 -103 -7 -138 -6 -18 1 -22 9 -27 54 -9 70 -39 157 -77 218 -16 27 -30
54 -30 61 0 13 -79 118 -90 118 -3 0 -9 -3 -12 -6z m-30 -353 c2 -6 12 -11 23
-11 10 0 33 -12 49 -27 34 -30 43 -80 21 -107 -33 -39 -198 -62 -262 -36 -50
20 -66 54 -54 117 9 49 71 80 155 78 37 -1 66 -7 68 -14z"/>
</g>
</svg>
