<?xml version="1.0" standalone="no"?>
<!DOCTYPE svg PUBLIC "-//W3C//DTD SVG 20010904//EN" "http://www.w3.org/TR/2001/REC-SVG-20010904/DTD/svg10.dtd">
<svg xmlns="http://www.w3.org/2000/svg" version="1.0" width="360.000000pt" height="360.000000pt" viewBox="0 0 360.000000 360.000000" preserveAspectRatio="xMidYMid meet">

<g transform="translate(0.000000,360.000000) scale(0.100000,-0.100000)" fill="#000000" stroke="none">
<path d="M795 1264 c-117 -15 -197 -45 -246 -91 -22 -20 -31 -23 -47 -14 -51 27 -202 3 -247 -39 l-25 -24 -28 27 c-33 32 -43 33 -65 9 -35 -39 -15 -75 45 -81 4 -1 -1 -24 -12 -51 -23 -58 -25 -92 -8 -157 13 -53 35 -83 59 -83 9 0 22 -6 28 -13 15 -19 112 -21 156 -3 101 43 153 128 153 253 0 118 1 119 27 131 34 15 45 15 45 -1 0 -8 28 -61 63 -118 34 -57 67 -115 74 -129 82 -180 96 -198 165 -211 34 -6 70 -1 168 22 68 16 160 32 205 35 44 3 96 9 115 13 45 9 201 -13 237 -33 30 -17 197 -45 242 -40 14 1 83 5 152 9 70 3 140 8 155 11 100 19 809 25 1047 10 82 -5 127 12 127 50 0 23 29 57 50 60 6 1 15 2 20 3 6 0 15 13 21 27 7 21 6 31 -7 45 -10 11 -24 19 -32 19 -8 0 -43 -29 -79 -65 l-64 -65 -252 1 c-139 0 -283 2 -322 3 -61 3 -406 -10 -505 -19 -59 -5 -284 -18 -305 -17 -11 0 -55 5 -97 10 -67 9 -86 16 -148 58 -39 26 -78 60 -86 76 -8 15 -21 28 -29 28 -8 0 -27 14 -42 32 -49 55 -117 122 -163 159 -42 34 -140 93 -140 85 0 -2 -44 11 -98 29 -54 19 -116 36 -138 38 -93 12 -141 15 -169 11z m220 -97 c28 -9 82 -25 121 -37 87 -26 144 -60 209 -130 28 -29 57 -60 66 -69 21 -20 69 -91 69 -101 0 -4 -16 -5 -35 -3 -20 2 -55 -2 -78 -9 -23 -7 -49 -12 -57 -13 -28 -1 -105 -17 -175 -35 -38 -10 -94 -22 -123 -25 -50 -7 -56 -5 -84 21 -16 16 -43 54 -59 84 -56 106 -106 187 -173 273 -45 59 -25 67 149 63 73 -2 140 -10 170 -19z m-537 -104 c1 -16 4 -44 7 -63 6 -47 -38 -136 -79 -161 -47 -29 -102 -42 -126 -29 -26 14 -50 61 -50 100 0 17 11 56 25 85 27 61 69 90 117 83 16 -3 31 -1 34 4 3 4 20 8 37 8 28 0 33 -4 35 -27z"/>
</g>
</svg>
