<?xml version="1.0" standalone="no"?>
<!DOCTYPE svg PUBLIC "-//W3C//DTD SVG 20010904//EN" "http://www.w3.org/TR/2001/REC-SVG-20010904/DTD/svg10.dtd">
<svg xmlns="http://www.w3.org/2000/svg" version="1.0" width="360.000000pt" height="360.000000pt" viewBox="0 0 360.000000 360.000000" preserveAspectRatio="xMidYMid meet">

<g transform="translate(0.000000,360.000000) scale(0.100000,-0.100000)" fill="#000000" stroke="none">
<path d="M3216 1658 c-10 -24 -30 -62 -47 -85 -36 -52 -38 -83 -5 -83 18 0 34 17 75 81 53 84 62 113 35 123 -31 12 -42 5 -58 -36z"/>
<path d="M3062 1460 c-48 -27 -88 -54 -277 -190 -107 -77 -188 -142 -257 -205 -37 -34 -93 -81 -125 -106 -32 -24 -74 -59 -93 -79 -31 -31 -156 -171 -170 -189 -3 -4 -27 -22 -55 -40 -47 -32 -51 -33 -80 -18 -111 55 -134 66 -170 77 -22 7 -58 20 -80 30 -38 16 -137 48 -173 55 -9 1 -45 8 -79 15 -40 8 -123 11 -232 8 l-170 -3 112 110 c62 61 184 187 273 280 242 256 250 266 189 251 -24 -6 -200 -175 -392 -376 -152 -160 -305 -300 -326 -300 -12 0 -35 -8 -52 -18 -29 -18 -29 -18 -53 10 -48 57 -148 84 -216 58 -23 -8 -26 -6 -42 36 -21 55 -30 61 -55 38 -25 -23 -24 -33 6 -64 l26 -27 -23 -15 c-62 -42 -90 -78 -99 -124 -23 -121 22 -199 121 -209 38 -4 148 24 207 52 43 21 57 35 82 83 17 32 31 67 31 77 0 24 87 47 273 72 140 19 296 14 405 -14 150 -38 388 -128 420 -158 64 -61 126 -23 294 179 37 44 109 116 160 159 51 43 116 100 143 126 64 61 437 338 500 372 17 9 41 25 55 37 21 17 23 21 10 30 -21 14 -29 12 -88 -20z m-2265 -725 c13 -14 23 -32 23 -40 0 -24 -21 -69 -42 -92 -27 -29 -131 -63 -193 -65 -73 -1 -79 12 -66 148 2 20 90 75 133 82 62 11 118 -1 145 -33z"/>
</g>
</svg>
