<?xml version="1.0" standalone="no"?>
<!DOCTYPE svg PUBLIC "-//W3C//DTD SVG 20010904//EN" "http://www.w3.org/TR/2001/REC-SVG-20010904/DTD/svg10.dtd">
<svg xmlns="http://www.w3.org/2000/svg" version="1.0" width="360.000000pt" height="360.000000pt" viewBox="0 0 360.000000 360.000000" preserveAspectRatio="xMidYMid meet">

<g transform="translate(0.000000,360.000000) scale(0.100000,-0.100000)" fill="#000000" stroke="none">
<path d="M2181 2889 c-19 -8 -22 -14 -16 -37 4 -15 11 -58 17 -97 6 -38 21 -102 34 -142 28 -83 28 -83 11 -83 -7 0 -19 -15 -26 -32 -47 -118 -50 -129 -66 -253 -24 -179 -35 -272 -40 -335 -10 -114 -12 -378 -6 -535 7 -159 10 -152 -77 -180 -30 -9 -70 -25 -89 -36 -18 -10 -39 -19 -45 -19 -12 0 -45 -15 -338 -158 -207 -101 -300 -156 -365 -215 -32 -30 -150 -97 -170 -97 -3 0 -5 14 -5 30 0 49 -107 136 -203 164 -14 5 -16 13 -11 43 5 31 2 42 -16 58 -22 20 -22 20 -41 -4 -14 -18 -18 -32 -13 -57 5 -30 4 -34 -14 -34 -12 0 -43 -5 -70 -10 -39 -9 -55 -19 -81 -53 -28 -36 -32 -48 -28 -83 7 -68 57 -127 144 -169 42 -20 67 -25 133 -25 91 0 141 17 167 56 17 27 33 31 33 9 0 -17 14 -19 39 -6 9 5 46 13 82 17 87 10 607 9 694 -1 39 -4 227 -10 418 -12 360 -5 382 -3 375 35 -3 13 -51 15 -333 18 -308 2 -587 15 -645 28 -35 8 -332 8 -364 0 -15 -3 -26 -2 -26 4 0 11 32 17 165 32 123 14 291 20 680 26 182 2 348 8 370 12 l40 7 -23 23 c-19 19 -30 22 -60 18 -20 -4 -57 -6 -82 -5 -177 6 -763 -1 -840 -10 -109 -13 -106 -6 40 80 13 8 42 26 64 42 21 15 43 27 49 27 5 0 37 17 71 39 129 81 290 151 308 133 5 -5 26 -1 49 11 23 11 78 28 122 38 100 22 194 45 267 65 30 8 71 19 90 24 149 41 249 50 270 25 14 -17 14 -61 2 -395 -7 -198 -6 -238 6 -252 12 -14 34 -17 139 -17 138 0 153 3 153 29 0 18 -43 27 -174 36 -27 2 -51 5 -53 7 -6 7 -5 356 2 367 4 6 7 62 7 126 1 100 -1 119 -19 142 -25 34 -89 57 -120 43 -13 -6 -30 -8 -39 -4 -8 3 -25 1 -37 -5 -12 -6 -56 -18 -97 -26 -100 -20 -368 -84 -402 -95 l-27 -9 -7 66 c-4 37 -7 186 -8 332 0 223 3 290 22 425 13 88 27 193 32 233 11 82 43 198 72 256 20 39 20 39 -1 104 -12 36 -24 106 -28 159 -7 102 -17 119 -62 102z m-1345 -2113 c67 -35 80 -46 88 -79 10 -40 -16 -83 -58 -97 -47 -15 -62 -15 -126 -1 -74 16 -140 74 -140 124 0 36 28 70 65 80 41 11 123 -2 171 -27z"/>
</g>
</svg>
