<?xml version="1.0" standalone="no"?>
<!DOCTYPE svg PUBLIC "-//W3C//DTD SVG 20010904//EN" "http://www.w3.org/TR/2001/REC-SVG-20010904/DTD/svg10.dtd">
<svg xmlns="http://www.w3.org/2000/svg" version="1.0" width="360.000000pt" height="360.000000pt" viewBox="0 0 360.000000 360.000000" preserveAspectRatio="xMidYMid meet">

<g transform="translate(0.000000,360.000000) scale(0.100000,-0.100000)" fill="#000000" stroke="none">
<path d="M3442 1628 c-11 -24 -32 -68 -46 -99 l-26 -56 -77 -7 c-42 -3 -120 -6 -173 -6 -53 0 -121 -4 -151 -10 -30 -5 -72 -12 -94 -14 -22 -3 -58 -9 -80 -15 -22 -5 -62 -13 -90 -16 -59 -8 -101 -17 -210 -49 -122 -36 -292 -74 -365 -81 -105 -11 -126 -14 -154 -25 -15 -5 -49 -10 -75 -10 -27 0 -85 -13 -136 -31 -106 -37 -227 -69 -263 -69 -26 0 -73 -13 -292 -81 -69 -22 -129 -39 -133 -39 -15 0 -121 -51 -201 -98 -100 -58 -190 -102 -210 -102 -8 0 -18 -5 -21 -10 -13 -21 -32 -8 -43 29 -7 21 -21 50 -33 64 -24 32 -100 67 -142 67 -28 0 -29 2 -23 31 7 36 -7 59 -35 59 -23 0 -37 -27 -32 -62 3 -25 0 -28 -24 -28 -83 -2 -156 -78 -170 -175 -5 -39 -2 -49 17 -70 13 -14 28 -25 33 -25 6 0 26 -12 46 -27 28 -22 46 -28 81 -27 134 3 216 32 257 93 14 21 23 28 23 17 0 -9 8 -16 18 -16 10 0 23 -5 29 -11 8 -8 17 -7 34 4 13 8 42 18 64 22 82 13 290 17 354 7 36 -6 118 -14 181 -17 122 -7 150 -9 325 -25 61 -5 148 -12 195 -15 47 -2 126 -10 175 -16 50 -6 119 -12 155 -14 36 -1 98 -6 138 -10 68 -7 72 -6 72 12 0 29 -36 40 -165 53 -185 18 -318 31 -360 35 -22 2 -152 11 -290 20 -137 9 -280 20 -317 25 -37 6 -88 11 -115 11 -31 1 -38 3 -18 6 17 2 61 10 98 19 43 9 114 14 190 13 67 0 149 2 182 5 51 5 397 18 545 20 25 1 69 -3 98 -7 58 -9 70 1 58 48 -6 23 -9 24 -63 20 -32 -2 -163 -7 -293 -11 -129 -3 -282 -10 -340 -14 -58 -5 -157 -7 -221 -4 -79 3 -143 -1 -196 -11 -44 -8 -104 -17 -134 -19 l-54 -5 25 20 c14 10 36 22 50 26 14 3 34 12 45 18 18 11 122 43 295 91 30 9 66 19 80 24 14 5 65 14 114 21 48 7 93 18 100 24 7 7 27 15 46 18 19 3 60 12 90 21 30 9 102 23 160 31 58 9 147 22 198 31 100 16 241 13 362 -9 l65 -12 -2 -269 c-1 -148 1 -276 6 -284 13 -24 77 -40 144 -37 34 2 67 -1 74 -6 17 -14 73 -1 80 19 4 10 -3 23 -21 36 -21 16 -44 21 -112 22 -47 1 -88 5 -92 9 -4 4 -9 123 -12 265 -5 258 -5 258 -30 287 -14 15 -26 30 -27 32 -2 2 -19 4 -38 3 -19 -1 -45 3 -57 8 -22 8 -22 9 -2 9 11 1 34 7 50 15 34 17 249 66 287 66 14 0 37 4 50 9 45 17 122 24 336 27 118 2 216 6 219 8 2 3 6 19 8 37 2 17 20 68 39 113 36 85 41 106 26 106 -5 0 -16 3 -24 6 -10 4 -21 -8 -35 -38z m-2966 -734 c58 -35 70 -81 34 -127 -22 -28 -93 -55 -155 -58 -46 -2 -132 35 -140 62 -9 27 18 91 48 113 46 34 165 40 213 10z"/>
</g>
</svg>
