<?xml version="1.0" standalone="no"?>
<!DOCTYPE svg PUBLIC "-//W3C//DTD SVG 20010904//EN" "http://www.w3.org/TR/2001/REC-SVG-20010904/DTD/svg10.dtd">
<svg xmlns="http://www.w3.org/2000/svg" version="1.0" width="360.000000pt" height="360.000000pt" viewBox="0 0 360.000000 360.000000" preserveAspectRatio="xMidYMid meet">

<g transform="translate(0.000000,360.000000) scale(0.100000,-0.100000)" fill="#000000" stroke="none">
<path d="M471 922 c-6 -10 -7 -28 -4 -40 4 -17 -1 -22 -22 -28 -55 -14 -143 -64 -164 -93 -37 -52 -37 -82 1 -131 19 -25 49 -55 68 -68 33 -23 42 -24 131 -19 60 4 119 14 155 27 153 55 139 54 324 31 94 -12 187 -21 207 -21 21 0 90 -13 153 -29 63 -16 149 -34 190 -41 41 -7 80 -16 85 -20 6 -4 30 -12 55 -18 53 -13 76 1 67 40 -6 21 -15 25 -95 36 -48 6 -131 23 -183 37 -123 33 -272 60 -369 66 -53 3 46 18 190 28 405 29 877 37 1050 17 74 -9 214 -20 310 -26 96 -6 204 -16 240 -21 36 -6 85 -13 110 -16 25 -2 57 -13 71 -23 22 -16 30 -16 62 -5 20 7 56 28 80 47 23 18 61 46 85 61 43 28 53 50 27 61 -18 6 -148 -57 -167 -81 -23 -31 -70 -69 -66 -54 4 18 -47 48 -92 55 -139 21 -289 36 -370 37 -52 1 -120 5 -150 10 -131 19 -219 24 -435 22 -508 -3 -824 -18 -1040 -48 -60 -8 -132 -17 -160 -19 -27 -2 -57 -6 -65 -10 -12 -5 -19 3 -28 28 -16 43 -77 102 -140 136 -38 21 -46 30 -44 49 6 40 -48 58 -67 23z m109 -158 c69 -50 84 -80 56 -116 -14 -19 -35 -24 -144 -39 -67 -9 -76 -8 -108 12 -43 26 -71 74 -49 83 8 3 15 12 15 20 0 18 30 36 59 36 12 0 30 9 41 20 30 30 73 25 130 -16z"/>
</g>
</svg>
