<?xml version="1.0" standalone="no"?>
<!DOCTYPE svg PUBLIC "-//W3C//DTD SVG 20010904//EN" "http://www.w3.org/TR/2001/REC-SVG-20010904/DTD/svg10.dtd">
<svg xmlns="http://www.w3.org/2000/svg" version="1.0" width="360.000000pt" height="360.000000pt" viewBox="0 0 360.000000 360.000000" preserveAspectRatio="xMidYMid meet">

<g transform="translate(0.000000,360.000000) scale(0.100000,-0.100000)" fill="#000000" stroke="none">
<path d="M1989 1759 c-26 -26 -24 -35 11 -71 17 -16 30 -38 30 -49 0 -17 -9 -14 -81 22 -78 39 -82 40 -118 27 -56 -21 -53 -51 9 -118 49 -52 140 -164 140 -172 0 -2 -30 -2 -68 0 -56 3 -71 1 -92 -16 l-25 -20 20 -37 c17 -33 97 -97 208 -168 26 -17 35 -49 19 -73 -25 -39 -180 -93 -327 -115 -27 -4 -81 -14 -120 -22 -38 -8 -108 -17 -155 -21 -47 -3 -102 -8 -122 -12 -27 -5 -59 0 -108 16 l-70 23 0 51 c0 100 -70 198 -161 225 -33 10 -39 16 -39 39 0 16 -6 37 -14 47 -12 16 -16 17 -30 6 -9 -8 -15 -26 -13 -43 l2 -30 -65 -3 c-118 -4 -154 -33 -185 -148 -11 -41 -11 -56 1 -97 15 -51 78 -124 117 -135 12 -4 36 -13 52 -20 89 -40 271 -5 291 57 5 17 8 18 22 5 28 -26 116 -55 183 -62 35 -4 78 -11 94 -16 17 -5 68 -11 115 -14 125 -7 211 -15 245 -22 17 -4 64 -8 105 -10 41 -1 140 -5 220 -8 133 -6 153 -5 245 18 55 14 112 30 127 36 26 10 78 74 78 96 0 16 -80 96 -211 210 -63 55 -125 113 -138 128 l-23 28 48 -5 c87 -9 127 -17 249 -54 66 -19 156 -42 200 -51 44 -9 98 -26 120 -38 22 -13 64 -35 93 -50 53 -27 54 -28 68 -9 25 35 17 50 -36 69 -28 10 -50 24 -50 32 0 8 -4 17 -10 20 -10 6 -138 34 -180 40 -31 3 -228 63 -251 75 -9 4 -61 13 -115 20 -152 17 -172 24 -179 63 -7 46 -14 117 -10 117 1 0 37 -16 79 -35 43 -19 84 -35 92 -35 18 0 102 -33 155 -61 38 -20 132 -47 189 -55 19 -3 59 -16 90 -30 l55 -24 70 36 c39 20 77 42 86 50 8 8 23 14 33 14 9 0 31 7 47 16 22 11 29 21 27 37 -6 39 -28 35 -177 -35 -61 -29 -83 -30 -191 -8 -101 20 -155 37 -205 64 -16 9 -40 16 -52 16 -12 0 -24 4 -27 9 -3 4 -27 14 -53 21 -27 6 -85 28 -130 48 -74 32 -83 39 -83 63 0 22 4 26 23 22 32 -6 63 28 47 54 -13 20 -55 43 -80 43 -9 0 -25 9 -34 19 -26 28 -55 32 -77 10z m-1 -188 l52 -23 0 -60 c0 -32 -4 -57 -9 -54 -4 3 -28 31 -52 63 -24 32 -47 60 -50 63 -3 3 -11 15 -18 27 -13 25 -18 26 77 -16z m40 -250 c20 -1 22 -6 22 -56 l0 -56 -32 23 c-18 13 -46 35 -63 50 -16 16 -33 28 -37 28 -5 0 -8 5 -8 10 0 6 19 9 48 6 26 -2 57 -5 70 -5z m177 -168 l70 -66 -75 40 c-62 32 -76 43 -78 66 -2 15 0 27 5 27 4 -1 40 -31 78 -67z m-1269 16 c25 -7 60 -28 88 -53 41 -38 46 -48 46 -85 0 -115 -101 -161 -254 -117 -71 21 -126 87 -126 152 0 43 40 103 74 113 34 10 109 5 172 -10z m1212 -89 c9 -5 44 -23 77 -38 33 -16 85 -43 115 -61 30 -17 62 -31 71 -31 9 0 23 -8 33 -19 16 -17 15 -19 -16 -31 -18 -6 -42 -16 -53 -20 -76 -31 -132 -40 -242 -40 -107 0 -359 15 -408 25 -11 2 -35 4 -52 4 -58 2 -35 16 50 33 94 19 296 70 345 88 36 13 52 36 52 74 0 29 3 30 28 16z"/>
</g>
</svg>
