<?xml version="1.0" standalone="no"?>
<!DOCTYPE svg PUBLIC "-//W3C//DTD SVG 20010904//EN" "http://www.w3.org/TR/2001/REC-SVG-20010904/DTD/svg10.dtd">
<svg xmlns="http://www.w3.org/2000/svg" version="1.0" width="360.000000pt" height="360.000000pt" viewBox="0 0 360.000000 360.000000" preserveAspectRatio="xMidYMid meet">

<g transform="translate(0.000000,360.000000) scale(0.100000,-0.100000)" fill="#000000" stroke="none">
<path d="M2630 1320 c-45 -10 -135 -49 -183 -78 -36 -23 -43 -24 -245 -22 -114 1 -227 3 -252 3 -25 1 -87 -2 -139 -6 -92 -8 -94 -7 -72 10 19 16 21 22 12 46 -13 32 -21 33 -96 7 -89 -31 -122 -71 -73 -89 18 -6 19 -9 5 -14 -20 -8 -22 -47 -4 -69 16 -20 101 -48 147 -48 44 0 78 -24 120 -85 17 -24 30 -46 30 -48 0 -16 -244 -72 -355 -82 -33 -3 -103 -12 -155 -19 -52 -8 -116 -14 -142 -13 -46 1 -48 2 -48 30 0 53 -57 118 -139 157 l-52 25 6 41 c7 51 -14 81 -46 64 -14 -8 -19 -21 -19 -54 l0 -43 -66 -7 c-75 -8 -104 -20 -156 -68 -42 -40 -57 -92 -38 -137 20 -50 91 -115 138 -127 92 -24 264 0 314 44 13 11 21 12 31 3 8 -6 16 -9 18 -7 19 19 649 19 979 1 123 -7 297 -6 336 1 52 9 102 48 106 82 8 68 -52 105 -302 184 -142 44 -325 89 -410 99 -71 8 -108 28 -94 50 4 7 123 13 209 10 149 -5 455 -3 478 2 15 4 27 13 27 21 0 12 123 76 146 76 5 0 20 7 32 16 18 12 20 19 12 35 -6 10 -14 18 -18 18 -4 -1 -23 -5 -42 -9z m-570 -317 c187 -44 412 -125 438 -156 11 -13 9 -18 -14 -33 -25 -17 -51 -18 -293 -14 -146 2 -310 3 -363 2 -54 0 -98 1 -98 4 0 9 56 26 100 30 187 16 207 38 115 131 -83 85 -85 84 115 36z m-1076 -49 c26 -9 63 -31 82 -49 29 -28 35 -40 32 -67 -6 -61 -116 -107 -225 -93 -46 6 -63 14 -99 47 -64 59 -58 93 22 147 55 36 112 41 188 15z"/>
</g>
</svg>
