<?xml version="1.0" standalone="no"?>
<!DOCTYPE svg PUBLIC "-//W3C//DTD SVG 20010904//EN" "http://www.w3.org/TR/2001/REC-SVG-20010904/DTD/svg10.dtd">
<svg xmlns="http://www.w3.org/2000/svg" version="1.0" width="360.000000pt" height="360.000000pt" viewBox="0 0 360.000000 360.000000" preserveAspectRatio="xMidYMid meet">

<g transform="translate(0.000000,360.000000) scale(0.100000,-0.100000)" fill="#000000" stroke="none">
<path d="M1146 3082 c-10 -16 12 -32 69 -52 193 -65 186 -57 379 -460 25 -52 66 -131 90 -175 119 -219 169 -314 198 -374 17 -36 54 -116 84 -177 80 -168 106 -242 99 -286 -4 -24 -11 -35 -19 -32 -8 3 -48 -42 -98 -108 -47 -63 -92 -120 -100 -128 -8 -8 -55 -62 -104 -120 -50 -58 -98 -111 -107 -119 -15 -12 -17 -10 -17 18 0 31 7 61 50 226 12 44 24 94 26 110 3 17 14 58 24 91 10 34 20 93 21 132 3 62 0 74 -24 109 -15 21 -27 43 -27 48 0 19 -53 75 -71 75 -35 0 -33 -29 7 -106 36 -70 38 -81 37 -157 0 -45 -8 -109 -16 -142 -71 -271 -74 -285 -87 -385 -10 -80 2 -114 43 -117 36 -2 78 35 164 145 37 48 89 112 115 142 27 30 66 81 86 112 20 32 40 58 44 58 3 0 -15 -51 -41 -112 -26 -62 -54 -131 -61 -153 -7 -22 -18 -51 -25 -65 -158 -321 -168 -339 -192 -345 -32 -8 -40 -1 -54 44 -12 39 -72 90 -111 92 -10 1 -24 2 -30 3 -7 0 -15 17 -18 36 -3 22 -10 35 -20 35 -10 0 -17 -13 -20 -35 l-5 -35 -65 -6 c-36 -3 -75 -11 -87 -18 -13 -6 -36 -40 -52 -74 -25 -53 -28 -69 -21 -105 16 -90 106 -139 234 -129 77 7 151 29 179 54 9 9 21 30 26 47 6 23 13 30 27 27 10 -2 42 -5 69 -6 67 -4 296 -34 315 -42 21 -8 86 -16 142 -16 31 0 52 6 64 17 15 16 16 23 4 72 -8 30 -17 57 -22 60 -4 3 -8 12 -8 20 0 8 -9 33 -19 57 -49 110 -103 278 -103 320 1 16 7 38 14 50 8 12 20 41 26 64 7 22 23 52 37 65 28 26 34 75 10 84 -34 14 -62 -5 -80 -53 -10 -27 -34 -79 -52 -116 l-34 -68 36 -127 c19 -70 43 -143 51 -162 30 -64 74 -202 67 -212 -3 -6 -25 -8 -52 -4 -25 4 -77 11 -116 16 -38 5 -109 15 -156 22 l-85 13 63 125 c35 69 77 161 94 205 45 115 69 173 94 230 123 273 122 271 96 340 -18 48 -186 403 -228 480 -9 17 -32 62 -53 100 -20 39 -68 126 -107 195 -112 199 -283 543 -283 572 -1 25 -26 46 -70 58 -25 7 -66 23 -92 36 -47 24 -141 34 -152 16z m369 -2277 c54 -22 77 -56 73 -111 -3 -43 -7 -51 -33 -64 -18 -9 -65 -15 -120 -17 -105 -3 -149 16 -160 67 -10 48 30 111 80 127 50 15 120 14 160 -2z"/>
</g>
</svg>
