<?xml version="1.0" standalone="no"?>
<!DOCTYPE svg PUBLIC "-//W3C//DTD SVG 20010904//EN" "http://www.w3.org/TR/2001/REC-SVG-20010904/DTD/svg10.dtd">
<svg xmlns="http://www.w3.org/2000/svg" version="1.0" width="360.000000pt" height="360.000000pt" viewBox="0 0 360.000000 360.000000" preserveAspectRatio="xMidYMid meet">

<g transform="translate(0.000000,360.000000) scale(0.100000,-0.100000)" fill="#000000" stroke="none">
<path d="M2800 2735 c-41 -16 -193 -19 -220 -5 -14 8 -25 7 -40 -2 -29 -18 -33 -39 -12 -60 16 -17 34 -19 136 -19 l117 1 -4 -178 c-2 -97 -12 -307 -22 -467 -24 -372 -25 -745 -1 -965 33 -307 33 -275 0 -287 -33 -13 -79 -21 -179 -31 -89 -9 -981 -9 -990 0 -4 3 2 44 13 90 116 483 129 592 104 828 -7 63 -16 169 -22 235 -5 66 -18 172 -28 236 -16 102 -17 120 -5 144 13 24 13 28 -4 40 -22 17 -60 23 -135 24 -49 1 -58 -2 -63 -20 -7 -22 19 -60 39 -58 6 1 32 1 57 0 l47 -1 5 -112 c3 -62 10 -149 15 -193 6 -44 13 -107 16 -140 33 -366 33 -397 -9 -610 -41 -212 -84 -368 -106 -383 -11 -7 -26 -26 -34 -43 -13 -25 -20 -28 -43 -23 -37 9 -52 23 -52 48 0 26 -20 83 -40 114 -17 26 -164 102 -198 102 -19 0 -21 4 -16 25 9 37 -3 75 -25 75 -30 0 -43 -23 -31 -54 15 -41 13 -46 -19 -46 -16 0 -36 -7 -45 -15 -8 -8 -17 -15 -19 -15 -16 0 -70 -65 -87 -105 -27 -64 -25 -95 9 -142 41 -56 129 -86 252 -85 86 0 129 13 171 49 14 13 20 12 47 -2 54 -27 335 -40 871 -38 157 0 330 6 385 13 55 6 114 13 130 14 50 4 70 15 88 45 19 33 22 64 7 90 -9 19 -33 186 -45 316 -3 39 -8 82 -11 96 -7 39 -8 504 -1 516 4 6 12 116 17 244 6 129 13 248 15 264 2 17 7 98 10 180 4 104 10 153 19 160 13 10 26 71 29 130 2 27 -1 30 -28 32 -16 1 -46 -4 -65 -12z m-1120 -985 c0 -5 -5 -10 -11 -10 -5 0 -7 5 -4 10 3 6 8 10 11 10 2 0 4 -4 4 -10z m-496 -835 c3 -8 17 -15 30 -15 67 0 113 -121 63 -168 -48 -45 -259 -29 -304 23 -28 32 -28 40 -2 90 35 64 65 81 150 84 43 1 58 -2 63 -14z"/>
</g>
</svg>
