<?xml version="1.0" standalone="no"?>
<!DOCTYPE svg PUBLIC "-//W3C//DTD SVG 20010904//EN" "http://www.w3.org/TR/2001/REC-SVG-20010904/DTD/svg10.dtd">
<svg xmlns="http://www.w3.org/2000/svg" version="1.0" width="360.000000pt" height="360.000000pt" viewBox="0 0 360.000000 360.000000" preserveAspectRatio="xMidYMid meet">

<g transform="translate(0.000000,360.000000) scale(0.100000,-0.100000)" fill="#000000" stroke="none">
<path d="M2197 1844 c-3 -4 -3 -19 0 -35 4 -24 2 -29 -14 -29 -10 0 -28 -7 -39 -15 -10 -8 -28 -15 -38 -15 -20 0 -52 -9 -135 -37 -24 -9 -57 -16 -75 -18 -17 -1 -38 -4 -46 -8 -52 -22 -167 -57 -185 -57 -12 0 -35 -6 -51 -14 -150 -73 -192 -91 -214 -92 -14 -1 -58 -4 -97 -7 -40 -4 -73 -2 -73 3 0 4 -12 23 -26 40 -29 34 -81 63 -159 90 -41 14 -51 22 -55 45 -6 36 -33 54 -54 36 -10 -9 -14 -22 -10 -37 5 -20 2 -24 -17 -24 -31 0 -117 -41 -146 -69 -30 -28 -63 -94 -63 -124 0 -33 56 -114 94 -135 62 -34 256 -10 341 42 11 6 32 17 47 23 l26 12 3 -152 c1 -84 1 -169 0 -191 -2 -42 -96 -300 -115 -314 -6 -5 -40 -19 -76 -32 -70 -24 -85 -37 -68 -57 14 -17 60 -16 102 1 21 9 37 11 43 5 6 -6 21 -4 39 6 16 8 43 15 61 15 33 0 83 18 83 30 0 9 196 163 218 172 10 3 25 16 34 27 10 12 24 21 32 21 8 0 16 4 18 8 12 29 123 94 298 176 65 30 162 84 170 94 3 4 27 18 55 32 27 14 74 40 104 59 52 32 82 42 123 42 10 0 20 4 23 10 4 5 34 9 69 9 102 0 518 60 555 79 41 23 55 93 26 137 -15 24 -25 27 -155 44 -47 6 -107 17 -135 24 -27 7 -64 14 -82 15 -18 1 -44 6 -58 11 -15 6 -47 10 -73 10 -26 1 -58 7 -71 14 -14 8 -30 12 -37 9 -13 -5 -59 35 -59 52 -1 6 -6 9 -12 8 -6 -1 -27 13 -48 32 -34 33 -63 43 -78 29z m78 -129 c14 -14 25 -32 25 -40 0 -17 -1 -17 61 -20 26 -1 53 -6 60 -11 16 -10 12 -9 109 -18 41 -4 104 -14 139 -22 69 -16 212 -36 247 -35 26 1 46 -20 35 -37 -4 -6 -32 -16 -62 -22 -158 -28 -314 -50 -394 -56 -49 -3 -107 -7 -127 -9 -31 -2 -38 0 -38 14 0 57 -144 90 -365 85 -71 -2 -131 -3 -132 -4 -2 0 -56 -2 -120 -4 -126 -3 -126 0 2 35 39 11 79 24 90 29 11 5 54 16 95 25 41 9 79 20 85 24 5 5 26 11 45 14 19 3 55 10 79 17 39 10 60 19 121 51 8 4 16 8 17 8 1 1 14 -10 28 -24z m-1198 -150 c28 -13 54 -21 57 -18 9 9 26 -45 20 -61 -13 -34 -122 -77 -230 -91 -103 -13 -175 45 -140 113 19 36 65 75 82 68 7 -3 18 2 25 10 17 21 116 9 186 -21z m1133 -106 c33 -6 60 -17 59 -23 0 -6 -33 -27 -72 -46 -40 -19 -130 -70 -200 -112 -71 -43 -133 -78 -139 -78 -6 0 -19 -6 -27 -13 -9 -7 -41 -24 -71 -37 -30 -14 -73 -36 -96 -50 -57 -35 -188 -122 -194 -129 -9 -11 -119 -91 -124 -91 -3 0 -27 -20 -53 -45 -54 -50 -90 -72 -100 -61 -4 3 3 32 14 64 11 31 32 90 47 129 28 79 33 174 17 353 -4 47 -4 92 0 100 5 8 9 12 9 7 0 -4 11 0 24 8 18 12 41 15 98 11 40 -3 118 1 173 7 138 17 558 21 635 6z"/>
</g>
</svg>
