<?xml version="1.0" standalone="no"?>
<!DOCTYPE svg PUBLIC "-//W3C//DTD SVG 20010904//EN" "http://www.w3.org/TR/2001/REC-SVG-20010904/DTD/svg10.dtd">
<svg xmlns="http://www.w3.org/2000/svg" version="1.0" width="360.000000pt" height="360.000000pt" viewBox="0 0 360.000000 360.000000" preserveAspectRatio="xMidYMid meet">

<g transform="translate(0.000000,360.000000) scale(0.100000,-0.100000)" fill="#000000" stroke="none">
<path d="M1173 1965 c-17 -12 -16 -15 4 -57 12 -24 47 -113 76 -198 30 -85 58 -163 62 -172 6 -15 2 -18 -19 -18 -20 0 -27 6 -32 28 -4 15 -12 35 -19 44 -18 28 -101 87 -150 109 -34 15 -46 27 -50 47 -13 65 -20 77 -44 77 -37 0 -48 -27 -28 -69 15 -33 15 -36 1 -36 -46 0 -121 -38 -170 -87 -61 -59 -72 -88 -55 -145 28 -92 124 -147 261 -150 116 -2 178 32 240 132 7 12 12 12 22 2 6 -6 20 -12 30 -12 21 0 22 -7 18 -110 -4 -142 -47 -269 -136 -404 -33 -48 -76 -114 -96 -145 -36 -53 -47 -94 -30 -105 13 -8 26 5 84 84 97 133 156 233 194 330 37 92 38 99 38 225 1 74 5 133 11 137 6 4 24 8 42 8 17 0 42 4 55 9 28 11 191 38 268 45 30 3 102 12 160 21 206 33 467 61 476 52 3 -3 -27 -46 -69 -94 -41 -49 -98 -127 -127 -173 -29 -47 -69 -108 -87 -136 -29 -42 -33 -55 -24 -72 18 -34 45 -32 102 9 61 43 168 101 178 97 4 -2 -2 -60 -14 -130 -19 -115 -20 -130 -6 -152 39 -64 113 -26 210 107 26 35 49 57 61 57 11 0 31 18 49 44 17 24 60 65 96 90 52 38 75 48 117 52 137 12 167 17 172 30 8 22 -41 41 -126 48 -114 10 -143 -1 -234 -89 -42 -41 -80 -75 -85 -75 -8 0 -110 -121 -141 -168 -19 -29 -44 -46 -57 -38 -7 5 -2 44 13 106 2 8 7 47 11 86 4 39 10 75 14 81 29 43 349 183 418 183 12 0 45 5 73 11 44 9 51 14 48 32 -3 21 -8 22 -96 21 -56 0 -97 -5 -104 -12 -7 -7 -21 -12 -32 -12 -11 0 -27 -6 -35 -13 -9 -7 -50 -26 -91 -42 -41 -15 -82 -33 -90 -40 -8 -7 -30 -20 -49 -30 l-34 -17 8 79 c3 43 13 91 21 107 12 26 12 34 -3 68 -14 33 -39 48 -56 36 -2 -2 -10 2 -18 9 -12 10 -33 9 -100 -2 -103 -18 -123 -20 -274 -40 -66 -8 -147 -20 -180 -26 -33 -5 -103 -14 -155 -19 -52 -5 -142 -18 -200 -28 -58 -11 -108 -17 -112 -13 -4 4 -40 102 -79 218 -74 220 -85 238 -126 208z m-55 -349 c100 -63 107 -97 33 -166 -47 -44 -51 -46 -118 -48 -161 -7 -270 86 -202 172 59 76 201 96 287 42z m1274 -188 c-2 -40 -10 -82 -17 -93 -11 -17 -175 -110 -175 -99 0 20 176 264 190 264 3 0 4 -33 2 -72z"/>
</g>
</svg>
