<?xml version="1.0" standalone="no"?>
<!DOCTYPE svg PUBLIC "-//W3C//DTD SVG 20010904//EN" "http://www.w3.org/TR/2001/REC-SVG-20010904/DTD/svg10.dtd">
<svg xmlns="http://www.w3.org/2000/svg" version="1.0" width="360.000000pt" height="360.000000pt" viewBox="0 0 360.000000 360.000000" preserveAspectRatio="xMidYMid meet">

<g transform="translate(0.000000,360.000000) scale(0.100000,-0.100000)" fill="#000000" stroke="none">
<path d="M571 1186 c-12 -14 -9 -32 17 -83 9 -18 14 -35 11 -38 -3 -3 -36 -7 -73 -9 -53 -4 -75 -10 -101 -31 -145 -110 -124 -312 37 -355 24 -7 49 -15 57 -19 14 -7 83 5 170 28 52 15 118 57 126 80 8 25 130 26 250 1 55 -11 120 -20 145 -20 24 0 74 -9 110 -19 82 -24 175 -41 224 -41 21 0 67 -5 101 -11 61 -12 62 -12 126 24 35 19 102 45 148 56 98 25 105 25 69 5 -35 -18 -41 -74 -9 -74 22 0 81 31 81 43 0 4 4 7 9 7 6 0 30 14 55 30 40 27 56 31 143 37 54 3 117 6 141 5 27 -1 45 4 48 12 4 11 12 11 42 1 20 -7 92 -16 159 -19 135 -8 157 -11 223 -30 25 -7 50 -14 55 -15 41 -5 82 -15 90 -21 6 -5 48 -13 95 -20 47 -6 99 -15 116 -21 16 -5 52 -13 78 -18 41 -8 51 -6 67 10 34 34 24 66 -38 130 -31 32 -59 57 -61 54 -3 -2 -19 6 -36 19 -38 29 -111 64 -148 70 -15 2 -42 12 -61 21 -19 9 -59 22 -89 30 -244 61 -302 74 -368 79 -41 3 -111 13 -155 21 -223 39 -418 46 -585 20 -103 -16 -137 -26 -275 -85 -49 -21 -105 -41 -124 -45 -18 -4 -59 -18 -90 -32 -133 -60 -279 -97 -463 -120 l-48 -6 0 32 c0 35 -57 151 -74 151 -6 0 -24 7 -40 15 -17 9 -44 16 -62 17 -19 1 -31 5 -27 11 3 6 5 31 4 55 -2 65 -41 103 -70 68z m1674 -126 c66 -6 149 -17 185 -25 36 -8 112 -22 170 -30 162 -23 219 -35 295 -60 115 -39 189 -66 200 -75 6 -4 26 -12 45 -19 20 -6 57 -29 84 -51 42 -35 45 -40 25 -40 -40 0 -191 28 -249 45 -30 9 -68 20 -85 25 -38 11 -98 18 -202 25 -46 3 -104 10 -130 15 -27 6 -75 15 -107 21 -32 5 -67 14 -77 20 -10 5 -47 12 -82 15 -57 5 -67 3 -101 -20 -31 -20 -74 -34 -161 -50 -5 -1 -19 -5 -30 -9 -22 -7 -63 -15 -115 -23 -38 -6 -92 -25 -159 -58 -51 -24 -126 -27 -258 -11 -75 10 -132 21 -317 63 -25 6 -17 11 75 45 198 73 354 129 399 142 25 8 63 21 85 28 61 22 120 30 232 32 57 1 106 5 110 9 4 4 17 4 28 1 11 -3 74 -10 140 -15z m-1550 -86 c27 -7 56 -48 66 -92 20 -89 -53 -143 -196 -146 -100 -1 -145 20 -159 76 -16 65 16 122 89 154 30 13 162 19 200 8z"/>
</g>
</svg>
