<?xml version="1.0" standalone="no"?>
<!DOCTYPE svg PUBLIC "-//W3C//DTD SVG 20010904//EN" "http://www.w3.org/TR/2001/REC-SVG-20010904/DTD/svg10.dtd">
<svg xmlns="http://www.w3.org/2000/svg" version="1.0" width="360.000000pt" height="360.000000pt" viewBox="0 0 360.000000 360.000000" preserveAspectRatio="xMidYMid meet">

<g transform="translate(0.000000,360.000000) scale(0.100000,-0.100000)" fill="#000000" stroke="none">
<path d="M2422 2124 c-25 -15 -51 -42 -65 -67 -22 -41 -22 -48 -22 -402 0 -198 -4 -377 -9 -398 -8 -35 -11 -38 -34 -32 -29 7 -115 62 -152 97 -13 13 -38 34 -55 48 -111 89 -471 436 -560 541 l-74 86 -123 17 c-150 20 -138 20 -138 -3 0 -25 84 -66 155 -76 60 -8 91 -26 125 -69 22 -28 200 -196 345 -325 28 -24 96 -88 151 -140 131 -123 201 -179 271 -214 54 -28 57 -28 97 -13 23 9 47 25 54 36 9 15 12 80 10 247 -4 560 -4 563 45 594 45 27 64 24 143 -22 110 -66 196 -157 253 -269 27 -52 55 -108 64 -125 49 -96 52 -112 52 -305 -1 -199 -9 -245 -61 -337 -26 -45 -49 -62 -101 -73 -31 -7 -33 -6 -53 36 -33 68 -102 117 -182 128 -43 7 -49 10 -56 39 -15 58 -69 43 -56 -15 5 -24 2 -28 -33 -38 -51 -14 -96 -55 -127 -114 -30 -56 -32 -85 -11 -125 l14 -29 -42 -10 c-126 -32 -161 -34 -779 -35 -341 -2 -500 -5 -508 -13 -16 -16 -1 -43 29 -52 14 -4 73 -6 131 -6 58 1 305 2 548 3 265 1 465 6 495 12 29 6 72 16 97 21 68 16 90 14 145 -12 91 -42 233 -21 295 45 17 18 29 22 63 18 37 -4 46 0 79 32 80 77 147 203 171 320 18 89 22 289 7 380 -20 123 -166 391 -266 486 -48 46 -161 122 -217 147 -41 18 -67 15 -115 -14z m179 -1125 c35 -17 89 -71 89 -89 0 -15 -26 -29 -81 -44 -30 -8 -74 -21 -99 -29 -25 -8 -66 -17 -92 -20 -44 -6 -48 -4 -68 22 -23 34 -24 47 -8 101 10 29 20 42 43 51 16 6 39 15 50 19 11 5 27 11 35 13 24 8 92 -4 131 -24z m19 -219 c-14 -11 -34 -20 -45 -20 -11 0 -30 -3 -42 -6 -13 -4 -23 -2 -23 3 0 5 26 16 58 25 77 21 81 21 52 -2z"/>
</g>
</svg>
