<?xml version="1.0" standalone="no"?>
<!DOCTYPE svg PUBLIC "-//W3C//DTD SVG 20010904//EN" "http://www.w3.org/TR/2001/REC-SVG-20010904/DTD/svg10.dtd">
<svg xmlns="http://www.w3.org/2000/svg" version="1.0" width="360.000000pt" height="360.000000pt" viewBox="0 0 360.000000 360.000000" preserveAspectRatio="xMidYMid meet">

<g transform="translate(0.000000,360.000000) scale(0.100000,-0.100000)" fill="#000000" stroke="none">
<path d="M2498 2739 c-24 -13 -23 -52 1 -74 17 -15 36 -17 140 -14 l121 4 0 -25 c0 -14 -6 -49 -14 -78 -7 -29 -14 -96 -15 -149 -1 -53 -6 -133 -12 -177 -5 -45 -9 -144 -9 -221 0 -77 -5 -225 -12 -328 -12 -183 -11 -195 16 -425 15 -130 28 -241 29 -247 2 -11 -138 -11 -228 0 -106 13 -154 16 -280 20 -164 6 -280 5 -325 -1 -76 -11 -248 -12 -305 -3 -175 30 -165 26 -165 68 0 42 -15 75 -56 121 -49 55 -66 69 -95 75 -25 6 -29 11 -29 39 0 38 -15 56 -47 56 -28 0 -44 -27 -32 -57 7 -20 5 -23 -14 -22 -83 5 -166 -48 -205 -130 -49 -104 -31 -194 46 -230 20 -9 48 -24 62 -33 33 -21 152 -33 181 -18 12 7 36 14 53 17 17 3 47 20 67 40 32 30 40 33 58 24 11 -7 36 -11 53 -10 18 0 56 -3 83 -9 28 -5 88 -13 135 -17 47 -3 99 -11 115 -16 17 -5 57 -13 90 -18 53 -8 155 -30 280 -61 22 -6 78 -17 125 -25 93 -15 172 -35 240 -60 83 -30 145 -47 188 -52 62 -7 55 19 -18 66 -57 37 -81 45 -305 100 -22 5 -87 19 -145 30 -179 36 -250 54 -250 64 0 5 21 6 48 3 26 -3 92 -8 147 -11 55 -4 159 -11 230 -17 72 -6 153 -12 181 -14 28 -1 64 -5 81 -8 22 -5 40 -2 63 12 17 11 40 18 50 15 25 -7 29 21 12 82 -13 47 -18 76 -42 220 -20 125 -23 176 -21 390 2 121 3 261 2 310 0 79 9 264 25 495 2 41 9 93 14 115 16 67 12 130 -9 156 -18 23 -26 24 -128 24 -59 0 -119 3 -133 7 -14 5 -33 3 -42 -3z m-1199 -1528 c9 -6 10 -11 2 -15 -20 -13 -11 -31 22 -46 27 -13 32 -21 35 -55 8 -125 -156 -179 -286 -94 -61 40 -68 56 -52 115 12 43 31 67 73 90 25 14 185 18 206 5z"/>
</g>
</svg>
