<?xml version="1.0" standalone="no"?>
<!DOCTYPE svg PUBLIC "-//W3C//DTD SVG 20010904//EN" "http://www.w3.org/TR/2001/REC-SVG-20010904/DTD/svg10.dtd">
<svg xmlns="http://www.w3.org/2000/svg" version="1.0" width="360.000000pt" height="360.000000pt" viewBox="0 0 360.000000 360.000000" preserveAspectRatio="xMidYMid meet">

<g transform="translate(0.000000,360.000000) scale(0.100000,-0.100000)" fill="#000000" stroke="none">
<path d="M2443 1450 c-11 -5 -29 -21 -40 -35 -10 -15 -37 -49 -60 -76 -23 -27 -47 -58 -53 -69 -17 -31 -302 -303 -385 -367 -35 -27 -51 -32 -125 -37 -246 -18 -653 -27 -740 -16 -66 8 -148 65 -142 97 2 13 -1 37 -8 53 -13 32 -130 130 -155 130 -19 0 -19 11 0 36 23 30 19 63 -9 70 -36 9 -46 -2 -46 -50 0 -42 0 -43 -36 -44 -21 -1 -53 -10 -73 -20 -20 -10 -47 -22 -61 -25 -36 -9 -58 -53 -65 -128 -8 -79 10 -114 81 -153 42 -24 61 -28 134 -29 96 -1 149 19 191 72 l24 29 45 -50 c43 -47 48 -50 105 -54 70 -6 157 -41 370 -148 83 -42 166 -79 186 -82 32 -5 74 6 89 25 23 28 161 136 189 148 20 9 49 23 66 31 16 9 58 20 95 26 71 12 86 31 56 71 -14 19 -16 19 -75 3 -34 -9 -61 -14 -61 -12 0 2 19 18 43 35 51 37 330 310 366 359 32 43 124 130 138 130 12 0 64 -61 114 -134 19 -29 63 -91 96 -137 112 -154 133 -184 152 -220 11 -19 37 -51 58 -70 38 -34 38 -34 133 -33 168 2 177 3 184 20 9 24 -55 45 -148 49 -117 4 -125 8 -176 80 -78 111 -284 399 -300 419 -32 42 -112 116 -123 115 -7 0 -22 -4 -34 -9z m-1725 -396 c43 -17 102 -71 102 -92 0 -31 -41 -80 -80 -96 -73 -29 -146 -18 -196 29 -30 28 -33 37 -28 66 10 53 22 69 67 89 52 23 87 24 135 4z m1039 -304 c-53 -47 -147 -120 -156 -120 -13 0 -128 44 -141 54 -8 6 -48 27 -87 46 -69 32 -89 49 -60 51 6 0 86 3 177 5 90 3 166 7 168 8 2 2 36 3 76 3 l73 -1 -50 -46z"/>
</g>
</svg>
