<?xml version="1.0" standalone="no"?>
<!DOCTYPE svg PUBLIC "-//W3C//DTD SVG 20010904//EN" "http://www.w3.org/TR/2001/REC-SVG-20010904/DTD/svg10.dtd">
<svg xmlns="http://www.w3.org/2000/svg" version="1.0" width="360.000000pt" height="360.000000pt" viewBox="0 0 360.000000 360.000000" preserveAspectRatio="xMidYMid meet">

<g transform="translate(0.000000,360.000000) scale(0.100000,-0.100000)" fill="#000000" stroke="none">
<path d="M1680 1313 c-8 -3 -37 -26 -63 -52 l-48 -46 -97 0 c-191 1 -232 4 -232 18 0 6 -10 25 -23 41 -20 25 -30 28 -70 28 -26 -1 -52 -4 -57 -7 -16 -10 -11 -53 8 -64 14 -8 10 -10 -21 -11 -56 0 -106 -62 -93 -116 7 -25 82 -72 136 -85 52 -12 110 -33 110 -40 0 -6 -38 -11 -190 -25 -25 -2 -58 -8 -75 -13 -16 -5 -66 -12 -110 -15 -44 -4 -91 -9 -105 -11 -35 -7 -52 7 -56 46 -2 19 -13 45 -24 59 -11 14 -24 34 -29 46 -5 11 -23 32 -40 46 -30 26 -30 27 -15 57 21 42 15 65 -18 69 -24 3 -26 0 -33 -45 l-6 -48 -87 3 c-78 2 -90 0 -112 -20 -84 -76 -101 -142 -55 -211 63 -91 262 -141 351 -87 21 13 44 30 50 38 9 12 17 11 55 -9 100 -52 145 -57 524 -54 343 2 470 9 855 44 65 6 135 6 185 0 44 -5 157 -14 250 -19 94 -6 193 -12 220 -15 28 -3 77 -7 110 -10 33 -4 78 -10 100 -15 22 -5 67 -9 100 -9 56 0 63 2 107 42 26 23 67 58 93 77 25 19 43 39 41 45 -1 5 -22 10 -44 9 -33 -1 -51 -9 -89 -41 -72 -60 -85 -65 -161 -58 -37 3 -94 7 -127 10 -58 5 -146 10 -325 20 -90 5 -201 20 -261 36 -21 5 -43 7 -50 5 -8 -3 -54 -7 -104 -11 -49 -3 -126 -10 -170 -15 -144 -17 -317 -19 -340 -4 -11 7 -39 15 -61 18 -23 3 -87 28 -142 56 -100 49 -101 50 -131 112 -27 56 -28 64 -13 69 9 4 20 5 23 3 3 -2 62 -6 131 -10 124 -7 178 -2 178 15 0 5 18 36 40 69 50 75 53 101 10 85z m-453 -203 c12 -25 22 -48 22 -52 1 -4 -41 7 -91 25 -123 44 -122 76 2 73 43 -1 46 -3 67 -46z m-704 -36 c52 -13 67 -20 67 -34 0 -11 4 -21 9 -25 6 -3 13 -26 17 -52 6 -42 4 -49 -20 -70 -31 -27 -60 -28 -135 -9 -113 31 -164 92 -125 152 34 51 87 62 187 38z m946 -200 c2 -2 -90 -3 -205 -3 -115 0 -214 0 -219 -1 -6 -1 -32 -1 -60 0 l-50 2 40 8 c40 8 175 19 289 25 33 2 66 9 75 17 14 13 23 11 71 -15 30 -16 57 -31 59 -33z"/>
</g>
</svg>
