<?xml version="1.0" standalone="no"?>
<!DOCTYPE svg PUBLIC "-//W3C//DTD SVG 20010904//EN" "http://www.w3.org/TR/2001/REC-SVG-20010904/DTD/svg10.dtd">
<svg xmlns="http://www.w3.org/2000/svg" version="1.0" width="360.000000pt" height="360.000000pt" viewBox="0 0 360.000000 360.000000" preserveAspectRatio="xMidYMid meet">

<g transform="translate(0.000000,360.000000) scale(0.100000,-0.100000)" fill="#000000" stroke="none">
<path d="M858 1863 c-12 -3 -18 -14 -18 -34 0 -29 -22 -41 -35 -19 -3 6 -19 10 -36 10 -22 0 -29 -5 -29 -18 0 -28 32 -52 68 -52 l32 0 0 -67 c0 -38 5 -88 11 -112 7 -30 7 -47 -1 -55 -14 -14 -13 -163 1 -172 6 -4 8 -17 4 -33 -6 -25 -18 -102 -31 -206 -3 -27 -10 -54 -15 -60 -5 -5 -9 -27 -9 -50 0 -23 -4 -45 -9 -50 -9 -10 -16 -58 -27 -182 -3 -35 -9 -63 -14 -63 -5 0 -16 24 -25 53 -17 52 -58 107 -80 107 -7 0 -20 9 -30 20 -10 11 -26 20 -37 20 -21 0 -22 11 -6 57 13 37 2 54 -31 48 -9 -2 -19 -4 -23 -4 -5 -1 -8 -14 -8 -31 0 -29 -1 -30 -50 -30 -28 0 -59 6 -70 12 -16 10 -24 10 -40 0 -11 -6 -28 -12 -39 -12 -25 0 -99 -81 -106 -117 -4 -15 -10 -36 -16 -45 -14 -28 -11 -49 19 -103 20 -37 40 -56 77 -76 28 -15 60 -28 72 -28 12 -1 25 -5 28 -11 3 -5 21 -10 40 -10 19 0 37 -4 40 -10 8 -13 55 -13 55 0 0 6 15 10 33 10 33 0 91 23 102 40 7 12 65 40 82 40 7 0 13 -7 13 -16 0 -21 29 -72 62 -109 16 -16 28 -36 28 -42 0 -7 4 -13 8 -13 5 0 15 -12 23 -28 8 -15 22 -36 33 -47 10 -11 26 -32 35 -47 17 -26 45 -59 161 -188 50 -56 62 -63 77 -54 36 22 26 44 -63 134 -48 49 -92 97 -98 107 -5 9 -23 32 -40 51 -17 19 -40 50 -51 70 -11 20 -39 56 -62 80 -49 50 -53 62 -20 62 13 0 28 5 33 10 11 11 272 9 818 -5 139 -4 213 -2 220 5 5 5 45 10 87 10 43 0 81 5 84 10 3 6 39 10 80 10 41 0 77 5 80 10 3 6 42 10 86 10 46 0 79 4 79 10 0 13 177 13 185 0 4 -6 68 -10 159 -10 83 0 156 -4 162 -9 5 -5 95 -10 199 -11 284 -2 259 -6 274 35 15 44 107 145 131 145 19 0 29 23 22 53 -2 11 -13 17 -31 17 -19 0 -42 -16 -84 -58 -31 -32 -57 -61 -57 -65 0 -4 -10 -18 -22 -32 -17 -19 -31 -25 -64 -25 -24 0 -46 -5 -49 -10 -8 -13 -45 -13 -45 0 0 5 -83 11 -202 14 -225 5 -313 12 -344 27 -24 12 -221 5 -309 -11 -33 -6 -103 -15 -155 -19 -52 -4 -103 -11 -112 -15 -23 -10 -57 13 -158 107 -47 44 -97 91 -112 105 -16 14 -28 29 -28 34 0 4 -5 8 -11 8 -12 0 -58 46 -148 149 -30 33 -60 61 -67 61 -8 0 -14 5 -14 11 0 7 -19 34 -42 60 -93 106 -117 137 -161 211 -26 43 -47 82 -47 86 0 5 -9 17 -20 27 -11 10 -20 23 -20 30 0 6 -13 24 -30 40 -16 16 -30 34 -30 40 0 6 -13 24 -30 40 -35 34 -38 51 -10 58 35 9 22 27 -19 27 -22 0 -43 5 -46 10 -3 6 -42 10 -87 10 -78 0 -80 1 -75 22 10 37 -11 53 -55 41z m236 -174 c44 -75 61 -99 68 -99 4 0 8 -6 8 -13 0 -8 9 -22 20 -32 11 -10 20 -24 20 -30 0 -7 7 -18 15 -25 8 -7 27 -37 42 -69 26 -55 120 -197 155 -235 10 -11 18 -23 18 -28 0 -4 21 -27 47 -50 48 -44 183 -172 350 -332 51 -49 93 -96 93 -104 0 -11 -3 -12 -14 -3 -10 8 -16 9 -21 1 -9 -15 -559 -14 -584 2 -15 9 -26 9 -45 0 -16 -7 -28 -8 -31 -2 -8 13 -342 13 -350 0 -3 -6 -17 -10 -31 -10 l-25 0 2 115 c1 64 6 118 10 121 5 3 9 20 9 38 0 17 4 36 9 42 5 5 11 27 15 49 12 89 19 121 28 131 9 13 9 182 -1 199 -9 16 -8 275 1 281 11 7 10 52 -2 59 -5 3 -10 13 -10 21 0 12 16 14 92 12 l91 -3 21 -36z m-636 -816 c18 -3 35 -9 38 -14 3 -5 13 -9 23 -9 42 0 80 -29 153 -118 15 -19 -6 -55 -51 -86 -30 -21 -49 -25 -119 -27 -52 -1 -88 3 -95 10 -6 6 -19 11 -29 11 -10 0 -26 4 -36 9 -9 5 -28 14 -42 20 -14 7 -31 24 -37 38 -14 30 -17 79 -5 85 4 2 15 17 24 33 9 17 23 33 30 36 7 3 22 11 33 17 11 7 34 9 50 6 17 -3 45 -7 63 -11z"/>
</g>
</svg>
