<?xml version="1.0" standalone="no"?>
<!DOCTYPE svg PUBLIC "-//W3C//DTD SVG 20010904//EN" "http://www.w3.org/TR/2001/REC-SVG-20010904/DTD/svg10.dtd">
<svg xmlns="http://www.w3.org/2000/svg" version="1.0" width="360.000000pt" height="360.000000pt" viewBox="0 0 360.000000 360.000000" preserveAspectRatio="xMidYMid meet">

<g transform="translate(0.000000,360.000000) scale(0.100000,-0.100000)" fill="#000000" stroke="none">
<path d="M810 1925 c-25 -30 -8 -48 49 -52 30 -1 56 -5 59 -7 2 -3 -5 -20 -17 -39 -11 -19 -21 -47 -21 -62 0 -42 -47 -243 -102 -440 -11 -38 -24 -90 -29 -115 -10 -50 -35 -117 -84 -230 -18 -41 -35 -92 -39 -112 -7 -40 -26 -52 -26 -17 0 61 -62 139 -123 154 -15 4 -27 11 -27 15 0 14 34 70 43 70 13 0 7 47 -7 59 -24 20 -54 -3 -61 -47 -12 -68 -14 -72 -38 -63 -60 22 -221 -42 -241 -96 -30 -78 -10 -162 48 -205 58 -43 80 -49 167 -49 88 0 157 24 190 65 19 25 20 25 207 25 103 0 223 -4 267 -9 98 -12 575 -34 705 -33 74 0 112 6 173 26 63 21 93 25 155 23 42 -2 158 -7 257 -11 99 -3 201 -10 226 -15 26 -5 141 -10 255 -11 115 -1 272 -8 349 -15 272 -26 291 -27 307 -10 9 8 24 46 33 83 10 37 24 75 30 83 22 28 26 53 10 76 -8 13 -21 21 -29 18 -14 -5 -70 -119 -81 -165 -9 -36 -40 -40 -195 -24 -69 7 -190 13 -270 14 -194 2 -388 9 -425 15 -16 3 -97 7 -180 10 -82 3 -190 9 -240 12 l-90 7 -63 61 c-34 33 -79 84 -99 111 -20 28 -61 77 -91 110 -30 33 -70 78 -90 100 -19 22 -79 86 -133 142 -54 57 -110 120 -126 140 -15 21 -65 84 -110 140 -44 56 -103 135 -130 176 -31 48 -55 74 -68 75 -11 1 -54 3 -95 6 -41 2 -95 9 -120 15 -59 14 -65 14 -80 -4z m255 -75 l50 0 32 -63 c18 -34 69 -107 114 -162 45 -55 99 -123 120 -152 22 -29 85 -101 141 -161 141 -149 217 -237 254 -291 17 -25 48 -64 69 -86 20 -22 48 -52 62 -66 l24 -27 -68 -21 c-63 -19 -83 -21 -258 -16 -262 8 -314 11 -610 31 -60 4 -127 7 -147 8 -53 1 -58 11 -43 86 7 36 18 108 24 160 16 128 39 276 51 325 5 22 12 58 15 80 11 85 18 122 37 195 11 41 22 91 24 110 6 54 12 63 37 56 12 -3 45 -6 72 -6z m-322 -947 l3 -63 -33 0 c-18 0 -33 2 -33 4 0 2 11 29 25 60 14 31 26 64 26 74 2 29 7 -7 12 -75z m-331 52 c47 -17 101 -65 112 -102 12 -38 -30 -72 -104 -85 -117 -20 -199 10 -216 79 -12 47 4 73 59 98 62 28 89 30 149 10z"/>
</g>
</svg>
