<?xml version="1.0" standalone="no"?>
<!DOCTYPE svg PUBLIC "-//W3C//DTD SVG 20010904//EN" "http://www.w3.org/TR/2001/REC-SVG-20010904/DTD/svg10.dtd">
<svg xmlns="http://www.w3.org/2000/svg" version="1.0" width="360.000000pt" height="360.000000pt" viewBox="0 0 360.000000 360.000000" preserveAspectRatio="xMidYMid meet">

<g transform="translate(0.000000,360.000000) scale(0.100000,-0.100000)" fill="#000000" stroke="none">
<path d="M1615 1583 c-9 -21 -22 -69 -29 -106 -18 -94 -22 -97 -180 -138 -47 -12 -118 -40 -204 -80 -34 -16 -67 -29 -72 -29 -5 0 -41 -15 -80 -34 -39 -19 -87 -40 -108 -46 -20 -7 -58 -25 -83 -41 -25 -16 -50 -29 -56 -29 -5 0 -16 -11 -23 -25 -18 -33 -2 -69 42 -89 18 -9 44 -25 58 -36 49 -40 207 -128 280 -157 41 -17 110 -49 153 -71 l78 -41 182 -2 c100 -1 245 4 322 10 77 7 178 14 225 16 110 6 136 12 190 43 51 28 130 101 130 118 0 21 28 35 96 50 75 15 119 48 152 114 16 29 29 38 82 55 91 30 91 54 0 65 l-45 5 -6 70 c-7 88 -11 97 -62 132 -94 63 -141 62 -226 -6 -67 -54 -93 -122 -95 -245 l-1 -98 42 -37 41 -37 -47 -41 -47 -40 -29 23 c-16 13 -43 26 -60 30 -31 6 -200 92 -247 125 -14 11 -29 19 -33 19 -3 0 -46 26 -95 58 -48 31 -106 67 -127 80 -21 13 -65 48 -98 77 -52 48 -58 56 -43 65 32 19 65 103 72 181 11 115 -18 168 -49 92z m1005 -295 c19 -26 25 -48 28 -115 4 -78 3 -86 -23 -126 -47 -71 -94 -94 -156 -76 -56 17 -73 55 -66 145 7 90 39 146 106 181 60 31 83 29 111 -9z m-1038 -80 c50 -46 110 -94 134 -108 23 -14 104 -65 178 -113 161 -104 248 -148 335 -173 72 -20 69 -24 -39 -44 -71 -13 -76 -13 -270 -29 -74 -6 -153 -13 -175 -16 -22 -2 -108 0 -192 5 l-151 8 -79 42 c-43 23 -98 49 -123 57 -25 7 -59 21 -76 31 -17 9 -51 28 -75 41 -24 13 -53 32 -64 43 -11 11 -39 33 -63 49 -23 16 -41 33 -38 37 5 8 50 31 121 62 28 12 82 37 120 55 122 58 208 92 265 105 30 7 62 16 70 21 25 14 30 12 122 -73z"/>
</g>
</svg>
