<?xml version="1.0" standalone="no"?>
<!DOCTYPE svg PUBLIC "-//W3C//DTD SVG 20010904//EN" "http://www.w3.org/TR/2001/REC-SVG-20010904/DTD/svg10.dtd">
<svg xmlns="http://www.w3.org/2000/svg" version="1.0" width="360.000000pt" height="360.000000pt" viewBox="0 0 360.000000 360.000000" preserveAspectRatio="xMidYMid meet">

<g transform="translate(0.000000,360.000000) scale(0.100000,-0.100000)" fill="#000000" stroke="none">
<path d="M2798 3089 c-10 -10 -18 -27 -18 -36 0 -10 -11 -45 -25 -78 -14 -33 -28 -77 -31 -98 -5 -27 -9 -35 -16 -25 -7 10 -11 10 -21 -4 -27 -38 -175 -282 -262 -431 -16 -29 -42 -71 -57 -94 -16 -24 -28 -46 -28 -51 0 -5 -15 -26 -34 -48 -18 -21 -71 -95 -118 -164 -184 -272 -243 -356 -265 -383 -38 -47 -103 -194 -120 -270 -8 -40 -16 -121 -17 -182 -1 -107 0 -112 38 -200 50 -114 81 -161 125 -191 l36 -24 -80 5 c-44 4 -98 11 -120 16 -41 10 -344 5 -515 -9 l-95 -7 0 -30 c0 -34 -17 -33 190 -17 127 9 373 8 440 -3 22 -3 69 -11 105 -16 57 -9 91 -19 64 -19 -6 0 -62 -11 -125 -24 -63 -14 -138 -27 -166 -30 -28 -4 -86 -15 -130 -27 -43 -11 -109 -24 -148 -29 -76 -10 -86 -12 -160 -31 -68 -16 -85 -26 -85 -50 0 -14 4 -18 13 -12 6 4 23 9 37 10 129 14 283 41 380 68 30 8 73 15 95 15 22 0 56 5 76 10 106 30 465 72 634 74 153 3 189 12 258 67 34 28 41 30 69 20 26 -9 35 -8 47 4 20 19 7 43 -35 64 -29 15 -29 16 -29 102 0 73 -3 90 -20 109 -63 70 -200 52 -294 -39 -57 -55 -83 -113 -85 -191 l-2 -65 -55 2 c-88 2 -132 14 -161 41 -15 14 -30 23 -33 20 -3 -2 -34 23 -69 56 -54 51 -71 74 -98 141 -31 76 -33 86 -32 200 2 200 31 275 193 508 53 77 101 146 106 155 6 10 38 57 70 105 33 49 67 99 75 111 8 12 29 40 46 62 16 21 57 84 89 139 32 55 76 126 97 159 21 32 38 63 38 68 0 6 21 42 46 80 26 39 59 94 74 124 26 51 29 52 41 33 13 -19 15 -19 47 -4 31 16 32 19 27 56 -7 49 17 139 51 191 27 42 30 58 12 76 -17 17 -50 13 -70 -9z m-175 -2057 c20 -18 24 -121 5 -140 -6 -6 -13 -22 -15 -34 -2 -13 -5 -28 -7 -34 -7 -20 -68 -45 -121 -51 -44 -4 -53 -2 -77 20 -74 69 3 213 135 252 44 13 50 12 80 -13z"/>
</g>
</svg>
