<?xml version="1.0" standalone="no"?>
<!DOCTYPE svg PUBLIC "-//W3C//DTD SVG 20010904//EN" "http://www.w3.org/TR/2001/REC-SVG-20010904/DTD/svg10.dtd">
<svg xmlns="http://www.w3.org/2000/svg" version="1.0" width="360.000000pt" height="360.000000pt" viewBox="0 0 360.000000 360.000000" preserveAspectRatio="xMidYMid meet">

<g transform="translate(0.000000,360.000000) scale(0.100000,-0.100000)" fill="#000000" stroke="none">
<path d="M525 1171 c-11 -5 -68 -7 -126 -6 -58 2 -112 -1 -120 -6 -11 -7 -11 -9 -1 -9 7 0 11 -4 7 -9 -3 -6 3 -10 12 -10 10 0 41 -5 68 -11 28 -6 91 -14 141 -19 88 -7 94 -10 180 -64 49 -31 124 -78 167 -104 42 -27 144 -90 225 -140 81 -51 156 -93 166 -93 11 0 38 -11 60 -24 23 -13 107 -45 186 -71 80 -26 183 -59 230 -75 47 -15 114 -35 150 -45 201 -54 337 -94 415 -122 91 -32 115 -38 115 -25 0 5 42 31 93 56 92 47 258 99 352 111 81 10 95 15 95 30 0 19 2 19 45 -6 48 -29 142 -22 218 14 44 22 58 25 92 17 22 -5 46 -10 53 -10 19 0 14 35 -7 54 -19 17 -19 18 6 54 60 89 -4 231 -112 249 -21 3 -61 -3 -106 -16 -57 -18 -82 -33 -124 -72 -65 -61 -99 -134 -92 -195 4 -42 4 -42 -31 -49 -20 -4 -39 -2 -45 4 -15 15 -44 14 -49 -1 -5 -14 -93 -25 -283 -34 -82 -4 -161 -11 -174 -16 -13 -5 -75 -11 -139 -14 -116 -6 -198 3 -275 32 -21 8 -42 12 -46 10 -7 -5 -93 17 -186 47 -27 8 -81 25 -120 37 -38 12 -79 25 -90 29 -11 5 -56 21 -100 37 -74 25 -106 43 -248 132 -28 18 -78 47 -110 63 -32 16 -106 62 -165 102 -133 89 -182 118 -302 173 -3 2 -14 -1 -25 -5z m2743 -359 c26 -25 42 -48 42 -62 0 -35 -48 -98 -93 -123 -22 -12 -50 -28 -63 -35 -13 -7 -45 -15 -71 -18 -168 -20 -113 200 63 256 33 10 64 19 70 19 6 1 29 -16 52 -37z m-743 -332 c-3 -5 -12 -10 -19 -10 -7 0 -38 -13 -69 -30 -31 -16 -65 -30 -74 -30 -21 0 -103 33 -103 41 0 11 106 28 179 28 40 0 76 2 79 5 9 10 14 7 7 -4z"/>
</g>
</svg>
