<?xml version="1.0" standalone="no"?>
<!DOCTYPE svg PUBLIC "-//W3C//DTD SVG 20010904//EN" "http://www.w3.org/TR/2001/REC-SVG-20010904/DTD/svg10.dtd">
<svg xmlns="http://www.w3.org/2000/svg" version="1.0" width="360.000000pt" height="360.000000pt" viewBox="0 0 360.000000 360.000000" preserveAspectRatio="xMidYMid meet">

<g transform="translate(0.000000,360.000000) scale(0.100000,-0.100000)" fill="#000000" stroke="none">
<path d="M327 2516 c-8 -21 157 -176 209 -196 12 -5 25 -21 28 -37 4 -15 33 -82 65 -148 33 -66 71 -147 86 -180 15 -33 46 -91 68 -130 22 -38 51 -90 65 -115 39 -71 108 -174 126 -189 9 -7 16 -18 16 -23 0 -6 -6 -6 -14 1 -30 25 -25 -9 11 -77 35 -65 37 -71 22 -88 -9 -11 -22 -35 -29 -54 -7 -19 -25 -62 -41 -95 -15 -33 -39 -89 -54 -125 -28 -67 -79 -166 -122 -234 -30 -47 -40 -100 -23 -121 16 -19 52 -19 115 1 28 8 118 26 200 39 83 13 184 33 225 44 41 10 107 22 145 26 39 4 84 11 100 15 22 7 45 4 84 -9 l53 -19 -28 -13 c-16 -8 -30 -24 -32 -36 -4 -26 34 -56 57 -44 9 4 52 4 96 -1 109 -13 208 -12 282 1 34 7 113 16 175 22 62 5 163 14 223 20 61 5 147 12 192 14 45 2 92 9 104 15 17 10 23 8 35 -8 14 -20 91 -52 125 -52 43 0 117 23 141 43 15 12 35 30 47 39 16 13 27 15 53 7 18 -5 39 -9 45 -9 22 0 14 38 -12 58 -25 20 -25 23 -16 80 10 65 -2 129 -30 158 -9 8 -42 22 -73 30 -65 17 -110 8 -142 -27 -10 -11 -32 -27 -50 -35 -57 -27 -114 -129 -114 -205 0 -25 -2 -26 -62 -26 -120 0 -462 -14 -470 -19 -14 -9 -262 -5 -308 4 -173 36 -205 46 -248 73 -66 42 -413 396 -502 512 -41 54 -96 126 -122 160 -124 163 -374 635 -402 759 -10 48 -14 53 -44 59 -18 4 -43 16 -56 28 -12 11 -27 21 -33 21 -6 0 -30 21 -53 47 -32 37 -49 48 -75 50 -19 1 -35 -4 -38 -11z m1043 -1450 c147 -152 162 -171 140 -173 -91 -11 -186 -27 -255 -44 -129 -32 -155 -38 -260 -54 -55 -8 -118 -19 -140 -25 -22 -5 -41 -7 -44 -5 -2 3 7 22 21 42 30 47 91 172 159 328 28 66 58 130 65 143 8 12 22 34 31 49 l16 28 51 -60 c28 -33 125 -136 216 -229z m1670 -15 c0 -5 8 -11 18 -13 23 -6 34 -64 22 -110 -18 -63 -109 -138 -168 -138 -37 0 -84 17 -94 33 -14 22 -8 70 12 113 19 38 34 51 120 107 27 17 90 23 90 8z"/>
</g>
</svg>
