<?xml version="1.0" standalone="no"?>
<!DOCTYPE svg PUBLIC "-//W3C//DTD SVG 20010904//EN" "http://www.w3.org/TR/2001/REC-SVG-20010904/DTD/svg10.dtd">
<svg xmlns="http://www.w3.org/2000/svg" version="1.0" width="360.000000pt" height="360.000000pt" viewBox="0 0 360.000000 360.000000" preserveAspectRatio="xMidYMid meet">

<g transform="translate(0.000000,360.000000) scale(0.100000,-0.100000)" fill="#000000" stroke="none">
<path d="M690 2251 c0 -17 3 -31 8 -32 31 -4 117 -10 167 -12 71 -2 61 13 138 -217 107 -319 154 -422 211 -459 14 -10 114 -102 222 -206 185 -178 195 -190 171 -196 -15 -4 -39 -16 -55 -28 -16 -11 -83 -46 -148 -77 -110 -52 -149 -68 -304 -126 -61 -22 -220 -32 -287 -18 -21 5 -81 11 -133 15 -52 4 -97 8 -100 10 -4 2 -83 9 -177 15 l-170 12 -54 -34 c-30 -19 -74 -42 -99 -52 -59 -23 -80 -56 -45 -70 17 -6 141 45 187 76 16 11 33 16 38 13 6 -4 70 -8 143 -10 153 -4 340 -19 356 -29 6 -4 74 -11 152 -16 153 -10 152 -10 289 60 19 10 53 23 75 30 22 7 60 23 85 36 53 28 198 94 206 94 3 0 20 11 37 24 49 37 81 47 103 32 32 -22 224 -118 252 -126 32 -9 -34 -16 -223 -25 -66 -3 -132 -11 -147 -17 -22 -8 -35 -6 -72 13 -37 18 -50 20 -68 11 -13 -6 -40 -16 -60 -22 -67 -20 -76 -60 -21 -93 32 -18 32 -18 75 7 43 25 44 25 178 15 166 -12 861 -16 1025 -5 132 8 238 21 302 38 38 9 44 8 67 -15 30 -30 118 -53 169 -43 19 4 56 18 82 31 42 23 48 24 68 10 12 -8 27 -15 34 -15 16 0 18 56 2 65 -7 5 -6 12 3 23 45 55 50 134 12 209 -30 59 -50 68 -149 64 -66 -2 -109 -22 -184 -87 -49 -42 -71 -86 -71 -139 0 -20 -5 -37 -12 -39 -50 -14 -192 -30 -293 -33 -289 -8 -351 -9 -375 -2 -14 5 -54 16 -90 25 -35 9 -92 29 -125 44 -33 15 -70 31 -83 34 -13 4 -50 23 -83 42 -34 19 -64 34 -67 34 -10 0 -92 42 -127 65 -16 11 -50 40 -75 65 -43 43 -78 74 -204 184 -33 28 -78 69 -101 91 -23 22 -63 59 -88 83 -26 23 -47 46 -47 51 0 5 -13 35 -29 67 -34 70 -113 269 -134 339 -8 28 -27 76 -41 108 -14 32 -26 68 -26 82 0 39 -13 43 -182 51 l-108 5 0 -30z m2627 -1123 c28 -31 34 -76 17 -118 -16 -36 -51 -80 -66 -80 -5 0 -22 -10 -38 -22 -22 -16 -42 -21 -81 -19 -68 2 -84 12 -96 60 -8 32 -7 47 7 78 42 95 204 159 257 101z"/>
</g>
</svg>
