<?xml version="1.0" standalone="no"?>
<!DOCTYPE svg PUBLIC "-//W3C//DTD SVG 20010904//EN" "http://www.w3.org/TR/2001/REC-SVG-20010904/DTD/svg10.dtd">
<svg xmlns="http://www.w3.org/2000/svg" version="1.0" width="360.000000pt" height="360.000000pt" viewBox="0 0 360.000000 360.000000" preserveAspectRatio="xMidYMid meet">

<g transform="translate(0.000000,360.000000) scale(0.100000,-0.100000)" fill="#000000" stroke="none">
<path d="M3065 1281 c-33 -16 -74 -44 -92 -62 -53 -56 -78 -140 -54 -178 18 -28 -62 -54 -159 -54 -79 0 -268 23 -316 38 -25 8 -54 -17 -54 -46 0 -11 10 -30 23 -43 12 -13 32 -36 44 -53 l21 -30 -136 -23 c-76 -13 -191 -25 -257 -27 -66 -2 -174 -8 -240 -13 -170 -12 -502 -4 -601 15 -45 8 -147 20 -228 25 -80 5 -152 12 -158 16 -7 4 -28 9 -48 11 -19 2 -74 10 -123 18 -103 17 -183 10 -213 -17 -28 -25 -72 -50 -159 -92 -65 -31 -104 -60 -93 -71 12 -12 161 36 211 68 31 20 73 40 94 46 56 14 211 2 328 -25 33 -7 94 -14 135 -14 41 0 129 -10 195 -21 141 -24 454 -32 705 -18 85 5 187 10 225 12 83 5 231 24 295 38 105 24 100 26 160 -46 51 -61 57 -65 85 -59 17 4 86 8 154 9 106 2 127 4 135 19 9 14 6 21 -11 35 -17 15 -42 18 -148 18 -125 1 -127 2 -156 29 -16 15 -29 31 -29 35 0 4 21 14 48 23 118 37 207 74 290 121 19 10 30 10 63 -1 49 -17 71 -19 127 -9 26 5 42 4 42 -2 0 -14 76 -47 90 -38 8 5 5 17 -10 42 l-20 34 32 27 c17 15 34 29 38 32 3 3 16 22 29 43 41 67 12 141 -79 196 -50 30 -111 28 -185 -8z m163 -62 c17 -16 36 -28 41 -25 16 10 20 -34 6 -67 -34 -82 -172 -138 -247 -101 -35 18 -52 69 -37 110 20 54 112 112 179 114 14 0 39 -13 58 -31z m-602 -290 l45 -12 -40 -18 c-66 -29 -82 -28 -104 9 l-19 32 37 0 c20 0 56 -5 81 -11z"/>
</g>
</svg>
