<?xml version="1.0" standalone="no"?>
<!DOCTYPE svg PUBLIC "-//W3C//DTD SVG 20010904//EN" "http://www.w3.org/TR/2001/REC-SVG-20010904/DTD/svg10.dtd">
<svg xmlns="http://www.w3.org/2000/svg" version="1.0" width="360.000000pt" height="360.000000pt" viewBox="0 0 360.000000 360.000000" preserveAspectRatio="xMidYMid meet">

<g transform="translate(0.000000,360.000000) scale(0.100000,-0.100000)" fill="#000000" stroke="none">
<path d="M2995 1282 c-6 -5 -26 -15 -45 -22 -78 -30 -130 -93 -130 -156 0 -26 -5 -44 -13 -47 -23 -9 -555 0 -682 12 -66 6 -154 13 -195 17 -41 3 -79 10 -85 15 -5 5 -25 9 -45 9 -20 0 -40 4 -46 10 -6 6 -21 6 -39 1 -17 -5 -46 -14 -66 -20 -19 -6 -44 -11 -55 -11 -10 0 -39 -8 -64 -17 -25 -9 -74 -20 -110 -25 -64 -8 -286 -28 -305 -27 -29 1 -265 20 -360 28 -102 9 -195 21 -303 37 -27 4 -48 2 -55 -5 -6 -6 -19 -11 -29 -11 -19 0 -26 -3 -87 -35 -41 -22 -94 -36 -141 -38 -28 -2 -36 -6 -38 -24 -3 -22 -1 -23 77 -23 44 0 83 4 86 10 3 5 17 10 31 10 13 0 24 3 24 8 0 4 12 13 27 20 32 14 244 17 259 3 5 -6 56 -12 114 -15 210 -11 285 -18 296 -27 13 -11 173 -9 180 2 3 5 45 9 94 9 49 0 92 5 95 10 3 6 28 10 55 10 27 0 52 5 55 10 3 6 19 10 35 10 16 0 32 4 35 10 3 5 17 10 30 10 13 0 27 5 30 10 8 13 182 13 190 0 3 -5 34 -10 69 -10 34 0 66 -4 71 -9 6 -6 78 -12 160 -15 83 -3 215 -8 295 -12 100 -4 156 -2 182 7 35 11 37 11 79 -30 24 -22 46 -41 51 -41 12 0 113 -71 190 -135 20 -16 56 -45 80 -63 24 -18 57 -44 74 -57 34 -27 76 -33 91 -12 6 6 10 70 10 140 0 100 -3 130 -13 134 -24 9 -16 33 11 33 30 0 107 67 130 113 30 60 16 119 -42 172 l-38 35 -105 0 c-59 0 -110 -4 -115 -8z m170 -62 c3 -5 14 -10 24 -10 26 0 61 -53 54 -81 -10 -42 -112 -133 -130 -116 -2 3 -18 0 -35 -7 -60 -25 -186 20 -203 73 -8 27 36 95 76 115 18 9 51 16 73 16 23 0 48 5 56 10 20 13 77 13 85 0z m-295 -240 c19 -17 42 -30 52 -30 9 0 20 -4 23 -10 3 -5 24 -10 45 -10 21 0 42 5 45 10 3 6 19 10 36 10 l29 0 0 -95 c0 -52 -4 -95 -9 -95 -23 0 -127 74 -257 183 -25 20 -54 37 -65 37 -10 0 -19 7 -19 15 0 11 11 15 43 15 32 -1 50 -8 77 -30z"/>
</g>
</svg>
