<?xml version="1.0" standalone="no"?>
<!DOCTYPE svg PUBLIC "-//W3C//DTD SVG 20010904//EN" "http://www.w3.org/TR/2001/REC-SVG-20010904/DTD/svg10.dtd">
<svg xmlns="http://www.w3.org/2000/svg" version="1.0" width="360.000000pt" height="360.000000pt" viewBox="0 0 360.000000 360.000000" preserveAspectRatio="xMidYMid meet">

<g transform="translate(0.000000,360.000000) scale(0.100000,-0.100000)" fill="#000000" stroke="none">
<path d="M3230 1411 c-50 -7 -147 -59 -192 -104 -55 -54 -73 -105 -65 -189 5 -51 3 -58 -18 -72 -21 -14 -31 -14 -96 0 -40 8 -75 17 -78 19 -3 1 -24 6 -46 9 -43 7 -208 41 -265 55 -19 5 -64 13 -100 16 -86 10 -308 66 -391 99 -80 32 -89 32 -89 4 0 -48 232 -126 480 -163 58 -8 128 -22 155 -29 28 -8 70 -17 95 -21 25 -4 70 -13 100 -20 30 -7 73 -16 95 -20 l40 -7 -35 -18 c-28 -14 -72 -19 -220 -24 -218 -7 -441 10 -680 52 -107 19 -143 17 -148 -10 -4 -19 17 -28 93 -39 33 -4 123 -17 200 -28 201 -30 375 -43 485 -38 91 4 94 4 60 -11 -71 -30 -201 -72 -222 -72 -13 0 -55 -9 -95 -19 -64 -17 -105 -18 -392 -16 -324 3 -431 12 -524 44 -48 17 -90 28 -369 96 -57 14 -113 25 -125 25 -12 0 -24 4 -27 9 -3 4 -28 11 -56 14 -45 5 -164 41 -225 66 -25 11 -103 33 -130 37 -25 4 -106 27 -167 49 -32 12 -52 14 -64 7 -13 -7 -2 -16 62 -47 96 -47 107 -51 164 -66 50 -13 45 -11 155 -50 44 -16 143 -42 220 -59 77 -16 174 -38 215 -50 41 -11 95 -25 120 -30 71 -15 164 -40 170 -47 7 -8 -188 6 -230 17 -19 5 -91 16 -160 25 -69 8 -163 25 -210 36 -47 11 -94 22 -105 24 -34 7 -145 32 -242 54 -51 11 -106 27 -124 36 -28 15 -33 15 -47 1 -13 -13 -13 -18 -2 -31 22 -26 59 -41 165 -65 55 -13 154 -36 220 -52 121 -30 189 -42 435 -78 195 -27 250 -30 600 -30 634 1 701 6 903 74 60 20 118 41 129 47 10 6 40 12 66 13 27 1 73 15 107 31 33 16 65 30 70 31 6 0 37 27 69 58 41 40 64 55 75 50 9 -4 39 -9 66 -11 61 -6 150 25 190 64 22 22 36 27 78 28 46 0 52 3 55 23 2 16 -3 25 -20 31 -13 5 -26 7 -30 4 -10 -5 -10 -6 7 51 20 66 19 98 -6 156 -27 64 -54 75 -149 61z m58 -63 c27 -2 34 -7 41 -34 19 -69 -25 -179 -88 -223 -83 -58 -165 -51 -200 16 -24 46 -1 122 51 170 34 31 131 82 148 77 8 -2 30 -5 48 -6z"/>
</g>
</svg>
