<?xml version="1.0" standalone="no"?>
<!DOCTYPE svg PUBLIC "-//W3C//DTD SVG 20010904//EN" "http://www.w3.org/TR/2001/REC-SVG-20010904/DTD/svg10.dtd">
<svg xmlns="http://www.w3.org/2000/svg" version="1.0" width="360.000000pt" height="360.000000pt" viewBox="0 0 360.000000 360.000000" preserveAspectRatio="xMidYMid meet">

<g transform="translate(0.000000,360.000000) scale(0.100000,-0.100000)" fill="#000000" stroke="none">
<path d="M1802 2263 c-4 -10 -14 -38 -21 -63 -7 -25 -19 -61 -26 -80 -22 -61 -34 -104 -40 -145 -3 -22 -15 -69 -26 -105 -41 -126 -102 -305 -108 -318 -4 -7 -13 97 -20 230 -7 134 -18 284 -26 334 -7 49 -11 102 -8 117 5 25 3 27 -29 27 -63 0 -172 -89 -172 -140 0 -34 6 -31 98 52 47 43 51 45 53 21 0 -10 6 -81 13 -158 6 -77 14 -252 16 -388 2 -149 8 -256 15 -268 12 -23 48 -22 60 1 37 74 99 263 226 695 15 50 28 92 30 94 7 10 16 -13 41 -101 24 -86 26 -107 25 -283 -1 -271 -31 -490 -78 -575 -53 -97 -82 -139 -175 -256 -152 -192 -237 -357 -206 -400 18 -25 110 -19 191 11 39 15 115 38 170 52 55 14 132 35 171 47 52 17 77 20 98 13 32 -11 76 4 76 26 0 8 -9 26 -21 41 -11 15 -24 39 -28 54 -4 15 -17 31 -29 37 -17 7 -20 15 -14 35 12 43 6 116 -12 164 -17 45 -52 77 -118 111 -18 9 -19 17 -15 75 3 36 13 106 21 155 21 131 37 332 36 470 0 201 -69 426 -132 433 -18 2 -30 -3 -36 -15z m148 -1216 c53 -41 62 -97 30 -199 -29 -95 -81 -134 -138 -104 -36 18 -38 24 -47 108 -8 74 10 157 45 200 18 24 23 25 57 16 21 -5 45 -15 53 -21z m-222 -125 c-1 -31 -7 -42 -30 -55 -42 -24 -33 -77 14 -77 11 0 25 -14 35 -37 10 -21 23 -46 31 -55 13 -15 9 -18 -44 -33 -33 -9 -66 -19 -74 -22 -8 -4 -17 -7 -20 -8 -3 -1 -18 -7 -35 -14 -34 -14 -82 -18 -92 -7 -10 9 50 126 105 206 52 75 102 140 108 140 2 0 3 -17 2 -38z"/>
</g>
</svg>
