<?xml version="1.0" standalone="no"?>
<!DOCTYPE svg PUBLIC "-//W3C//DTD SVG 20010904//EN" "http://www.w3.org/TR/2001/REC-SVG-20010904/DTD/svg10.dtd">
<svg xmlns="http://www.w3.org/2000/svg" version="1.0" width="360.000000pt" height="360.000000pt" viewBox="0 0 360.000000 360.000000" preserveAspectRatio="xMidYMid meet">

<g transform="translate(0.000000,360.000000) scale(0.100000,-0.100000)" fill="#000000" stroke="none">
<path d="M2422 3022 c-30 -5 -48 -34 -76 -128 -23 -76 -25 -79 -52 -76 -100 9 -189 40 -382 133 -131 63 -145 62 -154 -11 -9 -69 -2 -320 13 -408 9 -58 39 -159 63 -213 6 -15 -3 -17 -82 -18 -49 -1 -127 -6 -173 -11 -116 -13 -788 -14 -823 0 -34 12 -72 4 -80 -18 -3 -10 -23 -42 -45 -72 -51 -70 -78 -137 -62 -153 12 -12 46 1 46 19 1 5 17 41 37 80 l37 71 323 0 c346 1 745 11 791 19 31 6 32 2 12 -57 -9 -24 -27 -100 -42 -169 -22 -108 -26 -151 -26 -320 -1 -166 2 -202 18 -245 10 -27 22 -54 27 -59 12 -15 10 -44 -6 -79 -8 -18 -26 -61 -40 -97 -78 -202 -195 -452 -216 -465 -6 -3 -10 -19 -10 -35 0 -46 28 -55 108 -34 84 22 167 20 322 -6 137 -23 187 -24 245 -6 61 18 53 41 -15 43 -30 1 -66 5 -80 9 -14 4 -32 8 -40 9 -8 1 -24 5 -35 8 -30 9 -234 29 -285 28 -24 -1 -62 -6 -83 -12 -21 -6 -41 -8 -43 -6 -3 2 20 59 51 125 30 67 55 124 55 128 0 19 126 296 142 314 26 28 52 27 42 -2 -11 -32 -8 -168 4 -198 5 -14 30 -48 54 -75 25 -28 51 -67 58 -88 8 -27 16 -37 27 -33 8 3 17 6 19 6 2 0 4 11 4 25 0 24 12 31 50 25 38 -5 92 25 116 65 47 81 26 184 -56 278 -33 37 -54 51 -98 63 -31 9 -72 14 -94 11 -21 -3 -55 0 -76 6 -20 6 -42 10 -48 9 -6 -1 -20 24 -30 55 -27 83 -28 440 -1 558 25 110 46 162 84 212 36 47 42 73 18 73 -23 0 -88 162 -100 247 -10 75 -27 364 -22 369 3 3 43 -13 89 -36 45 -23 99 -49 118 -57 19 -9 42 -19 50 -23 25 -12 184 -58 200 -58 8 0 29 -5 47 -10 44 -14 73 7 73 55 0 48 28 140 56 185 13 21 24 39 24 42 0 7 -25 12 -48 8z m-306 -1750 c34 -31 67 -71 74 -89 15 -40 5 -105 -21 -128 -44 -40 -172 16 -196 85 -15 44 -16 125 -2 151 10 20 42 37 69 38 8 0 43 -25 76 -57z"/>
</g>
</svg>
