<?xml version="1.0" standalone="no"?>
<!DOCTYPE svg PUBLIC "-//W3C//DTD SVG 20010904//EN" "http://www.w3.org/TR/2001/REC-SVG-20010904/DTD/svg10.dtd">
<svg xmlns="http://www.w3.org/2000/svg" version="1.0" width="360.000000pt" height="360.000000pt" viewBox="0 0 360.000000 360.000000" preserveAspectRatio="xMidYMid meet">

<g transform="translate(0.000000,360.000000) scale(0.100000,-0.100000)" fill="#000000" stroke="none">
<path d="M1670 3425 c0 -8 23 -49 50 -91 28 -42 50 -82 50 -89 0 -43 -192 -464 -234 -515 -27 -31 -25 -52 15 -147 22 -54 46 -114 54 -134 23 -63 114 -250 160 -330 25 -43 45 -80 45 -81 0 -2 -12 -5 -28 -6 -210 -16 -490 -345 -558 -656 -20 -93 -61 -340 -72 -441 -8 -72 -18 -108 -49 -170 -21 -44 -44 -86 -51 -93 -16 -17 -15 -23 4 -50 9 -13 26 -22 41 -22 24 0 25 -2 19 -41 -5 -30 -2 -48 10 -66 l16 -25 136 6 c76 4 151 7 167 8 39 2 129 -10 182 -24 23 -6 49 -8 58 -5 28 11 16 43 -24 65 -33 19 -55 22 -162 23 -68 1 -159 1 -203 0 -82 -2 -106 7 -106 39 0 13 10 20 33 25 31 6 59 15 102 31 11 4 25 6 30 5 32 -8 120 1 150 15 80 38 106 137 62 235 -43 97 -132 163 -236 176 -48 5 -53 9 -70 43 -20 42 -22 24 35 263 44 185 148 356 292 479 80 69 149 104 218 113 l50 7 106 -83 c58 -46 163 -129 232 -183 118 -93 198 -173 256 -253 31 -44 38 -131 16 -234 -14 -68 -22 -151 -42 -430 -6 -85 -6 -88 25 -132 17 -25 34 -47 38 -49 5 -1 28 -27 51 -56 47 -56 65 -63 82 -32 14 26 -8 70 -56 107 -68 54 -76 78 -75 221 2 155 7 222 28 332 8 47 16 131 16 188 l1 103 -113 113 c-63 62 -130 123 -149 137 -20 13 -40 29 -46 34 -6 6 -36 28 -66 50 -105 75 -240 188 -240 201 0 7 -12 19 -26 26 -15 7 -37 31 -50 53 -26 47 -154 303 -154 311 0 3 -8 24 -18 47 -11 23 -29 69 -42 102 -13 33 -27 64 -32 70 -19 22 -3 72 80 246 49 101 94 200 102 219 7 19 26 65 43 102 19 43 27 75 23 90 -9 34 -134 168 -157 168 -10 0 -19 -7 -19 -15z m-258 -2451 c103 -53 144 -225 62 -263 -64 -29 -137 -3 -190 67 -23 30 -29 49 -32 102 -3 56 -1 69 18 93 21 27 26 28 69 22 25 -4 58 -13 73 -21z m-166 -255 c14 -15 12 -18 -17 -28 -18 -6 -35 -9 -38 -6 -6 7 -3 71 6 99 4 16 8 14 20 -15 7 -18 21 -41 29 -50z"/>
</g>
</svg>
