<?xml version="1.0" standalone="no"?>
<!DOCTYPE svg PUBLIC "-//W3C//DTD SVG 20010904//EN" "http://www.w3.org/TR/2001/REC-SVG-20010904/DTD/svg10.dtd">
<svg xmlns="http://www.w3.org/2000/svg" version="1.0" width="360.000000pt" height="360.000000pt" viewBox="0 0 360.000000 360.000000" preserveAspectRatio="xMidYMid meet">

<g transform="translate(0.000000,360.000000) scale(0.100000,-0.100000)" fill="#000000" stroke="none">
<path d="M2632 2808 c-7 -7 -12 -24 -12 -38 0 -14 -9 -45 -20 -68 -11 -22 -20 -50 -20 -60 0 -11 -22 -35 -51 -58 -28 -21 -60 -47 -71 -58 -20 -18 -21 -17 -57 15 -85 79 -114 79 -220 1 -55 -40 -107 -116 -131 -190 -31 -96 -32 -116 -13 -156 19 -41 13 -63 -26 -82 -12 -6 -35 -23 -50 -38 -15 -14 -34 -26 -43 -26 -24 0 -89 -39 -183 -109 -22 -17 -47 -34 -55 -38 -8 -3 -61 -37 -117 -75 -56 -37 -105 -68 -109 -68 -4 0 -23 -15 -44 -32 -21 -18 -64 -53 -96 -78 -71 -55 -127 -110 -177 -174 -30 -39 -37 -57 -37 -93 0 -38 4 -46 33 -63 45 -28 115 -26 158 3 19 12 50 30 70 40 20 9 73 42 118 72 45 30 84 55 87 55 3 0 25 14 49 30 24 17 48 30 53 30 5 0 -4 -28 -20 -62 -33 -67 -32 -52 -23 -361 3 -82 7 -153 10 -158 4 -5 40 -9 80 -9 64 0 76 3 85 20 16 30 4 40 -44 40 -56 0 -82 25 -65 63 6 14 8 34 4 44 -4 10 -10 72 -12 138 -5 117 1 155 32 230 7 17 20 47 29 68 17 41 38 67 55 67 12 0 5 -46 -9 -65 -21 -28 -37 -202 -21 -218 6 -6 11 -21 11 -33 0 -13 5 -26 10 -29 6 -3 10 -19 10 -35 0 -16 5 -32 10 -35 6 -3 10 -17 10 -31 0 -14 5 -34 11 -45 6 -11 10 -53 10 -94 0 -66 2 -76 26 -99 22 -22 35 -26 83 -26 46 0 60 4 78 23 22 23 22 24 3 42 -11 9 -27 15 -35 12 -8 -3 -30 -1 -49 4 -38 10 -37 7 -53 139 -3 30 -11 63 -16 73 -5 10 -11 30 -14 45 -2 15 -7 43 -10 62 -4 19 -13 43 -22 52 -13 16 -12 29 13 135 15 65 32 132 38 148 11 32 94 104 149 130 18 8 56 28 83 44 28 16 62 30 78 30 15 1 35 5 45 10 9 5 37 15 62 22 25 7 49 16 54 21 6 4 20 8 32 8 13 0 26 5 29 10 3 6 17 10 31 10 13 0 32 4 42 9 18 9 58 26 102 44 14 5 33 13 42 18 10 5 29 9 42 9 14 0 28 5 31 10 3 6 14 10 24 10 10 0 41 15 69 33 43 27 56 43 79 96 15 36 42 82 60 103 28 34 31 42 20 59 -27 43 -62 11 -137 -129 -20 -36 -46 -70 -60 -77 -85 -43 -113 -55 -126 -55 -8 0 -22 -4 -32 -9 -9 -5 -30 -14 -47 -21 -16 -7 -39 -17 -49 -22 -11 -6 -29 -11 -40 -13 -12 -2 -52 -15 -91 -30 -38 -15 -79 -29 -90 -32 -11 -2 -29 -8 -40 -13 -11 -5 -35 -11 -52 -14 -78 -14 -100 -20 -131 -37 -18 -11 -41 -19 -52 -19 -11 0 -20 -5 -20 -10 0 -18 -49 -62 -61 -55 -7 5 -6 11 2 21 23 28 49 184 30 184 -6 0 -11 5 -11 10 0 6 10 10 21 10 12 0 43 20 69 44 45 43 48 44 91 36 65 -12 164 -1 188 21 11 11 23 19 27 19 4 0 18 10 31 22 18 17 34 21 67 19 55 -2 67 14 27 37 -37 20 -37 21 -10 66 19 33 20 42 10 99 -15 84 -14 87 9 87 11 0 25 9 32 20 7 11 18 20 24 20 6 0 18 7 25 16 7 9 24 20 36 25 24 9 33 26 53 99 7 25 21 67 31 94 14 37 16 52 8 62 -14 17 -41 18 -57 2z m-273 -309 c17 -17 31 -41 31 -53 0 -12 5 -27 10 -32 6 -6 11 -30 12 -55 2 -36 -4 -53 -30 -89 -46 -66 -54 -74 -87 -89 -16 -7 -38 -17 -47 -22 -39 -20 -88 -10 -125 25 -30 28 -35 39 -35 76 1 23 6 48 11 53 6 6 11 19 11 29 0 32 37 94 85 142 41 41 52 46 90 46 35 0 49 -6 74 -31z m-449 -541 c-7 -19 -22 -39 -34 -44 -13 -5 -41 -49 -71 -109 -62 -122 -87 -165 -98 -165 -8 0 -118 -69 -194 -121 -23 -16 -46 -29 -52 -29 -6 0 -11 -4 -11 -10 0 -5 -6 -10 -13 -10 -7 0 -22 -8 -33 -17 -27 -24 -61 -43 -76 -43 -7 0 -24 -9 -38 -20 -27 -21 -104 -28 -115 -9 -15 23 8 62 74 126 93 93 161 149 245 205 39 25 82 55 96 66 14 10 39 26 55 35 17 9 57 36 90 61 33 25 65 46 70 46 6 0 32 18 60 40 27 21 51 37 53 35 2 -2 -2 -19 -8 -37z m-54 -195 c-10 -10 -19 5 -10 18 6 11 8 11 12 0 2 -7 1 -15 -2 -18z m-16 -32 c0 -6 -4 -13 -10 -16 -5 -3 -10 1 -10 9 0 9 5 16 10 16 6 0 10 -4 10 -9z"/>
</g>
</svg>
