<?xml version="1.0" standalone="no"?>
<!DOCTYPE svg PUBLIC "-//W3C//DTD SVG 20010904//EN" "http://www.w3.org/TR/2001/REC-SVG-20010904/DTD/svg10.dtd">
<svg xmlns="http://www.w3.org/2000/svg" version="1.0" width="360.000000pt" height="360.000000pt" viewBox="0 0 360.000000 360.000000" preserveAspectRatio="xMidYMid meet">

<g transform="translate(0.000000,360.000000) scale(0.100000,-0.100000)" fill="#000000" stroke="none">
<path d="M1418 2260 c-17 -8 -39 -26 -49 -40 -17 -23 -17 -30 -4 -98 11 -59 28 -98 83 -190 83 -141 117 -201 150 -267 13 -27 37 -68 52 -90 15 -23 53 -92 84 -154 l57 -114 -27 -28 c-35 -37 -102 -60 -214 -74 -14 -2 -54 -8 -90 -15 -36 -6 -90 -15 -120 -20 -113 -18 -213 -41 -238 -53 -32 -15 -52 -79 -52 -164 0 -47 4 -63 14 -63 19 0 31 17 50 75 9 28 23 58 31 69 14 18 69 37 163 57 23 5 63 14 90 19 56 12 184 29 228 29 36 1 34 5 75 -189 36 -176 40 -202 39 -281 0 -74 1 -77 27 -87 34 -13 133 -13 151 1 17 13 15 42 -4 58 -9 7 -33 12 -55 12 -37 -1 -39 1 -39 29 0 17 -11 81 -25 142 -13 61 -31 149 -39 196 -8 47 -19 97 -25 112 -10 26 -9 28 32 38 71 19 75 20 101 41 14 11 26 29 26 40 0 12 44 64 108 128 103 105 108 108 129 94 l22 -15 -23 -32 c-33 -46 -57 -118 -53 -162 3 -23 16 -51 35 -74 26 -31 41 -39 99 -51 l68 -15 3 -52 c3 -51 12 -62 38 -44 16 11 34 48 34 71 0 12 3 21 8 22 60 6 162 57 180 90 17 31 9 118 -14 156 -24 39 -83 92 -119 108 -37 16 -118 21 -169 10 -36 -7 -41 -5 -68 25 -15 18 -35 58 -44 89 -34 118 -126 283 -231 410 -15 19 -35 46 -44 60 -24 40 -114 104 -219 156 -103 52 -158 61 -212 35z m217 -99 c79 -39 168 -125 254 -246 83 -117 121 -191 165 -322 l25 -73 -82 -59 c-45 -32 -93 -71 -106 -85 -31 -33 -39 -33 -52 2 -22 56 -47 102 -125 230 -23 37 -56 94 -73 127 -18 33 -36 67 -41 75 -6 8 -25 42 -44 75 -18 33 -54 96 -80 140 -34 60 -46 90 -46 122 0 23 5 44 13 47 32 14 130 -3 192 -33z m776 -783 c38 -30 59 -71 59 -113 0 -15 -12 -28 -44 -43 -59 -30 -107 -33 -189 -15 -107 24 -118 58 -53 161 28 45 47 51 135 44 42 -3 64 -11 92 -34z"/>
</g>
</svg>
