<?xml version="1.0" standalone="no"?>
<!DOCTYPE svg PUBLIC "-//W3C//DTD SVG 20010904//EN" "http://www.w3.org/TR/2001/REC-SVG-20010904/DTD/svg10.dtd">
<svg xmlns="http://www.w3.org/2000/svg" version="1.0" width="360.000000pt" height="360.000000pt" viewBox="0 0 360.000000 360.000000" preserveAspectRatio="xMidYMid meet">

<g transform="translate(0.000000,360.000000) scale(0.100000,-0.100000)" fill="#000000" stroke="none">
<path d="M3065 1709 c-27 -4 -84 -13 -125 -18 -82 -11 -327 -88 -400 -126 -126 -66 -157 -77 -197 -66 -21 6 -119 12 -218 13 -231 4 -374 -16 -625 -85 -70 -19 -158 -38 -190 -41 -14 -1 -38 -9 -55 -18 -16 -9 -59 -23 -95 -33 -36 -9 -73 -21 -82 -26 -10 -5 -24 -9 -33 -9 -8 0 -29 -6 -47 -14 -235 -100 -363 -173 -435 -246 -27 -26 -69 -64 -94 -83 -79 -59 -101 -79 -204 -180 -103 -102 -130 -121 -178 -132 -33 -7 -45 -31 -26 -50 12 -12 21 -12 59 -1 25 8 63 18 85 22 35 8 40 12 40 37 1 23 18 45 82 105 44 43 107 97 138 122 32 25 87 73 124 107 115 107 304 206 511 269 38 11 42 11 27 0 -10 -8 -20 -29 -23 -47 -6 -35 23 -177 57 -283 10 -33 19 -60 19 -61 0 -1 -27 -5 -60 -9 -33 -4 -60 -11 -60 -16 0 -6 -7 -10 -15 -10 -20 0 -32 -30 -16 -39 7 -5 29 -6 49 -3 20 2 63 6 95 9 72 6 86 25 63 84 -16 40 -48 150 -71 249 -16 66 -10 80 48 114 37 22 163 74 192 80 6 1 33 12 60 25 28 12 77 29 110 37 33 9 85 22 115 30 75 19 333 51 355 44 6 -2 32 -2 58 -1 39 1 163 -9 297 -24 14 -1 44 -3 66 -4 l41 -1 0 -177 c-1 -188 19 -367 53 -495 l19 -68 -25 -29 c-13 -16 -24 -36 -24 -44 0 -20 37 -28 51 -11 7 8 19 12 27 9 8 -3 20 -1 26 5 10 7 6 37 -15 127 -16 65 -35 159 -44 208 -17 101 -26 317 -16 385 l7 45 14 -30 c45 -89 227 -144 328 -99 89 40 108 168 37 252 -14 16 -39 35 -57 42 -18 8 -34 14 -36 16 -2 1 3 13 10 26 7 12 14 24 14 26 1 2 21 5 45 8 24 3 73 11 109 18 117 24 367 9 502 -30 10 -3 21 3 28 16 9 18 7 22 -17 31 -104 39 -376 67 -478 48z m-275 -129 c0 -5 -4 -10 -10 -10 -5 0 -10 5 -10 10 0 6 5 10 10 10 6 0 10 -4 10 -10z m-197 -77 c-7 -3 -13 -11 -13 -19 0 -8 -8 -13 -20 -11 -33 5 -32 13 2 30 18 9 35 13 38 10 3 -3 -1 -8 -7 -10z m254 5 c79 -36 109 -121 67 -186 -15 -23 -20 -24 -98 -20 -103 6 -178 40 -195 89 -16 47 -14 54 23 93 32 35 36 36 104 36 39 0 83 -6 99 -12z"/>
</g>
</svg>
