<?xml version="1.0" standalone="no"?>
<!DOCTYPE svg PUBLIC "-//W3C//DTD SVG 20010904//EN" "http://www.w3.org/TR/2001/REC-SVG-20010904/DTD/svg10.dtd">
<svg xmlns="http://www.w3.org/2000/svg" version="1.0" width="360.000000pt" height="360.000000pt" viewBox="0 0 360.000000 360.000000" preserveAspectRatio="xMidYMid meet">

<g transform="translate(0.000000,360.000000) scale(0.100000,-0.100000)" fill="#000000" stroke="none">
<path d="M1040 1830 c-176 -16 -281 -39 -363 -81 -67 -35 -79 -38 -92 -26 -33 34 -195 27 -251 -10 -20 -13 -23 -11 -38 22 -18 37 -36 44 -55 21 -14 -16 1 -54 26 -69 10 -6 8 -15 -12 -41 -37 -49 -55 -100 -55 -158 0 -68 26 -111 81 -138 64 -30 114 -26 198 17 127 64 180 137 167 232 -6 47 -6 47 33 69 21 12 41 22 45 22 3 0 6 -15 6 -32 0 -18 3 -113 6 -211 4 -126 3 -182 -5 -190 -7 -7 -11 -91 -11 -264 0 -232 1 -253 18 -262 10 -5 27 -9 37 -8 14 1 20 -4 20 -18 1 -37 20 -54 74 -68 61 -16 109 -10 125 16 18 28 -5 52 -50 53 -22 1 -44 2 -51 3 -15 1 -30 76 -49 251 -27 257 -32 322 -39 485 -6 139 -12 203 -26 254 -4 15 110 44 246 61 168 21 449 8 512 -25 15 -8 37 -15 49 -15 11 0 29 -7 40 -15 10 -8 26 -15 35 -15 18 0 98 -41 140 -71 15 -10 30 -19 33 -19 4 0 25 -12 49 -27 23 -15 62 -38 87 -52 25 -13 63 -37 85 -52 22 -16 111 -77 199 -136 199 -135 216 -150 218 -200 0 -21 2 -42 3 -48 1 -5 5 -54 10 -108 9 -113 20 -134 80 -143 22 -3 47 -10 55 -14 8 -4 33 -11 55 -14 80 -14 104 50 24 65 -67 13 -114 36 -127 62 -7 14 -15 60 -19 102 l-6 77 34 -19 c19 -10 61 -39 95 -63 33 -25 89 -61 123 -80 35 -19 86 -53 115 -75 28 -22 76 -58 106 -80 48 -34 101 -79 145 -122 9 -8 44 -11 111 -9 129 5 172 14 185 38 19 35 -6 46 -86 39 -38 -4 -95 -6 -126 -6 -52 1 -60 5 -118 53 -34 28 -72 57 -84 63 -12 7 -42 30 -67 52 -25 21 -72 55 -105 74 -33 19 -103 68 -155 107 -52 40 -104 78 -115 84 -59 34 -57 27 -62 229 -5 209 -12 236 -66 252 -17 5 -63 21 -102 35 -78 28 -102 33 -189 41 -34 3 -83 10 -111 15 -27 5 -119 14 -203 19 -84 5 -158 14 -165 19 -7 6 -53 16 -102 22 -50 6 -118 15 -151 20 -87 14 -314 20 -414 10z m1074 -160 c16 -6 51 -10 78 -10 27 0 92 -10 145 -22 l96 -22 18 -41 c14 -33 19 -69 20 -169 0 -70 -1 -129 -3 -132 -3 -2 -19 8 -37 23 -18 15 -54 41 -81 57 -104 65 -285 198 -315 231 -5 6 -45 31 -87 55 -43 24 -78 47 -78 50 0 8 210 -9 244 -20z m-1571 -10 c49 -38 47 -121 -4 -169 -47 -45 -142 -91 -188 -91 -66 0 -100 49 -82 117 19 70 64 129 113 146 63 23 130 21 161 -3z m244 -832 c-2 -13 -4 -5 -4 17 -1 22 1 32 4 23 2 -10 2 -28 0 -40z"/>
</g>
</svg>
