<?xml version="1.0" standalone="no"?>
<!DOCTYPE svg PUBLIC "-//W3C//DTD SVG 20010904//EN" "http://www.w3.org/TR/2001/REC-SVG-20010904/DTD/svg10.dtd">
<svg xmlns="http://www.w3.org/2000/svg" version="1.0" width="360.000000pt" height="360.000000pt" viewBox="0 0 360.000000 360.000000" preserveAspectRatio="xMidYMid meet">

<g transform="translate(0.000000,360.000000) scale(0.100000,-0.100000)" fill="#000000" stroke="none">
<path d="M332 1408 c-17 -17 -15 -35 9 -57 l21 -19 -22 -7 c-33 -11 -99 -74 -119 -114 -28 -58 -26 -96 10 -146 17 -24 48 -52 68 -62 73 -35 204 -14 298 49 53 36 73 72 73 132 0 48 1 50 42 60 23 5 28 2 36 -27 11 -35 28 -132 37 -212 11 -103 7 -360 -6 -389 -12 -26 -11 -30 8 -46 32 -25 198 -28 207 -3 11 28 -24 52 -79 56 l-50 3 -2 44 c0 25 -2 108 -3 186 -3 128 -8 173 -39 358 -6 33 -10 60 -8 61 11 9 108 29 177 38 90 11 289 -1 386 -24 147 -34 186 -45 264 -76 107 -43 166 -77 186 -108 9 -14 19 -23 23 -21 6 3 98 -6 180 -19 25 -4 70 -16 100 -27 31 -10 70 -21 86 -24 17 -3 39 -9 50 -13 36 -15 129 -49 175 -65 25 -8 106 -40 180 -71 74 -31 151 -61 170 -66 66 -19 235 -109 300 -159 110 -86 110 -85 132 -71 23 14 197 13 216 -2 26 -20 33 8 8 32 -20 19 -38 23 -122 28 -106 6 -121 11 -224 78 -36 23 -93 56 -127 73 -34 17 -70 36 -80 41 -10 6 -40 17 -68 24 -27 8 -81 28 -120 45 -132 58 -241 99 -385 148 -41 14 -88 32 -105 39 -53 25 -168 56 -230 62 -33 3 -72 14 -87 24 -14 11 -29 19 -32 19 -4 0 -43 17 -89 39 -174 81 -254 109 -367 126 -25 3 -76 13 -115 20 -224 44 -444 23 -619 -60 l-37 -18 -28 27 c-26 25 -36 28 -115 30 l-86 2 -18 34 c-18 38 -40 48 -60 28z m223 -142 c29 -13 34 -20 40 -60 6 -34 3 -52 -9 -70 -22 -34 -119 -77 -188 -84 -54 -4 -61 -3 -88 23 -48 46 -47 80 6 147 40 50 167 74 239 44z"/>
</g>
</svg>
