<?xml version="1.0" standalone="no"?>
<!DOCTYPE svg PUBLIC "-//W3C//DTD SVG 20010904//EN" "http://www.w3.org/TR/2001/REC-SVG-20010904/DTD/svg10.dtd">
<svg xmlns="http://www.w3.org/2000/svg" version="1.0" width="360.000000pt" height="360.000000pt" viewBox="0 0 360.000000 360.000000" preserveAspectRatio="xMidYMid meet">

<g transform="translate(0.000000,360.000000) scale(0.100000,-0.100000)" fill="#000000" stroke="none">
<path d="M550 2060 c-7 -12 -7 -27 -2 -37 5 -10 12 -30 15 -44 6 -24 3 -27 -27 -32 -46 -7 -108 -54 -141 -105 -70 -110 20 -227 175 -226 51 0 74 6 107 25 47 28 119 91 125 110 9 27 26 -4 42 -78 9 -43 22 -96 27 -118 20 -83 37 -255 38 -390 0 -121 -3 -152 -25 -230 -48 -172 -44 -191 35 -179 42 7 62 9 129 13 30 1 28 27 -3 47 -17 11 -37 15 -59 11 -49 -8 -59 3 -51 52 6 35 9 39 18 27 10 -12 25 -14 75 -9 89 8 84 34 -13 68 l-50 18 3 149 c3 97 -2 194 -12 281 -18 144 -53 314 -67 323 -24 15 -3 22 54 18 42 -3 76 0 107 11 25 9 104 25 175 36 109 16 166 18 350 14 121 -3 229 -5 240 -5 11 0 63 -9 115 -20 145 -29 161 -30 378 -35 111 -2 206 -6 210 -8 4 -3 31 -8 61 -11 96 -11 186 -25 238 -36 42 -9 51 -15 51 -33 0 -12 3 -49 8 -82 8 -54 8 -226 1 -580 l-2 -120 37 -3 c36 -3 37 -5 36 -39 -2 -46 23 -66 72 -58 19 3 59 7 88 9 53 4 82 18 82 41 0 7 -11 16 -25 19 -13 3 -31 19 -40 35 -8 16 -32 37 -55 48 -46 21 -45 14 -30 183 6 63 11 183 12 265 1 134 -1 156 -22 210 -28 74 -37 87 -83 124 -25 19 -49 29 -71 29 -18 0 -43 5 -54 11 -11 6 -62 17 -114 25 -51 8 -111 18 -133 21 -47 8 -135 13 -345 20 -85 3 -173 10 -195 15 -82 18 -176 30 -296 37 -121 7 -359 6 -429 -2 -77 -9 -221 -34 -232 -41 -10 -7 -142 -15 -220 -15 -15 0 -30 -5 -34 -10 -3 -6 -21 13 -38 43 -18 29 -39 53 -46 53 -8 0 -24 10 -36 22 -12 12 -37 25 -57 28 -33 6 -35 9 -41 56 -8 57 -37 84 -56 49z m135 -179 c17 -10 38 -34 48 -55 22 -46 13 -66 -54 -111 -38 -27 -50 -30 -120 -30 -82 1 -104 11 -120 52 -16 43 26 111 86 138 68 30 116 32 160 6z m2282 -304 c15 -43 18 -83 18 -227 0 -263 -15 -400 -43 -400 -13 0 -14 14 -7 108 10 130 11 434 2 520 -8 74 4 74 30 -1z m114 -702 l34 -14 -47 -1 c-36 0 -48 4 -48 15 0 19 18 19 61 0z"/>
</g>
</svg>
