<?xml version="1.0" standalone="no"?>
<!DOCTYPE svg PUBLIC "-//W3C//DTD SVG 20010904//EN" "http://www.w3.org/TR/2001/REC-SVG-20010904/DTD/svg10.dtd">
<svg xmlns="http://www.w3.org/2000/svg" version="1.0" width="360.000000pt" height="360.000000pt" viewBox="0 0 360.000000 360.000000" preserveAspectRatio="xMidYMid meet">

<g transform="translate(0.000000,360.000000) scale(0.100000,-0.100000)" fill="#000000" stroke="none">
<path d="M1660 2039 c-41 -4 -91 -13 -110 -22 -45 -20 -137 -47 -159 -47 -9 0 -25 -6 -36 -14 -11 -7 -31 -17 -45 -21 -47 -13 -110 -47 -139 -74 -24 -22 -36 -26 -71 -23 -48 5 -138 -21 -175 -50 -19 -15 -25 -16 -25 -5 0 20 -33 47 -57 47 -24 0 -37 -34 -22 -61 5 -11 21 -22 35 -25 18 -5 23 -11 18 -23 -40 -93 -45 -172 -14 -238 10 -24 24 -43 30 -43 20 0 9 -23 -37 -76 l-46 -55 -4 -267 c-1 -147 -5 -286 -9 -309 -5 -37 -4 -42 18 -49 12 -4 27 -7 32 -5 5 1 46 2 90 3 84 1 130 16 120 42 -9 24 -51 35 -118 30 -63 -4 -66 -3 -66 18 0 22 3 23 93 23 50 0 100 3 111 8 31 13 1 35 -57 42 -54 5 -126 13 -141 14 -4 1 -6 90 -4 199 4 215 9 234 68 300 23 24 36 31 53 27 36 -9 134 31 189 77 63 53 88 107 88 194 0 36 -5 74 -10 84 -8 16 2 31 62 93 68 69 77 75 123 80 61 7 150 22 230 38 103 22 282 15 345 -14 34 -15 70 -48 70 -64 0 -7 6 -13 13 -13 12 0 152 -114 232 -188 22 -21 53 -48 69 -60 23 -18 26 -25 16 -37 -9 -11 -8 -28 5 -81 17 -67 15 -123 -5 -189 -10 -31 -39 -262 -47 -375 -2 -36 -11 -75 -19 -87 -31 -49 -4 -115 38 -92 15 8 24 7 37 -5 12 -11 26 -13 51 -7 19 4 77 7 127 7 l93 -1 0 28 c0 23 -5 29 -30 34 -16 3 -30 12 -30 19 0 19 -28 30 -85 33 -27 2 -51 4 -53 5 -1 2 4 32 12 67 14 59 33 183 52 334 4 33 8 99 8 147 1 47 4 89 7 93 4 3 0 23 -7 45 -13 38 -61 90 -154 165 -25 21 -70 60 -100 89 -31 28 -71 63 -90 77 -19 15 -62 52 -94 83 -54 51 -63 56 -103 56 -24 0 -52 4 -62 10 -23 12 -214 18 -311 9z m-536 -280 l25 -12 -47 -61 c-26 -34 -69 -93 -96 -133 -28 -41 -54 -69 -61 -67 -20 8 -35 51 -35 99 0 93 50 160 129 176 53 10 58 10 85 -2z m82 -93 c19 -76 -89 -214 -160 -204 -23 3 -20 9 56 116 45 61 85 112 89 112 5 0 11 -11 15 -24z m1300 -309 c-6 -142 -12 -191 -47 -357 -20 -100 -28 -123 -28 -91 -2 79 32 341 55 429 7 30 11 74 8 99 -4 30 -2 43 5 38 7 -4 10 -45 7 -118z"/>
</g>
</svg>
