<?xml version="1.0" standalone="no"?>
<!DOCTYPE svg PUBLIC "-//W3C//DTD SVG 20010904//EN" "http://www.w3.org/TR/2001/REC-SVG-20010904/DTD/svg10.dtd">
<svg xmlns="http://www.w3.org/2000/svg" version="1.0" width="360.000000pt" height="360.000000pt" viewBox="0 0 360.000000 360.000000" preserveAspectRatio="xMidYMid meet">

<g transform="translate(0.000000,360.000000) scale(0.100000,-0.100000)" fill="#000000" stroke="none">
<path d="M1705 2800 c-71 -33 -96 -74 -117 -195 -29 -163 13 -294 118 -366 62 -43 117 -41 172 7 23 19 59 63 79 97 l38 62 -2 122 c-3 141 -13 170 -86 247 -43 45 -46 46 -103 46 -36 -1 -75 -8 -99 -20z m175 -97 c17 -21 33 -49 36 -63 2 -14 9 -46 15 -71 11 -52 0 -111 -36 -194 -49 -110 -96 -123 -175 -49 -74 69 -99 173 -65 269 8 22 15 48 15 59 0 10 16 34 36 52 31 30 42 34 89 34 50 0 56 -3 85 -37z"/>
<path d="M1727 2193 c-4 -3 -7 -26 -7 -51 0 -26 -7 -55 -18 -70 -10 -15 -24 -42 -31 -59 -8 -18 -17 -33 -21 -33 -4 0 -22 -30 -41 -67 -40 -81 -100 -183 -106 -183 -3 0 -19 15 -37 33 -18 17 -54 52 -80 75 -47 43 -48 43 -68 25 -38 -34 -56 -72 -48 -101 5 -15 14 -56 20 -92 6 -36 16 -69 21 -74 5 -6 9 -16 9 -23 0 -7 12 -38 26 -69 14 -31 28 -77 30 -103 3 -25 6 -62 8 -81 2 -19 6 -50 10 -68 5 -21 3 -38 -5 -48 -9 -11 -9 -20 0 -40 12 -27 14 -225 2 -329 l-6 -60 -40 -5 c-31 -4 -41 -10 -43 -26 -4 -30 43 -67 68 -54 10 6 42 10 70 10 57 0 78 22 45 47 -18 12 -19 28 -18 200 2 166 4 189 19 200 35 25 69 16 113 -32 22 -24 41 -48 41 -52 0 -5 22 -32 48 -62 l48 -54 39 13 c51 17 125 75 177 140 22 28 45 49 52 47 7 -2 12 -58 14 -172 l2 -168 -32 -29 -33 -28 29 -24 c17 -14 35 -22 40 -18 30 19 88 32 149 32 52 0 69 4 74 16 10 27 -22 47 -89 53 l-63 6 -1 50 c-7 234 -7 283 0 293 4 7 16 12 26 12 32 0 105 46 105 67 0 15 -7 18 -40 16 -22 -1 -55 -5 -72 -8 -18 -4 -33 -3 -33 1 0 5 16 34 37 64 68 103 81 125 104 175 12 28 30 61 40 75 9 14 20 44 24 68 6 37 4 45 -17 62 -12 11 -31 19 -41 20 -20 0 -71 -32 -142 -89 l-50 -41 -42 88 c-23 48 -65 135 -93 194 -28 59 -66 126 -85 150 -23 31 -34 58 -39 97 -10 74 -28 106 -49 84z m82 -276 c13 -28 35 -74 48 -102 14 -27 33 -71 43 -96 22 -55 58 -137 71 -161 12 -23 12 -38 -1 -38 -10 0 -69 -37 -112 -69 -34 -27 -56 -27 -62 2 -15 72 -29 517 -17 517 4 0 17 -24 30 -53z m-92 -92 c-2 -49 0 -132 5 -183 6 -51 7 -100 4 -109 -5 -12 -26 4 -87 68 -81 83 -81 83 -65 108 9 15 37 67 62 116 26 50 54 98 63 109 15 17 16 17 20 0 2 -10 1 -59 -2 -109z m-300 -97 c29 -29 53 -58 53 -64 0 -17 -61 -114 -71 -114 -5 0 -9 6 -9 14 0 8 -9 34 -19 59 -26 60 -38 157 -20 157 7 0 37 -23 66 -52z m803 -110 c0 -6 -10 -25 -23 -42 -22 -30 -28 -41 -60 -116 -9 -19 -27 -46 -40 -58 l-24 -23 -6 68 c-7 76 -15 62 88 143 52 42 65 47 65 28z m-662 -24 c4 -8 47 -55 95 -103 48 -49 87 -96 87 -104 0 -9 -17 -28 -37 -43 -21 -15 -55 -40 -75 -56 -60 -46 -66 -43 -139 66 -39 59 -47 91 -30 124 5 9 21 43 36 75 27 57 46 70 63 41z m456 -282 c9 -15 -2 -52 -15 -52 -5 0 -29 18 -51 40 -23 22 -47 40 -54 40 -6 0 -15 7 -18 16 -7 17 21 44 83 79 l36 21 5 -66 c3 -36 9 -71 14 -78z m-129 -55 l69 -64 -62 -61 c-33 -34 -66 -62 -72 -62 -6 0 -10 38 -10 103 0 56 -3 112 -6 125 -10 35 8 26 81 -41z m-135 -88 c0 -75 -3 -100 -12 -97 -7 2 -37 28 -65 59 l-53 55 33 31 c43 41 79 63 89 57 4 -3 8 -50 8 -105z m-253 55 c-12 -13 -37 6 -37 28 l0 22 22 -21 c12 -13 19 -25 15 -29z"/>
</g>
</svg>
