<?xml version="1.0" standalone="no"?>
<!DOCTYPE svg PUBLIC "-//W3C//DTD SVG 20010904//EN" "http://www.w3.org/TR/2001/REC-SVG-20010904/DTD/svg10.dtd">
<svg xmlns="http://www.w3.org/2000/svg" version="1.0" width="360.000000pt" height="360.000000pt" viewBox="0 0 360.000000 360.000000" preserveAspectRatio="xMidYMid meet">

<g transform="translate(0.000000,360.000000) scale(0.100000,-0.100000)" fill="#000000" stroke="none">
<path d="M2967 2491 c-33 -37 -78 -133 -116 -246 -118 -356 -131 -419 -131 -652 0 -120 2 -135 20 -153 14 -14 17 -22 8 -24 -97 -28 -196 -62 -268 -92 -30 -12 -111 -39 -180 -58 -69 -20 -154 -45 -190 -56 -36 -11 -74 -21 -85 -23 -11 -1 -26 -6 -32 -10 -7 -5 -18 -5 -24 -1 -7 4 -55 8 -108 10 -113 5 -264 20 -324 34 -23 5 -80 14 -127 21 -47 6 -94 14 -105 16 -11 2 -63 8 -115 13 -52 5 -129 13 -170 19 -41 5 -133 17 -205 26 -71 9 -157 20 -190 25 -33 6 -78 11 -100 12 -29 1 -57 13 -100 42 -92 63 -111 72 -130 56 -31 -26 -13 -50 70 -92 104 -52 113 -55 160 -62 22 -3 69 -10 105 -16 68 -12 70 -12 220 -30 52 -6 133 -18 180 -25 47 -8 119 -17 160 -20 59 -4 317 -44 445 -69 11 -2 54 -7 95 -11 l75 -8 -65 -19 c-36 -11 -96 -29 -135 -40 -92 -27 -225 -69 -250 -79 -11 -5 -60 -20 -110 -35 -98 -28 -343 -104 -415 -128 -25 -8 -139 -41 -255 -72 -116 -32 -213 -63 -217 -69 -4 -5 -7 -21 -6 -35 1 -14 -6 -37 -16 -52 -24 -36 -18 -82 11 -86 18 -3 24 4 33 40 23 83 23 84 112 113 46 15 128 40 183 55 55 15 183 53 285 85 102 31 221 68 265 81 44 14 130 40 190 59 61 18 137 41 170 50 33 9 69 20 80 24 57 22 188 63 212 67 15 3 43 12 61 20 18 9 46 14 63 12 18 -2 33 3 39 12 5 7 53 26 107 41 131 37 269 81 373 119 101 37 172 60 184 60 16 0 -2 -240 -23 -320 -12 -41 -28 -115 -36 -164 -14 -79 -14 -90 -1 -112 24 -35 53 -59 104 -87 178 -93 250 -132 272 -147 14 -10 44 -21 68 -25 38 -6 42 -5 42 14 0 33 -40 67 -145 122 -55 29 -111 58 -125 66 -14 7 -29 13 -33 13 -19 0 -114 72 -124 93 -12 25 -6 73 26 212 10 44 27 144 37 223 16 121 21 142 36 142 9 0 29 6 44 12 22 10 28 10 32 0 5 -16 57 -43 102 -53 33 -8 124 5 145 20 6 4 28 13 50 19 49 14 116 69 138 113 13 27 13 39 3 74 -24 79 -55 98 -198 120 -36 6 -37 7 -35 41 2 40 -18 62 -47 51 -18 -7 -23 -72 -6 -82 16 -10 4 -22 -27 -28 -43 -8 -120 -85 -138 -136 -8 -24 -15 -52 -15 -62 0 -14 -7 -19 -28 -19 -15 0 -32 -4 -38 -10 -10 -10 -10 285 1 389 8 71 27 139 108 376 52 154 61 174 110 236 16 21 25 42 22 51 -9 23 -42 28 -58 9z m246 -909 c7 -6 20 -25 30 -42 l19 -31 -40 -38 c-60 -57 -187 -92 -246 -67 -58 24 -71 68 -34 121 29 44 82 78 131 85 42 6 117 -9 140 -28z"/>
</g>
</svg>
