<?xml version="1.0" standalone="no"?>
<!DOCTYPE svg PUBLIC "-//W3C//DTD SVG 20010904//EN" "http://www.w3.org/TR/2001/REC-SVG-20010904/DTD/svg10.dtd">
<svg xmlns="http://www.w3.org/2000/svg" version="1.0" width="360.000000pt" height="360.000000pt" viewBox="0 0 360.000000 360.000000" preserveAspectRatio="xMidYMid meet">

<g transform="translate(0.000000,360.000000) scale(0.100000,-0.100000)" fill="#000000" stroke="none">
<path d="M2913 3010 c-20 -30 -92 -232 -135 -375 -39 -128 -44 -153 -53 -229 -3 -22 -7 -46 -10 -55 -2 -9 -11 -64 -20 -122 -18 -127 -21 -276 -6 -343 7 -27 10 -50 8 -52 -2 -2 -46 -19 -98 -38 -52 -19 -123 -47 -159 -63 -36 -16 -101 -42 -145 -58 -44 -15 -84 -32 -89 -37 -6 -4 -19 -8 -29 -8 -23 0 -126 -44 -177 -76 -19 -11 -45 -24 -57 -28 -13 -4 -58 -27 -100 -50 -43 -24 -81 -42 -85 -39 -4 2 -38 6 -75 8 -70 4 -232 34 -338 62 -33 9 -91 21 -130 28 -38 7 -115 22 -170 33 -55 11 -128 23 -162 26 -60 7 -61 6 -83 -24 -20 -28 -21 -39 -15 -98 3 -37 17 -122 31 -190 40 -203 38 -209 -76 -261 -108 -48 -148 -94 -105 -119 12 -6 1 -15 -44 -35 -34 -15 -64 -27 -67 -27 -4 0 -43 -18 -88 -40 -147 -71 -190 -89 -243 -100 -71 -15 -77 -25 -66 -112 8 -71 8 -72 42 -81 26 -6 38 -5 50 7 13 14 14 20 3 37 -9 13 -11 35 -7 58 6 34 10 38 52 49 47 13 56 17 288 125 77 35 158 70 180 77 22 7 45 16 50 20 6 4 48 23 95 40 47 18 136 55 199 82 63 28 132 56 153 64 22 7 72 29 111 48 170 81 289 136 297 136 5 0 68 29 142 65 73 36 138 65 143 65 6 0 40 19 75 43 132 87 557 298 657 325 l70 20 0 -191 c0 -173 3 -216 37 -432 36 -234 58 -325 96 -409 10 -22 20 -50 22 -61 3 -19 11 -20 118 -19 166 1 192 12 166 72 -11 26 -21 27 -67 8 -19 -8 -63 -16 -99 -18 l-65 -3 -32 79 c-17 43 -38 120 -46 170 -9 50 -25 145 -36 211 -12 66 -23 156 -26 200 -3 44 -8 107 -10 140 -4 51 12 273 21 284 1 1 20 -11 41 -27 53 -43 106 -55 179 -41 102 19 152 55 184 135 51 125 -25 245 -156 248 l-43 1 6 41 c6 46 -5 59 -38 49 -19 -6 -21 -13 -17 -65 4 -54 2 -59 -18 -64 -34 -9 -149 -128 -160 -166 -5 -18 -15 -35 -21 -37 -19 -7 -28 62 -27 207 2 204 33 350 151 697 60 179 72 242 48 250 -6 2 -16 -6 -22 -17z m194 -978 c43 -23 56 -49 51 -102 -7 -66 -39 -100 -116 -124 -92 -27 -147 -12 -167 48 -16 47 -10 73 29 114 63 68 146 94 203 64z m-2047 -531 c99 -14 228 -40 300 -61 36 -11 97 -24 135 -30 39 -6 87 -16 107 -22 46 -14 40 -24 -41 -70 -31 -18 -72 -43 -91 -56 -40 -27 -103 -57 -158 -75 -20 -7 -37 -18 -37 -26 0 -12 -154 -85 -300 -142 -67 -26 -77 -25 -64 5 11 23 -7 176 -32 268 -16 60 -27 202 -17 215 10 12 86 10 198 -6z m-210 -520 c0 -5 -12 -12 -27 -16 -16 -3 -35 -12 -43 -19 -17 -15 -80 -33 -67 -19 13 12 110 61 125 62 6 1 12 -3 12 -8z"/>
</g>
</svg>
