<?xml version="1.0" standalone="no"?>
<!DOCTYPE svg PUBLIC "-//W3C//DTD SVG 20010904//EN" "http://www.w3.org/TR/2001/REC-SVG-20010904/DTD/svg10.dtd">
<svg xmlns="http://www.w3.org/2000/svg" version="1.0" width="360.000000pt" height="360.000000pt" viewBox="0 0 360.000000 360.000000" preserveAspectRatio="xMidYMid meet">

<g transform="translate(0.000000,360.000000) scale(0.100000,-0.100000)" fill="#000000" stroke="none">
<path d="M2997 2493 c-53 -83 -100 -210 -172 -457 -47 -158 -57 -232 -59 -419 -1 -140 1 -160 17 -171 23 -18 22 -26 -6 -26 -12 0 -47 -9 -77 -21 -30 -11 -84 -31 -120 -43 -36 -13 -104 -37 -151 -54 -47 -17 -119 -40 -160 -51 -41 -11 -114 -32 -164 -46 -49 -13 -96 -23 -105 -20 -8 2 -55 5 -105 6 -93 1 -220 14 -290 29 -50 11 -371 57 -445 64 -30 3 -107 12 -170 20 -63 9 -160 21 -215 26 -55 6 -118 15 -140 20 -22 5 -63 10 -92 10 -28 0 -55 5 -58 10 -7 11 -91 65 -137 89 -23 12 -30 12 -43 1 -31 -26 -13 -50 70 -92 44 -22 88 -44 97 -49 10 -5 33 -11 50 -14 18 -3 65 -10 103 -15 97 -15 194 -28 301 -39 50 -6 113 -15 140 -21 27 -5 105 -14 173 -20 68 -6 127 -12 131 -15 4 -3 43 -10 86 -15 44 -6 93 -15 109 -20 32 -10 215 -33 253 -31 37 1 25 -7 -35 -23 -81 -23 -200 -59 -398 -122 -93 -29 -217 -68 -275 -85 -58 -17 -168 -50 -245 -74 -77 -24 -216 -65 -310 -91 -93 -26 -176 -51 -183 -57 -6 -5 -11 -21 -10 -36 1 -14 -6 -40 -15 -58 -22 -41 -22 -79 0 -87 24 -10 40 11 55 73 13 51 16 54 63 72 28 10 109 35 180 55 72 19 177 51 235 69 276 88 677 210 830 251 30 8 84 26 120 39 116 42 174 58 208 56 20 -1 34 4 38 12 3 8 42 25 87 37 74 20 373 118 521 170 48 17 61 19 68 8 15 -21 -2 -202 -28 -311 -43 -177 -53 -248 -39 -277 19 -37 52 -63 130 -105 39 -21 102 -54 140 -75 39 -21 92 -49 119 -64 86 -46 134 -28 88 32 -19 24 -33 34 -122 78 -30 15 -71 37 -90 49 -19 12 -52 27 -72 34 -52 17 -117 67 -129 99 -11 28 -2 102 27 207 12 46 42 252 49 335 2 30 7 36 32 41 16 3 35 9 42 13 7 5 22 0 34 -12 39 -35 71 -46 135 -45 58 0 79 6 178 48 46 20 105 75 121 113 39 93 -64 192 -199 192 l-38 0 6 40 c6 36 4 41 -17 49 -41 15 -51 3 -47 -52 3 -49 2 -51 -27 -58 -63 -17 -145 -128 -145 -195 0 -20 -5 -24 -28 -24 -15 0 -33 -5 -40 -12 -9 -9 -12 19 -12 127 1 274 10 322 112 630 56 167 72 203 117 259 24 30 28 42 20 57 -16 31 -46 23 -72 -18z m214 -874 c42 -14 67 -35 86 -72 14 -28 13 -30 -25 -66 -60 -58 -187 -92 -247 -67 -66 28 -70 85 -13 150 49 55 132 77 199 55z"/>
</g>
</svg>
