<?xml version="1.0" standalone="no"?>
<!DOCTYPE svg PUBLIC "-//W3C//DTD SVG 20010904//EN" "http://www.w3.org/TR/2001/REC-SVG-20010904/DTD/svg10.dtd">
<svg xmlns="http://www.w3.org/2000/svg" version="1.0" width="360.000000pt" height="360.000000pt" viewBox="0 0 360.000000 360.000000" preserveAspectRatio="xMidYMid meet">

<g transform="translate(0.000000,360.000000) scale(0.100000,-0.100000)" fill="#000000" stroke="none">
<path d="M2346 1935 c-13 -14 -32 -43 -41 -63 -17 -35 -101 -186 -117 -207 -33 -45 -138 -167 -169 -197 -31 -30 -48 -38 -94 -43 -57 -8 -62 -13 -44 -46 9 -18 18 -20 75 -15 73 6 88 12 112 48 9 14 29 44 45 67 15 22 32 41 37 41 6 0 10 6 10 13 0 8 17 33 39 56 37 40 50 61 121 195 52 98 51 98 128 26 189 -177 243 -235 225 -241 -10 -4 -81 -24 -158 -44 -201 -53 -381 -114 -531 -181 -16 -7 -46 -13 -65 -12 -18 0 -107 -7 -197 -15 -89 -8 -190 -13 -225 -10 -59 4 -63 3 -83 -24 -15 -21 -21 -46 -23 -98 -1 -38 -7 -77 -11 -86 -5 -9 -31 -22 -57 -29 -106 -27 -421 -134 -473 -159 -30 -16 -73 -34 -95 -41 -22 -7 -88 -32 -147 -56 -59 -23 -122 -44 -140 -47 -27 -3 -34 -9 -39 -33 -3 -16 -20 -50 -37 -75 -31 -46 -41 -92 -22 -104 11 -7 50 16 50 29 0 4 17 29 39 55 21 25 36 51 34 57 -2 6 11 17 29 24 37 13 43 16 145 59 39 17 76 31 82 31 6 0 61 22 123 49 62 27 158 63 213 80 55 16 134 41 175 55 72 24 110 32 110 21 0 -12 -44 -163 -55 -190 -7 -16 -21 -50 -31 -73 -10 -25 -27 -48 -39 -52 -12 -5 -56 -6 -98 -4 -92 6 -120 -5 -115 -44 l3 -27 125 0 c143 -1 157 6 178 82 31 113 37 129 49 141 7 7 13 21 13 30 0 9 9 53 21 97 l21 81 91 37 c51 20 119 43 152 51 99 25 159 50 201 84 21 18 59 40 84 49 25 9 69 27 98 40 29 12 57 23 63 23 5 0 24 7 41 16 35 18 97 37 288 89 69 19 148 41 176 50 79 23 84 22 84 -27 0 -49 -21 -142 -85 -388 -26 -96 -47 -179 -47 -185 -4 -46 14 -57 182 -100 139 -36 182 -50 238 -80 53 -28 80 -31 107 -11 18 13 18 15 2 40 -10 14 -24 26 -33 26 -8 0 -38 12 -67 27 -29 14 -68 30 -87 34 -49 11 -155 38 -218 56 l-54 14 5 47 c3 26 16 91 31 145 14 54 23 104 19 112 -3 8 -1 15 5 15 6 0 13 19 17 41 4 23 15 60 25 83 10 22 21 71 25 109 7 66 8 68 49 92 l41 25 24 -26 c23 -25 29 -26 95 -22 77 5 204 56 252 100 47 44 66 94 58 155 -20 167 -256 184 -393 28 -45 -51 -57 -86 -60 -171 -1 -30 -4 -32 -43 -36 -41 -4 -44 -2 -139 92 -130 126 -278 264 -290 268 -5 2 -19 -8 -33 -23z m842 -96 c9 -6 25 -28 35 -49 30 -65 8 -107 -86 -157 -61 -33 -130 -49 -170 -40 -34 9 -49 59 -35 115 26 102 178 180 256 131z m-1428 -589 c29 -9 30 -8 -96 -48 -49 -16 -99 -34 -110 -41 -10 -6 -38 -17 -62 -25 -38 -12 -43 -12 -38 1 3 8 6 28 6 44 0 44 34 60 137 66 49 3 90 7 92 9 6 6 42 3 71 -6z"/>
</g>
</svg>
