<?xml version="1.0" standalone="no"?>
<!DOCTYPE svg PUBLIC "-//W3C//DTD SVG 20010904//EN" "http://www.w3.org/TR/2001/REC-SVG-20010904/DTD/svg10.dtd">
<svg xmlns="http://www.w3.org/2000/svg" version="1.0" width="360.000000pt" height="360.000000pt" viewBox="0 0 360.000000 360.000000" preserveAspectRatio="xMidYMid meet">

<g transform="translate(0.000000,360.000000) scale(0.100000,-0.100000)" fill="#000000" stroke="none">
<path d="M3134 3242 c-20 -14 -94 -180 -120 -268 -61 -207 -106 -460 -120 -669 -2 -44 -7 -94 -10 -111 -2 -17 -1 -42 4 -55 25 -68 24 -75 -17 -87 -21 -7 -55 -25 -76 -42 -21 -16 -42 -30 -48 -30 -9 0 -68 -26 -254 -111 -34 -16 -65 -29 -68 -29 -3 0 -34 -13 -68 -29 -34 -15 -78 -34 -97 -42 -19 -8 -57 -26 -85 -41 -27 -15 -96 -49 -151 -77 -56 -27 -105 -54 -108 -60 -4 -6 -17 -11 -30 -11 -12 0 -26 -4 -31 -9 -19 -18 -188 -101 -420 -206 -55 -25 -268 -126 -405 -193 -30 -15 -70 -37 -89 -50 -19 -12 -77 -43 -130 -68 -53 -25 -108 -52 -123 -60 -22 -12 -270 -99 -382 -134 -16 -5 -39 -16 -52 -25 -14 -9 -34 -13 -53 -9 -28 6 -33 2 -68 -51 -21 -32 -42 -63 -47 -71 -13 -17 10 -44 39 -44 14 0 30 11 41 27 10 16 22 33 28 38 16 15 87 52 116 60 27 8 143 51 175 65 11 5 47 17 80 26 33 9 67 20 75 25 8 4 65 30 127 57 95 42 193 93 253 132 21 14 362 177 510 245 69 31 163 76 209 101 46 24 84 44 85 44 0 0 0 -104 -2 -232 -1 -128 1 -252 7 -276 8 -39 7 -44 -13 -53 -36 -15 -159 -25 -201 -16 -22 5 -71 6 -110 2 -38 -3 -108 -8 -155 -11 -149 -7 -186 -26 -238 -117 -41 -72 11 -80 84 -13 74 66 68 65 415 70 167 2 263 8 277 15 26 14 27 31 8 130 -10 54 -13 125 -10 260 5 183 15 262 38 280 6 5 70 39 141 75 72 37 141 74 155 82 40 23 177 84 189 84 6 0 39 13 73 29 35 15 97 43 138 61 41 18 112 53 158 77 l82 43 0 -33 c0 -18 7 -58 16 -88 11 -37 14 -71 10 -107 -4 -30 -2 -102 4 -160 5 -59 12 -132 14 -162 5 -72 22 -152 58 -275 16 -55 40 -137 54 -183 13 -45 24 -90 24 -100 0 -30 36 -45 75 -31 28 10 41 10 77 -4 24 -9 51 -17 60 -17 23 0 40 34 32 65 -5 22 -12 26 -43 25 -20 -1 -58 2 -86 7 -56 9 -48 -5 -108 193 -61 202 -93 442 -90 683 1 121 -1 147 -13 147 -8 0 -14 9 -14 19 0 11 -3 26 -6 34 -3 8 2 17 11 21 12 4 29 -6 54 -29 47 -46 146 -79 210 -69 104 16 161 61 186 149 17 57 17 58 -5 106 -28 60 -83 99 -145 107 -25 2 -45 5 -45 6 0 0 7 25 14 54 16 60 12 82 -14 82 -29 0 -43 -27 -44 -85 0 -45 -3 -55 -17 -55 -10 0 -24 -6 -32 -14 -7 -8 -37 -27 -67 -43 -55 -29 -75 -60 -64 -97 4 -14 3 -18 -4 -11 -8 7 -8 58 -1 170 6 88 10 167 10 175 0 8 10 62 21 120 11 58 22 116 25 130 33 180 94 369 137 430 42 58 48 77 36 101 -11 19 -36 25 -56 11z m159 -1082 c67 -75 9 -163 -121 -184 -35 -5 -51 -2 -83 16 -21 12 -41 30 -45 40 -8 28 6 115 21 128 26 22 101 39 150 35 40 -4 55 -10 78 -35z"/>
</g>
</svg>
