<?xml version="1.0" standalone="no"?>
<!DOCTYPE svg PUBLIC "-//W3C//DTD SVG 20010904//EN" "http://www.w3.org/TR/2001/REC-SVG-20010904/DTD/svg10.dtd">
<svg xmlns="http://www.w3.org/2000/svg" version="1.0" width="360.000000pt" height="360.000000pt" viewBox="0 0 360.000000 360.000000" preserveAspectRatio="xMidYMid meet">

<g transform="translate(0.000000,360.000000) scale(0.100000,-0.100000)" fill="#000000" stroke="none">
<path d="M2784 3021 c-24 -28 -80 -181 -114 -311 -50 -193 -81 -470 -83 -750 -2 -174 0 -199 16 -224 18 -27 18 -27 0 -25 -29 5 -169 -41 -347 -113 -27 -11 -104 -47 -170 -80 -268 -135 -333 -167 -381 -187 -27 -12 -61 -29 -75 -37 -14 -8 -45 -24 -70 -36 -25 -11 -96 -45 -158 -74 -62 -30 -117 -54 -121 -54 -4 0 -29 -11 -57 -24 -27 -13 -83 -38 -124 -56 -106 -46 -190 -88 -298 -149 -52 -29 -116 -61 -144 -72 -27 -10 -77 -32 -111 -48 -34 -16 -80 -34 -102 -41 -22 -7 -51 -21 -64 -31 -12 -10 -38 -21 -56 -25 -58 -10 -77 -45 -78 -139 0 -42 3 -50 19 -53 28 -4 63 38 77 93 11 44 15 49 52 60 22 6 65 25 95 42 30 17 69 34 85 38 30 7 271 124 335 163 19 12 42 25 50 28 8 4 87 39 175 80 176 80 341 144 373 144 12 0 23 9 27 21 4 11 23 27 43 36 103 46 510 249 531 265 13 10 30 18 39 18 8 0 51 18 96 41 79 40 224 92 291 105 l33 6 7 -84 c9 -112 97 -549 135 -673 17 -55 44 -128 61 -163 16 -34 28 -69 27 -78 -5 -26 98 -52 216 -55 107 -4 126 1 126 30 0 37 -23 43 -143 37 l-115 -5 -27 52 c-53 102 -103 267 -154 512 -12 55 -30 136 -41 180 -24 101 -42 263 -31 284 5 9 6 22 3 30 -3 8 0 11 7 7 6 -4 11 -13 11 -20 0 -7 15 -26 33 -42 l32 -29 145 0 c160 0 179 6 245 75 25 26 30 39 29 78 -2 62 -30 119 -80 165 -50 45 -106 69 -156 69 -45 -1 -47 10 -18 69 16 31 18 44 10 60 -7 12 -17 18 -27 15 -8 -3 -18 -6 -23 -6 -14 0 -24 -92 -13 -121 10 -25 8 -28 -14 -34 -55 -13 -153 -131 -153 -184 0 -11 -4 -23 -10 -26 -6 -4 -8 10 -5 37 3 24 7 122 10 218 7 263 32 492 66 625 12 44 26 98 31 120 5 22 29 82 54 133 47 96 50 132 13 132 -10 0 -26 -8 -35 -19z m167 -1096 c46 -20 73 -43 98 -85 43 -72 11 -136 -75 -152 -96 -18 -137 -20 -195 -8 -48 10 -60 17 -65 35 -3 13 -1 32 5 43 6 12 11 28 11 36 0 29 52 102 89 123 43 26 86 29 132 8z"/>
</g>
</svg>
