<?xml version="1.0" standalone="no"?>
<!DOCTYPE svg PUBLIC "-//W3C//DTD SVG 20010904//EN" "http://www.w3.org/TR/2001/REC-SVG-20010904/DTD/svg10.dtd">
<svg xmlns="http://www.w3.org/2000/svg" version="1.0" width="360.000000pt" height="360.000000pt" viewBox="0 0 360.000000 360.000000" preserveAspectRatio="xMidYMid meet">

<g transform="translate(0.000000,360.000000) scale(0.100000,-0.100000)" fill="#000000" stroke="none">
<path d="M2770 2715 c-11 -26 -20 -51 -20 -56 0 -6 -4 -8 -10 -4 -12 7 -80 -36 -80 -52 0 -17 -56 -111 -95 -158 -17 -22 -39 -54 -48 -71 -9 -17 -48 -66 -88 -110 -74 -81 -244 -283 -269 -320 -21 -30 -94 -115 -173 -203 -38 -42 -109 -134 -158 -206 -50 -71 -106 -150 -126 -175 -36 -45 -112 -95 -168 -110 -106 -29 -241 -82 -381 -150 -88 -44 -185 -88 -215 -100 -71 -28 -323 -153 -327 -162 -2 -5 -10 -8 -18 -8 -13 0 -102 -42 -229 -108 -66 -34 -145 -106 -155 -142 -16 -58 -13 -80 15 -90 34 -13 55 -3 62 31 3 16 10 32 14 35 5 3 9 17 9 32 1 21 10 31 43 48 179 90 564 288 572 294 6 5 33 17 60 28 57 23 227 102 296 138 25 13 70 30 100 38 30 8 87 26 128 40 41 14 85 26 98 26 14 0 43 11 66 24 23 14 69 35 102 47 33 12 65 25 70 29 6 4 37 17 70 30 33 13 74 32 92 41 17 10 51 23 75 29 24 7 65 23 93 37 27 13 68 28 90 33 70 14 229 63 251 77 12 7 37 18 55 24 36 11 138 39 142 39 2 0 4 -66 5 -147 5 -321 30 -574 78 -761 18 -75 38 -140 44 -146 7 -7 21 -6 45 3 20 7 60 15 90 18 57 6 65 15 42 47 -11 15 -25 17 -75 14 l-61 -3 -25 80 c-30 98 -43 160 -51 245 -3 36 -8 83 -10 105 -34 296 -33 576 1 589 8 3 35 -18 63 -47 l50 -52 93 0 c79 0 100 4 142 25 71 36 91 67 91 143 -1 93 -30 138 -111 173 -38 16 -73 25 -89 22 -26 -5 -26 -5 -20 42 6 43 5 48 -16 53 -38 10 -58 -17 -48 -61 5 -20 9 -40 9 -44 0 -4 -20 -19 -45 -33 -32 -20 -53 -43 -80 -90 -40 -72 -75 -94 -215 -135 -41 -12 -101 -35 -134 -51 -32 -15 -75 -31 -95 -35 -125 -21 -450 -139 -603 -219 -36 -18 -35 -11 5 39 18 23 45 59 59 81 69 102 115 165 163 220 49 56 117 138 191 231 139 173 188 231 248 295 67 72 135 162 224 296 24 36 45 63 48 60 6 -6 -18 -148 -42 -247 -14 -56 -14 -90 -4 -270 11 -194 25 -328 36 -339 3 -3 13 0 22 6 21 13 21 50 3 324 -13 195 -13 197 13 355 36 217 35 215 82 240 47 25 60 67 23 77 -13 4 -30 1 -38 -6 -12 -10 -14 -8 -9 10 4 13 0 27 -8 34 -11 9 -18 2 -34 -36z m345 -888 c29 -16 44 -33 54 -63 29 -82 -12 -129 -130 -146 -85 -13 -127 2 -153 53 -22 44 -21 54 15 104 22 31 42 46 72 55 23 7 47 14 52 15 26 8 53 3 90 -18z"/>
</g>
</svg>
