<?xml version="1.0" standalone="no"?>
<!DOCTYPE svg PUBLIC "-//W3C//DTD SVG 20010904//EN" "http://www.w3.org/TR/2001/REC-SVG-20010904/DTD/svg10.dtd">
<svg xmlns="http://www.w3.org/2000/svg" version="1.0" width="360.000000pt" height="360.000000pt" viewBox="0 0 360.000000 360.000000" preserveAspectRatio="xMidYMid meet">

<g transform="translate(0.000000,360.000000) scale(0.100000,-0.100000)" fill="#000000" stroke="none">
<path d="M120 2506 c0 -34 13 -41 124 -66 78 -17 114 -32 167 -66 37 -24 72 -44 77 -44 5 0 27 -12 48 -27 21 -14 91 -53 154 -85 63 -32 121 -63 129 -70 8 -7 21 -13 28 -14 7 -1 25 -11 40 -21 45 -31 89 -47 248 -92 22 -6 104 -22 183 -36 78 -13 146 -27 152 -30 5 -3 31 -8 57 -11 27 -3 70 -9 96 -15 26 -5 66 -9 87 -9 40 0 90 -17 90 -31 0 -4 17 -15 38 -26 55 -28 176 -96 182 -103 3 -3 48 -37 100 -75 52 -38 98 -74 102 -80 13 -18 -10 -28 -69 -32 -31 -2 -84 -7 -116 -13 -33 -5 -63 -7 -68 -5 -4 3 -10 1 -13 -4 -3 -5 -37 -12 -75 -16 -125 -12 -197 -92 -117 -130 39 -19 79 -97 74 -145 -4 -43 26 -70 79 -70 50 0 73 17 73 53 0 24 -32 47 -65 47 -8 0 -15 6 -15 13 0 6 -12 35 -25 62 -14 28 -25 55 -25 61 0 14 152 62 224 69 57 7 79 10 143 20 40 7 73 47 73 90 0 29 -8 38 -67 79 -38 26 -88 62 -113 81 -46 36 -131 88 -222 137 -28 15 -53 30 -57 33 -3 4 29 4 72 1 75 -6 206 -43 306 -87 67 -30 275 -133 281 -140 3 -3 19 -11 37 -17 17 -6 56 -26 86 -45 49 -31 56 -40 63 -79 13 -74 7 -309 -10 -327 -25 -29 -29 -59 -9 -69 20 -10 59 -10 69 1 4 4 22 7 41 7 21 0 36 6 39 15 8 20 -13 45 -37 45 -11 0 -19 3 -19 8 -4 176 -4 322 1 322 4 0 9 -7 13 -15 3 -8 9 -15 13 -14 36 6 53 -3 53 -26 0 -14 5 -25 10 -25 6 0 10 -7 10 -15 0 -17 110 -83 151 -92 16 -3 29 -11 29 -18 0 -7 7 -19 16 -26 14 -11 19 -10 38 11 11 14 40 31 64 38 25 8 62 31 89 57 46 44 46 45 40 96 -11 88 -82 143 -219 169 -57 10 -74 10 -122 -4 -56 -16 -91 -43 -102 -78 -5 -16 -11 -11 -43 27 -21 25 -57 84 -81 130 -43 84 -65 102 -87 73 -12 -16 -9 -64 6 -101 20 -50 15 -61 -16 -39 -16 10 -46 26 -68 36 -22 10 -98 46 -170 81 -202 98 -233 111 -335 139 -102 28 -252 36 -266 15 -10 -17 -247 8 -349 37 -33 9 -82 18 -110 21 -57 4 -250 50 -280 66 -11 6 -25 12 -31 13 -21 3 -89 37 -119 59 -16 12 -50 29 -75 39 -25 10 -52 24 -60 31 -9 8 -42 26 -75 41 -33 15 -83 43 -112 61 -29 18 -55 33 -59 33 -4 0 -42 23 -85 50 -43 28 -89 50 -102 50 -13 0 -50 9 -83 20 -32 11 -74 20 -91 20 -28 0 -33 -4 -33 -24z m2981 -872 c27 -9 49 -20 49 -24 0 -4 11 -11 24 -14 14 -3 30 -20 41 -42 l17 -35 -30 -29 c-36 -34 -129 -58 -161 -41 -11 6 -28 11 -37 11 -35 0 -93 50 -100 86 -8 44 11 92 39 97 50 10 111 6 158 -9z"/>
</g>
</svg>
