<?xml version="1.0" standalone="no"?>
<!DOCTYPE svg PUBLIC "-//W3C//DTD SVG 20010904//EN" "http://www.w3.org/TR/2001/REC-SVG-20010904/DTD/svg10.dtd">
<svg xmlns="http://www.w3.org/2000/svg" version="1.0" width="360.000000pt" height="360.000000pt" viewBox="0 0 360.000000 360.000000" preserveAspectRatio="xMidYMid meet">

<g transform="translate(0.000000,360.000000) scale(0.100000,-0.100000)" fill="#000000" stroke="none">
<path d="M2373 925 c-15 -25 -38 -62 -50 -81 -13 -19 -23 -39 -23 -44 0 -13 -14 -12 -85 6 -33 8 -75 16 -93 18 -18 2 -45 9 -60 14 -25 9 -68 19 -184 40 -26 5 -50 6 -55 2 -4 -4 -37 -20 -73 -35 -36 -15 -74 -32 -85 -38 -231 -124 -451 -239 -493 -257 -45 -20 -59 -21 -100 -12 -26 5 -114 24 -197 42 -82 18 -159 34 -170 36 -19 4 -258 35 -280 37 -29 1 -248 -174 -226 -181 6 -2 9 -8 6 -13 -11 -17 30 5 110 58 78 52 82 53 152 53 114 0 270 -25 493 -80 176 -44 187 -43 286 27 16 11 56 34 89 50 33 16 146 73 250 126 209 106 239 114 350 97 39 -6 96 -15 128 -19 71 -11 187 -42 187 -50 0 -3 -19 -36 -43 -73 -130 -207 -130 -207 -103 -233 19 -20 243 -28 254 -9 4 7 20 14 36 16 44 5 42 24 -7 52 -36 22 -53 25 -103 22 -32 -2 -67 -7 -76 -11 -10 -4 -18 -5 -18 -1 0 10 72 140 102 184 25 37 34 42 56 38 15 -3 88 -17 162 -31 74 -14 161 -32 192 -40 32 -8 80 -15 107 -15 40 0 51 -4 56 -19 12 -38 103 -91 156 -91 20 0 38 -8 50 -22 l19 -23 24 27 c14 16 32 28 40 28 8 0 17 4 20 9 3 5 18 12 33 16 86 20 144 107 124 183 -15 56 -41 84 -107 117 -72 37 -140 37 -216 2 -71 -32 -139 -95 -152 -139 l-11 -35 -53 15 c-46 13 -69 30 -159 116 -58 56 -113 105 -122 110 -9 5 -29 20 -44 33 -42 34 -61 29 -94 -22z m128 -96 c35 -28 74 -63 86 -78 l22 -28 -97 18 c-128 25 -152 30 -152 37 0 4 72 102 76 102 1 0 30 -23 65 -51z m715 -61 c38 -37 52 -92 31 -119 -20 -26 -88 -56 -154 -68 -73 -14 -116 -1 -151 44 -36 46 -24 83 41 130 59 43 95 55 150 51 40 -3 55 -10 83 -38z"/>
</g>
</svg>
