<?xml version="1.0" standalone="no"?>
<!DOCTYPE svg PUBLIC "-//W3C//DTD SVG 20010904//EN" "http://www.w3.org/TR/2001/REC-SVG-20010904/DTD/svg10.dtd">
<svg xmlns="http://www.w3.org/2000/svg" version="1.0" width="360.000000pt" height="360.000000pt" viewBox="0 0 360.000000 360.000000" preserveAspectRatio="xMidYMid meet">

<g transform="translate(0.000000,360.000000) scale(0.100000,-0.100000)" fill="#000000" stroke="none">
<path d="M3162 1348 c-73 -27 -127 -67 -148 -111 l-15 -32 -207 -2 c-141 -1 -265 -8 -387 -23 -307 -37 -424 -47 -594 -49 -90 -1 -169 -5 -175 -8 -5 -4 -19 -7 -30 -8 -12 -1 -70 -14 -131 -28 -143 -34 -328 -70 -540 -106 -244 -42 -298 -49 -410 -56 -55 -3 -141 -10 -192 -16 -51 -5 -120 -9 -153 -9 -54 0 -61 -3 -68 -22 -12 -33 -8 -236 4 -248 7 -7 24 -6 53 5 24 8 52 15 61 15 22 0 30 19 18 43 -6 11 -20 17 -42 17 -32 0 -34 2 -43 48 -6 26 -14 55 -18 64 -6 16 -1 18 41 19 81 1 156 8 193 19 20 5 80 10 133 10 109 0 225 17 613 91 61 11 169 31 242 44 73 13 137 26 142 29 21 14 239 38 401 46 176 8 312 21 407 39 101 20 464 34 478 19 9 -9 -35 -204 -76 -333 -41 -132 -41 -146 -4 -165 23 -11 52 -14 120 -11 155 8 387 6 453 -3 51 -7 66 -6 72 5 11 17 -4 35 -43 56 -23 12 -67 15 -211 14 -99 0 -203 -4 -231 -8 -63 -10 -105 -5 -112 13 -3 7 2 37 11 66 8 29 29 105 46 168 17 63 35 131 40 151 13 46 24 55 82 63 43 6 47 5 53 -16 23 -80 84 -141 153 -154 21 -4 36 -14 42 -28 4 -12 15 -27 23 -34 13 -11 18 -8 33 18 15 24 25 30 49 29 58 -4 110 12 148 44 46 40 64 112 47 192 -13 62 -21 72 -94 120 -76 50 -141 56 -234 23z m192 -73 c29 -19 58 -46 64 -60 27 -59 7 -136 -44 -170 -41 -27 -183 -18 -242 15 -147 83 -55 229 156 249 8 0 37 -15 66 -34z"/>
</g>
</svg>
