<?xml version="1.0" standalone="no"?>
<!DOCTYPE svg PUBLIC "-//W3C//DTD SVG 20010904//EN" "http://www.w3.org/TR/2001/REC-SVG-20010904/DTD/svg10.dtd">
<svg xmlns="http://www.w3.org/2000/svg" version="1.0" width="360.000000pt" height="360.000000pt" viewBox="0 0 360.000000 360.000000" preserveAspectRatio="xMidYMid meet">

<g transform="translate(0.000000,360.000000) scale(0.100000,-0.100000)" fill="#000000" stroke="none">
<path d="M3139 1490 c-55 -19 -84 -42 -105 -82 l-14 -26 -158 5 c-152 5 -265 -3 -507 -37 -38 -6 -165 -14 -280 -19 -148 -7 -225 -15 -259 -26 -26 -9 -50 -14 -54 -11 -3 3 -15 0 -27 -8 -30 -20 -144 -64 -185 -72 -19 -4 -44 -13 -55 -20 -11 -6 -36 -15 -55 -19 -19 -4 -55 -13 -80 -21 -25 -7 -72 -20 -105 -28 -33 -7 -100 -27 -150 -44 -49 -17 -112 -37 -140 -46 -27 -8 -70 -22 -95 -30 -25 -9 -79 -25 -120 -37 -41 -13 -101 -31 -133 -41 -32 -10 -94 -23 -137 -29 -43 -5 -106 -19 -141 -31 -35 -11 -84 -21 -109 -22 l-44 -1 -11 -56 c-7 -31 -22 -70 -34 -88 -25 -35 -25 -58 1 -75 13 -8 22 -6 37 8 19 17 19 17 23 -6 2 -15 11 -24 26 -26 18 -3 26 4 38 35 9 21 33 58 53 83 50 61 54 69 42 84 -11 14 36 27 144 41 28 4 79 16 115 27 97 30 158 48 224 64 33 8 65 18 70 23 6 5 36 14 65 20 30 6 96 27 147 46 50 19 136 44 190 55 55 12 120 30 146 41 26 10 56 19 67 19 11 0 35 6 53 14 81 35 221 81 278 91 19 3 39 10 45 14 5 5 78 11 161 15 83 4 162 8 175 11 13 2 56 6 96 9 40 4 94 10 120 15 54 10 168 15 291 13 l84 -2 -44 -50 c-49 -58 -94 -116 -136 -176 l-28 -41 3 -217 c1 -119 5 -221 8 -227 9 -13 167 0 177 14 4 6 2 19 -4 30 -5 10 -8 20 -6 22 14 13 167 69 327 121 10 3 12 15 8 44 -3 21 -1 74 4 117 5 43 10 95 11 116 2 46 25 50 63 10 l27 -28 15 23 c10 14 26 22 43 22 42 0 121 27 141 48 10 11 23 22 29 24 16 5 39 77 40 121 0 42 -21 101 -48 130 -22 26 -85 52 -157 67 -87 18 -112 18 -166 0z m194 -72 c27 -6 51 -16 53 -23 3 -7 14 -15 25 -18 16 -4 19 -15 20 -59 2 -78 1 -80 -38 -117 l-35 -33 -93 4 c-86 4 -94 6 -133 37 -49 38 -58 66 -46 129 18 89 93 114 247 80z m-333 -128 c0 -40 13 -66 57 -112 20 -20 33 -41 29 -46 -3 -5 -8 -70 -11 -143 -6 -150 -6 -151 -83 -171 -23 -6 -45 -14 -48 -19 -3 -5 -14 -9 -26 -9 -27 0 -140 -55 -178 -87 -17 -14 -32 -24 -34 -22 -8 8 -10 315 -3 327 5 7 11 24 13 39 7 36 56 108 136 195 60 67 71 74 108 76 39 3 40 2 40 -28z m-2751 -560 c-24 -33 -44 -58 -46 -56 -6 5 19 56 28 56 4 0 12 14 18 30 5 17 17 30 26 30 11 0 4 -16 -26 -60z"/>
</g>
</svg>
