<?xml version="1.0" standalone="no"?>
<!DOCTYPE svg PUBLIC "-//W3C//DTD SVG 20010904//EN" "http://www.w3.org/TR/2001/REC-SVG-20010904/DTD/svg10.dtd">
<svg xmlns="http://www.w3.org/2000/svg" version="1.0" width="360.000000pt" height="360.000000pt" viewBox="0 0 360.000000 360.000000" preserveAspectRatio="xMidYMid meet">

<g transform="translate(0.000000,360.000000) scale(0.100000,-0.100000)" fill="#000000" stroke="none">
<path d="M1623 2088 c-33 -40 -64 -80 -69 -90 -5 -9 -29 -38 -54 -65 -25 -27 -63 -71 -85 -98 -22 -27 -96 -106 -165 -175 -69 -70 -190 -194 -270 -276 -80 -82 -209 -210 -287 -284 -79 -75 -143 -143 -143 -153 0 -10 7 -29 16 -43 17 -25 20 -87 9 -156 -6 -32 -3 -39 19 -53 16 -11 33 -14 43 -10 10 4 42 10 72 14 30 3 56 11 58 18 6 17 -38 42 -80 45 l-37 3 0 67 c0 37 -5 79 -11 95 -10 27 -5 33 208 243 412 407 670 685 788 850 44 60 61 77 63 64 11 -62 64 -167 137 -267 49 -68 170 -275 223 -381 24 -48 110 -166 121 -166 3 0 21 -13 40 -29 30 -24 32 -30 22 -49 -12 -23 -2 -73 33 -153 13 -32 13 -39 1 -55 -29 -39 -5 -95 25 -58 18 21 28 18 57 -16 45 -54 137 -76 197 -49 20 10 31 8 60 -11 20 -12 36 -25 36 -29 0 -3 18 -24 41 -46 22 -22 54 -55 71 -72 17 -18 35 -33 40 -33 5 0 26 -8 47 -18 50 -25 264 -25 269 -1 5 28 -31 47 -104 53 -39 3 -86 1 -103 -4 -36 -10 -29 -16 -197 144 l-73 68 4 67 c5 109 -51 222 -117 236 -18 4 -37 11 -43 15 -16 12 -128 30 -150 24 -13 -3 -27 2 -39 15 -11 12 -23 21 -29 21 -9 0 -33 23 -102 101 -17 19 -40 50 -50 69 -11 19 -34 58 -51 85 -17 28 -39 67 -47 88 -9 20 -39 72 -68 115 -95 141 -179 282 -200 335 -18 47 -41 77 -60 77 -3 0 -33 -33 -66 -72z m837 -920 c67 -15 105 -52 119 -116 5 -27 8 -58 4 -70 -5 -20 -8 -19 -44 19 -21 22 -56 62 -76 87 -21 26 -40 49 -43 52 -20 20 -31 40 -22 40 6 0 34 -5 62 -12z m-61 -91 c19 -23 58 -67 85 -97 l49 -55 -34 -5 c-40 -6 -89 15 -117 50 -18 24 -50 88 -72 146 -24 62 21 42 89 -39z"/>
</g>
</svg>
