<?xml version="1.0" standalone="no"?>
<!DOCTYPE svg PUBLIC "-//W3C//DTD SVG 20010904//EN" "http://www.w3.org/TR/2001/REC-SVG-20010904/DTD/svg10.dtd">
<svg xmlns="http://www.w3.org/2000/svg" version="1.0" width="360.000000pt" height="360.000000pt" viewBox="0 0 360.000000 360.000000" preserveAspectRatio="xMidYMid meet">

<g transform="translate(0.000000,360.000000) scale(0.100000,-0.100000)" fill="#000000" stroke="none">
<path d="M810 3088 c-95 -27 -119 -39 -113 -55 5 -13 23 -15 119 -11 107 5 113 4 121 -16 31 -67 79 -163 128 -251 31 -55 129 -247 219 -427 90 -179 183 -357 208 -395 24 -37 54 -85 66 -105 l21 -37 -25 -43 c-126 -216 -331 -519 -439 -648 -39 -47 -102 -130 -140 -185 -38 -55 -104 -136 -147 -181 -57 -59 -78 -88 -78 -107 0 -26 30 -53 44 -40 3 4 41 12 84 19 85 14 187 8 216 -12 25 -17 46 -2 46 32 0 42 -37 56 -155 56 -58 0 -105 2 -105 5 0 3 20 29 43 57 24 28 79 101 122 161 42 61 110 151 150 200 39 50 89 117 110 150 20 33 47 71 59 85 13 14 46 63 73 110 28 47 67 109 86 139 20 29 46 78 57 107 12 30 26 51 31 49 13 -9 139 -175 139 -184 0 -5 4 -11 8 -13 8 -3 36 -39 113 -143 24 -33 65 -84 91 -113 l48 -54 -43 -50 c-40 -48 -42 -53 -41 -117 1 -53 -3 -69 -18 -79 -10 -7 -25 -27 -33 -43 -14 -26 -14 -30 0 -35 8 -4 31 1 51 11 35 16 36 16 57 -8 46 -51 124 -87 191 -87 38 0 106 32 106 51 0 5 13 23 30 40 l30 31 59 -38 c92 -59 262 -175 301 -205 28 -21 50 -28 115 -33 44 -4 94 -10 110 -13 17 -3 38 -5 48 -5 23 1 67 29 67 43 0 19 -70 39 -142 40 -103 0 -154 25 -374 176 -57 39 -122 82 -144 94 -30 17 -40 29 -40 47 0 13 -12 39 -27 57 -16 18 -36 45 -46 59 -21 31 -96 70 -150 80 -54 10 -64 22 -336 385 -52 68 -104 148 -118 177 -13 29 -34 61 -47 71 -41 32 -112 154 -264 453 -82 162 -198 382 -256 489 -65 118 -105 202 -103 213 10 37 -110 68 -183 46z m1291 -1954 c13 -14 50 -44 82 -66 31 -23 57 -45 57 -49 0 -5 7 -9 16 -9 34 0 -13 -82 -60 -101 -59 -26 -151 30 -178 109 -24 66 -23 97 4 122 29 27 50 25 79 -6z"/>
</g>
</svg>
