<?xml version="1.0" standalone="no"?>
<!DOCTYPE svg PUBLIC "-//W3C//DTD SVG 20010904//EN" "http://www.w3.org/TR/2001/REC-SVG-20010904/DTD/svg10.dtd">
<svg xmlns="http://www.w3.org/2000/svg" version="1.0" width="360.000000pt" height="360.000000pt" viewBox="0 0 360.000000 360.000000" preserveAspectRatio="xMidYMid meet">

<g transform="translate(0.000000,360.000000) scale(0.100000,-0.100000)" fill="#000000" stroke="none">
<path d="M1492 3078 c-10 -13 -3 -65 44 -303 24 -124 74 -571 70 -627 -4 -56 -34 -128 -87 -205 -16 -23 -29 -46 -29 -51 0 -6 -61 -102 -136 -214 -75 -111 -156 -237 -181 -278 -24 -41 -65 -109 -92 -150 -26 -41 -59 -95 -73 -120 -14 -25 -59 -102 -101 -171 -41 -69 -91 -158 -110 -197 -40 -80 -92 -159 -120 -182 -14 -12 -17 -22 -12 -43 4 -15 12 -27 19 -27 6 -1 78 -1 160 -1 117 1 156 -3 183 -16 20 -9 38 -12 43 -7 17 17 22 60 8 71 -10 8 -186 22 -302 23 -17 0 -18 2 -4 18 20 21 148 212 148 219 0 3 24 46 53 96 30 51 71 126 92 167 21 41 53 99 71 128 19 29 34 55 34 57 0 3 20 36 44 73 24 37 55 87 69 112 22 39 50 81 167 245 37 52 190 319 190 331 0 32 30 17 66 -33 51 -73 168 -223 222 -287 35 -42 288 -411 300 -439 2 -4 -4 -24 -14 -45 -20 -39 -25 -150 -11 -207 7 -26 3 -35 -28 -69 -34 -35 -36 -40 -21 -54 15 -15 18 -15 46 1 29 17 70 16 70 -3 0 -15 112 -53 152 -52 22 1 44 4 48 7 8 5 52 -54 141 -186 38 -57 81 -104 105 -117 12 -6 43 -9 70 -6 27 3 100 1 162 -3 121 -9 144 -3 119 31 -17 23 -80 35 -188 36 -152 0 -133 -14 -311 235 l-36 50 14 55 c34 131 4 208 -119 305 -26 20 -54 32 -85 35 l-47 5 -145 216 c-80 119 -176 254 -215 300 -38 46 -85 105 -104 129 -32 42 -68 83 -131 150 -23 24 -25 34 -25 121 0 52 -6 130 -13 174 -7 44 -21 148 -32 230 -20 153 -36 226 -64 304 -23 64 -21 77 8 54 28 -23 174 -154 226 -203 20 -19 71 -64 113 -98 42 -35 77 -69 77 -75 0 -5 3 -8 6 -4 3 3 26 -14 51 -39 44 -42 63 -53 63 -36 0 15 192 50 283 51 51 1 56 8 29 41 -21 26 -103 40 -126 20 -9 -6 -19 -9 -24 -6 -5 3 -36 -1 -69 -9 -33 -8 -71 -11 -84 -8 -39 10 -346 261 -409 334 -14 16 -38 38 -53 48 -16 10 -47 36 -70 58 -48 46 -79 59 -95 41z m913 -1903 c65 -56 87 -99 83 -163 l-3 -47 -36 60 c-54 88 -110 195 -103 195 3 0 30 -20 59 -45z m-55 -107 c35 -62 70 -124 79 -137 l15 -24 -45 5 c-82 9 -123 55 -139 152 -7 45 5 116 20 116 3 0 35 -51 70 -112z"/>
</g>
</svg>
