<?xml version="1.0" standalone="no"?>
<!DOCTYPE svg PUBLIC "-//W3C//DTD SVG 20010904//EN" "http://www.w3.org/TR/2001/REC-SVG-20010904/DTD/svg10.dtd">
<svg xmlns="http://www.w3.org/2000/svg" version="1.0" width="360.000000pt" height="360.000000pt" viewBox="0 0 360.000000 360.000000" preserveAspectRatio="xMidYMid meet">

<g transform="translate(0.000000,360.000000) scale(0.100000,-0.100000)" fill="#000000" stroke="none">
<path d="M3100 1491 c-65 -12 -110 -34 -151 -78 -43 -45 -54 -65 -63 -115 -4 -20 -13 -39 -21 -42 -12 -4 -15 4 -15 41 0 32 -5 50 -17 59 -21 16 -55 18 -68 5 -26 -25 -344 -128 -410 -132 -5 -1 -26 -7 -45 -14 -44 -16 -148 -45 -175 -48 -11 -1 -24 -5 -30 -9 -5 -3 -46 -13 -90 -23 -44 -9 -115 -28 -158 -41 -43 -13 -87 -24 -97 -24 -11 0 -43 -8 -72 -19 -55 -19 -133 -43 -157 -47 -8 -1 -37 -10 -65 -19 -86 -29 -187 -53 -266 -64 -105 -15 -355 -5 -410 16 -8 4 -35 7 -60 8 -25 2 -94 8 -155 14 -60 6 -133 11 -162 11 -29 0 -86 11 -127 24 -53 17 -78 20 -85 13 -17 -17 -13 -42 9 -62 30 -27 29 -160 -2 -222 -33 -66 -21 -77 82 -81 46 -2 89 -1 96 2 25 10 3 35 -49 56 l-52 22 0 97 0 98 40 -4 c22 -2 98 -8 170 -13 72 -5 162 -14 200 -19 39 -6 87 -12 108 -15 21 -3 41 -7 45 -9 6 -4 213 -20 247 -20 57 1 152 16 205 32 36 11 83 23 105 26 22 3 56 12 75 19 19 7 62 21 95 31 33 9 71 21 84 27 13 5 58 18 100 28 42 11 110 29 151 41 41 12 102 23 135 24 33 1 78 6 100 13 22 6 108 18 190 27 83 8 175 20 205 25 106 18 140 20 140 11 0 -38 -164 -370 -190 -386 -19 -12 -50 -84 -44 -100 10 -24 51 -37 76 -24 11 6 41 13 66 15 44 5 48 3 64 -25 l17 -31 96 0 c111 0 96 1 137 -10 54 -16 77 21 37 59 -21 19 -21 19 57 15 86 -6 170 1 194 16 13 8 13 11 0 24 -26 24 -129 35 -292 31 -87 -3 -158 -1 -158 3 0 4 11 66 24 137 14 72 27 150 31 175 14 103 24 126 62 138 33 10 38 9 55 -14 45 -57 133 -70 232 -35 l57 20 32 -29 c46 -40 66 -27 50 31 -10 40 -9 45 22 90 17 26 37 68 44 94 10 42 9 50 -10 85 -13 23 -37 46 -56 55 -41 20 -121 26 -183 16z m140 -76 c42 -22 47 -56 18 -112 -38 -75 -170 -141 -234 -118 -38 14 -68 58 -68 102 0 90 191 176 284 128z m-470 -158 c0 -22 -7 -24 -105 -38 -58 -8 -102 -12 -98 -8 8 7 180 67 196 68 4 1 7 -9 7 -22z m-227 -54 c-7 -2 -19 -2 -25 0 -7 3 -2 5 12 5 14 0 19 -2 13 -5z m161 -274 c-33 -193 -38 -204 -95 -204 -24 0 -44 5 -44 10 0 6 23 55 51 110 28 55 64 133 79 173 16 39 30 71 32 69 2 -2 -9 -73 -23 -158z"/>
</g>
</svg>
