<?xml version="1.0" standalone="no"?>
<!DOCTYPE svg PUBLIC "-//W3C//DTD SVG 20010904//EN" "http://www.w3.org/TR/2001/REC-SVG-20010904/DTD/svg10.dtd">
<svg xmlns="http://www.w3.org/2000/svg" version="1.0" width="360.000000pt" height="360.000000pt" viewBox="0 0 360.000000 360.000000" preserveAspectRatio="xMidYMid meet">

<g transform="translate(0.000000,360.000000) scale(0.100000,-0.100000)" fill="#000000" stroke="none">
<path d="M1786 2530 c-16 -10 -34 -27 -40 -37 -5 -10 -46 -64 -90 -121 -45 -56 -90 -116 -101 -132 -11 -17 -46 -63 -78 -103 -32 -39 -93 -117 -136 -172 -44 -55 -92 -111 -108 -125 -16 -14 -35 -34 -43 -46 -8 -11 -43 -37 -77 -57 -34 -21 -83 -57 -110 -80 -65 -59 -277 -216 -338 -252 -28 -15 -68 -40 -90 -54 -22 -14 -53 -26 -70 -26 l-30 0 3 -85 c1 -47 -2 -107 -7 -133 -8 -43 -6 -52 13 -73 46 -54 72 4 69 152 l-2 71 62 32 c106 56 150 83 208 130 31 25 83 64 115 86 31 22 74 54 93 70 57 49 148 114 176 127 14 6 25 16 25 22 0 6 33 45 73 87 39 42 97 109 127 149 30 41 81 103 113 138 31 35 57 69 57 74 0 6 17 30 38 54 20 24 66 77 101 119 35 41 66 73 68 72 9 -10 14 -98 20 -358 l6 -286 -32 -14 c-17 -8 -31 -18 -31 -22 0 -5 -5 -5 -10 -2 -19 12 -199 -96 -275 -164 -34 -31 -151 -108 -209 -136 -21 -11 -58 -37 -81 -57 -24 -21 -50 -38 -58 -38 -41 0 -47 -10 -47 -84 -1 -60 -16 -195 -34 -286 -3 -14 -14 -83 -26 -154 -26 -154 -25 -153 -62 -192 -53 -56 -16 -94 57 -60 18 9 39 16 47 16 8 0 23 6 33 14 17 12 18 17 7 40 -7 16 -17 24 -23 20 -8 -5 -9 6 -5 37 15 98 28 176 36 219 5 25 12 65 15 90 3 25 10 63 15 85 5 22 10 70 10 106 0 65 1 67 43 105 23 22 86 66 140 99 126 77 160 99 238 158 99 75 100 76 82 19 -19 -63 -10 -179 19 -227 18 -32 90 -92 111 -93 5 0 14 -8 21 -17 16 -22 50 -15 54 10 1 11 16 26 32 33 53 24 83 55 111 119 36 77 36 116 3 207 l-25 71 23 -22 c19 -17 143 -99 308 -204 97 -62 215 -131 265 -156 32 -15 59 -32 61 -38 2 -5 6 -66 8 -135 2 -69 7 -136 11 -150 3 -14 8 -72 12 -130 4 -85 2 -113 -11 -144 -15 -36 -15 -40 0 -57 11 -13 25 -17 40 -13 15 4 43 -4 78 -21 56 -27 89 -27 100 0 7 19 -12 37 -78 75 l-55 31 0 92 c-1 51 -5 119 -11 152 -5 33 -10 96 -10 140 -1 111 -21 205 -50 225 -13 8 -75 45 -139 81 -142 80 -336 200 -443 274 -44 30 -86 55 -94 55 -8 0 -18 -10 -23 -22 -6 -18 -9 -19 -14 -5 -3 9 -20 25 -37 36 l-31 18 -1 214 c0 118 -6 270 -13 339 -7 69 -11 127 -9 129 11 14 134 -131 425 -501 55 -71 103 -128 107 -128 8 0 52 -36 102 -83 120 -114 399 -323 457 -341 12 -4 27 -13 33 -21 7 -8 20 -15 30 -15 14 0 21 -20 38 -106 22 -107 33 -134 58 -134 39 0 38 74 -4 218 l-18 62 -74 38 c-128 65 -302 189 -426 305 -40 37 -75 67 -78 67 -8 0 -105 100 -134 140 -26 35 -112 140 -122 150 -15 14 -69 88 -67 91 1 2 0 3 -2 2 -2 -1 -14 10 -27 25 -14 15 -32 36 -42 47 -10 11 -37 45 -59 75 -52 71 -160 180 -177 180 -7 0 -21 9 -31 20 -22 24 -41 24 -79 0z m113 -855 c33 -17 61 -83 68 -163 4 -43 0 -60 -20 -95 -27 -45 -89 -87 -130 -87 -111 0 -125 233 -18 327 40 36 59 40 100 18z"/>
</g>
</svg>
