<?xml version="1.0" standalone="no"?>
<!DOCTYPE svg PUBLIC "-//W3C//DTD SVG 20010904//EN" "http://www.w3.org/TR/2001/REC-SVG-20010904/DTD/svg10.dtd">
<svg xmlns="http://www.w3.org/2000/svg" version="1.0" width="360.000000pt" height="360.000000pt" viewBox="0 0 360.000000 360.000000" preserveAspectRatio="xMidYMid meet">

<g transform="translate(0.000000,360.000000) scale(0.100000,-0.100000)" fill="#000000" stroke="none">
<path d="M1833 2137 c-74 -21 -99 -31 -116 -46 -11 -8 -25 -16 -32 -16 -13 0 -46 -29 -269 -232 -61 -55 -145 -129 -186 -162 -41 -34 -95 -78 -120 -100 -25 -21 -56 -44 -70 -51 -14 -7 -27 -16 -30 -20 -8 -11 -136 -88 -230 -138 -47 -25 -101 -58 -120 -73 -56 -43 -227 -119 -269 -119 -47 0 -61 -14 -61 -61 0 -42 -36 -126 -92 -216 -42 -66 -46 -96 -13 -101 39 -6 139 140 165 241 l15 59 70 28 c86 34 132 55 166 78 15 9 57 35 95 56 131 75 259 149 296 173 21 12 42 23 48 23 6 0 38 25 73 56 73 65 114 100 222 190 44 36 100 87 125 113 26 25 74 70 109 100 l63 54 36 -40 c35 -37 78 -70 232 -176 l70 -47 -41 -67 c-23 -37 -64 -113 -91 -170 -50 -101 -51 -104 -46 -178 4 -60 2 -77 -11 -87 -26 -21 -60 -38 -75 -38 -7 0 -19 -7 -27 -16 -10 -13 -10 -25 6 -69 13 -41 16 -69 12 -117 -4 -35 -3 -68 1 -74 9 -14 92 -25 92 -13 0 15 28 10 34 -7 11 -29 6 -42 -24 -54 -16 -7 -34 -18 -40 -25 -23 -28 27 -78 55 -55 9 7 30 9 58 5 55 -8 74 12 52 55 -24 47 -33 104 -41 270 l-7 125 39 27 c21 14 59 45 84 69 25 25 67 60 93 79 123 89 169 156 145 208 -7 15 -49 56 -94 91 l-80 64 52 94 c28 52 54 97 57 99 3 3 3 -12 1 -33 -3 -24 1 -47 10 -63 9 -14 18 -32 21 -40 11 -28 82 -70 118 -70 33 0 67 -20 67 -40 0 -5 10 -14 21 -21 24 -13 42 3 36 32 -3 12 3 14 25 11 18 -3 49 4 77 18 l47 22 28 -24 c16 -12 47 -39 70 -59 22 -20 68 -55 101 -79 33 -24 69 -52 80 -63 11 -10 47 -37 79 -60 82 -58 106 -84 147 -163 19 -38 75 -129 123 -203 48 -74 90 -141 94 -150 3 -9 13 -27 22 -41 21 -31 31 -72 22 -87 -4 -7 -25 -18 -47 -25 -47 -15 -75 -59 -55 -84 14 -16 63 -19 90 -4 13 7 28 7 46 -1 52 -19 98 27 68 69 -7 11 -16 39 -19 63 -8 57 -24 99 -46 124 -10 11 -28 39 -41 61 -13 23 -50 81 -83 130 -73 109 -76 115 -115 188 -38 74 -90 132 -149 170 -52 33 -283 208 -321 243 -14 13 -33 23 -42 23 -16 0 -16 3 2 35 20 36 26 106 14 153 -7 24 -102 92 -130 92 -8 0 -37 7 -65 16 -32 11 -63 14 -92 10 -73 -11 -151 -62 -172 -112 -7 -18 -7 -18 -15 1 -5 14 -2 24 11 33 11 7 19 17 19 23 0 17 -119 87 -168 98 -69 17 -226 28 -259 18z m272 -102 c28 -10 54 -21 58 -25 9 -8 -87 -202 -108 -220 -8 -7 -48 15 -141 80 -180 125 -181 126 -168 147 20 33 72 43 194 39 75 -2 132 -10 165 -21z m410 -45 c3 -5 19 -10 36 -10 22 0 29 -5 29 -19 0 -13 9 -21 30 -26 26 -6 30 -11 30 -39 0 -44 -38 -97 -75 -108 -36 -11 -192 0 -220 15 -20 10 -38 29 -55 58 -13 22 40 93 89 119 38 20 126 27 136 10z m-384 -385 c38 -31 69 -59 69 -63 0 -11 -65 -71 -130 -122 -30 -23 -73 -58 -95 -79 -74 -67 -72 -66 -69 -12 1 37 18 79 74 189 40 78 75 142 78 142 2 0 36 -25 73 -55z m-279 -570 c4 -44 5 -81 3 -83 -2 -3 -11 -2 -20 1 -11 5 -15 21 -15 64 0 32 -4 65 -10 73 -6 9 -5 17 3 22 24 15 32 0 39 -77z"/>
</g>
</svg>
