<?xml version="1.0" standalone="no"?>
<!DOCTYPE svg PUBLIC "-//W3C//DTD SVG 20010904//EN" "http://www.w3.org/TR/2001/REC-SVG-20010904/DTD/svg10.dtd">
<svg xmlns="http://www.w3.org/2000/svg" version="1.0" width="360.000000pt" height="360.000000pt" viewBox="0 0 360.000000 360.000000" preserveAspectRatio="xMidYMid meet">

<g transform="translate(0.000000,360.000000) scale(0.100000,-0.100000)" fill="#000000" stroke="none">
<path d="M1598 2550 c-177 -30 -357 -123 -458 -237 -100 -113 -145 -235 -138 -371 6 -111 27 -163 129 -327 148 -239 213 -393 231 -549 11 -101 27 -137 72 -161 27 -14 70 -16 338 -13 l308 3 31 31 c28 29 32 41 45 137 22 169 93 333 247 576 82 128 107 194 114 291 20 291 -221 547 -577 614 -86 17 -260 19 -342 6z m377 -64 c103 -28 239 -101 309 -167 116 -108 166 -216 166 -357 -1 -105 -29 -181 -118 -319 -146 -226 -224 -410 -242 -574 -15 -131 -14 -130 -169 -127 l-126 3 -6 235 c-3 129 -4 240 -2 245 2 6 37 27 78 49 130 66 285 232 285 304 0 38 -19 62 -63 83 -76 34 -136 20 -201 -47 -32 -33 -94 -145 -121 -219 -6 -16 -10 -11 -25 31 -60 173 -188 252 -276 171 -69 -63 -55 -177 32 -257 41 -38 172 -110 200 -110 18 0 23 -47 31 -276 l6 -214 -130 0 c-161 0 -162 1 -174 125 -16 157 -102 363 -240 575 -81 124 -106 181 -118 263 -20 140 23 268 128 380 103 109 231 179 391 213 84 17 303 12 385 -10z m83 -672 c30 -21 28 -52 -9 -107 -49 -74 -217 -213 -235 -195 -2 3 7 38 22 79 66 185 152 272 222 223z m-470 -58 c16 -14 42 -51 59 -83 32 -61 61 -168 49 -180 -11 -11 -115 47 -153 85 -19 19 -38 45 -44 59 -23 62 0 143 41 143 10 0 32 -11 48 -24z"/>
<path d="M1446 841 c-21 -23 -14 -57 15 -66 23 -7 26 -25 4 -25 -9 0 -21 -12 -27 -26 -11 -24 -10 -29 16 -49 27 -22 28 -23 8 -29 -30 -10 -38 -43 -16 -67 16 -18 33 -19 315 -19 l299 0 16 25 c14 21 14 28 3 41 -7 9 -22 20 -34 24 -19 8 -19 8 6 18 15 6 29 18 33 27 8 21 -10 55 -29 55 -22 0 -18 9 10 32 30 24 31 32 5 58 -19 19 -33 20 -313 20 -278 0 -295 -1 -311 -19z m543 -55 c6 -7 9 -21 5 -30 -5 -14 -33 -16 -235 -16 -196 0 -230 2 -235 15 -4 8 -1 22 6 30 18 21 441 22 459 1z m-99 -121 c10 -12 10 -18 0 -30 -10 -12 -43 -15 -182 -15 -141 0 -170 2 -174 15 -4 8 -4 22 0 30 4 13 33 15 174 15 139 0 172 -3 182 -15z"/>
<path d="M1575 514 c94 -75 270 -77 362 -4 l26 20 -204 0 c-188 -1 -202 -2 -184 -16z"/>
</g>
</svg>
