<?xml version="1.0" standalone="no"?>
<!DOCTYPE svg PUBLIC "-//W3C//DTD SVG 20010904//EN" "http://www.w3.org/TR/2001/REC-SVG-20010904/DTD/svg10.dtd">
<svg xmlns="http://www.w3.org/2000/svg" version="1.0" width="360.000000pt" height="360.000000pt" viewBox="0 0 360.000000 360.000000" preserveAspectRatio="xMidYMid meet">

<g transform="translate(0.000000,360.000000) scale(0.100000,-0.100000)" fill="#000000" stroke="none">
<path d="M1235 1396 c-44 -20 -83 -60 -105 -108 -31 -67 -27 -80 18 -73 64 11 68 14 80 60 29 109 115 113 151 6 27 -83 0 -176 -68 -230 -20 -16 -70 -47 -109 -69 l-73 -39 83 -6 c46 -4 135 -9 198 -12 l115 -6 25 32 24 32 -49 -6 c-28 -4 -97 -9 -155 -12 l-105 -6 31 28 c17 15 58 51 91 80 176 152 140 344 -64 343 -32 -1 -71 -7 -88 -14z"/>
<path d="M2257 1139 l-95 -100 -52 55 c-55 58 -154 116 -198 116 -23 0 -22 -2 15 -29 48 -35 69 -63 116 -156 l35 -71 -109 -116 -109 -116 38 -5 c36 -5 39 -3 122 85 l86 90 64 -64 c70 -70 118 -92 220 -103 l55 -6 -37 20 c-78 43 -218 195 -218 235 0 6 50 65 110 130 60 66 109 121 107 121 -1 1 -14 5 -29 9 -23 5 -36 -5 -121 -95z"/>
</g>
</svg>
