<?xml version="1.0" standalone="no"?>
<!DOCTYPE svg PUBLIC "-//W3C//DTD SVG 20010904//EN" "http://www.w3.org/TR/2001/REC-SVG-20010904/DTD/svg10.dtd">
<svg xmlns="http://www.w3.org/2000/svg" version="1.0" width="360.000000pt" height="360.000000pt" viewBox="0 0 360.000000 360.000000" preserveAspectRatio="xMidYMid meet">

<g transform="translate(0.000000,360.000000) scale(0.100000,-0.100000)" fill="#000000" stroke="none">
<path d="M820 1594 c-30 -8 -95 -18 -145 -22 l-90 -8 45 -14 c29 -9 79 -13 140 -11 229 7 233 7 272 -17 52 -32 88 -108 88 -185 0 -81 -17 -131 -59 -178 -32 -35 -51 -45 -156 -78 l-120 -38 57 -8 c32 -4 71 -5 88 -3 27 4 32 0 67 -60 47 -80 143 -170 225 -210 100 -48 112 -49 72 -6 -19 20 -73 101 -121 181 -80 135 -85 146 -67 156 31 17 79 72 100 114 12 25 20 66 22 125 3 76 1 94 -21 141 -43 94 -128 138 -265 136 -42 0 -102 -7 -132 -15z"/>
<path d="M2400 1413 c0 -230 -15 -513 -30 -563 -6 -20 -6 -36 -1 -38 5 -2 35 -23 67 -47 67 -51 86 -55 103 -22 12 22 14 23 199 21 l187 -1 40 27 c44 30 83 70 69 70 -5 0 -44 -11 -87 -25 -67 -22 -97 -25 -212 -25 -73 0 -144 4 -157 9 -22 8 -25 17 -36 137 -22 224 -62 522 -77 570 -13 45 -40 84 -57 84 -4 0 -8 -89 -8 -197z"/>
<path d="M638 1508 l-28 -10 0 -156 c-1 -157 -13 -412 -25 -487 -6 -40 -5 -40 55 -84 34 -24 68 -44 77 -45 9 0 25 13 35 30 18 30 17 37 -7 275 -25 237 -50 436 -61 472 -6 19 -8 19 -46 5z"/>
<path d="M1969 1378 c-23 -40 -78 -129 -121 -196 -44 -68 -99 -161 -123 -205 -41 -77 -96 -220 -95 -249 1 -22 97 90 164 192 59 88 163 265 249 421 l36 66 -29 21 c-16 12 -31 22 -33 22 -3 0 -24 -33 -48 -72z"/>
</g>
</svg>
