<svg id="animation-loading__downdog" xmlns="http://www.w3.org/2000/svg" xmlns:xlink="http://www.w3.org/1999/xlink" viewBox="0 0 483 404" shape-rendering="geometricPrecision" text-rendering="geometricPrecision">

<path d="M209.874598,205.714484c-4.4,5.3333-8.533,10.6667-9.2,12-.667,1.2-3.867,5.0667-7.2,8.6667s-8.4,9.4666-11.333,13.0666c-2.934,3.6-12.8,14.1334-22.0004,23.3334-9.2,9.3333-25.3333,25.8666-36,36.8004-10.6667,10.933-27.8667,28-38.2667,37.866-10.53331,10-19.066648,19.067-19.066648,20.4c0,1.334.933338,3.867,2.133338,5.734c2.26666,3.333,2.66666,11.6,1.2,20.8-.8,4.266-.4,5.2,2.53333,7.066c2.13333,1.467,4.39998,1.867,5.73338,1.334c1.3333-.534,5.6-1.334,9.6-1.867c4-.4,7.4666-1.467,7.7333-2.4.8-2.267-5.0667-5.6-10.6667-6l-4.9333-.4v-8.933c0-4.934-.6667-10.534-1.4667-12.667-1.3333-3.6-.6666-4.4,27.7334-32.4c54.9333-54.2668,89.3337-91.3334,105.0667-113.3334c5.867-8,8.133-10.26671,8.4-8.5334c1.467,8.2667,8.533,22.2667,18.267,35.6c6.533,9.0667,22.666,36.6667,29.733,50.8c3.2,6.3998,14.667,22.1338,16.133,22.1338.4,0,2.8,1.733,5.334,3.866c4,3.2,4.266,4,2.933,6.534-1.6,3.066-.267,9.733,4.4,20.4c1.733,4.266,1.733,5.2.133,7.333-3.866,5.2-.666,12.667,3.334,7.733c2.4-2.8,3.733-2.4,7.6,2.134c6,7.2,18.266,10.133,26.266,6.533c2.667-1.333,4.134-1.067,8,1.467c2.667,1.6,4.8,3.333,4.8,3.866c0,.4,2.4,3.2,5.467,6.134c2.933,2.933,7.2,7.333,9.467,9.6c2.266,2.4,4.666,4.4,5.333,4.4s3.467,1.066,6.267,2.4c6.666,3.333,35.2,3.333,35.866.133.667-3.733-4.133-6.267-13.866-7.067-5.2-.4-11.467-.133-13.734.534-4.8,1.333-3.866,2.133-26.266-19.2l-9.734-9.067.534-8.933c.666-14.534-6.8-29.6-15.6-31.467-2.4-.533-4.934-1.467-5.734-2-2.133-1.6-17.066-4-20-3.2-1.733.4-3.6-.267-5.2-2-1.466-1.6-3.066-2.8-3.866-2.8-1.2,0-4.4-3.067-13.6-13.467-2.267-2.5331-5.334-6.6664-6.667-9.1998-1.467-2.5333-4.533-7.7333-6.8-11.3333-2.267-3.7333-5.2-8.9333-6.267-11.7333-1.2-2.6667-5.2-9.6-9.066-15.3334-12.667-18.8-23.867-37.6-26.667-44.6666-2.4-6.26671-5.467-10.266707-8-10.266707-.4,0-4.4,4.400007-8.8,9.600007Zm111.6,122.6671c8.933,2,14,6.933,15.867,15.466.666,3.6,1.066,7.734.533,9.334-.667,2.666-1.067,2.533-5.867-2.534-2.8-2.933-7.466-8.266-10.133-11.6-2.8-3.466-5.333-6.533-5.733-6.933-2.667-2.667-4.134-5.333-2.934-5.333.8,0,4.534.666,8.267,1.6Zm-8.133,12.133c2.533,3.067,7.733,8.933,11.333,12.933l6.533,7.334-4.533.666c-5.333.8-11.867-2-15.6-6.666-2.4-3.2-6.667-11.734-9.6-19.467c14.667,3.733,2.8-5.6,11.867,5.2Z" transform="translate(42.391331-3.999182)"/>
    <g id="animation-loading__downdog__leg" transform="translate(258.391963,199.748114) rotate(0)">
        <path d="M312.268081,-83.53247c.666-1.3333,4.8-6.6667,9.2-11.99999c4.4-5.19999,6.747846-7.361354,7.147846-7.361354l1.651902,5.824055c-.267-1.7333-1.333748,2.603989-7.199748,10.603989-15.734,22-50.1337,59.0666-105.067,113.3332-28.4,28-29.0667,28.8-27.7333,32.4.8,2.133,1.4666,7.733,1.4666,12.667v8.933l4.9334.4c5.6.4,11.4666,3.733,10.6666,6-.2666.933-3.7333,2-7.7333,2.4-4,.533-8.2667,1.333-9.6,1.867-1.3333.533-3.6.133-5.73333-1.334-2.93334-1.866-3.33334-2.8-2.53334-7.066c1.46667-9.2,1.06667-17.467-1.2-20.8-1.199997-1.867-2.13333-4.4-2.13333-5.734c0-1.333,8.53333-10.4,19.0667-20.4c10.4-9.866,27.6-26.933,38.2666-37.866c10.6667-10.9336,26.8-27.4669,36-36.8002c9.1997-9.2,19.0667-19.7334,21.9997-23.3334c2.934-3.6,8-9.4666,11.334-13.0666c3.333-3.6,6.533-7.4667,7.2-8.6667Z" transform="translate(-327.593863,99.722376)"/>
    </g>
</svg>
