<svg width="39" height="39" viewBox="0 0 39 39" fill="none" xmlns="http://www.w3.org/2000/svg">
<path d="M19.5 0C8.74788 0 0 8.74788 0 19.5C0 30.2521 8.74788 39 19.5 39C30.2521 39 39 30.2521 39 19.5C39 8.74788 30.2521 0 19.5 0ZM19.5 36.9474C9.87976 36.9474 2.05263 29.1202 2.05263 19.5C2.05263 9.87976 9.87976 2.05263 19.5 2.05263C29.1202 2.05263 36.9474 9.87976 36.9474 19.5C36.9474 29.1202 29.1202 36.9474 19.5 36.9474Z" fill="white"/>
<path d="M23.3047 10.5637C22.9037 10.1628 22.2543 10.1628 21.8534 10.5637L13.6421 18.7743C13.4497 18.9667 13.3414 19.2276 13.3414 19.4999C13.3414 19.7722 13.4497 20.0331 13.6421 20.2255L21.8534 28.4361C22.0538 28.6365 22.3164 28.7367 22.579 28.7367C22.8416 28.7367 23.1042 28.6365 23.3046 28.4361C23.7056 28.0354 23.7056 27.3854 23.3046 26.9848L15.8191 19.4993L23.3046 12.0138C23.7053 11.6132 23.7053 10.9631 23.3044 10.5625L23.3047 10.5637Z" fill="white"/>
</svg>
